<svg width="24" height="24" viewBox="0 0 24 24" fill="none" xmlns="http://www.w3.org/2000/svg">
<path d="M8.9998 15.7496C12.7276 15.7496 15.7496 12.7276 15.7496 8.9998C15.7496 5.27199 12.7276 2.25 8.9998 2.25C5.27199 2.25 2.25 5.27199 2.25 8.9998C2.25 12.7276 5.27199 15.7496 8.9998 15.7496Z" stroke="black" stroke-width="1.12497" stroke-linecap="round" stroke-linejoin="round"/>
<path d="M14.9998 21.7496C18.7276 21.7496 21.7496 18.7276 21.7496 14.9998C21.7496 11.272 18.7276 8.25 14.9998 8.25C11.272 8.25 8.25 11.272 8.25 14.9998C8.25 18.7276 11.272 21.7496 14.9998 21.7496Z" stroke="black" stroke-width="1.12497" stroke-linecap="round" stroke-linejoin="round"/>
<path d="M11.4883 9.23535L14.7664 12.5135" stroke="black" stroke-width="1.12497" stroke-linecap="round" stroke-linejoin="round"/>
<path d="M9.23438 11.4854L12.5125 14.7635" stroke="black" stroke-width="1.12497" stroke-linecap="round" stroke-linejoin="round"/>
</svg>
