<svg width="24" height="24" viewBox="0 0 24 24" fill="none" xmlns="http://www.w3.org/2000/svg">
<path d="M5.62492 9.74984C7.07463 9.74984 8.24984 8.57463 8.24984 7.12492C8.24984 5.67522 7.07463 4.5 5.62492 4.5C4.17522 4.5 3 5.67522 3 7.12492C3 8.57463 4.17522 9.74984 5.62492 9.74984Z" stroke="black" stroke-width="1.5" stroke-linecap="round" stroke-linejoin="round"/>
<path d="M5.62492 19.4998C7.07463 19.4998 8.24984 18.3246 8.24984 16.8749C8.24984 15.4252 7.07463 14.25 5.62492 14.25C4.17522 14.25 3 15.4252 3 16.8749C3 18.3246 4.17522 19.4998 5.62492 19.4998Z" stroke="black" stroke-width="1.5" stroke-linecap="round" stroke-linejoin="round"/>
<path d="M12.7477 12L7.78906 15.3927" stroke="black" stroke-width="1.5" stroke-linecap="round" stroke-linejoin="round"/>
<path d="M21.7497 5.8418L15.4062 10.182" stroke="black" stroke-width="1.5" stroke-linecap="round" stroke-linejoin="round"/>
<path d="M21.7474 18.1569L7.78906 8.60645" stroke="black" stroke-width="1.5" stroke-linecap="round" stroke-linejoin="round"/>
</svg>
