<svg width="24" height="24" viewBox="0 0 24 24" fill="none" xmlns="http://www.w3.org/2000/svg">
<g clip-path="url(#clip0_726_63079)">
<path d="M3.36035 14.0693H9.0293C9.69141 14.0693 10.207 13.8891 10.5761 13.5288C10.9453 13.1684 11.1299 12.6601 11.1299 12.0039V6.33496C11.1299 5.67871 10.9453 5.17041 10.5761 4.81006C10.207 4.44971 9.69141 4.26953 9.0293 4.26953H3.36035C2.7041 4.26953 2.19287 4.44971 1.82666 4.81006C1.46045 5.17041 1.27734 5.67871 1.27734 6.33496V12.0039C1.27734 12.666 1.46045 13.1758 1.82666 13.5332C2.19287 13.8906 2.7041 14.0693 3.36035 14.0693ZM14.7862 14.1836H20.5693C21.2549 14.1836 21.7851 13.999 22.1601 13.6298C22.5351 13.2607 22.7226 12.7422 22.7226 12.0742V6.27344C22.7226 5.59961 22.5351 5.07812 22.1601 4.70898C21.7851 4.33984 21.2549 4.15527 20.5693 4.15527H14.7862C14.1065 4.15527 13.5791 4.33984 13.2041 4.70898C12.8291 5.07812 12.6416 5.59961 12.6416 6.27344V12.0742C12.6416 12.7422 12.8291 13.2607 13.2041 13.6298C13.5791 13.999 14.1065 14.1836 14.7862 14.1836ZM14.8037 12.7949C14.5459 12.7949 14.3525 12.7305 14.2237 12.6016C14.0947 12.4727 14.0303 12.2764 14.0303 12.0127V6.32617C14.0303 6.0625 14.0947 5.86621 14.2237 5.73731C14.3525 5.6084 14.5459 5.54394 14.8037 5.54394H20.5517C20.8213 5.54394 21.019 5.6084 21.145 5.73731C21.271 5.86621 21.334 6.0625 21.334 6.32617V12.0127C21.334 12.2764 21.271 12.4727 21.145 12.6016C21.019 12.7305 20.8213 12.7949 20.5517 12.7949H14.8037ZM1.94531 17.3565C1.76953 17.3565 1.61426 17.4253 1.47949 17.563C1.34473 17.7007 1.27734 17.8662 1.27734 18.0596C1.27734 18.2588 1.34473 18.4272 1.47949 18.5649C1.61426 18.7026 1.76953 18.7715 1.94531 18.7715H4.78418V17.3565H1.94531ZM6.31347 20.1777C6.70019 20.1777 7.05322 20.0825 7.37256 19.892C7.6919 19.7017 7.94678 19.4468 8.13721 19.1274C8.32763 18.8081 8.42285 18.4551 8.42285 18.0684C8.42285 17.6816 8.32763 17.3271 8.13721 17.0048C7.94678 16.6826 7.6919 16.4262 7.37256 16.2358C7.05322 16.0454 6.70019 15.9502 6.31347 15.9502C5.92676 15.9502 5.57373 16.0454 5.2544 16.2358C4.93506 16.4262 4.68018 16.6826 4.48975 17.0048C4.29932 17.3271 4.2041 17.6816 4.2041 18.0684C4.2041 18.4551 4.29932 18.8081 4.48975 19.1274C4.68018 19.4468 4.93506 19.7017 5.2544 19.892C5.57373 20.0825 5.92676 20.1777 6.31347 20.1777ZM6.31347 19.0967C6.02051 19.0967 5.77588 18.9956 5.57959 18.7934C5.3833 18.5913 5.28515 18.3467 5.28515 18.0596C5.28515 17.7725 5.3833 17.5293 5.57959 17.3301C5.77588 17.1308 6.02051 17.0312 6.31347 17.0312C6.60059 17.0312 6.84375 17.1308 7.04297 17.3301C7.24219 17.5293 7.3418 17.7725 7.3418 18.0596C7.3418 18.3467 7.24219 18.5913 7.04297 18.7934C6.84375 18.9956 6.60059 19.0967 6.31347 19.0967ZM7.71094 17.3565V18.7715H22.0107C22.2099 18.7715 22.3784 18.7026 22.5161 18.5649C22.6538 18.4272 22.7226 18.2588 22.7226 18.0596C22.7226 17.8662 22.6538 17.7007 22.5161 17.563C22.3784 17.4253 22.2099 17.3565 22.0107 17.3565H7.71094Z" fill="black"/>
</g>
<defs>
<clipPath id="clip0_726_63079">
<rect width="21.4453" height="16.3564" fill="white" transform="translate(1.27734 3.82129)"/>
</clipPath>
</defs>
</svg>
