<svg width="24" height="24" viewBox="0 0 24 24" fill="none" xmlns="http://www.w3.org/2000/svg">
<path d="M7.33333 14.6667H9.33333V16.6667C9.33333 17.402 9.93133 18 10.6667 18H16.6667C17.402 18 18 17.402 18 16.6667V10.6667C18 9.93133 17.402 9.33333 16.6667 9.33333H14.6667V7.33333C14.6667 6.598 14.0687 6 13.3333 6H7.33333C6.598 6 6 6.598 6 7.33333V13.3333C6 14.0687 6.598 14.6667 7.33333 14.6667ZM16.6667 10.6667L16.6647 16.6667H10.6667V14.6667H13.3333C14.0687 14.6667 14.6667 14.0687 14.6667 13.3333V10.6667H16.6667ZM7.33333 10.6667H10.6667V7.33333H13.3333L13.3313 13.3333H7.33333V10.6667Z" fill="black"/>
</svg>
