<svg width="24" height="24" viewBox="0 0 24 24" fill="none" xmlns="http://www.w3.org/2000/svg">
<path d="M7.5 14.133V12H5.358C3.675 12 3 12.675 3 14.367V18.642C3 20.325 3.675 21 5.358 21H9.633C11.325 21 12 20.325 12 18.642V16.5H9.858M7.5 14.133C7.5 15.825 8.175 16.5 9.858 16.5M7.5 14.133V9.858C7.5 8.175 8.175 7.5 9.858 7.5H12V9.633M9.858 16.5H14.133C15.825 16.5 16.5 15.825 16.5 14.133V12H14.358M12 9.633C12 11.325 12.675 12 14.358 12M12 9.633V5.358C12 3.675 12.675 3 14.358 3H18.633C20.325 3 21 3.675 21 5.358V9.633C21 11.325 20.325 12 18.633 12H14.358" stroke="black" stroke-width="1.5" stroke-linecap="round" stroke-linejoin="round"/>
</svg>
