<svg width="24" height="24" viewBox="0 0 24 24" fill="none" xmlns="http://www.w3.org/2000/svg">
<g clip-path="url(#clip0_726_62899)">
<path d="M2.85059 1.78516L13.9912 4.96191C17.1869 5.79078 19.5469 8.69446 19.5469 12.1494C19.5469 12.9355 19.4247 13.6932 19.1982 14.4043L21.7158 16.9219L22.6699 17.877L18.8516 21.6953L17.8975 22.6484L14.4512 19.2021H14.4492C13.7175 19.4434 12.9355 19.5731 12.123 19.5732C12.1182 19.5732 12.1133 19.5733 12.1084 19.5732C11.8969 19.5729 11.6875 19.5636 11.4805 19.5459C11.3466 19.5344 11.2138 19.5185 11.082 19.5C10.9048 19.4751 10.7296 19.4444 10.5566 19.4072C10.2888 19.3497 10.0268 19.277 9.77051 19.1914C9.56442 19.1226 9.36264 19.0449 9.16504 18.959C8.95649 18.8682 8.75276 18.769 8.55469 18.6602C8.49034 18.6248 8.42645 18.5889 8.36328 18.5518C6.58561 17.5054 5.28129 15.741 4.85156 13.6562L1.32422 1.34961L2.85059 1.78516ZM11.249 10.3232C11.5133 10.1967 11.8095 10.1241 12.1221 10.124C13.2403 10.1242 14.1465 11.0312 14.1465 12.1494C14.1464 13.2676 13.2402 14.1746 12.1221 14.1748C11.0039 14.1746 10.0968 13.2676 10.0967 12.1494C10.0967 11.8377 10.1691 11.5431 10.2949 11.2793L3.67383 4.6582L6.14746 13.2842L6.16113 13.333L6.17188 13.3838C6.74157 16.1471 9.19118 18.2244 12.1221 18.2246C12.8232 18.2292 13.3938 18.1327 14.0264 17.9199L14.8164 17.6602L17.8975 20.7412L20.7607 17.877L17.6621 14.7783L17.9111 13.9951C18.1108 13.3804 18.2006 12.8278 18.1963 12.1494C18.1963 9.32452 16.2673 6.94682 13.6523 6.26855L13.6367 6.26465L13.6211 6.25977L4.61816 3.69336L11.249 10.3232Z" fill="black"/>
</g>
<defs>
<clipPath id="clip0_726_62899">
<rect width="21.6" height="21.6" fill="white" transform="translate(1.19922 1.2002)"/>
</clipPath>
</defs>
</svg>
