<svg width="24" height="24" viewBox="0 0 24 24" fill="none" xmlns="http://www.w3.org/2000/svg">
<path d="M20.4697 21.5303C20.7626 21.8232 21.2374 21.8232 21.5303 21.5303C21.8232 21.2374 21.8232 20.7626 21.5303 20.4697L21 21L20.4697 21.5303ZM16.9421 15.8814C16.6492 15.5885 16.1743 15.5885 15.8814 15.8814C15.5885 16.1743 15.5885 16.6492 15.8814 16.9421L16.4118 16.4118L16.9421 15.8814ZM14 11.7451C14.4142 11.7451 14.75 11.4093 14.75 10.9951C14.75 10.5809 14.4142 10.2451 14 10.2451V10.9951V11.7451ZM8 10.2451C7.58579 10.2451 7.25 10.5809 7.25 10.9951C7.25 11.4093 7.58579 11.7451 8 11.7451V10.9951V10.2451ZM18.6471 10.8235H17.8971C17.8971 14.7301 14.7301 17.8971 10.8235 17.8971V18.6471V19.3971C15.5586 19.3971 19.3971 15.5586 19.3971 10.8235H18.6471ZM10.8235 18.6471V17.8971C6.91693 17.8971 3.75 14.7301 3.75 10.8235H3H2.25C2.25 15.5586 6.0885 19.3971 10.8235 19.3971V18.6471ZM3 10.8235H3.75C3.75 6.91693 6.91693 3.75 10.8235 3.75V3V2.25C6.0885 2.25 2.25 6.0885 2.25 10.8235H3ZM10.8235 3V3.75C14.7301 3.75 17.8971 6.91693 17.8971 10.8235H18.6471H19.3971C19.3971 6.0885 15.5586 2.25 10.8235 2.25V3ZM21 21L21.5303 20.4697L16.9421 15.8814L16.4118 16.4118L15.8814 16.9421L20.4697 21.5303L21 21ZM14 10.9951V10.2451H10.9961V10.9951V11.7451H14V10.9951ZM10.9961 10.9951V10.2451H8V10.9951V11.7451H10.9961V10.9951Z" fill="black"/>
</svg>
