<svg width="128" height="128" viewBox="0 0 128 128" fill="none" xmlns="http://www.w3.org/2000/svg">
<path d="M120 8.875C120 8.39175 119.608 8 119.125 8H8.875C8.39175 8 8 8.39175 8 8.875V70.4294C8 70.9126 8.39175 71.3044 8.875 71.3044H104.516C105 71.3044 105.391 71.6961 105.391 72.1794V80.1685C105.391 80.6517 105 81.0435 104.516 81.0435H8.875C8.39175 81.0435 8 81.4352 8 81.9185V94.7772C8 95.2604 8.39175 95.6522 8.875 95.6522H104.516C105 95.6522 105.391 96.0439 105.391 96.5272V104.516C105.391 105 105 105.391 104.516 105.391H8.875C8.39175 105.391 8 105.783 8 106.266V119.125C8 119.608 8.39175 120 8.875 120H119.125C119.608 120 120 119.608 120 119.125V57.5707C120 57.0874 119.608 56.6957 119.125 56.6957H23.4837C23.0004 56.6957 22.6087 56.3039 22.6087 55.8207V47.8315C22.6087 47.3483 23.0004 46.9565 23.4837 46.9565H119.125C119.608 46.9565 120 46.5648 120 46.0815V33.2228C120 32.7396 119.608 32.3478 119.125 32.3478H23.4837C23.0004 32.3478 22.6087 31.9561 22.6087 31.4728V23.4837C22.6087 23.0004 23.0004 22.6087 23.4837 22.6087H119.125C119.608 22.6087 120 22.2169 120 21.7337V8.875Z" fill="currentColor"/>
</svg>
