<svg width="128" height="128" viewBox="0 0 128 128" fill="none" xmlns="http://www.w3.org/2000/svg">
<g clip-path="url(#clip0_493_173254)">
<path d="M56 0C70.5424 0 82.3314 11.789 82.3314 26.3314V45.6688L101.669 45.6688C116.211 45.6688 128 57.4578 128 72.0002C110.815 72.0002 93.6294 71.9999 76.4441 71.9999C73.3103 62.1972 65.6929 54.4001 56 51.0268V0Z" fill="currentColor"/>
<path fill-rule="evenodd" clip-rule="evenodd" d="M45.6686 101.67C45.6686 116.212 57.4576 128.001 72 128.001V82.3331C72 67.7907 60.211 56.0015 45.6686 56.0015L0 56.0017C-1.90701e-06 70.5441 11.789 82.3331 26.3314 82.3331H45.6686V101.67Z" fill="currentColor"/>
</g>
<defs>
<clipPath id="clip0_493_173254">
<rect width="128" height="128" fill="white"/>
</clipPath>
</defs>
</svg>
