<svg width="128" height="128" viewBox="0 0 128 128" fill="none" xmlns="http://www.w3.org/2000/svg">
<path d="M116 16C117.105 16 118 16.8954 118 18V52C118 54.2091 116.209 56 114 56H72.999C72.9301 56 72.8611 55.9986 72.793 55.9951C70.6794 55.8881 68.999 54.1402 68.999 52V35.917C68.999 35.6634 68.9743 35.4178 68.9316 35.1816C68.8498 34.7292 68.695 34.3113 68.4805 33.9355C68.3288 33.6697 68.149 33.4243 67.9443 33.2041C67.9175 33.1752 67.8889 33.1481 67.8613 33.1201C67.4223 32.6752 66.885 32.3367 66.2969 32.1328C66.2337 32.1109 66.1698 32.0911 66.1055 32.0723C65.0496 31.7638 63.8568 31.8806 62.8018 32.5742L22.626 58.9863C19.021 61.3565 19.021 66.6435 22.626 69.0137L62.8018 95.4258C64.5753 96.5917 66.7381 96.1306 67.9834 94.751C68.1718 94.5421 68.3387 94.3121 68.4805 94.0635C68.695 93.6876 68.8499 93.2699 68.9316 92.8174C68.9742 92.5815 68.999 92.3363 68.999 92.083V76C68.999 73.7909 70.7899 72 72.999 72H114C116.209 72 118 73.7909 118 76V80C118 80.4482 117.988 80.8942 117.97 81.3379C117.968 81.3867 117.966 81.4356 117.964 81.4844C117.957 81.6292 117.948 81.7736 117.939 81.918C117.934 82.0039 117.932 82.09 117.926 82.1758C117.924 82.2077 117.92 82.2396 117.918 82.2715C117.909 82.4026 117.898 82.5334 117.888 82.6641C117.881 82.7403 117.877 82.8165 117.87 82.8926C117.866 82.9372 117.861 82.9818 117.856 83.0264C117.841 83.1928 117.824 83.3588 117.806 83.5244C117.798 83.5909 117.791 83.6573 117.783 83.7236C117.764 83.892 117.743 84.06 117.721 84.2275C117.706 84.3414 117.689 84.4549 117.673 84.5684C117.526 85.5924 117.332 86.6005 117.091 87.5908C117.068 87.6866 117.045 87.7825 117.021 87.8779C116.989 88.0007 116.956 88.1229 116.924 88.2451C116.894 88.3559 116.866 88.4668 116.835 88.5771C116.791 88.7369 116.745 88.896 116.698 89.0547C116.685 89.0997 116.672 89.1446 116.658 89.1895C116.607 89.3594 116.555 89.5285 116.501 89.6973C116.492 89.7264 116.484 89.756 116.475 89.7852C116.465 89.8153 116.454 89.8449 116.444 89.875C116.119 90.8785 115.746 91.8601 115.327 92.8174C115.29 92.9023 115.252 92.9867 115.214 93.0713C115.154 93.2055 115.093 93.3394 115.031 93.4727C114.999 93.5411 114.968 93.6096 114.936 93.6777C114.874 93.8069 114.812 93.9353 114.749 94.0635C114.701 94.1612 114.652 94.2583 114.604 94.3555C114.537 94.4877 114.471 94.6198 114.402 94.751C114.384 94.7864 114.366 94.8221 114.348 94.8574C114.329 94.8931 114.309 94.9282 114.29 94.9639C114.212 95.1115 114.133 95.259 114.053 95.4053C114.025 95.4553 113.997 95.5048 113.969 95.5547C113.479 96.4337 112.949 97.2868 112.381 98.1123C112.327 98.1903 112.275 98.2692 112.221 98.3467C112.206 98.3673 112.191 98.3876 112.177 98.4082C112.099 98.5182 112.019 98.6264 111.94 98.7354C111.88 98.819 111.819 98.9023 111.758 98.9854C111.669 99.1053 111.58 99.2251 111.49 99.3438C111.431 99.4212 111.372 99.4983 111.312 99.5752C111.231 99.6805 111.149 99.7854 111.066 99.8896C110.981 99.9971 110.894 100.104 110.808 100.21C110.751 100.279 110.695 100.348 110.639 100.416C110.549 100.524 110.457 100.631 110.366 100.738C109.88 101.309 109.375 101.864 108.85 102.399C108.815 102.435 108.78 102.471 108.745 102.507C108.731 102.521 108.716 102.535 108.702 102.549C108.625 102.627 108.547 102.703 108.469 102.78C108.367 102.88 108.266 102.98 108.163 103.079C108.084 103.155 108.004 103.23 107.925 103.305C107.829 103.395 107.733 103.485 107.636 103.574C107.555 103.648 107.474 103.722 107.393 103.795C107.352 103.832 107.312 103.87 107.271 103.906C107.22 103.951 107.169 103.995 107.118 104.039C107.04 104.108 106.962 104.176 106.883 104.244C106.742 104.366 106.6 104.486 106.457 104.604C106.405 104.648 106.353 104.692 106.301 104.735C106.216 104.805 106.13 104.874 106.045 104.942C105.67 105.244 105.288 105.537 104.899 105.821C104.79 105.902 104.68 105.982 104.569 106.062C104.438 106.155 104.306 106.248 104.173 106.34C104.137 106.365 104.101 106.39 104.065 106.415C104.045 106.429 104.024 106.442 104.003 106.456C103.886 106.536 103.769 106.615 103.65 106.693C103.56 106.753 103.469 106.813 103.378 106.872C103.28 106.936 103.181 106.999 103.082 107.062C102.966 107.135 102.85 107.207 102.733 107.278C102.65 107.33 102.566 107.381 102.482 107.432C102.347 107.513 102.211 107.593 102.074 107.673C102.002 107.715 101.931 107.757 101.858 107.798C101.72 107.877 101.58 107.955 101.439 108.032C101.366 108.073 101.292 108.114 101.218 108.154C101.025 108.259 100.831 108.361 100.636 108.462C100.294 108.638 99.9477 108.808 99.5986 108.972C99.4739 109.03 99.3493 109.089 99.2236 109.146C99.1507 109.18 99.0772 109.212 99.0039 109.244C98.8599 109.308 98.7154 109.372 98.5703 109.434C98.4738 109.475 98.3773 109.516 98.2803 109.557C98.1383 109.616 97.9956 109.673 97.8525 109.73C97.7749 109.761 97.6971 109.792 97.6191 109.822C97.4761 109.878 97.3325 109.933 97.1885 109.986C97.0829 110.026 96.9772 110.065 96.8711 110.104C96.8364 110.116 96.8023 110.13 96.7676 110.143C96.7083 110.164 96.6483 110.183 96.5889 110.204C96.4555 110.251 96.3217 110.297 96.1875 110.342C96.0471 110.389 95.9059 110.434 95.7646 110.479C95.6738 110.509 95.5834 110.539 95.4922 110.567C95.3392 110.615 95.1853 110.66 95.0312 110.705C94.8926 110.746 94.7536 110.785 94.6143 110.824C94.4131 110.88 94.2115 110.936 94.0088 110.988C93.9825 110.995 93.956 111.001 93.9297 111.008C93.7205 111.061 93.5106 111.113 93.2998 111.162C93.2306 111.178 93.1612 111.193 93.0918 111.209C92.9091 111.25 92.7258 111.29 92.542 111.328C92.4558 111.346 92.3696 111.364 92.2832 111.381C92.2084 111.396 92.1336 111.412 92.0586 111.427C92.0534 111.427 92.0482 111.426 92.043 111.426C90.0858 111.8 88.0662 112 86 112H4C2.89543 112 2 111.105 2 110V48C2 30.3269 16.3269 16 34 16H116Z" fill="currentColor"/>
<path d="M121 102C123.761 102 126 104.239 126 107C126 109.761 123.761 112 121 112C118.239 112 116 109.761 116 107C116 104.239 118.239 102 121 102Z" fill="currentColor"/>
</svg>
