<svg width="128" height="128" viewBox="0 0 128 128" fill="none" xmlns="http://www.w3.org/2000/svg">
<g clip-path="url(#clip0_493_173265)">
<path d="M0.0171711 58.2675C0.00511306 60.1193 0 62.0295 0 64C0 66.8475 0.0106767 69.569 0.0375581 72.1702H55.8297V127.962C58.4309 127.989 61.1525 128 64 128C65.8469 128 67.6408 127.996 69.3833 127.985C71.0924 96.4008 96.4008 71.0923 127.985 69.3832C127.996 67.6407 128 65.8469 128 64C128 61.1524 127.989 58.4307 127.962 55.8295H72.1703V0.037561C69.5691 0.0106776 66.8475 0 64 0C62.0295 0 60.1193 0.00511324 58.2676 0.0171716C56.4061 31.3356 31.3356 56.4061 0.0171711 58.2675Z" fill="currentColor"/>
</g>
<defs>
<clipPath id="clip0_493_173265">
<rect width="128" height="128" fill="white"/>
</clipPath>
</defs>
</svg>
