<svg width="96" height="128" viewBox="0 0 96 128" fill="none" xmlns="http://www.w3.org/2000/svg">
<g clip-path="url(#clip0_493_173295)">
<path d="M51.3514 83.0897C50.0686 84.2756 48 83.3578 48 81.6027V48.9105C48 44.3873 49.8823 40.0717 53.1884 37.0152L92.6486 0.534165C93.9314 -0.651791 96 0.265991 96 2.02108V34.7133C96 39.2366 94.1177 43.5521 90.8116 46.6086L51.3514 83.0897Z" fill="currentColor"/>
<path d="M44.6486 127.466C45.9314 128.652 48 127.734 48 125.979V93.2867C48 88.7634 46.1177 84.4479 42.8116 81.3914L3.35145 44.9103C2.06865 43.7244 0 44.6422 0 46.3973V79.0895C0 83.6127 1.88234 87.9283 5.18841 90.9848L44.6486 127.466Z" fill="currentColor"/>
</g>
<defs>
<clipPath id="clip0_493_173295">
<rect width="96" height="128" fill="white"/>
</clipPath>
</defs>
</svg>
