<svg width="326" height="64" viewBox="0 0 326 64" fill="none" xmlns="http://www.w3.org/2000/svg">
<path d="M28.2295 1.46484C42.5934 1.46484 52.2535 9.86478 54.1855 23.5566H46.458C45.114 13.7287 38.6454 8.0166 28.4814 8.0166C14.9577 8.0168 7.7334 17.929 7.7334 32.7129C7.73341 45.4808 13.2778 55.9803 28.1455 55.9805C41.1654 55.9805 48.0536 48.841 47.6338 35.6533H24.7021V29.7725H50.1543C53.7659 29.7726 55.4462 31.4529 55.4463 34.7285V61.6084H47.8018V54.8887L49.3975 46.9092H47.2139C46.8777 51.1934 43.6013 62.5332 26.6338 62.5332C8.65786 62.5332 0.00588583 49.5969 0.00585938 32.5449C0.00585938 13.897 10.3377 1.46501 28.2295 1.46484Z" fill="currentColor"/>
<path fill-rule="evenodd" clip-rule="evenodd" d="M87.9531 2.38867C101.813 2.38867 111.054 5.49667 111.054 18.2646C111.054 27.5047 106.265 30.949 99.209 32.209V34.3086H105.678C109.793 34.3088 111.138 36.6607 111.138 40.1045V61.6084H103.577V38.1729H73.6729V61.6084H66.0293V2.38867H87.9531ZM73.6729 31.6211H87.9531C97.6131 31.6211 103.493 29.9403 103.493 19.9443C103.493 9.78065 97.529 8.94043 87.9531 8.94043H73.6729V31.6211Z" fill="currentColor"/>
<path d="M162.357 8.94043H128.841V28.7646H158.157V35.1484H128.841V55.0566H162.357V61.6084H121.197V2.38867H162.357V8.94043Z" fill="currentColor"/>
<path d="M205.034 8.94043H191.762V55.0566H205.034V61.6084H170.93V55.0566H184.202V8.94043H170.93V2.38867H205.034V8.94043Z" fill="currentColor"/>
<path d="M258.146 59.5088H260.247L258.986 54.2168V2.38867H266.547V61.6084H251.259L223.119 4.48828H220.935L222.278 9.78027V61.6084H214.635V2.38867H229.923L258.146 59.5088Z" fill="currentColor"/>
<path fill-rule="evenodd" clip-rule="evenodd" d="M296.008 2.38867C310.624 2.38874 325.995 6.50524 325.995 31.957C325.995 57.4925 310.624 61.6083 296.008 61.6084H276.939V2.38867H296.008ZM284.583 55.0566H296.008C306.508 55.0566 318.351 53.3764 318.352 31.957C318.352 10.6213 306.424 8.94047 296.008 8.94043H284.583V55.0566Z" fill="currentColor"/>
</svg>
