<svg width="128" height="128" viewBox="0 0 128 128" fill="none" xmlns="http://www.w3.org/2000/svg">
<path d="M119.654 63.7828C116.558 91.4675 92.8206 113 64 113C35.1794 113 11.4417 91.4675 8.34611 63.7828H119.654ZM119.914 54.5545H8.08556C8.02852 55.5799 8 56.6052 8 57.6306C8 58.656 8.02852 59.6813 8.08556 60.7067H119.914C119.971 59.6813 120 58.656 120 57.6306C120 56.6052 119.971 55.5799 119.914 54.5545ZM99.7778 15C91.3719 22.0807 85.0797 31.3417 81.8889 41.8273C78.7 31.3359 72.4078 22.0807 64 15C55.5903 22.0827 49.2981 31.3417 46.1111 41.835C42.9242 31.3417 36.6319 22.0827 28.2222 15C17.3178 24.1782 9.96583 37.0286 8.34028 51.4784H119.654C118.028 37.0286 110.676 24.1782 99.7778 15Z" fill="currentColor"/>
</svg>
