<svg width="171" height="96" viewBox="0 0 171 96" fill="none" xmlns="http://www.w3.org/2000/svg">
<g clip-path="url(#clip0_493_173317)">
<path d="M0 93.051V64.8423C0 63.3945 0.84175 62.6006 2.29142 62.6006H5.19076C6.64043 62.6006 7.43542 63.3945 7.43542 64.8423V76.6582H19.6875V64.8423C19.6875 63.3945 20.4801 62.6006 21.9322 62.6006H24.8292C26.2788 62.6006 27.0762 63.3945 27.0762 64.8423V93.051C27.0762 94.4988 26.2788 95.2927 24.8292 95.2927H21.9415C20.4895 95.2927 19.6969 94.4988 19.6969 93.051V82.6829H7.44477V93.051C7.44477 94.4988 6.6498 95.2927 5.20012 95.2927H2.30077C0.841745 95.2927 0 94.4988 0 93.051ZM34.4157 93.051V64.8423C34.4157 63.3945 35.2598 62.6006 36.7071 62.6006H39.6065C41.0561 62.6006 41.8511 63.3945 41.8511 64.8423V93.051C41.8511 94.4988 41.0561 95.2927 39.6065 95.2927H36.7071C35.2692 95.2927 34.4157 94.4988 34.4157 93.051ZM49.1463 93.051V64.8423C49.1463 63.3945 49.988 62.6006 51.4377 62.6006H62.2401C72.2007 62.6006 78.9815 69.933 78.9815 78.9466C78.9815 88.007 72.2007 95.2927 62.2401 95.2927H51.4377C49.9997 95.2927 49.1463 94.4988 49.1463 93.051ZM61.4919 89.0345C67.7114 89.0345 71.4993 84.7378 71.4993 78.9466C71.4993 73.1088 67.7114 68.8588 61.4919 68.8588H56.5817V89.0345H61.4919ZM80.4779 92.724L91.4206 64.3753C91.8415 63.2077 92.73 62.6006 94.0394 62.6006H97.3596C98.669 62.6006 99.5107 63.2077 99.9783 64.3753L111.061 92.724C111.623 94.2652 110.968 95.2927 109.284 95.2927H106.245C104.982 95.2927 104.094 94.7323 103.626 93.518L101.989 89.2213H89.363L87.773 93.4713C87.3054 94.6856 86.4637 95.2927 85.201 95.2927H82.2666C80.5714 95.2927 79.9284 94.2652 80.4779 92.724ZM100.493 83.3834L95.7229 70.2132L90.8127 83.3834H100.493ZM113.212 88.7543C112.605 87.3532 113.353 86.3724 114.802 85.9988L116.813 85.5318C118.123 85.2049 118.824 85.7653 119.572 86.9796C120.648 88.7076 122.705 89.8752 125.465 89.8752C128.644 89.8752 130.749 88.4741 130.749 86.3257C130.749 84.6911 129.486 83.3834 127.008 82.5428L122.752 81.0016C118.871 79.7406 114.101 76.845 114.054 71.8011C114.054 65.8231 119.245 62.0869 125.652 62.0869C130.749 62.0869 134.35 64.3286 136.127 68.0648C136.828 69.4192 136.173 70.4934 134.771 70.9137L132.9 71.4275C131.591 71.8011 130.796 71.2874 130.001 70.1665C129.159 68.7654 127.709 68.0182 125.745 68.0182C123.407 68.0182 121.396 69.1857 121.396 71.3341C121.396 72.5016 121.91 73.7626 124.81 74.8368L129.065 76.378C135.472 78.5263 137.857 81.889 137.95 85.9988C137.95 92.3971 132.479 95.8065 125.511 95.8065C119.385 95.8065 114.943 93.0977 113.212 88.7543ZM143.235 93.051V64.8423C143.235 63.3945 144.076 62.6006 145.526 62.6006H148.437C149.887 62.6006 150.682 63.3945 150.682 64.8423V76.6582H162.934V64.8423C162.934 63.3945 163.729 62.6006 165.179 62.6006H168.078C169.528 62.6006 170.323 63.3945 170.323 64.8423V93.051C170.323 94.4988 169.528 95.2927 168.078 95.2927H165.179C163.729 95.2927 162.934 94.4988 162.934 93.051V82.6829H150.682V93.051C150.682 94.4988 149.887 95.2927 148.437 95.2927H145.538C144.076 95.2927 143.235 94.4988 143.235 93.051Z" fill="currentColor"/>
<path d="M109.799 43.0862C109.818 34.3793 107.54 25.8193 103.194 18.2596C98.8478 10.6999 92.5841 4.40451 85.0274 0C77.4706 4.40451 71.2069 10.6999 66.8606 18.2596C62.5143 25.8193 60.2371 34.3793 60.2557 43.0862H109.799Z" fill="currentColor"/>
<path d="M159.343 43.0862C159.361 34.3793 157.084 25.8193 152.738 18.2596C148.391 10.6999 142.128 4.40451 134.571 0C127.015 4.40568 120.752 10.7017 116.406 18.2611C112.06 25.8205 109.782 34.3796 109.799 43.0862H159.343Z" fill="currentColor"/>
<path d="M60.2557 43.0862C60.2727 34.3796 57.9946 25.8205 53.6485 18.2611C49.3023 10.7017 43.0396 4.40568 35.4839 0C27.9272 4.40451 21.6635 10.6999 17.3172 18.2596C12.9708 25.8193 10.6937 34.3793 10.7122 43.0862H60.2557Z" fill="currentColor"/>
<path d="M159.342 49.2413H10.7121V55.3965H159.342V49.2413Z" fill="currentColor"/>
</g>
<defs>
<clipPath id="clip0_493_173317">
<rect width="170.323" height="96" fill="white"/>
</clipPath>
</defs>
</svg>
