<svg width="106" height="128" viewBox="0 0 106 128" fill="none" xmlns="http://www.w3.org/2000/svg">
<g clip-path="url(#clip0_493_173268)">
<path d="M100.152 81.3396C99.6498 82.2946 98.9154 83.1078 98.0165 83.7042C97.1175 84.3005 96.0829 84.6608 95.008 84.7518C87.9989 85.3116 90.1221 77.9718 90.1221 77.9718C91.1259 73.9198 101.164 50.2652 93.027 36.5097C91.6412 34.1815 87.7679 34.7325 87.155 37.2739C86.6575 39.371 85.4849 40.9704 82.5266 41.8235C68.535 44.1605 61.6591 21.0214 64.7594 3.25823C65.2125 0.592423 61.6857 -1.05149 59.5003 0.770141C47.6674 10.6336 43.2344 23.1362 44.3982 40.2596C44.5581 42.5522 41.7332 44.1072 39.5744 42.8276C32.8318 38.7667 29.7314 33.2218 29.8025 26.5484C29.8025 23.8826 26.0802 22.6653 24.2324 24.7712C13.3589 36.9451 13.883 54.0951 16.9923 60.4397C20.6434 67.9128 21.363 79.438 14.185 81.3218C10.2674 82.3526 7.74441 80.6376 5.72783 78.0962C3.95111 75.9191 0.11341 76.9677 0.024574 79.6335C-0.863786 105.341 22.4379 128 53.0152 128C82.4022 128 104.869 107.047 105.997 82.9391C106.13 79.98 101.697 78.7804 100.152 81.3396ZM33.8089 108.957C29.5359 103.252 28.8963 94.3931 30.8418 86.9911C33.347 77.4742 47.5607 56.521 61.046 59.0446C61.4649 59.1101 61.8626 59.2731 62.207 59.5204C62.5515 59.7677 62.8332 60.0924 63.0294 60.4684C63.2255 60.8444 63.3307 61.2612 63.3365 61.6852C63.3423 62.1093 63.2485 62.5288 63.0626 62.91L39.2545 108.54C38.9813 109.003 38.6002 109.394 38.1435 109.678C37.6869 109.963 37.1682 110.133 36.6318 110.174C36.0953 110.215 35.5569 110.126 35.0624 109.914C34.5678 109.702 34.1317 109.374 33.7912 108.957H33.8089ZM74.6735 93.1491C71.1911 106.309 55.0674 115.453 43.9629 115.089C43.4832 115.112 43.0056 115.011 42.5763 114.796C42.1471 114.58 41.7808 114.258 41.5127 113.859C41.2447 113.46 41.0841 112.999 41.0464 112.52C41.0088 112.042 41.0954 111.561 41.2978 111.125C52.4379 89.7991 47.1876 99.8491 65.1236 65.4692C65.3774 65.0397 65.7244 64.6728 66.1389 64.3954C66.5535 64.118 67.025 63.9373 67.5187 63.8665C68.0123 63.7957 68.5156 63.8367 68.9913 63.9864C69.467 64.1362 69.903 64.3908 70.2672 64.7316C76.1659 70.6941 77.8627 81.0286 74.6824 93.1491H74.6735Z" fill="currentColor"/>
</g>
<defs>
<clipPath id="clip0_493_173268">
<rect width="106" height="128" fill="white"/>
</clipPath>
</defs>
</svg>
