<svg width="368" height="64" viewBox="0 0 368 64" fill="none" xmlns="http://www.w3.org/2000/svg">
<g clip-path="url(#clip0_493_173400)">
<path fill-rule="evenodd" clip-rule="evenodd" d="M0.679688 25.7984V51.5969H5.88831H11.0969V41.4264V31.2558H34.7346H58.3728L68.616 41.4264L78.8591 51.5969H110.21H141.56V38.9457V26.2946H146.746C152.626 26.2946 154.046 26.751 155.504 29.1101C156.416 30.587 156.508 31.4002 156.36 36.7544L156.194 42.7455L154.341 44.4423C153.26 45.4331 151.969 46.1395 151.241 46.1395C150.056 46.1395 149.993 46.2799 149.993 48.9287V51.7185L154.334 51.5002C163.649 51.0323 169.183 45.954 169.733 37.3661L169.966 33.7364H181.078C192.885 33.7364 194.979 34.0723 196.087 36.1426C197.04 37.9232 196.715 40.8117 195.334 42.8453C193.381 45.7198 191.841 46.1395 183.245 46.1395H175.789V48.8682V51.5969H183.611C194.053 51.5969 199.734 50.0931 204.24 46.1356C207.326 43.4257 209.521 37.2326 209.521 31.2315V28.2791H188.908H168.295L165.562 25.3261C161.744 21.2024 159.308 20.3411 151.463 20.3411H145.529V19.1008V17.8605H137.344H129.159V19.1008C129.159 20.3267 129.109 20.3411 124.942 20.3411H120.726V23.3178V26.2946H124.942H129.159V36.2171V46.1395H110.036C93.9135 46.1395 90.6846 46.0215 89.4579 45.3869C87.0163 44.1243 86.4979 42.434 86.4979 35.7383V29.7531L88.1954 27.8995L89.8924 26.0465L94.85 25.8773L99.8077 25.7082L101.71 27.4495L103.612 29.1914L103.86 35.3087L104.108 41.4264L110.738 41.5653L117.367 41.7042L117.178 36.5906C117.012 32.125 116.801 31.1015 115.509 28.5137C113.663 24.8171 110.379 22.2204 106.123 21.0922C103.608 20.4249 100.642 20.3188 87.9861 20.4418L72.8563 20.5891L72.6082 25.4388L72.3602 30.2889L67.4091 25.3147L62.4579 20.3411H51.1631H39.8684V14.3876V8.43411H52.2698H64.6713V5.45736V2.48062H54.2541H43.8368V1.24031V0H35.8999H27.9629V1.22096C27.9629 2.41414 27.8642 2.4454 23.6224 2.5853L19.2819 2.72868V5.45736V8.18605L23.6224 8.32943L27.9629 8.47281V14.4189V20.3649L19.6539 20.229L11.345 20.093L11.2105 10.0465L11.0766 0H5.87789H0.679688V25.7984ZM270.04 10.1705V20.3411H256.894H243.749V30.5275C243.749 45.2212 243.49 45.6434 234.47 45.6434H228.884L228.751 33.1163L228.619 20.5891L220.558 20.4527L212.497 20.3163V23.0574V25.7984H214.481H216.465V35.7011V45.6032L212.373 45.7476L208.28 45.8915L208.132 48.7442L207.983 51.5969H212.191H216.399L216.557 52.9612L216.713 54.3256H224.65H232.587L232.738 53.0307L232.888 51.7358L239.434 51.4818C243.949 51.3062 246.596 50.9693 247.965 50.3958C250.586 49.2974 253.45 46.4759 255.055 43.4109C256.256 41.1178 256.369 40.3587 256.553 33.3643L256.752 25.7984H262.9H269.048V35.7209V45.6434H264.831H260.615V48.6202V51.5969H264.798H268.982L269.139 52.9612L269.296 54.3256H277.233H285.17L285.326 52.9612L285.484 51.5969H295.892H306.302L306.153 48.7442L306.004 45.8915L293.408 45.759L280.811 45.626L280.992 33.3559C281.091 26.6071 281.123 16.3413 281.063 10.5426L280.953 0H275.496H270.04V10.1705ZM345.333 14.7597L345.193 20.5891L325.226 20.7186L305.26 20.8486V19.3543V17.8605H299.307H293.355V19.1008C293.355 20.3317 293.321 20.3411 288.89 20.3411H284.425V23.3178V26.2946H288.89H293.355V34.4965V42.6979L299.183 42.5585L305.012 42.4186L305.148 34.3566L305.285 26.2946H313.953H322.622V35.969V45.6434H316.917H311.213V48.6202V51.5969H316.917H322.622V52.805C322.622 56.9759 320.435 58.2102 312.453 58.5426L306.5 58.7907L306.35 61.3953L306.2 64H316.069C326.606 64 329.113 63.6091 332.069 61.504C335.299 59.2035 335.497 58.045 335.509 41.3023L335.52 26.2946H340.48H345.441V39.1938V52.093H350.897H356.354V39.2107V26.3283L361.687 26.1874L367.019 26.0465L367.169 23.4419L367.319 20.8372H362.621C360.037 20.8372 357.57 20.7018 357.139 20.5361C356.486 20.286 356.354 19.2789 356.354 14.5826V8.93023H350.913H345.472L345.333 14.7597ZM169.34 23.0698V25.7984H185.958H202.576V23.0698V20.3411H185.958H169.34V23.0698ZM16.0575 46.3876V51.5969H21.2661H26.4748V46.3876V41.1783H21.2661H16.0575V46.3876ZM31.4353 46.3876V51.6306L36.768 51.4897L42.1006 51.3488V46.3876V41.4264L36.768 41.2855L31.4353 41.1446V46.3876Z" fill="currentColor"/>
</g>
<defs>
<clipPath id="clip0_493_173400">
<rect width="368" height="64" fill="white"/>
</clipPath>
</defs>
</svg>
