<svg width="204" height="96" viewBox="0 0 204 96" fill="none" xmlns="http://www.w3.org/2000/svg">
<g clip-path="url(#clip0_493_173401)">
<path d="M153.061 8.12928C152.96 8.02887 153.01 7.87902 153.111 7.77811L159.634 1.00305C160.136 0.451069 160.939 0 161.893 0C163.298 0 164.352 1.20386 164.352 2.50912C164.352 3.41226 163.398 4.41581 162.495 4.86788L154.064 8.93252C153.863 9.03292 153.813 9.03292 153.713 8.93252L153.061 8.12928Z" fill="currentColor"/>
<path d="M150.852 26.5468C150.852 25.3419 150.702 16.309 150.651 15.6571C150.552 14.4523 150.05 13.9507 148.996 13.9507H146.587C146.336 13.9507 146.185 13.8503 146.185 13.65V12.1949C146.185 11.9936 146.336 11.8937 146.536 11.8937C146.693 11.8937 146.981 11.9038 147.407 11.9187C148.625 11.9614 150.974 12.0436 154.616 12.0436C158.351 12.0436 160.216 11.9638 161.224 11.9206C161.597 11.9047 161.853 11.8937 162.043 11.8937C162.294 11.8937 162.395 12.0436 162.395 12.3448V13.5996C162.395 13.8503 162.244 13.9507 161.993 13.9507H160.538C159.283 13.9507 158.531 14.3524 158.531 15.2555C158.531 15.495 158.496 18.1446 158.46 20.9156L158.46 20.9179L158.46 20.9349C158.421 23.9661 158.38 27.1361 158.38 27.4504V31.3143C158.38 31.5717 158.419 34.7466 158.458 37.8395L158.458 37.8458L158.458 37.8472L158.458 37.8634C158.495 40.7924 158.531 43.641 158.531 43.8603C158.531 45.4159 159.283 45.6671 160.237 45.6671H162.294C162.545 45.6671 162.696 45.7675 162.696 46.0183V47.4235C162.696 47.6238 162.545 47.7242 162.244 47.7242C162.086 47.7242 161.832 47.7138 161.457 47.6986C160.4 47.6557 158.385 47.5738 154.867 47.5738C150.885 47.5738 148.68 47.6596 147.602 47.7016C147.254 47.7152 147.023 47.7242 146.888 47.7242C146.637 47.7242 146.486 47.6238 146.486 47.3231V45.9678C146.486 45.7675 146.637 45.6671 146.888 45.6671H148.343C149.347 45.6671 150.401 45.5163 150.601 44.3124C150.702 43.5591 150.852 32.7199 150.852 30.0599V26.5468Z" fill="currentColor"/>
<path d="M125.961 31.866C125.961 32.7192 125.961 43.5589 126.112 45.5665H128.972C131.331 45.5665 133.59 45.5665 136.299 45.3153C139.009 45.0645 142.422 39.0427 143.174 37.1855C143.325 36.8848 143.476 36.7339 143.776 36.8848L144.78 37.2864C144.931 37.3863 144.931 37.4363 144.881 37.7375C144.729 38.0886 142.723 46.3693 142.422 47.724C141.117 47.6236 126.664 47.5736 122.047 47.5736C118.401 47.5736 116.457 47.6546 115.423 47.6977C115.049 47.7133 114.794 47.724 114.62 47.724C114.268 47.724 114.218 47.6236 114.218 47.2724V46.0181C114.218 45.7673 114.268 45.6669 114.569 45.6669H116.126C117.982 45.6669 118.283 44.9641 118.283 44.4116C118.283 44.0703 118.302 42.2487 118.327 39.9102V39.9097C118.372 35.7182 118.434 29.8664 118.434 27.9013V25.0915C118.434 21.8795 118.334 16.5601 118.283 15.7573C118.183 14.4521 117.932 13.9506 116.778 13.9506H114.921C114.62 13.9506 114.569 13.6998 114.569 13.449V12.2442C114.569 11.9934 114.62 11.8935 114.921 11.8935C115.063 11.8935 115.289 11.9035 115.625 11.9183C116.589 11.9609 118.458 12.0434 121.847 12.0434C126.443 12.0434 128.733 11.9515 129.727 11.9116C130.003 11.9006 130.179 11.8935 130.277 11.8935C130.678 11.8935 130.729 12.0434 130.729 12.395V13.5494C130.729 13.7997 130.628 13.9506 130.227 13.9506H127.868C126.313 13.9506 126.112 14.4521 126.112 15.8073C126.112 16.004 126.098 16.8288 126.079 17.9816L126.079 17.9822L126.079 17.9832L126.079 17.987C126.035 20.662 125.961 25.0973 125.961 27.5506V31.866Z" fill="currentColor"/>
<path d="M179.759 28.3031H178.906V26.4463C178.906 24.8631 178.968 21.0543 179.013 18.3411V18.3402C179.037 16.8396 179.056 15.6742 179.056 15.4063C179.056 14.3019 179.709 13.9507 180.712 13.9507H181.917C182.167 13.9507 182.268 13.8498 182.268 13.599V12.2943C182.268 11.9936 182.167 11.8932 181.866 11.8932C181.684 11.8932 181.424 11.9048 181.05 11.9217C180.08 11.9653 178.341 12.0435 175.192 12.0435C171.884 12.0435 170.191 11.9628 169.285 11.9197C168.955 11.9039 168.729 11.8932 168.568 11.8932C168.267 11.8932 168.166 11.9936 168.166 12.1944V13.599C168.166 13.8498 168.267 13.9507 168.568 13.9507H169.822C171.077 13.9507 171.328 14.6031 171.328 15.1551C171.328 15.3972 171.357 17.3688 171.39 19.5817C171.431 22.4124 171.479 25.6382 171.479 26.1451V29.0559C171.479 35.2285 171.378 44.3119 171.328 44.7634C171.228 45.2655 170.876 45.6671 169.973 45.6671H168.417C168.217 45.6671 168.066 45.717 168.066 45.9673V47.3729C168.066 47.6237 168.166 47.7241 168.417 47.7241C168.525 47.7241 168.698 47.7156 168.961 47.7026L168.961 47.7026L168.962 47.7026C169.805 47.661 171.574 47.5738 175.092 47.5738C178.526 47.5738 180.249 47.6552 181.159 47.6982L181.159 47.6982C181.486 47.7136 181.707 47.7241 181.866 47.7241C182.117 47.7241 182.167 47.5738 182.167 47.3729V45.9673C182.167 45.767 182.018 45.6671 181.766 45.6671H180.21C179.558 45.6671 179.106 45.215 179.056 44.5626C179.006 43.8603 178.906 36.4828 178.906 33.9742V30.2098H179.608C180.16 30.2098 180.662 30.5614 180.963 30.9126C181.816 31.8662 189.594 43.4087 190.046 44.4118C190.247 44.8638 190.197 45.717 189.344 45.717H188.591C188.39 45.717 188.29 45.8174 188.29 46.0177V47.323C188.29 47.6237 188.39 47.7241 188.591 47.7241C188.796 47.7241 189.107 47.7114 189.547 47.6933C190.62 47.6493 192.464 47.5738 195.416 47.5738C199.23 47.5738 201.101 47.6606 202 47.7023C202.285 47.7154 202.472 47.7241 202.592 47.7241C202.894 47.7241 202.994 47.6237 202.994 47.3729V46.0177C202.994 45.8174 202.894 45.6671 202.643 45.6671H202.041C201.438 45.6671 200.284 45.5157 199.331 44.4118C198.122 43.0112 195.125 38.9351 192.133 34.8652L192.132 34.8649C189.657 31.4984 187.185 28.136 185.731 26.296C187.437 23.9872 193.961 16.4603 196.721 14.8039C197.724 14.202 198.929 13.9507 199.631 13.9507H200.435C200.685 13.9507 200.836 13.8498 200.836 13.599V12.2443C200.836 11.9936 200.736 11.8932 200.485 11.8932C200.285 11.8932 199.959 11.9096 199.523 11.9317C198.642 11.9762 197.312 12.0435 195.668 12.0435C192.814 12.0435 190.949 11.9656 189.902 11.922C189.495 11.905 189.212 11.8932 189.043 11.8932C188.843 11.8932 188.742 11.9936 188.742 12.2443V13.4991C188.742 13.7504 188.792 13.8498 188.992 13.8498H189.845C190.849 13.8498 191.753 14.6031 190.849 15.8074C190.197 16.6606 182.067 26.9484 181.164 27.6507C180.712 28.0528 180.16 28.3031 179.759 28.3031Z" fill="currentColor"/>
<path d="M4.01622 32.1697V35.9841H104.382V32.1697H4.01622Z" fill="currentColor"/>
<path fill-rule="evenodd" clip-rule="evenodd" d="M52.8422 81.4976C52.4416 82.5511 49.982 89.4266 49.982 91.0321C49.982 92.1365 50.4335 93.3409 51.9396 93.3409H53.6954C54.1975 93.3409 54.2479 93.5417 54.2479 93.742V94.8465C54.2479 95.2476 54.1975 95.3979 53.7963 95.3979C53.6104 95.3979 53.3105 95.3857 52.8816 95.3683C51.8045 95.3245 49.9137 95.2476 46.9708 95.2476C44.4229 95.2476 43.113 95.3203 42.3153 95.3646C41.966 95.384 41.7149 95.3979 41.501 95.3979C41.3922 95.3979 41.3161 95.3587 41.2634 95.2921C41.1817 95.3572 41.0529 95.3979 40.8507 95.3979C40.6122 95.3979 40.2943 95.3847 39.8471 95.3662L39.8467 95.3662L39.846 95.3661C38.7858 95.3222 36.9995 95.2481 33.8244 95.2481C30.3533 95.2481 28.4977 95.317 27.3029 95.3613C26.7358 95.3824 26.3173 95.3979 25.9458 95.3979C25.3934 95.3979 25.293 95.1472 25.293 94.8964V93.7925C25.293 93.4912 25.3434 93.3409 25.8454 93.3409H28.0533C29.2582 93.3409 29.4085 92.3868 29.4585 91.1325C29.5589 88.7742 29.6593 80.6949 29.6593 79.0884V78.4865C29.6593 77.9345 29.1578 77.8841 28.5554 77.8841H13.5501C12.9986 77.8841 12.8473 78.0349 12.8473 78.4865V79.2393C12.8473 80.4941 13.0486 88.2223 13.1989 91.6345C13.2494 92.8394 13.7509 93.3409 14.8554 93.3409H16.26C16.6617 93.3409 16.7121 93.4413 16.7121 93.742V94.9464C16.7121 95.2481 16.6617 95.3979 16.26 95.3979C15.9747 95.3979 15.604 95.383 15.0973 95.3625L15.0961 95.3624C13.9998 95.3181 12.2671 95.2481 9.38557 95.2481C5.67695 95.2481 3.82187 95.3209 2.69836 95.365C2.21052 95.3842 1.86034 95.3979 1.55651 95.3979C1.10494 95.3979 1.05498 95.2481 1.05498 94.8465V93.7925C1.05498 93.4413 1.10494 93.3409 1.55651 93.3409H3.86531C5.11962 93.3409 5.26998 92.1365 5.26998 91.0321C5.32093 88.6738 5.42084 78.9386 5.42084 77.6333V75.4754C5.42084 73.3661 5.37493 69.5738 5.34535 67.1306L5.34534 67.1297C5.33129 65.9692 5.32093 65.1131 5.32093 64.8869C5.32093 62.3274 4.96926 61.6245 3.61405 61.6245H1.55651C1.00453 61.6245 0.955078 61.4242 0.955078 61.1235V60.1694C0.955078 59.8687 1.00453 59.5675 1.50655 59.5675C1.75555 59.5675 2.06866 59.5803 2.51199 59.5984L2.51243 59.5984C3.58828 59.6425 5.43096 59.7178 8.98395 59.7178C12.4563 59.7178 14.3775 59.6429 15.507 59.5988C15.9774 59.5805 16.3106 59.5675 16.5613 59.5675C17.1132 59.5675 17.1637 59.7178 17.1637 60.1194V61.1729C17.1637 61.4742 17.1132 61.6245 16.5613 61.6245H15.3574C13.5501 61.6245 13.2994 62.4782 13.149 64.3849C13.0985 65.0877 12.8473 71.7119 12.8473 74.5218V75.2746C12.8473 75.5258 12.9986 75.6762 13.651 75.6762H28.6558C29.4085 75.6762 29.6593 75.5758 29.6593 75.0238V74.5218C29.6593 72.506 29.4846 68.4464 29.3815 66.0491C29.3383 65.0448 29.3076 64.3323 29.3076 64.1841C29.2582 62.5786 29.0569 61.6245 28.1537 61.6245H26.0962C25.6446 61.6245 25.5942 61.4742 25.5942 61.1235V60.019C25.5942 59.7178 25.6446 59.5675 26.0462 59.5675C26.3309 59.5675 26.7401 59.5824 27.3006 59.6029C28.5188 59.6473 30.4517 59.7178 33.3728 59.7178C36.3576 59.7178 38.2857 59.6406 39.3788 59.5969L39.3794 59.5968L39.3831 59.5967C39.8132 59.5795 40.1136 59.5675 40.2977 59.5675C40.9001 59.5675 40.9506 59.7178 40.9506 60.1194V61.0725C40.9506 61.4242 40.9001 61.6245 40.2977 61.6245H38.7931C37.3375 61.6245 37.1867 62.4782 37.1867 64.1841C37.1867 64.4518 37.1721 65.848 37.1541 67.5768C37.1247 70.3866 37.0863 74.0751 37.0863 75.2246V76.931C37.0863 78.537 37.1867 88.0719 37.2371 90.8313C37.2371 92.6381 37.7391 93.3409 39.2442 93.3409H40.9506C41.0961 93.3409 41.1955 93.3606 41.263 93.4001C41.3157 93.3606 41.3919 93.3409 41.501 93.3409H42.8063C44.0101 93.3409 45.2145 92.6381 46.2185 91.1325C46.9209 90.079 50.484 81.3468 52.1399 76.9305C52.5415 75.9274 56.6062 65.1377 57.0577 63.7825C57.0705 63.7402 57.0839 63.6969 57.0976 63.6527C57.2469 63.1715 57.4298 62.5821 57.1082 62.0766L57.0743 62.0315C56.9293 61.8391 56.7565 61.6098 56.7565 61.4242C56.7565 61.2734 56.8569 61.0725 57.2585 60.9721C58.8645 60.6215 62.1264 59.3162 62.8792 58.463C62.9165 58.4258 62.9515 58.3896 62.985 58.3551C63.177 58.1571 63.3182 58.0114 63.5321 58.0114C63.8328 58.0114 63.9327 58.3122 64.0836 58.8646C64.5438 60.3912 65.6945 63.8016 66.869 67.2822L66.8702 67.2859L66.8705 67.2866L66.8706 67.2871L66.871 67.2883C68.1282 71.0141 69.4122 74.8193 69.905 76.4794C71.0589 80.3937 74.3208 89.7278 75.0242 91.0825C75.8769 92.7385 77.1811 93.3409 77.9344 93.3409H79.6408C79.8228 93.3409 79.9131 93.4144 79.9561 93.5281C79.9825 93.4238 80.0579 93.341 80.2442 93.341H82.3018C83.9078 93.341 84.5097 91.0322 84.711 89.4267C85.1621 85.8631 85.6141 74.0204 85.6141 73.1167L85.5637 65.4385C85.5637 63.1302 85.0622 61.6247 82.8033 61.6247H81.1474C80.8467 61.6247 80.7962 61.4743 80.7962 61.2735V59.8683C80.7962 59.718 80.8467 59.5671 81.1474 59.5671C81.2606 59.5671 81.4172 59.5748 81.6598 59.5867C82.4929 59.6275 84.34 59.718 88.9265 59.718C90.493 59.718 91.7053 59.6514 92.5193 59.6067L92.52 59.6067C92.9311 59.5841 93.2406 59.5671 93.4427 59.5671C93.9442 59.5671 94.3464 59.6176 94.6471 60.4203C96.2613 64.7079 97.9768 68.9447 99.6408 73.0544C101.288 77.1221 102.884 81.0652 104.282 84.8096C104.722 84.051 107.225 77.9885 108.382 75.1873C108.68 74.4673 108.888 73.9628 108.949 73.8191C108.983 73.7351 109.152 73.3292 109.41 72.7066L109.447 72.6178L109.45 72.6117C110.767 69.4411 114.212 61.1475 114.419 60.3199C114.57 59.7679 115.223 59.718 116.728 59.718C122.914 59.718 125.277 59.6238 126.269 59.5842C126.532 59.5737 126.699 59.5671 126.815 59.5671C127.066 59.5671 127.116 59.718 127.116 60.0187V61.1731C127.116 61.4743 127.066 61.6247 126.715 61.6247H124.507C123.352 61.6247 123.201 62.5278 123.201 63.5818C123.201 64.3346 123.252 76.6798 123.302 77.7338C123.302 78.2488 123.341 81.3938 123.38 84.4558L123.38 84.458C123.417 87.3621 123.452 90.191 123.452 90.6306C123.452 92.5378 123.904 93.341 124.607 93.341H127.015C127.317 93.341 127.367 93.4914 127.367 93.6922V94.9465C127.367 95.2477 127.317 95.3981 126.915 95.3981C126.77 95.3981 126.607 95.3893 126.36 95.376L126.359 95.376C125.583 95.3342 123.978 95.2477 119.488 95.2477C115.716 95.2477 113.661 95.3294 112.579 95.3723L112.579 95.3723C112.193 95.3877 111.931 95.3981 111.76 95.3981C111.409 95.3981 111.358 95.2477 111.358 94.9465V93.6922C111.358 93.4414 111.409 93.341 111.76 93.341H114.57C115.423 93.341 115.875 93.0398 115.975 91.6346C116.025 91.0322 116.176 81.8989 116.176 78.3857V63.0803H115.875C115.552 63.6296 113.107 69.4838 111.165 74.1332L111.163 74.138L111.162 74.1397L111.162 74.1405L111.162 74.1416C110.089 76.7096 109.171 78.9086 108.849 79.6405C108.256 80.9394 106.583 85.0334 105.189 88.4469C104.104 91.1012 103.187 93.3441 103.078 93.5418C103.044 93.5953 103.009 93.6551 102.971 93.7185C102.729 94.1304 102.395 94.6957 101.874 94.6957C101.522 94.6957 101.221 94.3446 100.971 93.7926C100.82 93.4414 94.195 77.8837 93.8443 76.9811C92.9407 74.6723 88.3241 63.4314 87.9225 62.829C87.7216 63.5318 87.6212 76.2278 87.6212 76.8302C87.6212 77.4326 87.6712 84.2577 87.9724 88.674C88.1233 90.5302 88.9265 93.341 90.5824 93.341H92.5396C92.8403 93.341 92.8907 93.4914 92.8907 93.6922V95.0469C92.8907 95.2477 92.8403 95.3981 92.4387 95.3981C92.2845 95.3981 92.0676 95.3863 91.755 95.3694C90.9493 95.3258 89.5079 95.2477 86.869 95.2477C83.6511 95.2477 81.8609 95.3333 80.9816 95.3753L80.9806 95.3754L80.98 95.3754L80.979 95.3755C80.6942 95.3891 80.5053 95.3981 80.3946 95.3981C80.0543 95.3981 79.9669 95.3622 79.9481 95.107C79.8949 95.2724 79.7804 95.3979 79.5404 95.3979C79.275 95.3979 79.0019 95.3863 78.6076 95.3695C77.5845 95.3259 75.7454 95.2476 71.1094 95.2476C68.3157 95.2476 66.6055 95.3152 65.4793 95.3598C64.9266 95.3816 64.5143 95.3979 64.184 95.3979C63.6824 95.3979 63.632 95.0977 63.632 94.7461V93.7925C63.632 93.5417 63.6824 93.3409 63.9327 93.3409H65.3384C66.6931 93.3409 67.1452 92.8394 66.8439 91.5341C66.3919 89.7278 64.4347 83.3044 63.8328 81.4976H52.8422ZM63.3807 79.49L59.6173 66.1917C59.4165 65.4384 59.3161 65.0872 59.0653 65.0872C58.7646 65.0872 58.6133 65.288 58.4629 65.7396C58.2116 66.392 53.8967 78.2357 53.4951 79.49H63.3807Z" fill="currentColor"/>
<path d="M133.539 64.1837C133.539 62.4274 133.188 61.6241 132.134 61.6241H129.775C129.474 61.6241 129.424 61.5242 129.424 61.1726V59.9682C129.424 59.6675 129.474 59.5671 129.875 59.5671C129.994 59.5671 130.221 59.5755 130.568 59.5883C131.694 59.6297 134.079 59.7175 138.106 59.7175C141.368 59.7175 143.536 59.6354 144.668 59.5925C145.068 59.5774 145.338 59.5671 145.482 59.5671C145.884 59.5671 145.934 59.6675 145.934 59.9682V61.273C145.934 61.5242 145.884 61.6241 145.533 61.6241H143.826C142.12 61.6241 141.267 62.5782 141.167 63.5813C141.117 64.1338 141.066 67.546 141.066 70.1051V73.4174C141.066 75.9938 141.255 82.0533 141.312 83.891L141.317 84.0563C141.367 86.3647 141.819 88.623 142.923 90.0287C144.579 92.0358 146.938 92.839 149.196 92.839C151.053 92.839 153.763 91.8854 155.118 90.6301C157.125 88.8238 158.279 86.0634 158.279 82.4504V74.7222C158.279 70.5067 157.778 64.9865 157.577 63.8326C157.377 62.5278 156.573 61.6241 155.72 61.6241H154.114C153.813 61.6241 153.763 61.4738 153.763 61.223V59.9183C153.763 59.6675 153.813 59.5671 154.114 59.5671C154.253 59.5671 154.531 59.5787 154.933 59.5954C155.98 59.6389 157.87 59.7175 160.337 59.7175C162.261 59.7175 163.629 59.6416 164.422 59.5977L164.422 59.5976C164.745 59.5797 164.973 59.5671 165.104 59.5671C165.556 59.5671 165.606 59.7679 165.606 60.0187V61.1231C165.606 61.4238 165.556 61.6241 165.305 61.6241H163.75C161.948 61.6241 161.714 62.878 161.609 63.44L161.608 63.441L161.602 63.4754C161.598 63.4951 161.595 63.5138 161.591 63.5313C161.491 64.2342 161.491 71.1591 161.491 71.8619C161.491 72.5643 161.391 81.3464 161.24 83.3041C160.939 87.4187 159.584 90.5802 156.974 92.8885C154.767 94.8461 151.354 96 148.092 96C145.733 96 142.521 95.6488 140.414 94.7457C138.005 93.6917 135.797 91.3329 134.593 88.121C133.74 85.9635 133.539 82.6012 133.539 76.027V64.1837Z" fill="currentColor"/>
<path fill-rule="evenodd" clip-rule="evenodd" d="M171.98 72.4143C171.98 68.7008 171.98 65.4888 171.93 64.1341C171.88 62.4782 171.228 61.6245 170.524 61.6245H168.518C168.266 61.6245 168.217 61.4742 168.217 61.2733V59.9186C168.217 59.6679 168.266 59.5675 168.518 59.5675C168.618 59.5675 168.774 59.575 169.016 59.5866C169.858 59.6271 171.745 59.7178 175.995 59.7178C177.509 59.7178 179.489 59.6742 181.315 59.6339H181.316L181.317 59.6339C182.88 59.5994 184.33 59.5675 185.279 59.5675C189.193 59.5675 192.104 60.9721 194.161 62.8798C195.968 64.5353 197.022 66.4924 197.022 68.3491C197.022 74.7226 192.254 77.5829 187.838 77.9845V78.3361C189.394 78.8377 190.197 79.7913 191.15 80.9956C191.623 81.5768 193.2 84.0783 194.187 85.6435C194.563 86.2402 194.853 86.7008 194.964 86.867C195.265 87.3186 197.975 91.1325 198.979 92.2869C199.581 92.9393 201.488 93.3409 202.642 93.3409C202.993 93.3409 203.044 93.5417 203.044 93.742V94.9464C203.044 95.2476 202.993 95.3979 202.642 95.3979C202.544 95.3979 202.393 95.389 202.164 95.3755C201.452 95.3336 199.994 95.2476 197.072 95.2476C196.036 95.2476 194.797 95.2984 193.644 95.3457L193.644 95.3458L193.641 95.3459C193.175 95.365 192.723 95.3836 192.304 95.3979C190.799 94.244 187.688 88.4226 186.834 86.7167C185.128 83.3044 183.071 79.5905 180.662 79.5905H178.955V82.15C178.955 85.1107 179.106 90.7309 179.207 91.3838C179.307 92.4372 179.709 93.3409 180.461 93.3409H182.519C182.87 93.3409 182.921 93.4912 182.921 93.742V94.9464C182.921 95.2975 182.87 95.3979 182.117 95.3979C182.116 95.3979 182.115 95.3979 182.112 95.3977C182.11 95.3976 182.107 95.3973 182.102 95.397L182.073 95.3946C181.811 95.3723 180.342 95.2476 175.543 95.2476C171.519 95.2476 169.879 95.3336 169.079 95.3755C168.822 95.389 168.652 95.3979 168.518 95.3979C168.116 95.3979 168.116 95.2476 168.116 94.8964V93.742C168.116 93.4912 168.116 93.3409 168.367 93.3409H169.872C170.976 93.3409 171.88 92.9892 171.88 91.7349C171.98 86.7666 171.98 82.0496 171.98 77.2821V72.4143ZM179.006 77.8341C179.959 77.8841 180.561 77.8841 181.013 77.8841C187.637 77.8841 189.193 71.5606 189.193 69.2028C189.193 66.894 188.39 64.6861 187.286 63.5817C185.479 61.9762 183.221 61.3738 181.716 61.3738C180.863 61.3738 180.21 61.4742 179.809 61.8253C179.508 62.0261 179.357 62.5781 179.257 63.18L179.006 77.8341Z" fill="currentColor"/>
</g>
<defs>
<clipPath id="clip0_493_173401">
<rect width="204" height="96" fill="white"/>
</clipPath>
</defs>
</svg>
