<svg width="128" height="128" viewBox="0 0 128 128" fill="none" xmlns="http://www.w3.org/2000/svg">
<g clip-path="url(#clip0_493_173304)">
<path d="M73.1484 18.2969C80.3517 18.2969 87.4847 19.7151 94.1396 22.4717C100.795 25.2282 106.841 29.2689 111.935 34.3623C117.028 39.4557 121.069 45.5024 123.825 52.1572C126.582 58.8121 128 65.9452 128 73.1484H112.143C112.143 78.2692 111.134 83.3403 109.175 88.0713C107.215 92.8022 104.343 97.1007 100.722 100.722C97.1007 104.343 92.8014 107.215 88.0703 109.175C83.3396 111.134 78.269 112.142 73.1484 112.143V128.001C65.9452 128.001 58.8122 126.582 52.1572 123.825C45.5023 121.069 39.4557 117.028 34.3623 111.935C29.2689 106.841 25.2282 100.795 22.4717 94.1396C19.7151 87.4847 18.2959 80.3517 18.2959 73.1484H36.1445C36.1445 78.0078 37.1013 82.8201 38.9609 87.3096C40.8205 91.799 43.5463 95.8784 46.9824 99.3145C50.4185 102.751 54.4979 105.476 58.9873 107.336C63.4765 109.195 68.2884 110.151 73.1475 110.151V94.2949C75.9244 94.2949 78.6746 93.7482 81.2402 92.6855C83.8058 91.6229 86.137 90.0651 88.1006 88.1016C90.0643 86.1379 91.6218 83.8059 92.6846 81.2402C93.7472 78.6747 94.2949 75.9253 94.2949 73.1484H110.152C110.152 68.2892 109.194 63.4777 107.335 58.9883C105.475 54.4988 102.75 50.4195 99.3135 46.9834C95.8774 43.5473 91.7981 40.8215 87.3086 38.9619C82.8192 37.1024 78.0077 36.1445 73.1484 36.1445V18.2969Z" fill="currentColor"/>
<path d="M73.1484 17.8477C65.8863 17.8477 58.6947 19.2785 51.9854 22.0576C45.2762 24.8367 39.1799 28.9099 34.0449 34.0449C28.9099 39.1799 24.8367 45.2761 22.0576 51.9854C19.2786 58.6945 17.8477 65.8855 17.8477 73.1475H0C6.01077e-05 63.5417 1.89144 54.0298 5.56738 45.1553C9.24342 36.2805 14.6324 28.2172 21.4248 21.4248C28.2172 14.6324 36.2805 9.24343 45.1553 5.56738C54.03 1.89136 63.5425 1.1455e-07 73.1484 0V17.8477Z" fill="currentColor"/>
</g>
<defs>
<clipPath id="clip0_493_173304">
<rect width="128" height="128.001" fill="white"/>
</clipPath>
</defs>
</svg>
