<svg width="128" height="128" viewBox="0 0 128 128" fill="none" xmlns="http://www.w3.org/2000/svg">
<g clip-path="url(#clip0_493_173311)">
<path d="M75.1704 128C73.3126 127.902 71.4547 127.717 69.6002 127.72C47.4308 127.724 25.2614 127.754 3.09192 127.774C2.05678 127.774 1.02165 127.724 0.330439 127.71C0.219171 102.425 0.107897 77.2852 0 52.3712C8.16644 52.4049 16.3868 52.4353 24.8399 52.469C24.8062 68.6973 24.7725 85.4786 24.7387 102.253C41.8404 102.246 58.5476 102.243 75.8751 102.236C75.8043 106.518 75.6593 110.45 75.693 114.381C75.7301 118.623 75.9291 122.868 76.0572 127.113L75.1704 128Z" fill="currentColor"/>
<path d="M127.025 0.445073C126.951 15.5034 126.849 30.5617 126.812 45.6167C126.785 55.6578 126.843 65.6955 126.866 75.676C118.322 75.5715 110.021 75.4737 101.635 75.3725V25.5614C84.6752 25.5782 67.8871 25.5951 51.3216 25.612C51.298 16.9364 51.2778 8.69242 51.2542 0.0606907C56.8513 0.0977801 62.6879 0.182078 68.5244 0.171962C87.8784 0.131501 107.229 0.0606918 126.58 0L127.025 0.445073Z" fill="currentColor"/>
<path d="M51.1937 51.8641H76.4618V77.1322H51.1937V51.8641Z" fill="currentColor"/>
</g>
<defs>
<clipPath id="clip0_493_173311">
<rect width="127.025" height="128" fill="white"/>
</clipPath>
</defs>
</svg>
