<svg width="128" height="128" viewBox="0 0 128 128" fill="none" xmlns="http://www.w3.org/2000/svg">
<path d="M112 49.1914C90.888 49.1914 73.7734 66.3379 73.7734 87.4893V124C94.8853 124 112 106.853 112 85.7021V49.1914Z" fill="currentColor"/>
<path d="M64.8914 97.447C38.994 97.447 18 76.4138 18 50.4682V4C43.8974 4 64.8914 25.0331 64.8914 50.9788V97.447Z" fill="currentColor"/>
<path d="M104.854 19.5599C104.854 28.1524 97.9016 35.1181 89.3251 35.1181C80.7485 35.1181 73.7959 28.1524 73.7959 19.5599C73.7959 10.9674 80.7485 4.00175 89.3251 4.00175C97.9016 4.00175 104.854 10.9674 104.854 19.5599Z" fill="currentColor"/>
</svg>
