<svg width="128" height="128" viewBox="0 0 128 128" fill="none" xmlns="http://www.w3.org/2000/svg">
<g clip-path="url(#clip0_493_173298)">
<path fill-rule="evenodd" clip-rule="evenodd" d="M124 0C126.209 0 128 1.79086 128 4V124C128 126.209 126.209 128 124 128H4C1.79086 128 0 126.209 0 124V4C0 1.79086 1.79086 0 4 0H124ZM40.3916 97.8779C35.837 97.8779 32.1445 101.576 32.1445 106.139C32.1446 110.701 35.8371 114.399 40.3916 114.399C44.9461 114.399 48.6386 110.701 48.6387 106.139C48.6387 101.576 44.9461 97.878 40.3916 97.8779ZM65.6182 84.502C65.4893 84.502 65.4511 84.8302 65.5742 84.8682C67.9296 85.5861 72.0966 87.592 72.0967 92.8008C72.0967 98.0097 67.9296 100.016 65.5742 100.733C65.4511 100.771 65.4893 101.1 65.6182 101.1H94.3027C98.7745 101.1 102.399 97.384 102.399 92.8008C102.399 88.2176 98.7745 84.502 94.3027 84.502H65.6182ZM33.6963 65.9521C29.2247 65.9522 25.5997 69.4492 25.5996 73.7627C25.5996 78.0762 29.2246 81.5732 33.6963 81.5732H62.2803C62.4097 81.5732 62.4494 81.2368 62.3252 81.2002C59.954 80.5003 55.9023 78.5969 55.9023 73.7627C55.9024 68.9286 59.9541 67.0251 62.3252 66.3252C62.4494 66.2885 62.4097 65.9521 62.2803 65.9521H33.6963ZM65.6182 46.4258C65.4893 46.4259 65.4512 46.754 65.5742 46.792C67.9295 47.5099 72.0965 49.5159 72.0967 54.7246C72.0967 59.9335 67.9296 61.9403 65.5742 62.6582C65.4513 62.6964 65.4894 63.0234 65.6182 63.0234H94.3027C98.7745 63.0234 102.399 59.3078 102.399 54.7246C102.399 50.1415 98.7744 46.4258 94.3027 46.4258H65.6182ZM33.6963 26.9004C29.2248 26.9005 25.5999 30.6153 25.5996 35.1982C25.5996 39.7814 29.2246 43.497 33.6963 43.4971H62.3809C62.5098 43.4971 62.548 43.1697 62.4248 43.1318C60.0694 42.4139 55.9023 40.4071 55.9023 35.1982C55.9026 29.9897 60.0695 27.9835 62.4248 27.2656C62.548 27.2278 62.5098 26.9004 62.3809 26.9004H33.6963ZM87.6074 13.5996C83.0532 13.5999 79.3615 17.2982 79.3613 21.8604C79.3613 26.4226 83.0531 30.1218 87.6074 30.1221C92.162 30.1221 95.8545 26.4228 95.8545 21.8604C95.8543 17.298 92.1619 13.5996 87.6074 13.5996Z" fill="currentColor"/>
</g>
<defs>
<clipPath id="clip0_493_173298">
<rect width="128" height="128" fill="white"/>
</clipPath>
</defs>
</svg>
