<svg width="96" height="96" viewBox="0 0 96 96" fill="none" xmlns="http://www.w3.org/2000/svg">
<g clip-path="url(#clip0_493_173287)">
<path d="M47.998 26.128L47.9981 0C41.6946 0 35.4529 1.24155 29.6292 3.65378C23.8056 6.06601 18.5141 9.60166 14.0569 14.0589C9.59971 18.5161 6.06406 23.8076 3.65183 29.6312C1.23961 35.4548 -0.00195312 41.6965 -0.00195312 48H27.3747C34.4351 42.6831 40.3008 35.5792 46.3282 28.1782L46.845 27.5435C47.2283 27.0726 47.6126 26.6006 47.998 26.128Z" fill="currentColor"/>
<path d="M47.9983 69.8751L47.9985 96.0005C54.302 96.0005 60.5437 94.7589 66.3673 92.3467C72.191 89.9345 77.4824 86.3988 81.9397 81.9416C86.3969 77.4844 89.9325 72.1929 92.3448 66.3693C94.757 60.5457 95.9985 54.3039 95.9985 48.0005L68.6238 48.0002C61.5637 53.3171 55.6981 60.4209 49.6707 67.8218L49.1539 68.4565C48.7697 68.9284 48.3846 69.4015 47.9983 69.8751Z" fill="currentColor"/>
<path d="M96.0002 0.000176086V36.0001C48.1105 36.0001 46.3813 96.0002 0.000247955 96.0002V60.0002C47.89 60.0002 49.6192 0.000176086 96.0002 0.000176086Z" fill="currentColor"/>
</g>
<defs>
<clipPath id="clip0_493_173287">
<rect width="96" height="96" fill="white"/>
</clipPath>
</defs>
</svg>
