<svg width="128" height="128" viewBox="0 0 128 128" fill="none" xmlns="http://www.w3.org/2000/svg">
<path d="M25.9486 26.9371L16.8352 26.9259L47.0809 52.8786C51.4437 56.6222 57.8689 56.6133 62.2215 52.8577L92.1683 27.0185L83.3003 27.0076L62.2245 8.82263C57.8718 5.06704 51.4467 5.05819 47.0838 8.80177L25.9486 26.9371Z" fill="currentColor"/>
<path d="M23.5862 41.8833L50.1944 64.7797C55.6131 69.4425 55.6246 77.863 50.2186 82.5408L23.4806 105.677L23.491 99.3653L4.04718 82.5408C-1.35883 77.863 -1.34733 69.4425 4.0714 64.7796L23.5761 47.9958L23.5862 41.8833Z" fill="currentColor"/>
<path d="M36.317 100.981L66.2638 75.1421C70.6164 71.3865 77.0416 71.3777 81.4044 75.1212L103.524 94.1009C103.599 94.1608 103.672 94.2235 103.743 94.2889L111.65 101.074L102.544 101.063L81.4083 119.198C77.0454 122.942 70.6203 122.933 66.2677 119.177L45.1916 100.992L36.317 100.981Z" fill="currentColor"/>
<path d="M104.893 86.1162L78.2853 63.2198C72.8666 58.557 72.8551 50.1364 78.2611 45.4587L104.999 22.3225L104.988 29.0486L123.953 45.4587C129.359 50.1364 129.347 58.557 123.929 63.2198L104.904 79.5903L104.893 86.1162Z" fill="currentColor"/>
</svg>
