<svg width="108" height="128" viewBox="0 0 108 128" fill="none" xmlns="http://www.w3.org/2000/svg">
<g clip-path="url(#clip0_493_173284)">
<path fill-rule="evenodd" clip-rule="evenodd" d="M38.2498 15.4483C38.2498 22.8383 43.5514 29.0234 50.6247 30.5403V44.1376H38.7394C35.9836 44.1376 33.7499 46.3293 33.7499 49.0315V49.5355C33.7499 49.8597 33.8813 50.1708 34.1148 50.3998C34.3491 50.6297 34.6663 50.7585 34.9969 50.7585H40.5002V92.6898H31.9891C29.2341 92.6898 26.9997 94.8806 26.9997 97.5836V98.0868C26.9997 98.411 27.1311 98.7221 27.3654 98.952C27.5989 99.181 27.9161 99.3099 28.2475 99.3099H68.625V105.931H18.5489C17.2099 105.931 15.9261 106.453 14.9788 107.381C14.0323 108.31 13.5001 109.57 13.5001 110.884V111.328C13.5001 111.653 13.6314 111.964 13.8649 112.193C14.0993 112.423 14.4164 112.552 14.747 112.552H17.9999V119.172H7.48409C5.4992 119.172 3.59555 119.946 2.19203 121.322C0.788503 122.699 8.40215e-09 124.566 8.40215e-09 126.513V126.776C-7.90984e-05 127.452 0.558449 128 1.24728 128H106.752C107.441 128 108 127.452 108 126.776V126.513C108 124.566 107.211 122.699 105.807 121.322C104.404 119.946 102.5 119.172 100.516 119.172H24.7502V112.552H93.2526C93.5832 112.552 93.9003 112.423 94.1347 112.193C94.3681 111.964 94.4995 111.653 94.4995 111.328V110.81C94.4995 109.515 93.9757 108.274 93.0425 107.36C92.1103 106.445 90.8449 105.931 89.526 105.931H75.3744V99.3099H79.7521C80.0835 99.3099 80.4007 99.181 80.6342 98.952C80.8685 98.7221 80.9999 98.411 80.9999 98.0868V97.6321C80.9999 94.9028 78.7437 92.6898 75.9602 92.6898H47.2496V50.7585H73.0027C73.3333 50.7585 73.6505 50.6297 73.8848 50.3998C74.1183 50.1708 74.2497 49.8597 74.2497 49.5355V49.0315C74.2497 46.3293 72.016 44.1376 69.2602 44.1376H57.3749V30.5403C64.4482 29.0234 69.7498 22.8383 69.7498 15.4483C69.7498 6.92219 62.6924 0 53.9998 0C45.3072 0 38.2498 6.92219 38.2498 15.4483Z" fill="currentColor"/>
</g>
<defs>
<clipPath id="clip0_493_173284">
<rect width="108" height="128" fill="white"/>
</clipPath>
</defs>
</svg>
