<svg width="200" height="96" viewBox="0 0 200 96" fill="none" xmlns="http://www.w3.org/2000/svg">
<g clip-path="url(#clip0_493_173355)">
<path fill-rule="evenodd" clip-rule="evenodd" d="M56.7275 0C65.276 1.6663e-05 76.0973 2.15253 83.0645 11.4102C90.1319 1.94749 99.8529 0.285217 107.514 0.285156C108.598 0.285156 109.644 0.324053 110.652 0.401367C112.161 0.252706 113.723 0.178711 115.336 0.178711C133.955 0.178876 141.87 10.8722 144.415 15.4688C148.578 22.2208 149.071 31.1911 149.114 38.5156V96H119.711V86.9678H112.595V36.9707C112.595 31.3239 112.073 25.2754 108.538 21.5107C107.465 21.3535 106.381 21.2783 105.297 21.2871C90.9302 21.2873 89.7861 33.2593 89.7861 48.9062V96H60.3877V86.9678H58.2041V36.4727C58.2041 33.3191 58.1635 28.8763 56.5801 25.123C54.5037 22.8283 51.29 21.2871 46.3369 21.2871C30.4625 21.2871 30.4619 34.5457 30.4619 40.9131V96H1.05859V20.375C1.05858 15.2456 0.773586 9.77894 0.151367 3.20215L0.0351562 1.99805H28.3594L28.9922 10.1924C32.5962 5.97057 39.5391 0.135734 53.1992 0.120117H53.248C54.3609 0.0375989 55.5232 0 56.7275 0ZM3.25977 93.7988H28.2607V86.9678H3.25977V93.7988ZM98.2344 17.793C83.1804 17.793 82.8457 31.7607 82.8457 44.3838V86.9678H62.5908V93.7988H87.585V48.9062C87.585 36.3636 87.585 19.2022 105.132 19.0859C103.303 18.2587 101.042 17.793 98.2344 17.793ZM120.708 2.7168C128.567 5.96847 132.271 11.5953 133.561 13.917C138.123 21.3258 137.783 31.5912 137.783 39V86.9678H121.915V93.7988H146.909V41.5488L146.913 41.5381C146.942 33.6387 146.962 23.8012 142.511 16.582C140.396 12.7527 134.33 4.47867 120.708 2.7168ZM70.8467 4.67676C76.7456 8.49713 79.1299 13.7052 80.1357 16.1094C80.6531 15.1192 81.189 14.1891 81.751 13.3193C79.0347 9.43912 75.2446 6.43524 70.8467 4.67676Z" fill="currentColor"/>
<path d="M193.704 69.6191H199.965V96H174.375V86.9678H176.569V93.7988H197.757V71.8203H193.704V86.9668H172.051V64.582H193.704V69.6191Z" fill="currentColor"/>
<path d="M26.043 1.99609H1.86914V1.9668H26.043V1.99609Z" fill="currentColor"/>
</g>
<defs>
<clipPath id="clip0_493_173355">
<rect width="200" height="96" fill="white"/>
</clipPath>
</defs>
</svg>
