<svg width="128" height="128" viewBox="0 0 128 128" fill="none" xmlns="http://www.w3.org/2000/svg">
<path d="M62.251 8.00098C63.2168 7.97101 64 8.75726 64 9.72363V43.8076C78.1652 26.4307 91.9138 8.78939 118.218 8.02637C119.184 7.99849 120 8.78372 120 9.75V48.25C120 49.2165 119.183 49.9981 118.217 50.0244C103.091 50.4359 91.9931 56.0798 82.6846 64H118.276C119.243 64 120.029 64.7832 119.999 65.749C119.788 72.5098 118.354 79.1823 115.762 85.4404C112.946 92.2378 108.819 98.4137 103.616 103.616C98.4137 108.819 92.2378 112.946 85.4404 115.762C79.1823 118.354 72.5099 119.788 65.749 119.999C64.7831 120.029 64 119.243 64 118.276V84.1924C49.8347 101.569 36.0864 119.212 9.78223 119.975C8.81625 120.002 8 119.216 8 118.25V79.75C8.00017 78.7837 8.81719 78.0029 9.7832 77.9766C24.9087 77.5651 36.0068 71.9203 45.3154 64H9.72363C8.75713 64 7.97079 63.216 8.00098 62.25C8.21226 55.4893 9.64612 48.8176 12.2383 42.5596C15.0539 35.7621 19.1812 29.5854 24.3838 24.3828C29.5862 19.1805 35.7624 15.0538 42.5596 12.2383C48.8177 9.64608 55.4901 8.21222 62.251 8.00098Z" fill="currentColor"/>
</svg>
