<svg width="128" height="128" viewBox="0 0 128 128" fill="none" xmlns="http://www.w3.org/2000/svg">
<g clip-path="url(#clip0_493_173274)">
<path d="M18.2742 85.3081V91.4069H57.8655C58.6653 91.4069 59.4651 91.7069 60.015 92.3068L89.6085 121.901H124.901C126.6 121.901 127.95 123.251 127.95 124.951C127.95 126.65 126.6 128 124.901 128H88.3588C87.5589 128 86.7591 127.7 86.2092 127.1L56.6158 97.4558H15.2249C13.5253 97.4558 12.1755 96.106 12.1755 94.4064V43.466L4.6772 48.2651C4.17731 48.5651 3.62743 48.765 3.02756 48.765C2.02778 48.765 1.02801 48.2651 0.478127 47.3653C-0.421675 45.9656 -0.0217632 44.0659 1.42792 43.1661L68.4132 0.474209C69.313 -0.0756865 70.4627 -0.175668 71.4125 0.324238L120.152 24.7196C121.651 25.4695 122.251 27.3191 121.501 28.8188C120.752 30.3185 118.902 30.9184 117.402 30.1686L70.2128 6.57305L36.5202 27.969V45.6656C36.5202 54.064 43.3687 60.9127 51.7668 60.9127C60.165 60.9127 67.0135 54.064 67.0135 45.6656C67.0135 43.966 68.3632 42.6162 70.0628 42.6162C71.7624 42.6162 73.1121 43.966 73.1121 45.6656C73.1121 57.4134 63.5642 67.0116 51.7668 67.0116C39.9694 67.0116 30.4715 57.4634 30.4715 45.6656V31.8183L18.2742 39.6168V79.2093H63.9641C64.764 79.2093 65.5638 79.5092 66.1137 80.1091L95.7071 109.703H124.901C126.6 109.703 127.95 111.053 127.95 112.753C127.95 114.453 126.6 115.802 124.901 115.802H94.4074C93.6076 115.802 92.8078 115.502 92.2579 114.902L62.6644 85.3081H18.2742ZM91.4081 87.0578V45.6656C91.4081 33.9179 81.8602 24.3197 70.0628 24.3197C58.3154 24.3197 48.7175 33.8679 48.7175 45.6656C48.7175 47.3653 50.0672 48.7151 51.7668 48.7151C53.4664 48.7151 54.8161 47.3653 54.8161 45.6656C54.8161 37.2672 61.6646 30.4185 70.0628 30.4185C78.4609 30.4185 85.3094 37.2672 85.3094 45.6656V88.3075C85.3094 89.1074 85.6094 89.9072 86.2092 90.4571L98.4065 102.655C98.9564 103.205 99.7562 103.555 100.556 103.555H124.951C126.65 103.555 128 102.205 128 100.505C128 98.8055 126.65 97.4558 124.951 97.4558H101.856L91.4081 87.0578Z" fill="currentColor"/>
</g>
<defs>
<clipPath id="clip0_493_173274">
<rect width="128" height="128" fill="white"/>
</clipPath>
</defs>
</svg>
