<svg width="1282" height="1282" viewBox="0 0 1282 1282" fill="none" xmlns="http://www.w3.org/2000/svg">
<rect x="0.64502" y="0.645264" width="160" height="160" fill="white" stroke="black" stroke-width="1.29032"/>

<path d="M320.645 0.645264H160.645V160.645H320.645V0.645264Z" fill="black"/>

<rect x="160.645" y="0.645264" width="160" height="160" stroke="black" stroke-width="1.29032"/>
<rect x="320.645" y="0.645264" width="160" height="160" fill="white" stroke="black" stroke-width="1.29032"/>

<path d="M640.645 0.645264H480.645V160.645H640.645V0.645264Z" fill="black"/>

<rect x="480.645" y="0.645264" width="160" height="160" stroke="black" stroke-width="1.29032"/>
<rect x="640.645" y="0.645264" width="160" height="160" fill="white" stroke="black" stroke-width="1.29032"/>

<path d="M960.645 0.645264H800.645V160.645H960.645V0.645264Z" fill="black"/>

<rect x="800.645" y="0.645264" width="160" height="160" stroke="black" stroke-width="1.29032"/>
<rect x="960.645" y="0.645264" width="160" height="160" fill="white" stroke="black" stroke-width="1.29032"/>

<path d="M1280.65 0.645264H1120.65V160.645H1280.65V0.645264Z" fill="black"/>

<rect x="1120.65" y="0.645264" width="160" height="160" stroke="black" stroke-width="1.29032"/>

<path d="M160.645 160.645H0.64502V320.645H160.645V160.645Z" fill="black"/>

<rect x="0.64502" y="160.645" width="160" height="160" stroke="black" stroke-width="1.29032"/>
<rect x="160.645" y="160.645" width="160" height="160" fill="white" stroke="black" stroke-width="1.29032"/>

<path d="M480.645 160.645H320.645V320.645H480.645V160.645Z" fill="black"/>

<rect x="320.645" y="160.645" width="160" height="160" stroke="black" stroke-width="1.29032"/>
<rect x="480.645" y="160.645" width="160" height="160" fill="white" stroke="black" stroke-width="1.29032"/>

<path d="M800.645 160.645H640.645V320.645H800.645V160.645Z" fill="black"/>

<rect x="640.645" y="160.645" width="160" height="160" stroke="black" stroke-width="1.29032"/>
<rect x="800.645" y="160.645" width="160" height="160" fill="white" stroke="black" stroke-width="1.29032"/>

<path d="M1120.65 160.645H960.645V320.645H1120.65V160.645Z" fill="black"/>

<rect x="960.645" y="160.645" width="160" height="160" stroke="black" stroke-width="1.29032"/>
<rect x="1120.65" y="160.645" width="160" height="160" fill="white" stroke="black" stroke-width="1.29032"/>
<rect x="0.64502" y="320.645" width="160" height="160" fill="white" stroke="black" stroke-width="1.29032"/>

<path d="M320.645 320.645H160.645V480.645H320.645V320.645Z" fill="black"/>

<rect x="160.645" y="320.645" width="160" height="160" stroke="black" stroke-width="1.29032"/>
<rect x="320.645" y="320.645" width="160" height="160" fill="white" stroke="black" stroke-width="1.29032"/>

<path d="M640.645 320.645H480.645V480.645H640.645V320.645Z" fill="black"/>

<rect x="480.645" y="320.645" width="160" height="160" stroke="black" stroke-width="1.29032"/>
<rect x="640.645" y="320.645" width="160" height="160" fill="white" stroke="black" stroke-width="1.29032"/>

<path d="M960.645 320.645H800.645V480.645H960.645V320.645Z" fill="black"/>

<rect x="800.645" y="320.645" width="160" height="160" stroke="black" stroke-width="1.29032"/>
<rect x="960.645" y="320.645" width="160" height="160" fill="white" stroke="black" stroke-width="1.29032"/>

<path d="M1280.65 320.645H1120.65V480.645H1280.65V320.645Z" fill="black"/>

<rect x="1120.65" y="320.645" width="160" height="160" stroke="black" stroke-width="1.29032"/>

<path d="M160.645 480.645H0.64502V640.645H160.645V480.645Z" fill="black"/>

<rect x="0.64502" y="480.645" width="160" height="160" stroke="black" stroke-width="1.29032"/>
<rect x="160.645" y="480.645" width="160" height="160" fill="white" stroke="black" stroke-width="1.29032"/>

<path d="M480.645 480.645H320.645V640.645H480.645V480.645Z" fill="black"/>

<rect x="320.645" y="480.645" width="160" height="160" stroke="black" stroke-width="1.29032"/>
<rect x="480.645" y="480.645" width="160" height="160" fill="white" stroke="black" stroke-width="1.29032"/>

<path d="M800.645 480.645H640.645V640.645H800.645V480.645Z" fill="black"/>

<rect x="640.645" y="480.645" width="160" height="160" stroke="black" stroke-width="1.29032"/>
<rect x="800.645" y="480.645" width="160" height="160" fill="white" stroke="black" stroke-width="1.29032"/>

<path d="M1120.65 480.645H960.645V640.645H1120.65V480.645Z" fill="black"/>

<rect x="960.645" y="480.645" width="160" height="160" stroke="black" stroke-width="1.29032"/>
<rect x="1120.65" y="480.645" width="160" height="160" fill="white" stroke="black" stroke-width="1.29032"/>
<rect x="0.64502" y="640.645" width="160" height="160" fill="white" stroke="black" stroke-width="1.29032"/>

<path d="M320.645 640.645H160.645V800.645H320.645V640.645Z" fill="black"/>

<rect x="160.645" y="640.645" width="160" height="160" stroke="black" stroke-width="1.29032"/>
<rect x="320.645" y="640.645" width="160" height="160" fill="white" stroke="black" stroke-width="1.29032"/>

<path d="M640.645 640.645H480.645V800.645H640.645V640.645Z" fill="black"/>

<rect x="480.645" y="640.645" width="160" height="160" stroke="black" stroke-width="1.29032"/>
<rect x="640.645" y="640.645" width="160" height="160" fill="white" stroke="black" stroke-width="1.29032"/>

<path d="M960.645 640.645H800.645V800.645H960.645V640.645Z" fill="black"/>

<rect x="800.645" y="640.645" width="160" height="160" stroke="black" stroke-width="1.29032"/>
<rect x="960.645" y="640.645" width="160" height="160" fill="white" stroke="black" stroke-width="1.29032"/>

<path d="M1280.65 640.645H1120.65V800.645H1280.65V640.645Z" fill="black"/>

<rect x="1120.65" y="640.645" width="160" height="160" stroke="black" stroke-width="1.29032"/>

<path d="M160.645 800.645H0.64502V960.645H160.645V800.645Z" fill="black"/>

<rect x="0.64502" y="800.645" width="160" height="160" stroke="black" stroke-width="1.29032"/>
<rect x="160.645" y="800.645" width="160" height="160" fill="white" stroke="black" stroke-width="1.29032"/>

<path d="M480.645 800.645H320.645V960.645H480.645V800.645Z" fill="black"/>

<rect x="320.645" y="800.645" width="160" height="160" stroke="black" stroke-width="1.29032"/>
<rect x="480.645" y="800.645" width="160" height="160" fill="white" stroke="black" stroke-width="1.29032"/>

<path d="M800.645 800.645H640.645V960.645H800.645V800.645Z" fill="black"/>

<rect x="640.645" y="800.645" width="160" height="160" stroke="black" stroke-width="1.29032"/>
<rect x="800.645" y="800.645" width="160" height="160" fill="white" stroke="black" stroke-width="1.29032"/>

<path d="M1120.65 800.645H960.645V960.645H1120.65V800.645Z" fill="black"/>

<rect x="960.645" y="800.645" width="160" height="160" stroke="black" stroke-width="1.29032"/>
<rect x="1120.65" y="800.645" width="160" height="160" fill="white" stroke="black" stroke-width="1.29032"/>
<rect x="0.64502" y="960.645" width="160" height="160" fill="white" stroke="black" stroke-width="1.29032"/>

<path d="M320.645 960.645H160.645V1120.65H320.645V960.645Z" fill="black"/>

<rect x="160.645" y="960.645" width="160" height="160" stroke="black" stroke-width="1.29032"/>
<rect x="320.645" y="960.645" width="160" height="160" fill="white" stroke="black" stroke-width="1.29032"/>

<path d="M640.645 960.645H480.645V1120.65H640.645V960.645Z" fill="black"/>

<rect x="480.645" y="960.645" width="160" height="160" stroke="black" stroke-width="1.29032"/>
<rect x="640.645" y="960.645" width="160" height="160" fill="white" stroke="black" stroke-width="1.29032"/>

<path d="M960.645 960.645H800.645V1120.65H960.645V960.645Z" fill="black"/>

<rect x="800.645" y="960.645" width="160" height="160" stroke="black" stroke-width="1.29032"/>
<rect x="960.645" y="960.645" width="160" height="160" fill="white" stroke="black" stroke-width="1.29032"/>

<path d="M1280.65 960.645H1120.65V1120.65H1280.65V960.645Z" fill="black"/>

<rect x="1120.65" y="960.645" width="160" height="160" stroke="black" stroke-width="1.29032"/>

<path d="M160.645 1120.65H0.64502V1280.65H160.645V1120.65Z" fill="black"/>

<rect x="0.64502" y="1120.65" width="160" height="160" stroke="black" stroke-width="1.29032"/>
<rect x="160.645" y="1120.65" width="160" height="160" fill="white" stroke="black" stroke-width="1.29032"/>

<path d="M480.645 1120.65H320.645V1280.65H480.645V1120.65Z" fill="black"/>

<rect x="320.645" y="1120.65" width="160" height="160" stroke="black" stroke-width="1.29032"/>
<rect x="480.645" y="1120.65" width="160" height="160" fill="white" stroke="black" stroke-width="1.29032"/>

<path d="M800.645 1120.65H640.645V1280.65H800.645V1120.65Z" fill="black"/>

<rect x="640.645" y="1120.65" width="160" height="160" stroke="black" stroke-width="1.29032"/>
<rect x="800.645" y="1120.65" width="160" height="160" fill="white" stroke="black" stroke-width="1.29032"/>

<path d="M1120.65 1120.65H960.645V1280.65H1120.65V1120.65Z" fill="black"/>

<rect x="960.645" y="1120.65" width="160" height="160" stroke="black" stroke-width="1.29032"/>
<rect x="1120.65" y="1120.65" width="160" height="160" fill="white" stroke="black" stroke-width="1.29032"/>
<defs>
</defs>
</svg>
