<svg width="96" height="96" viewBox="0 0 95 95" fill="none" xmlns="http://www.w3.org/2000/svg">

<path d="M66.7061 63.5992C67.3804 64.762 67.7529 66.0749 67.7895 67.4185V70.1614C67.784 70.5056 67.6987 70.8439 67.5405 71.1496C67.3822 71.4554 67.1553 71.7204 66.8775 71.9237C66.1677 72.4743 65.3796 72.9157 64.5392 73.2334C63.4651 73.6521 62.3571 73.978 61.2272 74.2072C59.9724 74.4746 58.7038 74.6803 57.4078 74.8311C57.5052 75.7672 57.8614 76.6576 58.4364 77.4026C58.9137 78.0027 59.5178 78.4898 60.2055 78.8289C60.8164 79.1184 61.4689 79.3104 62.1392 79.3979C62.6511 79.4631 63.1662 79.4998 63.6821 79.5078L66.1369 79.3979C67.8298 79.2913 69.4991 78.945 71.0947 78.3694C72.4351 77.7664 73.8285 77.2891 75.257 76.9432C76.4656 76.5941 77.7103 76.3846 78.9667 76.3191C83.8584 76.2146 88.6001 78.0115 92.1941 81.3317L92.9964 82.0174L87.4009 93.4209L86.1529 92.2825C82.97 89.378 78.8045 87.7878 74.4958 87.8323C73.4726 87.8979 72.4591 88.0702 71.4718 88.3465C70.1716 88.6546 68.8951 89.0556 67.6524 89.5465C66.7234 89.979 65.7479 90.3035 64.7449 90.5135C63.7918 90.7055 62.9209 90.8357 62.1186 90.918C61.3164 91.0003 60.6581 91.0278 60.1232 91.0278H59.2112C57.0276 90.8495 54.9023 90.2323 52.9629 89.2131C51.0235 88.1939 49.3097 86.7936 47.9244 85.0963C47.2771 86.0469 46.4886 86.8931 45.5861 87.6059C44.6483 88.3561 43.6348 89.0065 42.5621 89.5465C41.557 90.0574 40.5083 90.4775 39.4284 90.8015C38.5603 91.0772 37.6577 91.2295 36.7472 91.254C36.5141 91.254 35.513 91.1991 33.7232 91.0894C31.8092 90.9382 29.9364 90.4532 28.1895 89.6564C26.9781 89.1992 25.6684 88.7832 24.2604 88.4083C23.2781 88.0998 22.2633 87.9064 21.2364 87.8323C16.918 87.7332 12.7329 89.3309 9.57923 92.2825L8.32436 93.4209L2.74268 82.0174L3.53809 81.3317C7.175 78.0942 11.8971 76.344 16.7655 76.4289C18.0411 76.4877 19.305 76.6994 20.5301 77.0597C21.9585 77.4194 23.3663 77.8566 24.7472 78.3694C25.5672 78.7425 26.4312 79.0099 27.3187 79.1649C28.0922 79.3038 28.8728 79.3999 29.657 79.4529C30.3427 79.494 30.9118 79.5078 31.3644 79.5078H32.2764C33.6728 79.5197 35.0483 79.1676 36.2672 78.4861C36.9042 78.0946 37.4419 77.5607 37.8381 76.9266C38.2342 76.2925 38.4781 75.5753 38.5507 74.8311C37.2547 74.6803 35.9861 74.4746 34.7312 74.2072C33.5848 73.9729 32.4589 73.6472 31.3644 73.2334C30.5025 72.926 29.6948 72.484 28.9712 71.9237C28.6923 71.7215 28.4645 71.4568 28.3061 71.1508C28.1478 70.8448 28.0632 70.5059 28.0592 70.1614V67.4185C28.0718 66.1825 28.3305 64.9614 28.8203 63.8264C29.3101 62.6914 30.0211 61.6654 30.9118 60.8083C31.0129 60.6305 31.148 60.4743 31.3095 60.3488C31.4535 60.2484 31.5868 60.1336 31.7072 60.0059C31.7321 59.3976 31.6147 58.7919 31.3644 58.2369C30.8316 57.0771 30.007 56.0753 28.9712 55.3295C24.7107 51.6723 22.5804 46.5409 22.5804 39.9352C22.5485 37.8947 22.9578 35.8713 23.7804 34.0037C24.5293 32.3232 25.5305 30.7669 26.7495 29.3888C27.8581 28.1156 29.1203 26.9847 30.5072 26.0221C31.654 25.2185 32.8545 24.4944 34.1004 23.8551C38.8912 21.4231 42.1232 19.2562 43.7964 17.3545C42.6685 16.6822 41.7259 15.7395 41.0535 14.6117C40.2863 13.3779 39.8888 11.9501 39.9084 10.4974C39.9692 8.4201 40.8372 6.44843 42.3281 5.00062C43.819 3.55281 45.8153 2.74292 47.8935 2.74292C49.9717 2.74292 51.968 3.55281 53.4589 5.00062C54.9498 6.44843 55.8178 8.4201 55.8787 10.4974C55.9109 11.9121 55.514 13.3034 54.7404 14.4883C53.9871 15.6181 53.0176 16.5876 51.8878 17.3408C52.9966 18.4914 54.2398 19.5045 55.5906 20.358C57.1541 21.3866 59.1518 22.5476 61.5838 23.8414C62.8297 24.4806 64.0302 25.2047 65.1769 26.0083C66.5638 26.971 67.826 28.1019 68.9347 29.3751C70.149 30.7567 71.1498 32.3122 71.9038 33.99C72.724 35.8581 73.131 37.8815 73.0969 39.9215C73.0969 46.6141 70.9689 51.7455 66.7129 55.3157C65.6614 56.0709 64.8344 57.0971 64.3198 58.2849C64.0751 58.8199 63.9577 59.4044 63.9769 59.9924C65.0545 61.0579 65.9736 62.2726 66.7061 63.5992V63.5992Z" fill="black"/>
<path d="M59.8629 67.8025C62.7909 68.454 64.5189 69.078 65.0537 69.6883C65.1292 69.1534 65.184 68.7215 65.2183 68.3786C65.2414 67.8228 65.186 67.2663 65.0537 66.7259C63.5607 66.1346 62.0125 65.6936 60.432 65.4094C58.697 65.0743 56.9462 64.827 55.1863 64.6688C53.472 64.5179 51.936 64.422 50.5646 64.3808C49.1932 64.3397 48.3223 64.3259 47.9452 64.3259C47.568 64.3259 46.6903 64.326 45.3189 64.3808C43.9474 64.4357 42.3909 64.5179 40.6423 64.6688C38.8638 64.8237 37.0946 65.0709 35.3417 65.4094C33.761 65.6925 32.2127 66.1336 30.72 66.7259C30.59 67.2668 30.5323 67.8226 30.5486 68.3786C30.6118 68.8217 30.7081 69.2595 30.8366 69.6883C31.296 69.078 33.0034 68.454 35.9726 67.8025C39.9199 67.072 43.9318 66.7481 47.9452 66.8357C51.9404 66.7464 55.9343 67.0703 59.8629 67.8025V67.8025Z" fill="white" stroke="black" stroke-width="0.555429" stroke-miterlimit="10"/>
<path d="M56.4408 59.1555C58.8368 59.818 61.0184 61.0945 62.7699 62.8585C62.1815 62.204 61.7521 61.4226 61.515 60.575C61.364 59.9393 61.364 59.277 61.515 58.6412C57.7893 56.4332 53.2659 55.3293 47.9448 55.3293C42.5459 55.3293 37.9448 56.4332 34.1413 58.6412C34.6762 59.9304 34.3356 61.3362 33.1196 62.8585C34.8117 61.0778 36.9609 59.7967 39.3322 59.1555C42.1275 58.3301 45.0303 57.9256 47.9448 57.9555C50.8207 57.9312 53.6841 58.3356 56.4408 59.1555V59.1555Z" fill="white" stroke="black" stroke-width="0.555429" stroke-miterlimit="10"/>
<path d="M49.543 35.2585V27.7157C49.5786 27.4679 49.5559 27.2152 49.4768 26.9777C49.3977 26.7402 49.2644 26.5243 49.0874 26.3473C48.9103 26.1702 48.6945 26.0369 48.457 25.9579C48.2195 25.8788 47.9668 25.856 47.719 25.8916C47.5205 25.8977 47.3258 25.9469 47.1482 26.0357C46.9706 26.1245 46.8144 26.2508 46.6904 26.4058C46.3763 26.7681 46.2121 27.2366 46.231 27.7157V35.2585H38.6881C38.2368 35.269 37.8068 35.4529 37.4875 35.7721C37.1683 36.0914 36.9843 36.5214 36.9739 36.9728C36.9701 37.1888 37.0143 37.4028 37.1032 37.5996C37.1921 37.7964 37.3236 37.9711 37.4881 38.111C37.8167 38.4078 38.2454 38.5696 38.6881 38.5637H46.231V46.2094C46.2248 46.4205 46.2624 46.6307 46.3415 46.8266C46.4206 47.0225 46.5394 47.1999 46.6904 47.3476C46.8196 47.4926 46.978 47.6086 47.1554 47.6878C47.3327 47.767 47.5248 47.8077 47.719 47.8071C48.9327 47.8071 49.543 47.2722 49.543 46.2094V38.5637H57.1818C57.3982 38.5944 57.6188 38.5744 57.8261 38.5055C58.0335 38.4365 58.222 38.3203 58.3768 38.1661C58.5317 38.0119 58.6487 37.8239 58.7185 37.6168C58.7884 37.4098 58.8093 37.1893 58.7796 36.9728C58.7864 36.5286 58.6218 36.0989 58.3201 35.7728C58.1802 35.6083 58.0056 35.4767 57.8087 35.3878C57.6119 35.2988 57.3978 35.2548 57.1818 35.2585H49.543Z" fill="white" stroke="black" stroke-width="0.555429" stroke-miterlimit="10"/>
<path d="M43.4393 78.3694C44.6942 78.4449 45.7776 78.4861 46.6896 78.4861V75.5169C45.7776 75.5169 44.8245 75.5169 43.8371 75.462C42.8496 75.4072 41.821 75.3249 40.7582 75.1741C40.6965 75.7218 40.5628 76.2591 40.3605 76.7718C40.1685 77.229 39.997 77.6472 39.8462 78.0266C40.9845 78.1774 42.1845 78.294 43.4393 78.3694Z" fill="white" stroke="black" stroke-width="0.555429" stroke-miterlimit="10"/>
<path d="M51.8812 75.462C50.9281 75.462 49.9955 75.5169 49.0835 75.5169V78.4861C49.9955 78.4861 51.0995 78.4449 52.3886 78.3694C53.6778 78.294 54.8641 78.1774 55.927 78.0266C55.7761 77.6494 55.5841 77.2313 55.3578 76.7718C55.1118 76.2705 54.9563 75.7295 54.8984 75.1741C53.8355 75.3455 52.8275 75.4209 51.8812 75.462Z" fill="white" stroke="black" stroke-width="0.555429" stroke-miterlimit="10"/>

<defs>
</defs>
</svg>
