<svg width="96" height="96" viewBox="0 0 97 97" fill="none" xmlns="http://www.w3.org/2000/svg">

<path d="M88.2793 33.6684C91.5479 36.9369 93.1822 41.3096 93.1822 46.7862C93.2021 49.1766 92.7981 51.5516 91.9891 53.801C91.2085 55.9308 90.1748 57.9591 88.9102 59.8422C87.6634 61.6977 86.2495 63.4352 84.6862 65.0331C83.1273 66.6285 81.6256 68.1485 80.1811 69.593L78.6999 71.0741C77.1776 72.5964 76.2839 73.8513 76.0188 74.8387C75.7536 75.8261 75.7742 76.5118 76.0805 76.8958C77.3619 78.3235 78.3498 79.9896 78.9879 81.7988C79.5151 83.1565 79.8788 84.5721 80.0713 86.0159C80.1581 86.7965 80.1188 87.586 79.9548 88.3541C79.8216 88.892 79.5469 89.3845 79.1593 89.7804C78.2473 90.6924 76.6633 91.4536 74.4211 92.0639C71.8912 92.7233 69.3212 93.218 66.7273 93.545C63.8428 93.9244 60.7616 94.2101 57.4839 94.4021C54.2199 94.5873 51.0588 94.6834 48.0211 94.6834C44.9833 94.6834 41.8085 94.5873 38.4965 94.4021C35.1845 94.217 32.0713 93.9221 29.1502 93.545C26.5528 93.2258 23.9801 92.731 21.4496 92.0639C19.2416 91.4513 17.6828 90.6901 16.7731 89.7804C16.4333 89.4702 16.1784 89.0785 16.0325 88.6422C15.9327 88.3478 15.875 88.0407 15.861 87.7301C15.8527 85.7264 16.1986 83.7369 16.8828 81.8535C17.545 80.0257 18.5531 78.3424 19.8519 76.8958C20.2291 76.5118 20.2908 75.8261 20.0233 74.8387C19.7559 73.8513 18.8988 72.5964 17.4588 71.0741L15.861 69.593C14.4119 68.153 12.9102 66.6331 11.3559 65.0331C9.79259 63.4352 8.37869 61.6977 7.13191 59.8422C5.86285 57.9531 4.81159 55.9265 3.9982 53.801C3.14895 51.5607 2.72344 49.182 2.74334 46.7862C2.74334 41.3005 4.39819 36.9278 7.70791 33.6684C11.0176 30.4089 15.4085 28.7793 20.8805 28.7793C22.5032 28.8017 24.1164 29.0321 25.6805 29.465C27.5773 29.9739 29.4159 30.6795 31.1662 31.5702C33.1483 32.5752 35.0231 33.7791 36.7616 35.1634C38.6566 36.6831 40.3421 38.4469 41.7742 40.409C41.2462 38.585 40.7662 36.7816 40.3479 34.9919C39.9528 33.342 39.6868 31.6637 39.5525 29.9725C39.4336 28.5286 39.4912 27.0755 39.7239 25.6456C39.9034 24.4293 40.3739 23.2743 41.0953 22.2788C41.6193 21.3748 42.3931 20.6414 43.3239 20.1667C44.3404 19.6518 45.4415 19.3243 46.5742 19.1999V11.6571H40.9856V8.91419H46.5742V1.37134H49.3171V8.91419H55.2485V11.6571H49.3171V19.1999C51.9045 19.5016 53.8428 20.5279 55.1319 22.2788C55.8492 23.2712 56.3022 24.4298 56.4485 25.6456C56.6389 27.0798 56.6757 28.5304 56.5582 29.9725C56.4239 31.6637 56.1579 33.342 55.7628 34.9919C55.3422 36.7794 54.9056 38.585 54.4531 40.409C55.8851 38.4469 57.5706 36.6831 59.4656 35.1634C61.1773 33.796 63.014 32.593 64.9513 31.5702C66.6699 30.662 68.4876 29.9555 70.3685 29.465C71.9495 29.0347 73.5782 28.8043 75.2165 28.7793C80.6565 28.7793 85.0108 30.4089 88.2793 33.6684Z" fill="black"/>
<path d="M6.67968 52.944C7.40906 54.8579 8.36685 56.6767 9.53225 58.3611C10.714 60.0767 12.0277 61.6977 13.4614 63.2091C14.906 64.7314 16.3528 66.2125 17.802 67.6525L20.0785 69.936C21.4351 68.9572 22.9096 68.1532 24.4671 67.5429C26.2446 66.8748 28.0814 66.3766 29.9528 66.0549C32.3299 65.6444 34.7298 65.3786 37.1391 65.2594C39.8363 65.1085 42.9723 65.0332 46.5471 65.0332C46.5471 59.0904 45.6145 54.0136 43.7494 49.8034C42.1372 45.9621 39.8392 42.4466 36.9677 39.4286C34.5818 36.9191 31.7097 34.9219 28.5265 33.5588C26.1202 32.4673 23.5274 31.8459 20.8877 31.728C16.17 31.728 12.4443 33.0584 9.71055 35.7189C6.97683 38.3795 5.6054 42.0686 5.59626 46.7863C5.57936 48.8877 5.94652 50.9745 6.67968 52.944V52.944Z" fill="white" stroke="black" stroke-width="0.555429" stroke-miterlimit="10"/>
<path d="M39.8677 49.4676C38.5771 46.3734 36.7162 43.5495 34.382 41.1431C32.4342 39.1232 30.103 37.5124 27.5249 36.4048C25.5656 35.5179 23.4542 35.015 21.3054 34.9236C17.4334 34.9236 14.4117 36.007 12.2403 38.1739C10.0689 40.3407 8.98545 43.3259 8.99002 47.1293C8.97911 48.8246 9.28854 50.5066 9.90203 52.087C10.5137 53.6527 11.298 55.1453 12.2403 56.5373C13.1959 57.9518 14.2645 59.2865 15.4357 60.5282C16.6106 61.7808 17.7695 62.9785 18.9123 64.1214L20.6197 65.9453C21.7214 65.1658 22.9085 64.5148 24.158 64.0048C25.6118 63.4304 27.1218 63.0098 28.6632 62.7499C30.5887 62.4235 32.5294 62.1946 34.478 62.0642C36.6449 61.9134 39.1729 61.8379 42.062 61.8379C42.0803 56.9693 41.3489 52.8458 39.8677 49.4676Z" fill="black"/>
<path d="M60.9058 83.7944C64.4852 84.055 67.4475 84.384 69.8201 84.7612C71.6176 85.011 73.3908 85.4124 75.1207 85.9612C75.8989 86.1544 76.6218 86.5252 77.2327 87.0447C77.5234 85.9068 77.4442 84.7059 77.0064 83.6161C75.0987 82.8408 73.1087 82.2864 71.075 81.9636C68.5786 81.5263 66.0608 81.2218 63.5321 81.0515C60.8715 80.8595 58.1904 80.7246 55.4887 80.6469C52.787 80.5692 50.2978 80.5327 48.0212 80.5372C45.7355 80.5372 43.2212 80.5738 40.4784 80.6469C37.7355 80.72 35.0361 80.855 32.3801 81.0515C29.8762 81.2197 27.3834 81.5242 24.9127 81.9636C22.9365 82.2862 21.0069 82.848 19.1664 83.6367C18.906 84.297 18.7331 84.9886 18.6521 85.6938C18.6106 86.1517 18.6314 86.613 18.7138 87.0653C18.9401 86.7567 19.6601 86.3795 20.8807 85.9818C22.6306 85.4381 24.4215 85.0368 26.2361 84.7818C28.595 84.4046 31.5572 84.0961 35.1504 83.815C38.7435 83.5338 43.0155 83.4103 48.035 83.4103C53.0544 83.4103 57.3332 83.527 60.9058 83.7944Z" fill="white" stroke="black" stroke-width="0.555429" stroke-miterlimit="10"/>
<path d="M48.0215 75.0651H57.9438C60.0971 75.0593 62.249 75.1738 64.3895 75.408C66.2519 75.6045 68.0898 75.9881 69.8753 76.5531C71.43 77.0409 72.8808 77.8128 74.1541 78.8297C73.6338 78.3473 73.2609 77.7272 73.0789 77.0414C72.8968 76.3556 72.913 75.6324 73.1255 74.9555C70.0229 73.4536 66.6468 72.5995 63.2033 72.4456C59.4821 72.2125 55.3381 72.1372 50.7713 72.2195H45.2855C40.801 72.1372 36.6752 72.2125 32.9084 72.4456C29.4465 72.5946 26.0515 73.4487 22.9313 74.9555C23.0073 75.542 23.0257 76.1344 22.9861 76.7245C22.8206 77.5346 22.403 78.2716 21.793 78.8297C24.3027 76.9325 27.6101 75.8126 31.7153 75.4698C35.8204 75.1269 40.3438 74.992 45.2855 75.0651H48.0215Z" fill="white" stroke="black" stroke-width="0.555429" stroke-miterlimit="10"/>
<path d="M41.8636 28.0936C41.9264 30.9192 42.3881 33.7217 43.235 36.4181C44.1493 39.5404 45.0636 42.5439 45.9779 45.4285C46.355 46.5736 46.7184 47.6708 47.0613 48.7406C47.4041 49.8103 47.747 50.7977 48.0281 51.8125C48.2544 50.8251 48.5424 49.8034 48.8853 48.7406C49.2281 47.6777 49.571 46.5736 49.9687 45.4285C51.0534 42.4751 51.9849 39.4676 52.7596 36.4181C53.5048 33.7041 53.9079 30.9076 53.9596 28.0936C53.966 27.2517 53.8902 26.4112 53.7333 25.584C53.5938 24.855 53.3218 24.1578 52.931 23.5268C52.0167 22.2285 50.3824 21.5816 48.0281 21.5862C45.8201 21.5862 44.147 22.2331 43.0087 23.5268C42.2374 24.9241 41.8428 26.4978 41.8636 28.0936V28.0936Z" fill="white" stroke="black" stroke-width="0.555429" stroke-miterlimit="10"/>
<path d="M46.7666 36.7475C46.1106 35.0865 45.5407 33.3927 45.0591 31.6731C44.6166 30.2923 44.4993 28.8279 44.7163 27.3943C44.9449 26.1783 45.9711 25.5703 47.7951 25.5703C49.6969 25.5703 50.762 26.1783 50.9906 27.3943C51.2007 28.8281 51.0835 30.291 50.6477 31.6731C50.1566 33.3973 49.5659 35.0917 48.8786 36.7475C48.2567 38.073 47.8892 39.5034 47.7951 40.9646C47.7041 39.5091 47.3559 38.0814 46.7666 36.7475V36.7475Z" fill="black"/>
<path d="M82.4642 63.2092C83.9001 61.6978 85.2161 60.0769 86.4002 58.3611C87.5673 56.6688 88.5424 54.852 89.3076 52.944C90.0804 50.9792 90.4669 48.8838 90.4459 46.7726C90.4459 42.0549 89.0745 38.3658 86.3316 35.7053C83.5888 33.0447 79.8653 31.7144 75.1613 31.7144C72.4826 31.8208 69.8494 32.4423 67.4059 33.5452C64.2082 34.9146 61.3171 36.9104 58.903 39.4149C55.9959 42.4282 53.6587 45.9432 52.0048 49.7897C50.103 54.0137 49.1156 59.0904 49.0425 65.0195C54.7559 64.9572 60.4681 65.2227 66.1511 65.8149C70.5625 66.3498 73.8311 67.7212 75.9568 69.9292L78.2402 67.5361C79.6116 66.1692 81.0196 64.7269 82.4642 63.2092Z" fill="white" stroke="black" stroke-width="0.555429" stroke-miterlimit="10"/>
<path d="M80.2979 60.528C81.4946 59.2941 82.5821 57.9588 83.5482 56.5371C84.488 55.1436 85.2721 53.6513 85.8865 52.0868C86.5 50.5064 86.8094 48.8244 86.7985 47.1291C86.7985 43.3211 85.6968 40.3359 83.4934 38.1736C81.2899 36.0114 78.2476 34.9371 74.3665 34.9508C72.2198 35.0415 70.1106 35.5443 68.1539 36.4319C65.5762 37.5401 63.2451 39.151 61.2968 41.1703C58.9641 43.578 57.1034 46.4015 55.8111 49.4948C54.3299 52.8731 53.5894 56.9874 53.5894 61.8376C59.2899 61.9108 63.6991 62.2924 66.8168 62.9827C69.6501 63.5564 72.3803 64.5552 74.9151 65.9451L76.7391 64.1211C77.9048 62.9828 79.0774 61.7828 80.2979 60.528Z" fill="black"/>

<defs>
</defs>
</svg>
