<svg width="96" height="96" viewBox="0 0 97 97" fill="none" xmlns="http://www.w3.org/2000/svg">

<path d="M42.5633 1.37134L43.4752 2.62625C43.6976 3.03385 43.9644 3.41554 44.2707 3.76447C44.9033 4.5984 45.4762 5.47607 45.985 6.39081C46.5884 7.45138 47.1964 8.62846 47.809 9.92218C48.4042 11.1812 48.7888 12.5295 48.9473 13.9131C55.6468 14.0332 62.189 15.9643 67.8798 19.5016C73.425 22.9987 78.1381 28.1324 82.0193 34.9027C85.9004 41.673 88.8718 50.0365 90.9336 59.993C92.9861 69.9496 94.0124 81.5427 94.0124 94.7725H28.417C28.417 88.8296 29.121 84.1919 30.529 80.8593C31.9362 77.5118 34.3461 74.6828 37.4272 72.7611C40.8221 70.8929 43.5821 68.0539 45.3541 64.6079C47.2192 61.0787 48.5701 56.4593 49.4067 50.7496C47.9867 52.9551 46.0463 54.7777 43.7564 56.0571C42.1205 56.9185 40.4247 57.661 38.6821 58.2788L36.9747 59.0741C35.4903 59.786 34.169 60.7969 33.0936 62.0433C31.6536 63.5656 30.241 65.1222 28.8764 66.7199L27.7313 68.201L26.3598 69.7988C25.1002 71.3642 23.6645 72.7791 22.081 74.0159C20.6752 75.0856 18.6524 75.6136 16.0947 75.6136C14.4722 75.5788 12.8694 75.2513 11.3633 74.6468C9.63139 73.9856 8.01224 73.0604 6.56328 71.904C5.09671 70.7421 3.84368 69.3335 2.8604 67.7417C1.86412 66.1323 1.34791 64.2719 1.37242 62.3793C1.37242 58.425 2.07639 55.1564 3.48439 52.5736C4.86787 50.0176 6.45231 47.5757 8.2227 45.2708L9.01811 44.4754C9.31982 44.016 9.77239 43.3303 10.3895 42.4183C11.0067 41.5063 11.6238 40.5394 12.2752 39.5108C12.9136 38.4933 13.4664 37.4244 13.9278 36.3153C14.3504 35.3637 14.5833 34.339 14.6136 33.2982C14.5255 30.7848 14.8711 28.2749 15.6353 25.8788C16.3465 24.0123 17.3059 22.2502 18.4878 20.64L19.1735 19.6114C19.5507 19.152 19.9141 18.6994 20.257 18.24C20.5599 17.8885 20.7404 17.4481 20.7713 16.9851C20.7713 16.0731 20.7712 15.408 20.7164 14.9897C20.6615 14.5714 20.6204 14.1737 20.545 13.7897C20.375 13.3648 20.2397 12.9266 20.1404 12.4799C20.0065 11.6711 19.9514 10.8512 19.9758 10.0318C19.891 8.4314 20.0835 6.82841 20.545 5.2936C20.7392 4.71134 21.0065 4.15612 21.3404 3.64109L21.9095 2.26966L23.1644 3.18155C23.2398 3.25698 23.6787 3.55875 24.4741 4.0936C25.4434 4.76363 26.3603 5.50633 27.217 6.31531C28.241 7.27074 29.3038 8.37479 30.4055 9.62736C31.5126 10.8867 32.4529 12.2834 33.2033 13.7828C34.3415 13.5565 35.4798 13.3714 36.6318 13.2136C36.7723 11.8057 37.0973 10.4224 37.5987 9.09935C38.03 7.94089 38.5457 6.81566 39.1415 5.73255C39.5743 4.93359 40.0696 4.17002 40.6227 3.44907C41.0821 2.87993 41.3084 2.59879 41.425 2.59879L42.5633 1.37134Z" fill="black"/>
<path d="M10.6295 56.3864C9.74929 57.1688 8.98093 58.0686 8.34607 59.0606C7.67307 60.0131 7.17183 61.076 6.86495 62.2012C6.64095 63.1566 6.71635 63.7464 7.0912 63.9704C7.46835 64.3475 8.05807 64.2172 8.86036 63.5726C9.78592 62.7726 10.5756 61.8277 11.1986 60.7749C11.8192 59.8419 12.2997 58.8232 12.6249 57.7509C12.8855 56.8046 12.8306 56.2149 12.4535 55.9886C11.9941 55.6046 11.3838 55.7349 10.6295 56.3864Z" fill="white" stroke="black" stroke-width="0.555429" stroke-miterlimit="10"/>
<path d="M15.1344 73.0901C15.6486 73.1573 16.171 73.1198 16.6704 72.9803C16.8271 72.0583 17.2218 71.1932 17.8156 70.4707C18.2681 69.7095 18.7276 68.873 19.187 67.961C19.6861 66.8505 19.9208 65.6392 19.8727 64.4226H17.0202C17.049 65.3433 16.8733 66.2591 16.5059 67.1039C16.1854 67.7903 15.8236 68.4566 15.4224 69.0992C15.0382 69.6448 14.6944 70.2177 14.3939 70.8135C14.1023 71.3849 13.9099 72.0016 13.8247 72.6375C14.2473 72.8262 14.6855 72.9777 15.1344 73.0901V73.0901Z" fill="white" stroke="black" stroke-width="0.555429" stroke-miterlimit="10"/>
<path d="M29.1023 29.9791C29.6953 29.7731 30.3058 29.6217 30.9263 29.5266V26.5574C29.5061 26.8851 28.1143 27.3253 26.764 27.8739C25.6557 28.322 24.6327 28.9576 23.74 29.7527C22.8528 30.5797 22.1029 31.5427 21.5183 32.6054C20.8061 33.9064 20.2513 35.2876 19.8657 36.7197H22.6086C22.8372 35.8319 23.2027 34.9851 23.692 34.2099L24.892 32.6123C24.7983 32.8664 24.7586 33.1373 24.7755 33.4077C24.7755 35.5379 25.5366 36.603 27.0589 36.603C27.3425 36.593 27.6186 36.5085 27.8593 36.3581C28.1001 36.2076 28.297 35.9965 28.4303 35.7459C28.8488 35.0406 29.047 34.2264 28.9994 33.4077C28.9994 31.8922 28.6566 30.8979 27.9777 30.4453L29.1023 29.9791Z" fill="white" stroke="black" stroke-width="0.555429" stroke-miterlimit="10"/>
<path d="M35.8296 16.7517C33.7806 16.9775 31.7578 17.3977 29.7884 18.0066C27.837 18.5981 25.9872 19.4838 24.3027 20.633L26.0102 22.9094C27.3749 21.8854 28.9226 21.1313 30.5701 20.6877C32.2975 20.1999 34.0483 19.7994 35.8159 19.4877L35.8296 16.7517Z" fill="white" stroke="black" stroke-width="0.555429" stroke-miterlimit="10"/>
<path d="M48.9468 19.3782C53.0575 19.532 57.0646 20.7106 60.6039 22.8068C64.1129 24.9415 67.175 27.7359 69.621 31.0354C72.3398 34.71 74.5452 38.7379 76.1765 43.0079C78.0231 47.7856 79.4726 52.7074 80.5102 57.7233C81.6378 63.1282 82.4552 68.5932 82.9582 74.0914C83.493 79.7554 83.7993 85.4376 83.8771 91.1382H88.7799C88.7802 85.2124 88.4368 79.2917 87.7513 73.4057C87.0914 67.6633 86.063 61.9692 84.6725 56.3588C83.3762 51.0997 81.6209 45.9647 79.4267 41.0126C77.4555 36.5247 74.8859 32.3243 71.7879 28.5257C68.9811 25.0905 65.558 22.2091 61.6942 20.0296C57.786 17.9023 53.423 16.7476 48.9742 16.6628L48.9468 19.3782Z" fill="white" stroke="black" stroke-width="0.555429" stroke-miterlimit="10"/>
<path d="M53.7403 49.0283C55.3073 45.0331 56.0805 40.7708 56.0168 36.4797H53.274C53.3144 38.9943 53.0473 41.5044 52.4785 43.9541C52.0684 45.7446 51.3739 47.4577 50.4214 49.0283H53.7403Z" fill="white" stroke="black" stroke-width="0.555429" stroke-miterlimit="10"/>

<defs>
</defs>
</svg>
