<svg width="96" height="96" viewBox="0 0 89 89" fill="none" xmlns="http://www.w3.org/2000/svg">

<path d="M38.1807 12.055C38.7124 10.775 39.4879 9.61048 40.4641 8.62646C41.4308 7.66104 42.5707 6.88649 43.8242 6.34315C45.1567 5.76509 46.5957 5.47308 48.0481 5.48601C49.4795 5.48499 50.8959 5.77668 52.2104 6.34315C53.4984 6.88678 54.6765 7.66045 55.687 8.62646C56.6913 9.59858 57.4869 10.7652 58.0253 12.055C58.5925 13.3693 58.8842 14.7859 58.8824 16.2174C58.8919 17.8468 58.4985 19.4533 57.7373 20.894C56.9722 22.3415 55.9254 23.6215 54.6584 24.6586C58.4846 25.6237 61.9264 27.7307 64.5259 30.6996C66.9257 33.4033 68.2441 36.8971 68.2287 40.5122C68.2466 43.4629 67.3297 46.3434 65.6093 48.7408C63.7865 51.2805 61.4054 53.3684 58.6493 54.8437C61.7361 55.6362 64.7072 56.8255 67.4882 58.3819C70.0554 59.7984 72.3853 61.6077 74.3933 63.7443C76.2431 65.72 77.7455 67.9942 78.8367 70.471C79.8985 72.8773 80.4428 75.4799 80.4344 78.11V90.3157H15.7716V78.11C15.7632 75.4799 16.3076 72.8773 17.3693 70.471C18.4672 67.9831 19.9919 65.7067 21.8744 63.7443C23.906 61.6136 26.2506 59.8054 28.8276 58.3819C31.6091 56.8267 34.58 55.6374 37.6664 54.8437C34.8182 53.4122 32.3541 51.3195 30.4801 48.7408C28.7598 46.3434 27.8428 43.4629 27.8607 40.5122C27.8493 36.8865 29.1918 33.3872 31.6253 30.6996C34.2531 27.7376 37.7098 25.6331 41.5476 24.6586C40.2785 23.6217 39.2294 22.3418 38.4619 20.894C37.706 19.4516 37.3151 17.8458 37.3236 16.2174C37.3218 14.7859 37.6135 13.3693 38.1807 12.055V12.055Z" fill="black"/>

<defs>
</defs>
</svg>
