<svg width="100" height="96" viewBox="0 0 100 96" fill="none" xmlns="http://www.w3.org/2000/svg">
<path d="M97.7987 15.9787C98.4466 16.5962 98.9587 17.342 99.3023 18.1685C99.6459 18.9949 99.8134 19.8839 99.7941 20.7787C99.7343 22.5147 99.018 24.1633 97.7897 25.3916C96.5615 26.6198 94.9129 27.336 93.1769 27.3958H92.9506C92.4935 29.1467 91.8855 31.4096 91.1267 34.1845C90.3678 36.9593 89.5495 39.9055 88.6718 43.0233C87.8032 46.1455 86.9095 49.2999 85.9907 52.4862C85.0718 55.6724 84.217 58.6005 83.4261 61.2702C82.6307 63.9308 81.945 66.1731 81.369 67.9971C81.08 69.1007 80.6779 70.1715 80.169 71.1925C78.7458 73.2404 77.9521 75.6594 77.8855 78.1524C77.8679 78.7464 78.005 79.3348 78.2833 79.8598C78.5507 80.3124 78.873 80.8131 79.257 81.3411C79.8501 82.1252 80.3646 82.9657 80.7929 83.8507C81.3401 85.1074 81.5934 86.4723 81.5335 87.8416C81.5335 88.9799 80.8684 89.9307 79.5381 90.6941C77.9429 91.5548 76.2348 92.1873 74.4638 92.573C72.2053 93.1026 69.9148 93.4851 67.6067 93.7181C65.097 93.9786 62.6627 94.1913 60.3107 94.3422C57.9587 94.493 55.8261 94.589 53.9198 94.6301C52.0135 94.6713 50.6146 94.685 49.7026 94.685C48.7906 94.685 47.4946 94.685 45.5884 94.6301C43.6821 94.5753 41.5769 94.5135 39.2592 94.4038C36.9415 94.2941 34.5278 94.0747 32.0181 93.773C29.7333 93.5091 27.4663 93.1083 25.2295 92.573C23.4803 92.1797 21.7936 91.5475 20.2169 90.6941C18.8866 89.9353 18.2215 88.9845 18.2215 87.8416C18.1616 86.4723 18.4149 85.1074 18.9621 83.8507C19.385 82.9853 19.8613 82.1472 20.3884 81.3411C20.7914 80.8794 21.1539 80.3837 21.4718 79.8598C21.7501 79.3348 21.8872 78.7464 21.8695 78.1524C21.8169 75.6396 20.9801 73.2063 19.4764 71.1925L19.0718 70.3971C18.6895 69.4489 18.3666 68.4778 18.105 67.4895C17.6478 65.9261 16.9621 63.6061 16.0478 60.5296C15.1335 57.453 13.9175 53.1764 12.3998 47.6999L8.43638 32.9433C7.98381 31.5719 7.64094 30.4542 7.41465 29.5834C7.18837 28.7125 6.99637 27.9651 6.83866 27.3548H6.61238C5.29429 27.347 4.00821 26.9478 2.9174 26.2079C1.82659 25.4679 0.980227 24.4205 0.485755 23.1986C-0.00871799 21.9768 -0.129005 20.6355 0.140156 19.3452C0.409317 18.0548 1.05579 16.8735 1.99752 15.9513C2.5982 15.3361 3.31603 14.8473 4.10863 14.5141C4.90123 14.1808 5.75256 14.0096 6.61238 14.0106C7.49066 14.0017 8.36182 14.1689 9.17445 14.5022C9.98709 14.8355 10.7247 15.3282 11.3438 15.9513C11.994 16.5673 12.5081 17.3126 12.8529 18.1393C13.1978 18.966 13.3658 19.8558 13.3461 20.7513C13.3704 21.9736 13.0107 23.1728 12.3175 24.1798C11.6347 25.168 10.7368 25.9886 9.69123 26.5798L25.6615 52.5821V17.1101C24.1858 16.7607 22.8642 15.9399 21.8969 14.7719C20.9144 13.6102 20.3879 12.1307 20.4158 10.6095C20.4056 9.73168 20.5715 8.86081 20.9036 8.04815C21.2357 7.23549 21.7274 6.4976 22.3495 5.87817C23.2932 4.94297 24.4915 4.30658 25.7948 4.04837C27.098 3.79017 28.4485 3.92163 29.6774 4.42639C30.9064 4.93114 31.9594 5.78681 32.705 6.88649C33.4505 7.98617 33.8556 9.28102 33.8695 10.6095C33.8864 12.0862 33.3813 13.5216 32.4432 14.6622C31.5648 15.794 30.3461 16.6136 28.9667 17.0004L41.0558 50.9845L48.3518 14.4908C46.8913 14.1462 45.5878 13.323 44.6489 12.1524C43.7109 11.0118 43.2058 9.57659 43.2227 8.09988C43.2122 7.22138 43.3786 6.34967 43.712 5.53682C44.0454 4.72397 44.5389 3.98667 45.1632 3.36852C45.7431 2.73754 46.448 2.23417 47.2331 1.89062C48.0182 1.54706 48.8663 1.37076 49.7232 1.37298C50.6178 1.35472 51.507 1.51529 52.3386 1.84525C53.1703 2.1752 53.9276 2.66796 54.5663 3.29452C55.205 3.92109 55.7122 4.66879 56.0581 5.49396C56.4039 6.31914 56.5815 7.20516 56.5804 8.09988C56.5973 9.57659 56.0921 11.0118 55.1541 12.1524C54.2452 13.3047 52.9826 14.1264 51.5609 14.4908L58.7472 50.9845L70.8364 17.0004C69.4569 16.6136 68.2382 15.794 67.3598 14.6622C66.4217 13.5216 65.9167 12.0862 65.9335 10.6095C65.9254 9.72642 66.0983 8.85101 66.4415 8.03727C66.7846 7.22352 67.2909 6.48875 67.9289 5.87817C68.558 5.23221 69.3126 4.72186 70.1464 4.37867C70.9802 4.03549 71.8754 3.86681 72.7769 3.8828C73.6524 3.87149 74.5206 4.0431 75.3259 4.38671C76.1312 4.73032 76.8559 5.23831 77.4535 5.87817C78.0756 6.4976 78.5673 7.23549 78.8994 8.04815C79.2315 8.86081 79.3974 9.73168 79.3872 10.6095C79.4151 12.1307 78.8886 13.6102 77.9061 14.7719C76.9702 15.92 75.6921 16.7391 74.2581 17.1101V52.5821L90.1118 26.5798C88.9884 26.0894 88.0392 25.2713 87.3883 24.2326C86.7375 23.1939 86.4153 21.983 86.4638 20.7581C86.4457 19.4356 86.8222 18.1377 87.5454 17.0302C88.2685 15.9228 89.3054 15.0561 90.5235 14.5408C91.7417 14.0256 93.0858 13.8853 94.3841 14.1377C95.6825 14.3902 96.876 15.024 97.8124 15.9581L97.7987 15.9787Z" fill="black"/>
<path d="M57.877 66.447C60.7296 66.5658 63.429 66.7944 65.9753 67.1327C68.3185 67.4236 70.6284 67.9379 72.8736 68.6687C74.5905 69.1511 76.16 70.0536 77.4405 71.2949L77.7833 70.719C77.8869 70.4752 77.9762 70.2256 78.0507 69.9715C78.1673 69.6355 78.2976 69.1967 78.4553 68.6618C76.4759 66.8333 73.1662 65.5029 68.5262 64.6709C63.8862 63.8389 57.6142 63.4206 49.7102 63.416C41.9387 63.416 35.7673 63.8344 31.1959 64.6709C26.6245 65.5075 23.2987 66.8378 21.2188 68.6618C21.507 69.2457 21.7367 69.8566 21.9045 70.4858C22.0644 70.7731 22.2553 71.0421 22.4736 71.288C23.6953 70.0302 25.2322 69.1233 26.9239 68.6618C29.1691 67.9311 31.479 67.4167 33.8222 67.1258C36.3685 66.783 39.029 66.5544 41.8039 66.4401C44.5788 66.3258 47.221 66.2687 49.7308 66.2687C52.3136 66.2733 55.029 66.3327 57.877 66.447Z" fill="white" stroke="black" stroke-width="0.555429" stroke-miterlimit="10"/>
<path d="M70.9398 83.2125C68.1969 82.7919 65.4404 82.4672 62.6701 82.2386C59.8929 82.0124 57.3078 81.8753 54.9147 81.841C52.5215 81.8068 50.8004 81.7861 49.7238 81.7861C48.6472 81.7861 47.0838 81.7862 44.7661 81.841C42.4484 81.8959 39.8975 82.0124 37.1204 82.2386C34.3432 82.4649 31.5935 82.7942 28.8918 83.2125C26.5437 83.523 24.2415 84.1146 22.0347 84.9746C21.44 86.0552 21.162 87.2816 21.2324 88.513C21.6895 87.8273 24.2564 86.9906 28.9329 86.0032C33.6095 85.0158 40.5466 84.5221 49.7444 84.5221C59.0975 84.5221 66.1306 85.0158 70.8438 86.0032C75.5546 86.9906 78.1466 87.8273 78.5992 88.513C78.668 87.2826 78.3926 86.0572 77.8038 84.9746C75.5945 84.1149 73.29 83.5234 70.9398 83.2125Z" fill="white" stroke="black" stroke-width="0.555429" stroke-miterlimit="10"/>
<path d="M65.406 75.8549C69.5478 76.5406 72.7981 77.7565 75.1569 79.5028V78.8171C75.1569 78.4399 75.1569 78.0354 75.2117 77.6239C75.2666 77.2125 75.3078 76.7669 75.39 76.3074C72.7249 74.5611 69.3215 73.4022 65.1797 72.8308C60.1758 72.2101 55.1361 71.9237 50.094 71.9737C44.9493 71.9199 39.8067 72.2062 34.6998 72.8308C30.5169 73.3977 27.0883 74.5566 24.4141 76.3074C24.4895 76.8423 24.5443 77.2949 24.5855 77.6789C24.6266 78.0629 24.6403 78.4399 24.6403 78.8171V79.5028C26.9992 77.7519 30.2883 76.5361 34.5078 75.8549C39.6613 75.104 44.866 74.7601 50.0735 74.8263C55.2036 74.7594 60.3308 75.1034 65.406 75.8549V75.8549Z" fill="white" stroke="black" stroke-width="0.555429" stroke-miterlimit="10"/>
</svg>
