<svg width="96" height="96" viewBox="0 0 90 90" fill="none" xmlns="http://www.w3.org/2000/svg">

<path d="M84.3087 79.968V90.8023H11.6572V79.968H18.6172C18.6172 74.0251 18.9967 70.6995 19.7555 69.991L22.3201 67.536C23.2755 66.6218 24.1898 65.7281 25.0629 64.855C25.6139 64.3395 26.1293 63.7873 26.6058 63.2023V31.3852C26.4549 31.2275 25.9201 30.6995 25.0629 29.8423C24.2058 28.9852 23.2595 28.0595 22.2721 27.0995C21.2847 26.1395 20.0298 24.912 18.5075 23.3897V4.80005H31.8447V12.7886H40.4024V4.80005H55.4881V12.7886H64.0047V4.80005H77.4652C77.4652 17.1978 77.0858 23.7761 76.3269 24.5349C75.5658 25.2961 74.6881 26.1463 73.7007 27.0995C72.7132 28.0526 71.8012 28.9646 70.9578 29.8423L69.4767 31.3852V63.2023C69.9366 63.7825 70.4312 64.3344 70.9578 64.855C71.7944 65.7327 72.6675 66.6263 73.5772 67.536C74.4869 68.4458 75.7052 69.6251 77.2321 71.0743V79.9886L84.3087 79.968Z" fill="black"/>
<path d="M73.358 23.3964V21.689H22.4985V23.3964L24.206 24.8844H71.6505L73.358 23.3964Z" fill="white" stroke="black" stroke-width="0.555429" stroke-miterlimit="10"/>
<path d="M73.3648 76.8892H22.4985V80.0846H73.3648V76.8892Z" fill="white" stroke="black" stroke-width="0.555429" stroke-miterlimit="10"/>
<path d="M73.5912 70.9576L71.7673 69.3599H24.3227L22.6084 70.9576V72.5553H73.5912V70.9576Z" fill="white" stroke="black" stroke-width="0.555429" stroke-miterlimit="10"/>
<path d="M66.1782 31.4949H29.5679V34.8H66.1782V31.4949Z" fill="white" stroke="black" stroke-width="0.555429" stroke-miterlimit="10"/>
<path d="M66.1782 60.0071H29.5679V63.2025H66.1782V60.0071Z" fill="white" stroke="black" stroke-width="0.555429" stroke-miterlimit="10"/>

<defs>
</defs>
</svg>
