<svg width="96" height="96" viewBox="0 0 88 88" fill="none" xmlns="http://www.w3.org/2000/svg">

<path d="M33.1044 59.8516L33.4551 59.5022L33.8058 59.1467C33.8184 58.6129 33.7153 58.0826 33.5035 57.5921C33.0604 56.5305 32.3298 55.6127 31.3933 54.941C27.6364 51.8682 25.76 47.4496 25.7641 41.6854C25.7346 39.893 26.0935 38.1153 26.8161 36.4736C27.4818 35.0012 28.362 33.6348 29.4282 32.4186C30.4093 31.3011 31.5241 30.3075 32.7477 29.4601C33.7603 28.7562 34.8188 28.1202 35.916 27.5562C38.0605 26.3511 39.8381 25.2987 41.2489 24.3989C42.446 23.6751 43.5299 22.7797 44.4656 21.7417C43.4437 21.1972 42.5906 20.3847 41.9987 19.3919C41.3801 18.3325 41.0526 17.1293 41.0494 15.9035C41.0463 14.6778 41.3675 13.4729 41.9807 12.4103C42.5939 11.3478 43.4774 10.4651 44.5421 9.85134C45.6068 9.23756 46.8151 8.91431 48.0451 8.91431C49.2752 8.91431 50.4835 9.23756 51.5482 9.85134C52.6129 10.4651 53.4964 11.3478 54.1096 12.4103C54.7228 13.4729 55.044 14.6778 55.0408 15.9035C55.0377 17.1293 54.7102 18.3325 54.0916 19.3919C53.4811 20.4042 52.5911 21.2199 51.5279 21.7417C52.5046 22.7579 53.6033 23.6504 54.799 24.3989C56.1695 25.3027 57.9633 26.3551 60.1803 27.5562C61.2756 28.1203 62.332 28.7563 63.3426 29.4601C64.5662 30.3075 65.681 31.3011 66.6621 32.4186C67.7302 33.6346 68.6124 35.001 69.2802 36.4736C70.0028 38.1153 70.3617 39.893 70.3322 41.6854C70.3322 47.3653 68.4558 51.7838 64.703 54.941C63.752 55.634 63.0046 56.5682 62.5384 57.6464C62.3425 58.0943 62.2083 58.5666 62.1394 59.0503C62.2048 59.1502 62.2915 59.2345 62.3933 59.2973C62.5337 59.4052 62.667 59.5219 62.7923 59.6468C64.6667 61.6552 65.606 63.728 65.61 65.8649V68.1665C65.61 69.3073 64.7715 70.177 63.0947 70.7755C61.2962 71.4055 59.4446 71.8733 57.5622 72.1734C57.5952 72.7584 57.8061 73.3194 58.1668 73.7821C58.4682 74.1556 58.8452 74.4615 59.2734 74.6799C59.6839 74.8841 60.1249 75.0204 60.5794 75.0835C61.0119 75.1459 61.4483 75.1783 61.8854 75.18L63.8988 75.1318C65.2773 75.0739 66.6363 74.7868 67.9197 74.2822C69.1997 73.767 70.5102 73.3302 71.8438 72.9747C72.987 72.6283 74.1692 72.4259 75.3629 72.3721C77.6812 72.3564 79.9827 72.7648 82.153 73.5772C84.2773 74.3869 86.236 75.5752 87.9334 77.0839L89.1426 78.289L83.2051 90.5143L80.8953 88.4115C78.3704 86.036 75.0135 84.7386 71.5415 84.7963C70.7402 84.867 69.9481 85.0184 69.1774 85.2482C68.0372 85.5389 66.913 85.8889 65.8095 86.2966C64.2158 86.9958 62.515 87.4216 60.7789 87.5559C59.8448 87.6521 58.9042 87.6681 57.9673 87.604C56.2064 87.5345 54.4783 87.1082 52.8883 86.3509C51.0547 85.5655 49.3961 84.4247 48.0089 82.9948C46.7129 84.545 45.0507 85.75 43.1717 86.5015C41.588 87.2213 39.8801 87.6305 38.1411 87.7066C37.8086 87.7066 36.8532 87.6764 35.2751 87.6101C33.5253 87.5016 31.8072 87.094 30.1961 86.405C29.1151 85.9798 28.006 85.6295 26.8766 85.3566C26.0872 85.1275 25.2771 84.9762 24.4581 84.9047C21.034 84.8298 17.7155 86.0878 15.207 88.4115L12.7885 90.5143L6.85693 78.289L8.16294 77.0839C9.84739 75.5823 11.7889 74.3945 13.8949 73.5772C16.017 72.7651 18.2729 72.3564 20.546 72.3721C21.7796 72.4212 23.0005 72.6403 24.1739 73.0229C25.6492 73.4567 26.9572 73.8745 28.098 74.2762C29.3843 74.846 30.7669 75.1688 32.1733 75.2281L34.3319 75.2764C34.6866 75.2673 35.0402 75.2332 35.39 75.174C35.8418 75.1027 36.2814 74.9687 36.696 74.7762C37.1563 74.5596 37.5677 74.2521 37.9053 73.8724C38.3146 73.3871 38.5768 72.7957 38.6611 72.1674C36.7275 71.8862 34.826 71.418 32.9835 70.7695C31.3389 70.1669 30.5165 69.2972 30.5165 68.1605V65.8589C30.5628 63.5974 31.491 61.4426 33.1044 59.8516V59.8516Z" fill="black"/>
<path d="M47.0111 72.7759C46.4065 72.7759 45.4995 72.7758 44.2963 72.7276C43.1862 72.6992 42.0783 72.6147 40.9768 72.4746C41.02 73.4085 40.8288 74.3383 40.4205 75.18C40.089 75.8103 39.5833 76.333 38.9633 76.6863C38.3049 77.0371 37.5913 77.2734 36.8531 77.3852C36.0217 77.5219 35.1805 77.5904 34.3378 77.5901H33.2253C32.3155 77.5688 31.4084 77.4841 30.5105 77.3369C29.409 77.1781 28.3296 76.8931 27.2938 76.4874C26.153 76.0857 24.9296 75.7181 23.6236 75.3847C22.6253 75.0963 21.5963 74.9265 20.558 74.8787C18.6769 74.8788 16.8083 75.1841 15.0255 75.7825C13.1059 76.4463 11.3308 77.4688 9.79541 78.7951L13.5139 86.5134C16.4966 83.7584 20.4092 82.2208 24.4761 82.2054C25.4819 82.2562 26.4783 82.424 27.4449 82.7055C28.6645 83.0113 29.8575 83.4143 31.0123 83.9106C32.5344 84.5969 34.1792 84.9717 35.8494 85.0131H38.1592C39.0983 84.9913 40.0301 84.8413 40.9284 84.5672C41.9635 84.2659 42.9463 83.8087 43.8428 83.2115C44.7588 82.5986 45.5303 81.7948 46.1042 80.8557C46.7291 79.8118 47.0436 78.6124 47.0111 77.3972V72.7759Z" fill="white" stroke="black" stroke-width="0.555429" stroke-miterlimit="10"/>
<path d="M34.9855 55.4412C35.4419 56.0714 35.7667 56.7865 35.9408 57.5441C37.7006 56.578 39.5757 55.837 41.5216 55.3387C43.6406 54.7942 45.8213 54.5249 48.0095 54.5375C50.2516 54.5223 52.4866 54.7915 54.6605 55.3387C56.5879 55.8093 58.4257 56.5887 60.1023 57.6464C60.322 56.8646 60.6604 56.121 61.106 55.4412C61.6824 54.5932 62.3978 53.8476 63.2223 53.2359C66.3745 50.5607 67.9485 46.7186 67.9445 41.7096C67.9715 40.1759 67.6641 38.6547 67.0436 37.251C66.4654 35.9917 65.7011 34.8258 64.7762 33.7923C63.9204 32.836 62.959 31.979 61.9102 31.2376C61.0068 30.601 60.0681 30.0157 59.0986 29.4843C56.952 28.4194 54.8686 27.2325 52.8587 25.9294C51.48 25.0461 50.2548 23.945 49.2308 22.6697C49.028 22.6695 48.8257 22.6877 48.6262 22.724C48.4261 22.755 48.224 22.7711 48.0215 22.7722C47.8533 22.768 47.6856 22.7519 47.5197 22.724C47.3202 22.688 47.1178 22.6698 46.9151 22.6697C45.8911 23.945 44.6658 25.0461 43.2872 25.9294C41.2795 27.2327 39.1981 28.4195 37.0534 29.4843C36.2472 29.9543 35.3261 30.5387 34.2901 31.2376C33.2185 31.9684 32.2398 32.8263 31.3758 33.7923C30.445 34.8314 29.6655 35.9957 29.06 37.251C28.404 38.645 28.0772 40.1702 28.1046 41.7096C28.1046 46.7226 29.717 50.5647 32.9418 53.2359C33.7202 53.8753 34.4077 54.6172 34.9855 55.4412V55.4412Z" fill="white" stroke="black" stroke-width="0.555429" stroke-miterlimit="10"/>
<path d="M32.9233 65.4611C34.216 64.9328 35.5682 64.5627 36.9502 64.3586C38.5586 64.0935 40.1125 63.8765 41.6241 63.7078C43.1358 63.5391 44.4901 63.4427 45.6934 63.4065C46.8966 63.3704 47.6766 63.3583 48.0092 63.3583C48.3417 63.3583 49.1156 63.3583 50.3249 63.4065C51.5342 63.4547 52.8886 63.5391 54.3942 63.7078C55.8997 63.8765 57.4597 64.0935 59.0741 64.3586C60.4853 64.5734 61.8682 64.9431 63.1978 65.4611C63.1978 63.9909 62.5266 62.585 61.1843 61.2434C59.5592 59.7833 57.637 58.6901 55.549 58.0381C53.1196 57.2249 50.5719 56.8177 48.0092 56.833C45.4245 56.8162 42.8561 57.24 40.4149 58.0862C38.2756 58.7746 36.33 59.9577 34.7373 61.5386C33.675 62.5834 33.0302 63.9776 32.9233 65.4611V65.4611Z" fill="white" stroke="black" stroke-width="0.555429" stroke-miterlimit="10"/>
<path d="M37.5002 66.6123C34.9204 67.1867 33.429 67.7047 33.0259 68.1667C33.429 68.7049 34.9204 69.2393 37.5002 69.7695C44.465 70.838 51.5528 70.838 58.5176 69.7695C61.0974 69.2393 62.6574 68.7049 63.1975 68.1667C62.6574 67.7007 61.0974 67.1827 58.5176 66.6123C51.5579 65.4795 44.4599 65.4795 37.5002 66.6123V66.6123Z" fill="white" stroke="black" stroke-width="0.555429" stroke-miterlimit="10"/>
<path d="M47.0053 41.4083H39.9673V39.1066H47.0053V32.0872H49.2183V39.1066H56.2563V41.4083H49.2183V48.4277H47.0053V41.4083Z" fill="black"/>
<path d="M44.8411 12.499C43.9657 13.3984 43.4761 14.6022 43.4761 15.8551C43.4761 17.1081 43.9657 18.3117 44.8411 19.2111C45.2481 19.641 45.7392 19.9832 46.2842 20.2164C46.8292 20.4496 47.4164 20.5688 48.0095 20.5668C49.2635 20.5668 50.4661 20.0705 51.3528 19.1868C52.2396 18.3032 52.7377 17.1048 52.7377 15.8551C52.7377 14.6055 52.2396 13.4069 51.3528 12.5233C50.4661 11.6397 49.2635 11.1433 48.0095 11.1433C47.4164 11.1413 46.8292 11.2605 46.2842 11.4937C45.7392 11.7269 45.2481 12.0691 44.8411 12.499V12.499Z" fill="white" stroke="black" stroke-width="0.555429" stroke-miterlimit="10"/>
<path d="M49.2189 77.3972C49.1845 78.6118 49.4969 79.8111 50.1198 80.8557C50.6866 81.7846 51.44 82.5866 52.3327 83.2115C53.1943 83.8087 54.1453 84.2663 55.1504 84.5672C55.8506 84.8046 56.5777 84.9544 57.315 85.0131H60.181C61.8513 84.9724 63.4963 84.5975 65.0182 83.9106C66.1916 83.4088 67.4051 83.0057 68.646 82.7055C69.5961 82.4327 70.5734 82.265 71.5604 82.2054C73.4991 82.2037 75.4231 82.5422 77.244 83.2055C79.2066 83.9478 81.001 85.0723 82.5225 86.5134L86.3439 78.7951C84.7955 77.4614 83.0032 76.4384 81.0653 75.7825C79.2311 75.1817 77.3124 74.8766 75.3817 74.8787C74.4103 74.9393 73.4489 75.109 72.5157 75.3847C71.3051 75.6865 70.1122 76.0547 68.9423 76.4874C67.4023 77.111 65.766 77.4657 64.1051 77.5358L61.7954 77.5901C60.985 77.5877 60.1761 77.5191 59.3768 77.3852C58.6245 77.2685 57.8957 77.0326 57.2183 76.6863C56.5693 76.3365 56.0295 75.8154 55.6583 75.18C55.2179 74.3481 55.0092 73.414 55.0536 72.4746C53.9848 72.6173 52.909 72.7018 51.8309 72.7276C50.6216 72.7578 49.7509 72.7759 49.2189 72.7759V77.3972Z" fill="white" stroke="black" stroke-width="0.555429" stroke-miterlimit="10"/>

<defs>
</defs>
</svg>
