<svg width="96" height="96" viewBox="0 0 97 97" fill="none" xmlns="http://www.w3.org/2000/svg">

<path d="M88.2795 33.6823C91.5481 36.9508 93.1824 41.3233 93.1824 46.7999C93.1957 49.1518 92.7918 51.4875 91.9892 53.6982C91.2064 55.8283 90.1704 57.8566 88.9035 59.7394C87.6489 61.6043 86.2381 63.3591 84.6864 64.9851C83.1321 66.6216 81.6304 68.1622 80.1813 69.6068L78.5835 71.088C77.0681 72.6103 76.1698 73.8309 75.9024 74.8526C75.6349 75.8743 75.6967 76.5257 76.0807 76.9097C77.3837 78.3004 78.3749 79.9533 78.9881 81.7578C79.5276 83.1238 79.8537 84.5646 79.955 86.0298C79.965 86.8109 79.9261 87.5918 79.8384 88.368C79.7793 88.9077 79.5373 89.4111 79.1527 89.7943C78.2384 90.7086 76.6612 91.4696 74.4212 92.0776C71.8913 92.737 69.3214 93.2319 66.7275 93.5589C63.8338 93.9337 60.7527 94.2195 57.4841 94.416C54.2155 94.6126 51.0612 94.7063 48.0212 94.6971C44.9767 94.6971 41.8018 94.6035 38.4967 94.416C35.1915 94.2286 32.0738 93.9429 29.1435 93.5589C26.5485 93.2391 23.9781 92.7441 21.4498 92.0776C19.2418 91.4651 17.6829 90.704 16.7732 89.7943C16.4335 89.4841 16.1786 89.0922 16.0326 88.6559C15.9255 88.3233 15.8677 87.9768 15.8612 87.6274C15.86 85.6622 16.2059 83.7123 16.8829 81.8674C17.5452 80.0396 18.5532 78.3563 19.8521 76.9097C20.0896 76.2446 20.0896 75.5177 19.8521 74.8526C19.6189 73.8652 18.7892 72.6103 17.3424 71.088L15.8612 69.6068C14.3389 68.1668 12.8167 66.6468 11.2944 65.0468C9.75715 63.4277 8.34723 61.6922 7.07722 59.8559C5.77671 57.9857 4.72341 55.9552 3.9435 53.8149C3.12825 51.5669 2.72185 49.1911 2.7435 46.7999C2.7435 41.3142 4.3778 36.9417 7.64637 33.6823C10.9149 30.4228 15.3241 28.7886 20.8738 28.7795C22.4965 28.8019 24.1097 29.0324 25.6738 29.4652C27.55 29.9698 29.3663 30.6755 31.0909 31.5702C33.0485 32.5843 34.9019 33.7878 36.6247 35.1634C38.5369 36.7017 40.2588 38.4628 41.7538 40.4092C40.6686 37.0059 39.8861 33.5135 39.4155 29.9726C38.995 26.6675 39.5092 24.0252 40.9584 22.0457C42.019 20.528 43.8818 19.5793 46.5469 19.1999V11.6571H40.9584V8.91419H46.5469V1.37134H49.2898V8.91419H55.1047V11.6571H49.2898V19.1999C51.8726 19.5016 53.811 20.5281 55.1047 22.2789C55.8154 23.2512 56.2662 24.3887 56.4144 25.5839C56.6085 27.0024 56.6292 28.4393 56.4761 29.8628C56.3016 31.5366 55.9966 33.1942 55.5641 34.8205C55.1069 36.5714 54.611 38.3588 54.0761 40.1828C55.6042 38.2779 57.3459 36.5546 59.267 35.0468C61.0067 33.6854 62.879 32.5023 64.8555 31.5155C66.5875 30.6494 68.4024 29.9602 70.2727 29.4583C71.8368 29.0255 73.4499 28.795 75.0727 28.7726C80.6087 28.7955 85.011 30.432 88.2795 33.6823Z" fill="black"/>
<path d="M6.68029 52.9849C7.40854 54.8981 8.36393 56.7169 9.52597 58.4022C10.7122 60.1163 12.0281 61.7371 13.462 63.2502C14.9065 64.7725 16.3511 66.2536 17.7957 67.6936L18.2551 68.153C20.3077 65.945 23.7362 64.5004 28.5408 63.8192C34.4992 63.0595 40.4999 62.6794 46.5065 62.681C46.3465 57.1953 45.3203 52.4981 43.4277 48.5896C41.7521 45.0123 39.4534 41.7616 36.6391 38.9896C34.2658 36.6403 31.4567 34.7769 28.3694 33.5038C25.9824 32.472 23.425 31.8908 20.8265 31.7896C16.0402 31.7896 12.2963 33.1199 9.59457 35.7805C6.89286 38.441 5.54427 42.1301 5.54884 46.8478C5.54638 48.9456 5.92993 51.0259 6.68029 52.9849V52.9849Z" fill="white" stroke="black" stroke-width="0.555429" stroke-miterlimit="10"/>
<path d="M69.4084 90.3909C74.1536 89.4035 76.757 88.4892 77.2187 87.648C76.5478 87.1545 75.7926 86.7875 74.9901 86.5647C73.2624 86.0217 71.4879 85.6405 69.6895 85.4263C67.3307 85.0835 64.3844 84.7977 60.8507 84.5692C57.317 84.3406 53.0404 84.2263 48.021 84.2263C42.9284 84.2263 38.5856 84.3589 34.9924 84.6241C31.3993 84.8892 28.4278 85.2137 26.0781 85.5977C24.2839 85.8492 22.5102 86.2297 20.7707 86.7361C19.9935 86.902 19.2685 87.2551 18.6587 87.7647C19.1935 88.519 21.8358 89.392 26.5855 90.384C31.3353 91.376 38.4644 91.8698 47.973 91.8653C57.509 91.8698 64.6541 91.3783 69.4084 90.3909Z" fill="white" stroke="black" stroke-width="0.555429" stroke-miterlimit="10"/>
<path d="M75.7379 81.4422C75.238 80.5395 74.6646 79.6795 74.0236 78.8708C71.5916 76.9691 68.3596 75.8675 64.3276 75.5657C60.2956 75.264 55.8111 75.1108 50.8739 75.1062H45.2854C40.2568 75.1062 35.7128 75.2595 31.6534 75.5657C27.5939 75.872 24.3071 76.9736 21.7928 78.8708C21.1816 79.7081 20.6272 80.5856 20.1334 81.4971C19.6364 82.4187 19.3089 83.4221 19.1665 84.4594C21.0134 83.6799 22.9473 83.125 24.9265 82.8068C27.2442 82.3908 29.7334 82.0685 32.394 81.84C35.0545 81.6114 37.754 81.4583 40.4922 81.3806C43.2351 81.3029 45.7494 81.2639 48.0351 81.2639C50.3117 81.2639 52.7871 81.3052 55.4477 81.3806C58.1082 81.456 60.7688 81.6068 63.4294 81.84C66.0899 82.0731 68.5791 82.3885 70.9037 82.8068C72.9158 83.1368 74.8846 83.6913 76.7734 84.4594C76.6183 83.3982 76.2672 82.375 75.7379 81.4422V81.4422Z" fill="white" stroke="black" stroke-width="0.555429" stroke-miterlimit="10"/>
<path d="M63.1894 72.6033C66.5501 72.7364 69.8488 73.5506 72.8855 74.9964C73.3781 73.1898 74.322 71.5381 75.6283 70.1964C74.4215 69.0038 72.9296 68.1399 71.2946 67.6867C69.1334 67.0241 66.9197 66.5469 64.6774 66.2604C62.0115 65.91 59.3289 65.7017 56.6409 65.6365C53.7883 65.5587 50.9174 65.5198 48.0283 65.5198C44.9106 65.5198 41.8889 65.5587 38.9631 65.6365C36.2544 65.697 33.5509 65.9052 30.8649 66.2604C28.6607 66.5461 26.4856 67.0233 24.3643 67.6867C22.7485 68.1475 21.2762 69.011 20.0854 70.1964C20.8606 70.8836 21.5163 71.6946 22.026 72.5964C22.4489 73.3436 22.7564 74.1504 22.938 74.9895C26.0547 73.5436 29.4272 72.7302 32.8603 72.5964C36.6592 72.3633 40.8032 72.249 45.2923 72.2535H50.8809C55.3609 72.2581 59.4637 72.3747 63.1894 72.6033Z" fill="white" stroke="black" stroke-width="0.555429" stroke-miterlimit="10"/>
<path d="M42.0899 25.6113C41.933 26.4386 41.8572 27.2791 41.8637 28.121C41.9265 30.9466 42.3882 33.7492 43.2351 36.4457C44.1494 39.5634 45.0637 42.5667 45.9779 45.4559C46.3551 46.601 46.7185 47.6982 47.0613 48.7679C47.4042 49.8376 47.7471 50.8251 48.0282 51.8399C48.2545 50.8525 48.5425 49.8308 48.8854 48.7679C49.2282 47.7051 49.5711 46.601 49.9688 45.4559C50.7825 42.5713 51.6465 39.5611 52.5608 36.4251C53.4072 33.7285 53.8689 30.9261 53.9322 28.1006C53.9387 27.2586 53.8629 26.418 53.7059 25.5907C53.5622 24.863 53.2906 24.1665 52.9036 23.5336C52.4159 22.899 51.7671 22.4067 51.0248 22.1074C50.0613 21.7357 49.033 21.5608 48.0008 21.5931C45.7928 21.5931 44.1197 22.2399 42.9814 23.5336C42.5309 24.1499 42.2261 24.8603 42.0899 25.6113Z" fill="white" stroke="black" stroke-width="0.555429" stroke-miterlimit="10"/>
<path d="M82.4097 63.1679C83.8629 61.6743 85.1972 60.0694 86.4005 58.3679C87.5754 56.6999 88.5512 54.9002 89.308 53.0056C90.0774 51.0398 90.4638 48.945 90.4462 46.8341C90.4462 42.1164 89.0748 38.4274 86.3319 35.7668C83.5891 33.1062 79.8268 31.7759 75.0451 31.7759C72.4319 31.866 69.859 32.4475 67.4611 33.4902C64.3904 34.7716 61.5963 36.6343 59.2325 38.9759C56.4183 41.7465 54.1217 44.9976 52.4508 48.5759C50.5537 52.4936 49.4885 57.1908 49.2554 62.6673C55.2162 62.6742 61.1707 63.0543 67.0839 63.8056C71.9845 64.4913 75.4634 65.9359 77.5205 68.1393L77.9731 67.5701C79.4497 66.1301 80.9285 64.6628 82.4097 63.1679Z" fill="white" stroke="black" stroke-width="0.555429" stroke-miterlimit="10"/>

<defs>
</defs>
</svg>
