<svg width="96" height="96" viewBox="0 0 97 97" fill="none" xmlns="http://www.w3.org/2000/svg">

<path d="M42.5768 1.37134L43.6054 2.62625C43.6808 2.70168 43.9825 3.07876 44.5174 3.76447C45.1499 4.59705 45.7205 5.47488 46.2248 6.39081C46.8759 7.53617 47.4665 8.71487 47.9939 9.92218C48.5595 11.1883 48.925 12.5347 49.0774 13.9131C55.7771 14.0322 62.3195 15.9633 68.0099 19.5016C73.5642 22.9987 78.2797 28.1324 82.1562 34.9027C86.0328 41.673 89.0042 50.0365 91.0705 59.993C93.1231 69.9496 94.1494 81.5427 94.1494 94.7725H28.5402C28.5402 88.8296 29.2259 84.1919 30.5974 80.8593C31.9731 77.505 34.3729 74.671 37.4545 72.7611C40.8561 70.8837 43.6315 68.0486 45.4362 64.6079C47.3334 61.0787 48.6637 56.4593 49.4271 50.7496C48.0742 52.9522 46.1874 54.7777 43.9414 56.0571C42.3014 56.9414 40.5903 57.6868 38.8259 58.2856L36.9951 59.081C35.5627 59.8221 34.285 60.8299 33.2305 62.0502C31.7905 63.5725 30.3848 65.1314 29.0134 66.7268L27.8545 68.1873L26.3665 69.9016C25.1937 71.4582 23.8088 72.843 22.2522 74.0159C20.8054 75.0856 18.8237 75.6136 16.2042 75.6136C14.5818 75.5782 12.9791 75.2507 11.4728 74.6468C9.74166 73.984 8.12275 73.0589 6.6728 71.904C5.19827 70.7343 3.92839 69.3277 2.91508 67.7417C1.88685 66.1438 1.35038 64.2793 1.37222 62.3793C1.37222 58.425 2.07622 55.1564 3.48422 52.5736C4.86777 50.0192 6.44978 47.5775 8.21565 45.2708L9.01794 44.4754C9.31965 44.0183 9.7928 43.3326 10.4374 42.4183C11.1231 41.5063 11.7128 40.5394 12.3231 39.5108C12.9349 38.4783 13.4866 37.4113 13.9757 36.3153C14.4323 35.373 14.6846 34.3449 14.7162 33.2982C14.6295 30.7883 14.9585 28.2813 15.6899 25.8788C16.3596 24.0056 17.2998 22.2407 18.4808 20.64L19.1665 19.6114L20.3048 18.24C20.6331 17.8996 20.8341 17.4563 20.8739 16.9851C20.8739 16.0731 20.8739 15.408 20.8191 14.9897C20.7642 14.5714 20.7231 14.1737 20.6477 13.7966C20.56 13.3715 20.4454 12.9523 20.3048 12.5417C20.1157 11.7193 20.0395 10.8748 20.0785 10.0318C20.0785 7.82383 20.2865 6.24446 20.7025 5.2936C21.1208 4.34732 21.3882 3.79881 21.4431 3.64109L22.1288 2.26966L23.3837 3.18155C23.4591 3.25698 23.8774 3.55875 24.6385 4.0936C25.5784 4.77664 26.4739 5.5187 27.3197 6.31531C28.4401 7.36461 29.5066 8.47009 30.5151 9.62736C31.6297 10.8867 32.5791 12.2832 33.3402 13.7828C33.9023 13.6275 34.4754 13.5152 35.0545 13.4468C35.6579 13.3714 36.1928 13.2959 36.6454 13.2136C36.7917 11.806 37.119 10.4232 37.6191 9.09935C38.0503 7.93172 38.585 6.80501 39.2168 5.73255C39.8858 4.63903 40.6281 3.59202 41.4385 2.59879L42.5768 1.37134Z" fill="black"/>
<path d="M20.7982 71.5543C22.0256 70.5215 23.1718 69.3958 24.2267 68.1873L25.7079 66.2469L27.0793 64.992C28.6016 63.2503 30.1239 61.5587 31.6462 59.9176C32.8322 58.5448 34.262 57.4034 35.8633 56.5508L37.8039 55.7554C38.9422 55.2983 40.2542 54.7291 41.7399 54.048C43.3102 53.2953 44.7228 52.2504 45.9022 50.9691C47.3453 49.3413 48.448 47.441 49.1456 45.3805C50.1196 42.4393 50.5721 39.3507 50.4827 36.2537H53.3353C53.3722 41.0379 53.0858 45.819 52.4782 50.5645C52.0084 54.3011 51.1488 57.9783 49.9136 61.5359C48.9068 64.4432 47.4212 67.1618 45.5182 69.5794C43.7107 71.8001 41.5322 73.691 39.0793 75.168C36.8241 76.5829 34.9612 78.5424 33.6622 80.8662C32.2496 83.2982 31.4702 86.9553 31.3239 91.8376H88.5399C88.5399 86.0593 88.3502 80.2057 87.9707 74.2766C87.6056 68.4802 86.9003 62.7103 85.8587 56.9966C84.8985 51.6473 83.4478 46.3976 81.525 41.3142C79.8138 36.7183 77.4113 32.4106 74.4004 28.5395C71.5482 24.9238 67.9484 21.967 63.8473 19.8719C59.7056 17.7462 54.821 16.6811 49.1936 16.6766C49.2257 17.6394 49.1101 18.6013 48.8507 19.5291C48.433 20.5764 47.897 21.5727 47.253 22.4983L44.8599 21.0102C45.4253 20.2995 45.8871 19.5123 46.2313 18.6719C46.4075 18.022 46.4861 17.3496 46.4644 16.6766V15.3051C46.4127 13.5098 45.9431 11.7513 45.093 10.1691C44.3883 8.68904 43.5481 7.27721 42.5833 5.9519C41.8129 7.06879 41.145 8.25315 40.5879 9.4903C39.8474 11.0974 39.4772 12.8502 39.5044 14.6194V15.8742C39.5044 16.2513 39.5044 16.8068 39.5593 17.5268C39.634 18.437 39.8088 19.3361 40.0804 20.2079L37.3376 21.0033C37.0256 20.0184 36.7962 19.0092 36.6519 17.9862C36.5858 17.3987 36.5492 16.8082 36.5422 16.217C35.8564 16.2947 35.1913 16.3909 34.5467 16.5051C34.0873 16.5564 33.6411 16.691 33.2302 16.9027C32.2175 17.4151 31.2455 18.0043 30.3227 18.6651C29.4298 19.4658 28.6786 20.4117 28.101 21.4628L25.7079 19.9816C26.1604 19.2204 26.5582 18.6102 26.901 18.0959C27.2061 17.648 27.5503 17.2282 27.9296 16.8411C28.2973 16.4807 28.6992 16.1568 29.1296 15.8742C29.5867 15.5725 30.1559 15.2296 30.837 14.8456C29.8577 13.0335 28.6092 11.3805 27.1342 9.94281C25.959 8.774 24.7206 7.67057 23.4244 6.63762C23.0591 7.74179 22.9055 8.90503 22.9719 10.0662C22.9719 11.129 22.9719 11.8354 23.0267 12.1714C23.0816 12.5074 23.1227 12.8571 23.1982 13.2549C23.3625 13.6835 23.4954 14.1235 23.5959 14.5714C23.7365 15.3794 23.7939 16.1997 23.7673 17.0194C23.7715 17.8233 23.5219 18.608 23.0542 19.2617C22.5604 19.9474 22.0462 20.6331 21.5113 21.4285L20.9422 22.2239C19.9295 23.652 19.1067 25.2056 18.4942 26.8456C17.8452 28.9301 17.5554 31.1098 17.637 33.2914C17.5299 35.5916 16.7948 37.8184 15.5113 39.7302C14.1989 41.9147 12.7706 44.0274 11.2324 46.0593L10.5467 47.0879C9.71015 48.1508 8.92844 49.2206 8.20844 50.2834C7.47424 51.361 6.80781 52.4831 6.21301 53.6434C5.57632 54.8912 5.09721 56.2133 4.78673 57.5794C4.42956 59.154 4.25697 60.7648 4.27244 62.3794C4.26264 63.6355 4.57674 64.873 5.18444 65.9725C5.79957 67.0829 6.56829 68.101 7.46787 68.9966C8.38246 69.9112 9.41845 70.6956 10.5467 71.328C11.6115 71.9481 12.7692 72.3926 13.9753 72.6445C14.0568 72.0079 14.2495 71.3906 14.5444 70.8205C14.8401 70.2235 15.1817 69.6503 15.5662 69.1063C15.9697 68.4638 16.3337 67.7975 16.6564 67.1109C17.0181 66.2646 17.1912 65.3496 17.1639 64.4296H20.0164C20.0656 65.6521 19.8112 66.8679 19.2759 67.968C18.7822 68.88 18.3433 69.7165 17.9662 70.4777C17.2832 71.1535 16.8422 72.0355 16.7113 72.9873C18.1844 72.9194 19.6052 72.4212 20.7982 71.5543V71.5543Z" fill="white" stroke="black" stroke-width="0.555429" stroke-miterlimit="10"/>
<path d="M10.8146 56.3864C9.9067 57.1568 9.11862 58.058 8.47627 59.0606C7.81299 60.054 7.33016 61.1566 7.04998 62.3177C6.86484 63.264 6.95398 63.8195 7.33798 63.9704C7.6397 64.3475 8.19513 64.2172 8.99056 63.5726C9.89681 62.798 10.6846 61.8947 11.3288 60.8916C12.0212 59.9707 12.5246 58.922 12.81 57.8058C13.0363 56.8184 12.9608 56.2149 12.5837 55.9886C12.2066 55.6046 11.6168 55.7349 10.8146 56.3864Z" fill="black"/>
<path d="M29.3491 33.4011C29.3981 34.2364 29.1558 35.0629 28.6634 35.7395C28.4998 35.9904 28.279 36.199 28.0192 36.348C27.7593 36.497 27.4677 36.5822 27.1685 36.5966C25.6462 36.5966 24.8851 35.5313 24.8851 33.4011C24.8682 33.1307 24.9079 32.8598 25.0017 32.6057C24.5491 33.216 24.1445 33.7439 23.8017 34.2033C23.3153 34.98 22.9499 35.8264 22.7182 36.7131H19.8862C20.3369 35.2955 20.9081 33.919 21.5937 32.5988C22.1555 31.5213 22.9083 30.5547 23.8154 29.7461C24.7346 28.9593 25.7741 28.3249 26.8942 27.8673C28.2445 27.3187 29.6364 26.8785 31.0565 26.5508V29.52C30.4362 29.616 29.8258 29.7674 29.2325 29.9725C28.8554 30.1302 28.4371 30.281 27.9777 30.4319C28.8919 30.9713 29.3491 31.9611 29.3491 33.4011Z" fill="black"/>

<defs>
</defs>
</svg>
