<svg width="96" height="96" viewBox="0 0 89 89" fill="none" xmlns="http://www.w3.org/2000/svg">

<path d="M38.1807 12.0552C38.7125 10.7768 39.4854 9.61274 40.4573 8.62659C41.4274 7.66221 42.5693 6.8877 43.8241 6.3431C45.1545 5.76579 46.5911 5.47379 48.0413 5.48596C49.4749 5.4842 50.8938 5.7759 52.2104 6.3431C53.4984 6.88673 54.6764 7.66057 55.687 8.62659C56.6958 9.61576 57.4978 10.7957 58.0464 12.0977C58.5949 13.3997 58.8792 14.7978 58.8824 16.2106C58.8919 17.84 58.4985 19.4464 57.7373 20.8871C56.9722 22.3346 55.9254 23.6146 54.6584 24.6516C58.4839 25.6184 61.9252 27.7253 64.5258 30.6928C66.9256 33.3965 68.2441 36.8903 68.2287 40.5054C68.2466 43.4561 67.3296 46.3367 65.6093 48.734C63.7865 51.2737 61.4054 53.3615 58.6493 54.8368C61.7361 55.6293 64.7071 56.8187 67.4881 58.3752C70.0554 59.7916 72.3853 61.6008 74.3933 63.7374C76.2431 65.7131 77.7454 67.9875 78.8367 70.4643C79.8984 72.8705 80.4428 75.4731 80.4344 78.1032V90.3774H15.7716V78.1717C15.7641 75.5424 16.306 72.9406 17.3624 70.5329C18.4659 68.0464 19.9925 65.7703 21.8744 63.806C23.9059 61.6754 26.2506 59.8671 28.8275 58.4437C31.6091 56.8884 34.58 55.6992 37.6664 54.9054C34.8182 53.4739 32.3541 51.3814 30.4801 48.8026C28.7598 46.4053 27.8428 43.5248 27.8607 40.5741C27.85 36.9498 29.1896 33.4515 31.6184 30.7615C34.2489 27.7993 37.7078 25.6948 41.5475 24.7203C40.2785 23.6835 39.2294 22.4036 38.4618 20.9557C37.703 19.5144 37.312 17.9079 37.3236 16.2791C37.3098 14.8266 37.6019 13.3874 38.1807 12.0552V12.0552Z" fill="black"/>
<path d="M18.2815 87.8403H77.8083V78.1442C77.8057 75.5523 77.2025 72.9964 76.046 70.6769C74.8244 68.2257 73.1598 66.0218 71.1363 64.1763C68.8959 62.1388 66.3509 60.4638 63.5935 59.2117C60.5689 57.8169 57.3623 56.8564 54.0689 56.3591L53.9523 53.9659C57.2078 53.0559 60.1361 51.2362 62.3935 48.7203C64.4542 46.4761 65.5949 43.5385 65.5889 40.4917C65.595 38.7775 65.2252 37.0829 64.5055 35.5271C63.7573 33.9381 62.7122 32.5068 61.4266 31.3101C60.0449 30.0209 58.4662 28.9606 56.7501 28.1694C54.8873 27.3105 52.9065 26.735 50.8735 26.462L50.5306 23.9522C52.1865 23.41 53.6382 22.3769 54.6929 20.99C55.8361 19.4055 56.3727 17.4633 56.2053 15.5167C56.038 13.57 55.1777 11.7482 53.7809 10.382C53.0317 9.61503 52.1353 9.00699 51.1456 8.5946C50.1559 8.1822 49.0931 7.97395 48.0209 7.98204C46.9576 7.97196 45.9034 8.17966 44.9234 8.59242C43.9434 9.00518 43.0583 9.61424 42.3226 10.382C41.5472 11.136 40.9347 12.041 40.5231 13.0412C40.1115 14.0414 39.9094 15.1155 39.9295 16.1969C39.8942 17.9145 40.4136 19.5978 41.4106 20.9969C42.4361 22.3927 43.8759 23.4292 45.5249 23.959L45.4083 26.4689C43.3214 26.7368 41.2856 27.3122 39.3672 28.1763C37.6389 28.9456 36.0567 30.0082 34.6906 31.3169C33.4238 32.5318 32.3795 33.959 31.6049 35.534C30.8519 37.0804 30.4626 38.7786 30.4666 40.4986C30.4605 43.5454 31.6013 46.4829 33.662 48.7271C35.949 51.2611 38.9177 53.0823 42.2129 53.9728L41.9866 56.3659C38.7097 56.8584 35.5206 57.8192 32.5169 59.2186C29.7697 60.489 27.2274 62.1623 24.974 64.1832C22.9221 66.0158 21.2373 68.2218 20.0095 70.6837C18.8411 73.0406 18.2377 75.6372 18.2472 78.2678L18.2815 87.8403Z" fill="white" stroke="black" stroke-width="0.555429" stroke-miterlimit="10"/>

<defs>
</defs>
</svg>
