<svg width="100" height="96" viewBox="0 0 100 96" fill="none" xmlns="http://www.w3.org/2000/svg">
<path d="M93.1908 13.9213C94.5095 13.9277 95.7965 14.3258 96.8884 15.0653C97.9802 15.8047 98.8277 16.8522 99.323 18.0743C99.8183 19.2964 99.9392 20.6381 99.6702 21.9291C99.4013 23.2201 98.7547 24.402 97.8125 25.3247C97.2115 25.9413 96.4927 26.4309 95.6987 26.7643C94.9048 27.0976 94.0519 27.2681 93.1908 27.2653H92.9645C92.5074 29.0162 91.9177 31.2767 91.1954 34.047C90.4731 36.8172 89.6754 39.7887 88.8023 42.9612C87.9291 46.1155 87.0354 49.3155 86.1211 52.5612C85.2068 55.807 84.352 58.7533 83.5565 61.4002C82.7611 64.0608 82.0571 66.2848 81.4445 68.0722C81.1618 69.1312 80.7398 70.148 80.1897 71.0961C78.7296 73.1224 77.9342 75.5519 77.9131 78.0494C77.9953 79.2391 78.4788 80.3656 79.2845 81.2447C79.8131 82.05 80.2895 82.8882 80.7108 83.7544C81.258 85.011 81.5113 86.376 81.4514 87.7453C81.4514 88.8104 80.7863 89.7247 79.456 90.4881C77.8608 91.3488 76.1527 91.9813 74.3817 92.367C72.1458 92.8959 69.8816 93.2965 67.6 93.567C65.1223 93.8687 62.7063 94.0973 60.352 94.2527C58 94.4036 55.8674 94.4995 53.968 94.5338C52.0685 94.5681 50.6628 94.5956 49.7508 94.5956C48.8388 94.5956 47.5428 94.5955 45.6365 94.5338C43.7303 94.4721 41.6251 94.4036 39.3074 94.2527C36.9897 94.1019 34.576 93.8687 32.0663 93.567C29.7814 93.3031 27.5145 92.9024 25.2777 92.367C23.526 91.9749 21.8369 91.3426 20.2583 90.4881C18.928 89.7293 18.2628 88.815 18.2628 87.7453C18.2029 86.376 18.4562 85.011 19.0034 83.7544C19.4274 82.8896 19.9037 82.0515 20.4297 81.2447C21.3105 80.4057 21.8398 79.2637 21.9108 78.0494C21.8613 75.5382 21.0242 73.1059 19.5177 71.0961C19.3691 70.8667 19.2536 70.6173 19.1748 70.3555C19.024 69.9372 18.7017 68.9841 18.208 67.4412C17.7143 65.8984 17.008 63.6219 16.096 60.5431C15.184 57.4642 13.9703 53.1852 12.448 47.7132L8.33369 33.0047C7.95883 31.6332 7.61598 30.4722 7.30512 29.5213C6.99426 28.5705 6.76569 27.8299 6.6194 27.2996C5.74848 27.3142 4.88386 27.1495 4.07932 26.8157C3.27479 26.4818 2.54755 25.9859 1.94283 25.359C1.30714 24.735 0.806766 23.9867 0.472899 23.1609C0.139032 22.3351 -0.0211865 21.4495 0.00224474 20.559C3.04929e-05 19.699 0.170677 18.8473 0.504037 18.0545C0.837398 17.2618 1.32669 16.5441 1.94283 15.9442C2.53966 15.3033 3.26419 14.7946 4.06968 14.4509C4.87517 14.1072 5.74375 13.9361 6.6194 13.9486C7.50252 13.9405 8.37793 14.1134 9.19167 14.4566C10.0054 14.7997 10.7402 15.3061 11.3508 15.9442C12.4393 16.992 13.1306 18.3848 13.307 19.8854C13.4833 21.3859 13.1336 22.9012 12.3177 24.1727C11.647 25.1815 10.75 26.0198 9.69826 26.6208L25.6617 52.623V17.0412C24.1732 16.7559 22.8261 15.9724 21.8422 14.8195C20.8304 13.6687 20.2829 12.1827 20.3063 10.6505C20.3026 9.32149 20.6927 8.02119 21.4274 6.9137C22.162 5.8062 23.2082 4.94114 24.434 4.42765C25.6598 3.91416 27.0102 3.77515 28.3148 4.02838C29.6195 4.2816 30.8199 4.91571 31.7645 5.85047C32.3836 6.4837 32.8689 7.23485 33.1917 8.05946C33.5144 8.88407 33.6681 9.76529 33.6434 10.6505C33.6484 12.0931 33.1823 13.4979 32.3159 14.6514C31.4495 15.8049 30.2303 16.644 28.8434 17.0412L40.9325 51.0253L48.1394 14.4904C46.7456 14.0976 45.5089 13.2804 44.6011 12.1521C43.6342 11.0272 43.1079 9.58986 43.12 8.1065C43.1162 6.33955 43.8084 4.64212 45.0469 3.38184C46.2853 2.12155 47.9704 1.39978 49.7371 1.37274C50.6328 1.35609 51.5227 1.51922 52.3543 1.85254C53.1858 2.18586 53.9421 2.68249 54.5783 3.3132C55.2278 3.92979 55.7414 4.67537 56.0862 5.50192C56.431 6.32848 56.5994 7.21781 56.5805 8.1132C56.5935 9.58717 56.0887 11.019 55.1543 12.159C54.246 13.3121 52.9832 14.1338 51.5611 14.4972L58.7474 50.9909L70.8365 17.0071C69.456 16.6185 68.2356 15.7992 67.3531 14.6687C66.4177 13.5266 65.9129 12.0924 65.9268 10.6162C65.9054 9.72597 66.0666 8.84079 66.4003 8.01526C66.7341 7.18974 67.2334 6.44136 67.8674 5.81615C68.5094 5.17591 69.2755 4.67345 70.1185 4.33976C70.9616 4.00607 71.864 3.84812 72.7703 3.87553C74.5358 3.90256 76.2198 4.62348 77.4581 5.88228C78.6963 7.14109 79.3894 8.83666 79.3874 10.6024C79.4089 12.1355 78.8589 13.6218 77.8445 14.7716C76.8628 15.9271 75.5148 16.7112 74.0251 16.9933V52.575L89.9954 26.5727C87.6366 25.3567 86.4571 23.3407 86.4571 20.5247C86.4859 18.7603 87.2076 17.0782 88.4662 15.8414C89.7248 14.6046 91.4194 13.9124 93.184 13.9145L93.1908 13.9213Z" fill="black"/>
<path d="M2.88262 20.5383C2.86301 21.0539 2.94899 21.5679 3.1353 22.049C3.32162 22.5301 3.60431 22.9682 3.96604 23.3361C4.31525 23.6902 4.73333 23.9691 5.19446 24.1554C5.65558 24.3417 6.14998 24.4315 6.64718 24.4194C7.15316 24.4281 7.6559 24.337 8.12657 24.151C8.59724 23.9651 9.02659 23.6882 9.39004 23.3361C9.76713 22.977 10.0636 22.5419 10.2599 22.0596C10.4561 21.5773 10.5476 21.0587 10.5283 20.5383C10.5392 20.0373 10.4433 19.5398 10.2471 19.0787C10.0508 18.6176 9.75866 18.2036 9.39004 17.8641C9.0277 17.5104 8.59855 17.2323 8.12762 17.0463C7.65669 16.8603 7.15341 16.77 6.64718 16.7806C6.1511 16.7723 5.6584 16.8637 5.19835 17.0495C4.7383 17.2353 4.32029 17.5117 3.96914 17.8623C3.61798 18.2128 3.34085 18.6303 3.1542 19.0901C2.96755 19.5498 2.8752 20.0422 2.88262 20.5383Z" fill="white" stroke="black" stroke-width="0.555429" stroke-miterlimit="10"/>
<path d="M11.8789 35.2471C12.8663 39.1282 13.9863 43.2723 15.2389 47.6792C16.4915 52.086 17.6892 56.1156 18.8321 59.7682C19.7658 59.2673 20.7408 58.8474 21.7463 58.5133C22.8435 58.1362 24.0435 57.7522 25.3326 57.3751C24.88 56.6139 24.1395 55.4002 23.1109 53.7202L19.6343 48.0768C18.3406 45.9876 17.0103 43.8208 15.6435 41.5762C14.2766 39.3316 13.0218 37.2219 11.8789 35.2471Z" fill="white" stroke="black" stroke-width="0.555429" stroke-miterlimit="10"/>
<path d="M49.7445 62.621C57.7262 62.621 63.9982 63.0187 68.5605 63.8141C73.1228 64.6095 76.4302 65.9603 78.4828 67.8666C78.8047 67.1264 79.0706 66.3631 79.2782 65.5831C79.5045 64.7465 79.8131 63.7592 80.1902 62.621C78.6748 61.7337 77.0431 61.062 75.3422 60.6254C73.0561 59.9916 70.7343 59.4948 68.3891 59.1375C65.7605 58.726 62.9102 58.422 59.8382 58.2254C56.7525 58.0403 53.5091 57.9443 50.0873 57.9443C47.2713 57.9443 44.3616 58.0197 41.3582 58.1705C38.3548 58.3214 35.4839 58.5889 32.7456 58.9729C30.1904 59.315 27.6578 59.8095 25.1616 60.454C23.2257 60.9099 21.3647 61.6396 19.6348 62.621C19.9365 63.7592 20.2039 64.7465 20.4302 65.5831C20.6369 66.3642 20.9052 67.1278 21.2325 67.8666C23.2851 65.9649 26.5925 64.6141 31.1548 63.8141C35.7171 63.0141 41.9136 62.6164 49.7445 62.621Z" fill="white" stroke="black" stroke-width="0.555429" stroke-miterlimit="10"/>
<path d="M49.7438 91.7016C59.0969 91.7016 66.1301 91.2079 70.8432 90.2205C75.5564 89.2331 78.1415 88.3964 78.5987 87.7107C78.1415 86.8741 75.5564 85.9804 70.8432 85.0296C66.1301 84.0787 59.0969 83.6101 49.7438 83.6238C40.5415 83.6238 33.6021 84.0993 28.9255 85.0502C24.249 86.001 21.6455 86.897 21.1152 87.7381C21.5724 88.4238 24.1187 89.2603 28.7541 90.2478C33.3895 91.2352 40.3861 91.7198 49.7438 91.7016Z" fill="white" stroke="black" stroke-width="0.555429" stroke-miterlimit="10"/>
<path d="M49.7443 73.3384C37.6574 73.3384 29.2551 75.1259 24.5374 78.7007C24.487 79.5217 24.2527 80.3208 23.8517 81.0389C23.4746 81.6835 23.0906 82.2733 22.7134 82.8081C22.5626 83.0344 22.4254 83.2401 22.3157 83.4321C22.206 83.6241 22.062 83.871 21.9111 84.1727C24.1356 83.3027 26.4524 82.6906 28.8163 82.3486C31.5866 81.8914 34.3614 81.5486 37.1408 81.32C39.8837 81.0937 42.462 80.9429 44.7797 80.8675C47.0974 80.7921 48.7568 80.751 49.7443 80.751C50.7317 80.751 52.4871 80.7921 54.8734 80.8675C57.2597 80.9429 59.7968 81.0937 62.574 81.32C65.3511 81.5463 68.1214 81.8892 70.8986 82.3486C73.2602 82.6906 75.5748 83.3027 77.7968 84.1727C77.646 83.871 77.5157 83.6241 77.3991 83.4321C77.2826 83.2401 77.1523 83.0344 77.0014 82.8081C76.6174 82.2733 76.2403 81.6835 75.8563 81.0389C75.4553 80.3208 75.221 79.5217 75.1706 78.7007C70.4574 75.1259 61.982 73.3384 49.7443 73.3384Z" fill="white" stroke="black" stroke-width="0.555429" stroke-miterlimit="10"/>
<path d="M49.7444 65.4663C47.3124 65.4663 44.6884 65.5257 41.8724 65.6446C39.061 65.7543 36.3867 65.9875 33.7742 66.3303C31.4348 66.6187 29.1261 67.1166 26.8759 67.8183C25.1822 68.2595 23.6559 69.1897 22.4873 70.4926C22.9659 71.2343 23.3311 72.0432 23.5707 72.8926C23.8313 73.8046 24.1193 74.6754 24.421 75.512C27.5299 73.6011 31.0109 72.3761 34.6313 71.9188C39.6284 71.2175 44.6713 70.8944 49.717 70.952C54.8655 70.885 60.0117 71.2082 65.1113 71.9188C68.7112 72.3813 72.171 73.6063 75.2599 75.512C75.5616 74.6754 75.8702 73.8046 76.1719 72.8926C76.4518 72.0276 76.876 71.2161 77.4267 70.4926C76.1245 69.2129 74.5135 68.2915 72.7502 67.8183C70.4803 67.1205 68.1537 66.6226 65.797 66.3303C63.2119 65.9943 60.5102 65.7612 57.6987 65.6446C54.8873 65.528 52.2542 65.4663 49.7444 65.4663Z" fill="white" stroke="black" stroke-width="0.555429" stroke-miterlimit="10"/>
<path d="M23.0565 10.6094C23.0507 11.1249 23.154 11.6357 23.3597 12.1084C23.5653 12.5811 23.8686 13.0051 24.2497 13.3523C24.5997 13.7091 25.0167 13.9933 25.4768 14.1887C25.9369 14.384 26.431 14.4865 26.9308 14.4905C27.4589 14.506 27.9845 14.4131 28.4752 14.2173C28.9658 14.0215 29.4111 13.7271 29.7834 13.3523C30.1508 12.9974 30.4414 12.5708 30.6372 12.099C30.833 11.6272 30.9299 11.1202 30.9217 10.6094C30.9404 10.0901 30.8486 9.5728 30.6524 9.09167C30.4561 8.61054 30.1599 8.17656 29.7834 7.81851C29.4024 7.45933 28.9544 7.17874 28.4649 6.99284C27.9755 6.80694 27.4542 6.71948 26.9308 6.7352C25.9316 6.74099 24.9724 7.12848 24.2497 7.81851C23.8592 8.16847 23.5501 8.59966 23.3439 9.08179C23.1378 9.56392 23.0397 10.0853 23.0565 10.6094V10.6094Z" fill="white" stroke="black" stroke-width="0.555429" stroke-miterlimit="10"/>
<path d="M28.418 56.8059C30.2619 56.421 32.1252 56.1348 33.9997 55.9488C35.906 55.7568 37.7346 55.5853 39.4854 55.4345L28.4248 23.8438L28.418 56.8059Z" fill="white" stroke="black" stroke-width="0.555429" stroke-miterlimit="10"/>
<path d="M43.0107 55.3178C43.7719 55.2424 44.4576 55.2081 45.0679 55.2081H54.6679C55.3551 55.2068 56.0419 55.2434 56.725 55.3178L49.7719 20.4219L43.0107 55.3178Z" fill="white" stroke="black" stroke-width="0.555429" stroke-miterlimit="10"/>
<path d="M45.8632 8.10686C45.8549 8.61433 45.9581 9.11732 46.1655 9.58057C46.3728 10.0438 46.6793 10.456 47.0632 10.7879C47.7862 11.4767 48.7458 11.862 49.7443 11.8646C50.7935 11.8703 51.8074 11.4867 52.5901 10.7879C52.9862 10.4632 53.3046 10.0538 53.5218 9.58978C53.7389 9.1258 53.8493 8.61912 53.8449 8.10686C53.8595 7.57619 53.7542 7.04904 53.537 6.56467C53.3197 6.0803 52.996 5.65112 52.5901 5.30909C51.8081 4.60842 50.7943 4.22237 49.7443 4.22561C48.745 4.2307 47.7855 4.61846 47.0632 5.30909C46.6706 5.65916 46.3596 6.09112 46.1523 6.57455C45.9449 7.05797 45.8462 7.58111 45.8632 8.10686V8.10686Z" fill="white" stroke="black" stroke-width="0.555429" stroke-miterlimit="10"/>
<path d="M60.2354 55.4345C61.9862 55.5853 63.8148 55.7568 65.7211 55.9488C67.5978 56.1348 69.4634 56.421 71.3096 56.8059V23.8438L60.2354 55.4345Z" fill="white" stroke="black" stroke-width="0.555429" stroke-miterlimit="10"/>
<path d="M68.787 10.6093C68.7812 11.1254 68.8852 11.6369 69.0921 12.1098C69.299 12.5827 69.604 13.0061 69.987 13.3521C70.3537 13.7172 70.7892 14.0057 71.2683 14.2011C71.7474 14.3965 72.2605 14.4948 72.7779 14.4904C73.2778 14.4871 73.7721 14.3849 74.2323 14.1895C74.6925 13.9942 75.1094 13.7095 75.459 13.3521C75.841 13.0053 76.1454 12.5816 76.3522 12.109C76.559 11.6363 76.6635 11.1252 76.659 10.6093C76.6745 10.0847 76.5751 9.56308 76.3678 9.08099C76.1605 8.5989 75.8504 8.168 75.459 7.81838C74.7367 7.12775 73.7772 6.74016 72.7779 6.73507C71.743 6.72466 70.7438 7.11245 69.987 7.81838C69.5946 8.1671 69.2836 8.59785 69.0763 9.08016C68.8689 9.56246 68.7701 10.0846 68.787 10.6093Z" fill="white" stroke="black" stroke-width="0.555429" stroke-miterlimit="10"/>
<path d="M80.9918 59.7682C81.9792 56.4996 83.0626 52.7351 84.2421 48.4745C85.4215 44.214 86.6558 39.8048 87.9449 35.2471C86.8066 37.2219 85.5518 39.3316 84.1804 41.5762C82.8089 43.8208 81.4992 45.9876 80.2512 48.0768C78.9986 50.1705 77.8375 52.0516 76.7678 53.7202C75.7049 55.4002 74.9438 56.6139 74.4912 57.3751C75.7049 57.7522 76.8843 58.1362 78.0226 58.5133C79.0485 58.8402 80.0424 59.2603 80.9918 59.7682Z" fill="white" stroke="black" stroke-width="0.555429" stroke-miterlimit="10"/>
<path d="M93.1909 24.4125C93.6969 24.4212 94.1996 24.3301 94.6703 24.1442C95.141 23.9583 95.5703 23.6814 95.9338 23.3292C96.3098 22.9693 96.6056 22.534 96.8018 22.0519C96.9979 21.5698 97.09 21.0517 97.0721 20.5315C97.0816 20.0306 96.9852 19.5335 96.789 19.0726C96.5928 18.6117 96.3014 18.1975 95.9338 17.8572C95.5712 17.5039 95.142 17.2261 94.6711 17.0401C94.2003 16.8541 93.6971 16.7635 93.1909 16.7738C92.6558 16.759 92.1246 16.8698 91.64 17.0972C91.1554 17.3246 90.7307 17.6624 90.4001 18.0834C89.7679 18.7503 89.3852 19.6151 89.3166 20.5315C89.2923 21.047 89.3757 21.5621 89.5617 22.0435C89.7477 22.525 90.0321 22.9623 90.3967 23.3276C90.7614 23.6928 91.1982 23.9781 91.6794 24.1649C92.1605 24.3518 92.6753 24.436 93.1909 24.4125V24.4125Z" fill="white" stroke="black" stroke-width="0.555429" stroke-miterlimit="10"/>
</svg>
