<svg width="96" height="96" viewBox="0 0 90 90" fill="none" xmlns="http://www.w3.org/2000/svg">

<path d="M18.6172 80.0776C18.6172 74.0708 18.9967 70.7085 19.7555 69.9908L22.3201 67.536C23.2732 66.624 24.1852 65.7531 25.0629 64.9097C25.9406 64.0663 26.4892 63.5863 26.7155 63.4286V31.6114C26.1322 31.133 25.5802 30.6177 25.0629 30.0685C24.1944 29.1954 23.2641 28.2811 22.2721 27.3257C21.2801 26.3702 20.0252 25.097 18.5075 23.5062V4.80005H31.7281V13.1245H40.3955V4.80005H55.2207V13.1245H63.8949V4.80005H77.1224C77.1224 17.2709 76.7406 23.8995 75.9772 24.6858C75.2161 25.4812 74.3658 26.3588 73.4127 27.3051L70.6698 30.0479L69.1338 31.5908V63.408C69.2846 63.568 69.7784 64.0617 70.6149 64.8891C71.4515 65.7325 72.3429 66.6035 73.2961 67.5155C74.2492 68.4275 75.4766 69.5725 76.9989 71.0537V80.0572H83.9589V90.7817H11.6572V80.0572L18.6172 80.0776Z" fill="black"/>
<path d="M81.4563 82.7036H14.2837V88.1756H81.4563V82.7036Z" fill="white" stroke="black" stroke-width="0.555429" stroke-miterlimit="10"/>
<path d="M74.5034 21.6891V7.43311H66.5149V15.7577H52.6017V7.43311H43.0223V15.7577H29.1091V7.43311H21.1274V21.6891H74.5034Z" fill="white" stroke="black" stroke-width="0.555429" stroke-miterlimit="10"/>
<path d="M74.3865 73.0078H21.2368V80.0775H74.3865V73.0078Z" fill="white" stroke="black" stroke-width="0.555429" stroke-miterlimit="10"/>
<path d="M22.9512 24.3083C23.7809 25.1449 24.7546 26.098 25.8586 27.1609C26.9626 28.2237 27.8129 29.1015 28.4232 29.7872H67.4266C68.1741 28.8673 68.9731 27.9904 69.8197 27.1609L72.6723 24.3083H22.9512Z" fill="white" stroke="black" stroke-width="0.555429" stroke-miterlimit="10"/>
<path d="M72.5285 70.498L67.3993 65.3689H28.4233C27.813 65.9038 26.9765 66.6787 25.9136 67.7073C24.8508 68.7359 23.8976 69.6683 23.061 70.498H72.5285Z" fill="white" stroke="black" stroke-width="0.555429" stroke-miterlimit="10"/>
<path d="M66.5211 32.4067H29.2251V62.7427H66.5211V32.4067Z" fill="white" stroke="black" stroke-width="0.555429" stroke-miterlimit="10"/>

<defs>
</defs>
</svg>
