<svg width="96" height="96" viewBox="0 0 96 96" fill="none" xmlns="http://www.w3.org/2000/svg">
<path fill-rule="evenodd" clip-rule="evenodd" d="M19.2 76.8001C26.432 74.7308 40.7681 77.7174 48.0001 72.5334C55.2321 77.7174 69.5681 74.7308 76.8001 76.8001C76.8001 76.8001 80.3201 77.9521 83.2001 81.0668C81.7494 83.1361 79.6801 83.1788 76.8001 82.1334C69.5681 80.0641 55.2321 83.1148 48.0001 80.0001C40.7681 83.1148 26.432 80.0641 19.2 82.1334C16.3115 83.1788 14.2443 83.1361 12.8 81.0668C15.6886 76.9281 19.2 76.8001 19.2 76.8001Z" fill="white" stroke="black" stroke-width="2.88" stroke-linejoin="round"/>
<path fill-rule="evenodd" clip-rule="evenodd" d="M32.0002 68.2668C37.3335 73.6001 58.6668 73.6001 64.0002 68.2668C65.0668 65.0668 64.0002 64.0001 64.0002 64.0001C64.0002 58.6668 58.6668 55.4668 58.6668 55.4668C70.4002 52.2668 71.4668 30.9335 48.0002 22.4001C24.5335 30.9335 25.6002 52.2668 37.3335 55.4668C37.3335 55.4668 32.0002 58.6668 32.0002 64.0001C32.0002 64.0001 30.9335 65.0668 32.0002 68.2668Z" fill="white" stroke="black" stroke-width="2.88" stroke-linejoin="round"/>
<path fill-rule="evenodd" clip-rule="evenodd" d="M53.3337 17.0667C53.3337 18.4812 52.7718 19.8378 51.7716 20.838C50.7714 21.8382 49.4148 22.4001 48.0003 22.4001C46.5858 22.4001 45.2293 21.8382 44.2291 20.838C43.2289 19.8378 42.667 18.4812 42.667 17.0667C42.667 15.6522 43.2289 14.2957 44.2291 13.2955C45.2293 12.2953 46.5858 11.7334 48.0003 11.7334C49.4148 11.7334 50.7714 12.2953 51.7716 13.2955C52.7718 14.2957 53.3337 15.6522 53.3337 17.0667Z" fill="white" stroke="black" stroke-width="2.88" stroke-linejoin="round"/>
<path d="M37.3336 55.4666H58.6669M32.0002 64H64.0002M48.0002 33.0667V43.7333M42.6669 38.4H53.3336" stroke="black" stroke-width="2.88" stroke-linecap="round"/>
</svg>
