<svg width="96" height="96" viewBox="0 0 96 96" fill="none" xmlns="http://www.w3.org/2000/svg">
<path d="M48 24.8107V12.8" stroke="black" stroke-width="2.88" stroke-linecap="round"/>
<path fill-rule="evenodd" clip-rule="evenodd" d="M48.0003 53.3337C48.0003 53.3337 57.6003 37.3337 54.4003 30.9337C54.4003 30.9337 52.267 25.6003 48.0003 25.6003C43.7337 25.6003 41.6003 30.9337 41.6003 30.9337C38.4003 37.3337 48.0003 53.3337 48.0003 53.3337Z" fill="black" stroke="black" stroke-width="2.88"/>
<path fill-rule="evenodd" clip-rule="evenodd" d="M24.5333 78.9334C36.2667 86.4001 57.6 86.4001 69.3333 78.9334V64.0001C69.3333 64.0001 88.5333 54.4001 82.1333 41.6001C73.6 27.7334 53.3333 34.1334 48 50.1334C40.5333 34.1334 20.2667 27.7334 13.8667 41.6001C7.46668 54.4001 24.5333 62.9334 24.5333 62.9334V78.9334Z" fill="black"/>
<path d="M48 50.1334C53.3333 34.1334 73.6 27.7334 82.1333 41.6001C88.5333 54.4001 69.3333 64.0001 69.3333 64.0001V78.9334C57.6 86.4001 36.2667 86.4001 24.5333 78.9334V62.9334C24.5333 62.9334 7.46668 54.4001 13.8667 41.6001C20.2667 27.7334 40.5333 34.1334 48 50.1334ZM48 50.1334V57.6001" stroke="black" stroke-width="2.88" stroke-linecap="round" stroke-linejoin="round"/>
<path d="M42.6665 17.0667H53.3332" stroke="black" stroke-width="2.88" stroke-linecap="round"/>
<path d="M68.2668 62.9335C68.2668 62.9335 86.4001 54.4001 81.1308 42.3468C72.8534 29.8668 53.3334 38.4001 48.0001 52.2668M48.0001 52.2668L48.0214 56.7468M48.0001 52.2668C42.6668 38.4001 21.1329 29.8668 14.927 42.3468C9.60012 54.4001 25.2801 61.5468 25.2801 61.5468" stroke="white" stroke-width="2.88" stroke-linecap="round" stroke-linejoin="round"/>
<path d="M24.5334 64.0002C36.2668 57.6002 57.6001 57.6002 69.3334 64.0002M24.5334 71.4669C36.2668 65.0669 57.6001 65.0669 69.3334 71.4669M24.5334 78.9335C36.2668 72.5335 57.6001 72.5335 69.3334 78.9335" stroke="white" stroke-width="2.88" stroke-linecap="round" stroke-linejoin="round"/>
</svg>
