<svg width="96" height="96" viewBox="0 0 96 96" fill="none" xmlns="http://www.w3.org/2000/svg">
<path fill-rule="evenodd" clip-rule="evenodd" d="M46.9336 21.3333C69.3336 23.4666 82.1336 38.3999 81.0669 83.1999H32.0002C32.0002 63.9999 53.3336 69.3332 49.0669 38.3999" fill="white"/>
<path d="M46.9336 21.3333C69.3336 23.4666 82.1336 38.3999 81.0669 83.1999H32.0002C32.0002 63.9999 53.3336 69.3332 49.0669 38.3999" stroke="black" stroke-width="2.88" stroke-linecap="round" stroke-linejoin="round"/>
<path fill-rule="evenodd" clip-rule="evenodd" d="M51.2001 38.4C52.0107 44.608 39.3601 54.1227 34.1334 57.6C27.7334 61.8667 28.1174 66.8587 23.4667 66.1333C21.2438 64.128 26.4747 59.648 23.4667 59.7333C21.3334 59.7333 23.8721 62.3573 21.3334 64C19.2001 64 12.7937 66.1333 12.8001 55.4667C12.8001 51.2 25.6001 29.8667 25.6001 29.8667C25.6001 29.8667 29.6321 25.8133 29.8667 22.4C28.3094 20.2795 28.8001 18.1333 28.8001 16C30.9334 13.8667 35.2001 21.3333 35.2001 21.3333H39.4667C39.4667 21.3333 41.1307 17.0837 44.8001 14.9333C46.9334 14.9333 46.9334 21.3333 46.9334 21.3333" fill="white"/>
<path d="M51.2001 38.4C52.0107 44.608 39.3601 54.1227 34.1334 57.6C27.7334 61.8667 28.1174 66.8587 23.4667 66.1333C21.2438 64.128 26.4747 59.648 23.4667 59.7333C21.3334 59.7333 23.8721 62.3573 21.3334 64C19.2001 64 12.7937 66.1333 12.8001 55.4667C12.8001 51.2 25.6001 29.8667 25.6001 29.8667C25.6001 29.8667 29.6321 25.8133 29.8667 22.4C28.3094 20.2795 28.8001 18.1333 28.8001 16C30.9334 13.8667 35.2001 21.3333 35.2001 21.3333H39.4667C39.4667 21.3333 41.1307 17.0837 44.8001 14.9333C46.9334 14.9333 46.9334 21.3333 46.9334 21.3333" stroke="black" stroke-width="2.88" stroke-linecap="round" stroke-linejoin="round"/>
<path fill-rule="evenodd" clip-rule="evenodd" d="M20.2669 54.4002C20.2669 54.6831 20.1545 54.9544 19.9545 55.1544C19.7544 55.3545 19.4831 55.4668 19.2002 55.4668C18.9173 55.4668 18.646 55.3545 18.446 55.1544C18.2459 54.9544 18.1335 54.6831 18.1335 54.4002C18.1335 54.1173 18.2459 53.846 18.446 53.6459C18.646 53.4459 18.9173 53.3335 19.2002 53.3335C19.4831 53.3335 19.7544 53.4459 19.9545 53.6459C20.1545 53.846 20.2669 54.1173 20.2669 54.4002ZM31.8573 33.6002C31.6471 33.9661 31.4146 34.315 31.1732 34.6267C30.9318 34.9385 30.6862 35.207 30.4507 35.4167C30.2151 35.6264 29.9942 35.7732 29.8007 35.8487C29.6071 35.9242 29.4448 35.9268 29.3229 35.8565C29.2011 35.7862 29.1222 35.6442 29.0908 35.4389C29.0594 35.2335 29.0761 34.9688 29.14 34.6599C29.2038 34.3511 29.3135 34.0042 29.4628 33.6392C29.6121 33.2743 29.798 32.8985 30.0098 32.5335C30.22 32.1676 30.4525 31.8187 30.6939 31.5069C30.9353 31.1952 31.1809 30.9267 31.4164 30.717C31.652 30.5073 31.8729 30.3604 32.0664 30.285C32.26 30.2095 32.4223 30.2068 32.5442 30.2772C32.666 30.3475 32.7449 30.4894 32.7763 30.6948C32.8077 30.9002 32.791 31.1649 32.7271 31.4738C32.6633 31.7826 32.5536 32.1295 32.4043 32.4944C32.255 32.8594 32.0691 33.2352 31.8573 33.6002Z" fill="black" stroke="black" stroke-width="2.88" stroke-linecap="round" stroke-linejoin="round"/>
</svg>
