<svg width="96" height="96" viewBox="0 0 96 96" fill="none" xmlns="http://www.w3.org/2000/svg">
<path d="M47.9999 19.2C43.2852 19.2 39.4666 23.0186 39.4666 27.7333C39.4666 29.632 40.0852 31.3813 41.1306 32.8106C36.9706 35.2 34.1332 39.6586 34.1332 44.7999C34.1332 49.1306 36.1386 52.992 39.2746 55.5306C32.8746 57.792 23.4666 67.3706 23.4666 84.2666H72.5332C72.5332 67.3706 63.1252 57.792 56.7252 55.5306C59.8612 52.992 61.8666 49.1306 61.8666 44.7999C61.8666 39.6586 59.0292 35.2 54.8692 32.8106C55.9145 31.3813 56.5332 29.632 56.5332 27.7333C56.5332 23.0186 52.7146 19.2 47.9999 19.2Z" fill="black" stroke="black" stroke-width="2.88" stroke-linecap="round"/>
</svg>
