<svg width="96" height="96" viewBox="0 0 96 96" fill="none" xmlns="http://www.w3.org/2000/svg">
<path fill-rule="evenodd" clip-rule="evenodd" d="M17.0665 25.6001C17.0665 26.7317 16.617 27.8169 15.8169 28.6171C15.0167 29.4172 13.9315 29.8667 12.7999 29.8667C11.6683 29.8667 10.583 29.4172 9.78288 28.6171C8.98273 27.8169 8.5332 26.7317 8.5332 25.6001C8.5332 24.4685 8.98273 23.3832 9.78288 22.5831C10.583 21.7829 11.6683 21.3334 12.7999 21.3334C13.9315 21.3334 15.0167 21.7829 15.8169 22.5831C16.617 23.3832 17.0665 24.4685 17.0665 25.6001ZM52.2665 16.0001C52.2665 17.1317 51.817 18.2169 51.0169 19.0171C50.2167 19.8172 49.1315 20.2667 47.9999 20.2667C46.8683 20.2667 45.783 19.8172 44.9829 19.0171C44.1827 18.2169 43.7332 17.1317 43.7332 16.0001C43.7332 14.8685 44.1827 13.7832 44.9829 12.9831C45.783 12.1829 46.8683 11.7334 47.9999 11.7334C49.1315 11.7334 50.2167 12.1829 51.0169 12.9831C51.817 13.7832 52.2665 14.8685 52.2665 16.0001ZM87.4665 25.6001C87.4665 26.7317 87.017 27.8169 86.2169 28.6171C85.4167 29.4172 84.3315 29.8667 83.1999 29.8667C82.0683 29.8667 80.983 29.4172 80.1829 28.6171C79.3827 27.8169 78.9332 26.7317 78.9332 25.6001C78.9332 24.4685 79.3827 23.3832 80.1829 22.5831C80.983 21.7829 82.0683 21.3334 83.1999 21.3334C84.3315 21.3334 85.4167 21.7829 86.2169 22.5831C87.017 23.3832 87.4665 24.4685 87.4665 25.6001ZM34.1332 18.1334C34.1332 19.265 33.6837 20.3502 32.8835 21.1504C32.0834 21.9505 30.9981 22.4001 29.8665 22.4001C28.7349 22.4001 27.6497 21.9505 26.8495 21.1504C26.0494 20.3502 25.5999 19.265 25.5999 18.1334C25.5999 17.0018 26.0494 15.9166 26.8495 15.1164C27.6497 14.3163 28.7349 13.8667 29.8665 13.8667C30.9981 13.8667 32.0834 14.3163 32.8835 15.1164C33.6837 15.9166 34.1332 17.0018 34.1332 18.1334ZM70.3999 19.2001C70.3999 20.3317 69.9504 21.4169 69.1502 22.2171C68.35 23.0172 67.2648 23.4667 66.1332 23.4667C65.0016 23.4667 63.9164 23.0172 63.1162 22.2171C62.3161 21.4169 61.8665 20.3317 61.8665 19.2001C61.8665 18.0685 62.3161 16.9832 63.1162 16.1831C63.9164 15.3829 65.0016 14.9334 66.1332 14.9334C67.2648 14.9334 68.35 15.3829 69.1502 16.1831C69.9504 16.9832 70.3999 18.0685 70.3999 19.2001Z" fill="white" stroke="black" stroke-width="2.88" stroke-linecap="round" stroke-linejoin="round"/>
<path fill-rule="evenodd" clip-rule="evenodd" d="M19.1995 55.4664C37.3329 52.2664 63.9995 52.2664 76.7995 55.4664L81.0662 29.8664L66.1329 53.333V23.4664L54.3995 52.2664L47.9995 20.2664L41.5995 52.2664L29.8662 22.3997V53.333L14.9329 29.8664L19.1995 55.4664Z" fill="white" stroke="black" stroke-width="2.88" stroke-linejoin="round"/>
<path fill-rule="evenodd" clip-rule="evenodd" d="M19.2 55.4667C19.2 59.7333 22.4 59.7333 24.5333 64C26.6666 67.2 26.6666 66.1333 25.6 71.4666C22.4 73.6 22.4 76.8 22.4 76.8C19.2 80 23.4666 82.1333 23.4666 82.1333C37.3333 84.2666 58.6666 84.2666 72.5333 82.1333C72.5333 82.1333 75.7333 80 72.5333 76.8C72.5333 76.8 73.5999 73.6 70.3999 71.4666C69.3333 66.1333 69.3333 67.2 71.4666 64C73.5999 59.7333 76.7999 59.7333 76.7999 55.4667C58.6666 52.2667 37.3333 52.2667 19.2 55.4667Z" fill="white" stroke="black" stroke-width="2.88" stroke-linejoin="round"/>
<path d="M24.533 63.9999C31.9996 61.8666 63.9996 61.8666 71.4663 63.9999M25.5996 71.4666C38.3996 69.3332 57.5996 69.3332 70.3996 71.4666" stroke="black" stroke-width="2.88" stroke-linecap="round" stroke-linejoin="round"/>
</svg>
