<svg width="96" height="96" viewBox="0 0 96 96" fill="none" xmlns="http://www.w3.org/2000/svg">
<path d="M12.8 31.4662C16.0401 31.4662 18.6667 28.8396 18.6667 25.5996C18.6667 22.3595 16.0401 19.7329 12.8 19.7329C9.55995 19.7329 6.93335 22.3595 6.93335 25.5996C6.93335 28.8396 9.55995 31.4662 12.8 31.4662Z" fill="black"/>
<path d="M29.8667 25.0663C33.1067 25.0663 35.7333 22.4397 35.7333 19.1997C35.7333 15.9596 33.1067 13.333 29.8667 13.333C26.6266 13.333 24 15.9596 24 19.1997C24 22.4397 26.6266 25.0663 29.8667 25.0663Z" fill="black"/>
<path d="M47.9997 22.9333C51.2398 22.9333 53.8664 20.3067 53.8664 17.0666C53.8664 13.8265 51.2398 11.2 47.9997 11.2C44.7597 11.2 42.1331 13.8265 42.1331 17.0666C42.1331 20.3067 44.7597 22.9333 47.9997 22.9333Z" fill="black"/>
<path d="M66.1333 25.0663C69.3733 25.0663 71.9999 22.4397 71.9999 19.1997C71.9999 15.9596 69.3733 13.333 66.1333 13.333C62.8932 13.333 60.2666 15.9596 60.2666 19.1997C60.2666 22.4397 62.8932 25.0663 66.1333 25.0663Z" fill="black"/>
<path d="M83.2002 31.4662C86.4402 31.4662 89.0668 28.8396 89.0668 25.5996C89.0668 22.3595 86.4402 19.7329 83.2002 19.7329C79.9601 19.7329 77.3335 22.3595 77.3335 25.5996C77.3335 28.8396 79.9601 31.4662 83.2002 31.4662Z" fill="black"/>
<path fill-rule="evenodd" clip-rule="evenodd" d="M19.1998 55.4666C37.3331 52.2666 63.9998 52.2666 76.7998 55.4666L82.1331 28.7999L66.1331 53.3333L65.4931 23.2533L54.3998 52.2666L47.9998 21.3333L41.5998 52.2666L30.5065 23.2533L29.8665 53.3333L13.8665 28.7999L19.1998 55.4666Z" fill="black" stroke="black" stroke-width="2.88" stroke-linejoin="round"/>
<path fill-rule="evenodd" clip-rule="evenodd" d="M19.2 55.4667C19.2 59.7333 22.4 59.7333 24.5333 64C26.6666 67.2 26.6666 66.1333 25.6 71.4666C22.4 73.6 22.4 76.8 22.4 76.8C19.2 80 23.4666 82.1333 23.4666 82.1333C37.3333 84.2666 58.6666 84.2666 72.5333 82.1333C72.5333 82.1333 75.7333 80 72.5333 76.8C72.5333 76.8 73.5999 73.6 70.3999 71.4666C69.3333 66.1333 69.3333 67.2 71.4666 64C73.5999 59.7333 76.7999 59.7333 76.7999 55.4667C58.6666 52.2667 37.3333 52.2667 19.2 55.4667Z" fill="black" stroke="black" stroke-width="2.88" stroke-linejoin="round"/>
<path d="M23.4666 82.1331C39.3551 87.6605 56.6447 87.6605 72.5332 82.1331" stroke="black" stroke-width="2.88" stroke-linejoin="round"/>
<path d="M23.4668 61.8665C39.3554 56.3391 56.6449 56.3391 72.5335 61.8665M26.6668 67.1998H69.3335M24.5335 73.5998C39.7713 78.6445 56.229 78.6445 71.4668 73.5998M22.4001 79.9998C38.9334 86.0341 57.0669 86.0341 73.6001 79.9998" stroke="white" stroke-width="2.88" stroke-linecap="round" stroke-linejoin="round"/>
</svg>
