<svg width="96" height="96" viewBox="0 0 96 96" fill="none" xmlns="http://www.w3.org/2000/svg">
<path fill-rule="evenodd" clip-rule="evenodd" d="M19.2 83.2H76.7999V76.8H19.2V83.2ZM26.6666 68.2667L29.8666 62.9333H66.1333L69.3333 68.2667H26.6666ZM25.6 76.8V68.2667H70.3999V76.8H25.6Z" fill="black" stroke="black" stroke-width="2.88" stroke-linejoin="round"/>
<path fill-rule="evenodd" clip-rule="evenodd" d="M29.8669 62.9333V35.2H66.1336V62.9333H29.8669Z" fill="black" stroke="black" stroke-width="2.88"/>
<path fill-rule="evenodd" clip-rule="evenodd" d="M29.8666 35.2L23.4666 29.8666H72.5332L66.1332 35.2H29.8666ZM23.4666 29.8666V19.2H31.9999V23.4666H42.6666V19.2H53.3332V23.4666H63.9999V19.2H72.5332V29.8666H23.4666Z" fill="black"/>
<path d="M23.4666 29.8666L29.8666 35.2H66.1332L72.5332 29.8666M23.4666 29.8666H72.5332M23.4666 29.8666V19.2H31.9999V23.4666H42.6666V19.2H53.3332V23.4666H63.9999V19.2H72.5332V29.8666" stroke="black" stroke-width="2.88" stroke-linejoin="round"/>
<path d="M25.5999 75.7336H70.3999M27.7332 67.2003H68.2666M29.8666 62.9336H66.1332M29.8666 35.2003H66.1332M23.4666 29.8669H72.5332" stroke="white" stroke-width="1.92" stroke-linecap="round"/>
</svg>
