<svg width="96" height="96" viewBox="0 0 96 96" fill="none" xmlns="http://www.w3.org/2000/svg">
<path fill-rule="evenodd" clip-rule="evenodd" d="M19.2 83.1999H76.7999V76.7999H19.2V83.1999ZM25.6 76.7999V68.2666H70.3999V76.7999H25.6ZM23.4666 29.8666V19.2H32V23.4666H42.6666V19.2H53.3333V23.4666H63.9999V19.2H72.5333V29.8666" fill="white"/>
<path d="M23.4666 29.8666V19.2H32V23.4666H42.6666V19.2H53.3333V23.4666H63.9999V19.2H72.5333V29.8666M19.2 83.1999H76.7999V76.7999H19.2V83.1999ZM25.6 76.7999V68.2666H70.3999V76.7999H25.6Z" stroke="black" stroke-width="2.88" stroke-linejoin="round"/>
<path fill-rule="evenodd" clip-rule="evenodd" d="M72.5332 29.8669L66.1332 36.2669H29.8666L23.4666 29.8669" fill="white"/>
<path d="M72.5332 29.8669L66.1332 36.2669H29.8666L23.4666 29.8669" stroke="black" stroke-width="2.88" stroke-linecap="round" stroke-linejoin="round"/>
<path fill-rule="evenodd" clip-rule="evenodd" d="M66.1336 36.2666V62.9333H29.8669V36.2666" fill="white"/>
<path d="M66.1336 36.2666V62.9333H29.8669V36.2666" stroke="black" stroke-width="2.88"/>
<path fill-rule="evenodd" clip-rule="evenodd" d="M66.1334 62.9333L69.3334 68.2667H26.6667L29.8667 62.9333" fill="white"/>
<path d="M66.1334 62.9333L69.3334 68.2667H26.6667L29.8667 62.9333" stroke="black" stroke-width="2.88" stroke-linecap="round" stroke-linejoin="round"/>
<path d="M23.4666 29.8669H72.5332" stroke="black" stroke-width="2.88" stroke-linecap="round"/>
</svg>
