<svg width="760" height="760" viewBox="0 0 760 760" fill="none" xmlns="http://www.w3.org/2000/svg">
<rect width="760" height="760" fill="#F0D9B5"/>
<rect width="95" height="95" fill="#F0D9B5"/>
<path d="M190 0H95V95H190V0Z" fill="#B58863"/>
<rect x="190" width="95" height="95" fill="#F0D9B5"/>
<path d="M380 0H285V95H380V0Z" fill="#B58863"/>
<rect x="380" width="95" height="95" fill="#F0D9B5"/>
<path d="M570 0H475V95H570V0Z" fill="#B58863"/>
<rect x="570" width="95" height="95" fill="#F0D9B5"/>
<path d="M760 0H665V95H760V0Z" fill="#B58863"/>
<path d="M95 95H0V190H95V95Z" fill="#B58863"/>
<rect x="95" y="95" width="95" height="95" fill="#F0D9B5"/>
<path d="M285 95H190V190H285V95Z" fill="#B58863"/>
<rect x="285" y="95" width="95" height="95" fill="#F0D9B5"/>
<path d="M475 95H380V190H475V95Z" fill="#B58863"/>
<rect x="475" y="95" width="95" height="95" fill="#F0D9B5"/>
<path d="M665 95H570V190H665V95Z" fill="#B58863"/>
<rect x="665" y="95" width="95" height="95" fill="#F0D9B5"/>
<rect y="190" width="95" height="95" fill="#F0D9B5"/>
<path d="M190 190H95V285H190V190Z" fill="#B58863"/>
<rect x="190" y="190" width="95" height="95" fill="#F0D9B5"/>
<path d="M380 190H285V285H380V190Z" fill="#B58863"/>
<rect x="380" y="190" width="95" height="95" fill="#F0D9B5"/>
<path d="M570 190H475V285H570V190Z" fill="#B58863"/>
<rect x="570" y="190" width="95" height="95" fill="#F0D9B5"/>
<path d="M760 190H665V285H760V190Z" fill="#B58863"/>
<path d="M95 285H0V380H95V285Z" fill="#B58863"/>
<rect x="95" y="285" width="95" height="95" fill="#F0D9B5"/>
<path d="M285 285H190V380H285V285Z" fill="#B58863"/>
<rect x="285" y="285" width="95" height="95" fill="#F0D9B5"/>
<path d="M475 285H380V380H475V285Z" fill="#B58863"/>
<rect x="475" y="285" width="95" height="95" fill="#F0D9B5"/>
<path d="M665 285H570V380H665V285Z" fill="#B58863"/>
<rect x="665" y="285" width="95" height="95" fill="#F0D9B5"/>
<rect y="380" width="95" height="95" fill="#F0D9B5"/>
<path d="M190 380H95V475H190V380Z" fill="#B58863"/>
<rect x="190" y="380" width="95" height="95" fill="#F0D9B5"/>
<path d="M380 380H285V475H380V380Z" fill="#B58863"/>
<rect x="380" y="380" width="95" height="95" fill="#F0D9B5"/>
<path d="M570 380H475V475H570V380Z" fill="#B58863"/>
<rect x="570" y="380" width="95" height="95" fill="#F0D9B5"/>
<path d="M760 380H665V475H760V380Z" fill="#B58863"/>
<path d="M95 475H0V570H95V475Z" fill="#B58863"/>
<rect x="95" y="475" width="95" height="95" fill="#F0D9B5"/>
<path d="M285 475H190V570H285V475Z" fill="#B58863"/>
<rect x="285" y="475" width="95" height="95" fill="#F0D9B5"/>
<path d="M475 475H380V570H475V475Z" fill="#B58863"/>
<rect x="475" y="475" width="95" height="95" fill="#F0D9B5"/>
<path d="M665 475H570V570H665V475Z" fill="#B58863"/>
<rect x="665" y="475" width="95" height="95" fill="#F0D9B5"/>
<rect y="570" width="95" height="95" fill="#F0D9B5"/>
<path d="M190 570H95V665H190V570Z" fill="#B58863"/>
<rect x="190" y="570" width="95" height="95" fill="#F0D9B5"/>
<path d="M380 570H285V665H380V570Z" fill="#B58863"/>
<rect x="380" y="570" width="95" height="95" fill="#F0D9B5"/>
<path d="M570 570H475V665H570V570Z" fill="#B58863"/>
<rect x="570" y="570" width="95" height="95" fill="#F0D9B5"/>
<path d="M760 570H665V665H760V570Z" fill="#B58863"/>
<path d="M95 665H0V760H95V665Z" fill="#B58863"/>
<rect x="95" y="665" width="95" height="95" fill="#F0D9B5"/>
<path d="M285 665H190V760H285V665Z" fill="#B58863"/>
<rect x="285" y="665" width="95" height="95" fill="#F0D9B5"/>
<path d="M475 665H380V760H475V665Z" fill="#B58863"/>
<rect x="475" y="665" width="95" height="95" fill="#F0D9B5"/>
<path d="M665 665H570V760H665V665Z" fill="#B58863"/>
<rect x="665" y="665" width="95" height="95" fill="#F0D9B5"/>
</svg>
