<svg width="96" height="96" viewBox="0 0 96 96" fill="none" xmlns="http://www.w3.org/2000/svg">
<path d="M50.8025 58.8819H44.9354C44.9354 48.1086 48.2029 37.3534 55.4318 29.4808C56.5646 27.9389 57.2338 26.0352 57.2338 23.9752C57.2338 18.8343 53.0663 14.6667 47.9253 14.6667C42.7844 14.6667 38.6169 18.8343 38.6169 23.9752C38.6169 26.5116 39.6314 28.811 41.2767 30.4899C35.462 34.6352 24.6542 45.7463 24.6542 59.6576C24.6542 73.6965 35.6612 79.3802 41.4354 80.547L20 84.3391V95.3399L75.8507 95.34V84.3391L53.907 80.4905C59.7465 79.2051 70.4207 73.4827 70.4207 59.6576C70.4207 50.6052 66.2037 42.5357 61.07 36.6685C55.4318 41.0689 50.8025 51.3364 50.8025 58.8819Z" fill="black"/>
</svg>
