<svg width="96" height="96" viewBox="0 0 96 96" fill="none" xmlns="http://www.w3.org/2000/svg">
<g clip-path="url(#clip0_575_299288)">
<path fill-rule="evenodd" clip-rule="evenodd" d="M54.8749 28.133C54.4186 28.6299 53.9797 29.1394 53.5579 29.6608C49.5714 34.5881 47.1171 40.5662 46.0167 46.8591C45.5568 49.4887 45.3334 52.1732 45.3334 54.8591H50.6667C50.6667 50.553 52.3253 45.2718 54.828 40.9472C55.9901 38.9393 57.3342 37.1375 58.7787 35.7354C58.9909 35.5295 59.2052 35.3322 59.4214 35.1442C59.6129 34.9776 59.8058 34.8184 60.0001 34.6667C60.9275 35.7266 61.822 36.8656 62.66 38.0749C63.3559 39.079 64.0128 40.1317 64.6173 41.2278C66.9482 45.4546 68.5001 50.3285 68.5001 55.5642C68.5001 61.1347 66.5936 65.2581 64.0086 68.2246C60.7616 71.9505 56.4441 73.8511 53.4888 74.5017L73.436 78.0001V88.0001L22.6667 88.0001V78.0001L42.1519 74.553C39.2184 73.9602 34.7992 72.085 31.4713 68.3183C28.8445 65.3452 26.8975 61.1936 26.8975 55.5642C26.8975 46.9257 31.4821 39.4752 36.0726 34.4195C38.202 32.0742 40.3327 30.2444 42.0076 29.0503C41.3914 28.4215 40.8726 27.697 40.4755 26.9012C39.9087 25.7653 39.5898 24.484 39.5898 23.1283C39.5898 18.4551 43.3782 14.6667 48.0514 14.6667C52.7246 14.6667 56.5129 18.4551 56.5129 23.1283C56.5129 25.0009 55.9046 26.7314 54.8749 28.133ZM32.0608 27.0477C31.7532 25.7909 31.5898 24.478 31.5898 23.1283C31.5898 14.0368 38.9599 6.66675 48.0514 6.66675C57.1428 6.66675 64.5129 14.0368 64.5129 23.1283C64.5129 24.6994 64.2911 26.223 63.8772 27.667C64.6666 28.1041 65.3941 28.6826 66.0207 29.3987C71.5426 35.7095 76.5001 44.842 76.5001 55.5642C76.5001 61.3495 75.0239 66.0279 72.7816 69.7632L74.8179 70.1204C78.6447 70.7915 81.436 74.115 81.436 78.0001V88.0001C81.436 90.1218 80.5931 92.1567 79.0928 93.657C77.5925 95.1572 75.5577 96.0001 73.436 96.0001L22.6667 96.0001C18.2485 96.0001 14.6667 92.4184 14.6667 88.0001V78.0001C14.6667 74.1194 17.4518 70.7984 21.2731 70.1224L22.6793 69.8736C20.4006 66.1206 18.8975 61.4075 18.8975 55.5642C18.8975 47.1501 22.1553 39.9124 25.8581 34.4751C27.8038 31.6181 29.9637 29.1203 32.0608 27.0477Z" fill="black"/>
</g>
<defs>
<clipPath id="clip0_575_299288">
<rect width="96" height="96" fill="white"/>
</clipPath>
</defs>
</svg>
