<svg width="96" height="96" viewBox="0 0 96 96" fill="none" xmlns="http://www.w3.org/2000/svg">
<path fill-rule="evenodd" clip-rule="evenodd" d="M42.9669 10.6667H51.7666L51.9957 17.9998H60.5662V26.7994H52.2707L52.6737 36.7621C52.8345 36.5727 53.0001 36.3869 53.1708 36.2055C61.1831 27.6898 73.0627 23.1582 81.8321 30.466C90.6317 37.799 90.6317 54.665 78.5156 64.4196C71.6523 69.9453 65.5048 75.2722 65.8077 83.0632L78.1354 84.7305V95.73H16.5981V84.7305L28.9258 83.0632C29.2287 75.2722 23.0812 69.9453 16.2179 64.4196C4.10179 54.665 4.10179 37.799 12.9014 30.466C21.6708 23.1582 33.5504 27.6898 41.5627 36.2055C41.7334 36.3869 41.899 36.5727 42.0598 36.7621L42.4628 26.7994H34.1673V17.9998H42.7378L42.9669 10.6667ZM34.6777 44.3594C40.0553 53.1678 40.767 63.4647 40.767 67.9425C38.0716 67.9474 27.9105 63.4771 22.5307 56.1384C18.6576 50.8551 17.6477 43.0164 20.9678 39.9732C24.2879 36.9301 31.3167 38.8541 34.6777 44.3594ZM60.0558 44.3594C54.6782 53.1678 53.9665 63.4647 53.9665 67.9425C56.6619 67.9474 66.823 63.4771 72.2028 56.1384C76.0759 50.8551 77.0858 43.0164 73.7657 39.9732C70.4456 36.9301 63.4168 38.8541 60.0558 44.3594Z" fill="black"/>
</svg>
