<svg width="96" height="96" viewBox="0 0 96 96" fill="none" xmlns="http://www.w3.org/2000/svg">
<g clip-path="url(#clip0_575_299290)">
<path d="M43.333 62.5988L43.3333 62.7377H43.3253C41.9968 62.7353 38.7005 61.5518 35.1791 59.4157C32.1735 57.5924 29.0039 55.0752 26.7541 52.0063C23.233 47.203 22.3149 40.0767 25.3333 37.3101C28.3517 34.5435 34.7418 36.2926 37.7973 41.2976C40.4017 45.5635 41.8023 50.2134 42.5426 54.243C43.1764 57.693 43.3262 60.6884 43.333 62.5988Z" fill="black"/>
<path d="M71.9124 52.0063C69.6627 55.0752 66.4931 57.5924 63.4875 59.4157C59.9661 61.5518 56.6698 62.7353 55.3413 62.7377H55.3333L55.3335 62.5988C55.3404 60.6883 55.4902 57.693 56.124 54.243C56.8643 50.2134 58.2649 45.5635 60.8693 41.2976C63.9248 36.2926 70.3149 34.5435 73.3333 37.3101C76.3517 40.0767 75.4336 47.203 71.9124 52.0063Z" fill="black"/>
<path fill-rule="evenodd" clip-rule="evenodd" d="M45.3333 2.66675C41.3806 2.66675 38.0813 5.53798 37.4443 9.33341H37.3333C32.915 9.33341 29.3333 12.9151 29.3333 17.3334V17.4475C23.7684 16.9296 17.9421 18.3013 12.8785 22.521C0.282129 33.0179 1.80919 54.3429 15.9981 65.7664C17.9904 67.3704 19.6177 68.7285 20.9242 69.9863L20.2885 70.0723C16.3207 70.6089 13.3607 73.9962 13.3607 78.0001V88.0001C13.3607 92.4184 16.9424 96.0001 21.3607 96.0001H77.3059C81.7242 96.0001 85.3059 92.4184 85.3059 88.0001V78.0001C85.3059 73.9962 82.3459 70.6089 78.3781 70.0723L77.7424 69.9863C79.0489 68.7285 80.6762 67.3704 82.6685 65.7664C96.8574 54.3429 98.3844 33.0179 85.7881 22.521C80.7245 18.3013 74.8982 16.9296 69.3333 17.4475V17.3334C69.3333 12.9151 65.7516 9.33341 61.3333 9.33341H61.2223C60.5852 5.53798 57.286 2.66675 53.3333 2.66675H45.3333ZM69.3316 25.4972C73.2965 24.9453 77.2424 25.8132 80.6666 28.6667C88.6666 35.3334 88.6666 50.6667 77.6516 59.535C73.9763 62.4939 70.5268 65.3902 68.3685 68.7185C67.6455 69.8335 67.0673 70.997 66.6742 72.2276C66.2485 73.5599 66.0396 74.971 66.0984 76.4843L77.3059 78.0001V88.0001H21.3607V78.0001L32.5681 76.4843C32.627 74.971 32.4181 73.5599 31.9924 72.2275C31.5993 70.997 31.0211 69.8335 30.2981 68.7185C28.1398 65.3902 24.6903 62.4939 21.015 59.535C9.99995 50.6667 9.99995 35.3334 17.9999 28.6667C21.4242 25.8132 25.3701 24.9453 29.3349 25.4972C31.8435 25.8464 34.3597 26.7639 36.7562 28.1065C36.9494 28.2147 37.1418 28.3256 37.3333 28.4393C39.5442 29.7512 41.6426 31.4211 43.526 33.3334C43.7049 33.515 43.8818 33.6988 44.0567 33.8847C44.2118 34.0496 44.3624 34.2185 44.5086 34.3907L44.875 25.3334H37.3333V17.3334H45.125L45.3333 10.6667H53.3333L53.5416 17.3334H61.3333V25.3334H53.7916L54.158 34.3907C54.3042 34.2185 54.4547 34.0496 54.6099 33.8847C54.7848 33.6988 54.9617 33.515 55.1406 33.3334C57.024 31.4211 59.1224 29.7512 61.3333 28.4393C61.5248 28.3256 61.7172 28.2147 61.9103 28.1065C64.3068 26.7639 66.8231 25.8464 69.3316 25.4972Z" fill="black"/>
</g>
<defs>
<clipPath id="clip0_575_299290">
<rect width="96" height="96" fill="white"/>
</clipPath>
</defs>
</svg>
