<svg width="96" height="96" viewBox="0 0 96 96" fill="none" xmlns="http://www.w3.org/2000/svg">
<path fill-rule="evenodd" clip-rule="evenodd" d="M49.1285 5.45967C47.4037 3.44792 44.7946 2.42082 42.1612 2.71693C39.5279 3.01304 37.2121 4.59393 35.9771 6.9385C34.752 9.26423 33.5518 12.4336 33.0657 15.9005C32.9426 16.7781 32.8586 17.728 32.8427 18.7264C25.7273 22.7099 19.5184 30.4569 16.4449 42.7507C16.2295 43.6124 15.9907 44.0502 15.7757 44.3728C15.4729 44.8269 15.0832 45.2674 14.0855 46.3292C12.1444 48.3951 9.42735 51.2878 6.9424 56.6718C3.15012 64.8884 6.49523 73.236 12.4476 77.474C15.9504 79.9679 20.3002 81.0572 24.6342 80.3681C23.9555 83.2713 23.7203 85.9042 23.8248 87.7981C24.0587 92.0388 27.5655 95.3576 31.8126 95.3576H81.5394C85.9577 95.3576 89.5394 91.7759 89.5394 87.3576C89.5394 71.5605 88.5273 55.8173 84.2499 43.27C80.1486 31.2395 72.6004 21.0957 59.4651 17.5156L49.1285 5.45967ZM14.2061 60.0243C16.1477 55.8174 18.1628 53.6728 19.9157 51.8073C21.7739 49.8296 23.3374 48.1657 24.2061 44.691C26.4498 35.7159 30.4298 30.2272 34.6211 27.0963C36.0338 26.0411 37.4705 25.2537 38.8727 24.691C39.7447 24.341 40.8719 24.1415 42.0515 24.0365C41.4151 22.9321 41.0613 21.7163 40.917 20.4637C40.7501 19.0153 40.8634 17.5177 41.1439 16.0863C41.5472 14.0286 42.2962 12.1078 43.0552 10.6668L55.1003 24.7156C75.4672 28.5491 80.6892 51.5024 81.438 79.3576C81.5086 81.9846 81.5394 84.6553 81.5394 87.3576H31.8126C31.7972 87.0769 31.7962 86.7396 31.8126 86.3541C31.8837 84.6926 32.2799 82.1362 33.243 79.3576C33.8679 77.5549 34.7314 75.6587 35.8995 73.8526C37.4275 71.4902 39.4768 69.282 42.1952 67.639C42.4658 67.4754 42.7283 67.3086 42.9831 67.1388C50.9597 61.8232 51.2744 53.5804 50.3919 50.0243C48.4776 57.8916 45.0887 59.4921 40.4143 61.6997C39.9584 61.915 39.4903 62.1361 39.0102 62.3693C36.3117 63.6801 33.2325 65.3747 29.8038 68.5848C29.4962 68.8728 29.1859 69.1729 28.8728 69.4861C21.0012 77.3576 10.2061 68.691 14.2061 60.0243Z" fill="black"/>
</svg>
