<svg width="96" height="96" viewBox="0 0 96 96" fill="none" xmlns="http://www.w3.org/2000/svg">
<g clip-path="url(#clip0_575_299283)">
<path fill-rule="evenodd" clip-rule="evenodd" d="M56.6014 27.4549L43.3507 12C41.4326 15.6414 39.5731 22.0683 42.2466 26.7078C40.949 26.8233 39.7089 27.0428 38.7497 27.4278C32.63 29.8836 25.9153 36.2285 22.6151 49.4295C21.6594 53.252 19.9395 55.0825 17.8952 57.2581C15.9669 59.3103 13.7501 61.6696 11.6142 66.2975C7.21383 75.8316 19.0894 85.3657 27.7488 76.7063C32.6172 71.8379 36.8727 69.8281 40.4455 68.1407C45.5878 65.712 49.3159 63.9513 51.4217 55.2966C52.4236 59.3337 52.0229 68.861 42.4046 74.6743C32.7864 80.4876 30.7826 92.7332 30.9829 96.3665H85.6868C85.6868 61.8726 81.1199 32.0698 56.6014 27.4549Z" fill="black"/>
</g>
<defs>
<clipPath id="clip0_575_299283">
<rect width="96" height="96" fill="white"/>
</clipPath>
</defs>
</svg>
