<svg width="96" height="96" viewBox="0 0 96 96" fill="none" xmlns="http://www.w3.org/2000/svg">
<g clip-path="url(#clip0_575_299286)">
<path fill-rule="evenodd" clip-rule="evenodd" d="M77.3024 68.1942L76.8865 67.9566C74.5946 66.6469 70.9817 64.0974 68.0695 61.0354L67.9632 60.9231C69.5843 59.4591 70.6031 57.3406 70.6031 54.9842V46.3026C70.6031 43.7032 69.3402 41.2658 67.2166 39.7668L66.7389 39.4297C67.6349 37.082 68.1269 34.5339 68.1269 31.8731C68.1269 20.1612 58.6325 10.6667 46.9206 10.6667C35.2086 10.6667 25.7142 20.1612 25.7142 31.8731C25.7142 34.7085 26.2726 37.4153 27.2831 39.8879C25.2603 41.395 24.0634 43.772 24.0634 46.3026V54.9842C24.0634 57.3406 25.0822 59.4591 26.7033 60.9231L26.597 61.0354C23.6848 64.0974 20.0719 66.6469 17.78 67.9565L17.3641 68.1942C14.8715 69.6186 13.3333 72.2693 13.3333 75.1401V88.0001C13.3333 92.4184 16.915 96.0001 21.3333 96.0001H73.3333C77.7515 96.0001 81.3333 92.4184 81.3333 88.0001V75.1401C81.3333 72.2693 79.795 69.6186 77.3024 68.1942ZM38.3142 41.8903C36.6733 40.4792 35.3831 38.672 34.5918 36.617C34.025 35.1447 33.7142 33.5452 33.7142 31.8731C33.7142 24.5794 39.6269 18.6667 46.9206 18.6667C54.2142 18.6667 60.1269 24.5794 60.1269 31.8731C60.1269 33.7173 59.7489 35.4731 59.0662 37.0675C58.3309 38.7845 57.2422 40.3141 55.8915 41.5649L62.6031 46.3026V54.9842H56.0327C56.2467 57.7026 57.4944 60.4225 59.3114 62.9842C60.1843 64.2148 61.1885 65.4088 62.2726 66.5487C65.8184 70.2768 70.0843 73.2836 72.9174 74.9025L73.3333 75.1401V88.0001H21.3333V75.1401L21.7491 74.9025C24.5822 73.2836 28.8482 70.2768 32.3939 66.5487C33.478 65.4088 34.4822 64.2148 35.3551 62.9842C37.1721 60.4225 38.4198 57.7026 38.6338 54.9842H32.0634V46.3026L38.3142 41.8903Z" fill="black"/>
</g>
<defs>
<clipPath id="clip0_575_299286">
<rect width="96" height="96" fill="white"/>
</clipPath>
</defs>
</svg>
