<svg width="96" height="96" viewBox="0 0 96 96" fill="none" xmlns="http://www.w3.org/2000/svg">
<g clip-path="url(#clip0_575_299280)">
<path d="M62.673 34.527C62.673 38.7402 60.8794 42.5345 58.014 45.188L65.3968 50.3994V59.9492H58.1694C58.5179 64.3758 61.3581 68.8059 65.0333 72.6702C68.9336 76.7711 73.6262 80.0785 76.7425 81.8593L77.2 82.1207V96.2667H20V82.1207L20.4575 81.8593C23.5738 80.0785 28.2664 76.7711 32.1667 72.6702C35.8419 68.8059 38.6821 64.3758 39.0307 59.9492H31.8032V50.3994L38.679 45.5459C35.581 42.8817 33.6191 38.9335 33.6191 34.527C33.6191 26.504 40.123 20 48.146 20C56.1691 20 62.673 26.504 62.673 34.527Z" fill="black"/>
</g>
<defs>
<clipPath id="clip0_575_299280">
<rect width="96" height="96" fill="white"/>
</clipPath>
</defs>
</svg>
