<svg width="96" height="96" viewBox="0 0 96 96" fill="none" xmlns="http://www.w3.org/2000/svg">
<path d="M37.5658 26.18C40.3154 25.1222 42.2667 22.4556 42.2667 19.3333C42.2667 15.2832 38.9835 12 34.9334 12C30.8833 12 27.6001 15.2832 27.6001 19.3333C27.6001 23.0761 30.4039 26.1639 34.0257 26.611L30.7553 53.0667L14.99 39.374C16.4315 38.0348 17.3334 36.1227 17.3334 34C17.3334 29.9499 14.0502 26.6667 10.0001 26.6667C5.94999 26.6667 2.66675 29.9499 2.66675 34C2.66675 38.0501 5.94999 41.3334 10.0001 41.3334C10.713 41.3334 11.4022 41.2316 12.0539 41.0418L20.2667 69.2L28.7597 83.0975L20.2667 84.6V95.6L76.1129 95.6V84.6L67.5109 83.0914L76.0001 69.2L84.2129 41.0418C84.8646 41.2316 85.5538 41.3334 86.2667 41.3334C90.3168 41.3334 93.6001 38.0501 93.6001 34C93.6001 29.9499 90.3168 26.6667 86.2667 26.6667C82.2167 26.6667 78.9334 29.9499 78.9334 34C78.9334 36.1227 79.8353 38.0348 81.2769 39.374L65.5115 53.0667L62.2412 26.611C65.8629 26.1639 68.6667 23.0761 68.6667 19.3333C68.6667 15.2832 65.3835 12 61.3334 12C57.2833 12 54.0001 15.2832 54.0001 19.3333C54.0001 22.4556 55.9514 25.1222 58.701 26.18L48.1334 50.1333L37.5658 26.18Z" fill="black"/>
</svg>
