<svg width="96" height="96" viewBox="0 0 96 96" fill="none" xmlns="http://www.w3.org/2000/svg">
<g clip-path="url(#clip0_575_299291)">
<path fill-rule="evenodd" clip-rule="evenodd" d="M42.2795 23.4783C42.6213 22.6905 42.8108 21.8215 42.8108 20.9083C42.8108 17.3331 39.9067 14.4349 36.3243 14.4349C32.7419 14.4349 29.8378 17.3331 29.8378 20.9083C29.8378 22.3833 30.3322 23.7431 31.1645 24.8317C32.1961 26.1809 33.7469 27.1134 35.5194 27.3324L35.5214 27.3326L32.6287 50.6861L18.6839 38.599C19.0248 38.2829 19.3316 37.9307 19.5982 37.5485C20.3284 36.5012 20.7566 35.2284 20.7568 33.8559C20.7568 30.2807 17.8527 27.3817 14.2703 27.3817C10.6879 27.3817 7.78378 30.28 7.78378 33.8552C7.78378 36.2165 9.05062 38.2825 10.943 39.4132C11.9158 39.9945 13.0539 40.3286 14.2703 40.3286C14.9009 40.3286 15.5105 40.2388 16.087 40.0713L23.3514 64.9276L30.8635 77.1955L23.3514 78.5218V88.232L72.7484 88.232V78.5218L65.1398 77.1901L72.6486 64.9276L79.913 40.0713C80.4895 40.2388 81.0991 40.3286 81.7297 40.3286C82.946 40.3286 84.0842 39.9945 85.057 39.4132C86.9494 38.2825 88.2162 36.2165 88.2162 33.8552C88.2162 30.28 85.3121 27.3817 81.7297 27.3817C78.1473 27.3817 75.2432 30.28 75.2432 33.8552C75.2434 35.2277 75.6716 36.5012 76.4018 37.5485C76.6684 37.9307 76.9752 38.2829 77.3161 38.599L63.3713 50.6861L60.4786 27.3326L60.4806 27.3324C62.2531 27.1134 63.8039 26.1809 64.8355 24.8317C65.6678 23.7431 66.1622 22.3833 66.1622 20.9083C66.1622 17.3331 63.2581 14.4349 59.6757 14.4349C56.0933 14.4349 53.1892 17.3331 53.1892 20.9083C53.1892 21.8215 53.3787 22.6905 53.7205 23.4783C54.328 24.8785 55.4168 26.0222 56.7786 26.7018C56.9633 26.7939 57.153 26.8776 57.3473 26.9522L48 48.0967L38.6527 26.9522C38.8469 26.8776 39.0367 26.7939 39.2214 26.7018C40.5832 26.0222 41.672 24.8785 42.2795 23.4783ZM48 12.7179C45.4174 9.0579 41.1507 6.66675 36.3243 6.66675C28.4431 6.66675 22.0541 13.0429 22.0541 20.9083C22.0541 21.2556 22.0665 21.5999 22.0909 21.9409C19.8449 20.4695 17.1577 19.6136 14.2703 19.6136C6.38902 19.6136 0 25.9898 0 33.8552C0 40.2902 4.27656 45.7284 10.148 47.4935L15.8789 67.1027C16.0715 67.7618 16.3509 68.3925 16.7096 68.9783L18.7268 72.2726C16.7932 73.6993 15.5676 75.9876 15.5676 78.5218V88.232C15.5676 92.5222 19.0525 96.0001 23.3513 96.0001L72.7484 96.0001C74.8128 96.0001 76.7927 95.1817 78.2524 93.7249C79.7121 92.2681 80.5322 90.2922 80.5322 88.232V78.5218C80.5322 75.9574 79.2773 73.645 77.304 72.2222L79.2904 68.9783C79.6491 68.3925 79.9285 67.7618 80.1211 67.1027L85.852 47.4935C91.7234 45.7284 96 40.2902 96 33.8552C96 25.9898 89.611 19.6136 81.7297 19.6136C78.8423 19.6136 76.1551 20.4695 73.909 21.9409C73.9335 21.5999 73.9459 21.2556 73.9459 20.9083C73.9459 13.0429 67.5569 6.66675 59.6757 6.66675C54.8493 6.66675 50.5826 9.0579 48 12.7179Z" fill="black"/>
</g>
<defs>
<clipPath id="clip0_575_299291">
<rect width="96" height="96" fill="white"/>
</clipPath>
</defs>
</svg>
