<svg width="96" height="96" viewBox="0 0 96 96" fill="none" xmlns="http://www.w3.org/2000/svg">
<path fill-rule="evenodd" clip-rule="evenodd" d="M39.9999 17.3333V25.3333H34.6666V17.3333H21.3333V29.3333L31.9999 37.3333L29.3333 61.3333H65.3333L62.6666 37.3333L73.3332 29.3333V17.3333H59.9999V25.3333H54.6666V17.3333H39.9999ZM57.3333 9.78847C58.1673 9.49366 59.0649 9.33325 59.9999 9.33325H73.3332C77.7515 9.33325 81.3332 12.915 81.3332 17.3333V29.3333C81.3332 31.8513 80.1477 34.2224 78.1333 35.7333L71.1223 40.9915L73.2843 60.4498C73.4022 61.5104 73.3056 62.571 73.0133 63.5733L79.7333 72.5333C80.7718 73.918 81.3333 75.6023 81.3333 77.3333V87.9999C81.3333 92.4182 77.7515 95.9999 73.3333 95.9999H21.3333C16.915 95.9999 13.3333 92.4182 13.3333 87.9999V77.3333C13.3333 75.6023 13.8947 73.918 14.9333 72.5333L21.6533 63.5733C21.3609 62.571 21.2643 61.5104 21.3822 60.4498L23.5442 40.9915L16.5333 35.7333C14.5188 34.2224 13.3333 31.8513 13.3333 29.3333V17.3333C13.3333 12.915 16.915 9.33325 21.3333 9.33325H34.6666C35.6016 9.33325 36.4992 9.49366 37.3333 9.78847C38.1673 9.49366 39.0649 9.33325 39.9999 9.33325H54.6666C55.6016 9.33325 56.4992 9.49366 57.3333 9.78847ZM21.3333 77.3333V87.9999H73.3333V77.3333L65.3333 66.6666H29.3333L21.3333 77.3333Z" fill="black"/>
</svg>
