<svg width="24" height="24" viewBox="0 0 24 24" fill="none" xmlns="http://www.w3.org/2000/svg">
<path d="M7.04967 7.4188C9.78256 4.68592 14.2172 4.68592 16.9501 7.4188C19.683 10.1517 19.683 14.5863 16.9501 17.3192C14.2172 20.0521 9.78255 20.0521 7.04967 17.3192C4.31678 14.5863 4.31678 10.1517 7.04967 7.4188ZM15.8895 8.47935C13.7424 6.33226 10.2573 6.33225 8.11022 8.47935C5.96311 10.6265 5.96311 14.1115 8.11022 16.2586C10.2573 18.4057 13.7424 18.4057 15.8895 16.2586C18.0366 14.1115 18.0366 10.6265 15.8895 8.47935Z" fill="currentColor"/>
<path d="M2.18785 10.3852C2.59831 10.4384 2.88813 10.8145 2.83531 11.225C2.60106 13.0383 2.89534 14.93 3.80114 16.6596L3.99059 17.0033V17.0043C5.0637 18.8637 6.68086 20.2032 8.52965 20.9428C8.91411 21.0966 9.10118 21.5329 8.94762 21.9174C8.7938 22.3019 8.35758 22.4891 7.97301 22.3354C5.82194 21.4749 3.9386 19.9147 2.69176 17.7543C1.46582 15.6354 1.05706 13.2789 1.34703 11.0336C1.4001 10.6228 1.77705 10.3321 2.18785 10.3852Z" fill="currentColor"/>
<path d="M12.0019 1.60938C14.4446 1.60946 16.6926 2.43851 18.4961 3.8125C18.8255 4.06353 18.8887 4.53478 18.6377 4.86426C18.3865 5.19335 17.9162 5.25678 17.5869 5.00586C16.0305 3.82011 14.0988 3.10946 12.0019 3.10938C9.85574 3.10938 7.88657 3.83957 6.31344 5.07031C5.98721 5.32531 5.51587 5.26756 5.2607 4.94141C5.00558 4.61517 5.06342 4.14387 5.38961 3.88867C7.21646 2.45948 9.50815 1.60938 12.0019 1.60938Z" fill="currentColor"/>
<path d="M21.8135 10.3852C22.2243 10.3321 22.6012 10.6228 22.6543 11.0336C22.9443 13.2791 22.5358 15.6363 21.3095 17.7553L21.3086 17.7543C20.0617 19.9145 18.1792 21.475 16.0283 22.3354C15.6437 22.4891 15.2075 22.3019 15.0537 21.9174C14.9001 21.5329 15.0872 21.0966 15.4717 20.9428C17.3204 20.2032 18.9376 18.8637 20.0107 17.0043V17.0033C21.0643 15.1825 21.4159 13.1593 21.166 11.225C21.1132 10.8145 21.403 10.4384 21.8135 10.3852Z" fill="currentColor"/>
</svg>
