<svg width="24" height="24" viewBox="0 0 24 24" fill="none" xmlns="http://www.w3.org/2000/svg">
<path d="M7.5 7.125C7.5 6.08954 6.66045 5.25004 5.625 5.25C4.58951 5.25 3.75 6.08951 3.75 7.125C3.75004 8.16045 4.58954 9 5.625 9C6.66043 8.99996 7.49996 8.16043 7.5 7.125ZM9 7.125C8.99996 8.98886 7.48886 10.5 5.625 10.5C3.76111 10.5 2.25004 8.98888 2.25 7.125C2.25 5.26108 3.76108 3.75 5.625 3.75C7.48888 3.75004 9 5.26111 9 7.125Z" fill="currentColor"/>
<path d="M7.5 16.875C7.5 15.8395 6.66045 15 5.625 15C4.58951 15 3.75 15.8395 3.75 16.875C3.75004 17.9105 4.58954 18.75 5.625 18.75C6.66043 18.75 7.49996 17.9104 7.5 16.875ZM9 16.875C8.99996 18.7389 7.48886 20.25 5.625 20.25C3.76111 20.25 2.25004 18.7389 2.25 16.875C2.25 15.0111 3.76108 13.5 5.625 13.5C7.48888 13.5 9 15.0111 9 16.875Z" fill="currentColor"/>
<path d="M12.3245 11.381C12.6662 11.1473 13.1325 11.2348 13.3665 11.5763C13.6004 11.9181 13.513 12.3853 13.1712 12.6192L8.21315 16.0118C7.87131 16.2457 7.40409 16.1583 7.17018 15.8165C6.9363 15.4747 7.0237 15.0074 7.36549 14.7735L12.3245 11.381Z" fill="currentColor"/>
<path d="M21.3263 5.22291C21.6681 4.98906 22.1353 5.07639 22.3692 5.41822C22.6031 5.76007 22.5148 6.22729 22.1729 6.46119L15.8302 10.801C15.4883 11.0349 15.0211 10.9476 14.7872 10.6057C14.5535 10.264 14.641 9.79769 14.9825 9.56373L21.3263 5.22291Z" fill="currentColor"/>
<path d="M7.17016 8.18285C7.40409 7.84112 7.87132 7.75367 8.21313 7.98754L22.1711 17.5383C22.5129 17.7722 22.6002 18.2385 22.3664 18.5803C22.1326 18.922 21.6663 19.0102 21.3245 18.7766L7.36547 9.22582C7.02373 8.99189 6.93629 8.52466 7.17016 8.18285Z" fill="currentColor"/>
</svg>
