<svg width="24" height="24" viewBox="0 0 24 24" fill="none" xmlns="http://www.w3.org/2000/svg">
<path d="M5.99902 5.25C6.41324 5.25 6.74902 5.58579 6.74902 6C6.74902 6.41421 6.41324 6.75 5.99902 6.75H2.25C1.83579 6.75 1.5 6.41421 1.5 6C1.5 5.58579 1.83579 5.25 2.25 5.25H5.99902Z" fill="currentColor"/>
<path d="M5.25 2.25C5.25 1.83579 5.58579 1.5 6 1.5C6.41421 1.5 6.75 1.83579 6.75 2.25V17.25H21.75C22.164 17.2503 22.5 17.5859 22.5 18C22.4998 18.4139 22.1639 18.7497 21.75 18.75H6C5.58591 18.75 5.2502 18.414 5.25 18V2.25Z" fill="currentColor"/>
<path d="M17.25 15V6.75H9C8.58579 6.75 8.25 6.41421 8.25 6C8.25 5.58579 8.58579 5.25 9 5.25H18C18.4142 5.25 18.75 5.58579 18.75 6V15C18.7499 15.4141 18.4142 15.75 18 15.75C17.5861 15.7497 17.2501 15.414 17.25 15Z" fill="currentColor"/>
<path d="M17.25 21.749V17.999C17.25 17.5848 17.5858 17.249 18 17.249C18.4142 17.249 18.75 17.5848 18.75 17.999V21.749C18.7499 22.1632 18.4142 22.499 18 22.499C17.5858 22.499 17.2501 22.1632 17.25 21.749Z" fill="currentColor"/>
</svg>
