<svg width="24" height="24" viewBox="0 0 24 24" fill="none" xmlns="http://www.w3.org/2000/svg">
<path d="M15.0986 4.19922C15.0984 4.14417 15.0531 4.09961 14.998 4.09961H8.99805C8.94313 4.09982 8.89865 4.1443 8.89844 4.19922V19.7998C8.89854 19.8548 8.94306 19.8992 8.99805 19.8994H14.998C15.0532 19.8994 15.0985 19.8549 15.0986 19.7998V4.19922ZM16.0986 19.7998C16.0985 20.4072 15.6055 20.8994 14.998 20.8994H8.99805C8.39078 20.8992 7.89854 20.4071 7.89844 19.7998V4.19922C7.89865 3.59201 8.39084 3.09982 8.99805 3.09961H14.998C15.6054 3.09961 16.0984 3.59189 16.0986 4.19922V19.7998Z" fill="currentColor"/>
<path d="M15.5996 6.09961C15.8758 6.09961 16.0996 6.32347 16.0996 6.59961C16.0996 6.87575 15.8758 7.09961 15.5996 7.09961H12C11.7239 7.09961 11.5 6.87575 11.5 6.59961C11.5 6.32347 11.7239 6.09961 12 6.09961H15.5996Z" fill="currentColor"/>
<path d="M15.5996 8.7998C15.8756 8.80002 16.0996 9.02379 16.0996 9.2998C16.0996 9.57582 15.8756 9.79959 15.5996 9.7998H13.1992C12.9231 9.7998 12.6992 9.57595 12.6992 9.2998C12.6992 9.02366 12.9231 8.7998 13.1992 8.7998H15.5996Z" fill="currentColor"/>
<path d="M15.5996 11.5C15.8758 11.5 16.0996 11.7239 16.0996 12C16.0996 12.2761 15.8758 12.5 15.5996 12.5H12C11.7239 12.5 11.5 12.2761 11.5 12C11.5 11.7239 11.7239 11.5 12 11.5H15.5996Z" fill="currentColor"/>
<path d="M15.5996 14.2002C15.8756 14.2004 16.0996 14.4242 16.0996 14.7002C16.0996 14.9762 15.8756 15.2 15.5996 15.2002H13.1992C12.9231 15.2002 12.6992 14.9763 12.6992 14.7002C12.6992 14.4241 12.9231 14.2002 13.1992 14.2002H15.5996Z" fill="currentColor"/>
<path d="M15.5996 16.9004C15.8758 16.9004 16.0996 17.1242 16.0996 17.4004C16.0996 17.6765 15.8758 17.9004 15.5996 17.9004H12C11.7239 17.9004 11.5 17.6765 11.5 17.4004C11.5 17.1242 11.7239 16.9004 12 16.9004H15.5996Z" fill="currentColor"/>
</svg>
