<svg width="24" height="24" viewBox="0 0 24 24" fill="none" xmlns="http://www.w3.org/2000/svg">
<path d="M15.6943 15.8887C15.6942 15.1984 15.1346 14.6387 14.4443 14.6387H9.55566C8.86538 14.6387 8.30578 15.1984 8.30566 15.8887V19.25H15.6943V15.8887ZM6.80566 6.44434V4.75977C5.65407 4.85835 4.75001 5.82288 4.75 7V17C4.75 18.1771 5.65411 19.1406 6.80566 19.2393V15.8887C6.80578 14.37 8.03695 13.1387 9.55566 13.1387H14.4443C15.963 13.1387 17.1942 14.37 17.1943 15.8887V19.2393C18.3459 19.1406 19.25 18.1771 19.25 17V9.6875C19.25 9.09076 19.0128 8.51766 18.5908 8.0957L15.9043 5.40918C15.4823 4.98722 14.9092 4.75 14.3125 4.75H8.30566V6.44434C8.30566 7.13469 8.86531 7.69434 9.55566 7.69434H14.667C15.081 7.69452 15.4169 8.03029 15.417 8.44434C15.417 8.85844 15.081 9.19415 14.667 9.19434H9.55566C8.03688 9.19434 6.80566 7.96312 6.80566 6.44434ZM3.25 7C3.25001 4.92895 4.92894 3.25001 7 3.25H14.3125C15.3071 3.25 16.2616 3.64537 16.9648 4.34863L19.6514 7.03516C20.3546 7.73842 20.75 8.69294 20.75 9.6875V17C20.75 19.0711 19.0711 20.75 17 20.75H7C4.92893 20.75 3.25 19.0711 3.25 17V7Z" fill="currentColor"/>
</svg>
