<svg width="24" height="24" viewBox="0 0 24 24" fill="none" xmlns="http://www.w3.org/2000/svg">
<path d="M2.29204 2.29283C2.68258 1.90243 3.31562 1.90235 3.70611 2.29283L6.74615 5.33287C8.30766 4.48272 10.0982 3.9999 11.9991 3.99986C16.9259 3.99986 21.0937 7.23828 22.4952 11.7001C22.5564 11.8951 22.5564 12.1046 22.4952 12.2997C21.8424 14.3778 20.5887 16.1858 18.9415 17.5282L21.7061 20.2928C22.0965 20.6833 22.0965 21.3164 21.7061 21.7069C21.3156 22.0974 20.6826 22.0973 20.292 21.7069L2.29204 3.70689C1.90152 3.31637 1.90152 2.68336 2.29204 2.29283ZM3.22271 8.36803C3.55598 7.92763 4.18368 7.84042 4.62408 8.17369C5.0642 8.50698 5.15051 9.13378 4.81744 9.57408C4.2647 10.3045 3.82233 11.122 3.51177 12.0008C4.74778 15.4968 8.08223 17.9998 11.9991 17.9999C12.5769 17.9999 13.1415 17.9452 13.6876 17.8417C14.2301 17.7389 14.7536 18.096 14.8565 18.6385C14.9591 19.181 14.6021 19.7036 14.0596 19.8065C13.3914 19.9332 12.7025 19.9999 11.9991 19.9999C7.0723 19.9998 2.90441 16.7615 1.50298 12.2997C1.44172 12.1046 1.44171 11.8951 1.50298 11.7001C1.88485 10.4843 2.47193 9.3602 3.22271 8.36803ZM13.9991 11.9999C13.9991 10.8954 13.1035 10 11.9991 9.99986C11.8202 9.99986 11.6473 10.0253 11.4825 10.0692L13.9288 12.5155C13.9726 12.3508 13.9991 12.1786 13.9991 11.9999ZM15.9991 11.9999C15.9991 12.741 15.7949 13.4348 15.4434 14.0301L17.5206 16.1073C18.8679 15.059 19.9076 13.6364 20.4864 11.9979C19.2501 8.50243 15.9156 5.99986 11.9991 5.99986C10.6541 5.99989 9.37904 6.29329 8.23443 6.82115L9.96685 8.55357C10.5623 8.2019 11.2577 7.99986 11.9991 7.99986C14.2081 8 15.9991 9.79081 15.9991 11.9999Z" fill="currentColor"/>
</svg>
