<svg width="24" height="24" viewBox="0 0 24 24" fill="none" xmlns="http://www.w3.org/2000/svg">
<path d="M11.9991 4C16.9259 4 21.0937 7.23841 22.4952 11.7002C22.5564 11.8953 22.5564 12.1047 22.4952 12.2998C21.0937 16.7616 16.9259 20 11.9991 20C7.0723 19.9999 2.90441 16.7616 1.50298 12.2998C1.44172 12.1047 1.44171 11.8953 1.50298 11.7002C2.90441 7.23841 7.07229 4.00009 11.9991 4ZM11.9991 6C8.0819 6.00008 4.74753 8.50361 3.51177 12C4.74753 15.4964 8.0819 17.9999 11.9991 18C15.9163 18 19.2506 15.4964 20.4864 12C19.2506 8.50361 15.9163 6 11.9991 6ZM13.9991 12C13.9991 10.8955 13.1035 10.0001 11.9991 10C10.8945 10 9.99908 10.8954 9.99908 12C9.99908 13.1046 10.8945 14 11.9991 14C13.1035 13.9999 13.9991 13.1045 13.9991 12ZM15.9991 12C15.9991 14.2091 14.2081 15.9999 11.9991 16C9.78994 16 7.99908 14.2091 7.99908 12C7.99908 9.79086 9.78994 8 11.9991 8C14.2081 8.00013 15.9991 9.79094 15.9991 12Z" fill="currentColor"/>
</svg>
