<svg width="24" height="24" viewBox="0 0 24 24" fill="none" xmlns="http://www.w3.org/2000/svg">
<path d="M12 13.125C12 12.5037 11.4963 12 10.875 12C10.2537 12 9.75 12.5037 9.75 13.125C9.75003 13.7463 10.2537 14.25 10.875 14.25C11.4962 14.25 12 13.7462 12 13.125ZM13.5 13.125C13.5 14.5747 12.3247 15.75 10.875 15.75C9.4253 15.75 8.25003 14.5747 8.25 13.125C8.25 11.6753 9.42528 10.5 10.875 10.5C12.3247 10.5 13.5 11.6753 13.5 13.125Z" fill="currentColor"/>
<path d="M9.01752 13.9199C9.3104 13.627 9.78613 13.627 10.079 13.9199C10.3717 14.2127 10.3717 14.6876 10.079 14.9804L3.53022 21.5302C3.23739 21.8228 2.7625 21.8228 2.46967 21.5302C2.17676 21.2373 2.1768 20.7616 2.46967 20.4687L9.01752 13.9199Z" fill="currentColor"/>
<path d="M10.9867 4.54778C11.2621 4.44452 11.5727 4.51169 11.7807 4.71966L19.2807 12.2197C19.4883 12.4275 19.5555 12.7375 19.4526 13.0126L17.3539 18.6074C17.2615 18.8538 17.106 19.0719 16.9028 19.2392C16.6996 19.4063 16.4562 19.5172 16.1967 19.5605L3.12346 21.7392C2.88472 21.7789 2.64134 21.7013 2.47014 21.5302C2.29887 21.3589 2.22036 21.1148 2.26018 20.8759L4.43986 7.80364C4.48314 7.54401 4.59389 7.29986 4.76115 7.09661C4.92833 6.89361 5.14578 6.73781 5.39201 6.64544L10.9867 4.54778ZM5.91935 8.04974L3.91252 20.0868L15.9496 18.081L17.8774 12.9384L11.061 6.12103L5.91935 8.04974Z" fill="currentColor"/>
<path d="M14.2499 3.31055L11.7802 5.78027C11.4873 6.07304 11.0125 6.07304 10.7196 5.78027C10.4268 5.48741 10.4268 5.01263 10.7196 4.71973L13.1893 2.25C13.4706 1.96872 13.8521 1.81055 14.2499 1.81055C14.6477 1.81057 15.0292 1.96872 15.3104 2.25L21.7499 8.68945C21.889 8.82867 21.9998 8.99396 22.0751 9.17578C22.1504 9.3577 22.1893 9.5531 22.1893 9.75C22.1893 9.94669 22.1503 10.1415 22.0751 10.3232C21.9997 10.5052 21.8892 10.6713 21.7499 10.8105L19.2802 13.2803C18.9874 13.573 18.5125 13.5728 18.2196 13.2803C17.9268 12.9874 17.9268 12.5126 18.2196 12.2197L20.6893 9.75L14.2499 3.31055Z" fill="currentColor"/>
</svg>
