<svg width="24" height="24" viewBox="0 0 24 24" fill="none" xmlns="http://www.w3.org/2000/svg">
<path d="M11.6318 2.34632C11.8601 2.21789 12.1399 2.21789 12.3682 2.34632L20.3682 6.84632C20.604 6.97923 20.75 7.22888 20.75 7.49964V16.4996C20.75 16.7704 20.604 17.02 20.3682 17.153L12.3682 21.653C12.1399 21.7814 11.8601 21.7814 11.6318 21.653L3.63184 17.153C3.39598 17.02 3.25 16.7704 3.25 16.4996V7.49964C3.25 7.22888 3.39598 6.97923 3.63184 6.84632L11.6318 2.34632ZM4.75 7.93811V16.0602L12 20.1383L19.25 16.0602V7.93811L12 3.85999L4.75 7.93811Z" fill="currentColor"/>
</svg>
