<svg width="24" height="24" viewBox="0 0 24 24" fill="none" xmlns="http://www.w3.org/2000/svg">
<path d="M6.75 12.75H5.3584C4.59172 12.75 4.24888 12.908 4.0791 13.0781C3.90885 13.2489 3.75 13.5947 3.75 14.3672V18.6416C3.75 19.4086 3.90826 19.752 4.07812 19.9219C4.24799 20.0917 4.59136 20.25 5.3584 20.25H9.63281C10.4053 20.25 10.7511 20.0912 10.9219 19.9209C11.092 19.7511 11.25 19.4083 11.25 18.6416V17.25H9.8584C8.94248 17.25 8.10517 17.0708 7.5166 16.4805C6.9287 15.8907 6.75 15.0523 6.75 14.1328V12.75ZM8.25 14.1328C8.25 14.9053 8.40885 15.2511 8.5791 15.4219C8.72765 15.5707 9.00841 15.7106 9.58984 15.7432L9.8584 15.75H14.1328C14.9053 15.75 15.2503 15.5915 15.4209 15.4209C15.5915 15.2503 15.75 14.9053 15.75 14.1328V12.75H14.3584C13.4425 12.75 12.6052 12.5708 12.0166 11.9805C11.4287 11.3907 11.25 10.5523 11.25 9.63281V8.25H9.8584C9.09136 8.25 8.74799 8.40826 8.57812 8.57812C8.40826 8.74799 8.25 9.09136 8.25 9.8584V14.1328ZM12.75 9.63281C12.75 10.4053 12.9088 10.7511 13.0791 10.9219C13.2277 11.0707 13.5084 11.2106 14.0898 11.2432L14.3584 11.25H18.6328C19.4053 11.25 19.7503 11.0915 19.9209 10.9209C20.0915 10.7503 20.25 10.4053 20.25 9.63281V5.3584C20.25 4.59172 20.092 4.24888 19.9219 4.0791C19.7511 3.90885 19.4053 3.75 18.6328 3.75H14.3584C13.5914 3.75 13.248 3.90826 13.0781 4.07812C12.9083 4.24799 12.75 4.59136 12.75 5.3584V9.63281ZM21.75 9.63281C21.75 10.5523 21.5714 11.3915 20.9814 11.9814C20.3915 12.5714 19.5523 12.75 18.6328 12.75H17.25V14.1328C17.25 15.0523 17.0714 15.8915 16.4814 16.4814C15.8915 17.0714 15.0523 17.25 14.1328 17.25H12.75V18.6416C12.75 19.5575 12.5708 20.3948 11.9805 20.9834C11.3907 21.5713 10.5523 21.75 9.63281 21.75H5.3584C4.44244 21.75 3.60596 21.5708 3.01758 20.9824C2.42919 20.394 2.25 19.5576 2.25 18.6416V14.3672C2.25 13.4477 2.4287 12.6093 3.0166 12.0195C3.60517 11.4292 4.44248 11.25 5.3584 11.25H6.75V9.8584C6.75 8.94244 6.92919 8.10596 7.51758 7.51758C8.10596 6.92919 8.94244 6.75 9.8584 6.75H11.25V5.3584C11.25 4.44244 11.4292 3.60596 12.0176 3.01758C12.606 2.42919 13.4424 2.25 14.3584 2.25H18.6328C19.5523 2.25 20.3907 2.4287 20.9805 3.0166C21.5708 3.60517 21.75 4.44248 21.75 5.3584V9.63281Z" fill="currentColor"/>
</svg>
