<svg width="24" height="24" viewBox="0 0 24 24" fill="none" xmlns="http://www.w3.org/2000/svg">
<path d="M17.8975 10.8232C17.8973 6.91677 14.7297 3.75 10.8232 3.75C6.91687 3.75016 3.75016 6.91687 3.75 10.8232C3.75 14.7297 6.91677 17.8973 10.8232 17.8975C14.7298 17.8975 17.8975 14.7298 17.8975 10.8232ZM19.3975 10.8232C19.3975 12.9207 18.6423 14.8411 17.3916 16.3311L21.5303 20.4697C21.8232 20.7626 21.8232 21.2374 21.5303 21.5303C21.2374 21.8232 20.7626 21.8232 20.4697 21.5303L16.3311 17.3916C14.8411 18.6423 12.9207 19.3975 10.8232 19.3975C6.08834 19.3973 2.25 15.5582 2.25 10.8232C2.25016 6.08844 6.08844 2.25016 10.8232 2.25C15.5582 2.25 19.3973 6.08834 19.3975 10.8232Z" fill="currentColor"/>
</svg>
