<svg width="24" height="24" viewBox="0 0 24 24" fill="none" xmlns="http://www.w3.org/2000/svg">
<path d="M15.1875 9C15.1875 5.58291 12.4171 2.81261 9 2.8125C5.58284 2.8125 2.8125 5.58284 2.8125 9C2.81261 12.4171 5.58291 15.1875 9 15.1875C12.417 15.1874 15.1874 12.417 15.1875 9ZM16.3125 9C16.3124 13.0383 13.0383 16.3124 9 16.3125C4.96161 16.3125 1.68761 13.0384 1.6875 9C1.6875 4.96154 4.96154 1.6875 9 1.6875C13.0384 1.68761 16.3125 4.96161 16.3125 9Z" fill="currentColor"/>
<path d="M21.1875 15C21.1875 11.5829 18.4171 8.81261 15 8.8125C11.5828 8.8125 8.8125 11.5828 8.8125 15C8.81261 18.4171 11.5829 21.1875 15 21.1875C18.417 21.1874 21.1874 18.417 21.1875 15ZM22.3125 15C22.3124 19.0383 19.0383 22.3124 15 22.3125C10.9616 22.3125 7.68761 19.0384 7.6875 15C7.6875 10.9615 10.9615 7.6875 15 7.6875C19.0384 7.68761 22.3125 10.9616 22.3125 15Z" fill="currentColor"/>
<path d="M11.0905 8.8376C11.3102 8.61794 11.6658 8.61794 11.8855 8.8376L15.1638 12.1159C15.3832 12.3356 15.3834 12.6912 15.1638 12.9108C14.9442 13.1304 14.5885 13.1303 14.3688 12.9108L11.0905 9.63252C10.8709 9.41286 10.8709 9.05726 11.0905 8.8376Z" fill="currentColor"/>
<path d="M8.83662 11.0876C9.05629 10.8679 9.41188 10.8679 9.63154 11.0876L12.9099 14.3659C13.1293 14.5856 13.1295 14.9412 12.9099 15.1608C12.6903 15.3804 12.3346 15.3803 12.1149 15.1608L8.83662 11.8825C8.61696 11.6629 8.61696 11.3073 8.83662 11.0876Z" fill="currentColor"/>
</svg>
