<svg width="24" height="24" viewBox="0 0 24 24" fill="none" xmlns="http://www.w3.org/2000/svg">
<path d="M19.9951 14.8975C19.9472 14.427 19.573 14.0528 19.1025 14.0049L19 14H17.0703L11.0703 20H19C19.5177 20 19.9438 19.6067 19.9951 19.1025L20 19V15L19.9951 14.8975ZM7.00977 16C7.56205 16 8.00977 16.4477 8.00977 17C8.00977 17.5523 7.56205 18 7.00977 18H7C6.44772 18 6 17.5523 6 17C6 16.4477 6.44772 16 7 16H7.00977ZM14.7783 6.39355C14.3878 6.00305 13.7548 6.0031 13.3643 6.39355L12 7.75684V16.2422L17.6064 10.6357C17.9969 10.2452 17.9969 9.61218 17.6064 9.22168L14.7783 6.39355ZM22 19C22 20.6051 20.7394 21.9158 19.1543 21.9961L19 22H7C4.23858 22 2 19.7614 2 17V5C2 3.34315 3.34315 2 5 2H9C10.6343 2 11.9622 3.30689 11.998 4.93262C13.1729 3.80818 15.0367 3.82377 16.1924 4.97949L19.0205 7.80762C20.1762 8.96333 20.1908 10.8261 19.0664 12.001C20.6926 12.0363 22 13.3653 22 15V19ZM4 17C4 18.6569 5.34315 20 7 20C8.65685 20 10 18.6569 10 17V5C10 4.44772 9.55228 4 9 4H5C4.44772 4 4 4.44772 4 5V17Z" fill="currentColor"/>
</svg>
