<svg width="24" height="24" viewBox="0 0 24 24" fill="none" xmlns="http://www.w3.org/2000/svg">
<path d="M21.0424 10.9883C21.4563 10.9887 21.7924 11.3243 21.7924 11.7383C21.7924 13.4532 21.3403 15.1379 20.4829 16.623C19.6254 18.1081 18.3918 19.3418 16.9067 20.1992C15.9071 20.7763 14.8167 21.1679 13.6879 21.3633L14.7631 22.4385C15.0559 22.7313 15.0559 23.2062 14.7631 23.499C14.4703 23.7917 13.9954 23.7917 13.7026 23.499L11.4917 21.2881C11.3511 21.1475 11.2719 20.9566 11.2719 20.7578C11.272 20.559 11.3511 20.3682 11.4917 20.2275L13.7026 18.0166C13.9954 17.7239 14.4703 17.7241 14.7631 18.0166C15.0559 18.3095 15.0559 18.7843 14.7631 19.0771L14.0971 19.7422C14.8153 19.556 15.5087 19.2745 16.1567 18.9004C17.4138 18.1746 18.4583 17.1301 19.184 15.873C19.9098 14.6159 20.2924 13.1899 20.2924 11.7383C20.2924 11.3241 20.6282 10.9883 21.0424 10.9883Z" fill="currentColor"/>
<path d="M4.15181 6.48145C4.29807 6.46975 4.44971 6.50019 4.58638 6.5791C4.83105 6.72058 4.96242 6.97922 4.95748 7.24316L6.08736 9.7793C6.25575 10.1576 6.08476 10.601 5.7065 10.7695C5.32816 10.9379 4.88474 10.7679 4.71627 10.3896L4.16646 9.15527C3.89349 9.98549 3.7524 10.8572 3.7524 11.7383C3.7524 13.1899 4.13499 14.6159 4.8608 15.873C5.58659 17.1301 6.6301 18.1746 7.88717 18.9004C8.24574 19.1075 8.36858 19.5661 8.16158 19.9248C7.95439 20.2832 7.49572 20.4061 7.13717 20.1992C5.65214 19.3418 4.4194 18.1081 3.56197 16.623C2.7045 15.1379 2.2524 13.4532 2.2524 11.7383C2.2524 10.689 2.42184 9.651 2.74947 8.66309L1.57857 9.18555C1.20035 9.3537 0.756855 9.18374 0.588338 8.80566C0.419862 8.42726 0.590794 7.98391 0.969197 7.81543L3.82467 6.54297C3.93094 6.49569 4.04283 6.4782 4.15181 6.48145Z" fill="currentColor"/>
<path d="M12.0219 1.96875C13.7366 1.96879 15.4217 2.42008 16.9067 3.27734C17.8312 3.81111 18.6585 4.49101 19.3579 5.28613L19.4848 4.04199C19.5268 3.62996 19.895 3.33015 20.3071 3.37207C20.7191 3.41413 21.0189 3.78233 20.977 4.19434L20.6606 7.30469C20.6404 7.50244 20.5422 7.68394 20.3881 7.80957C20.238 7.93195 20.0466 7.99019 19.854 7.97461C19.7876 7.97637 19.7217 7.97152 19.6577 7.95605L16.728 7.6582C16.3159 7.61623 16.0162 7.24797 16.0581 6.83594C16.1 6.42387 16.4683 6.12406 16.8803 6.16602L18.2563 6.30566C17.659 5.62031 16.9503 5.03535 16.1567 4.57715C14.8996 3.85141 13.4734 3.46879 12.0219 3.46875C10.5705 3.46881 9.14417 3.85146 7.88717 4.57715C7.52854 4.78389 7.0698 4.66026 6.86275 4.30176C6.65597 3.94313 6.77865 3.48441 7.13717 3.27734C8.6222 2.42 10.3072 1.96881 12.0219 1.96875Z" fill="currentColor"/>
</svg>
