<svg width="24" height="24" viewBox="0 0 24 24" fill="none" xmlns="http://www.w3.org/2000/svg">
<path d="M17.8534 4C18.6172 4 19.284 4.3258 19.6704 4.92679C20.0496 5.51667 20.0914 6.26456 19.8481 6.99286L19.6293 7.64554C19.5093 8.00472 19.1206 8.19861 18.7615 8.07857C18.4027 7.95842 18.2088 7.57051 18.3284 7.21161L18.5472 6.55804C18.6893 6.13253 18.6237 5.83523 18.5168 5.66875C18.4169 5.51338 18.2174 5.37143 17.8534 5.37143H13.2427L8.81229 18.6286H9.90247C10.2811 18.6287 10.5882 18.9357 10.5882 19.3143C10.5882 19.6929 10.2811 19.9998 9.90247 20H5.81852C5.43981 20 5.1328 19.693 5.1328 19.3143C5.1328 18.9356 5.43981 18.6286 5.81852 18.6286H7.36585L11.7971 5.37143H7.64442C7.26352 5.37143 6.81671 5.53377 6.41138 5.84286C6.00826 6.15028 5.69739 6.56451 5.55423 6.99286L5.33548 7.64554C5.21547 8.00464 4.82763 8.19844 4.46851 8.07857C4.1094 7.95856 3.9156 7.57073 4.03547 7.21161L4.25333 6.55804C4.4959 5.83228 4.99148 5.20158 5.58012 4.75268C6.16657 4.30549 6.89766 4 7.64442 4H17.8534Z" fill="currentColor"/>
</svg>
