<svg width="24" height="24" viewBox="0 0 24 24" fill="none" xmlns="http://www.w3.org/2000/svg">
<path d="M8.37207 4.96875L12.8838 17.0018L16.2725 9.01948C16.4105 8.69539 16.7297 8.48433 17.082 8.48433H17.9609C18.1335 8.48438 18.3024 8.53554 18.4463 8.63082C18.5901 8.72615 18.7032 8.86155 18.7705 9.02046L23 19.0321H21.0918L19.9775 16.3954H15.0518L13.9336 19.0321C13.8283 19.0321 13.7271 19.0174 13.6309 18.994L13.6455 19.0321H11.7666L10.1191 14.6366H4.52637L2.87793 19.0321H1L6.27344 4.96875H8.37207ZM15.7988 14.6366H19.2354L17.5205 10.58L15.7988 14.6366ZM5.18457 12.8788H9.45996L7.32227 7.17966L5.18457 12.8788Z" fill="currentColor"/>
</svg>
