<svg width="24" height="24" viewBox="0 0 24 24" fill="none" xmlns="http://www.w3.org/2000/svg">
<path d="M18.6286 7.42857V6.77589C18.6286 6.00044 17.9996 5.37143 17.2241 5.37143H12.6857V18.6286H14.0902C14.4687 18.6288 14.7759 18.9357 14.7759 19.3143C14.7759 19.6929 14.4687 19.9998 14.0902 20H9.90982C9.53129 19.9998 9.22411 19.6929 9.22411 19.3143C9.22411 18.9357 9.53129 18.6288 9.90982 18.6286H11.3143V5.37143H6.77589C6.00044 5.37143 5.37143 6.00044 5.37143 6.77589V7.42857C5.37143 7.80728 5.06442 8.11429 4.68571 8.11429C4.307 8.11429 4 7.80728 4 7.42857V6.77589C4 5.24302 5.24302 4 6.77589 4H17.2241C18.757 4 20 5.24302 20 6.77589V7.42857C20 7.80728 19.693 8.11429 19.3143 8.11429C18.9356 8.11429 18.6286 7.80728 18.6286 7.42857Z" fill="currentColor"/>
</svg>
