<svg width="24" height="24" viewBox="0 0 24 24" fill="none" xmlns="http://www.w3.org/2000/svg">
<path d="M19.75 10.9998L19.7373 10.5164C19.6755 9.39177 19.3965 8.28802 18.915 7.26642C18.3646 6.09875 17.5624 5.06714 16.5664 4.24591C15.5703 3.42465 14.4046 2.83314 13.1533 2.51545C11.902 2.19775 10.5954 2.1614 9.32813 2.40802C8.061 2.65468 6.864 3.17848 5.82324 3.9422C4.78239 4.70599 3.92402 5.69109 3.30859 6.82599C2.69317 7.96088 2.336 9.21766 2.26367 10.5067C2.19136 11.7955 2.40512 13.0845 2.88965 14.2811C3.04509 14.6649 3.48236 14.8504 3.86621 14.6951C4.25004 14.5397 4.43555 14.1024 4.28027 13.7186C3.87874 12.7271 3.70179 11.6587 3.76172 10.5906C3.82166 9.52264 4.11704 8.48115 4.62695 7.54084C5.13686 6.60055 5.84858 5.78499 6.71094 5.15216C7.57336 4.51931 8.56522 4.08503 9.61523 3.88068C10.6652 3.67636 11.7474 3.70633 12.7842 3.96955C13.821 4.23278 14.787 4.72267 15.6123 5.40314C16.4375 6.08358 17.1016 6.93859 17.5576 7.90607C18.0137 8.87363 18.2504 9.93018 18.25 10.9998L18.25 13.9998C18.25 14.414 18.5858 14.7498 19 14.7498C19.4142 14.7498 19.75 14.414 19.75 13.9998L19.75 10.9998Z" fill="currentColor"/>
<path d="M22.5303 11.5303C22.8232 11.2374 22.8232 10.7627 22.5303 10.4698C22.2374 10.1769 21.7627 10.1769 21.4698 10.4698L19.0001 12.9395L16.5303 10.4698C16.2374 10.1769 15.7627 10.1769 15.4698 10.4698C15.1769 10.7627 15.1769 11.2374 15.4698 11.5303L18.4698 14.5303C18.7627 14.8232 19.2374 14.8232 19.5303 14.5303L22.5303 11.5303Z" fill="currentColor"/>
<path d="M15.5819 17.4737C15.8222 17.1791 15.8048 16.7444 15.5302 16.4698L11.5302 12.4698C11.2373 12.1769 10.7625 12.1769 10.4696 12.4698L6.46961 16.4698C6.17672 16.7627 6.17672 17.2374 6.46961 17.5303L10.4696 21.5303C10.7625 21.8232 11.2373 21.8232 11.5302 21.5303L15.5302 17.5303L15.5819 17.4737ZM10.9999 19.9395L8.06043 17.0001L10.9999 14.0606L13.9393 17.0001L10.9999 19.9395Z" fill="currentColor"/>
</svg>
