<svg width="24" height="24" viewBox="0 0 24 24" fill="none" xmlns="http://www.w3.org/2000/svg">
<path d="M4.25 10.9998L4.2627 10.5164C4.32453 9.39177 4.60347 8.28802 5.08496 7.26642C5.63536 6.09875 6.43761 5.06714 7.43359 4.24591C8.42972 3.42465 9.59536 2.83314 10.8467 2.51545C12.098 2.19775 13.4046 2.1614 14.6719 2.40802C15.939 2.65468 17.136 3.17848 18.1768 3.9422C19.2176 4.70599 20.076 5.69109 20.6914 6.82599C21.3068 7.96088 21.664 9.21766 21.7363 10.5067C21.8086 11.7955 21.5949 13.0845 21.1104 14.2811C20.9549 14.6649 20.5176 14.8504 20.1338 14.6951C19.75 14.5397 19.5644 14.1024 19.7197 13.7186C20.1213 12.7271 20.2982 11.6587 20.2383 10.5906C20.1783 9.52264 19.883 8.48115 19.373 7.54084C18.8631 6.60055 18.1514 5.78499 17.2891 5.15216C16.4266 4.51931 15.4348 4.08503 14.3848 3.88068C13.3348 3.67636 12.2526 3.70633 11.2158 3.96955C10.179 4.23278 9.21305 4.72267 8.38769 5.40314C7.56247 6.08358 6.89842 6.93859 6.44238 7.90607C5.98635 8.87363 5.7496 9.93018 5.75 10.9998L5.75 13.9998C5.75 14.414 5.41421 14.7498 5 14.7498C4.58579 14.7498 4.25 14.414 4.25 13.9998L4.25 10.9998Z" fill="currentColor"/>
<path d="M1.46967 11.5303C1.17678 11.2374 1.17678 10.7627 1.46967 10.4698C1.76256 10.1769 2.23732 10.1769 2.53022 10.4698L4.99994 12.9395L7.46967 10.4698C7.76256 10.1769 8.23732 10.1769 8.53022 10.4698C8.82311 10.7627 8.82311 11.2374 8.53022 11.5303L5.53022 14.5303C5.23732 14.8232 4.76256 14.8232 4.46967 14.5303L1.46967 11.5303Z" fill="currentColor"/>
<path d="M8.41809 17.4737C8.17778 17.1791 8.19524 16.7444 8.46984 16.4698L12.4698 12.4698C12.7627 12.1769 13.2375 12.1769 13.5304 12.4698L17.5304 16.4698C17.8233 16.7627 17.8233 17.2374 17.5304 17.5303L13.5304 21.5303C13.2375 21.8232 12.7627 21.8232 12.4698 21.5303L8.46984 17.5303L8.41809 17.4737ZM13.0001 19.9395L15.9396 17.0001L13.0001 14.0606L10.0607 17.0001L13.0001 19.9395Z" fill="currentColor"/>
</svg>
