<svg width="448" height="400" viewBox="0 0 448 400" fill="none" xmlns="http://www.w3.org/2000/svg">
<g clip-path="url(#clip0_687_68429)">
<rect opacity="0.1" width="31.9643" height="8.09755" transform="matrix(1 4.37114e-08 4.37114e-08 -1 66.3267 121.779)" fill="#EDEBE4"/>
<path fill-rule="evenodd" clip-rule="evenodd" d="M121.122 113.682L98.29 113.682L98.29 115.983L121.122 115.983L121.122 113.682Z" fill="#EDEBE4"/>
<path fill-rule="evenodd" clip-rule="evenodd" d="M143.953 119.478L121.122 119.478L121.122 121.779L143.953 121.779L143.953 119.478Z" fill="#EDEBE4"/>
<path fill-rule="evenodd" clip-rule="evenodd" d="M166.785 113.682L143.954 113.682L143.954 115.983L166.785 115.983L166.785 113.682Z" fill="#EDEBE4"/>
<path fill-rule="evenodd" clip-rule="evenodd" d="M189.617 119.478L166.785 119.478L166.785 121.779L189.617 121.779L189.617 119.478Z" fill="#EDEBE4"/>
<path fill-rule="evenodd" clip-rule="evenodd" d="M212.449 113.682L189.617 113.682L189.617 115.983L212.449 115.983L212.449 113.682Z" fill="#EDEBE4"/>
<path fill-rule="evenodd" clip-rule="evenodd" d="M235.28 119.478L212.449 119.478L212.449 121.779L235.28 121.779L235.28 119.478Z" fill="#EDEBE4"/>
<path fill-rule="evenodd" clip-rule="evenodd" d="M258.112 113.682L235.28 113.682L235.28 115.983L258.112 115.983L258.112 113.682Z" fill="#EDEBE4"/>
<path fill-rule="evenodd" clip-rule="evenodd" d="M280.943 119.478L258.111 119.478L258.111 121.779L280.943 121.779L280.943 119.478Z" fill="#EDEBE4"/>
<path fill-rule="evenodd" clip-rule="evenodd" d="M303.775 113.682L280.943 113.682L280.943 115.983L303.775 115.983L303.775 113.682Z" fill="#EDEBE4"/>
<path fill-rule="evenodd" clip-rule="evenodd" d="M326.607 119.478L303.775 119.478L303.775 121.779L326.607 121.779L326.607 119.478Z" fill="#EDEBE4"/>
<path fill-rule="evenodd" clip-rule="evenodd" d="M349.439 113.682L326.607 113.682L326.607 115.983L349.439 115.983L349.439 113.682Z" fill="#EDEBE4"/>
<rect opacity="0.1" width="31.9643" height="8.09755" transform="matrix(1 4.37114e-08 4.37114e-08 -1 349.438 121.779)" fill="#EDEBE4"/>
<path d="M66.3262 48.9013L98.0781 113.682L349.651 113.682L381.403 48.9013L66.3262 48.9013Z" stroke="#EDEBE4" stroke-width="0.575342"/>
<path d="M110.379 113.682L96.7437 49.1097" stroke="#EDEBE4" stroke-width="0.575342"/>
<path d="M135.707 113.682L124.942 49.1097" stroke="#EDEBE4" stroke-width="0.575342"/>
<path d="M161.036 113.682L153.142 49.1097" stroke="#EDEBE4" stroke-width="0.575342"/>
<path d="M186.364 113.682L181.34 49.1097" stroke="#EDEBE4" stroke-width="0.575342"/>
<path d="M211.693 113.682L209.54 49.1097" stroke="#EDEBE4" stroke-width="0.575342"/>
<path d="M236.037 113.682L238.19 49.1097" stroke="#EDEBE4" stroke-width="0.575342"/>
<path d="M261.365 113.682L266.388 49.1097" stroke="#EDEBE4" stroke-width="0.575342"/>
<path d="M286.694 113.682L294.588 49.1097" stroke="#EDEBE4" stroke-width="0.575342"/>
<path d="M312.021 113.682L322.786 49.1097" stroke="#EDEBE4" stroke-width="0.575342"/>
<path d="M337.349 113.682L350.985 49.1097" stroke="#EDEBE4" stroke-width="0.575342"/>
<path fill-rule="evenodd" clip-rule="evenodd" d="M94.8657 40.8038L66.3262 40.8038L66.3262 44.8525L94.8657 44.8525L94.8657 40.8038Z" fill="#EDEBE4"/>
<path fill-rule="evenodd" clip-rule="evenodd" d="M123.405 44.8526L94.8652 44.8526L94.8652 48.9014L123.405 48.9014L123.405 44.8526Z" fill="#EDEBE4"/>
<path fill-rule="evenodd" clip-rule="evenodd" d="M151.945 40.8038L123.405 40.8038L123.405 44.8525L151.945 44.8525L151.945 40.8038Z" fill="#EDEBE4"/>
<path fill-rule="evenodd" clip-rule="evenodd" d="M180.484 44.8526L151.944 44.8526L151.944 48.9014L180.484 48.9014L180.484 44.8526Z" fill="#EDEBE4"/>
<path fill-rule="evenodd" clip-rule="evenodd" d="M209.024 40.8038L180.484 40.8038L180.484 44.8525L209.024 44.8525L209.024 40.8038Z" fill="#EDEBE4"/>
<path fill-rule="evenodd" clip-rule="evenodd" d="M237.564 44.8526L209.024 44.8526L209.024 48.9014L237.564 48.9014L237.564 44.8526Z" fill="#EDEBE4"/>
<path fill-rule="evenodd" clip-rule="evenodd" d="M266.103 40.8038L237.563 40.8038L237.563 44.8525L266.103 44.8525L266.103 40.8038Z" fill="#EDEBE4"/>
<path fill-rule="evenodd" clip-rule="evenodd" d="M294.643 44.8526L266.104 44.8526L266.104 48.9014L294.643 48.9014L294.643 44.8526Z" fill="#EDEBE4"/>
<path fill-rule="evenodd" clip-rule="evenodd" d="M323.182 40.8038L294.643 40.8038L294.643 44.8525L323.182 44.8525L323.182 40.8038Z" fill="#EDEBE4"/>
<path fill-rule="evenodd" clip-rule="evenodd" d="M351.721 44.8526L323.182 44.8526L323.182 48.9014L351.721 48.9014L351.721 44.8526Z" fill="#EDEBE4"/>
<path fill-rule="evenodd" clip-rule="evenodd" d="M380.261 40.8038L351.722 40.8038L351.722 44.8525L380.261 44.8525L380.261 40.8038Z" fill="#EDEBE4"/>
<rect opacity="0.1" x="66.3267" y="120.221" width="31.9643" height="8.09755" fill="#EDEBE4"/>
<path fill-rule="evenodd" clip-rule="evenodd" d="M121.122 128.318L98.29 128.318L98.29 126.017L121.122 126.017L121.122 128.318Z" fill="#EDEBE4"/>
<path fill-rule="evenodd" clip-rule="evenodd" d="M143.953 122.522L121.122 122.522L121.122 120.221L143.953 120.221L143.953 122.522Z" fill="#EDEBE4"/>
<path fill-rule="evenodd" clip-rule="evenodd" d="M166.785 128.318L143.954 128.318L143.954 126.017L166.785 126.017L166.785 128.318Z" fill="#EDEBE4"/>
<path fill-rule="evenodd" clip-rule="evenodd" d="M189.617 122.522L166.785 122.522L166.785 120.221L189.617 120.221L189.617 122.522Z" fill="#EDEBE4"/>
<path fill-rule="evenodd" clip-rule="evenodd" d="M212.449 128.318L189.617 128.318L189.617 126.017L212.449 126.017L212.449 128.318Z" fill="#EDEBE4"/>
<path fill-rule="evenodd" clip-rule="evenodd" d="M235.28 122.522L212.449 122.522L212.449 120.221L235.28 120.221L235.28 122.522Z" fill="#EDEBE4"/>
<path fill-rule="evenodd" clip-rule="evenodd" d="M258.112 128.318L235.28 128.318L235.28 126.017L258.112 126.017L258.112 128.318Z" fill="#EDEBE4"/>
<path fill-rule="evenodd" clip-rule="evenodd" d="M280.943 122.522L258.111 122.522L258.111 120.221L280.943 120.221L280.943 122.522Z" fill="#EDEBE4"/>
<path fill-rule="evenodd" clip-rule="evenodd" d="M303.775 128.318L280.943 128.318L280.943 126.017L303.775 126.017L303.775 128.318Z" fill="#EDEBE4"/>
<path fill-rule="evenodd" clip-rule="evenodd" d="M326.607 122.522L303.775 122.522L303.775 120.221L326.607 120.221L326.607 122.522Z" fill="#EDEBE4"/>
<path fill-rule="evenodd" clip-rule="evenodd" d="M349.439 128.318L326.607 128.318L326.607 126.017L349.439 126.017L349.439 128.318Z" fill="#EDEBE4"/>
<rect opacity="0.1" x="349.438" y="120.221" width="31.9643" height="8.09755" fill="#EDEBE4"/>
<path d="M66.3262 193.099L98.0781 128.318L349.651 128.318L381.403 193.099L66.3262 193.099Z" stroke="#EDEBE4" stroke-width="0.575342"/>
<path d="M110.379 128.318L96.7436 192.89" stroke="#EDEBE4" stroke-width="0.575342"/>
<path d="M135.707 128.318L124.942 192.89" stroke="#EDEBE4" stroke-width="0.575342"/>
<path d="M161.036 128.318L153.142 192.89" stroke="#EDEBE4" stroke-width="0.575342"/>
<path d="M186.364 128.318L181.34 192.89" stroke="#EDEBE4" stroke-width="0.575342"/>
<path d="M211.693 128.318L209.54 192.89" stroke="#EDEBE4" stroke-width="0.575342"/>
<path d="M236.037 128.318L238.19 192.89" stroke="#EDEBE4" stroke-width="0.575342"/>
<path d="M261.365 128.318L266.388 192.89" stroke="#EDEBE4" stroke-width="0.575342"/>
<path d="M286.694 128.318L294.588 192.89" stroke="#EDEBE4" stroke-width="0.575342"/>
<path d="M312.021 128.318L322.786 192.89" stroke="#EDEBE4" stroke-width="0.575342"/>
<path d="M337.349 128.318L350.985 192.89" stroke="#EDEBE4" stroke-width="0.575342"/>
<path fill-rule="evenodd" clip-rule="evenodd" d="M94.8657 201.196L66.3262 201.196L66.3262 197.147L94.8657 197.147L94.8657 201.196Z" fill="#EDEBE4"/>
<path fill-rule="evenodd" clip-rule="evenodd" d="M123.405 197.147L94.8652 197.147L94.8652 193.099L123.405 193.099L123.405 197.147Z" fill="#EDEBE4"/>
<path fill-rule="evenodd" clip-rule="evenodd" d="M151.945 201.196L123.405 201.196L123.405 197.147L151.945 197.147L151.945 201.196Z" fill="#EDEBE4"/>
<path fill-rule="evenodd" clip-rule="evenodd" d="M180.484 197.147L151.944 197.147L151.944 193.099L180.484 193.099L180.484 197.147Z" fill="#EDEBE4"/>
<path fill-rule="evenodd" clip-rule="evenodd" d="M209.024 201.196L180.485 201.196L180.485 197.147L209.024 197.147L209.024 201.196Z" fill="#EDEBE4"/>
<path fill-rule="evenodd" clip-rule="evenodd" d="M237.564 197.147L209.024 197.147L209.024 193.099L237.564 193.099L237.564 197.147Z" fill="#EDEBE4"/>
<path fill-rule="evenodd" clip-rule="evenodd" d="M266.103 201.196L237.563 201.196L237.563 197.147L266.103 197.147L266.103 201.196Z" fill="#EDEBE4"/>
<path fill-rule="evenodd" clip-rule="evenodd" d="M294.643 197.147L266.104 197.147L266.104 193.099L294.643 193.099L294.643 197.147Z" fill="#EDEBE4"/>
<path fill-rule="evenodd" clip-rule="evenodd" d="M323.182 201.196L294.643 201.196L294.643 197.147L323.182 197.147L323.182 201.196Z" fill="#EDEBE4"/>
<path fill-rule="evenodd" clip-rule="evenodd" d="M351.721 197.147L323.182 197.147L323.182 193.099L351.721 193.099L351.721 197.147Z" fill="#EDEBE4"/>
<path fill-rule="evenodd" clip-rule="evenodd" d="M380.261 201.196L351.722 201.196L351.722 197.147L380.261 197.147L380.261 201.196Z" fill="#EDEBE4"/>
<rect opacity="0.1" width="31.9643" height="8.09755" transform="matrix(1 4.37114e-08 4.37114e-08 -1 66.3267 279.78)" fill="#EDEBE4"/>
<path fill-rule="evenodd" clip-rule="evenodd" d="M121.122 271.683L98.29 271.683L98.29 273.984L121.122 273.984L121.122 271.683Z" fill="#EDEBE4"/>
<path fill-rule="evenodd" clip-rule="evenodd" d="M143.953 277.479L121.122 277.479L121.122 279.78L143.953 279.78L143.953 277.479Z" fill="#EDEBE4"/>
<path fill-rule="evenodd" clip-rule="evenodd" d="M166.785 271.683L143.954 271.683L143.954 273.984L166.785 273.984L166.785 271.683Z" fill="#EDEBE4"/>
<path fill-rule="evenodd" clip-rule="evenodd" d="M189.617 277.479L166.785 277.479L166.785 279.78L189.617 279.78L189.617 277.479Z" fill="#EDEBE4"/>
<path fill-rule="evenodd" clip-rule="evenodd" d="M212.449 271.683L189.617 271.683L189.617 273.984L212.449 273.984L212.449 271.683Z" fill="#EDEBE4"/>
<path fill-rule="evenodd" clip-rule="evenodd" d="M235.28 277.479L212.449 277.479L212.449 279.78L235.28 279.78L235.28 277.479Z" fill="#EDEBE4"/>
<path fill-rule="evenodd" clip-rule="evenodd" d="M258.112 271.683L235.28 271.683L235.28 273.984L258.112 273.984L258.112 271.683Z" fill="#EDEBE4"/>
<path fill-rule="evenodd" clip-rule="evenodd" d="M280.943 277.479L258.111 277.479L258.111 279.78L280.943 279.78L280.943 277.479Z" fill="#EDEBE4"/>
<path fill-rule="evenodd" clip-rule="evenodd" d="M303.775 271.683L280.943 271.683L280.943 273.984L303.775 273.984L303.775 271.683Z" fill="#EDEBE4"/>
<path fill-rule="evenodd" clip-rule="evenodd" d="M326.607 277.479L303.775 277.479L303.775 279.78L326.607 279.78L326.607 277.479Z" fill="#EDEBE4"/>
<path fill-rule="evenodd" clip-rule="evenodd" d="M349.439 271.683L326.607 271.683L326.607 273.984L349.439 273.984L349.439 271.683Z" fill="#EDEBE4"/>
<rect opacity="0.1" width="31.9643" height="8.09755" transform="matrix(1 4.37114e-08 4.37114e-08 -1 349.438 279.78)" fill="#EDEBE4"/>
<path d="M66.3262 206.902L98.0781 271.683L349.651 271.683L381.403 206.902L66.3262 206.902Z" stroke="#EDEBE4" stroke-width="0.575342"/>
<path d="M110.379 271.683L96.7437 207.111" stroke="#EDEBE4" stroke-width="0.575342"/>
<path d="M135.707 271.683L124.942 207.111" stroke="#EDEBE4" stroke-width="0.575342"/>
<path d="M161.036 271.683L153.142 207.111" stroke="#EDEBE4" stroke-width="0.575342"/>
<path d="M186.364 271.683L181.34 207.111" stroke="#EDEBE4" stroke-width="0.575342"/>
<path d="M211.693 271.683L209.54 207.111" stroke="#EDEBE4" stroke-width="0.575342"/>
<path d="M236.037 271.683L238.19 207.111" stroke="#EDEBE4" stroke-width="0.575342"/>
<path d="M261.365 271.683L266.388 207.111" stroke="#EDEBE4" stroke-width="0.575342"/>
<path d="M286.694 271.683L294.588 207.111" stroke="#EDEBE4" stroke-width="0.575342"/>
<path d="M312.021 271.683L322.786 207.111" stroke="#EDEBE4" stroke-width="0.575342"/>
<path d="M337.349 271.683L350.985 207.111" stroke="#EDEBE4" stroke-width="0.575342"/>
<path fill-rule="evenodd" clip-rule="evenodd" d="M94.8657 198.805L66.3262 198.805L66.3262 202.854L94.8657 202.854L94.8657 198.805Z" fill="#EDEBE4"/>
<path fill-rule="evenodd" clip-rule="evenodd" d="M123.405 202.854L94.8652 202.854L94.8652 206.902L123.405 206.902L123.405 202.854Z" fill="#EDEBE4"/>
<path fill-rule="evenodd" clip-rule="evenodd" d="M151.945 198.805L123.405 198.805L123.405 202.854L151.945 202.854L151.945 198.805Z" fill="#EDEBE4"/>
<path fill-rule="evenodd" clip-rule="evenodd" d="M180.484 202.854L151.944 202.854L151.944 206.902L180.484 206.902L180.484 202.854Z" fill="#EDEBE4"/>
<path fill-rule="evenodd" clip-rule="evenodd" d="M209.024 198.805L180.484 198.805L180.484 202.854L209.024 202.854L209.024 198.805Z" fill="#EDEBE4"/>
<path fill-rule="evenodd" clip-rule="evenodd" d="M237.564 202.854L209.024 202.854L209.024 206.902L237.564 206.902L237.564 202.854Z" fill="#EDEBE4"/>
<path fill-rule="evenodd" clip-rule="evenodd" d="M266.103 198.805L237.563 198.805L237.563 202.854L266.103 202.854L266.103 198.805Z" fill="#EDEBE4"/>
<path fill-rule="evenodd" clip-rule="evenodd" d="M294.643 202.854L266.104 202.854L266.104 206.902L294.643 206.902L294.643 202.854Z" fill="#EDEBE4"/>
<path fill-rule="evenodd" clip-rule="evenodd" d="M323.182 198.805L294.643 198.805L294.643 202.854L323.182 202.854L323.182 198.805Z" fill="#EDEBE4"/>
<path fill-rule="evenodd" clip-rule="evenodd" d="M351.721 202.854L323.182 202.854L323.182 206.902L351.721 206.902L351.721 202.854Z" fill="#EDEBE4"/>
<path fill-rule="evenodd" clip-rule="evenodd" d="M380.261 198.805L351.722 198.805L351.722 202.854L380.261 202.854L380.261 198.805Z" fill="#EDEBE4"/>
<rect opacity="0.1" x="66.3267" y="278.22" width="31.9643" height="8.09755" fill="#EDEBE4"/>
<path fill-rule="evenodd" clip-rule="evenodd" d="M121.122 286.317L98.29 286.317L98.29 284.016L121.122 284.016L121.122 286.317Z" fill="#EDEBE4"/>
<path fill-rule="evenodd" clip-rule="evenodd" d="M143.953 280.521L121.122 280.521L121.122 278.22L143.953 278.22L143.953 280.521Z" fill="#EDEBE4"/>
<path fill-rule="evenodd" clip-rule="evenodd" d="M166.785 286.317L143.954 286.317L143.954 284.016L166.785 284.016L166.785 286.317Z" fill="#EDEBE4"/>
<path fill-rule="evenodd" clip-rule="evenodd" d="M189.617 280.521L166.785 280.521L166.785 278.22L189.617 278.22L189.617 280.521Z" fill="#EDEBE4"/>
<path fill-rule="evenodd" clip-rule="evenodd" d="M212.449 286.317L189.617 286.317L189.617 284.016L212.449 284.016L212.449 286.317Z" fill="#EDEBE4"/>
<path fill-rule="evenodd" clip-rule="evenodd" d="M235.28 280.521L212.449 280.521L212.449 278.22L235.28 278.22L235.28 280.521Z" fill="#EDEBE4"/>
<path fill-rule="evenodd" clip-rule="evenodd" d="M258.112 286.317L235.28 286.317L235.28 284.016L258.112 284.016L258.112 286.317Z" fill="#EDEBE4"/>
<path fill-rule="evenodd" clip-rule="evenodd" d="M280.943 280.521L258.111 280.521L258.111 278.22L280.943 278.22L280.943 280.521Z" fill="#EDEBE4"/>
<path fill-rule="evenodd" clip-rule="evenodd" d="M303.775 286.317L280.943 286.317L280.943 284.016L303.775 284.016L303.775 286.317Z" fill="#EDEBE4"/>
<path fill-rule="evenodd" clip-rule="evenodd" d="M326.607 280.521L303.775 280.521L303.775 278.22L326.607 278.22L326.607 280.521Z" fill="#EDEBE4"/>
<path fill-rule="evenodd" clip-rule="evenodd" d="M349.439 286.317L326.607 286.317L326.607 284.016L349.439 284.016L349.439 286.317Z" fill="#EDEBE4"/>
<rect opacity="0.1" x="349.438" y="278.22" width="31.9643" height="8.09755" fill="#EDEBE4"/>
<path d="M66.3262 351.098L98.0781 286.317L349.651 286.317L381.403 351.098L66.3262 351.098Z" stroke="#EDEBE4" stroke-width="0.575342"/>
<path d="M110.379 286.317L96.7436 350.889" stroke="#EDEBE4" stroke-width="0.575342"/>
<path d="M135.707 286.317L124.942 350.889" stroke="#EDEBE4" stroke-width="0.575342"/>
<path d="M161.036 286.317L153.142 350.889" stroke="#EDEBE4" stroke-width="0.575342"/>
<path d="M186.364 286.317L181.34 350.889" stroke="#EDEBE4" stroke-width="0.575342"/>
<path d="M211.693 286.317L209.54 350.889" stroke="#EDEBE4" stroke-width="0.575342"/>
<path d="M236.037 286.317L238.19 350.889" stroke="#EDEBE4" stroke-width="0.575342"/>
<path d="M261.365 286.317L266.388 350.889" stroke="#EDEBE4" stroke-width="0.575342"/>
<path d="M286.694 286.317L294.588 350.889" stroke="#EDEBE4" stroke-width="0.575342"/>
<path d="M312.021 286.317L322.786 350.889" stroke="#EDEBE4" stroke-width="0.575342"/>
<path d="M337.349 286.317L350.985 350.889" stroke="#EDEBE4" stroke-width="0.575342"/>
<path fill-rule="evenodd" clip-rule="evenodd" d="M94.8657 359.195L66.3262 359.195L66.3262 355.146L94.8657 355.146L94.8657 359.195Z" fill="#EDEBE4"/>
<path fill-rule="evenodd" clip-rule="evenodd" d="M123.405 355.146L94.8652 355.146L94.8652 351.098L123.405 351.098L123.405 355.146Z" fill="#EDEBE4"/>
<path fill-rule="evenodd" clip-rule="evenodd" d="M151.945 359.195L123.405 359.195L123.405 355.146L151.945 355.146L151.945 359.195Z" fill="#EDEBE4"/>
<path fill-rule="evenodd" clip-rule="evenodd" d="M180.484 355.146L151.944 355.146L151.944 351.098L180.484 351.098L180.484 355.146Z" fill="#EDEBE4"/>
<path fill-rule="evenodd" clip-rule="evenodd" d="M209.024 359.195L180.485 359.195L180.485 355.146L209.024 355.146L209.024 359.195Z" fill="#EDEBE4"/>
<path fill-rule="evenodd" clip-rule="evenodd" d="M237.564 355.146L209.024 355.146L209.024 351.098L237.564 351.098L237.564 355.146Z" fill="#EDEBE4"/>
<path fill-rule="evenodd" clip-rule="evenodd" d="M266.103 359.195L237.563 359.195L237.563 355.146L266.103 355.146L266.103 359.195Z" fill="#EDEBE4"/>
<path fill-rule="evenodd" clip-rule="evenodd" d="M294.643 355.146L266.104 355.146L266.104 351.098L294.643 351.098L294.643 355.146Z" fill="#EDEBE4"/>
<path fill-rule="evenodd" clip-rule="evenodd" d="M323.182 359.195L294.643 359.195L294.643 355.146L323.182 355.146L323.182 359.195Z" fill="#EDEBE4"/>
<path fill-rule="evenodd" clip-rule="evenodd" d="M351.721 355.146L323.182 355.146L323.182 351.098L351.721 351.098L351.721 355.146Z" fill="#EDEBE4"/>
<path fill-rule="evenodd" clip-rule="evenodd" d="M380.261 359.195L351.722 359.195L351.722 355.146L380.261 355.146L380.261 359.195Z" fill="#EDEBE4"/>
</g>
<defs>
<clipPath id="clip0_687_68429">
<rect x="64" y="40" width="320" height="320" rx="24" fill="white"/>
</clipPath>
</defs>
</svg>
