<svg width="448" height="400" viewBox="0 0 448 400" fill="none" xmlns="http://www.w3.org/2000/svg">
<path d="M39.5217 143.644V204.22" stroke="#C98060" stroke-width="0.833333"/>
<path d="M62.1194 143.644V204.22" stroke="#C98060" stroke-width="0.833333"/>
<path d="M100.581 143.644V204.22" stroke="#C98060" stroke-width="0.833333"/>
<path d="M162.119 143.644V204.22" stroke="#C98060" stroke-width="0.833333"/>
<path d="M423.658 116.719L423.658 204.219" stroke="#C98060" stroke-width="0.833333"/>
<path d="M262.119 143.644V204.22" stroke="#C98060" stroke-width="0.833333"/>
<circle cx="39.0432" cy="204.22" r="3.42949" fill="#C98060" stroke="#C98060" stroke-width="0.833333"/>
<circle cx="62.1213" cy="204.22" r="3.42949" fill="#C98060" stroke="#C98060" stroke-width="0.833333"/>
<circle cx="100.581" cy="204.22" r="3.42949" fill="#C98060" stroke="#C98060" stroke-width="0.833333"/>
<circle cx="162.116" cy="204.22" r="3.42949" fill="#C98060" stroke="#C98060" stroke-width="0.833333"/>
<circle cx="262.121" cy="204.22" r="3.42949" fill="#C98060" stroke="#C98060" stroke-width="0.833333"/>
<circle cx="423.658" cy="204.22" r="3.42949" fill="#C98060" stroke="#C98060" stroke-width="0.833333"/>
<rect x="23.5706" y="110.426" width="400" height="64.4231" stroke="#C98060" stroke-width="0.833333"/>
<rect x="24" y="260.993" width="15.3846" height="7.69231" stroke="#C98060" stroke-width="0.833333"/>
<path d="M30.4605 282.49V286.686H29.5734V283.332H29.5488L28.588 283.934V283.147L29.6267 282.49H30.4605ZM33.1029 286.778C32.7505 286.776 32.4473 286.69 32.1932 286.518C31.9405 286.345 31.7459 286.096 31.6093 285.77C31.4741 285.443 31.4072 285.051 31.4086 284.592C31.4086 284.134 31.4762 283.744 31.6114 283.422C31.748 283.1 31.9426 282.854 32.1953 282.686C32.4493 282.517 32.7518 282.432 33.1029 282.432C33.4539 282.432 33.7557 282.517 34.0084 282.686C34.2624 282.856 34.4578 283.102 34.5943 283.424C34.7309 283.745 34.7985 284.134 34.7972 284.592C34.7972 285.052 34.7289 285.445 34.5923 285.772C34.4571 286.098 34.2631 286.348 34.0104 286.52C33.7578 286.692 33.4552 286.778 33.1029 286.778ZM33.1029 286.042C33.3432 286.042 33.5351 285.921 33.6786 285.68C33.822 285.438 33.893 285.075 33.8916 284.592C33.8916 284.274 33.8588 284.009 33.7933 283.797C33.7291 283.585 33.6376 283.426 33.5188 283.319C33.4013 283.213 33.2627 283.16 33.1029 283.16C32.8638 283.16 32.6726 283.279 32.5292 283.518C32.3858 283.757 32.3134 284.115 32.312 284.592C32.312 284.914 32.3441 285.183 32.4083 285.399C32.4739 285.613 32.5661 285.775 32.6849 285.882C32.8037 285.989 32.9431 286.042 33.1029 286.042Z" fill="#C98060"/>
<rect x="39.3845" y="260.993" width="23.0769" height="7.69231" stroke="#C98060" stroke-width="0.833333"/>
<path d="M49.7222 282.49V286.686H48.8351V283.332H48.8105L47.8496 283.934V283.147L48.8883 282.49H49.7222ZM50.6559 285.948V285.249L52.4075 282.49H53.0099V283.457H52.6534L51.5491 285.204V285.237H54.0383V285.948H50.6559ZM52.6698 286.686V285.735L52.6862 285.426V282.49H53.518V286.686H52.6698Z" fill="#C98060"/>
<rect x="62.4614" y="260.993" width="38.4615" height="7.69231" stroke="#C98060" stroke-width="0.833333"/>
<path d="M78.3054 286.686V286.046L79.7989 284.663C79.9259 284.541 80.0325 284.43 80.1185 284.332C80.2059 284.233 80.2722 284.137 80.3172 284.043C80.3623 283.947 80.3848 283.844 80.3848 283.733C80.3848 283.61 80.3568 283.505 80.3008 283.416C80.2448 283.326 80.1684 283.257 80.0714 283.209C79.9744 283.16 79.8645 283.135 79.7415 283.135C79.6132 283.135 79.5012 283.161 79.4056 283.213C79.3099 283.265 79.2362 283.339 79.1843 283.436C79.1324 283.533 79.1064 283.649 79.1064 283.782H78.2644C78.2644 283.508 78.3266 283.27 78.4508 283.067C78.5751 282.865 78.7493 282.709 78.9733 282.598C79.1973 282.488 79.4554 282.432 79.7477 282.432C80.0482 282.432 80.3097 282.486 80.5324 282.592C80.7563 282.697 80.9305 282.843 81.0548 283.031C81.1791 283.218 81.2412 283.432 81.2412 283.674C81.2412 283.832 81.2098 283.989 81.147 284.143C81.0855 284.297 80.9756 284.469 80.8171 284.657C80.6587 284.844 80.4354 285.069 80.1472 285.331L79.5346 285.932V285.96H81.2965V286.686H78.3054ZM81.7857 285.948V285.249L83.5373 282.49H84.1397V283.457H83.7832L82.6789 285.204V285.237H85.1681V285.948H81.7857ZM83.7996 286.686V285.735L83.816 285.426V282.49H84.6477V286.686H83.7996Z" fill="#C98060"/>
<rect x="100.923" y="260.993" width="61.5384" height="7.69231" stroke="#C98060" stroke-width="0.833333"/>
<path d="M129.775 286.743C129.469 286.743 129.196 286.69 128.957 286.585C128.72 286.479 128.532 286.332 128.394 286.147C128.257 285.96 128.187 285.744 128.183 285.499H129.076C129.082 285.602 129.115 285.692 129.176 285.77C129.239 285.846 129.323 285.906 129.426 285.948C129.53 285.99 129.647 286.012 129.777 286.012C129.912 286.012 130.031 285.988 130.135 285.94C130.239 285.892 130.32 285.826 130.379 285.741C130.438 285.656 130.467 285.559 130.467 285.448C130.467 285.336 130.436 285.237 130.373 285.151C130.311 285.064 130.223 284.995 130.107 284.946C129.992 284.897 129.855 284.872 129.697 284.872H129.306V284.221H129.697C129.831 284.221 129.949 284.198 130.051 284.151C130.155 284.105 130.236 284.041 130.293 283.959C130.35 283.875 130.379 283.778 130.379 283.668C130.379 283.563 130.354 283.47 130.303 283.391C130.254 283.311 130.184 283.248 130.094 283.203C130.006 283.158 129.902 283.135 129.783 283.135C129.663 283.135 129.553 283.157 129.453 283.201C129.353 283.243 129.273 283.304 129.213 283.383C129.153 283.462 129.121 283.555 129.117 283.662H128.267C128.271 283.42 128.34 283.207 128.474 283.022C128.608 282.838 128.788 282.694 129.015 282.59C129.243 282.485 129.5 282.432 129.787 282.432C130.077 282.432 130.33 282.485 130.547 282.59C130.764 282.695 130.933 282.837 131.053 283.016C131.175 283.194 131.235 283.393 131.233 283.614C131.235 283.849 131.162 284.045 131.014 284.202C130.868 284.36 130.678 284.459 130.443 284.502V284.534C130.751 284.574 130.986 284.681 131.147 284.856C131.31 285.029 131.39 285.247 131.389 285.508C131.39 285.747 131.321 285.959 131.182 286.145C131.044 286.33 130.854 286.477 130.611 286.583C130.367 286.69 130.089 286.743 129.775 286.743ZM133.592 286.743C133.277 286.743 132.996 286.692 132.75 286.589C132.505 286.485 132.314 286.344 132.174 286.165C132.035 285.986 131.965 285.783 131.965 285.557C131.965 285.382 132.005 285.221 132.084 285.075C132.165 284.928 132.274 284.805 132.412 284.709C132.55 284.61 132.704 284.547 132.875 284.52V284.491C132.651 284.446 132.469 284.338 132.33 284.166C132.191 283.992 132.121 283.791 132.121 283.561C132.121 283.344 132.185 283.151 132.312 282.981C132.439 282.811 132.613 282.677 132.834 282.58C133.057 282.482 133.309 282.432 133.592 282.432C133.875 282.432 134.127 282.482 134.348 282.58C134.571 282.678 134.745 282.813 134.872 282.983C134.999 283.153 135.064 283.345 135.065 283.561C135.064 283.792 134.993 283.994 134.852 284.166C134.711 284.338 134.531 284.446 134.311 284.491V284.52C134.479 284.547 134.631 284.61 134.768 284.709C134.906 284.805 135.015 284.928 135.096 285.075C135.178 285.221 135.219 285.382 135.221 285.557C135.219 285.783 135.149 285.986 135.01 286.165C134.87 286.344 134.678 286.485 134.432 286.589C134.188 286.692 133.908 286.743 133.592 286.743ZM133.592 286.091C133.733 286.091 133.856 286.066 133.961 286.016C134.066 285.964 134.148 285.893 134.207 285.803C134.267 285.711 134.297 285.606 134.297 285.487C134.297 285.365 134.266 285.258 134.205 285.165C134.143 285.071 134.06 284.997 133.955 284.944C133.849 284.889 133.729 284.862 133.592 284.862C133.457 284.862 133.336 284.889 133.229 284.944C133.123 284.997 133.039 285.071 132.977 285.165C132.917 285.258 132.887 285.365 132.887 285.487C132.887 285.606 132.917 285.711 132.975 285.803C133.034 285.893 133.117 285.964 133.223 286.016C133.33 286.066 133.453 286.091 133.592 286.091ZM133.592 284.217C133.709 284.217 133.814 284.193 133.905 284.145C133.997 284.097 134.069 284.031 134.121 283.946C134.172 283.862 134.198 283.764 134.198 283.653C134.198 283.544 134.172 283.449 134.121 283.367C134.069 283.283 133.998 283.218 133.908 283.172C133.817 283.124 133.712 283.1 133.592 283.1C133.473 283.1 133.368 283.124 133.277 283.172C133.185 283.218 133.113 283.283 133.061 283.367C133.011 283.449 132.986 283.544 132.986 283.653C132.986 283.764 133.012 283.862 133.063 283.946C133.115 284.031 133.187 284.097 133.279 284.145C133.37 284.193 133.475 284.217 133.592 284.217Z" fill="#C98060"/>
<rect x="162.461" y="260.993" width="100" height="7.69231" stroke="#C98060" stroke-width="0.833333"/>
<path d="M210.691 286.743C210.475 286.742 210.266 286.705 210.066 286.634C209.866 286.563 209.687 286.448 209.529 286.288C209.37 286.128 209.245 285.917 209.152 285.653C209.06 285.389 209.015 285.066 209.015 284.682C209.016 284.33 209.056 284.015 209.136 283.737C209.216 283.459 209.331 283.223 209.48 283.029C209.63 282.835 209.81 282.687 210.019 282.586C210.228 282.484 210.462 282.432 210.721 282.432C211.001 282.432 211.248 282.487 211.463 282.596C211.677 282.704 211.849 282.851 211.979 283.037C212.11 283.223 212.19 283.431 212.217 283.662H211.342C211.308 283.515 211.236 283.401 211.127 283.317C211.018 283.234 210.882 283.192 210.721 283.192C210.448 283.192 210.241 283.311 210.098 283.549C209.958 283.787 209.886 284.11 209.883 284.518H209.912C209.975 284.394 210.06 284.288 210.166 284.2C210.274 284.112 210.396 284.044 210.533 283.998C210.671 283.95 210.816 283.926 210.969 283.926C211.218 283.926 211.439 283.985 211.633 284.102C211.827 284.218 211.98 284.378 212.092 284.581C212.204 284.785 212.26 285.018 212.26 285.28C212.26 285.564 212.194 285.817 212.061 286.038C211.93 286.259 211.746 286.433 211.51 286.559C211.275 286.683 211.002 286.744 210.691 286.743ZM210.686 286.046C210.823 286.046 210.945 286.014 211.053 285.948C211.161 285.882 211.246 285.794 211.307 285.682C211.369 285.57 211.399 285.444 211.399 285.305C211.399 285.165 211.369 285.04 211.307 284.93C211.247 284.819 211.164 284.731 211.057 284.665C210.951 284.6 210.829 284.567 210.693 284.567C210.59 284.567 210.495 284.586 210.408 284.625C210.322 284.663 210.246 284.716 210.18 284.784C210.116 284.853 210.066 284.932 210.029 285.022C209.992 285.111 209.973 285.206 209.973 285.307C209.973 285.442 210.004 285.566 210.066 285.678C210.129 285.79 210.213 285.879 210.32 285.946C210.428 286.013 210.55 286.046 210.686 286.046ZM212.889 286.686V286.046L214.382 284.663C214.509 284.541 214.616 284.43 214.702 284.332C214.789 284.233 214.856 284.137 214.901 284.043C214.946 283.947 214.968 283.844 214.968 283.733C214.968 283.61 214.94 283.505 214.884 283.416C214.828 283.326 214.752 283.257 214.655 283.209C214.558 283.16 214.448 283.135 214.325 283.135C214.197 283.135 214.085 283.161 213.989 283.213C213.893 283.265 213.82 283.339 213.768 283.436C213.716 283.533 213.69 283.649 213.69 283.782H212.848C212.848 283.508 212.91 283.27 213.034 283.067C213.159 282.865 213.333 282.709 213.557 282.598C213.781 282.488 214.039 282.432 214.331 282.432C214.632 282.432 214.893 282.486 215.116 282.592C215.34 282.697 215.514 282.843 215.638 283.031C215.763 283.218 215.825 283.432 215.825 283.674C215.825 283.832 215.793 283.989 215.73 284.143C215.669 284.297 215.559 284.469 215.401 284.657C215.242 284.844 215.019 285.069 214.731 285.331L214.118 285.932V285.96H215.88V286.686H212.889Z" fill="#C98060"/>
<rect x="262.461" y="260.993" width="161.538" height="7.69231" stroke="#C98060" stroke-width="0.833333"/>
<path d="M340.013 282.49V286.686H339.126V283.332H339.101L338.14 283.934V283.147L339.179 282.49H340.013ZM342.655 286.778C342.303 286.776 342 286.69 341.746 286.518C341.493 286.345 341.298 286.096 341.162 285.77C341.026 285.443 340.96 285.051 340.961 284.592C340.961 284.134 341.029 283.744 341.164 283.422C341.3 283.1 341.495 282.854 341.748 282.686C342.002 282.517 342.304 282.432 342.655 282.432C343.006 282.432 343.308 282.517 343.561 282.686C343.815 282.856 344.01 283.102 344.147 283.424C344.283 283.745 344.351 284.134 344.35 284.592C344.35 285.052 344.281 285.445 344.145 285.772C344.009 286.098 343.815 286.348 343.563 286.52C343.31 286.692 343.008 286.778 342.655 286.778ZM342.655 286.042C342.896 286.042 343.087 285.921 343.231 285.68C343.374 285.438 343.445 285.075 343.444 284.592C343.444 284.274 343.411 284.009 343.346 283.797C343.281 283.585 343.19 283.426 343.071 283.319C342.954 283.213 342.815 283.16 342.655 283.16C342.416 283.16 342.225 283.279 342.082 283.518C341.938 283.757 341.866 284.115 341.864 284.592C341.864 284.914 341.896 285.183 341.961 285.399C342.026 285.613 342.118 285.775 342.237 285.882C342.356 285.989 342.495 286.042 342.655 286.042ZM346.627 286.778C346.275 286.776 345.972 286.69 345.718 286.518C345.465 286.345 345.27 286.096 345.134 285.77C344.998 285.443 344.932 285.051 344.933 284.592C344.933 284.134 345 283.744 345.136 283.422C345.272 283.1 345.467 282.854 345.72 282.686C345.974 282.517 346.276 282.432 346.627 282.432C346.978 282.432 347.28 282.517 347.533 282.686C347.787 282.856 347.982 283.102 348.119 283.424C348.255 283.745 348.323 284.134 348.321 284.592C348.321 285.052 348.253 285.445 348.117 285.772C347.981 286.098 347.787 286.348 347.535 286.52C347.282 286.692 346.98 286.778 346.627 286.778ZM346.627 286.042C346.868 286.042 347.059 285.921 347.203 285.68C347.346 285.438 347.417 285.075 347.416 284.592C347.416 284.274 347.383 284.009 347.318 283.797C347.253 283.585 347.162 283.426 347.043 283.319C346.926 283.213 346.787 283.16 346.627 283.16C346.388 283.16 346.197 283.279 346.054 283.518C345.91 283.757 345.838 284.115 345.836 284.592C345.836 284.914 345.868 285.183 345.933 285.399C345.998 285.613 346.09 285.775 346.209 285.882C346.328 285.989 346.467 286.042 346.627 286.042Z" fill="#C98060"/>
</svg>
