<svg width="448" height="400" viewBox="0 0 448 400" fill="none" xmlns="http://www.w3.org/2000/svg">
<circle cx="224.003" cy="181.29" r="138.573" stroke="#C98060" stroke-width="2.8125"/>
<rect x="224.012" y="181.291" width="138.573" height="138.573" fill="#C98060" fill-opacity="0.2" stroke="#C98060" stroke-width="2.8125"/>
<path d="M362.571 181.291L223.998 319.864" stroke="#C98060" stroke-width="2.8125"/>
<path d="M224.012 42.7178L224.012 319.863" stroke="#C98060" stroke-width="2.8125" stroke-dasharray="1.39 5.54"/>
<path d="M362.571 181.291L85.4255 181.291" stroke="#C98060" stroke-width="2.8125" stroke-dasharray="1.39 5.54"/>
<path d="M315.917 356.893C315.846 356.294 315.558 355.83 315.054 355.499C314.55 355.168 313.932 355.003 313.2 355.003C312.665 355.003 312.196 355.09 311.795 355.263C311.397 355.436 311.086 355.674 310.862 355.977C310.641 356.281 310.531 356.625 310.531 357.011C310.531 357.334 310.608 357.611 310.761 357.843C310.919 358.072 311.12 358.263 311.364 358.416C311.608 358.566 311.864 358.69 312.131 358.788C312.399 358.883 312.645 358.959 312.87 359.019L314.098 359.349C314.413 359.432 314.763 359.546 315.149 359.692C315.539 359.837 315.911 360.036 316.265 360.288C316.623 360.536 316.918 360.855 317.151 361.245C317.383 361.634 317.499 362.113 317.499 362.68C317.499 363.333 317.328 363.924 316.985 364.451C316.647 364.979 316.151 365.398 315.497 365.709C314.848 366.02 314.058 366.175 313.129 366.175C312.263 366.175 311.513 366.036 310.879 365.756C310.25 365.477 309.754 365.087 309.391 364.587C309.033 364.087 308.83 363.506 308.783 362.845H310.295C310.334 363.302 310.488 363.68 310.755 363.979C311.027 364.274 311.37 364.494 311.783 364.64C312.2 364.782 312.649 364.853 313.129 364.853C313.688 364.853 314.19 364.762 314.635 364.581C315.08 364.396 315.432 364.14 315.692 363.813C315.952 363.483 316.082 363.097 316.082 362.656C316.082 362.254 315.97 361.928 315.745 361.676C315.521 361.424 315.226 361.219 314.86 361.062C314.493 360.904 314.098 360.766 313.673 360.648L312.185 360.223C311.24 359.952 310.492 359.564 309.941 359.06C309.389 358.556 309.114 357.897 309.114 357.082C309.114 356.405 309.297 355.814 309.663 355.31C310.033 354.802 310.529 354.409 311.151 354.129C311.777 353.846 312.476 353.704 313.247 353.704C314.027 353.704 314.72 353.844 315.326 354.123C315.932 354.399 316.413 354.777 316.767 355.257C317.125 355.737 317.314 356.282 317.334 356.893H315.917ZM325.906 369.364V364.569H325.788C325.686 364.735 325.54 364.943 325.351 365.195C325.162 365.443 324.893 365.666 324.542 365.863C324.192 366.055 323.726 366.152 323.143 366.152C322.387 366.152 321.72 365.961 321.141 365.579C320.562 365.193 320.11 364.65 319.783 363.949C319.456 363.245 319.293 362.412 319.293 361.451C319.293 360.499 319.456 359.672 319.783 358.971C320.11 358.271 320.564 357.729 321.147 357.347C321.73 356.966 322.403 356.775 323.167 356.775C323.757 356.775 324.224 356.873 324.566 357.07C324.912 357.263 325.176 357.483 325.357 357.731C325.542 357.975 325.686 358.176 325.788 358.334H325.954V356.893H327.3V369.364H325.906ZM323.332 364.9C323.891 364.9 324.363 364.754 324.749 364.463C325.135 364.168 325.428 363.76 325.629 363.241C325.83 362.717 325.93 362.113 325.93 361.428C325.93 360.751 325.832 360.158 325.635 359.65C325.438 359.139 325.147 358.741 324.761 358.458C324.375 358.17 323.899 358.026 323.332 358.026C322.741 358.026 322.249 358.178 321.856 358.481C321.466 358.78 321.173 359.188 320.976 359.703C320.783 360.215 320.686 360.79 320.686 361.428C320.686 362.073 320.785 362.66 320.982 363.188C321.182 363.711 321.478 364.128 321.867 364.439C322.261 364.746 322.749 364.9 323.332 364.9ZM335.567 362.254V356.893H336.961V365.963H335.567V364.428H335.473C335.26 364.888 334.929 365.28 334.481 365.603C334.032 365.922 333.465 366.081 332.78 366.081C332.213 366.081 331.709 365.957 331.268 365.709C330.827 365.457 330.481 365.079 330.229 364.575C329.977 364.067 329.851 363.428 329.851 362.656V356.893H331.245V362.562C331.245 363.223 331.43 363.75 331.8 364.144C332.174 364.538 332.65 364.735 333.229 364.735C333.575 364.735 333.928 364.646 334.286 364.469C334.648 364.292 334.951 364.02 335.195 363.654C335.443 363.288 335.567 362.821 335.567 362.254ZM342.182 366.175C341.608 366.175 341.086 366.067 340.618 365.851C340.149 365.63 339.777 365.313 339.501 364.9C339.226 364.483 339.088 363.979 339.088 363.388C339.088 362.869 339.19 362.447 339.395 362.125C339.6 361.798 339.873 361.542 340.216 361.357C340.558 361.172 340.936 361.034 341.35 360.944C341.767 360.849 342.186 360.774 342.608 360.719C343.159 360.648 343.605 360.595 343.948 360.56C344.294 360.52 344.546 360.455 344.704 360.365C344.865 360.274 344.946 360.117 344.946 359.892V359.845C344.946 359.263 344.786 358.81 344.468 358.487C344.153 358.164 343.674 358.003 343.033 358.003C342.367 358.003 341.846 358.148 341.468 358.44C341.09 358.731 340.824 359.042 340.671 359.373L339.348 358.9C339.584 358.349 339.899 357.92 340.293 357.613C340.69 357.302 341.123 357.086 341.592 356.964C342.064 356.838 342.529 356.775 342.985 356.775C343.277 356.775 343.611 356.81 343.989 356.881C344.371 356.948 344.739 357.088 345.094 357.3C345.452 357.513 345.749 357.834 345.985 358.263C346.221 358.692 346.34 359.267 346.34 359.987V365.963H344.946V364.735H344.875C344.781 364.931 344.623 365.142 344.403 365.366C344.182 365.591 343.889 365.782 343.523 365.939C343.157 366.097 342.71 366.175 342.182 366.175ZM342.395 364.924C342.946 364.924 343.411 364.815 343.789 364.599C344.17 364.382 344.458 364.103 344.651 363.76C344.848 363.418 344.946 363.058 344.946 362.68V361.404C344.887 361.475 344.757 361.54 344.556 361.599C344.359 361.654 344.131 361.703 343.871 361.747C343.615 361.786 343.365 361.821 343.121 361.853C342.881 361.881 342.686 361.904 342.537 361.924C342.174 361.971 341.836 362.048 341.521 362.154C341.21 362.256 340.958 362.412 340.765 362.621C340.576 362.825 340.482 363.105 340.482 363.459C340.482 363.943 340.661 364.309 341.019 364.557C341.381 364.802 341.84 364.924 342.395 364.924ZM348.883 365.963V356.893H350.23V358.263H350.324C350.489 357.814 350.789 357.45 351.222 357.17C351.655 356.891 352.143 356.751 352.686 356.751C352.788 356.751 352.916 356.753 353.07 356.757C353.223 356.761 353.34 356.767 353.418 356.775V358.192C353.371 358.18 353.263 358.162 353.093 358.139C352.928 358.111 352.753 358.097 352.568 358.097C352.127 358.097 351.733 358.19 351.387 358.375C351.044 358.556 350.773 358.808 350.572 359.131C350.375 359.45 350.277 359.814 350.277 360.223V365.963H348.883ZM358.597 366.152C357.723 366.152 356.969 365.959 356.335 365.573C355.705 365.183 355.219 364.64 354.877 363.943C354.538 363.243 354.369 362.428 354.369 361.499C354.369 360.57 354.538 359.751 354.877 359.042C355.219 358.33 355.696 357.775 356.306 357.377C356.92 356.975 357.636 356.775 358.455 356.775C358.928 356.775 359.394 356.853 359.855 357.011C360.315 357.168 360.735 357.424 361.113 357.778C361.491 358.129 361.792 358.593 362.016 359.172C362.24 359.751 362.353 360.463 362.353 361.31V361.9H355.361V360.696H360.935C360.935 360.184 360.833 359.727 360.628 359.326C360.428 358.924 360.14 358.607 359.766 358.375C359.396 358.143 358.959 358.026 358.455 358.026C357.9 358.026 357.42 358.164 357.014 358.44C356.613 358.711 356.304 359.066 356.087 359.503C355.871 359.94 355.763 360.408 355.763 360.908V361.711C355.763 362.396 355.881 362.977 356.117 363.453C356.357 363.926 356.69 364.286 357.115 364.534C357.54 364.778 358.034 364.9 358.597 364.9C358.963 364.9 359.294 364.849 359.589 364.746C359.888 364.64 360.146 364.483 360.363 364.274C360.579 364.061 360.746 363.798 360.865 363.483L362.211 363.861C362.069 364.317 361.831 364.719 361.496 365.065C361.162 365.408 360.748 365.676 360.256 365.868C359.764 366.057 359.211 366.152 358.597 366.152ZM369.149 365.963V356.893H370.496V358.263H370.59C370.756 357.814 371.055 357.45 371.488 357.17C371.921 356.891 372.409 356.751 372.952 356.751C373.055 356.751 373.183 356.753 373.336 356.757C373.49 356.761 373.606 356.767 373.685 356.775V358.192C373.637 358.18 373.529 358.162 373.36 358.139C373.194 358.111 373.019 358.097 372.834 358.097C372.393 358.097 372 358.19 371.653 358.375C371.311 358.556 371.039 358.808 370.838 359.131C370.641 359.45 370.543 359.814 370.543 360.223V365.963H369.149ZM378.745 366.152C377.926 366.152 377.208 365.957 376.59 365.567C375.976 365.178 375.495 364.632 375.149 363.932C374.806 363.231 374.635 362.412 374.635 361.475C374.635 360.53 374.806 359.705 375.149 359.001C375.495 358.296 375.976 357.749 376.59 357.359C377.208 356.969 377.926 356.775 378.745 356.775C379.564 356.775 380.28 356.969 380.895 357.359C381.513 357.749 381.993 358.296 382.335 359.001C382.682 359.705 382.855 360.53 382.855 361.475C382.855 362.412 382.682 363.231 382.335 363.932C381.993 364.632 381.513 365.178 380.895 365.567C380.28 365.957 379.564 366.152 378.745 366.152ZM378.745 364.9C379.367 364.9 379.879 364.741 380.28 364.422C380.682 364.103 380.979 363.684 381.172 363.164C381.365 362.644 381.462 362.081 381.462 361.475C381.462 360.869 381.365 360.304 381.172 359.78C380.979 359.257 380.682 358.833 380.28 358.511C379.879 358.188 379.367 358.026 378.745 358.026C378.123 358.026 377.611 358.188 377.21 358.511C376.808 358.833 376.511 359.257 376.318 359.78C376.125 360.304 376.029 360.869 376.029 361.475C376.029 362.081 376.125 362.644 376.318 363.164C376.511 363.684 376.808 364.103 377.21 364.422C377.611 364.741 378.123 364.9 378.745 364.9ZM388.667 366.152C387.848 366.152 387.13 365.957 386.512 365.567C385.898 365.178 385.417 364.632 385.071 363.932C384.728 363.231 384.557 362.412 384.557 361.475C384.557 360.53 384.728 359.705 385.071 359.001C385.417 358.296 385.898 357.749 386.512 357.359C387.13 356.969 387.848 356.775 388.667 356.775C389.486 356.775 390.203 356.969 390.817 357.359C391.435 357.749 391.915 358.296 392.257 359.001C392.604 359.705 392.777 360.53 392.777 361.475C392.777 362.412 392.604 363.231 392.257 363.932C391.915 364.632 391.435 365.178 390.817 365.567C390.203 365.957 389.486 366.152 388.667 366.152ZM388.667 364.9C389.289 364.9 389.801 364.741 390.203 364.422C390.604 364.103 390.901 363.684 391.094 363.164C391.287 362.644 391.384 362.081 391.384 361.475C391.384 360.869 391.287 360.304 391.094 359.78C390.901 359.257 390.604 358.833 390.203 358.511C389.801 358.188 389.289 358.026 388.667 358.026C388.045 358.026 387.533 358.188 387.132 358.511C386.73 358.833 386.433 359.257 386.24 359.78C386.047 360.304 385.951 360.869 385.951 361.475C385.951 362.081 386.047 362.644 386.24 363.164C386.433 363.684 386.73 364.103 387.132 364.422C387.533 364.741 388.045 364.9 388.667 364.9ZM398.849 356.893V358.074H394.149V356.893H398.849ZM395.519 354.72H396.912V363.365C396.912 363.758 396.969 364.054 397.083 364.25C397.202 364.443 397.351 364.573 397.532 364.64C397.717 364.703 397.912 364.735 398.117 364.735C398.27 364.735 398.396 364.727 398.495 364.711C398.593 364.691 398.672 364.676 398.731 364.664L399.014 365.916C398.92 365.951 398.788 365.987 398.619 366.022C398.449 366.061 398.235 366.081 397.975 366.081C397.581 366.081 397.196 365.996 396.818 365.827C396.444 365.658 396.133 365.4 395.885 365.054C395.641 364.707 395.519 364.27 395.519 363.743V354.72ZM405.599 365.963V364.9L409.59 360.53C410.059 360.018 410.445 359.574 410.748 359.196C411.051 358.814 411.275 358.456 411.421 358.121C411.571 357.782 411.645 357.428 411.645 357.058C411.645 356.633 411.543 356.265 411.338 355.954C411.138 355.643 410.862 355.403 410.512 355.233C410.161 355.064 409.768 354.979 409.331 354.979C408.866 354.979 408.461 355.076 408.114 355.269C407.772 355.458 407.506 355.723 407.317 356.066C407.132 356.408 407.039 356.81 407.039 357.271H405.646C405.646 356.562 405.809 355.94 406.136 355.405C406.463 354.869 406.908 354.452 407.47 354.153C408.037 353.854 408.673 353.704 409.378 353.704C410.086 353.704 410.714 353.854 411.262 354.153C411.809 354.452 412.238 354.855 412.549 355.363C412.86 355.871 413.015 356.436 413.015 357.058C413.015 357.503 412.935 357.938 412.773 358.363C412.616 358.784 412.34 359.255 411.947 359.774C411.557 360.29 411.015 360.92 410.323 361.664L407.606 364.569V364.664H413.228V365.963H405.599Z" fill="#C98060"/>
</svg>
