<svg width="448" height="400" viewBox="0 0 448 400" fill="none" xmlns="http://www.w3.org/2000/svg">
<g clip-path="url(#clip0_687_68041)">
<circle cx="224.003" cy="181.29" r="138.573" stroke="#C98060" stroke-width="2.8125"/>
<rect x="224" y="181.29" width="138.573" height="138.573" fill="#C98060" fill-opacity="0.2" stroke="#C98060" stroke-width="2.8125"/>
<path d="M362.571 181.29L223.998 319.863" stroke="#C98060" stroke-width="2.8125"/>
<path d="M224 -3.01172L224.001 365.592" stroke="#C98060" stroke-width="2.8125" stroke-dasharray="1.39 5.54"/>
<path d="M348.026 57.2695L99.9808 305.315" stroke="#C98060" stroke-width="2.8125" stroke-dasharray="1.39 5.54"/>
<path d="M408.295 181.29L39.6921 181.29" stroke="#C98060" stroke-width="2.8125" stroke-dasharray="1.39 5.54"/>
<path d="M315.926 356.893C315.855 356.294 315.568 355.83 315.064 355.499C314.56 355.168 313.942 355.003 313.21 355.003C312.675 355.003 312.206 355.09 311.805 355.263C311.407 355.436 311.096 355.674 310.872 355.977C310.651 356.281 310.541 356.625 310.541 357.011C310.541 357.334 310.618 357.611 310.771 357.843C310.929 358.072 311.129 358.263 311.373 358.416C311.618 358.566 311.873 358.69 312.141 358.788C312.409 358.883 312.655 358.959 312.879 359.019L314.108 359.349C314.422 359.432 314.773 359.546 315.159 359.692C315.548 359.837 315.92 360.036 316.275 360.288C316.633 360.536 316.928 360.855 317.16 361.245C317.393 361.634 317.509 362.113 317.509 362.68C317.509 363.333 317.338 363.924 316.995 364.451C316.657 364.979 316.161 365.398 315.507 365.709C314.857 366.02 314.068 366.175 313.139 366.175C312.273 366.175 311.523 366.036 310.889 365.756C310.259 365.477 309.763 365.087 309.401 364.587C309.043 364.087 308.84 363.506 308.793 362.845H310.305C310.344 363.302 310.498 363.68 310.765 363.979C311.037 364.274 311.379 364.494 311.793 364.64C312.21 364.782 312.659 364.853 313.139 364.853C313.698 364.853 314.2 364.762 314.645 364.581C315.09 364.396 315.442 364.14 315.702 363.813C315.962 363.483 316.092 363.097 316.092 362.656C316.092 362.254 315.979 361.928 315.755 361.676C315.531 361.424 315.235 361.219 314.869 361.062C314.503 360.904 314.108 360.766 313.682 360.648L312.194 360.223C311.249 359.952 310.501 359.564 309.95 359.06C309.399 358.556 309.124 357.897 309.124 357.082C309.124 356.405 309.307 355.814 309.673 355.31C310.043 354.802 310.539 354.409 311.161 354.129C311.787 353.846 312.486 353.704 313.257 353.704C314.037 353.704 314.73 353.844 315.336 354.123C315.942 354.399 316.422 354.777 316.777 355.257C317.135 355.737 317.324 356.282 317.344 356.893H315.926ZM325.916 369.364V364.569H325.798C325.696 364.735 325.55 364.943 325.361 365.195C325.172 365.443 324.903 365.666 324.552 365.863C324.202 366.055 323.735 366.152 323.153 366.152C322.397 366.152 321.73 365.961 321.151 365.579C320.572 365.193 320.119 364.65 319.793 363.949C319.466 363.245 319.303 362.412 319.303 361.451C319.303 360.499 319.466 359.672 319.793 358.971C320.119 358.271 320.574 357.729 321.157 357.347C321.739 356.966 322.413 356.775 323.176 356.775C323.767 356.775 324.233 356.873 324.576 357.07C324.922 357.263 325.186 357.483 325.367 357.731C325.552 357.975 325.696 358.176 325.798 358.334H325.963V356.893H327.31V369.364H325.916ZM323.342 364.9C323.901 364.9 324.373 364.754 324.759 364.463C325.145 364.168 325.438 363.76 325.639 363.241C325.839 362.717 325.94 362.113 325.94 361.428C325.94 360.751 325.841 360.158 325.645 359.65C325.448 359.139 325.156 358.741 324.771 358.458C324.385 358.17 323.909 358.026 323.342 358.026C322.751 358.026 322.259 358.178 321.865 358.481C321.476 358.78 321.182 359.188 320.985 359.703C320.793 360.215 320.696 360.79 320.696 361.428C320.696 362.073 320.795 362.66 320.991 363.188C321.192 363.711 321.487 364.128 321.877 364.439C322.271 364.746 322.759 364.9 323.342 364.9ZM335.577 362.254V356.893H336.971V365.963H335.577V364.428H335.482C335.27 364.888 334.939 365.28 334.49 365.603C334.042 365.922 333.475 366.081 332.79 366.081C332.223 366.081 331.719 365.957 331.278 365.709C330.837 365.457 330.491 365.079 330.239 364.575C329.987 364.067 329.861 363.428 329.861 362.656V356.893H331.254V362.562C331.254 363.223 331.439 363.75 331.81 364.144C332.183 364.538 332.66 364.735 333.239 364.735C333.585 364.735 333.937 364.646 334.296 364.469C334.658 364.292 334.961 364.02 335.205 363.654C335.453 363.288 335.577 362.821 335.577 362.254ZM342.192 366.175C341.617 366.175 341.096 366.067 340.627 365.851C340.159 365.63 339.787 365.313 339.511 364.9C339.236 364.483 339.098 363.979 339.098 363.388C339.098 362.869 339.2 362.447 339.405 362.125C339.61 361.798 339.883 361.542 340.226 361.357C340.568 361.172 340.946 361.034 341.36 360.944C341.777 360.849 342.196 360.774 342.617 360.719C343.168 360.648 343.615 360.595 343.958 360.56C344.304 360.52 344.556 360.455 344.714 360.365C344.875 360.274 344.956 360.117 344.956 359.892V359.845C344.956 359.263 344.796 358.81 344.477 358.487C344.162 358.164 343.684 358.003 343.042 358.003C342.377 358.003 341.856 358.148 341.478 358.44C341.1 358.731 340.834 359.042 340.68 359.373L339.358 358.9C339.594 358.349 339.909 357.92 340.302 357.613C340.7 357.302 341.133 357.086 341.602 356.964C342.074 356.838 342.539 356.775 342.995 356.775C343.287 356.775 343.621 356.81 343.999 356.881C344.381 356.948 344.749 357.088 345.103 357.3C345.462 357.513 345.759 357.834 345.995 358.263C346.231 358.692 346.349 359.267 346.349 359.987V365.963H344.956V364.735H344.885C344.79 364.931 344.633 365.142 344.412 365.366C344.192 365.591 343.899 365.782 343.533 365.939C343.166 366.097 342.72 366.175 342.192 366.175ZM342.405 364.924C342.956 364.924 343.42 364.815 343.798 364.599C344.18 364.382 344.468 364.103 344.66 363.76C344.857 363.418 344.956 363.058 344.956 362.68V361.404C344.897 361.475 344.767 361.54 344.566 361.599C344.369 361.654 344.141 361.703 343.881 361.747C343.625 361.786 343.375 361.821 343.131 361.853C342.891 361.881 342.696 361.904 342.546 361.924C342.184 361.971 341.846 362.048 341.531 362.154C341.22 362.256 340.968 362.412 340.775 362.621C340.586 362.825 340.491 363.105 340.491 363.459C340.491 363.943 340.671 364.309 341.029 364.557C341.391 364.802 341.85 364.924 342.405 364.924ZM348.893 365.963V356.893H350.239V358.263H350.334C350.499 357.814 350.798 357.45 351.231 357.17C351.664 356.891 352.153 356.751 352.696 356.751C352.798 356.751 352.926 356.753 353.08 356.757C353.233 356.761 353.349 356.767 353.428 356.775V358.192C353.381 358.18 353.273 358.162 353.103 358.139C352.938 358.111 352.763 358.097 352.578 358.097C352.137 358.097 351.743 358.19 351.397 358.375C351.054 358.556 350.783 358.808 350.582 359.131C350.385 359.45 350.287 359.814 350.287 360.223V365.963H348.893ZM358.607 366.152C357.733 366.152 356.979 365.959 356.345 365.573C355.715 365.183 355.229 364.64 354.887 363.943C354.548 363.243 354.379 362.428 354.379 361.499C354.379 360.57 354.548 359.751 354.887 359.042C355.229 358.33 355.705 357.775 356.316 357.377C356.93 356.975 357.646 356.775 358.465 356.775C358.937 356.775 359.404 356.853 359.865 357.011C360.325 357.168 360.744 357.424 361.122 357.778C361.5 358.129 361.801 358.593 362.026 359.172C362.25 359.751 362.362 360.463 362.362 361.31V361.9H355.371V360.696H360.945C360.945 360.184 360.843 359.727 360.638 359.326C360.437 358.924 360.15 358.607 359.776 358.375C359.406 358.143 358.969 358.026 358.465 358.026C357.91 358.026 357.43 358.164 357.024 358.44C356.623 358.711 356.314 359.066 356.097 359.503C355.881 359.94 355.772 360.408 355.772 360.908V361.711C355.772 362.396 355.89 362.977 356.127 363.453C356.367 363.926 356.699 364.286 357.125 364.534C357.55 364.778 358.044 364.9 358.607 364.9C358.973 364.9 359.304 364.849 359.599 364.746C359.898 364.64 360.156 364.483 360.372 364.274C360.589 364.061 360.756 363.798 360.874 363.483L362.221 363.861C362.079 364.317 361.841 364.719 361.506 365.065C361.172 365.408 360.758 365.676 360.266 365.868C359.774 366.057 359.221 366.152 358.607 366.152ZM369.159 365.963V356.893H370.506V358.263H370.6C370.765 357.814 371.065 357.45 371.498 357.17C371.931 356.891 372.419 356.751 372.962 356.751C373.064 356.751 373.192 356.753 373.346 356.757C373.499 356.761 373.616 356.767 373.694 356.775V358.192C373.647 358.18 373.539 358.162 373.369 358.139C373.204 358.111 373.029 358.097 372.844 358.097C372.403 358.097 372.009 358.19 371.663 358.375C371.32 358.556 371.049 358.808 370.848 359.131C370.651 359.45 370.553 359.814 370.553 360.223V365.963H369.159ZM378.755 366.152C377.936 366.152 377.218 365.957 376.6 365.567C375.985 365.178 375.505 364.632 375.159 363.932C374.816 363.231 374.645 362.412 374.645 361.475C374.645 360.53 374.816 359.705 375.159 359.001C375.505 358.296 375.985 357.749 376.6 357.359C377.218 356.969 377.936 356.775 378.755 356.775C379.574 356.775 380.29 356.969 380.904 357.359C381.522 357.749 382.003 358.296 382.345 359.001C382.692 359.705 382.865 360.53 382.865 361.475C382.865 362.412 382.692 363.231 382.345 363.932C382.003 364.632 381.522 365.178 380.904 365.567C380.29 365.957 379.574 366.152 378.755 366.152ZM378.755 364.9C379.377 364.9 379.889 364.741 380.29 364.422C380.692 364.103 380.989 363.684 381.182 363.164C381.375 362.644 381.471 362.081 381.471 361.475C381.471 360.869 381.375 360.304 381.182 359.78C380.989 359.257 380.692 358.833 380.29 358.511C379.889 358.188 379.377 358.026 378.755 358.026C378.133 358.026 377.621 358.188 377.22 358.511C376.818 358.833 376.521 359.257 376.328 359.78C376.135 360.304 376.039 360.869 376.039 361.475C376.039 362.081 376.135 362.644 376.328 363.164C376.521 363.684 376.818 364.103 377.22 364.422C377.621 364.741 378.133 364.9 378.755 364.9ZM388.677 366.152C387.858 366.152 387.14 365.957 386.522 365.567C385.907 365.178 385.427 364.632 385.081 363.932C384.738 363.231 384.567 362.412 384.567 361.475C384.567 360.53 384.738 359.705 385.081 359.001C385.427 358.296 385.907 357.749 386.522 357.359C387.14 356.969 387.858 356.775 388.677 356.775C389.496 356.775 390.212 356.969 390.826 357.359C391.444 357.749 391.925 358.296 392.267 359.001C392.614 359.705 392.787 360.53 392.787 361.475C392.787 362.412 392.614 363.231 392.267 363.932C391.925 364.632 391.444 365.178 390.826 365.567C390.212 365.957 389.496 366.152 388.677 366.152ZM388.677 364.9C389.299 364.9 389.811 364.741 390.212 364.422C390.614 364.103 390.911 363.684 391.104 363.164C391.297 362.644 391.393 362.081 391.393 361.475C391.393 360.869 391.297 360.304 391.104 359.78C390.911 359.257 390.614 358.833 390.212 358.511C389.811 358.188 389.299 358.026 388.677 358.026C388.055 358.026 387.543 358.188 387.142 358.511C386.74 358.833 386.443 359.257 386.25 359.78C386.057 360.304 385.961 360.869 385.961 361.475C385.961 362.081 386.057 362.644 386.25 363.164C386.443 363.684 386.74 364.103 387.142 364.422C387.543 364.741 388.055 364.9 388.677 364.9ZM398.859 356.893V358.074H394.158V356.893H398.859ZM395.528 354.72H396.922V363.365C396.922 363.758 396.979 364.054 397.093 364.25C397.211 364.443 397.361 364.573 397.542 364.64C397.727 364.703 397.922 364.735 398.127 364.735C398.28 364.735 398.406 364.727 398.504 364.711C398.603 364.691 398.682 364.676 398.741 364.664L399.024 365.916C398.93 365.951 398.798 365.987 398.628 366.022C398.459 366.061 398.245 366.081 397.985 366.081C397.591 366.081 397.205 365.996 396.827 365.827C396.453 365.658 396.142 365.4 395.894 365.054C395.65 364.707 395.528 364.27 395.528 363.743V354.72ZM405.608 365.963V364.9L409.6 360.53C410.069 360.018 410.454 359.574 410.758 359.196C411.061 358.814 411.285 358.456 411.431 358.121C411.58 357.782 411.655 357.428 411.655 357.058C411.655 356.633 411.553 356.265 411.348 355.954C411.147 355.643 410.872 355.403 410.521 355.233C410.171 355.064 409.777 354.979 409.34 354.979C408.876 354.979 408.47 355.076 408.124 355.269C407.781 355.458 407.516 355.723 407.327 356.066C407.142 356.408 407.049 356.81 407.049 357.271H405.656C405.656 356.562 405.819 355.94 406.146 355.405C406.472 354.869 406.917 354.452 407.48 354.153C408.047 353.854 408.683 353.704 409.388 353.704C410.096 353.704 410.724 353.854 411.271 354.153C411.818 354.452 412.248 354.855 412.559 355.363C412.87 355.871 413.025 356.436 413.025 357.058C413.025 357.503 412.944 357.938 412.783 358.363C412.626 358.784 412.35 359.255 411.956 359.774C411.567 360.29 411.025 360.92 410.332 361.664L407.616 364.569V364.664H413.238V365.963H405.608Z" fill="#C98060"/>
<path d="M223.994 42.7178L322.96 83.7106L363.952 182.676L322.96 281.642L223.994 322.635L125.029 281.642L84.0356 182.676L125.029 83.7106L223.994 42.7178Z" stroke="#C98060" stroke-width="2.8125"/>
</g>
<defs>
<clipPath id="clip0_687_68041">
<rect width="448" height="400" rx="4" fill="white"/>
</clipPath>
</defs>
</svg>
