<svg width="448" height="400" viewBox="0 0 448 400" fill="none" xmlns="http://www.w3.org/2000/svg">
<rect x="331.693" y="230.697" width="30.7505" height="30.7692" transform="rotate(90 331.693 230.697)" stroke="white" stroke-width="0.555556"/>
<rect x="300.923" y="230.697" width="30.7505" height="30.7692" transform="rotate(90 300.923 230.697)" stroke="white" stroke-width="0.555556"/>
<rect x="331.693" y="261.448" width="61.5011" height="61.5385" transform="rotate(90 331.693 261.448)" stroke="white" stroke-width="0.555556"/>
<rect x="424" y="230.697" width="92.2516" height="92.3077" transform="rotate(90 424 230.697)" stroke="white" stroke-width="0.555556"/>
<rect x="424" y="76.9443" width="153.753" height="153.846" transform="rotate(90 424 76.9443)" stroke="white" stroke-width="0.555556"/>
<rect x="270.155" y="76.9443" width="246.004" height="246.154" transform="rotate(90 270.155 76.9443)" stroke="white" stroke-width="0.555556"/>
<ellipse cx="285.539" cy="246.073" rx="15.3846" ry="15.3753" stroke="white" stroke-width="0.555556"/>
<ellipse cx="316.307" cy="246.073" rx="15.3846" ry="15.3753" stroke="white" stroke-width="0.555556"/>
<ellipse cx="300.924" cy="292.198" rx="30.7692" ry="30.7505" stroke="white" stroke-width="0.555556"/>
<ellipse cx="377.847" cy="276.823" rx="46.1538" ry="46.1258" stroke="white" stroke-width="0.555556"/>
<ellipse cx="347.077" cy="153.821" rx="76.9231" ry="76.8764" stroke="white" stroke-width="0.555556"/>
<ellipse cx="147.077" cy="199.947" rx="123.077" ry="123.002" stroke="white" stroke-width="0.555556"/>
<path d="M270.25 323.045L270.25 76.9445" stroke="white" stroke-width="0.555556"/>
<path d="M300.875 323.045L300.875 76.9445" stroke="white" stroke-width="0.555556"/>
<path d="M331.708 323.045L331.709 76.9445" stroke="white" stroke-width="0.555556"/>
<path d="M424 230.81L24.0005 230.81" stroke="white" stroke-width="0.555556"/>
<path d="M424 261.416L24.0005 261.416" stroke="white" stroke-width="0.555556"/>
</svg>
