<svg width="448" height="400" viewBox="0 0 448 400" fill="none" xmlns="http://www.w3.org/2000/svg">
<rect x="130.953" y="143.208" width="11.8341" height="10.3731" rx="5.18656" stroke="#C98060" stroke-width="1.9505"/>
<rect x="119.119" y="143.208" width="11.8341" height="10.3731" rx="5.18656" stroke="#C98060" stroke-width="1.9505"/>
<rect x="119.119" y="153.581" width="23.6683" height="20.7462" rx="10.3731" stroke="#C98060" stroke-width="1.9505"/>
<rect x="142.778" y="143.208" width="35.5024" height="31.1193" rx="15.5597" stroke="#C98060" stroke-width="1.9505"/>
<rect x="119.119" y="91.3428" width="59.1706" height="51.8656" rx="25.9328" stroke="#C98060" stroke-width="1.9505"/>
<rect x="24.4426" y="91.3428" width="94.673" height="82.9849" rx="41.4925" stroke="#C98060" stroke-width="1.9505"/>
<rect x="24.4426" y="174.325" width="153.844" height="134.85" rx="67.4252" stroke="#C98060" stroke-width="1.9505"/>
<rect x="178.286" y="91.3428" width="248.517" height="217.835" rx="108.918" stroke="#C98060" stroke-width="1.9505"/>
<rect x="130.953" y="143.208" width="11.8341" height="10.3731" stroke="#C98060" stroke-width="1.9505"/>
<rect x="119.119" y="143.208" width="11.8341" height="10.3731" stroke="#C98060" stroke-width="1.9505"/>
<rect x="119.119" y="153.581" width="23.6683" height="20.7462" stroke="#C98060" stroke-width="1.9505"/>
<rect x="142.778" y="143.208" width="35.5024" height="31.1193" stroke="#C98060" stroke-width="1.9505"/>
<rect x="119.119" y="91.3428" width="59.1706" height="51.8656" stroke="#C98060" stroke-width="1.9505"/>
<rect x="24.4426" y="91.3428" width="94.673" height="82.9849" stroke="#C98060" stroke-width="1.9505"/>
<rect x="24.4426" y="174.325" width="153.844" height="134.85" stroke="#C98060" stroke-width="1.9505"/>
<rect x="178.286" y="91.3428" width="248.517" height="217.835" stroke="#C98060" stroke-width="1.9505"/>
<path d="M130.953 143.208H132.414C138.143 143.208 142.787 147.852 142.787 153.581" stroke="#C98060" stroke-width="1.9505"/>
<path d="M130.954 143.208H129.492C123.764 143.208 119.119 147.852 119.119 153.581" stroke="#C98060" stroke-width="1.9505"/>
<path d="M119.119 153.581C119.119 165.039 128.408 174.327 139.866 174.327H142.788" stroke="#C98060" stroke-width="1.9505"/>
<path d="M178.28 143.208C178.28 160.395 164.348 174.327 147.161 174.327H142.778" stroke="#C98060" stroke-width="1.9505"/>
<path d="M119.119 91.3428H126.424C155.069 91.3428 178.29 114.564 178.29 143.208" stroke="#C98060" stroke-width="1.9505"/>
<path d="M119.116 91.3428H107.428C61.5962 91.3428 24.4426 128.496 24.4426 174.328" stroke="#C98060" stroke-width="1.9505"/>
<path d="M24.4426 174.325C24.4426 248.801 84.8172 309.176 159.293 309.176H178.286" stroke="#C98060" stroke-width="1.9505"/>
<path d="M426.803 91.3428C426.803 211.65 329.274 309.178 208.967 309.178H178.286" stroke="#C98060" stroke-width="1.9505"/>
</svg>
