<svg width="448" height="400" viewBox="0 0 448 400" fill="none" xmlns="http://www.w3.org/2000/svg">
<rect x="39.0203" y="191.078" width="197.719" height="197.719" transform="rotate(-27 39.0203 191.078)" stroke="#C98060" stroke-width="1.96078"/>
<rect x="323.096" y="46.3359" width="197.719" height="121.103" transform="rotate(63 323.096 46.3359)" stroke="#C98060" stroke-width="1.96078"/>
<circle cx="127.102" cy="146.197" r="98.8597" transform="rotate(-27 127.102 146.197)" stroke="#C98060" stroke-width="1.96078"/>
<path d="M115.88 124.179L138.321 168.221" stroke="#C98060" stroke-width="1.96078"/>
<path d="M149.122 134.978L105.08 157.418" stroke="#C98060" stroke-width="1.96078"/>
<rect x="126.865" y="46.3506" width="196.236" height="99.8903" stroke="#C98060" stroke-width="1.96078"/>
<path d="M318.212 44.0088V35.381H321.228C321.829 35.381 322.325 35.485 322.715 35.6928C323.106 35.8978 323.396 36.1744 323.587 36.5227C323.778 36.8681 323.874 37.2515 323.874 37.6728C323.874 38.0435 323.808 38.3496 323.676 38.5912C323.547 38.8327 323.375 39.0237 323.162 39.1641C322.951 39.3045 322.722 39.4084 322.475 39.4758V39.5601C322.739 39.577 323.004 39.6696 323.271 39.8381C323.538 40.0067 323.761 40.2482 323.941 40.5627C324.121 40.8773 324.211 41.2621 324.211 41.717C324.211 42.1496 324.112 42.5385 323.916 42.884C323.719 43.2294 323.409 43.5033 322.985 43.7055C322.561 43.9077 322.009 44.0088 321.329 44.0088H318.212ZM319.257 43.082H321.329C322.012 43.082 322.496 42.95 322.783 42.686C323.072 42.4192 323.217 42.0962 323.217 41.717C323.217 41.425 323.142 41.1553 322.993 40.9082C322.844 40.6582 322.632 40.4588 322.357 40.31C322.082 40.1583 321.756 40.0825 321.38 40.0825H319.257V43.082ZM319.257 39.1725H321.194C321.509 39.1725 321.793 39.1107 322.045 38.9872C322.301 38.8636 322.503 38.6895 322.652 38.4648C322.804 38.2401 322.88 37.9761 322.88 37.6728C322.88 37.2936 322.748 36.9721 322.484 36.7081C322.22 36.4413 321.801 36.3078 321.228 36.3078H319.257V39.1725Z" fill="#C98060"/>
<path d="M128.263 44.0088H127.168L130.336 35.381H131.415L134.583 44.0088H133.487L130.909 36.746H130.842L128.263 44.0088ZM128.668 40.6386H133.083V41.5654H128.668V40.6386Z" fill="#C98060"/>
<path d="M24.1024 201.263V192.635H29.3094V193.562H25.1472V196.477H29.0397V197.404H25.1472V200.336H29.3768V201.263H24.1024Z" fill="#C98060"/>
<path d="M121.476 384.23V375.603H126.649V376.53H122.52V379.445H126.261V380.372H122.52V384.23H121.476Z" fill="#C98060"/>
<path d="M306.838 296.207V287.579H307.883V291.421H312.483V287.579H313.528V296.207H312.483V292.348H307.883V296.207H306.838Z" fill="#C98060"/>
<path d="M422.472 234.397C422.379 234.113 422.257 233.859 422.105 233.634C421.956 233.407 421.778 233.213 421.57 233.053C421.365 232.893 421.132 232.77 420.871 232.686C420.61 232.602 420.323 232.56 420.011 232.56C419.5 232.56 419.035 232.692 418.617 232.956C418.199 233.22 417.866 233.609 417.619 234.123C417.371 234.637 417.248 235.267 417.248 236.014C417.248 236.761 417.373 237.392 417.623 237.906C417.873 238.42 418.211 238.809 418.638 239.073C419.065 239.337 419.545 239.469 420.079 239.469C420.573 239.469 421.008 239.363 421.385 239.153C421.764 238.939 422.059 238.639 422.269 238.251C422.483 237.861 422.59 237.402 422.59 236.874L422.91 236.941H420.315V236.014H423.601V236.941C423.601 237.652 423.449 238.269 423.146 238.795C422.845 239.32 422.43 239.727 421.899 240.016C421.371 240.303 420.764 240.446 420.079 240.446C419.315 240.446 418.644 240.266 418.065 239.907C417.489 239.547 417.04 239.036 416.717 238.373C416.397 237.711 416.237 236.924 416.237 236.014C416.237 235.332 416.328 234.718 416.511 234.173C416.696 233.626 416.957 233.159 417.294 232.775C417.631 232.39 418.03 232.095 418.491 231.89C418.951 231.685 419.458 231.582 420.011 231.582C420.466 231.582 420.891 231.651 421.284 231.789C421.68 231.924 422.032 232.116 422.341 232.366C422.653 232.613 422.913 232.909 423.12 233.255C423.328 233.598 423.472 233.978 423.55 234.397H422.472Z" fill="#C98060"/>
<path d="M63.0057 296.207V295.449L65.8535 292.331C66.1877 291.966 66.4629 291.649 66.6792 291.379C66.8954 291.107 67.0555 290.851 67.1594 290.612C67.2662 290.371 67.3195 290.118 67.3195 289.854C67.3195 289.551 67.2465 289.288 67.1005 289.066C66.9572 288.845 66.7606 288.673 66.5107 288.552C66.2607 288.432 65.9799 288.371 65.6681 288.371C65.3367 288.371 65.0474 288.44 64.8003 288.578C64.556 288.713 64.3664 288.902 64.2316 289.146C64.0996 289.391 64.0336 289.677 64.0336 290.006H63.0394C63.0394 289.5 63.1559 289.057 63.389 288.675C63.6221 288.293 63.9395 287.995 64.3411 287.781C64.7455 287.568 65.1991 287.461 65.7018 287.461C66.2074 287.461 66.6553 287.568 67.0457 287.781C67.4361 287.995 67.7422 288.283 67.9641 288.645C68.186 289.007 68.2969 289.41 68.2969 289.854C68.2969 290.172 68.2393 290.482 68.1242 290.785C68.0118 291.086 67.8152 291.421 67.5344 291.792C67.2563 292.16 66.8702 292.609 66.3759 293.14L64.438 295.213V295.28H68.4486V296.207H63.0057Z" fill="#C98060"/>
<path d="M116.943 93.7326V102.36H115.898V94.8279H115.848L113.741 96.2266V95.1649L115.898 93.7326H116.943Z" fill="#C98060"/>
<path d="M224.8 32.4142L227.024 36.0035H227.092L229.316 32.4142H230.546L227.833 36.7281L230.546 41.042H229.316L227.092 37.5201H227.024L224.8 41.042H223.57L226.35 36.7281L223.57 32.4142H224.8Z" fill="#C98060"/>
<path d="M325.154 157.749H324.11C324.048 157.449 323.94 157.185 323.785 156.957C323.634 156.73 323.448 156.539 323.229 156.384C323.013 156.227 322.773 156.109 322.509 156.03C322.245 155.952 321.97 155.912 321.683 155.912C321.161 155.912 320.687 156.044 320.263 156.308C319.842 156.572 319.506 156.961 319.257 157.475C319.009 157.989 318.886 158.62 318.886 159.367C318.886 160.114 319.009 160.744 319.257 161.258C319.506 161.772 319.842 162.161 320.263 162.425C320.687 162.689 321.161 162.821 321.683 162.821C321.97 162.821 322.245 162.782 322.509 162.703C322.773 162.625 323.013 162.508 323.229 162.354C323.448 162.196 323.634 162.004 323.785 161.776C323.94 161.546 324.048 161.282 324.11 160.984H325.154C325.076 161.425 324.933 161.82 324.725 162.168C324.517 162.517 324.258 162.813 323.95 163.057C323.641 163.299 323.294 163.483 322.909 163.609C322.527 163.735 322.118 163.799 321.683 163.799C320.947 163.799 320.293 163.619 319.72 163.259C319.147 162.9 318.696 162.389 318.368 161.726C318.039 161.063 317.875 160.277 317.875 159.367C317.875 158.457 318.039 157.67 318.368 157.008C318.696 156.345 319.147 155.834 319.72 155.474C320.293 155.115 320.947 154.935 321.683 154.935C322.118 154.935 322.527 154.998 322.909 155.125C323.294 155.251 323.641 155.436 323.95 155.681C324.258 155.922 324.517 156.217 324.725 156.565C324.933 156.911 325.076 157.305 325.154 157.749Z" fill="#C98060"/>
<path d="M124.635 163.681H121.973V155.053H124.753C125.59 155.053 126.306 155.226 126.902 155.571C127.497 155.914 127.953 156.407 128.271 157.05C128.588 157.69 128.747 158.457 128.747 159.35C128.747 160.249 128.587 161.022 128.267 161.671C127.946 162.317 127.48 162.814 126.868 163.162C126.256 163.508 125.511 163.681 124.635 163.681ZM123.018 162.754H124.568C125.281 162.754 125.872 162.616 126.341 162.341C126.81 162.066 127.16 161.674 127.39 161.166C127.621 160.657 127.736 160.052 127.736 159.35C127.736 158.653 127.622 158.054 127.395 157.551C127.167 157.046 126.827 156.658 126.375 156.388C125.923 156.116 125.36 155.98 124.686 155.98H123.018V162.754Z" fill="#C98060"/>
<path d="M393.562 75.7945C393.562 74.7329 393.699 73.7569 393.975 72.8666C394.253 71.9735 394.649 71.1521 395.163 70.4022H396.039C395.837 70.6802 395.647 71.0229 395.47 71.4301C395.296 71.8345 395.143 72.2797 395.011 72.7655C394.879 73.2486 394.775 73.7485 394.699 74.2653C394.626 74.7821 394.59 75.2918 394.59 75.7945C394.59 76.4629 394.654 77.1412 394.783 77.8293C394.913 78.5174 395.087 79.1563 395.306 79.7461C395.525 80.3359 395.769 80.8161 396.039 81.1869H395.163C394.649 80.437 394.253 79.6169 393.975 78.7266C393.699 77.8335 393.562 76.8561 393.562 75.7945ZM397.489 80.1084V79.3501L400.337 76.2327C400.671 75.8675 400.946 75.5502 401.163 75.2806C401.379 75.0081 401.539 74.7526 401.643 74.5138C401.75 74.2723 401.803 74.0195 401.803 73.7555C401.803 73.4522 401.73 73.1896 401.584 72.9678C401.441 72.7459 401.244 72.5746 400.994 72.4538C400.744 72.333 400.463 72.2726 400.152 72.2726C399.82 72.2726 399.531 72.3415 399.284 72.4791C399.039 72.6139 398.85 72.8035 398.715 73.0478C398.583 73.2921 398.517 73.5786 398.517 73.9072H397.523C397.523 73.4017 397.639 72.9579 397.872 72.576C398.106 72.194 398.423 71.8963 398.824 71.6829C399.229 71.4694 399.682 71.3627 400.185 71.3627C400.691 71.3627 401.139 71.4694 401.529 71.6829C401.919 71.8963 402.226 72.1842 402.447 72.5465C402.669 72.9088 402.78 73.3118 402.78 73.7555C402.78 74.0729 402.723 74.3832 402.608 74.6866C402.495 74.9871 402.299 75.3227 402.018 75.6934C401.74 76.0613 401.354 76.5107 400.859 77.0415L398.921 79.1142V79.1816H402.932V80.1084H397.489ZM404.941 80.1084L408.8 72.4749V72.4075H404.352V71.4806H409.879V72.458L406.037 80.1084H404.941ZM413.252 75.289C412.895 75.289 412.57 75.2019 412.275 75.0278C411.983 74.8537 411.75 74.6206 411.575 74.3285C411.401 74.0336 411.314 73.7078 411.314 73.3511C411.314 72.9944 411.401 72.6701 411.575 72.378C411.75 72.0831 411.983 71.8486 412.275 71.6744C412.57 71.5003 412.895 71.4132 413.252 71.4132C413.609 71.4132 413.933 71.5003 414.225 71.6744C414.52 71.8486 414.755 72.0831 414.929 72.378C415.103 72.6701 415.19 72.9944 415.19 73.3511C415.19 73.7078 415.103 74.0336 414.929 74.3285C414.755 74.6206 414.52 74.8537 414.225 75.0278C413.933 75.2019 413.609 75.289 413.252 75.289ZM413.252 74.4464C413.454 74.4464 413.638 74.3973 413.804 74.299C413.97 74.2007 414.102 74.0687 414.2 73.903C414.298 73.7373 414.347 73.5533 414.347 73.3511C414.347 73.1489 414.298 72.9649 414.2 72.7992C414.102 72.6335 413.97 72.5015 413.804 72.4032C413.638 72.3049 413.454 72.2558 413.252 72.2558C413.05 72.2558 412.866 72.3049 412.7 72.4032C412.535 72.5015 412.403 72.6335 412.304 72.7992C412.206 72.9649 412.157 73.1489 412.157 73.3511C412.157 73.5533 412.206 73.7373 412.304 73.903C412.403 74.0687 412.535 74.2007 412.7 74.299C412.866 74.3973 413.05 74.4464 413.252 74.4464ZM418.976 76.4686C418.976 77.5302 418.837 78.5075 418.559 79.4007C418.284 80.291 417.889 81.111 417.375 81.8609H416.499C416.701 81.5829 416.89 81.2402 417.064 80.833C417.241 80.4286 417.395 79.9848 417.527 79.5018C417.659 79.0159 417.762 78.5146 417.835 77.9978C417.91 77.4782 417.948 76.9685 417.948 76.4686C417.948 75.8001 417.884 75.1219 417.755 74.4338C417.625 73.7457 417.451 73.1068 417.232 72.517C417.013 71.9272 416.769 71.4469 416.499 71.0762H417.375C417.889 71.8261 418.284 72.6476 418.559 73.5407C418.837 74.431 418.976 75.4069 418.976 76.4686Z" fill="#C98060"/>
</svg>
