<svg width="448" height="400" viewBox="0 0 448 400" fill="none" xmlns="http://www.w3.org/2000/svg">
<circle cx="157.703" cy="177.976" r="133.271" stroke="white"/>
<circle cx="290.972" cy="177.976" r="133.271" stroke="white"/>
<rect x="224.338" y="62.2109" width="101.647" height="230.965" stroke="white"/>
<path d="M24.4321 177.976V353.599H157.703V177.976" stroke="white"/>
<path d="M424.251 177.976V353.599H290.981V177.976" stroke="white"/>
<circle cx="157.138" cy="353.599" r="4.51765" fill="white"/>
<circle cx="424.243" cy="353.599" r="4.51765" fill="white"/>
<circle cx="290.412" cy="353.599" r="4.51765" fill="white"/>
<path d="M93.861 337.413V347.27H92.6675V338.664H92.6097L90.2033 340.262V339.049L92.6675 337.413H93.861Z" fill="white"/>
<path d="M226.561 337.413V347.27H225.368V338.664H225.31L222.903 340.262V339.049L225.368 337.413H226.561Z" fill="white"/>
<path d="M359.275 337.413V347.27H358.081V338.664H358.023L355.617 340.262V339.049L358.081 337.413H359.275Z" fill="white"/>
<path d="M337.06 162.668L340.102 154.448H341.459L337.734 164.305H336.868L337.06 162.668ZM336.021 159.088L337.349 162.668L337.599 164.305H336.733L334.673 159.088H336.021ZM333.826 160.146V159.088H335.982V160.146H333.826ZM346.226 164.439C345.591 164.439 345.025 164.33 344.528 164.112C344.033 163.894 343.64 163.591 343.348 163.203C343.06 162.811 342.902 162.357 342.877 161.841H344.09C344.115 162.158 344.224 162.432 344.417 162.664C344.609 162.891 344.861 163.068 345.172 163.193C345.484 163.318 345.829 163.381 346.207 163.381C346.631 163.381 347.006 163.307 347.333 163.159C347.661 163.012 347.917 162.806 348.103 162.543C348.29 162.28 348.383 161.975 348.383 161.629C348.383 161.266 348.293 160.947 348.113 160.671C347.933 160.392 347.67 160.174 347.324 160.016C346.977 159.859 346.554 159.781 346.053 159.781H345.264V158.722H346.053C346.445 158.722 346.788 158.651 347.083 158.51C347.382 158.369 347.614 158.17 347.781 157.913C347.951 157.657 348.036 157.355 348.036 157.008C348.036 156.675 347.962 156.384 347.815 156.137C347.667 155.89 347.459 155.698 347.189 155.56C346.923 155.422 346.608 155.353 346.246 155.353C345.906 155.353 345.585 155.415 345.283 155.541C344.985 155.662 344.741 155.841 344.552 156.075C344.362 156.306 344.26 156.585 344.244 156.912H343.089C343.108 156.396 343.263 155.943 343.555 155.555C343.847 155.164 344.229 154.859 344.701 154.641C345.176 154.422 345.697 154.313 346.265 154.313C346.875 154.313 347.398 154.437 347.834 154.684C348.27 154.928 348.606 155.25 348.84 155.651C349.074 156.052 349.191 156.485 349.191 156.951C349.191 157.506 349.045 157.979 348.753 158.37C348.464 158.762 348.071 159.033 347.574 159.184V159.261C348.197 159.364 348.683 159.628 349.032 160.055C349.382 160.478 349.557 161.003 349.557 161.629C349.557 162.165 349.411 162.646 349.119 163.073C348.83 163.496 348.436 163.83 347.935 164.074C347.435 164.318 346.865 164.439 346.226 164.439Z" fill="white"/>
<path d="M222.584 142.051L214.364 139.01L214.364 137.652L224.22 141.378L224.22 142.244L222.584 142.051ZM219.003 143.091L222.584 141.763L224.22 141.512L224.22 142.379L219.003 144.439L219.003 143.091ZM220.062 145.286L219.003 145.286L219.003 143.129L220.062 143.129L220.062 145.286ZM224.355 132.885C224.355 133.521 224.246 134.087 224.028 134.584C223.81 135.078 223.506 135.471 223.118 135.763C222.727 136.052 222.273 136.209 221.756 136.235L221.756 135.022C222.074 134.997 222.348 134.887 222.579 134.695C222.807 134.502 222.983 134.251 223.108 133.939C223.234 133.628 223.296 133.283 223.296 132.905C223.296 132.481 223.222 132.106 223.075 131.778C222.927 131.451 222.722 131.194 222.459 131.008C222.196 130.822 221.891 130.729 221.544 130.729C221.182 130.729 220.862 130.819 220.587 130.999C220.307 131.178 220.089 131.441 219.932 131.788C219.775 132.135 219.696 132.558 219.696 133.059L219.696 133.848L218.637 133.848L218.637 133.059C218.637 132.667 218.567 132.324 218.426 132.029C218.284 131.73 218.085 131.498 217.829 131.331C217.572 131.161 217.27 131.076 216.924 131.076C216.59 131.076 216.3 131.15 216.053 131.297C215.806 131.445 215.613 131.653 215.475 131.923C215.337 132.189 215.268 132.504 215.268 132.866C215.268 133.206 215.331 133.527 215.456 133.829C215.578 134.127 215.756 134.371 215.99 134.56C216.221 134.75 216.5 134.852 216.828 134.868L216.828 136.023C216.311 136.004 215.859 135.848 215.47 135.556C215.079 135.264 214.774 134.883 214.556 134.411C214.338 133.936 214.229 133.415 214.229 132.847C214.229 132.237 214.352 131.714 214.599 131.278C214.843 130.841 215.166 130.506 215.567 130.272C215.968 130.038 216.401 129.921 216.866 129.921C217.421 129.921 217.895 130.067 218.286 130.359C218.677 130.647 218.949 131.04 219.099 131.538L219.176 131.538C219.279 130.915 219.544 130.429 219.97 130.079C220.394 129.73 220.919 129.555 221.544 129.555C222.08 129.555 222.561 129.701 222.988 129.993C223.412 130.282 223.745 130.676 223.989 131.177C224.233 131.677 224.355 132.247 224.355 132.885ZM213.901 124.083L225.703 127.259L225.703 128.299L213.901 125.122L213.901 124.083ZM224.22 122.756L223.354 122.756L219.792 119.502C219.375 119.12 219.013 118.806 218.705 118.559C218.393 118.312 218.101 118.129 217.829 118.01C217.553 117.888 217.264 117.827 216.962 117.827C216.616 117.827 216.316 117.911 216.062 118.077C215.809 118.241 215.613 118.466 215.475 118.751C215.337 119.037 215.268 119.358 215.268 119.714C215.268 120.092 215.347 120.423 215.504 120.705C215.658 120.984 215.875 121.201 216.154 121.355C216.433 121.506 216.76 121.581 217.136 121.581L217.136 122.717C216.558 122.717 216.051 122.584 215.615 122.318C215.179 122.051 214.838 121.689 214.595 121.23C214.351 120.768 214.229 120.25 214.229 119.675C214.229 119.098 214.351 118.586 214.595 118.14C214.838 117.694 215.167 117.344 215.581 117.091C215.995 116.837 216.456 116.711 216.962 116.711C217.325 116.711 217.68 116.776 218.026 116.908C218.369 117.036 218.753 117.261 219.176 117.582C219.597 117.899 220.11 118.341 220.716 118.905L223.084 121.119L223.161 121.119L223.161 116.537L224.22 116.537L224.22 122.756Z" fill="white"/>
<path d="M193.249 170.825V180.682H192.056L192.056 172.076H191.998L189.591 173.674V172.461L192.056 170.825H193.249ZM199.588 170.363L196.411 182.164H195.372L198.548 170.363H199.588ZM200.915 180.682V179.815L204.168 176.254C204.55 175.837 204.865 175.474 205.112 175.166C205.359 174.855 205.542 174.563 205.66 174.29C205.782 174.014 205.843 173.725 205.843 173.424C205.843 173.077 205.76 172.777 205.593 172.524C205.429 172.27 205.205 172.075 204.919 171.937C204.634 171.799 204.313 171.73 203.957 171.73C203.578 171.73 203.247 171.808 202.965 171.966C202.686 172.12 202.469 172.336 202.315 172.615C202.165 172.894 202.089 173.222 202.089 173.597H200.953C200.953 173.02 201.087 172.513 201.353 172.076C201.619 171.64 201.982 171.3 202.441 171.056C202.903 170.812 203.421 170.69 203.995 170.69C204.573 170.69 205.084 170.812 205.53 171.056C205.976 171.3 206.326 171.629 206.58 172.043C206.833 172.457 206.96 172.917 206.96 173.424C206.96 173.786 206.894 174.141 206.762 174.488C206.634 174.831 206.41 175.214 206.089 175.638C205.771 176.058 205.33 176.571 204.765 177.178L202.551 179.546V179.623H207.133V180.682H200.915Z" fill="white"/>
<path d="M181.877 121.633L188.847 128.603L188.003 129.447L181.918 123.362L181.877 123.403L181.306 126.234L180.448 125.377L181.033 122.477L181.877 121.633Z" fill="white"/>
<circle cx="24.431" cy="353.599" r="4.51765" fill="white"/>
<path d="M224.343 62.7773L290.979 177.977L224.343 293.177L157.708 177.977L224.343 62.7773Z" stroke="white"/>
<path d="M290.976 177.979L157.705 177.979" stroke="white"/>
</svg>
