<svg width="448" height="400" viewBox="0 0 448 400" fill="none" xmlns="http://www.w3.org/2000/svg">
<path d="M24.7195 219.79C24.7195 212.427 31.5827 206.458 40.0488 206.458C48.515 206.458 55.3782 212.427 55.3782 219.79" stroke="white"/>
<path d="M55.3801 219.789C55.3801 227.152 62.2433 233.121 70.7095 233.121C79.1756 233.121 86.0388 227.152 86.0388 219.789" stroke="white"/>
<path d="M116.693 219.789C116.693 227.152 123.556 233.121 132.022 233.121C140.489 233.121 147.352 227.152 147.352 219.789" stroke="white"/>
<path d="M86.0398 219.79C86.0398 234.516 99.7662 246.454 116.698 246.454C133.631 246.454 147.357 234.516 147.357 219.79" stroke="white"/>
<path d="M208.672 219.79C208.672 234.516 222.399 246.454 239.331 246.454C256.263 246.454 269.99 234.516 269.99 219.79" stroke="white"/>
<path d="M269.985 219.789C269.985 205.063 283.712 193.125 300.644 193.125C317.576 193.125 331.303 205.063 331.303 219.789" stroke="white"/>
<path d="M331.308 219.79C331.308 187.488 357.643 160.546 392.625 154.379" stroke="white"/>
<path d="M147.353 219.789C147.353 205.063 161.079 193.125 178.012 193.125C194.944 193.125 208.67 205.063 208.67 219.789" stroke="white"/>
<path d="M208.672 219.788C208.672 197.699 229.262 179.792 254.66 179.792C280.059 179.792 300.648 197.699 300.648 219.788" stroke="white"/>
<path d="M269.985 219.789C269.985 190.337 297.438 166.461 331.303 166.461C365.167 166.461 392.62 190.337 392.62 219.789" stroke="white"/>
<path d="M331.308 219.79C331.308 234.516 345.034 246.454 361.966 246.454C378.899 246.454 392.625 234.516 392.625 219.79" stroke="white"/>
<path d="M116.693 219.79C116.693 241.879 137.283 259.786 162.681 259.786C188.08 259.786 208.669 241.879 208.669 219.79" stroke="white"/>
<path d="M300.647 219.79C300.647 241.879 321.237 259.786 346.635 259.786C372.033 259.786 392.623 241.879 392.623 219.79" stroke="white"/>
<path d="M147.353 219.791C147.353 249.243 174.806 273.119 208.67 273.119C242.535 273.119 269.988 249.243 269.988 219.791" stroke="white"/>
<path d="M178.014 219.79C178.014 256.605 212.33 286.45 254.66 286.45C296.991 286.45 331.307 256.605 331.307 219.79" stroke="white"/>
<path d="M208.672 219.789C208.672 263.967 249.851 299.781 300.648 299.781C351.445 299.781 392.624 263.967 392.624 219.789" stroke="white"/>
<path d="M239.334 219.79C239.334 271.331 287.376 313.114 346.64 313.114C363.097 313.114 378.689 309.892 392.628 304.133" stroke="white"/>
<path d="M178.014 219.789C178.014 227.152 184.877 233.121 193.343 233.121C201.809 233.121 208.672 227.152 208.672 219.789" stroke="white"/>
<path d="M239.334 219.789C239.334 227.152 246.197 233.121 254.664 233.121C263.13 233.121 269.993 227.152 269.993 219.789" stroke="white"/>
<path d="M300.647 219.789C300.647 227.152 307.51 233.121 315.976 233.121C324.442 233.121 331.306 227.152 331.306 219.789" stroke="white"/>
<path d="M361.966 219.789C361.966 227.152 368.829 233.121 377.296 233.121C385.762 233.121 392.625 227.152 392.625 219.789" stroke="white"/>
<path d="M86.0398 219.79C86.0398 212.427 92.903 206.458 101.369 206.458C109.835 206.458 116.698 212.427 116.698 219.79" stroke="white"/>
<path d="M147.353 219.79C147.353 212.427 154.216 206.458 162.682 206.458C171.149 206.458 178.012 212.427 178.012 219.79" stroke="white"/>
<path d="M208.672 219.79C208.672 212.427 215.536 206.458 224.002 206.458C232.468 206.458 239.331 212.427 239.331 219.79" stroke="white"/>
<path d="M269.985 219.79C269.985 212.427 276.849 206.458 285.315 206.458C293.781 206.458 300.644 212.427 300.644 219.79" stroke="white"/>
<path d="M331.308 219.791C331.308 212.428 338.171 206.459 346.637 206.459C355.103 206.459 361.966 212.428 361.966 219.791" stroke="white"/>
<path d="M24.7195 219.789C24.7195 205.063 38.4458 193.125 55.3782 193.125C72.3105 193.125 86.0368 205.063 86.0368 219.789" stroke="white"/>
<path d="M24.7195 219.788C24.7195 197.699 45.309 179.792 70.7075 179.792C96.106 179.792 116.696 197.699 116.696 219.788" stroke="white"/>
<path d="M24.7195 219.789C24.7195 190.337 52.1722 166.461 86.0368 166.461C119.901 166.461 147.354 190.337 147.354 219.789" stroke="white"/>
<path d="M24.7195 219.79C24.7195 182.975 59.0354 153.13 101.366 153.13C143.697 153.13 178.013 182.975 178.013 219.79" stroke="white"/>
<path d="M24.7195 219.79C24.7195 175.612 65.8986 139.798 116.696 139.798C167.492 139.798 208.672 175.612 208.672 219.79" stroke="white"/>
<path d="M24.7195 219.79C24.7195 168.248 72.7617 126.465 132.025 126.465C191.288 126.465 239.33 168.248 239.33 219.79" stroke="white"/>
<path d="M24.7195 219.789C24.7195 160.884 79.6249 113.132 147.354 113.132C215.083 113.132 269.989 160.884 269.989 219.789" stroke="white"/>
<path d="M269.991 219.789C269.991 278.694 324.897 326.446 392.626 326.446" stroke="white"/>
<path d="M24.7195 219.79C24.7195 153.522 86.4881 99.8008 162.684 99.8008C238.879 99.8008 300.648 153.522 300.648 219.79" stroke="white"/>
<path d="M300.649 219.791C300.649 272.112 339.155 316.612 392.865 333.025" stroke="white"/>
<path d="M24.7195 219.79C24.7195 146.159 93.3513 86.4688 178.013 86.4688C262.675 86.4688 331.306 146.159 331.306 219.79" stroke="white"/>
<path d="M331.309 219.789C331.309 263.407 355.393 302.133 392.626 326.456" stroke="white"/>
<path d="M24.7195 219.791C24.7195 138.797 100.214 73.1377 193.342 73.1377C286.47 73.1377 361.965 138.797 361.965 219.791" stroke="white"/>
<path d="M361.968 219.79C361.968 251.471 373.519 280.806 393.157 304.782" stroke="white"/>
<path d="M24.7195 219.79C24.7195 131.433 107.078 59.8047 208.672 59.8047C310.265 59.8047 392.624 131.433 392.624 219.79" stroke="white"/>
<path d="M24.7217 221.35L424.026 221.35" stroke="white"/>
<path d="M24.7217 214.619L24.7217 228.081" stroke="white"/>
<path d="M424.023 214.619L424.023 228.081" stroke="white"/>
<path d="M393.302 59.8086L393.302 342.506" stroke="white"/>
<path d="M400.985 59.8086L385.627 59.8086" stroke="white"/>
<path d="M400.985 342.507L385.627 342.507" stroke="white"/>
<path d="M86.1499 221.35V275.197" stroke="white"/>
<ellipse cx="86.1439" cy="221.35" rx="3.83946" ry="3.36545" fill="white"/>
<path d="M116.863 221.35V288.659" stroke="white"/>
<ellipse cx="116.864" cy="221.35" rx="3.83946" ry="3.36545" fill="white"/>
<path d="M178.289 221.35L178.289 302.12" stroke="white"/>
<ellipse cx="178.294" cy="221.35" rx="3.83946" ry="3.36545" fill="white"/>
<path d="M239.726 221.35L239.726 315.582" stroke="white"/>
<ellipse cx="239.729" cy="221.35" rx="3.83946" ry="3.36545" fill="white"/>
<path d="M362.591 221.35L362.591 342.506" stroke="white"/>
<ellipse cx="362.59" cy="221.35" rx="3.83946" ry="3.36545" fill="white"/>
<path d="M24.7219 221.35L393.22 335.657" stroke="white" stroke-dasharray="5.4 1.8"/>
<path d="M24.7176 221.351L393.511 155.187" stroke="white" stroke-dasharray="5.4 1.8"/>
</svg>
