<svg width="448" height="400" viewBox="0 0 448 400" fill="none" xmlns="http://www.w3.org/2000/svg">
<g clip-path="url(#clip0_687_68066)">
<circle cx="224" cy="200" r="179.062" stroke="#C98060" stroke-width="1.875"/>
<circle cx="224.002" cy="336.8" r="42.2625" stroke="#C98060" stroke-width="1.875"/>
<circle cx="223.998" cy="200" r="135.863" stroke="#C98060" stroke-width="1.875" stroke-dasharray="1.8 1.8"/>
<circle cx="223.999" cy="268.4" r="67.4625" stroke="#C98060" stroke-width="1.875" stroke-dasharray="1.8 1.8"/>
<circle cx="223.999" cy="131.6" r="67.4625" stroke="#C98060" stroke-width="1.875" stroke-dasharray="1.8 1.8"/>
<circle cx="180.804" cy="336.8" r="42.2625" stroke="#C98060" stroke-width="1.875"/>
<circle cx="166.404" cy="293.6" r="27.8625" stroke="#C98060" stroke-width="1.875"/>
<circle cx="224.002" cy="250.399" r="42.2625" stroke="#C98060" stroke-width="1.875"/>
<circle cx="93.5" cy="220.7" r="48.5625" stroke="#C98060" stroke-width="1.875"/>
<circle cx="305" cy="148.7" r="80.0625" stroke="#C98060" stroke-width="1.875"/>
<circle cx="143.002" cy="148.7" r="80.0625" stroke="#C98060" stroke-width="1.875"/>
<circle cx="224.004" cy="293.599" r="85.4625" stroke="#C98060" stroke-width="1.875"/>
<path d="M224 25.8506V380.001" stroke="#C98060" stroke-width="1.875"/>
<path d="M401.078 200L46.9281 200" stroke="#C98060" stroke-width="1.875"/>
<circle cx="108.059" cy="269.862" r="42.2625" transform="rotate(60 108.059 269.862)" stroke="#C98060" stroke-width="1.875"/>
<circle cx="43.2" cy="43.2" r="42.2625" transform="matrix(-0.5 0.866025 0.866025 0.5 324.129 210.85)" stroke="#C98060" stroke-width="1.875"/>
<path d="M431.913 82.8877L16.0905 322.963" stroke="#C98060" stroke-width="1.875"/>
<path d="M16.0874 82.8877L431.91 322.963" stroke="#C98060" stroke-width="1.875"/>
<circle cx="378.35" cy="290.901" r="153.412" stroke="#C98060" stroke-width="1.875"/>
<circle cx="69.6496" cy="290.901" r="153.412" stroke="#C98060" stroke-width="1.875"/>
</g>
<defs>
<clipPath id="clip0_687_68066">
<rect width="360" height="360" fill="white" transform="translate(44 20)"/>
</clipPath>
</defs>
</svg>
