<svg width="448" height="400" viewBox="0 0 448 400" fill="none" xmlns="http://www.w3.org/2000/svg">
<path opacity="0.1" fill-rule="evenodd" clip-rule="evenodd" d="M348.755 104.971H101.37V295.511H348.755V104.971ZM75.054 78.6553V321.826H375.07V78.6553H75.054Z" fill="white"/>
<rect x="102.424" y="67.0752" width="245.277" height="265.278" stroke="white" stroke-width="0.526316"/>
<rect x="320.331" y="67.0752" width="27.3699" height="265.278" stroke="white" stroke-width="0.526316"/>
<rect width="27.3699" height="265.278" transform="matrix(-1 0 0 1 129.793 67.0752)" stroke="white" stroke-width="0.526316"/>
<path d="M143.478 78.6553L143.478 332.353" stroke="white" stroke-width="0.526316"/>
<path d="M198.219 78.6553L198.219 332.353" stroke="white" stroke-width="0.526316"/>
<path d="M251.905 78.6553L251.905 332.353" stroke="white" stroke-width="0.526316"/>
<path d="M306.643 78.6553L306.643 332.353" stroke="white" stroke-width="0.526316"/>
<path d="M375.07 132.34L75.0531 132.34" stroke="white" stroke-width="0.526316"/>
<path d="M375.07 186.028L75.0531 186.028" stroke="white" stroke-width="0.526316"/>
<path d="M375.07 213.397L75.0531 213.397" stroke="white" stroke-width="0.526316"/>
<path d="M375.07 254.452L75.0531 254.452" stroke="white" stroke-width="0.526316"/>
<path d="M375.07 268.139L75.0531 268.139" stroke="white" stroke-width="0.526316"/>
<rect x="265.589" y="67.0752" width="27.3699" height="265.278" stroke="white" stroke-width="0.526316"/>
<rect x="157.163" y="67.0752" width="27.3699" height="265.278" stroke="white" stroke-width="0.526316"/>
<rect x="211.901" y="67.0752" width="27.3699" height="265.278" stroke="white" stroke-width="0.526316"/>
<rect x="58.2109" y="263.925" width="5.26345" height="4.21076" fill="white"/>
<rect x="58.2109" y="173.395" width="5.26345" height="4.21076" fill="white"/>
<rect x="387.701" y="197.608" width="5.26345" height="4.21076" fill="white"/>
<rect x="112.95" y="54.4404" width="6.31614" height="6.31614" fill="white"/>
<rect x="120.318" y="337.613" width="6.31614" height="6.31614" fill="white"/>
<rect x="140.319" y="54.4404" width="6.31614" height="6.31614" fill="white"/>
<rect x="167.689" y="54.4404" width="6.31614" height="6.31614" fill="white"/>
<rect x="178.215" y="337.613" width="6.31614" height="6.31614" fill="white"/>
<rect x="195.058" y="54.4404" width="6.31614" height="6.31614" fill="white"/>
<rect x="222.43" y="54.4404" width="6.31614" height="6.31614" fill="white"/>
<rect x="226.64" y="337.613" width="6.31614" height="6.31614" fill="white"/>
<rect x="249.8" y="54.4404" width="6.31614" height="6.31614" fill="white"/>
<rect x="277.169" y="54.4404" width="6.31614" height="6.31614" fill="white"/>
<rect x="304.541" y="54.4404" width="6.31614" height="6.31614" fill="white"/>
<rect x="303.488" y="337.613" width="6.31614" height="6.31614" fill="white"/>
<rect x="331.911" y="54.4404" width="6.31614" height="6.31614" fill="white"/>
<path d="M375.07 294.451H67.6847" stroke="white" stroke-width="0.526316"/>
<path d="M384.545 240.761L67.6857 240.761" stroke="white" stroke-width="0.526316"/>
<path d="M384.545 239.712L384.545 159.708" stroke="white" stroke-width="0.526316"/>
<path d="M384.545 159.708L67.6857 159.708" stroke="white" stroke-width="0.526316"/>
<path d="M375.07 104.967L67.6847 104.967" stroke="white" stroke-width="0.526316"/>
<path d="M67.6841 294.451L67.6841 104.967" stroke="white" stroke-width="0.526316"/>
<rect x="24" y="78.125" width="400" height="243.75" stroke="white"/>
</svg>
