<svg width="448" height="400" viewBox="0 0 448 400" fill="none" xmlns="http://www.w3.org/2000/svg">
<path d="M364.713 167.334H368.999V191.62H365.428" stroke="white" stroke-width="0.571429"/>
<path d="M79.7144 158.048H75.4286V178.048H79.0001" stroke="white" stroke-width="0.571429"/>
<path d="M79.7144 186.619H75.4286V190.905H79.0001" stroke="white" stroke-width="0.571429"/>
<path d="M88.2852 128.408H359.714" stroke="white" stroke-width="0.571429"/>
<path d="M88.2852 131.265H359.714" stroke="white" stroke-width="0.571429"/>
<path d="M88.2852 145.551H359.714" stroke="white" stroke-width="0.571429"/>
<path d="M88.2852 155.551H359.714" stroke="white" stroke-width="0.571429"/>
<path d="M88.2852 165.551H359.714" stroke="white" stroke-width="0.571429"/>
<path d="M88.2852 175.551H359.714" stroke="white" stroke-width="0.571429"/>
<path d="M88.2852 178.407H359.714" stroke="white" stroke-width="0.571429"/>
<path d="M88.2852 201.264H359.714" stroke="white" stroke-width="0.571429"/>
<path d="M88.2852 244.121H359.714" stroke="white" stroke-width="0.571429"/>
<path d="M88.2852 246.978H359.714" stroke="white" stroke-width="0.571429"/>
<path d="M225.427 78.4082L225.427 318.408" stroke="white" stroke-width="0.571429"/>
<path d="M222.57 78.4082L222.57 318.408" stroke="white" stroke-width="0.571429"/>
<path d="M228.283 78.4082L228.283 318.408" stroke="white" stroke-width="0.571429"/>
<path d="M219.711 78.4082L219.711 318.408" stroke="white" stroke-width="0.571429"/>
<circle cx="285.428" cy="259.477" r="59.7143" stroke="white" stroke-width="0.571429"/>
<circle cx="224" cy="200.904" r="59.7143" stroke="white" stroke-width="0.571429"/>
<path d="M283.982 199.494C283.993 199.963 284 200.433 284 200.904C284 233.558 257.914 260.119 225.445 260.887C225.434 260.418 225.428 259.949 225.428 259.478C225.428 226.824 251.513 200.262 283.982 199.494Z" fill="white" fill-opacity="0.7"/>
<path d="M164.018 199.494C164.007 199.963 164 200.433 164 200.904C164 233.558 190.086 260.119 222.555 260.887C222.566 260.418 222.572 259.949 222.572 259.478C222.572 226.824 196.487 200.262 164.018 199.494Z" fill="white" fill-opacity="0.7"/>
<path d="M259.714 296.62C206.852 296.62 164 253.767 164 200.906C164 148.044 206.852 105.191 259.714 105.191" stroke="white" stroke-width="0.571429"/>
<path d="M188.285 296.62C241.146 296.62 283.999 253.767 283.999 200.906C283.999 148.044 241.146 105.191 188.285 105.191" stroke="white" stroke-width="0.571429"/>
<path opacity="0.7" d="M224 140.905C244.513 140.905 261.143 157.535 261.143 178.048C261.143 198.561 244.513 215.191 224 215.191C203.486 215.191 186.857 198.561 186.857 178.048C186.857 157.535 203.486 140.905 224 140.905ZM224 155.19C217.688 155.191 212.571 160.307 212.571 166.619C212.571 172.931 217.688 178.048 224 178.048C230.311 178.048 235.428 172.931 235.428 166.619C235.428 160.307 230.311 155.19 224 155.19Z" fill="white"/>
<path d="M261.05 178.047C261.109 178.515 261.142 178.991 261.142 179.475C261.142 185.786 256.025 190.903 249.713 190.903C246.299 190.903 243.237 189.404 241.143 187.03C239.049 189.404 235.986 190.903 232.572 190.903C229.157 190.903 226.094 189.403 224 187.028C221.905 189.403 218.842 190.903 215.427 190.903C212.013 190.903 208.95 189.404 206.856 187.03C204.762 189.404 201.7 190.903 198.286 190.903C191.974 190.903 186.857 185.786 186.857 179.475C186.857 178.991 186.891 178.515 186.95 178.047H261.05Z" fill="white" fill-opacity="0.8"/>
<circle cx="198.286" cy="179.476" r="11.1429" stroke="white" stroke-width="0.571429"/>
<circle cx="215.429" cy="179.476" r="11.1429" stroke="white" stroke-width="0.571429"/>
<circle cx="232.572" cy="179.476" r="11.1429" stroke="white" stroke-width="0.571429"/>
<circle cx="249.714" cy="179.476" r="11.1429" stroke="white" stroke-width="0.571429"/>
<circle cx="224" cy="166.619" r="11.4286" stroke="white" stroke-width="0.571429"/>
<circle cx="162.57" cy="259.477" r="59.7143" stroke="white" stroke-width="0.571429"/>
<path d="M343.999 183.762H386.856" stroke="white" stroke-width="0.571429"/>
<path d="M399.095 187.258V181.44H399.8V184.031H402.902V181.44H403.607V187.258H402.902V184.656H399.8V187.258H399.095Z" fill="white"/>
<path d="M384.81 181.543V175.725H385.514V178.316H388.616V175.725H389.321V181.543H388.616V178.941H385.514V181.543H384.81Z" fill="white"/>
<path d="M374.811 217.258V211.44H375.515V214.031H378.617V211.44H379.322V217.258H378.617V214.656H375.515V217.258H374.811Z" fill="white"/>
<path d="M56.2387 161.543V155.725H56.9433V158.316H60.0455V155.725H60.7501V161.543H60.0455V158.941H56.9433V161.543H56.2387Z" fill="white"/>
<path d="M56.2387 188.686V182.867H56.9433V185.458H60.0455V182.867H60.7501V188.686H60.0455V186.083H56.9433V188.686H56.2387Z" fill="white"/>
<rect opacity="0.4" x="48.2861" y="249.477" width="47.1429" height="4.28571" fill="white"/>
<rect opacity="0.4" x="48.2861" y="255.19" width="47.1429" height="4.28571" fill="white"/>
<rect opacity="0.4" x="48.2861" y="260.905" width="31.4286" height="4.28571" fill="white"/>
<rect opacity="0.4" x="345.429" y="242.334" width="60" height="4.28571" fill="white"/>
<rect opacity="0.4" x="341.144" y="248.048" width="64.2857" height="4.28571" fill="white"/>
<rect opacity="0.4" x="342.572" y="253.763" width="62.8571" height="4.28571" fill="white"/>
<rect opacity="0.4" x="386.858" y="259.477" width="18.5714" height="4.28571" fill="white"/>
<path d="M308.287 62.7793H367.572" stroke="white" stroke-width="0.571429"/>
<path d="M381.953 66.2754V60.4572H382.658V63.0481H385.76V60.4572H386.464V66.2754H385.76V63.6731H382.658V66.2754H381.953Z" fill="white"/>
<rect opacity="0.4" x="56.8584" y="50.0566" width="47.1429" height="4.28571" fill="white"/>
<rect opacity="0.4" x="56.8584" y="55.7715" width="64.2857" height="4.28571" fill="white"/>
<rect opacity="0.4" x="56.8584" y="61.4844" width="21.4286" height="4.28571" fill="white"/>
</svg>
