<svg width="448" height="400" viewBox="0 0 448 400" fill="none" xmlns="http://www.w3.org/2000/svg">
<g clip-path="url(#clip0_687_67344)">
<path d="M130.717 101.052L315.989 101.052" stroke="white" stroke-width="1.5625"/>
<path d="M130.717 117.895L315.989 117.895" stroke="white" stroke-width="1.5625"/>
<path d="M130.717 134.735L315.989 134.735" stroke="white" stroke-width="1.5625"/>
<path d="M130.717 151.578L315.989 151.578" stroke="white" stroke-width="1.5625"/>
<path d="M130.717 168.421L315.989 168.421" stroke="white" stroke-width="1.5625"/>
<path d="M130.717 185.262L315.989 185.262" stroke="white" stroke-width="1.5625"/>
<path d="M130.717 202.104L315.989 202.104" stroke="white" stroke-width="1.5625"/>
<path d="M130.717 218.945L315.989 218.945" stroke="white" stroke-width="1.5625"/>
<path d="M130.717 235.788L315.989 235.788" stroke="white" stroke-width="1.5625"/>
<path d="M130.717 252.631L315.989 252.631" stroke="white" stroke-width="1.5625"/>
<path d="M130.717 269.473L315.989 269.473" stroke="white" stroke-width="1.5625"/>
<path d="M130.717 286.314L315.989 286.314" stroke="white" stroke-width="1.5625"/>
<path d="M214.927 84.209L214.927 303.156" stroke="white" stroke-width="1.5625"/>
<path d="M231.767 84.209L231.767 303.156" stroke="white" stroke-width="1.5625"/>
<path d="M248.606 84.209L248.606 303.156" stroke="white" stroke-width="1.5625"/>
<path d="M265.446 84.209L265.446 303.156" stroke="white" stroke-width="1.5625"/>
<path d="M299.137 84.209L299.137 303.156" stroke="white" stroke-width="1.5625"/>
<path d="M282.298 84.209L282.298 303.156" stroke="white" stroke-width="1.5625"/>
<path d="M315.989 84.209L315.989 303.156" stroke="white" stroke-width="1.5625"/>
<path d="M147.557 84.209L147.557 303.156" stroke="white" stroke-width="1.5625"/>
<path d="M164.396 84.209L164.396 303.156" stroke="white" stroke-width="1.5625"/>
<path d="M181.236 84.209L181.236 303.156" stroke="white" stroke-width="1.5625"/>
<path d="M198.087 84.209L198.087 303.156" stroke="white" stroke-width="1.5625"/>
</g>
<rect x="130.552" y="83.8975" width="185.938" height="218.75" stroke="white"/>
<path d="M67.1051 168.42V269.473M67.1051 269.473H58.6841M67.1051 269.473H75.5262M58.6841 168.42H75.5262" stroke="white"/>
<path d="M67.1051 117.896V151.58M67.1051 151.58H58.6841M67.1051 151.58H75.5262M58.6841 117.896H75.5262" stroke="white"/>
<path d="M265.369 20.4211L198 20.421M198 20.421L198 12M198 20.421L198 28.8421M265.369 12L265.369 28.8421" stroke="white"/>
<path d="M180.842 20.4211L164 20.4211M164 20.4211L164 12M164 20.4211L164 28.8421M180.842 12L180.842 28.8421" stroke="white"/>
<path d="M381.421 117.896V151.58M381.421 151.58H389.842M381.421 151.58H373M389.842 117.896H373" stroke="white"/>
<path d="M383.421 168.42V269.473M383.421 269.473H391.842M383.421 269.473H375M391.842 168.42H375" stroke="white"/>
<path d="M265.053 371.421L164 371.421M164 371.421L164 363M164 371.421L164 379.842M265.053 363L265.053 379.842" stroke="white"/>
<path d="M198.087 67.3692V37.8955" stroke="white"/>
<mask id="mask0_687_67344" style="mask-type:alpha" maskUnits="userSpaceOnUse" x="198" y="37" width="68" height="18">
<rect x="198.087" y="37.8955" width="67.3684" height="16.8421" fill="#D9D9D9"/>
</mask>
<g mask="url(#mask0_687_67344)">
<path d="M201.456 37.8955L184.613 54.7376" stroke="white"/>
<path d="M204.325 37.8955L187.483 54.7376" stroke="white"/>
<path d="M207.194 37.8955L190.352 54.7376" stroke="white"/>
<path d="M210.063 37.8955L193.221 54.7376" stroke="white"/>
<path d="M212.933 37.8955L196.091 54.7376" stroke="white"/>
<path d="M215.802 37.8955L198.96 54.7376" stroke="white"/>
<path d="M218.672 37.8955L201.83 54.7376" stroke="white"/>
<path d="M221.541 37.8955L204.699 54.7376" stroke="white"/>
<path d="M224.411 37.8955L207.569 54.7376" stroke="white"/>
<path d="M227.28 37.8955L210.438 54.7376" stroke="white"/>
<path d="M230.149 37.8955L213.307 54.7376" stroke="white"/>
<path d="M233.019 37.8955L216.176 54.7376" stroke="white"/>
<path d="M235.888 37.8955L219.046 54.7376" stroke="white"/>
<path d="M238.757 37.8955L221.915 54.7376" stroke="white"/>
<path d="M241.627 37.8955L224.785 54.7376" stroke="white"/>
<path d="M244.497 37.8955L227.654 54.7376" stroke="white"/>
<path d="M247.366 37.8955L230.524 54.7376" stroke="white"/>
<path d="M250.235 37.8955L233.393 54.7376" stroke="white"/>
<path d="M253.104 37.8955L236.262 54.7376" stroke="white"/>
<path d="M255.974 37.8955L239.132 54.7376" stroke="white"/>
<path d="M258.843 37.8955L242.001 54.7376" stroke="white"/>
<path d="M261.713 37.8955L244.871 54.7376" stroke="white"/>
<path d="M264.582 37.8955L247.74 54.7376" stroke="white"/>
<path d="M267.451 37.8955L250.609 54.7376" stroke="white"/>
<path d="M270.321 37.8955L253.479 54.7376" stroke="white"/>
<path d="M273.19 37.8955L256.348 54.7376" stroke="white"/>
<path d="M276.06 37.8955L259.217 54.7376" stroke="white"/>
<path d="M278.929 37.8955L262.087 54.7376" stroke="white"/>
</g>
<path d="M265.456 67.3692V37.8955" stroke="white"/>
<path d="M164.396 324V353.474" stroke="white"/>
<mask id="mask1_687_67344" style="mask-type:alpha" maskUnits="userSpaceOnUse" x="164" y="336" width="102" height="18">
<rect width="101.053" height="16.8421" transform="matrix(1 0 0 -1 164.396 353.474)" fill="#D9D9D9"/>
</mask>
<g mask="url(#mask1_687_67344)">
<path d="M165.643 353.474L148.801 336.632" stroke="white"/>
<path d="M170.259 353.474L153.417 336.632" stroke="white"/>
<path d="M174.875 353.474L158.033 336.632" stroke="white"/>
<path d="M179.491 353.474L162.649 336.632" stroke="white"/>
<path d="M184.107 353.474L167.265 336.632" stroke="white"/>
<path d="M188.723 353.474L171.881 336.632" stroke="white"/>
<path d="M193.339 353.474L176.497 336.632" stroke="white"/>
<path d="M197.955 353.474L181.113 336.632" stroke="white"/>
<path d="M202.571 353.474L185.729 336.632" stroke="white"/>
<path d="M207.187 353.474L190.345 336.632" stroke="white"/>
<path d="M211.803 353.474L194.961 336.632" stroke="white"/>
<path d="M216.419 353.474L199.577 336.632" stroke="white"/>
<path d="M221.035 353.474L204.193 336.632" stroke="white"/>
<path d="M225.651 353.474L208.809 336.632" stroke="white"/>
<path d="M230.267 353.474L213.425 336.632" stroke="white"/>
<path d="M234.883 353.474L218.041 336.632" stroke="white"/>
<path d="M239.499 353.474L222.657 336.632" stroke="white"/>
<path d="M244.115 353.474L227.273 336.632" stroke="white"/>
<path d="M248.731 353.474L231.889 336.632" stroke="white"/>
<path d="M253.347 353.474L236.505 336.632" stroke="white"/>
<path d="M257.963 353.474L241.121 336.632" stroke="white"/>
<path d="M262.579 353.474L245.737 336.632" stroke="white"/>
<path d="M267.195 353.474L250.353 336.632" stroke="white"/>
<path d="M271.811 353.474L254.968 336.632" stroke="white"/>
<path d="M276.427 353.474L259.585 336.632" stroke="white"/>
<path d="M281.042 353.474L264.2 336.632" stroke="white"/>
</g>
<path d="M265.449 324V353.474" stroke="white"/>
<path d="M164.396 67.3692V37.8955" stroke="white"/>
<mask id="mask2_687_67344" style="mask-type:alpha" maskUnits="userSpaceOnUse" x="164" y="37" width="18" height="18">
<rect x="164.396" y="37.8955" width="16.8421" height="16.8421" fill="#D9D9D9"/>
</mask>
<g mask="url(#mask2_687_67344)">
<path d="M177.87 37.8955L161.028 54.7376" stroke="white"/>
<path d="M178.12 37.8955L161.278 54.7376" stroke="white"/>
<path d="M178.369 37.8955L161.527 54.7376" stroke="white"/>
<path d="M178.619 37.8955L161.777 54.7376" stroke="white"/>
<path d="M178.868 37.8955L162.026 54.7376" stroke="white"/>
<path d="M179.117 37.8955L162.275 54.7376" stroke="white"/>
<path d="M179.367 37.8955L162.525 54.7376" stroke="white"/>
<path d="M179.616 37.8955L162.774 54.7376" stroke="white"/>
<path d="M179.866 37.8955L163.024 54.7376" stroke="white"/>
<path d="M180.115 37.8955L163.273 54.7376" stroke="white"/>
<path d="M180.365 37.8955L163.523 54.7376" stroke="white"/>
<path d="M180.615 37.8955L163.773 54.7376" stroke="white"/>
<path d="M180.864 37.8955L164.022 54.7376" stroke="white"/>
<path d="M181.114 37.8955L164.272 54.7376" stroke="white"/>
<path d="M181.363 37.8955L164.521 54.7376" stroke="white"/>
<path d="M181.613 37.8955L164.771 54.7376" stroke="white"/>
<path d="M181.862 37.8955L165.02 54.7376" stroke="white"/>
<path d="M182.112 37.8955L165.27 54.7376" stroke="white"/>
<path d="M182.361 37.8955L165.519 54.7376" stroke="white"/>
<path d="M182.61 37.8955L165.768 54.7376" stroke="white"/>
<path d="M182.86 37.8955L166.018 54.7376" stroke="white"/>
<path d="M183.109 37.8955L166.267 54.7376" stroke="white"/>
<path d="M183.359 37.8955L166.517 54.7376" stroke="white"/>
<path d="M183.608 37.8955L166.766 54.7376" stroke="white"/>
<path d="M183.858 37.8955L167.016 54.7376" stroke="white"/>
<path d="M184.108 37.8955L167.266 54.7376" stroke="white"/>
<path d="M184.357 37.8955L167.515 54.7376" stroke="white"/>
<path d="M184.607 37.8955L167.765 54.7376" stroke="white"/>
</g>
<path d="M181.238 67.3692V37.8955" stroke="white"/>
<path d="M109.66 168.42L80.186 168.42" stroke="white"/>
<mask id="mask3_687_67344" style="mask-type:alpha" maskUnits="userSpaceOnUse" x="80" y="168" width="18" height="102">
<rect width="101.053" height="16.8421" transform="matrix(4.37114e-08 1 1 -4.37114e-08 80.186 168.42)" fill="#D9D9D9"/>
</mask>
<g mask="url(#mask3_687_67344)">
<path d="M80.186 169.667L97.0281 152.825" stroke="white"/>
<path d="M80.186 174.283L97.0281 157.441" stroke="white"/>
<path d="M80.186 178.899L97.0281 162.057" stroke="white"/>
<path d="M80.186 183.515L97.0281 166.673" stroke="white"/>
<path d="M80.186 188.131L97.0281 171.289" stroke="white"/>
<path d="M80.186 192.747L97.0281 175.905" stroke="white"/>
<path d="M80.186 197.363L97.0281 180.521" stroke="white"/>
<path d="M80.186 201.979L97.0281 185.136" stroke="white"/>
<path d="M80.186 206.595L97.0281 189.753" stroke="white"/>
<path d="M80.186 211.211L97.0281 194.369" stroke="white"/>
<path d="M80.186 215.827L97.0281 198.985" stroke="white"/>
<path d="M80.186 220.443L97.0281 203.601" stroke="white"/>
<path d="M80.186 225.059L97.0281 208.216" stroke="white"/>
<path d="M80.186 229.675L97.0281 212.833" stroke="white"/>
<path d="M80.186 234.291L97.0281 217.449" stroke="white"/>
<path d="M80.186 238.907L97.0281 222.065" stroke="white"/>
<path d="M80.186 243.522L97.0281 226.68" stroke="white"/>
<path d="M80.186 248.139L97.0281 231.297" stroke="white"/>
<path d="M80.186 252.755L97.0281 235.913" stroke="white"/>
<path d="M80.186 257.371L97.0281 240.529" stroke="white"/>
<path d="M80.186 261.986L97.0281 245.144" stroke="white"/>
<path d="M80.186 266.603L97.0281 249.76" stroke="white"/>
<path d="M80.186 271.219L97.0281 254.377" stroke="white"/>
<path d="M80.186 275.835L97.0281 258.993" stroke="white"/>
<path d="M80.186 280.45L97.0281 263.608" stroke="white"/>
<path d="M80.186 285.066L97.0281 268.224" stroke="white"/>
</g>
<path d="M109.66 269.473L80.186 269.473" stroke="white"/>
<path d="M109.66 117.896L80.186 117.896" stroke="white"/>
<mask id="mask4_687_67344" style="mask-type:alpha" maskUnits="userSpaceOnUse" x="80" y="117" width="18" height="35">
<rect width="33.6842" height="16.8421" transform="matrix(4.37114e-08 1 1 -4.37114e-08 80.186 117.896)" fill="#D9D9D9"/>
</mask>
<g mask="url(#mask4_687_67344)">
<path d="M80.186 128L97.0281 111.158" stroke="white"/>
<path d="M80.186 129.123L97.0281 112.281" stroke="white"/>
<path d="M80.186 130.246L97.0281 113.404" stroke="white"/>
<path d="M80.186 131.369L97.0281 114.527" stroke="white"/>
<path d="M80.186 132.491L97.0281 115.649" stroke="white"/>
<path d="M80.186 133.614L97.0281 116.772" stroke="white"/>
<path d="M80.186 134.737L97.0281 117.895" stroke="white"/>
<path d="M80.186 135.86L97.0281 119.018" stroke="white"/>
<path d="M80.186 136.982L97.0281 120.14" stroke="white"/>
<path d="M80.186 138.105L97.0281 121.263" stroke="white"/>
<path d="M80.186 139.229L97.0281 122.386" stroke="white"/>
<path d="M80.186 140.352L97.0281 123.509" stroke="white"/>
<path d="M80.186 141.474L97.0281 124.632" stroke="white"/>
<path d="M80.186 142.597L97.0281 125.755" stroke="white"/>
<path d="M80.186 143.72L97.0281 126.878" stroke="white"/>
<path d="M80.186 144.843L97.0281 128.001" stroke="white"/>
<path d="M80.186 145.965L97.0281 129.123" stroke="white"/>
<path d="M80.186 147.088L97.0281 130.246" stroke="white"/>
<path d="M80.186 148.211L97.0281 131.369" stroke="white"/>
<path d="M80.186 149.334L97.0281 132.492" stroke="white"/>
<path d="M80.186 150.456L97.0281 133.614" stroke="white"/>
<path d="M80.186 151.579L97.0281 134.737" stroke="white"/>
<path d="M80.186 152.702L97.0281 135.86" stroke="white"/>
<path d="M80.186 153.825L97.0281 136.983" stroke="white"/>
<path d="M80.186 154.947L97.0281 138.105" stroke="white"/>
<path d="M80.186 156.07L97.0281 139.228" stroke="white"/>
<path d="M80.186 157.193L97.0281 140.351" stroke="white"/>
<path d="M80.186 158.316L97.0281 141.474" stroke="white"/>
</g>
<path d="M109.66 151.58L80.186 151.58" stroke="white"/>
<path d="M337 117.896L366.474 117.896" stroke="white"/>
<mask id="mask5_687_67344" style="mask-type:alpha" maskUnits="userSpaceOnUse" x="349" y="117" width="18" height="35">
<rect x="366.474" y="117.896" width="33.6842" height="16.8421" transform="rotate(90 366.474 117.896)" fill="#D9D9D9"/>
</mask>
<g mask="url(#mask5_687_67344)">
<path d="M366.474 128L349.632 111.158" stroke="white"/>
<path d="M366.474 129.123L349.632 112.281" stroke="white"/>
<path d="M366.474 130.246L349.632 113.404" stroke="white"/>
<path d="M366.474 131.369L349.632 114.527" stroke="white"/>
<path d="M366.474 132.491L349.632 115.649" stroke="white"/>
<path d="M366.474 133.614L349.632 116.772" stroke="white"/>
<path d="M366.474 134.737L349.632 117.895" stroke="white"/>
<path d="M366.474 135.86L349.632 119.018" stroke="white"/>
<path d="M366.474 136.982L349.632 120.14" stroke="white"/>
<path d="M366.474 138.105L349.632 121.263" stroke="white"/>
<path d="M366.474 139.229L349.632 122.386" stroke="white"/>
<path d="M366.474 140.352L349.632 123.509" stroke="white"/>
<path d="M366.474 141.474L349.632 124.632" stroke="white"/>
<path d="M366.474 142.597L349.632 125.755" stroke="white"/>
<path d="M366.474 143.72L349.632 126.878" stroke="white"/>
<path d="M366.474 144.843L349.632 128.001" stroke="white"/>
<path d="M366.474 145.965L349.632 129.123" stroke="white"/>
<path d="M366.474 147.088L349.632 130.246" stroke="white"/>
<path d="M366.474 148.211L349.632 131.369" stroke="white"/>
<path d="M366.474 149.334L349.632 132.492" stroke="white"/>
<path d="M366.474 150.456L349.632 133.614" stroke="white"/>
<path d="M366.474 151.579L349.632 134.737" stroke="white"/>
<path d="M366.474 152.702L349.632 135.86" stroke="white"/>
<path d="M366.474 153.825L349.632 136.983" stroke="white"/>
<path d="M366.474 154.947L349.632 138.105" stroke="white"/>
<path d="M366.474 156.07L349.632 139.228" stroke="white"/>
<path d="M366.474 157.193L349.632 140.351" stroke="white"/>
<path d="M366.474 158.316L349.632 141.474" stroke="white"/>
</g>
<path d="M337 151.58L366.474 151.58" stroke="white"/>
<path d="M339 168.42L368.474 168.42" stroke="white"/>
<mask id="mask6_687_67344" style="mask-type:alpha" maskUnits="userSpaceOnUse" x="351" y="168" width="18" height="102">
<rect x="368.474" y="168.42" width="101.053" height="16.8421" transform="rotate(90 368.474 168.42)" fill="#D9D9D9"/>
</mask>
<g mask="url(#mask6_687_67344)">
<path d="M368.474 169.667L351.632 152.825" stroke="white"/>
<path d="M368.474 174.283L351.632 157.441" stroke="white"/>
<path d="M368.474 178.899L351.632 162.057" stroke="white"/>
<path d="M368.474 183.515L351.632 166.673" stroke="white"/>
<path d="M368.474 188.131L351.632 171.289" stroke="white"/>
<path d="M368.474 192.747L351.632 175.905" stroke="white"/>
<path d="M368.474 197.363L351.632 180.521" stroke="white"/>
<path d="M368.474 201.979L351.632 185.136" stroke="white"/>
<path d="M368.474 206.595L351.632 189.753" stroke="white"/>
<path d="M368.474 211.211L351.632 194.369" stroke="white"/>
<path d="M368.474 215.827L351.632 198.985" stroke="white"/>
<path d="M368.474 220.443L351.632 203.601" stroke="white"/>
<path d="M368.474 225.059L351.632 208.216" stroke="white"/>
<path d="M368.474 229.675L351.632 212.833" stroke="white"/>
<path d="M368.474 234.291L351.632 217.449" stroke="white"/>
<path d="M368.474 238.907L351.632 222.065" stroke="white"/>
<path d="M368.474 243.522L351.632 226.68" stroke="white"/>
<path d="M368.474 248.139L351.632 231.297" stroke="white"/>
<path d="M368.474 252.755L351.632 235.913" stroke="white"/>
<path d="M368.474 257.371L351.632 240.529" stroke="white"/>
<path d="M368.474 261.986L351.632 245.144" stroke="white"/>
<path d="M368.474 266.603L351.632 249.76" stroke="white"/>
<path d="M368.474 271.219L351.632 254.377" stroke="white"/>
<path d="M368.474 275.835L351.632 258.993" stroke="white"/>
<path d="M368.474 280.45L351.632 263.608" stroke="white"/>
<path d="M368.474 285.066L351.632 268.224" stroke="white"/>
</g>
<path d="M339 269.473L368.474 269.473" stroke="white"/>
<defs>
<clipPath id="clip0_687_67344">
<rect x="130.552" y="83.8975" width="185.938" height="218.75" fill="white"/>
</clipPath>
</defs>
</svg>
