<svg width="448" height="400" viewBox="0 0 448 400" fill="none" xmlns="http://www.w3.org/2000/svg">
<path d="M104.838 199.999C104.838 156.09 140.284 120.501 184.001 120.501C227.718 120.501 263.164 156.09 263.164 199.999C263.164 243.908 227.718 279.497 184.001 279.497C140.284 279.497 104.838 243.908 104.838 199.999Z" stroke="#C98060" stroke-width="1.67364"/>
<path d="M24.8369 199.999C24.8372 111.723 96.1001 40.167 184 40.167C271.9 40.167 343.163 111.723 343.163 199.999C343.163 288.275 271.9 359.832 184 359.832C96.0999 359.832 24.8369 288.275 24.8369 199.999Z" stroke="#C98060" stroke-width="1.67364"/>
<path d="M104.838 199.999C104.838 111.723 176.101 40.167 264.001 40.167C351.901 40.167 423.164 111.723 423.164 199.999C423.164 288.275 351.901 359.832 264.001 359.832C176.101 359.832 104.838 288.275 104.838 199.999Z" stroke="#C98060" stroke-width="1.67364"/>
<path d="M223.373 360.669V199.999" stroke="#C98060" stroke-width="1.67364" stroke-dasharray="2.5 2.5"/>
<path d="M223.373 200V134.728" stroke="#C98060" stroke-width="1.67364"/>
<path d="M223.373 134.728V46.8614" stroke="#C98060" stroke-width="1.67364"/>
<path d="M104.001 200L342.751 200" stroke="#C98060" stroke-width="1.67364" stroke-dasharray="2.5 2.5"/>
<path d="M184.839 199.999C184.839 156.09 220.285 120.501 264.002 120.501C307.72 120.501 343.165 156.09 343.166 199.999C343.166 243.908 307.72 279.497 264.002 279.497C220.285 279.497 184.839 243.908 184.839 199.999Z" stroke="#C98060" stroke-width="1.67364"/>
<ellipse cx="185.25" cy="200.628" rx="5.02092" ry="5" transform="rotate(-90 185.25 200.628)" fill="#C98060"/>
<ellipse cx="261.499" cy="200.628" rx="5.02092" ry="5" transform="rotate(-90 261.499 200.628)" fill="#C98060"/>
</svg>
