<svg width="448" height="400" viewBox="0 0 448 400" fill="none" xmlns="http://www.w3.org/2000/svg">
<g clip-path="url(#clip0_687_68665)">
<g clip-path="url(#clip1_687_68665)">
<path d="M424 110.28L424 289.72" stroke="#C98060" stroke-width="0.934579"/>
<path d="M381.009 110.28L381.009 289.72" stroke="#C98060" stroke-width="0.934579"/>
<path d="M334.28 110.28L334.28 289.72" stroke="#C98060" stroke-width="0.934579"/>
<path d="M277.271 110.28L277.271 289.72" stroke="#C98060" stroke-width="0.934579"/>
<path d="M203.439 110.28L203.439 289.72" stroke="#C98060" stroke-width="0.934579"/>
</g>
<rect x="24" y="110.28" width="400" height="179.439" stroke="#C98060" stroke-width="0.934579"/>
<path d="M24.0378 289.727L203.439 110.28" stroke="#C98060" stroke-width="0.934579"/>
<path d="M334.514 110.28L24 289.72" stroke="#C98060" stroke-width="0.934579"/>
<path d="M381.126 110.28L24 289.72" stroke="#C98060" stroke-width="0.934579"/>
<path d="M424.234 110.28L24 289.72" stroke="#C98060" stroke-width="0.934579"/>
<path d="M277.037 110.28L24 289.72" stroke="#C98060" stroke-width="0.934579"/>
<rect width="8.73832" height="124.299" transform="translate(210.916 162.617)" fill="#C98060" fill-opacity="0.8"/>
<path d="M213.815 165.166L214.654 162.898H215.029L214.001 165.617H213.762L213.815 165.166ZM213.529 164.178L213.895 165.166L213.964 165.617H213.725L213.157 164.178H213.529ZM212.923 164.47V164.178H213.518V164.47H212.923ZM215.425 165.617V165.378L216.322 164.396C216.428 164.281 216.514 164.181 216.583 164.096C216.651 164.01 216.701 163.929 216.734 163.854C216.768 163.778 216.784 163.698 216.784 163.615C216.784 163.52 216.761 163.437 216.715 163.367C216.67 163.297 216.608 163.243 216.529 163.205C216.451 163.167 216.362 163.148 216.264 163.148C216.16 163.148 216.068 163.17 215.99 163.213C215.913 163.256 215.854 163.315 215.811 163.392C215.77 163.469 215.749 163.56 215.749 163.663H215.436C215.436 163.504 215.472 163.364 215.546 163.244C215.619 163.123 215.719 163.029 215.846 162.962C215.973 162.895 216.116 162.861 216.275 162.861C216.434 162.861 216.575 162.895 216.698 162.962C216.821 163.029 216.918 163.12 216.987 163.234C217.057 163.348 217.092 163.475 217.092 163.615C217.092 163.715 217.074 163.813 217.038 163.909C217.002 164.003 216.941 164.109 216.852 164.226C216.764 164.342 216.643 164.483 216.487 164.651L215.876 165.304V165.325H217.14V165.617H215.425Z" fill="#C98060"/>
<path d="M213.815 189.289L214.654 187.021H215.029L214.001 189.74H213.762L213.815 189.289ZM213.529 188.301L213.895 189.289L213.964 189.74H213.725L213.157 188.301H213.529ZM212.923 188.593V188.301H213.518V188.593H212.923ZM216.344 189.777C216.168 189.777 216.012 189.747 215.875 189.687C215.739 189.627 215.63 189.543 215.55 189.436C215.47 189.328 215.427 189.203 215.42 189.061H215.754C215.761 189.148 215.791 189.224 215.844 189.288C215.898 189.35 215.967 189.399 216.053 189.434C216.139 189.468 216.234 189.485 216.338 189.485C216.455 189.485 216.559 189.465 216.649 189.424C216.739 189.384 216.81 189.327 216.861 189.254C216.913 189.182 216.938 189.098 216.938 189.002C216.938 188.902 216.914 188.814 216.864 188.738C216.814 188.661 216.742 188.601 216.646 188.557C216.551 188.514 216.434 188.492 216.296 188.492H216.078V188.2H216.296C216.404 188.2 216.498 188.181 216.58 188.142C216.662 188.103 216.726 188.048 216.772 187.977C216.819 187.906 216.843 187.823 216.843 187.728C216.843 187.636 216.822 187.556 216.782 187.487C216.741 187.419 216.683 187.366 216.609 187.328C216.536 187.29 216.449 187.271 216.349 187.271C216.255 187.271 216.167 187.288 216.083 187.323C216.001 187.356 215.934 187.406 215.882 187.47C215.829 187.534 215.801 187.611 215.797 187.701H215.478C215.483 187.559 215.526 187.434 215.607 187.327C215.687 187.219 215.793 187.135 215.923 187.075C216.054 187.014 216.198 186.984 216.354 186.984C216.522 186.984 216.667 187.018 216.787 187.087C216.907 187.154 217 187.243 217.064 187.353C217.129 187.464 217.161 187.583 217.161 187.712C217.161 187.865 217.121 187.995 217.041 188.103C216.961 188.211 216.852 188.286 216.715 188.328V188.349C216.887 188.377 217.021 188.45 217.118 188.568C217.214 188.685 217.262 188.83 217.262 189.002C217.262 189.15 217.222 189.283 217.141 189.4C217.062 189.517 216.953 189.609 216.815 189.677C216.677 189.744 216.52 189.777 216.344 189.777Z" fill="#C98060"/>
<path d="M213.815 202.51L214.654 200.242H215.029L214.001 202.961H213.762L213.815 202.51ZM213.529 201.522L213.895 202.51L213.964 202.961H213.725L213.157 201.522H213.529ZM212.923 201.814V201.522H213.518V201.814H212.923ZM215.361 202.403V202.133L216.556 200.242H216.752V200.662H216.62L215.717 202.09V202.111H217.326V202.403H215.361ZM216.641 202.961V202.321V202.195V200.242H216.954V202.961H216.641Z" fill="#C98060"/>
<path d="M213.815 209.821L214.654 207.554H215.029L214.001 210.272H213.762L213.815 209.821ZM213.529 208.833L213.895 209.821L213.964 210.272H213.725L213.157 208.833H213.529ZM212.923 209.125V208.833H213.518V209.125H212.923ZM216.275 210.31C216.119 210.31 215.979 210.279 215.854 210.217C215.729 210.155 215.629 210.07 215.554 209.962C215.478 209.854 215.437 209.731 215.43 209.593H215.749C215.761 209.716 215.817 209.818 215.916 209.898C216.016 209.978 216.136 210.018 216.275 210.018C216.386 210.018 216.485 209.991 216.572 209.939C216.66 209.887 216.728 209.815 216.778 209.724C216.828 209.632 216.853 209.528 216.853 209.412C216.853 209.294 216.827 209.188 216.775 209.095C216.724 209.001 216.653 208.927 216.563 208.873C216.472 208.819 216.369 208.792 216.253 208.791C216.17 208.79 216.085 208.803 215.997 208.829C215.909 208.855 215.837 208.888 215.781 208.929L215.473 208.892L215.637 207.554H217.05V207.846H215.913L215.818 208.648H215.834C215.89 208.603 215.959 208.567 216.044 208.537C216.128 208.508 216.215 208.494 216.306 208.494C216.473 208.494 216.621 208.533 216.751 208.613C216.882 208.692 216.985 208.8 217.059 208.937C217.134 209.074 217.172 209.231 217.172 209.407C217.172 209.58 217.133 209.735 217.055 209.872C216.978 210.007 216.872 210.114 216.737 210.193C216.601 210.271 216.447 210.31 216.275 210.31Z" fill="#C98060"/>
<path d="M213.815 216.68L214.654 214.413H215.029L214.001 217.132H213.762L213.815 216.68ZM213.529 215.693L213.895 216.68L213.964 217.132H213.725L213.157 215.693H213.529ZM212.923 215.985V215.693H213.518V215.985H212.923ZM216.328 217.169C216.216 217.167 216.105 217.146 215.993 217.105C215.882 217.065 215.78 216.996 215.688 216.9C215.596 216.802 215.522 216.671 215.466 216.505C215.41 216.339 215.382 216.13 215.382 215.879C215.382 215.638 215.405 215.425 215.45 215.239C215.495 215.052 215.561 214.895 215.647 214.768C215.732 214.639 215.836 214.542 215.957 214.475C216.079 214.409 216.217 214.376 216.37 214.376C216.522 214.376 216.658 214.406 216.776 214.467C216.896 214.528 216.993 214.612 217.068 214.72C217.144 214.828 217.192 214.952 217.214 215.093H216.891C216.86 214.971 216.802 214.869 216.715 214.789C216.629 214.708 216.514 214.668 216.37 214.668C216.16 214.668 215.994 214.76 215.872 214.943C215.752 215.126 215.691 215.383 215.69 215.714H215.712C215.761 215.639 215.82 215.575 215.888 215.522C215.957 215.468 216.033 215.426 216.117 215.397C216.2 215.368 216.288 215.353 216.381 215.353C216.537 215.353 216.679 215.392 216.808 215.47C216.937 215.547 217.041 215.653 217.119 215.79C217.197 215.925 217.236 216.08 217.236 216.256C217.236 216.424 217.198 216.578 217.123 216.718C217.048 216.857 216.942 216.967 216.806 217.05C216.67 217.131 216.511 217.171 216.328 217.169ZM216.328 216.877C216.439 216.877 216.539 216.849 216.628 216.793C216.717 216.738 216.787 216.663 216.839 216.569C216.891 216.475 216.917 216.371 216.917 216.256C216.917 216.143 216.892 216.041 216.841 215.949C216.792 215.856 216.723 215.782 216.636 215.727C216.549 215.672 216.45 215.645 216.338 215.645C216.254 215.645 216.176 215.662 216.103 215.695C216.031 215.728 215.967 215.773 215.912 215.831C215.858 215.888 215.816 215.954 215.785 216.029C215.754 216.102 215.738 216.18 215.738 216.261C215.738 216.369 215.763 216.47 215.814 216.564C215.865 216.657 215.935 216.733 216.024 216.791C216.113 216.848 216.214 216.877 216.328 216.877Z" fill="#C98060"/>
<circle cx="151.103" cy="162.616" r="8.41121" fill="#C98060" stroke="#C98060" stroke-width="0.934579" stroke-dasharray="0.71 0.71"/>
<path d="M203.439 162.68L24 162.68" stroke="#C98060" stroke-width="0.934579" stroke-dasharray="0.93 1.87"/>
<path d="M203.439 186.006L24 186.006" stroke="#C98060" stroke-width="0.934579" stroke-dasharray="0.93 1.87"/>
<path d="M203.439 199.641L24 199.641" stroke="#C98060" stroke-width="0.934579" stroke-dasharray="0.93 1.87"/>
<path d="M203.439 209.155L24 209.155" stroke="#C98060" stroke-width="0.934579" stroke-dasharray="0.93 1.87"/>
<path d="M203.439 216.188L24 216.188" stroke="#C98060" stroke-width="0.934579" stroke-dasharray="0.93 1.87"/>
<path d="M150.854 110.28L150.854 289.718" stroke="#C98060" stroke-width="0.934579" stroke-dasharray="0.93 1.87"/>
<path d="M170.411 110.282L170.411 289.72" stroke="#C98060" stroke-width="0.934579" stroke-dasharray="0.93 1.87"/>
<path d="M179.208 110.282L179.208 289.72" stroke="#C98060" stroke-width="0.934579" stroke-dasharray="0.93 1.87"/>
<path d="M184.406 110.282L184.406 289.72" stroke="#C98060" stroke-width="0.934579" stroke-dasharray="0.93 1.87"/>
<path d="M187.723 110.282L187.723 289.72" stroke="#C98060" stroke-width="0.934579" stroke-dasharray="0.93 1.87"/>
<ellipse cx="23.8599" cy="289.367" rx="179.489" ry="179.256" stroke="#C98060" stroke-width="0.934579" stroke-dasharray="3.74 1.87"/>
<ellipse cx="23.8733" cy="289.364" rx="253.079" ry="252.751" stroke="#C98060" stroke-width="0.934579" stroke-dasharray="3.74 1.87"/>
<ellipse cx="23.8805" cy="289.367" rx="310.515" ry="310.113" stroke="#C98060" stroke-width="0.934579" stroke-dasharray="3.74 1.87"/>
<ellipse cx="23.8701" cy="289.367" rx="357.182" ry="356.719" stroke="#C98060" stroke-width="0.934579" stroke-dasharray="3.74 1.87"/>
<ellipse cx="23.8729" cy="289.366" rx="400.26" ry="399.741" stroke="#C98060" stroke-width="0.934579" stroke-dasharray="3.74 1.87"/>
</g>
<defs>
<clipPath id="clip0_687_68665">
<rect width="400" height="179.439" fill="white" transform="translate(24 110.28)"/>
</clipPath>
<clipPath id="clip1_687_68665">
<rect x="24" y="110.28" width="400" height="179.439" fill="white"/>
</clipPath>
</defs>
</svg>
