<svg width="448" height="400" viewBox="0 0 448 400" fill="none" xmlns="http://www.w3.org/2000/svg">
<g clip-path="url(#clip0_687_68051)">
<circle cx="224.003" cy="181.289" r="138.573" stroke="#C98060" stroke-width="2.8125"/>
<circle cx="224.004" cy="181.287" r="98.3866" stroke="#C98060" stroke-width="2.8125"/>
<circle cx="223.986" cy="181.288" r="69.9792" stroke="#C98060" stroke-width="2.8125"/>
<path d="M224.003 179.555L80.9263 36.4785" stroke="#C98060" stroke-width="2.8125"/>
<circle cx="223.998" cy="181.288" r="49.8862" stroke="#C98060" stroke-width="2.8125"/>
<circle cx="224.015" cy="181.288" r="34.6432" stroke="#C98060" stroke-width="2.8125"/>
<path d="M224.012 -3.0127L224.012 365.591" stroke="#C98060" stroke-width="2.8125" stroke-dasharray="1.39 5.54"/>
<path d="M408.295 181.287L39.6921 181.287" stroke="#C98060" stroke-width="2.8125" stroke-dasharray="1.39 5.54"/>
<path d="M140.421 95.9569C140.917 95.9608 141.413 96.0553 141.909 96.2403C142.405 96.4253 142.858 96.7324 143.267 97.1615C143.677 97.5867 144.005 98.1673 144.253 98.9035C144.501 99.6397 144.625 100.563 144.625 101.673C144.625 102.748 144.523 103.702 144.318 104.537C144.117 105.368 143.826 106.068 143.444 106.639C143.066 107.21 142.606 107.643 142.062 107.938C141.523 108.234 140.913 108.381 140.232 108.381C139.555 108.381 138.95 108.247 138.419 107.98C137.891 107.708 137.458 107.332 137.12 106.852C136.785 106.368 136.571 105.807 136.476 105.169H137.917C138.047 105.724 138.305 106.183 138.691 106.545C139.08 106.903 139.594 107.082 140.232 107.082C141.165 107.082 141.901 106.675 142.44 105.86C142.984 105.045 143.255 103.893 143.255 102.405H143.161C142.94 102.736 142.679 103.021 142.375 103.261C142.072 103.502 141.736 103.687 141.366 103.817C140.996 103.946 140.602 104.011 140.185 104.011C139.492 104.011 138.856 103.84 138.277 103.498C137.703 103.151 137.242 102.677 136.896 102.075C136.553 101.468 136.382 100.775 136.382 99.9959C136.382 99.2558 136.547 98.5787 136.878 97.9646C137.212 97.3465 137.681 96.8544 138.283 96.4883C138.889 96.1222 139.602 95.9451 140.421 95.9569ZM140.421 97.256C139.925 97.256 139.478 97.38 139.08 97.628C138.687 97.8721 138.374 98.2028 138.141 98.6201C137.913 99.0334 137.799 99.492 137.799 99.9959C137.799 100.5 137.909 100.958 138.13 101.372C138.354 101.781 138.659 102.108 139.045 102.352C139.435 102.592 139.878 102.712 140.374 102.712C140.748 102.712 141.096 102.639 141.419 102.494C141.742 102.344 142.023 102.141 142.263 101.886C142.507 101.626 142.698 101.332 142.836 101.006C142.974 100.675 143.043 100.331 143.043 99.9723C143.043 99.4999 142.929 99.057 142.7 98.6437C142.476 98.2303 142.165 97.8957 141.767 97.6398C141.374 97.3839 140.925 97.256 140.421 97.256ZM150.892 108.381C150.002 108.381 149.245 108.139 148.619 107.655C147.993 107.167 147.514 106.46 147.184 105.535C146.853 104.606 146.688 103.484 146.688 102.169C146.688 100.862 146.853 99.746 147.184 98.8208C147.518 97.8918 147.999 97.1832 148.624 96.695C149.254 96.2029 150.01 95.9569 150.892 95.9569C151.774 95.9569 152.528 96.2029 153.154 96.695C153.784 97.1832 154.264 97.8918 154.595 98.8208C154.929 99.746 155.096 100.862 155.096 102.169C155.096 103.484 154.931 104.606 154.6 105.535C154.27 106.46 153.791 107.167 153.165 107.655C152.54 108.139 151.782 108.381 150.892 108.381ZM150.892 107.082C151.774 107.082 152.459 106.657 152.947 105.807C153.435 104.956 153.679 103.744 153.679 102.169C153.679 101.122 153.567 100.23 153.343 99.494C153.122 98.7578 152.803 98.1969 152.386 97.8111C151.973 97.4253 151.475 97.2324 150.892 97.2324C150.018 97.2324 149.335 97.6634 148.843 98.5256C148.351 99.3838 148.105 100.598 148.105 102.169C148.105 103.216 148.215 104.106 148.436 104.838C148.656 105.57 148.973 106.127 149.386 106.509C149.804 106.891 150.305 107.082 150.892 107.082Z" fill="#C98060"/>
<path d="M108.248 67.716V79.8096H106.783V69.2513H106.713L103.76 71.2118V69.7237L106.783 67.716H108.248ZM111.726 79.8096V78.7467L115.718 74.3769C116.186 73.8651 116.572 73.4203 116.875 73.0423C117.178 72.6605 117.403 72.3022 117.548 71.9676C117.698 71.6291 117.773 71.2748 117.773 70.9047C117.773 70.4795 117.67 70.1115 117.466 69.8004C117.265 69.4894 116.989 69.2493 116.639 69.08C116.289 68.9108 115.895 68.8261 115.458 68.8261C114.994 68.8261 114.588 68.9226 114.242 69.1155C113.899 69.3044 113.633 69.5702 113.444 69.9126C113.259 70.2551 113.167 70.6567 113.167 71.1173H111.773C111.773 70.4087 111.937 69.7867 112.263 69.2513C112.59 68.7159 113.035 68.2986 113.598 67.9994C114.165 67.7002 114.801 67.5506 115.505 67.5506C116.214 67.5506 116.842 67.7002 117.389 67.9994C117.936 68.2986 118.365 68.7021 118.676 69.2099C118.987 69.7178 119.143 70.2827 119.143 70.9047C119.143 71.3496 119.062 71.7846 118.901 72.2097C118.743 72.631 118.468 73.1014 118.074 73.621C117.684 74.1368 117.143 74.7666 116.45 75.5107L113.734 78.416V78.5105H119.355V79.8096H111.726ZM125.668 79.9749C124.857 79.9749 124.14 79.8312 123.518 79.5438C122.9 79.2525 122.418 78.8529 122.072 78.3451C121.725 77.8333 121.554 77.2507 121.558 76.5972C121.554 76.0854 121.654 75.613 121.859 75.18C122.064 74.743 122.343 74.3789 122.698 74.0875C123.056 73.7923 123.455 73.6053 123.896 73.5266V73.4557C123.318 73.3061 122.857 72.9813 122.515 72.4814C122.172 71.9775 122.003 71.4047 122.007 70.763C122.003 70.1489 122.158 69.5997 122.473 69.1155C122.788 68.6312 123.221 68.2494 123.772 67.9699C124.327 67.6904 124.959 67.5506 125.668 67.5506C126.369 67.5506 126.995 67.6904 127.546 67.9699C128.097 68.2494 128.53 68.6312 128.845 69.1155C129.164 69.5997 129.325 70.1489 129.329 70.763C129.325 71.4047 129.15 71.9775 128.804 72.4814C128.461 72.9813 128.006 73.3061 127.439 73.4557V73.5266C127.876 73.6053 128.27 73.7923 128.62 74.0875C128.971 74.3789 129.25 74.743 129.459 75.18C129.668 75.613 129.774 76.0854 129.778 76.5972C129.774 77.2507 129.597 77.8333 129.246 78.3451C128.9 78.8529 128.418 79.2525 127.8 79.5438C127.186 79.8312 126.475 79.9749 125.668 79.9749ZM125.668 78.6758C126.215 78.6758 126.688 78.5872 127.085 78.4101C127.483 78.2329 127.79 77.9829 128.006 77.6601C128.223 77.3373 128.333 76.9594 128.337 76.5263C128.333 76.0697 128.215 75.6662 127.983 75.3158C127.75 74.9654 127.434 74.6899 127.032 74.4891C126.634 74.2883 126.18 74.1879 125.668 74.1879C125.152 74.1879 124.692 74.2883 124.286 74.4891C123.885 74.6899 123.568 74.9654 123.335 75.3158C123.107 75.6662 122.995 76.0697 122.999 76.5263C122.995 76.9594 123.099 77.3373 123.312 77.6601C123.528 77.9829 123.837 78.2329 124.239 78.4101C124.64 78.5872 125.117 78.6758 125.668 78.6758ZM125.668 72.9361C126.101 72.9361 126.485 72.8494 126.819 72.6762C127.158 72.503 127.424 72.2609 127.617 71.9499C127.81 71.6389 127.908 71.2748 127.912 70.8575C127.908 70.448 127.811 70.0918 127.623 69.7886C127.434 69.4816 127.172 69.2454 126.837 69.08C126.503 68.9108 126.113 68.8261 125.668 68.8261C125.215 68.8261 124.82 68.9108 124.481 69.08C124.142 69.2454 123.881 69.4816 123.696 69.7886C123.511 70.0918 123.42 70.448 123.424 70.8575C123.42 71.2748 123.513 71.6389 123.702 71.9499C123.894 72.2609 124.16 72.503 124.499 72.6762C124.837 72.8494 125.227 72.9361 125.668 72.9361Z" fill="#C98060"/>
<path d="M163.438 133.325C162.942 133.317 162.446 133.222 161.95 133.041C161.454 132.86 161.001 132.555 160.591 132.126C160.182 131.693 159.853 131.108 159.605 130.372C159.357 129.632 159.233 128.703 159.233 127.585C159.233 126.514 159.334 125.565 159.534 124.739C159.735 123.908 160.027 123.209 160.408 122.642C160.79 122.071 161.251 121.638 161.79 121.343C162.333 121.048 162.946 120.9 163.627 120.9C164.304 120.9 164.906 121.036 165.434 121.308C165.965 121.575 166.398 121.949 166.733 122.43C167.067 122.91 167.284 123.463 167.382 124.089H165.942C165.808 123.546 165.548 123.095 165.162 122.737C164.776 122.378 164.264 122.199 163.627 122.199C162.69 122.199 161.952 122.607 161.412 123.422C160.877 124.237 160.607 125.38 160.603 126.853H160.698C160.918 126.518 161.18 126.233 161.483 125.996C161.79 125.756 162.129 125.571 162.499 125.441C162.869 125.311 163.261 125.246 163.674 125.246C164.367 125.246 165.001 125.42 165.575 125.766C166.15 126.109 166.611 126.583 166.957 127.189C167.304 127.791 167.477 128.482 167.477 129.262C167.477 130.01 167.31 130.695 166.975 131.317C166.64 131.935 166.17 132.427 165.564 132.793C164.961 133.155 164.253 133.332 163.438 133.325ZM163.438 132.025C163.934 132.025 164.379 131.901 164.772 131.653C165.17 131.405 165.483 131.073 165.711 130.655C165.943 130.238 166.06 129.774 166.06 129.262C166.06 128.762 165.947 128.307 165.723 127.898C165.503 127.484 165.197 127.156 164.808 126.912C164.422 126.668 163.981 126.545 163.485 126.545C163.111 126.545 162.763 126.62 162.44 126.77C162.117 126.916 161.834 127.116 161.589 127.372C161.349 127.628 161.16 127.921 161.023 128.252C160.885 128.579 160.816 128.923 160.816 129.285C160.816 129.766 160.928 130.215 161.152 130.632C161.381 131.049 161.692 131.386 162.085 131.642C162.483 131.897 162.934 132.025 163.438 132.025ZM169.516 130.679V129.474L174.83 121.066H175.704V122.932H175.114L171.098 129.285V129.38H178.255V130.679H169.516ZM175.208 133.159V130.313V129.752V121.066H176.602V133.159H175.208Z" fill="#C98060"/>
<path d="M177.168 148.694V147.489L182.483 139.08H183.357V140.946H182.766L178.751 147.3V147.395H185.908V148.694H177.168ZM182.861 151.174V148.328V147.767V139.08H184.254V151.174H182.861ZM191.9 151.339C191.207 151.339 190.583 151.201 190.028 150.926C189.473 150.65 189.028 150.272 188.693 149.792C188.359 149.312 188.176 148.765 188.144 148.15H189.561C189.617 148.698 189.865 149.15 190.305 149.509C190.75 149.863 191.282 150.04 191.9 150.04C192.396 150.04 192.837 149.924 193.223 149.692C193.612 149.459 193.917 149.141 194.138 148.735C194.362 148.326 194.474 147.863 194.474 147.347C194.474 146.82 194.358 146.349 194.126 145.936C193.898 145.519 193.583 145.19 193.181 144.95C192.78 144.71 192.321 144.588 191.805 144.584C191.435 144.58 191.055 144.637 190.666 144.755C190.276 144.869 189.955 145.017 189.703 145.198L188.333 145.033L189.065 139.08H195.348V140.379H190.294L189.869 143.946H189.939C190.187 143.749 190.498 143.586 190.872 143.456C191.246 143.326 191.636 143.261 192.042 143.261C192.782 143.261 193.441 143.438 194.02 143.792C194.602 144.143 195.059 144.623 195.39 145.233C195.724 145.844 195.892 146.54 195.892 147.324C195.892 148.095 195.718 148.784 195.372 149.39C195.03 149.993 194.557 150.469 193.955 150.82C193.353 151.166 192.668 151.339 191.9 151.339Z" fill="#C98060"/>
<path d="M194.71 163.81C193.93 163.81 193.235 163.676 192.625 163.408C192.019 163.141 191.537 162.769 191.179 162.292C190.824 161.812 190.631 161.255 190.6 160.621H192.088C192.119 161.011 192.253 161.347 192.489 161.631C192.726 161.91 193.035 162.127 193.417 162.28C193.798 162.434 194.222 162.511 194.686 162.511C195.206 162.511 195.666 162.42 196.068 162.239C196.469 162.058 196.784 161.806 197.013 161.483C197.241 161.16 197.355 160.786 197.355 160.361C197.355 159.916 197.245 159.525 197.025 159.186C196.804 158.844 196.481 158.576 196.056 158.383C195.631 158.19 195.111 158.094 194.497 158.094H193.529V156.795H194.497C194.977 156.795 195.399 156.708 195.761 156.535C196.127 156.362 196.412 156.118 196.617 155.803C196.826 155.488 196.93 155.118 196.93 154.692C196.93 154.283 196.84 153.927 196.658 153.624C196.477 153.32 196.221 153.084 195.891 152.915C195.564 152.746 195.178 152.661 194.733 152.661C194.316 152.661 193.922 152.738 193.552 152.891C193.186 153.041 192.887 153.259 192.655 153.547C192.423 153.83 192.297 154.173 192.277 154.574H190.86C190.883 153.941 191.074 153.385 191.432 152.909C191.791 152.429 192.259 152.055 192.838 151.787C193.421 151.519 194.06 151.386 194.757 151.386C195.505 151.386 196.147 151.537 196.682 151.84C197.217 152.139 197.629 152.535 197.916 153.027C198.204 153.519 198.347 154.051 198.347 154.622C198.347 155.303 198.168 155.883 197.81 156.364C197.456 156.844 196.973 157.176 196.363 157.362V157.456C197.127 157.582 197.723 157.907 198.152 158.43C198.582 158.95 198.796 159.594 198.796 160.361C198.796 161.019 198.617 161.609 198.259 162.133C197.904 162.652 197.42 163.062 196.806 163.361C196.192 163.66 195.493 163.81 194.71 163.81ZM201.211 163.645V162.582L205.203 158.212C205.672 157.7 206.057 157.255 206.361 156.877C206.664 156.495 206.888 156.137 207.034 155.803C207.183 155.464 207.258 155.11 207.258 154.74C207.258 154.314 207.156 153.946 206.951 153.635C206.75 153.324 206.475 153.084 206.124 152.915C205.774 152.746 205.38 152.661 204.943 152.661C204.479 152.661 204.073 152.758 203.727 152.95C203.384 153.139 203.119 153.405 202.93 153.748C202.745 154.09 202.652 154.492 202.652 154.952H201.259C201.259 154.244 201.422 153.622 201.749 153.086C202.075 152.551 202.52 152.134 203.083 151.834C203.65 151.535 204.286 151.386 204.991 151.386C205.699 151.386 206.327 151.535 206.874 151.834C207.421 152.134 207.851 152.537 208.162 153.045C208.473 153.553 208.628 154.118 208.628 154.74C208.628 155.185 208.547 155.62 208.386 156.045C208.228 156.466 207.953 156.936 207.559 157.456C207.17 157.972 206.628 158.602 205.935 159.346L203.219 162.251V162.345H208.841V163.645H201.211Z" fill="#C98060"/>
</g>
<defs>
<clipPath id="clip0_687_68051">
<rect width="448" height="400" rx="4" fill="white"/>
</clipPath>
</defs>
</svg>
