<svg width="448" height="400" viewBox="0 0 448 400" fill="none" xmlns="http://www.w3.org/2000/svg">
<g clip-path="url(#clip0_687_68088)">
<g clip-path="url(#clip1_687_68088)" filter="url(#filter0_d_687_68088)">
<g clip-path="url(#clip2_687_68088)">
<circle cx="37.7299" cy="254.412" r="227.39" fill="#C98060" fill-opacity="0.1" stroke="#C98060" stroke-width="2.0202" stroke-dasharray="0.91 0.91"/>
<circle cx="287.72" cy="130.27" r="16.9721" fill="#C98060" stroke="#C98060" stroke-width="2.0202" stroke-dasharray="1.41 1.41"/>
<path d="M391.315 27.0228L37.7302 380.607" stroke="#C98060" stroke-width="2.0202"/>
<path d="M391.315 130.27L37.7302 380.607" stroke="#C98060" stroke-width="2.0202"/>
<path d="M391.315 176.236L37.7302 380.607" stroke="#C98060" stroke-width="2.0202"/>
<path d="M391.315 203.108L37.7302 380.607" stroke="#C98060" stroke-width="2.0202"/>
<path d="M391.315 221.848L37.7302 380.607" stroke="#C98060" stroke-width="2.0202"/>
<path d="M391.315 235.711L37.7302 380.607" stroke="#C98060" stroke-width="2.0202"/>
<path d="M391.315 130.27L37.7302 130.27" stroke="#C98060" stroke-width="2.0202" stroke-dasharray="1.41 1.41"/>
<path d="M391.315 176.235L37.7302 176.235" stroke="#C98060" stroke-width="2.0202" stroke-dasharray="1.41 1.41"/>
<path d="M391.315 203.108L37.7302 203.108" stroke="#C98060" stroke-width="2.0202" stroke-dasharray="1.41 1.41"/>
<path d="M391.315 221.849L37.7302 221.849" stroke="#C98060" stroke-width="2.0202" stroke-dasharray="1.41 1.41"/>
<path d="M391.315 235.712L37.7302 235.712" stroke="#C98060" stroke-width="2.0202" stroke-dasharray="1.41 1.41"/>
<path d="M287.715 27.0225L287.715 380.607" stroke="#C98060" stroke-width="2.0202" stroke-dasharray="1.41 1.41"/>
<path d="M326.256 27.0225L326.256 380.607" stroke="#C98060" stroke-width="2.0202" stroke-dasharray="1.41 1.41"/>
<path d="M343.586 27.0225L343.586 380.607" stroke="#C98060" stroke-width="2.0202" stroke-dasharray="1.41 1.41"/>
<path d="M353.837 27.0225L353.837 380.607" stroke="#C98060" stroke-width="2.0202" stroke-dasharray="1.41 1.41"/>
<path d="M360.371 27.0225L360.371 380.607" stroke="#C98060" stroke-width="2.0202" stroke-dasharray="1.41 1.41"/>
</g>
<rect x="37.7317" y="27.0225" width="353.585" height="353.585" stroke="#C98060" stroke-width="1.21212"/>
<path d="M402.594 26.157L404.498 21.01H405.348L403.016 27.1816H402.473L402.594 26.157ZM401.943 23.915L402.775 26.157L402.931 27.1816H402.389L401.099 23.915H401.943ZM400.569 24.578V23.915H401.919V24.578H400.569ZM406.248 27.1816V26.6392L408.285 24.4092C408.524 24.148 408.721 23.921 408.876 23.7282C409.03 23.5333 409.145 23.3505 409.219 23.1797C409.295 23.0069 409.334 22.8261 409.334 22.6373C409.334 22.4203 409.281 22.2325 409.177 22.0737C409.074 21.915 408.934 21.7925 408.755 21.7061C408.576 21.6197 408.375 21.5765 408.152 21.5765C407.915 21.5765 407.708 21.6257 407.531 21.7242C407.357 21.8206 407.221 21.9562 407.125 22.131C407.03 22.3058 406.983 22.5107 406.983 22.7458H406.272C406.272 22.3841 406.355 22.0667 406.522 21.7935C406.689 21.5203 406.916 21.3073 407.203 21.1546C407.492 21.0019 407.817 20.9256 408.176 20.9256C408.538 20.9256 408.858 21.0019 409.138 21.1546C409.417 21.3073 409.636 21.5132 409.795 21.7724C409.953 22.0316 410.033 22.3199 410.033 22.6373C410.033 22.8643 409.992 23.0863 409.909 23.3033C409.829 23.5182 409.688 23.7583 409.487 24.0235C409.288 24.2867 409.012 24.6081 408.659 24.9878L407.272 26.4705V26.5187H410.141V27.1816H406.248Z" fill="#C98060"/>
<path d="M402.594 132.281L404.499 127.134H405.348L403.016 133.306H402.474L402.594 132.281ZM401.943 130.039L402.775 132.281L402.932 133.306H402.389L401.099 130.039H401.943ZM400.569 130.702V130.039H401.919V130.702H400.569ZM408.333 133.39C407.936 133.39 407.581 133.322 407.27 133.185C406.96 133.049 406.714 132.859 406.531 132.616C406.35 132.37 406.252 132.086 406.236 131.763H406.995C407.011 131.962 407.08 132.133 407.2 132.278C407.321 132.421 407.478 132.531 407.673 132.61C407.868 132.688 408.084 132.727 408.321 132.727C408.586 132.727 408.822 132.681 409.026 132.588C409.231 132.496 409.392 132.367 409.509 132.203C409.625 132.038 409.683 131.847 409.683 131.63C409.683 131.403 409.627 131.203 409.515 131.03C409.402 130.856 409.237 130.719 409.02 130.621C408.803 130.522 408.538 130.473 408.225 130.473H407.731V129.81H408.225C408.47 129.81 408.685 129.766 408.87 129.677C409.057 129.589 409.202 129.464 409.307 129.304C409.413 129.143 409.466 128.954 409.466 128.737C409.466 128.528 409.42 128.346 409.328 128.192C409.235 128.037 409.105 127.917 408.936 127.83C408.769 127.744 408.572 127.701 408.345 127.701C408.132 127.701 407.932 127.74 407.743 127.818C407.556 127.894 407.403 128.006 407.285 128.153C407.166 128.297 407.102 128.472 407.092 128.677H406.369C406.381 128.353 406.478 128.07 406.661 127.827C406.844 127.582 407.083 127.391 407.378 127.255C407.675 127.118 408.002 127.05 408.357 127.05C408.739 127.05 409.067 127.127 409.34 127.282C409.613 127.434 409.823 127.636 409.97 127.887C410.116 128.139 410.19 128.41 410.19 128.701C410.19 129.049 410.098 129.345 409.915 129.59C409.735 129.835 409.488 130.005 409.177 130.099V130.148C409.567 130.212 409.871 130.378 410.09 130.645C410.309 130.91 410.419 131.238 410.419 131.63C410.419 131.966 410.327 132.267 410.144 132.534C409.964 132.799 409.717 133.008 409.403 133.161C409.09 133.314 408.733 133.39 408.333 133.39Z" fill="#C98060"/>
<path d="M402.594 175.263L404.499 170.115H405.348L403.016 176.287H402.474L402.594 175.263ZM401.943 173.02L402.775 175.263L402.932 176.287H402.389L401.099 173.02H401.943ZM400.569 173.683V173.02H401.919V173.683H400.569ZM406.103 175.021V174.407L408.815 170.115H409.261V171.068H408.96L406.911 174.31V174.358H410.563V175.021H406.103ZM409.008 176.287V174.835V174.548V170.115H409.72V176.287H409.008Z" fill="#C98060"/>
<path d="M402.594 206.132L404.499 200.985H405.348L403.016 207.156H402.474L402.594 206.132ZM401.943 203.89L402.775 206.132L402.932 207.156H402.389L401.099 203.89H401.943ZM400.569 204.553V203.89H401.919V204.553H400.569ZM408.177 207.241C407.823 207.241 407.505 207.17 407.221 207.03C406.938 206.889 406.711 206.696 406.54 206.451C406.37 206.206 406.276 205.927 406.26 205.613H406.983C407.011 205.893 407.138 206.124 407.363 206.306C407.59 206.487 407.861 206.578 408.177 206.578C408.43 206.578 408.655 206.518 408.852 206.4C409.051 206.281 409.206 206.119 409.319 205.912C409.433 205.703 409.491 205.467 409.491 205.203C409.491 204.934 409.431 204.694 409.313 204.483C409.196 204.27 409.035 204.103 408.831 203.98C408.626 203.857 408.392 203.795 408.128 203.793C407.94 203.791 407.746 203.82 407.547 203.881C407.348 203.939 407.184 204.014 407.056 204.107L406.356 204.022L406.73 200.985H409.937V201.648H407.357L407.14 203.468H407.176C407.303 203.367 407.461 203.284 407.652 203.218C407.843 203.151 408.042 203.118 408.249 203.118C408.627 203.118 408.963 203.209 409.258 203.389C409.556 203.568 409.789 203.813 409.958 204.125C410.128 204.436 410.214 204.792 410.214 205.191C410.214 205.585 410.125 205.937 409.949 206.246C409.774 206.554 409.533 206.797 409.225 206.975C408.918 207.152 408.568 207.241 408.177 207.241Z" fill="#C98060"/>
<path d="M402.594 223.49L404.499 218.343H405.348L403.016 224.515H402.474L402.594 223.49ZM401.943 221.248L402.775 223.49L402.932 224.515H402.389L401.099 221.248H401.943ZM400.569 221.911V221.248H401.919V221.911H400.569ZM408.297 224.599C408.044 224.595 407.791 224.547 407.538 224.454C407.285 224.362 407.054 224.206 406.845 223.987C406.636 223.766 406.468 223.468 406.341 223.092C406.215 222.715 406.152 222.24 406.152 221.67C406.152 221.123 406.203 220.639 406.305 220.217C406.408 219.793 406.556 219.437 406.751 219.148C406.946 218.856 407.181 218.635 407.456 218.485C407.734 218.334 408.046 218.259 408.394 218.259C408.739 218.259 409.047 218.328 409.316 218.467C409.587 218.603 409.808 218.794 409.979 219.039C410.149 219.284 410.26 219.566 410.31 219.886H409.575C409.507 219.609 409.374 219.379 409.177 219.196C408.98 219.013 408.719 218.922 408.394 218.922C407.915 218.922 407.539 219.13 407.264 219.545C406.99 219.961 406.853 220.545 406.851 221.296H406.899C407.011 221.125 407.145 220.98 407.3 220.859C407.456 220.737 407.629 220.642 407.818 220.576C408.007 220.51 408.207 220.477 408.418 220.477C408.771 220.477 409.095 220.565 409.388 220.742C409.681 220.917 409.916 221.159 410.093 221.468C410.27 221.775 410.358 222.128 410.358 222.526C410.358 222.907 410.273 223.257 410.102 223.574C409.931 223.89 409.691 224.141 409.382 224.328C409.075 224.513 408.713 224.603 408.297 224.599ZM408.297 223.936C408.55 223.936 408.777 223.873 408.978 223.746C409.181 223.62 409.341 223.45 409.457 223.237C409.576 223.024 409.635 222.787 409.635 222.526C409.635 222.271 409.578 222.039 409.463 221.83C409.351 221.619 409.195 221.451 408.996 221.326C408.799 221.202 408.574 221.14 408.321 221.14C408.13 221.14 407.953 221.178 407.788 221.254C407.623 221.328 407.478 221.431 407.354 221.561C407.231 221.692 407.135 221.842 407.065 222.01C406.994 222.177 406.959 222.353 406.959 222.538C406.959 222.783 407.016 223.012 407.131 223.225C407.247 223.438 407.406 223.61 407.607 223.74C407.81 223.871 408.04 223.936 408.297 223.936Z" fill="#C98060"/>
<path d="M402.594 237.369L404.499 232.222H405.348L403.016 238.394H402.474L402.594 237.369ZM401.943 235.127L402.775 237.369L402.932 238.394H402.389L401.099 235.127H401.943ZM400.569 235.79V235.127H401.919V235.79H400.569ZM406.441 238.394L409.201 232.933V232.885H406.019V232.222H409.973V232.921L407.224 238.394H406.441Z" fill="#C98060"/>
</g>
</g>
<defs>
<filter id="filter0_d_687_68088" x="-10.0984" y="-26.9723" width="468.197" height="456.076" filterUnits="userSpaceOnUse" color-interpolation-filters="sRGB">
<feFlood flood-opacity="0" result="BackgroundImageFix"/>
<feColorMatrix in="SourceAlpha" type="matrix" values="0 0 0 0 0 0 0 0 0 0 0 0 0 0 0 0 0 0 127 0" result="hardAlpha"/>
<feOffset dy="1.06557"/>
<feGaussianBlur stdDeviation="17.0492"/>
<feComposite in2="hardAlpha" operator="out"/>
<feColorMatrix type="matrix" values="0 0 0 0 0 0 0 0 0 0 0 0 0 0 0 0 0 0 0.25 0"/>
<feBlend mode="normal" in2="BackgroundImageFix" result="effect1_dropShadow_687_68088"/>
<feBlend mode="normal" in="SourceGraphic" in2="effect1_dropShadow_687_68088" result="shape"/>
</filter>
<clipPath id="clip0_687_68088">
<rect width="400" height="387.879" fill="white" transform="translate(24 6.06055)"/>
</clipPath>
<clipPath id="clip1_687_68088">
<rect width="400" height="387.879" fill="white" transform="translate(24 6.06055)"/>
</clipPath>
<clipPath id="clip2_687_68088">
<rect x="37.7317" y="27.0225" width="353.585" height="353.585" fill="white"/>
</clipPath>
</defs>
</svg>
