<svg width="448" height="400" viewBox="0 0 448 400" fill="none" xmlns="http://www.w3.org/2000/svg">
<g clip-path="url(#clip0_687_67117)">
<rect x="40.9259" y="16.9264" width="70.8333" height="14.0625" rx="2.34375" fill="white"/>
<rect x="40.9259" y="16.9264" width="70.8333" height="14.0625" rx="2.34375" stroke="white" stroke-width="0.520833" stroke-dasharray="5.21 2.6"/>
<rect x="99.0015" y="125" width="116.667" height="150" stroke="white" stroke-width="0.520833"/>
<path d="M99.0015 125V275" stroke="white" stroke-width="0.520833" stroke-miterlimit="10"/>
<path d="M115.668 125V275" stroke="white" stroke-width="0.520833" stroke-miterlimit="10"/>
<path d="M132.335 125V275" stroke="white" stroke-width="0.520833" stroke-miterlimit="10"/>
<path d="M149.001 125V275" stroke="white" stroke-width="0.520833" stroke-miterlimit="10"/>
<path d="M165.668 125V275" stroke="white" stroke-width="0.520833" stroke-miterlimit="10"/>
<path d="M182.335 125V275" stroke="white" stroke-width="0.520833" stroke-miterlimit="10"/>
<path d="M199.001 125V275" stroke="white" stroke-width="0.520833" stroke-miterlimit="10"/>
<path d="M215.668 125V275" stroke="white" stroke-width="0.520833" stroke-miterlimit="10"/>
<rect x="82.3345" y="141.667" width="150" height="116.667" stroke="white" stroke-width="0.520833"/>
<path d="M232.334 141.667H82.3345" stroke="white" stroke-width="0.520833" stroke-miterlimit="10"/>
<path d="M232.334 158.334H82.3345" stroke="white" stroke-width="0.520833" stroke-miterlimit="10"/>
<path d="M232.334 175H82.3345" stroke="white" stroke-width="0.520833" stroke-miterlimit="10"/>
<path d="M232.334 191.667H82.3345" stroke="white" stroke-width="0.520833" stroke-miterlimit="10"/>
<path d="M232.334 208.334H82.3345" stroke="white" stroke-width="0.520833" stroke-miterlimit="10"/>
<path d="M232.334 225H82.3345" stroke="white" stroke-width="0.520833" stroke-miterlimit="10"/>
<path d="M232.334 241.667H82.3345" stroke="white" stroke-width="0.520833" stroke-miterlimit="10"/>
<path d="M232.334 258.334H82.3345" stroke="white" stroke-width="0.520833" stroke-miterlimit="10"/>
<rect x="90.6672" y="133.333" width="133.333" height="133.333" stroke="white" stroke-width="0.625" stroke-linecap="round" stroke-linejoin="round" stroke-dasharray="2.5 2.5"/>
<path d="M98.9988 133.335V266.668" stroke="white" stroke-width="0.625" stroke-linecap="round" stroke-linejoin="round" stroke-dasharray="2.5 2.5"/>
<path d="M107.332 133.335V266.668" stroke="white" stroke-width="0.625" stroke-linecap="round" stroke-linejoin="round" stroke-dasharray="2.5 2.5"/>
<path d="M115.666 133.335V266.668" stroke="white" stroke-width="0.625" stroke-linecap="round" stroke-linejoin="round" stroke-dasharray="2.5 2.5"/>
<path d="M123.999 133.335V266.668" stroke="white" stroke-width="0.625" stroke-linecap="round" stroke-linejoin="round" stroke-dasharray="2.5 2.5"/>
<path d="M132.332 133.335V266.668" stroke="white" stroke-width="0.625" stroke-linecap="round" stroke-linejoin="round" stroke-dasharray="2.5 2.5"/>
<path d="M140.666 133.335V266.668" stroke="white" stroke-width="0.625" stroke-linecap="round" stroke-linejoin="round" stroke-dasharray="2.5 2.5"/>
<path d="M148.999 133.335V266.668" stroke="white" stroke-width="0.625" stroke-linecap="round" stroke-linejoin="round" stroke-dasharray="2.5 2.5"/>
<path d="M157.332 133.335V266.668" stroke="white" stroke-width="0.625" stroke-linecap="round" stroke-linejoin="round" stroke-dasharray="2.5 2.5"/>
<path d="M165.666 133.335V266.668" stroke="white" stroke-width="0.625" stroke-linecap="round" stroke-linejoin="round" stroke-dasharray="2.5 2.5"/>
<path d="M173.999 133.335V266.668" stroke="white" stroke-width="0.625" stroke-linecap="round" stroke-linejoin="round" stroke-dasharray="2.5 2.5"/>
<path d="M182.332 133.335V266.668" stroke="white" stroke-width="0.625" stroke-linecap="round" stroke-linejoin="round" stroke-dasharray="2.5 2.5"/>
<path d="M190.666 133.335V266.668" stroke="white" stroke-width="0.625" stroke-linecap="round" stroke-linejoin="round" stroke-dasharray="2.5 2.5"/>
<path d="M198.999 133.335V266.668" stroke="white" stroke-width="0.625" stroke-linecap="round" stroke-linejoin="round" stroke-dasharray="2.5 2.5"/>
<path d="M207.332 133.335V266.668" stroke="white" stroke-width="0.625" stroke-linecap="round" stroke-linejoin="round" stroke-dasharray="2.5 2.5"/>
<path d="M215.666 133.335V266.668" stroke="white" stroke-width="0.625" stroke-linecap="round" stroke-linejoin="round" stroke-dasharray="2.5 2.5"/>
<path d="M223.999 141.667H90.666" stroke="white" stroke-width="0.625" stroke-linecap="round" stroke-linejoin="round" stroke-dasharray="2.5 2.5"/>
<path d="M223.999 150H90.666" stroke="white" stroke-width="0.625" stroke-linecap="round" stroke-linejoin="round" stroke-dasharray="2.5 2.5"/>
<path d="M223.999 158.334H90.666" stroke="white" stroke-width="0.625" stroke-linecap="round" stroke-linejoin="round" stroke-dasharray="2.5 2.5"/>
<path d="M223.999 166.667H90.666" stroke="white" stroke-width="0.625" stroke-linecap="round" stroke-linejoin="round" stroke-dasharray="2.5 2.5"/>
<path d="M223.999 175H90.666" stroke="white" stroke-width="0.625" stroke-linecap="round" stroke-linejoin="round" stroke-dasharray="2.5 2.5"/>
<path d="M223.999 183.334H90.666" stroke="white" stroke-width="0.625" stroke-linecap="round" stroke-linejoin="round" stroke-dasharray="2.5 2.5"/>
<path d="M223.999 191.667H90.666" stroke="white" stroke-width="0.625" stroke-linecap="round" stroke-linejoin="round" stroke-dasharray="2.5 2.5"/>
<path d="M223.999 200H90.666" stroke="white" stroke-width="0.625" stroke-linecap="round" stroke-linejoin="round" stroke-dasharray="2.5 2.5"/>
<path d="M223.999 208.334H90.666" stroke="white" stroke-width="0.625" stroke-linecap="round" stroke-linejoin="round" stroke-dasharray="2.5 2.5"/>
<path d="M223.999 216.667H90.666" stroke="white" stroke-width="0.625" stroke-linecap="round" stroke-linejoin="round" stroke-dasharray="2.5 2.5"/>
<path d="M223.999 225H90.666" stroke="white" stroke-width="0.625" stroke-linecap="round" stroke-linejoin="round" stroke-dasharray="2.5 2.5"/>
<path d="M223.999 233.334H90.666" stroke="white" stroke-width="0.625" stroke-linecap="round" stroke-linejoin="round" stroke-dasharray="2.5 2.5"/>
<path d="M223.999 241.667H90.666" stroke="white" stroke-width="0.625" stroke-linecap="round" stroke-linejoin="round" stroke-dasharray="2.5 2.5"/>
<path d="M223.999 250H90.666" stroke="white" stroke-width="0.625" stroke-linecap="round" stroke-linejoin="round" stroke-dasharray="2.5 2.5"/>
<path d="M223.999 258.334H90.666" stroke="white" stroke-width="0.625" stroke-linecap="round" stroke-linejoin="round" stroke-dasharray="2.5 2.5"/>
<path d="M107.333 133.335V266.668" stroke="white" stroke-width="0.520833" stroke-miterlimit="10"/>
<path d="M124 133.335V266.668" stroke="white" stroke-width="0.520833" stroke-miterlimit="10"/>
<path d="M140.666 133.335V266.668" stroke="white" stroke-width="0.520833" stroke-miterlimit="10"/>
<path d="M157.333 133.335V266.668" stroke="white" stroke-width="0.520833" stroke-miterlimit="10"/>
<path d="M174 133.335V266.668" stroke="white" stroke-width="0.520833" stroke-miterlimit="10"/>
<path d="M190.666 133.335V266.668" stroke="white" stroke-width="0.520833" stroke-miterlimit="10"/>
<path d="M207.333 133.335V266.668" stroke="white" stroke-width="0.520833" stroke-miterlimit="10"/>
<path d="M223.999 150.002L90.6655 150.002" stroke="white" stroke-width="0.520833" stroke-miterlimit="10"/>
<path d="M223.999 166.669L90.6655 166.669" stroke="white" stroke-width="0.520833" stroke-miterlimit="10"/>
<path d="M223.999 183.335L90.6655 183.335" stroke="white" stroke-width="0.520833" stroke-miterlimit="10"/>
<path d="M223.999 200.002L90.6655 200.002" stroke="white" stroke-width="0.520833" stroke-miterlimit="10"/>
<path d="M223.999 216.669L90.6655 216.669" stroke="white" stroke-width="0.520833" stroke-miterlimit="10"/>
<path d="M223.999 233.335L90.6655 233.335" stroke="white" stroke-width="0.520833" stroke-miterlimit="10"/>
<path d="M223.999 250.002L90.6655 250.002" stroke="white" stroke-width="0.520833" stroke-miterlimit="10"/>
<rect x="232.333" y="125" width="116.667" height="150" stroke="white" stroke-width="0.520833"/>
<path d="M232.333 125V275" stroke="white" stroke-width="0.520833" stroke-miterlimit="10"/>
<path d="M248.999 125V275" stroke="white" stroke-width="0.520833" stroke-miterlimit="10"/>
<path d="M265.666 125V275" stroke="white" stroke-width="0.520833" stroke-miterlimit="10"/>
<path d="M282.333 125V275" stroke="white" stroke-width="0.520833" stroke-miterlimit="10"/>
<path d="M298.999 125V275" stroke="white" stroke-width="0.520833" stroke-miterlimit="10"/>
<path d="M315.666 125V275" stroke="white" stroke-width="0.520833" stroke-miterlimit="10"/>
<path d="M332.333 125V275" stroke="white" stroke-width="0.520833" stroke-miterlimit="10"/>
<path d="M348.999 125V275" stroke="white" stroke-width="0.520833" stroke-miterlimit="10"/>
<rect x="215.666" y="141.667" width="150" height="116.667" stroke="white" stroke-width="0.520833"/>
<path d="M365.666 141.667H215.666" stroke="white" stroke-width="0.520833" stroke-miterlimit="10"/>
<path d="M365.666 158.334H215.666" stroke="white" stroke-width="0.520833" stroke-miterlimit="10"/>
<path d="M365.666 175H215.666" stroke="white" stroke-width="0.520833" stroke-miterlimit="10"/>
<path d="M365.666 191.667H215.666" stroke="white" stroke-width="0.520833" stroke-miterlimit="10"/>
<path d="M365.666 208.334H215.666" stroke="white" stroke-width="0.520833" stroke-miterlimit="10"/>
<path d="M365.666 225H215.666" stroke="white" stroke-width="0.520833" stroke-miterlimit="10"/>
<path d="M365.666 241.667H215.666" stroke="white" stroke-width="0.520833" stroke-miterlimit="10"/>
<path d="M365.666 258.334H215.666" stroke="white" stroke-width="0.520833" stroke-miterlimit="10"/>
<rect x="223.999" y="133.333" width="133.333" height="133.333" stroke="white" stroke-width="0.625" stroke-linecap="round" stroke-linejoin="round" stroke-dasharray="2.5 2.5"/>
<path d="M232.33 133.335V266.668" stroke="white" stroke-width="0.625" stroke-linecap="round" stroke-linejoin="round" stroke-dasharray="2.5 2.5"/>
<path d="M240.663 133.335V266.668" stroke="white" stroke-width="0.625" stroke-linecap="round" stroke-linejoin="round" stroke-dasharray="2.5 2.5"/>
<path d="M248.997 133.335V266.668" stroke="white" stroke-width="0.625" stroke-linecap="round" stroke-linejoin="round" stroke-dasharray="2.5 2.5"/>
<path d="M257.33 133.335V266.668" stroke="white" stroke-width="0.625" stroke-linecap="round" stroke-linejoin="round" stroke-dasharray="2.5 2.5"/>
<path d="M265.663 133.335V266.668" stroke="white" stroke-width="0.625" stroke-linecap="round" stroke-linejoin="round" stroke-dasharray="2.5 2.5"/>
<path d="M273.997 133.335V266.668" stroke="white" stroke-width="0.625" stroke-linecap="round" stroke-linejoin="round" stroke-dasharray="2.5 2.5"/>
<path d="M282.33 133.335V266.668" stroke="white" stroke-width="0.625" stroke-linecap="round" stroke-linejoin="round" stroke-dasharray="2.5 2.5"/>
<path d="M290.663 133.335V266.668" stroke="white" stroke-width="0.625" stroke-linecap="round" stroke-linejoin="round" stroke-dasharray="2.5 2.5"/>
<path d="M298.997 133.335V266.668" stroke="white" stroke-width="0.625" stroke-linecap="round" stroke-linejoin="round" stroke-dasharray="2.5 2.5"/>
<path d="M307.33 133.335V266.668" stroke="white" stroke-width="0.625" stroke-linecap="round" stroke-linejoin="round" stroke-dasharray="2.5 2.5"/>
<path d="M315.663 133.335V266.668" stroke="white" stroke-width="0.625" stroke-linecap="round" stroke-linejoin="round" stroke-dasharray="2.5 2.5"/>
<path d="M323.997 133.335V266.668" stroke="white" stroke-width="0.625" stroke-linecap="round" stroke-linejoin="round" stroke-dasharray="2.5 2.5"/>
<path d="M332.33 133.335V266.668" stroke="white" stroke-width="0.625" stroke-linecap="round" stroke-linejoin="round" stroke-dasharray="2.5 2.5"/>
<path d="M340.663 133.335V266.668" stroke="white" stroke-width="0.625" stroke-linecap="round" stroke-linejoin="round" stroke-dasharray="2.5 2.5"/>
<path d="M348.997 133.335V266.668" stroke="white" stroke-width="0.625" stroke-linecap="round" stroke-linejoin="round" stroke-dasharray="2.5 2.5"/>
<path d="M357.33 141.667H223.997" stroke="white" stroke-width="0.625" stroke-linecap="round" stroke-linejoin="round" stroke-dasharray="2.5 2.5"/>
<path d="M357.33 150H223.997" stroke="white" stroke-width="0.625" stroke-linecap="round" stroke-linejoin="round" stroke-dasharray="2.5 2.5"/>
<path d="M357.33 158.334H223.997" stroke="white" stroke-width="0.625" stroke-linecap="round" stroke-linejoin="round" stroke-dasharray="2.5 2.5"/>
<path d="M357.33 166.667H223.997" stroke="white" stroke-width="0.625" stroke-linecap="round" stroke-linejoin="round" stroke-dasharray="2.5 2.5"/>
<path d="M357.33 175H223.997" stroke="white" stroke-width="0.625" stroke-linecap="round" stroke-linejoin="round" stroke-dasharray="2.5 2.5"/>
<path d="M357.33 183.334H223.997" stroke="white" stroke-width="0.625" stroke-linecap="round" stroke-linejoin="round" stroke-dasharray="2.5 2.5"/>
<path d="M357.33 191.667H223.997" stroke="white" stroke-width="0.625" stroke-linecap="round" stroke-linejoin="round" stroke-dasharray="2.5 2.5"/>
<path d="M357.33 200H223.997" stroke="white" stroke-width="0.625" stroke-linecap="round" stroke-linejoin="round" stroke-dasharray="2.5 2.5"/>
<path d="M357.33 208.334H223.997" stroke="white" stroke-width="0.625" stroke-linecap="round" stroke-linejoin="round" stroke-dasharray="2.5 2.5"/>
<path d="M357.33 216.667H223.997" stroke="white" stroke-width="0.625" stroke-linecap="round" stroke-linejoin="round" stroke-dasharray="2.5 2.5"/>
<path d="M357.33 225H223.997" stroke="white" stroke-width="0.625" stroke-linecap="round" stroke-linejoin="round" stroke-dasharray="2.5 2.5"/>
<path d="M357.33 233.334H223.997" stroke="white" stroke-width="0.625" stroke-linecap="round" stroke-linejoin="round" stroke-dasharray="2.5 2.5"/>
<path d="M357.33 241.667H223.997" stroke="white" stroke-width="0.625" stroke-linecap="round" stroke-linejoin="round" stroke-dasharray="2.5 2.5"/>
<path d="M357.33 250H223.997" stroke="white" stroke-width="0.625" stroke-linecap="round" stroke-linejoin="round" stroke-dasharray="2.5 2.5"/>
<path d="M357.33 258.334H223.997" stroke="white" stroke-width="0.625" stroke-linecap="round" stroke-linejoin="round" stroke-dasharray="2.5 2.5"/>
<rect x="223.999" y="133.333" width="133.333" height="133.333" stroke="white" stroke-width="0.625" stroke-linecap="round" stroke-linejoin="round" stroke-dasharray="2.5 2.5"/>
<path d="M240.664 133.335V266.668" stroke="white" stroke-width="0.520833" stroke-miterlimit="10"/>
<path d="M257.331 133.335V266.668" stroke="white" stroke-width="0.520833" stroke-miterlimit="10"/>
<path d="M273.997 133.335V266.668" stroke="white" stroke-width="0.520833" stroke-miterlimit="10"/>
<path d="M290.664 133.335V266.668" stroke="white" stroke-width="0.520833" stroke-miterlimit="10"/>
<path d="M307.331 133.335V266.668" stroke="white" stroke-width="0.520833" stroke-miterlimit="10"/>
<path d="M323.997 133.335V266.668" stroke="white" stroke-width="0.520833" stroke-miterlimit="10"/>
<path d="M340.664 133.335V266.668" stroke="white" stroke-width="0.520833" stroke-miterlimit="10"/>
<path d="M357.33 150.002L223.997 150.002" stroke="white" stroke-width="0.520833" stroke-miterlimit="10"/>
<path d="M357.33 166.669L223.997 166.669" stroke="white" stroke-width="0.520833" stroke-miterlimit="10"/>
<path d="M357.33 183.335L223.997 183.335" stroke="white" stroke-width="0.520833" stroke-miterlimit="10"/>
<path d="M357.33 200.002L223.997 200.002" stroke="white" stroke-width="0.520833" stroke-miterlimit="10"/>
<path d="M357.33 216.669L223.997 216.669" stroke="white" stroke-width="0.520833" stroke-miterlimit="10"/>
<path d="M357.33 233.335L223.997 233.335" stroke="white" stroke-width="0.520833" stroke-miterlimit="10"/>
<path d="M357.33 250.002L223.997 250.002" stroke="white" stroke-width="0.520833" stroke-miterlimit="10"/>
<line x1="24" y1="199.605" x2="91.1875" y2="199.605" stroke="white" stroke-width="0.260417" stroke-dasharray="5.21 2.6"/>
<rect x="44.8854" y="192.443" width="22.8125" height="14.0625" rx="2.34375" fill="white"/>
<rect x="44.8854" y="192.443" width="22.8125" height="14.0625" rx="2.34375" stroke="white" stroke-width="0.520833" stroke-dasharray="5.21 2.6"/>
<line x1="365.669" y1="199.605" x2="423.481" y2="199.605" stroke="white" stroke-width="0.260417" stroke-dasharray="5.21 2.6"/>
<rect x="383.429" y="192.443" width="22.8125" height="14.0625" rx="2.34375" fill="white"/>
<rect x="383.429" y="192.443" width="22.8125" height="14.0625" rx="2.34375" stroke="white" stroke-width="0.520833" stroke-dasharray="5.21 2.6"/>
<line x1="191.057" y1="266.669" x2="191.057" y2="399.481" stroke="white" stroke-width="0.260417" stroke-dasharray="5.21 2.6"/>
<rect x="179.781" y="326.304" width="22.8125" height="14.0625" rx="2.34375" fill="white"/>
<rect x="179.781" y="326.304" width="22.8125" height="14.0625" rx="2.34375" stroke="white" stroke-width="0.520833" stroke-dasharray="5.21 2.6"/>
<line x1="191.057" y1="-5.69159e-09" x2="191.057" y2="132.812" stroke="white" stroke-width="0.260417" stroke-dasharray="5.21 2.6"/>
<rect x="179.781" y="59.6354" width="22.8125" height="14.0625" rx="2.34375" fill="white"/>
<rect x="179.781" y="59.6354" width="22.8125" height="14.0625" rx="2.34375" stroke="white" stroke-width="0.520833" stroke-dasharray="5.21 2.6"/>
<circle cx="224.001" cy="199.998" r="66.4063" fill="white" fill-opacity="0.1" stroke="white" stroke-width="0.520833" stroke-dasharray="5.21 2.6"/>
<circle cx="224.001" cy="199.997" r="49.7396" fill="white" fill-opacity="0.1" stroke="white" stroke-width="0.520833" stroke-dasharray="5.21 2.6"/>
<circle cx="224.002" cy="199.998" r="33.0729" fill="white" fill-opacity="0.1" stroke="white" stroke-width="0.520833" stroke-dasharray="5.21 2.6"/>
<circle cx="224.001" cy="199.998" r="16.4063" fill="white" fill-opacity="0.1" stroke="white" stroke-width="0.520833" stroke-dasharray="5.21 2.6"/>
<circle cx="290.667" cy="199.998" r="66.4063" fill="white" fill-opacity="0.1" stroke="white" stroke-width="0.520833" stroke-dasharray="5.21 2.6"/>
<circle cx="290.666" cy="199.997" r="49.7396" fill="white" fill-opacity="0.1" stroke="white" stroke-width="0.520833" stroke-dasharray="5.21 2.6"/>
<circle cx="290.668" cy="199.998" r="33.0729" fill="white" fill-opacity="0.1" stroke="white" stroke-width="0.520833" stroke-dasharray="5.21 2.6"/>
<circle cx="290.667" cy="199.998" r="16.4063" fill="white" fill-opacity="0.1" stroke="white" stroke-width="0.520833" stroke-dasharray="5.21 2.6"/>
<circle cx="157.332" cy="199.998" r="33.0729" fill="white" fill-opacity="0.1" stroke="white" stroke-width="0.520833" stroke-dasharray="5.21 2.6"/>
<circle cx="157.332" cy="199.998" r="16.4063" fill="white" fill-opacity="0.1" stroke="white" stroke-width="0.520833" stroke-dasharray="5.21 2.6"/>
<circle cx="157.333" cy="199.997" r="49.7396" fill="white" fill-opacity="0.1" stroke="white" stroke-width="0.520833" stroke-dasharray="5.21 2.6"/>
<circle cx="157.332" cy="199.998" r="66.4063" fill="white" fill-opacity="0.1" stroke="white" stroke-width="0.520833" stroke-dasharray="5.21 2.6"/>
<path d="M257.456 142.217L257.954 143.084L257.958 143.082L257.456 142.217ZM257.552 142.224L256.937 143.012L256.937 143.012L257.552 142.224ZM258.077 142.633L257.462 143.421L257.511 143.46L257.564 143.492L258.077 142.633ZM271.224 152.902L270.515 153.607L270.56 153.652L270.609 153.691L271.224 152.902ZM272.023 153.525L272.641 152.739L272.638 152.737L272.023 153.525ZM272.01 153.609L271.64 152.681L271.636 152.682L272.01 153.609ZM271.994 153.688L271.273 154.382L271.273 154.382L271.994 153.688ZM277.09 159.647L277.886 159.043L277.886 159.043L277.09 159.647ZM287.957 181.174L286.997 181.456L286.997 181.456L287.957 181.174ZM290.861 183.365L290.854 182.365L290.854 182.365L290.861 183.365ZM338.15 183.268L338.149 182.268L338.149 182.268L338.15 183.268ZM340.727 185.788L341.727 185.761L341.727 185.761L340.727 185.788ZM327.918 233.266L327.194 232.575L327.175 232.596L327.157 232.617L327.918 233.266ZM259.236 238.896L258.595 239.664L258.595 239.664L259.236 238.896ZM255.59 238.896L256.231 239.664L256.231 239.664L255.59 238.896ZM224.081 249.791L224.086 248.791L224.076 248.791L224.081 249.791ZM192.573 238.896L193.214 238.129L193.214 238.129L192.573 238.896ZM188.927 238.896L189.567 239.664L189.567 239.664L188.927 238.896ZM120.245 233.266L121.006 232.617L120.988 232.596L120.969 232.575L120.245 233.266ZM107.435 185.788L106.436 185.761L106.436 185.761L107.435 185.788ZM110.013 183.268L110.014 182.268L110.013 183.268ZM157.302 183.365L157.308 182.365L157.308 182.365L157.302 183.365ZM160.207 181.174L161.166 181.456L161.166 181.456L160.207 181.174ZM171.073 159.647L170.276 159.043L170.276 159.043L171.073 159.647ZM176.169 153.688L175.448 152.995L175.448 152.995L176.169 153.688ZM176.152 153.609L175.78 154.537L175.781 154.538L176.152 153.609ZM176.14 153.525L175.525 152.737L175.525 152.737L176.14 153.525ZM176.938 152.902L177.554 153.69L177.603 153.652L177.647 153.607L176.938 152.902ZM190.087 142.633L190.599 143.492L190.653 143.459L190.703 143.421L190.087 142.633ZM190.61 142.224L189.995 141.436L189.994 141.436L190.61 142.224ZM190.707 142.217L190.205 143.082L190.206 143.082L190.707 142.217ZM190.794 142.217L190.293 141.351L190.292 141.352L190.794 142.217ZM190.889 142.224L190.274 143.012L190.274 143.012L190.889 142.224ZM191.414 142.633L190.799 143.421L190.848 143.46L190.901 143.492L191.414 142.633ZM204.562 152.902L203.853 153.607L203.897 153.652L203.947 153.69L204.562 152.902ZM205.36 153.525L205.976 152.737L205.976 152.737L205.36 153.525ZM205.348 153.609L205.719 154.538L205.723 154.536L205.348 153.609ZM205.331 153.688L204.605 154.377L204.61 154.382L205.331 153.688ZM210.427 159.647L209.631 160.252L209.631 160.252L210.427 159.647ZM221.294 181.174L220.334 181.456L220.334 181.456L221.294 181.174ZM224.081 183.36L224.045 184.36L224.081 184.361L224.116 184.36L224.081 183.36ZM226.869 181.174L227.828 181.456L227.828 181.456L226.869 181.174ZM237.736 159.647L236.939 159.043L236.939 159.043L237.736 159.647ZM242.832 153.688L243.552 154.382L243.554 154.38L242.832 153.688ZM242.815 153.609L243.193 152.683L243.186 152.681L242.815 153.609ZM242.802 153.525L242.187 152.737L242.187 152.738L242.802 153.525ZM243.601 152.902L244.216 153.691L244.266 153.652L244.31 153.607L243.601 152.902ZM256.749 142.633L257.261 143.492L257.315 143.46L257.364 143.421L256.749 142.633ZM257.273 142.224L257.888 143.012L257.889 143.012L257.273 142.224ZM257.37 142.217L256.868 143.082L256.873 143.085L257.37 142.217ZM174.111 197.978L175.11 197.937L173.153 197.692L174.111 197.978ZM171.552 199.933L171.552 200.933L171.552 200.933L171.552 199.933ZM126.793 199.933L126.793 198.933L126.793 198.933L126.793 199.933ZM124.28 202.554L123.283 202.628L123.283 202.628L124.28 202.554ZM180.359 224.293L181.05 225.016L181.603 224.487L181.238 223.816L180.359 224.293ZM274.052 197.979L275.01 197.692L273.052 197.938L274.052 197.979ZM267.802 224.293L266.924 223.816L266.559 224.487L267.111 225.016L267.802 224.293ZM323.883 202.554L324.88 202.628L324.88 202.628L323.883 202.554ZM276.611 199.933L276.611 200.933H276.611V199.933ZM190.943 202.554L189.946 202.628L189.946 202.628L190.943 202.554ZM224.067 233.155L224.051 234.155L224.059 234.155H224.067V233.155ZM224.096 233.155V234.155H224.105L224.113 234.155L224.096 233.155ZM257.22 202.554L258.218 202.628L258.218 202.628L257.22 202.554ZM254.708 199.933L254.708 198.933H254.708V199.933ZM192.46 164.374L193.165 163.665L193.165 163.665L192.46 164.374ZM189.041 164.374L188.336 163.665L188.336 163.665L189.041 164.374ZM177.027 183.268L176.085 182.931L175.608 184.266L177.026 184.268L177.027 183.268ZM204.486 183.306L204.484 184.306L205.905 184.308L205.428 182.97L204.486 183.306ZM259.123 164.374L259.828 163.665L259.828 163.665L259.123 164.374ZM255.703 164.374L254.998 163.665L254.998 163.665L255.703 164.374ZM243.677 183.306L242.735 182.97L242.257 184.308L243.678 184.306L243.677 183.306ZM271.135 183.268L271.135 184.268L272.554 184.266L272.076 182.931L271.135 183.268ZM257.456 142.217L257.958 143.082C257.631 143.271 257.228 143.239 256.937 143.012L257.552 142.224L258.168 141.436C257.822 141.165 257.341 141.127 256.954 141.352L257.456 142.217ZM257.552 142.224L256.937 143.012L257.462 143.421L258.077 142.633L258.692 141.844L258.168 141.435L257.552 142.224ZM258.077 142.633L257.564 143.492C262.296 146.315 266.645 149.715 270.515 153.607L271.224 152.902L271.933 152.197C267.946 148.187 263.464 144.683 258.589 141.774L258.077 142.633ZM271.224 152.902L270.609 153.691L271.408 154.314L272.023 153.525L272.638 152.737L271.839 152.114L271.224 152.902ZM272.023 153.525L271.405 154.312C270.811 153.845 270.981 152.944 271.64 152.681L272.01 153.609L272.381 154.538C273.11 154.247 273.295 153.253 272.641 152.739L272.023 153.525ZM272.01 153.609L271.636 152.682C270.938 152.964 270.766 153.854 271.273 154.382L271.994 153.688L272.715 152.995C273.174 153.473 273.019 154.28 272.385 154.536L272.01 153.609ZM271.994 153.688L271.273 154.382C273.056 156.235 274.733 158.194 276.293 160.252L277.09 159.647L277.886 159.043C276.279 156.923 274.552 154.904 272.714 152.995L271.994 153.688ZM277.09 159.647L276.293 160.252C281.12 166.618 284.746 173.804 286.997 181.456L287.957 181.174L288.916 180.892C286.596 173.007 282.86 165.602 277.886 159.043L277.09 159.647ZM287.957 181.174L286.997 181.456C287.49 183.129 289.088 184.377 290.868 184.365L290.861 183.365L290.854 182.365C290.002 182.371 289.167 181.743 288.916 180.891L287.957 181.174ZM290.861 183.365L290.868 184.365C299.406 184.308 329.277 184.276 338.151 184.268L338.15 183.268L338.149 182.268C329.279 182.276 299.4 182.308 290.854 182.365L290.861 183.365ZM338.15 183.268L338.151 184.268C339.008 184.267 339.704 184.944 339.728 185.815L340.727 185.788L341.727 185.761C341.674 183.821 340.105 182.266 338.149 182.268L338.15 183.268ZM340.727 185.788L339.728 185.815C340.191 203.012 339.454 219.72 327.194 232.575L327.918 233.266L328.641 233.956C341.526 220.445 342.19 202.937 341.727 185.761L340.727 185.788ZM327.918 233.266L327.157 232.617C310.756 251.854 279.176 254.245 259.877 238.129L259.236 238.896L258.595 239.664C278.722 256.471 311.555 253.999 328.679 233.914L327.918 233.266ZM259.236 238.896L259.877 238.129C258.455 236.941 256.371 236.941 254.949 238.129L255.59 238.896L256.231 239.664C256.911 239.096 257.915 239.096 258.595 239.664L259.236 238.896ZM255.59 238.896L254.949 238.129C246.318 245.336 235.214 248.85 224.086 248.791L224.081 249.791L224.075 250.791C235.619 250.852 247.196 247.208 256.231 239.664L255.59 238.896ZM224.081 249.791L224.076 248.791C212.948 248.85 201.844 245.336 193.214 238.129L192.573 238.896L191.932 239.664C200.966 247.208 212.543 250.852 224.086 250.791L224.081 249.791ZM192.573 238.896L193.214 238.129C191.792 236.941 189.708 236.941 188.286 238.129L188.927 238.896L189.567 239.664C190.247 239.096 191.252 239.096 191.932 239.664L192.573 238.896ZM188.927 238.896L188.286 238.129C168.986 254.245 137.407 251.854 121.006 232.617L120.245 233.266L119.484 233.914C136.608 253.999 169.441 256.471 189.567 239.664L188.927 238.896ZM120.245 233.266L120.969 232.575C108.709 219.72 107.972 203.012 108.435 185.815L107.435 185.788L106.436 185.761C105.973 202.937 106.636 220.445 119.521 233.956L120.245 233.266ZM107.435 185.788L108.435 185.815C108.459 184.944 109.155 184.267 110.012 184.268L110.013 183.268L110.014 182.268C108.059 182.266 106.488 183.82 106.436 185.761L107.435 185.788ZM110.013 183.268L110.012 184.268C118.887 184.276 148.756 184.308 157.295 184.365L157.302 183.365L157.308 182.365C148.762 182.308 118.885 182.276 110.014 182.268L110.013 183.268ZM157.302 183.365L157.295 184.365C159.074 184.377 160.674 183.13 161.166 181.456L160.207 181.174L159.247 180.891C158.997 181.743 158.161 182.371 157.308 182.365L157.302 183.365ZM160.207 181.174L161.166 181.456C163.418 173.804 167.042 166.617 171.87 160.252L171.073 159.647L170.276 159.043C165.302 165.602 161.568 173.007 159.247 180.892L160.207 181.174ZM171.073 159.647L171.87 160.252C173.43 158.194 175.106 156.235 176.889 154.382L176.169 153.688L175.448 152.995C173.611 154.904 171.884 156.923 170.276 159.043L171.073 159.647ZM176.169 153.688L176.889 154.382C177.394 153.858 177.23 152.963 176.523 152.681L176.152 153.609L175.781 154.538C175.138 154.281 174.992 153.469 175.448 152.995L176.169 153.688ZM176.152 153.609L176.524 152.681C177.211 152.957 177.328 153.866 176.756 154.313L176.14 153.525L175.525 152.737C174.893 153.231 175.023 154.234 175.78 154.537L176.152 153.609ZM176.14 153.525L176.756 154.314L177.554 153.69L176.938 152.902L176.323 152.114L175.525 152.737L176.14 153.525ZM176.938 152.902L177.647 153.607C181.518 149.715 185.868 146.315 190.599 143.492L190.087 142.633L189.574 141.774C184.699 144.683 180.217 148.187 176.229 152.197L176.938 152.902ZM190.087 142.633L190.703 143.421L191.226 143.011L190.61 142.224L189.994 141.436L189.471 141.845L190.087 142.633ZM190.61 142.224L191.226 143.012C190.935 143.239 190.532 143.271 190.205 143.082L190.707 142.217L191.209 141.352C190.821 141.127 190.341 141.165 189.995 141.436L190.61 142.224ZM190.707 142.217L190.206 143.082C190.542 143.277 190.958 143.278 191.296 143.082L190.794 142.217L190.292 141.352C190.576 141.187 190.925 141.188 191.208 141.351L190.707 142.217ZM190.794 142.217L191.295 143.082C190.967 143.272 190.564 143.238 190.274 143.012L190.889 142.224L191.505 141.435C191.16 141.166 190.681 141.127 190.293 141.351L190.794 142.217ZM190.889 142.224L190.274 143.012L190.799 143.421L191.414 142.633L192.029 141.844L191.505 141.435L190.889 142.224ZM191.414 142.633L190.901 143.492C195.633 146.315 199.983 149.715 203.853 153.607L204.562 152.902L205.271 152.197C201.283 148.187 196.801 144.683 191.926 141.774L191.414 142.633ZM204.562 152.902L203.947 153.69L204.745 154.314L205.36 153.525L205.976 152.737L205.178 152.114L204.562 152.902ZM205.36 153.525L204.745 154.313C204.169 153.864 204.294 152.957 204.973 152.682L205.348 153.609L205.723 154.536C206.473 154.233 206.611 153.233 205.976 152.737L205.36 153.525ZM205.348 153.609L204.978 152.681C204.296 152.953 204.09 153.833 204.605 154.377L205.331 153.688L206.056 153C206.524 153.494 206.337 154.292 205.719 154.538L205.348 153.609ZM205.331 153.688L204.61 154.382C206.393 156.235 208.071 158.194 209.631 160.252L210.427 159.647L211.224 159.043C209.617 156.923 207.888 154.904 206.051 152.995L205.331 153.688ZM210.427 159.647L209.631 160.252C214.458 166.617 218.083 173.804 220.334 181.456L221.294 181.174L222.253 180.892C219.933 173.007 216.198 165.602 211.224 159.043L210.427 159.647ZM221.294 181.174L220.334 181.456C220.813 183.084 222.334 184.298 224.045 184.36L224.081 183.36L224.117 182.361C223.287 182.331 222.495 181.713 222.253 180.891L221.294 181.174ZM224.081 183.36L224.116 184.36C225.828 184.299 227.349 183.084 227.828 181.456L226.869 181.174L225.91 180.891C225.668 181.714 224.875 182.331 224.045 182.361L224.081 183.36ZM226.869 181.174L227.828 181.456C230.08 173.804 233.705 166.618 238.533 160.252L237.736 159.647L236.939 159.043C231.965 165.602 228.23 173.007 225.91 180.892L226.869 181.174ZM237.736 159.647L238.533 160.252C240.093 158.194 241.769 156.235 243.552 154.382L242.832 153.688L242.111 152.995C240.274 154.904 238.547 156.923 236.939 159.043L237.736 159.647ZM242.832 153.688L243.554 154.38C244.06 153.852 243.887 152.966 243.193 152.683L242.815 153.609L242.438 154.535C241.807 154.278 241.652 153.475 242.109 152.997L242.832 153.688ZM242.815 153.609L243.186 152.681C243.841 152.942 244.019 153.844 243.418 154.313L242.802 153.525L242.187 152.738C241.527 153.253 241.719 154.248 242.444 154.538L242.815 153.609ZM242.802 153.525L243.417 154.314L244.216 153.691L243.601 152.902L242.986 152.114L242.187 152.737L242.802 153.525ZM243.601 152.902L244.31 153.607C248.181 149.715 252.53 146.315 257.261 143.492L256.749 142.633L256.236 141.774C251.361 144.683 246.88 148.187 242.892 152.197L243.601 152.902ZM256.749 142.633L257.364 143.421L257.888 143.012L257.273 142.224L256.658 141.435L256.134 141.844L256.749 142.633ZM257.273 142.224L257.889 143.012C257.598 143.239 257.195 143.271 256.868 143.082L257.37 142.217L257.872 141.352C257.484 141.127 257.004 141.165 256.658 141.436L257.273 142.224ZM257.37 142.217L256.873 143.085C257.206 143.275 257.618 143.277 257.954 143.084L257.456 142.217L256.957 141.35C257.241 141.187 257.587 141.189 257.867 141.349L257.37 142.217ZM174.111 197.978L173.153 197.692C172.934 198.426 172.287 198.933 171.551 198.933L171.552 199.933L171.552 200.933C173.245 200.933 174.619 199.773 175.069 198.263L174.111 197.978ZM171.552 199.933V198.933H126.793V199.933V200.933H171.552V199.933ZM126.793 199.933L126.793 198.933C124.812 198.933 123.129 200.567 123.283 202.628L124.28 202.554L125.277 202.479C125.216 201.664 125.888 200.933 126.793 200.933L126.793 199.933ZM124.28 202.554L123.283 202.628C125.486 232.081 161.285 243.912 181.05 225.016L180.359 224.293L179.668 223.57C161.054 241.367 127.347 230.15 125.277 202.479L124.28 202.554ZM180.359 224.293L181.238 223.816C176.968 215.956 175.488 207.147 175.11 197.937L174.111 197.978L173.112 198.019C173.496 207.371 175.003 216.528 179.48 224.77L180.359 224.293ZM274.052 197.979L273.052 197.938C272.674 207.147 271.194 215.956 266.924 223.816L267.802 224.293L268.681 224.77C273.159 216.528 274.667 207.372 275.051 198.02L274.052 197.979ZM267.802 224.293L267.111 225.016C286.876 243.913 322.677 232.081 324.88 202.628L323.883 202.554L322.885 202.479C320.815 230.15 287.107 241.367 268.494 223.57L267.802 224.293ZM323.883 202.554L324.88 202.628C325.034 200.567 323.35 198.933 321.37 198.933V199.933V200.933C322.275 200.933 322.946 201.663 322.885 202.479L323.883 202.554ZM321.37 199.933V198.933H276.611V199.933V200.933H321.37V199.933ZM276.611 199.933L276.611 198.933C275.876 198.932 275.229 198.426 275.01 197.692L274.052 197.979L273.093 198.265C273.544 199.773 274.918 200.932 276.611 200.933L276.611 199.933ZM193.456 199.933V198.933C191.475 198.933 189.792 200.567 189.946 202.628L190.943 202.554L191.94 202.479C191.879 201.663 192.551 200.933 193.456 200.933V199.933ZM190.943 202.554L189.946 202.628C191.404 222.122 207.601 233.885 224.051 234.155L224.067 233.155L224.084 232.155C208.5 231.899 193.309 220.782 191.94 202.479L190.943 202.554ZM224.067 233.155V234.155H224.096V233.155V232.155H224.067V233.155ZM224.096 233.155L224.113 234.155C240.562 233.885 256.76 222.121 258.218 202.628L257.22 202.554L256.223 202.479C254.854 220.782 239.663 231.899 224.08 232.155L224.096 233.155ZM257.22 202.554L258.218 202.628C258.372 200.567 256.688 198.933 254.708 198.933L254.708 199.933L254.708 200.933C255.613 200.933 256.284 201.664 256.223 202.479L257.22 202.554ZM254.708 199.933V198.933H193.456V199.933V200.933H254.708V199.933ZM192.46 164.374L193.165 163.665C191.826 162.334 189.675 162.334 188.336 163.665L189.041 164.374L189.746 165.083C190.305 164.528 191.196 164.528 191.755 165.083L192.46 164.374ZM189.041 164.374L188.336 163.665C182.891 169.076 178.674 175.689 176.085 182.931L177.027 183.268L177.969 183.604C180.457 176.644 184.511 170.286 189.746 165.083L189.041 164.374ZM177.027 183.268L177.026 184.268C182.267 184.273 193.862 184.286 204.484 184.306L204.486 183.306L204.488 182.306C193.865 182.286 182.269 182.273 177.028 182.268L177.027 183.268ZM204.486 183.306L205.428 182.97C202.84 175.712 198.619 169.085 193.165 163.665L192.46 164.374L191.755 165.083C196.999 170.295 201.057 176.667 203.544 183.642L204.486 183.306ZM259.123 164.374L259.828 163.665C258.489 162.334 256.337 162.334 254.998 163.665L255.703 164.374L256.408 165.083C256.967 164.528 257.859 164.528 258.418 165.083L259.123 164.374ZM255.703 164.374L254.998 163.665C249.544 169.085 245.322 175.712 242.735 182.97L243.677 183.306L244.618 183.642C247.105 176.667 251.164 170.295 256.408 165.083L255.703 164.374ZM243.677 183.306L243.678 184.306C254.299 184.286 265.894 184.273 271.135 184.268L271.135 183.268L271.134 182.268C265.892 182.273 254.297 182.286 243.675 182.306L243.677 183.306ZM271.135 183.268L272.076 182.931C269.487 175.689 265.272 169.076 259.828 163.665L259.123 164.374L258.418 165.083C263.652 170.285 267.705 176.645 270.193 183.604L271.135 183.268Z" fill="white"/>
</g>
<defs>
<clipPath id="clip0_687_67117">
<rect width="448" height="400" rx="4" fill="white"/>
</clipPath>
</defs>
</svg>
