<svg width="448" height="400" viewBox="0 0 448 400" fill="none" xmlns="http://www.w3.org/2000/svg">
<path d="M349.536 128.063L222.318 54.9805L95.1002 128.063L95.1001 271.522L222.318 344.605L349.536 271.522L349.536 128.063Z" stroke="white" stroke-width="1.875" stroke-linecap="round" stroke-linejoin="round"/>
<path d="M222.319 54.9805L349.537 271.522H95.1006L222.319 54.9805Z" stroke="white" stroke-width="1.875" stroke-linecap="round" stroke-linejoin="round"/>
<path d="M222.319 344.604L349.537 128.063H95.1006L222.319 344.604Z" stroke="white" stroke-width="1.875" stroke-linecap="round" stroke-linejoin="round"/>
<circle cx="222.317" cy="54.6421" r="35.188" stroke="white" stroke-width="1.875" stroke-linecap="round" stroke-linejoin="round"/>
<circle cx="222.317" cy="344.266" r="35.188" stroke="white" stroke-width="1.875" stroke-linecap="round" stroke-linejoin="round"/>
<circle cx="349.538" cy="271.521" r="35.188" stroke="white" stroke-width="1.875" stroke-linecap="round" stroke-linejoin="round"/>
<circle cx="349.538" cy="127.725" r="35.188" stroke="white" stroke-width="1.875" stroke-linecap="round" stroke-linejoin="round"/>
<circle cx="97.8052" cy="127.724" r="35.188" stroke="white" stroke-width="1.875" stroke-linecap="round" stroke-linejoin="round"/>
<circle cx="97.8052" cy="271.521" r="35.188" stroke="white" stroke-width="1.875" stroke-linecap="round" stroke-linejoin="round"/>
<circle cx="286.597" cy="163.928" r="35.8647" stroke="white" stroke-width="1.875" stroke-linecap="round" stroke-linejoin="round"/>
<circle cx="286.597" cy="235.658" r="35.8647" stroke="white" stroke-width="1.875" stroke-linecap="round" stroke-linejoin="round"/>
<circle cx="158.028" cy="163.928" r="35.8647" stroke="white" stroke-width="1.875" stroke-linecap="round" stroke-linejoin="round"/>
<circle cx="158.028" cy="235.658" r="35.8647" stroke="white" stroke-width="1.875" stroke-linecap="round" stroke-linejoin="round"/>
<circle cx="222.315" cy="126.372" r="36.5414" stroke="white" stroke-width="1.875" stroke-linecap="round" stroke-linejoin="round"/>
<circle cx="222.315" cy="199.455" r="36.5414" stroke="white" stroke-width="1.875" stroke-linecap="round" stroke-linejoin="round"/>
<circle cx="222.315" cy="272.536" r="36.5414" stroke="white" stroke-width="1.875" stroke-linecap="round" stroke-linejoin="round"/>
<path d="M95.1006 128.063L349.537 271.522" stroke="white" stroke-width="1.875"/>
<path d="M95.1006 271.521L349.537 127.724" stroke="white" stroke-width="1.875"/>
<path d="M222.315 344.266L222.315 54.9796" stroke="white" stroke-width="1.875"/>
<path d="M136.708 199.453H307.911" stroke="white" stroke-width="1.875"/>
<path d="M265.631 271.521L179.014 128.063" stroke="white" stroke-width="1.875"/>
<path d="M179.006 271.521L265.622 128.063" stroke="white" stroke-width="1.875"/>
</svg>
