<svg width="448" height="400" viewBox="0 0 448 400" fill="none" xmlns="http://www.w3.org/2000/svg">
<path opacity="0.2" d="M153.018 168.893L412.412 298.264H153.018V168.893Z" fill="#C98060"/>
<path d="M153.018 137.57V297.582H411.729" stroke="#C98060" stroke-width="1.84332"/>
<path d="M151.921 297.575C131.874 297.354 112.154 292.487 94.3162 283.36C76.4784 274.233 61.0115 261.095 49.1362 244.984C37.261 228.872 29.3025 210.228 25.889 190.523C22.4754 170.817 23.7002 150.59 29.4667 131.438C35.2332 112.286 45.3835 94.7327 59.1165 80.1641" stroke="#C98060" stroke-width="1.84332"/>
<path d="M24 104.546L411.726 297.922" stroke="#C98060" stroke-width="1.84332"/>
<path d="M110.744 297.575L411.725 297.575" stroke="#C98060" stroke-width="1.84332"/>
<path d="M142.362 358.768C128.601 298.314 136.341 232.771 169.058 174.402C201.659 116.24 253.332 75.4226 311.911 55.3809C325.672 115.834 317.932 181.378 285.215 239.747C252.614 297.909 200.941 338.726 142.362 358.768Z" stroke="#C98060" stroke-width="1.84332"/>
<path d="M329.14 23.041L130.761 376.958" stroke="#C98060" stroke-width="1.84332"/>
<path d="M411.731 297.922L226.967 205.771" stroke="#C98060" stroke-width="1.84332"/>
<path d="M415.281 291.44L408.182 303.706" stroke="#C98060" stroke-width="1.84332"/>
<path d="M230.689 199.638L223.59 211.904" stroke="#C98060" stroke-width="1.84332"/>
<path d="M170.312 227.513V248.963H167.715V230.236H167.589L162.352 233.714V231.074L167.715 227.513H170.312Z" fill="#C98060"/>
<path d="M251.177 331.912V330.027L258.257 322.277C259.087 321.369 259.772 320.58 260.309 319.91C260.847 319.232 261.245 318.597 261.503 318.003C261.769 317.403 261.901 316.775 261.901 316.118C261.901 315.364 261.72 314.711 261.357 314.16C261.001 313.608 260.512 313.182 259.89 312.882C259.269 312.582 258.571 312.432 257.796 312.432C256.972 312.432 256.253 312.603 255.638 312.945C255.031 313.28 254.559 313.751 254.224 314.359C253.896 314.966 253.732 315.678 253.732 316.495H251.26C251.26 315.238 251.55 314.135 252.13 313.186C252.709 312.236 253.498 311.496 254.497 310.965C255.502 310.435 256.63 310.169 257.88 310.169C259.136 310.169 260.25 310.435 261.221 310.965C262.191 311.496 262.952 312.212 263.504 313.112C264.055 314.013 264.331 315.015 264.331 316.118C264.331 316.907 264.188 317.679 263.902 318.433C263.622 319.18 263.134 320.014 262.435 320.936C261.744 321.851 260.784 322.968 259.555 324.287L254.738 329.44V329.608H264.708V331.912H251.177Z" fill="#C98060"/>
<path d="M136.268 331.912H133.545L141.421 310.463H144.102L151.978 331.912H149.255L142.845 313.856H142.677L136.268 331.912ZM137.273 323.533H148.249V325.838H137.273V323.533Z" fill="#C98060"/>
<path d="M135.762 193.663V172.214H143.261C144.755 172.214 145.988 172.472 146.958 172.989C147.929 173.498 148.652 174.186 149.126 175.052C149.601 175.911 149.838 176.864 149.838 177.911C149.838 178.833 149.674 179.594 149.346 180.194C149.025 180.795 148.599 181.27 148.068 181.619C147.545 181.968 146.976 182.226 146.361 182.394V182.603C147.018 182.645 147.677 182.875 148.341 183.294C149.004 183.713 149.559 184.314 150.006 185.096C150.453 185.878 150.676 186.834 150.676 187.966C150.676 189.041 150.432 190.008 149.943 190.867C149.454 191.726 148.683 192.406 147.629 192.909C146.574 193.412 145.202 193.663 143.513 193.663H135.762ZM138.36 191.359H143.513C145.209 191.359 146.414 191.031 147.126 190.374C147.845 189.711 148.205 188.908 148.205 187.966C148.205 187.239 148.02 186.569 147.65 185.955C147.279 185.333 146.752 184.838 146.068 184.467C145.384 184.09 144.574 183.902 143.638 183.902H138.36V191.359ZM138.36 181.64H143.177C143.959 181.64 144.665 181.486 145.293 181.179C145.928 180.872 146.431 180.439 146.801 179.88C147.178 179.322 147.367 178.665 147.367 177.911C147.367 176.968 147.039 176.169 146.382 175.513C145.726 174.849 144.686 174.518 143.261 174.518H138.36V181.64Z" fill="#C98060"/>
<path d="M423.853 317.166H421.255C421.101 316.418 420.833 315.762 420.449 315.197C420.072 314.631 419.611 314.156 419.066 313.772C418.529 313.381 417.932 313.088 417.275 312.892C416.619 312.697 415.935 312.599 415.222 312.599C413.924 312.599 412.747 312.927 411.693 313.584C410.646 314.24 409.811 315.207 409.19 316.485C408.575 317.763 408.268 319.33 408.268 321.187C408.268 323.045 408.575 324.612 409.19 325.89C409.811 327.168 410.646 328.135 411.693 328.791C412.747 329.447 413.924 329.776 415.222 329.776C415.935 329.776 416.619 329.678 417.275 329.482C417.932 329.287 418.529 328.997 419.066 328.613C419.611 328.222 420.072 327.744 420.449 327.178C420.833 326.606 421.101 325.949 421.255 325.209H423.853C423.657 326.305 423.301 327.286 422.784 328.152C422.268 329.018 421.625 329.755 420.857 330.362C420.089 330.963 419.227 331.42 418.27 331.734C417.321 332.048 416.305 332.205 415.222 332.205C413.393 332.205 411.766 331.758 410.342 330.865C408.917 329.971 407.797 328.7 406.98 327.052C406.163 325.405 405.754 323.45 405.754 321.187C405.754 318.925 406.163 316.97 406.98 315.322C407.797 313.674 408.917 312.404 410.342 311.51C411.766 310.616 413.393 310.169 415.222 310.169C416.305 310.169 417.321 310.326 418.27 310.641C419.227 310.955 420.089 311.416 420.857 312.023C421.625 312.624 422.268 313.357 422.784 314.223C423.301 315.081 423.657 316.062 423.853 317.166Z" fill="#C98060"/>
<path d="M347.004 254.996V235.976C347.004 234.824 347.308 233.986 347.915 233.462C348.523 232.932 349.392 232.666 350.523 232.666C351.836 232.666 353.03 233.022 354.105 233.735C355.187 234.44 356.046 235.407 356.681 236.636C357.324 237.858 357.645 239.244 357.645 240.794C357.645 241.904 357.474 242.965 357.132 243.978C356.79 244.99 356.249 245.894 355.508 246.69C354.768 247.486 353.798 248.115 352.597 248.575C351.396 249.029 349.937 249.256 348.219 249.256C346.543 249.256 345.122 249.026 343.956 248.565C342.797 248.097 341.858 247.458 341.139 246.648C340.42 245.838 339.896 244.903 339.568 243.841C339.247 242.78 339.086 241.652 339.086 240.458C339.086 239.355 339.219 238.318 339.484 237.348C339.756 236.37 340.161 235.487 340.699 234.698C341.244 233.902 341.921 233.225 342.731 232.666L344.197 234.551C343.639 235.054 343.167 235.599 342.783 236.185C342.406 236.772 342.113 237.418 341.903 238.123C341.701 238.828 341.586 239.607 341.558 240.458C341.558 241.562 341.785 242.609 342.239 243.601C342.699 244.592 343.419 245.398 344.396 246.02C345.381 246.641 346.655 246.952 348.219 246.952C349.839 246.952 351.158 246.652 352.178 246.051C353.204 245.451 353.958 244.679 354.44 243.737C354.929 242.794 355.173 241.813 355.173 240.794C355.145 239.732 354.943 238.755 354.566 237.861C354.189 236.96 353.658 236.241 352.974 235.704C352.29 235.159 351.473 234.887 350.523 234.887C350.167 234.887 349.902 234.988 349.727 235.19C349.56 235.386 349.476 235.62 349.476 235.892V254.996H347.004Z" fill="#C98060"/>
</svg>
