<svg width="448" height="400" viewBox="0 0 448 400" fill="none" xmlns="http://www.w3.org/2000/svg">
<circle cx="86.2955" cy="63.3521" r="35.1031" stroke="white" stroke-width="1.875"/>
<rect x="86.2969" y="63.3525" width="35.1031" height="35.1031" fill="white" fill-opacity="0.2" stroke="white" stroke-width="1.875"/>
<path d="M121.402 63.3525L86.299 98.4556" stroke="white" stroke-width="1.875"/>
<path d="M86.2969 28.249L86.2969 98.4552" stroke="white" stroke-width="1.875" stroke-dasharray="0.35 1.4"/>
<path d="M121.402 63.3525L51.1959 63.3525" stroke="white" stroke-width="1.875" stroke-dasharray="0.35 1.4"/>
<path d="M109.585 107.529C109.567 107.378 109.494 107.26 109.366 107.176C109.239 107.093 109.082 107.051 108.897 107.051C108.761 107.051 108.642 107.073 108.541 107.117C108.44 107.161 108.361 107.221 108.304 107.298C108.248 107.374 108.22 107.462 108.22 107.559C108.22 107.641 108.24 107.711 108.279 107.77C108.319 107.828 108.37 107.877 108.431 107.915C108.493 107.953 108.558 107.985 108.626 108.01C108.694 108.034 108.756 108.053 108.813 108.068L109.124 108.152C109.204 108.173 109.292 108.202 109.39 108.239C109.489 108.275 109.583 108.326 109.673 108.39C109.764 108.452 109.838 108.533 109.897 108.632C109.956 108.731 109.986 108.852 109.986 108.995C109.986 109.161 109.942 109.311 109.855 109.444C109.77 109.578 109.644 109.684 109.478 109.763C109.314 109.842 109.114 109.881 108.879 109.881C108.659 109.881 108.469 109.846 108.309 109.775C108.149 109.704 108.023 109.605 107.932 109.479C107.841 109.352 107.79 109.205 107.778 109.037H108.161C108.171 109.153 108.209 109.249 108.277 109.325C108.346 109.399 108.433 109.455 108.538 109.492C108.643 109.528 108.757 109.546 108.879 109.546C109.02 109.546 109.147 109.523 109.26 109.477C109.373 109.43 109.462 109.365 109.528 109.283C109.594 109.199 109.627 109.101 109.627 108.989C109.627 108.888 109.598 108.805 109.541 108.741C109.484 108.677 109.41 108.625 109.317 108.586C109.224 108.546 109.124 108.511 109.016 108.481L108.639 108.373C108.4 108.304 108.21 108.206 108.071 108.078C107.931 107.951 107.861 107.784 107.861 107.577C107.861 107.406 107.908 107.256 108.001 107.129C108.094 107 108.22 106.9 108.378 106.829C108.536 106.758 108.713 106.722 108.909 106.722C109.106 106.722 109.282 106.757 109.435 106.828C109.589 106.898 109.71 106.993 109.8 107.115C109.891 107.237 109.939 107.375 109.944 107.529H109.585ZM112.115 110.689V109.474H112.085C112.059 109.516 112.023 109.569 111.975 109.633C111.927 109.696 111.859 109.752 111.77 109.802C111.681 109.851 111.563 109.875 111.415 109.875C111.224 109.875 111.055 109.827 110.908 109.73C110.762 109.632 110.647 109.495 110.564 109.317C110.481 109.139 110.44 108.928 110.44 108.684C110.44 108.443 110.481 108.234 110.564 108.056C110.647 107.879 110.762 107.741 110.91 107.645C111.057 107.548 111.228 107.5 111.421 107.5C111.571 107.5 111.689 107.525 111.776 107.574C111.864 107.623 111.93 107.679 111.976 107.742C112.023 107.804 112.059 107.855 112.085 107.894H112.127V107.529H112.468V110.689H112.115ZM111.463 109.558C111.605 109.558 111.724 109.521 111.822 109.447C111.92 109.372 111.994 109.269 112.045 109.138C112.096 109.005 112.121 108.852 112.121 108.678C112.121 108.507 112.096 108.357 112.047 108.228C111.997 108.098 111.923 107.998 111.825 107.926C111.727 107.853 111.607 107.817 111.463 107.817C111.314 107.817 111.189 107.855 111.089 107.932C110.99 108.008 110.916 108.111 110.866 108.242C110.817 108.371 110.793 108.517 110.793 108.678C110.793 108.842 110.818 108.99 110.868 109.124C110.919 109.257 110.993 109.362 111.092 109.441C111.192 109.519 111.316 109.558 111.463 109.558ZM114.563 108.888V107.529H114.916V109.827H114.563V109.438H114.539C114.485 109.555 114.401 109.654 114.287 109.736C114.174 109.817 114.03 109.857 113.857 109.857C113.713 109.857 113.585 109.826 113.474 109.763C113.362 109.699 113.274 109.603 113.21 109.476C113.146 109.347 113.115 109.185 113.115 108.989V107.529H113.468V108.966C113.468 109.133 113.514 109.267 113.608 109.366C113.703 109.466 113.824 109.516 113.97 109.516C114.058 109.516 114.147 109.494 114.238 109.449C114.33 109.404 114.406 109.335 114.468 109.242C114.531 109.15 114.563 109.031 114.563 108.888ZM116.238 109.881C116.093 109.881 115.961 109.854 115.842 109.799C115.723 109.743 115.629 109.663 115.559 109.558C115.489 109.452 115.454 109.325 115.454 109.175C115.454 109.043 115.48 108.937 115.532 108.855C115.584 108.772 115.653 108.707 115.74 108.66C115.827 108.613 115.923 108.579 116.027 108.556C116.133 108.532 116.239 108.513 116.346 108.499C116.486 108.481 116.599 108.467 116.686 108.458C116.773 108.448 116.837 108.432 116.877 108.409C116.918 108.386 116.938 108.346 116.938 108.289V108.277C116.938 108.13 116.898 108.015 116.817 107.933C116.737 107.852 116.616 107.811 116.454 107.811C116.285 107.811 116.153 107.848 116.057 107.921C115.962 107.995 115.894 108.074 115.855 108.158L115.52 108.038C115.58 107.898 115.66 107.79 115.76 107.712C115.86 107.633 115.97 107.578 116.089 107.547C116.208 107.516 116.326 107.5 116.442 107.5C116.516 107.5 116.6 107.509 116.696 107.527C116.793 107.543 116.886 107.579 116.976 107.633C117.067 107.687 117.142 107.768 117.202 107.877C117.261 107.985 117.291 108.131 117.291 108.313V109.827H116.938V109.516H116.92C116.896 109.566 116.857 109.619 116.801 109.676C116.745 109.733 116.671 109.781 116.578 109.821C116.485 109.861 116.372 109.881 116.238 109.881ZM116.292 109.564C116.432 109.564 116.549 109.536 116.645 109.482C116.742 109.427 116.815 109.356 116.864 109.269C116.913 109.182 116.938 109.091 116.938 108.995V108.672C116.923 108.69 116.891 108.707 116.84 108.722C116.79 108.736 116.732 108.748 116.666 108.759C116.601 108.769 116.538 108.778 116.476 108.786C116.415 108.793 116.366 108.799 116.328 108.804C116.236 108.816 116.151 108.835 116.071 108.862C115.992 108.888 115.928 108.928 115.879 108.98C115.831 109.032 115.807 109.103 115.807 109.193C115.807 109.316 115.853 109.408 115.944 109.471C116.035 109.533 116.152 109.564 116.292 109.564ZM117.936 109.827V107.529H118.277V107.877H118.301C118.343 107.763 118.418 107.671 118.528 107.6C118.638 107.529 118.761 107.494 118.899 107.494C118.925 107.494 118.957 107.494 118.996 107.495C119.035 107.496 119.065 107.498 119.085 107.5V107.859C119.073 107.856 119.045 107.851 119.002 107.845C118.96 107.838 118.916 107.835 118.869 107.835C118.757 107.835 118.658 107.858 118.57 107.905C118.483 107.951 118.414 108.015 118.364 108.096C118.314 108.177 118.289 108.269 118.289 108.373V109.827H117.936ZM120.396 109.875C120.175 109.875 119.984 109.826 119.824 109.728C119.664 109.63 119.541 109.492 119.454 109.316C119.368 109.138 119.325 108.932 119.325 108.696C119.325 108.461 119.368 108.253 119.454 108.074C119.541 107.893 119.661 107.753 119.816 107.652C119.972 107.55 120.153 107.5 120.361 107.5C120.48 107.5 120.598 107.52 120.715 107.559C120.832 107.599 120.938 107.664 121.034 107.754C121.129 107.843 121.206 107.96 121.263 108.107C121.319 108.253 121.348 108.434 121.348 108.648V108.798H119.577V108.493H120.989C120.989 108.363 120.963 108.248 120.911 108.146C120.86 108.044 120.787 107.964 120.693 107.905C120.599 107.846 120.488 107.817 120.361 107.817C120.22 107.817 120.098 107.852 119.996 107.921C119.894 107.99 119.816 108.08 119.761 108.191C119.706 108.301 119.678 108.42 119.678 108.547V108.75C119.678 108.924 119.708 109.071 119.768 109.191C119.829 109.311 119.913 109.402 120.021 109.465C120.129 109.527 120.254 109.558 120.396 109.558C120.489 109.558 120.573 109.545 120.648 109.519C120.724 109.492 120.789 109.452 120.844 109.399C120.899 109.345 120.941 109.279 120.971 109.199L121.312 109.295C121.276 109.41 121.216 109.512 121.131 109.6C121.046 109.687 120.941 109.754 120.817 109.803C120.692 109.851 120.552 109.875 120.396 109.875ZM123.07 109.827V107.529H123.411V107.877H123.435C123.476 107.763 123.552 107.671 123.662 107.6C123.772 107.529 123.895 107.494 124.033 107.494C124.059 107.494 124.091 107.494 124.13 107.495C124.169 107.496 124.198 107.498 124.218 107.5V107.859C124.206 107.856 124.179 107.851 124.136 107.845C124.094 107.838 124.05 107.835 124.003 107.835C123.891 107.835 123.792 107.858 123.704 107.905C123.617 107.951 123.548 108.015 123.497 108.096C123.448 108.177 123.423 108.269 123.423 108.373V109.827H123.07ZM125.5 109.875C125.293 109.875 125.111 109.826 124.954 109.727C124.799 109.628 124.677 109.49 124.589 109.313C124.503 109.135 124.459 108.928 124.459 108.69C124.459 108.451 124.503 108.242 124.589 108.064C124.677 107.885 124.799 107.746 124.954 107.648C125.111 107.549 125.293 107.5 125.5 107.5C125.708 107.5 125.889 107.549 126.045 107.648C126.201 107.746 126.323 107.885 126.41 108.064C126.498 108.242 126.541 108.451 126.541 108.69C126.541 108.928 126.498 109.135 126.41 109.313C126.323 109.49 126.201 109.628 126.045 109.727C125.889 109.826 125.708 109.875 125.5 109.875ZM125.5 109.558C125.658 109.558 125.788 109.518 125.889 109.437C125.991 109.356 126.066 109.25 126.115 109.118C126.164 108.986 126.188 108.844 126.188 108.69C126.188 108.537 126.164 108.394 126.115 108.261C126.066 108.128 125.991 108.021 125.889 107.939C125.788 107.858 125.658 107.817 125.5 107.817C125.343 107.817 125.213 107.858 125.111 107.939C125.01 108.021 124.934 108.128 124.886 108.261C124.837 108.394 124.812 108.537 124.812 108.69C124.812 108.844 124.837 108.986 124.886 109.118C124.934 109.25 125.01 109.356 125.111 109.437C125.213 109.518 125.343 109.558 125.5 109.558ZM128.014 109.875C127.806 109.875 127.624 109.826 127.468 109.727C127.312 109.628 127.191 109.49 127.103 109.313C127.016 109.135 126.973 108.928 126.973 108.69C126.973 108.451 127.016 108.242 127.103 108.064C127.191 107.885 127.312 107.746 127.468 107.648C127.624 107.549 127.806 107.5 128.014 107.5C128.221 107.5 128.403 107.549 128.558 107.648C128.715 107.746 128.837 107.885 128.923 108.064C129.011 108.242 129.055 108.451 129.055 108.69C129.055 108.928 129.011 109.135 128.923 109.313C128.837 109.49 128.715 109.628 128.558 109.727C128.403 109.826 128.221 109.875 128.014 109.875ZM128.014 109.558C128.171 109.558 128.301 109.518 128.403 109.437C128.504 109.356 128.58 109.25 128.629 109.118C128.677 108.986 128.702 108.844 128.702 108.69C128.702 108.537 128.677 108.394 128.629 108.261C128.58 108.128 128.504 108.021 128.403 107.939C128.301 107.858 128.171 107.817 128.014 107.817C127.856 107.817 127.727 107.858 127.625 107.939C127.523 108.021 127.448 108.128 127.399 108.261C127.35 108.394 127.326 108.537 127.326 108.69C127.326 108.844 127.35 108.986 127.399 109.118C127.448 109.25 127.523 109.356 127.625 109.437C127.727 109.518 127.856 109.558 128.014 109.558ZM130.593 107.529V107.829H129.402V107.529H130.593ZM129.749 106.979H130.102V109.169C130.102 109.269 130.117 109.343 130.146 109.393C130.176 109.442 130.214 109.475 130.259 109.492C130.306 109.508 130.356 109.516 130.408 109.516C130.446 109.516 130.478 109.514 130.503 109.51C130.528 109.505 130.548 109.501 130.563 109.498L130.635 109.815C130.611 109.824 130.578 109.833 130.535 109.842C130.492 109.852 130.437 109.857 130.372 109.857C130.272 109.857 130.174 109.836 130.078 109.793C129.984 109.75 129.905 109.685 129.842 109.597C129.78 109.509 129.749 109.398 129.749 109.265V106.979ZM132.303 109.827V109.558L133.314 108.451C133.433 108.321 133.53 108.209 133.607 108.113C133.684 108.016 133.741 107.925 133.778 107.841C133.816 107.755 133.835 107.665 133.835 107.571C133.835 107.464 133.809 107.37 133.757 107.292C133.706 107.213 133.636 107.152 133.547 107.109C133.459 107.066 133.359 107.045 133.248 107.045C133.131 107.045 133.028 107.069 132.94 107.118C132.853 107.166 132.786 107.233 132.738 107.32C132.691 107.407 132.668 107.509 132.668 107.625H132.315C132.315 107.446 132.356 107.288 132.439 107.153C132.522 107.017 132.634 106.911 132.777 106.835C132.921 106.76 133.082 106.722 133.26 106.722C133.44 106.722 133.599 106.76 133.737 106.835C133.876 106.911 133.985 107.013 134.063 107.142C134.142 107.271 134.182 107.414 134.182 107.571C134.182 107.684 134.161 107.794 134.12 107.902C134.08 108.009 134.011 108.128 133.911 108.259C133.812 108.39 133.675 108.55 133.5 108.738L132.811 109.474V109.498H134.235V109.827H132.303Z" fill="white"/>
<circle cx="86.2955" cy="195.261" r="35.1031" stroke="white" stroke-width="1.875"/>
<rect x="86.2969" y="195.261" width="35.1031" height="35.1031" fill="white" fill-opacity="0.2" stroke="white" stroke-width="1.875"/>
<path d="M121.402 195.261L86.299 230.364" stroke="white" stroke-width="1.875"/>
<path d="M86.2969 148.573L86.2969 241.947" stroke="white" stroke-width="1.875" stroke-dasharray="0.35 1.4"/>
<path d="M117.719 163.844L54.8842 226.678" stroke="white" stroke-width="1.875" stroke-dasharray="0.35 1.4"/>
<path d="M132.981 195.261L39.6072 195.261" stroke="white" stroke-width="1.875" stroke-dasharray="0.35 1.4"/>
<path d="M109.585 239.438C109.567 239.286 109.494 239.168 109.366 239.085C109.239 239.001 109.082 238.959 108.897 238.959C108.761 238.959 108.642 238.981 108.541 239.025C108.44 239.069 108.361 239.129 108.304 239.206C108.248 239.283 108.22 239.37 108.22 239.468C108.22 239.549 108.24 239.62 108.279 239.679C108.319 239.736 108.37 239.785 108.431 239.824C108.493 239.862 108.558 239.893 108.626 239.918C108.694 239.942 108.756 239.961 108.813 239.976L109.124 240.06C109.204 240.081 109.292 240.11 109.39 240.147C109.489 240.184 109.583 240.234 109.673 240.298C109.764 240.361 109.838 240.441 109.897 240.54C109.956 240.639 109.986 240.76 109.986 240.904C109.986 241.069 109.942 241.219 109.855 241.352C109.77 241.486 109.644 241.592 109.478 241.671C109.314 241.75 109.114 241.789 108.879 241.789C108.659 241.789 108.469 241.754 108.309 241.683C108.149 241.612 108.023 241.513 107.932 241.387C107.841 241.26 107.79 241.113 107.778 240.946H108.161C108.171 241.061 108.209 241.157 108.277 241.233C108.346 241.308 108.433 241.363 108.538 241.4C108.643 241.436 108.757 241.454 108.879 241.454C109.02 241.454 109.147 241.431 109.26 241.385C109.373 241.338 109.462 241.274 109.528 241.191C109.594 241.107 109.627 241.009 109.627 240.898C109.627 240.796 109.598 240.713 109.541 240.649C109.484 240.586 109.41 240.534 109.317 240.494C109.224 240.454 109.124 240.419 109.016 240.389L108.639 240.281C108.4 240.213 108.21 240.114 108.071 239.987C107.931 239.859 107.861 239.692 107.861 239.486C107.861 239.314 107.908 239.164 108.001 239.037C108.094 238.908 108.22 238.808 108.378 238.738C108.536 238.666 108.713 238.63 108.909 238.63C109.106 238.63 109.282 238.665 109.435 238.736C109.589 238.806 109.71 238.902 109.8 239.023C109.891 239.145 109.939 239.283 109.944 239.438H109.585ZM112.115 242.597V241.382H112.085C112.059 241.424 112.023 241.477 111.975 241.541C111.927 241.604 111.859 241.66 111.77 241.71C111.681 241.759 111.563 241.783 111.415 241.783C111.224 241.783 111.055 241.735 110.908 241.638C110.762 241.54 110.647 241.403 110.564 241.225C110.481 241.047 110.44 240.836 110.44 240.593C110.44 240.351 110.481 240.142 110.564 239.964C110.647 239.787 110.762 239.65 110.91 239.553C111.057 239.456 111.228 239.408 111.421 239.408C111.571 239.408 111.689 239.433 111.776 239.483C111.864 239.531 111.93 239.587 111.976 239.65C112.023 239.712 112.059 239.763 112.085 239.803H112.127V239.438H112.468V242.597H112.115ZM111.463 241.466C111.605 241.466 111.724 241.429 111.822 241.355C111.92 241.281 111.994 241.177 112.045 241.046C112.096 240.913 112.121 240.76 112.121 240.587C112.121 240.415 112.096 240.265 112.047 240.136C111.997 240.007 111.923 239.906 111.825 239.834C111.727 239.761 111.607 239.725 111.463 239.725C111.314 239.725 111.189 239.763 111.089 239.84C110.99 239.916 110.916 240.019 110.866 240.15C110.817 240.279 110.793 240.425 110.793 240.587C110.793 240.75 110.818 240.899 110.868 241.032C110.919 241.165 110.993 241.271 111.092 241.349C111.192 241.427 111.316 241.466 111.463 241.466ZM114.563 240.796V239.438H114.916V241.735H114.563V241.346H114.539C114.485 241.463 114.401 241.562 114.287 241.644C114.174 241.725 114.03 241.765 113.857 241.765C113.713 241.765 113.585 241.734 113.474 241.671C113.362 241.607 113.274 241.511 113.21 241.384C113.146 241.255 113.115 241.093 113.115 240.898V239.438H113.468V240.874C113.468 241.041 113.514 241.175 113.608 241.275C113.703 241.374 113.824 241.424 113.97 241.424C114.058 241.424 114.147 241.402 114.238 241.357C114.33 241.312 114.406 241.243 114.468 241.15C114.531 241.058 114.563 240.94 114.563 240.796ZM116.238 241.789C116.093 241.789 115.961 241.762 115.842 241.707C115.723 241.651 115.629 241.571 115.559 241.466C115.489 241.36 115.454 241.233 115.454 241.083C115.454 240.952 115.48 240.845 115.532 240.763C115.584 240.68 115.653 240.615 115.74 240.569C115.827 240.522 115.923 240.487 116.027 240.464C116.133 240.44 116.239 240.421 116.346 240.407C116.486 240.389 116.599 240.376 116.686 240.367C116.773 240.357 116.837 240.34 116.877 240.317C116.918 240.294 116.938 240.254 116.938 240.198V240.186C116.938 240.038 116.898 239.923 116.817 239.842C116.737 239.76 116.616 239.719 116.454 239.719C116.285 239.719 116.153 239.756 116.057 239.83C115.962 239.903 115.894 239.982 115.855 240.066L115.52 239.946C115.58 239.807 115.66 239.698 115.76 239.62C115.86 239.541 115.97 239.487 116.089 239.456C116.208 239.424 116.326 239.408 116.442 239.408C116.516 239.408 116.6 239.417 116.696 239.435C116.793 239.452 116.886 239.487 116.976 239.541C117.067 239.595 117.142 239.676 117.202 239.785C117.261 239.893 117.291 240.039 117.291 240.222V241.735H116.938V241.424H116.92C116.896 241.474 116.857 241.527 116.801 241.584C116.745 241.641 116.671 241.689 116.578 241.729C116.485 241.769 116.372 241.789 116.238 241.789ZM116.292 241.472C116.432 241.472 116.549 241.445 116.645 241.39C116.742 241.335 116.815 241.264 116.864 241.177C116.913 241.091 116.938 240.999 116.938 240.904V240.581C116.923 240.598 116.891 240.615 116.84 240.63C116.79 240.644 116.732 240.656 116.666 240.667C116.601 240.677 116.538 240.686 116.476 240.694C116.415 240.701 116.366 240.707 116.328 240.712C116.236 240.724 116.151 240.744 116.071 240.771C115.992 240.796 115.928 240.836 115.879 240.889C115.831 240.941 115.807 241.011 115.807 241.101C115.807 241.224 115.853 241.317 115.944 241.379C116.035 241.441 116.152 241.472 116.292 241.472ZM117.936 241.735V239.438H118.277V239.785H118.301C118.343 239.671 118.418 239.579 118.528 239.508C118.638 239.437 118.761 239.402 118.899 239.402C118.925 239.402 118.957 239.402 118.996 239.403C119.035 239.404 119.065 239.406 119.085 239.408V239.767C119.073 239.764 119.045 239.759 119.002 239.753C118.96 239.746 118.916 239.743 118.869 239.743C118.757 239.743 118.658 239.766 118.57 239.813C118.483 239.859 118.414 239.923 118.364 240.005C118.314 240.085 118.289 240.178 118.289 240.281V241.735H117.936ZM120.396 241.783C120.175 241.783 119.984 241.734 119.824 241.637C119.664 241.538 119.541 241.4 119.454 241.224C119.368 241.046 119.325 240.84 119.325 240.604C119.325 240.369 119.368 240.162 119.454 239.982C119.541 239.802 119.661 239.661 119.816 239.56C119.972 239.459 120.153 239.408 120.361 239.408C120.48 239.408 120.598 239.428 120.715 239.468C120.832 239.508 120.938 239.572 121.034 239.662C121.129 239.751 121.206 239.869 121.263 240.015C121.319 240.162 121.348 240.342 121.348 240.557V240.706H119.577V240.401H120.989C120.989 240.271 120.963 240.156 120.911 240.054C120.86 239.952 120.787 239.872 120.693 239.813C120.599 239.754 120.488 239.725 120.361 239.725C120.22 239.725 120.098 239.76 119.996 239.83C119.894 239.898 119.816 239.988 119.761 240.099C119.706 240.21 119.678 240.328 119.678 240.455V240.658C119.678 240.832 119.708 240.979 119.768 241.1C119.829 241.219 119.913 241.311 120.021 241.373C120.129 241.435 120.254 241.466 120.396 241.466C120.489 241.466 120.573 241.453 120.648 241.427C120.724 241.4 120.789 241.36 120.844 241.308C120.899 241.254 120.941 241.187 120.971 241.107L121.312 241.203C121.276 241.319 121.216 241.42 121.131 241.508C121.046 241.595 120.941 241.663 120.817 241.711C120.692 241.759 120.552 241.783 120.396 241.783ZM123.07 241.735V239.438H123.411V239.785H123.435C123.476 239.671 123.552 239.579 123.662 239.508C123.772 239.437 123.895 239.402 124.033 239.402C124.059 239.402 124.091 239.402 124.13 239.403C124.169 239.404 124.198 239.406 124.218 239.408V239.767C124.206 239.764 124.179 239.759 124.136 239.753C124.094 239.746 124.05 239.743 124.003 239.743C123.891 239.743 123.792 239.766 123.704 239.813C123.617 239.859 123.548 239.923 123.497 240.005C123.448 240.085 123.423 240.178 123.423 240.281V241.735H123.07ZM125.5 241.783C125.293 241.783 125.111 241.734 124.954 241.635C124.799 241.536 124.677 241.398 124.589 241.221C124.503 241.043 124.459 240.836 124.459 240.598C124.459 240.359 124.503 240.15 124.589 239.972C124.677 239.793 124.799 239.655 124.954 239.556C125.111 239.457 125.293 239.408 125.5 239.408C125.708 239.408 125.889 239.457 126.045 239.556C126.201 239.655 126.323 239.793 126.41 239.972C126.498 240.15 126.541 240.359 126.541 240.598C126.541 240.836 126.498 241.043 126.41 241.221C126.323 241.398 126.201 241.536 126.045 241.635C125.889 241.734 125.708 241.783 125.5 241.783ZM125.5 241.466C125.658 241.466 125.788 241.426 125.889 241.345C125.991 241.264 126.066 241.158 126.115 241.026C126.164 240.895 126.188 240.752 126.188 240.598C126.188 240.445 126.164 240.302 126.115 240.169C126.066 240.037 125.991 239.929 125.889 239.848C125.788 239.766 125.658 239.725 125.5 239.725C125.343 239.725 125.213 239.766 125.111 239.848C125.01 239.929 124.934 240.037 124.886 240.169C124.837 240.302 124.812 240.445 124.812 240.598C124.812 240.752 124.837 240.895 124.886 241.026C124.934 241.158 125.01 241.264 125.111 241.345C125.213 241.426 125.343 241.466 125.5 241.466ZM128.014 241.783C127.806 241.783 127.624 241.734 127.468 241.635C127.312 241.536 127.191 241.398 127.103 241.221C127.016 241.043 126.973 240.836 126.973 240.598C126.973 240.359 127.016 240.15 127.103 239.972C127.191 239.793 127.312 239.655 127.468 239.556C127.624 239.457 127.806 239.408 128.014 239.408C128.221 239.408 128.403 239.457 128.558 239.556C128.715 239.655 128.837 239.793 128.923 239.972C129.011 240.15 129.055 240.359 129.055 240.598C129.055 240.836 129.011 241.043 128.923 241.221C128.837 241.398 128.715 241.536 128.558 241.635C128.403 241.734 128.221 241.783 128.014 241.783ZM128.014 241.466C128.171 241.466 128.301 241.426 128.403 241.345C128.504 241.264 128.58 241.158 128.629 241.026C128.677 240.895 128.702 240.752 128.702 240.598C128.702 240.445 128.677 240.302 128.629 240.169C128.58 240.037 128.504 239.929 128.403 239.848C128.301 239.766 128.171 239.725 128.014 239.725C127.856 239.725 127.727 239.766 127.625 239.848C127.523 239.929 127.448 240.037 127.399 240.169C127.35 240.302 127.326 240.445 127.326 240.598C127.326 240.752 127.35 240.895 127.399 241.026C127.448 241.158 127.523 241.264 127.625 241.345C127.727 241.426 127.856 241.466 128.014 241.466ZM130.593 239.438V239.737H129.402V239.438H130.593ZM129.749 238.887H130.102V241.077C130.102 241.177 130.117 241.252 130.146 241.302C130.176 241.35 130.214 241.383 130.259 241.4C130.306 241.416 130.356 241.424 130.408 241.424C130.446 241.424 130.478 241.422 130.503 241.418C130.528 241.413 130.548 241.409 130.563 241.406L130.635 241.723C130.611 241.732 130.578 241.741 130.535 241.75C130.492 241.76 130.437 241.765 130.372 241.765C130.272 241.765 130.174 241.744 130.078 241.701C129.984 241.658 129.905 241.593 129.842 241.505C129.78 241.417 129.749 241.307 129.749 241.173V238.887ZM132.303 241.735V241.466L133.314 240.359C133.433 240.23 133.53 240.117 133.607 240.021C133.684 239.924 133.741 239.834 133.778 239.749C133.816 239.663 133.835 239.573 133.835 239.48C133.835 239.372 133.809 239.279 133.757 239.2C133.706 239.121 133.636 239.06 133.547 239.017C133.459 238.974 133.359 238.953 133.248 238.953C133.131 238.953 133.028 238.977 132.94 239.026C132.853 239.074 132.786 239.142 132.738 239.228C132.691 239.315 132.668 239.417 132.668 239.533H132.315C132.315 239.354 132.356 239.196 132.439 239.061C132.522 238.925 132.634 238.819 132.777 238.744C132.921 238.668 133.082 238.63 133.26 238.63C133.44 238.63 133.599 238.668 133.737 238.744C133.876 238.819 133.985 238.922 134.063 239.05C134.142 239.179 134.182 239.322 134.182 239.48C134.182 239.592 134.161 239.702 134.12 239.81C134.08 239.917 134.011 240.036 133.911 240.168C133.812 240.298 133.675 240.458 133.5 240.646L132.811 241.382V241.406H134.235V241.735H132.303Z" fill="white"/>
<path d="M86.2949 160.158L111.365 170.542L121.749 195.612L111.365 220.682L86.2949 231.066L61.2251 220.682L50.8408 195.612L61.2251 170.542L86.2949 160.158Z" stroke="white" stroke-width="1.875"/>
<circle cx="86.2955" cy="327.169" r="35.1031" stroke="white" stroke-width="1.875"/>
<circle cx="86.296" cy="327.168" r="24.9232" stroke="white" stroke-width="1.875"/>
<circle cx="86.3003" cy="327.168" r="17.7271" stroke="white" stroke-width="1.875"/>
<path d="M86.3018 326.729L50.0579 290.485" stroke="white" stroke-width="1.875"/>
<circle cx="86.2992" cy="327.168" r="12.6371" stroke="white" stroke-width="1.875"/>
<circle cx="86.2995" cy="327.168" r="8.77577" stroke="white" stroke-width="1.875"/>
<path d="M86.2969 280.481L86.2969 373.856" stroke="white" stroke-width="1.875" stroke-dasharray="0.35 1.4"/>
<path d="M132.981 327.169L39.6072 327.169" stroke="white" stroke-width="1.875" stroke-dasharray="0.35 1.4"/>
<path d="M65.1262 305.246C65.2518 305.247 65.3775 305.271 65.5031 305.318C65.6288 305.365 65.7435 305.443 65.8472 305.551C65.9509 305.659 66.0342 305.806 66.097 305.993C66.1598 306.179 66.1912 306.413 66.1912 306.694C66.1912 306.966 66.1653 307.208 66.1134 307.42C66.0626 307.63 65.9888 307.808 65.8921 307.952C65.7963 308.097 65.6796 308.206 65.542 308.281C65.4054 308.356 65.2508 308.393 65.0783 308.393C64.9068 308.393 64.7537 308.36 64.6191 308.292C64.4854 308.223 64.3757 308.128 64.29 308.006C64.2052 307.883 64.1509 307.741 64.1269 307.58H64.4919C64.5248 307.72 64.5902 307.836 64.6879 307.928C64.7866 308.019 64.9168 308.064 65.0783 308.064C65.3147 308.064 65.5011 307.961 65.6378 307.755C65.7754 307.548 65.8442 307.257 65.8442 306.88H65.8203C65.7644 306.963 65.6981 307.036 65.6213 307.097C65.5445 307.157 65.4593 307.204 65.3655 307.237C65.2718 307.27 65.172 307.287 65.0663 307.287C64.8908 307.287 64.7298 307.243 64.5832 307.156C64.4376 307.069 64.3209 306.948 64.2331 306.796C64.1464 306.642 64.103 306.467 64.103 306.269C64.103 306.082 64.1449 305.91 64.2286 305.755C64.3134 305.598 64.4321 305.474 64.5847 305.381C64.7382 305.288 64.9187 305.243 65.1262 305.246ZM65.1262 305.575C65.0005 305.575 64.8873 305.607 64.7866 305.669C64.6869 305.731 64.6076 305.815 64.5488 305.921C64.4909 306.025 64.462 306.142 64.462 306.269C64.462 306.397 64.4899 306.513 64.5458 306.618C64.6026 306.722 64.6799 306.804 64.7776 306.866C64.8764 306.927 64.9886 306.957 65.1142 306.957C65.2089 306.957 65.2972 306.939 65.379 306.902C65.4607 306.864 65.5321 306.813 65.5929 306.748C65.6547 306.682 65.7031 306.608 65.738 306.525C65.7729 306.441 65.7903 306.354 65.7903 306.263C65.7903 306.144 65.7614 306.031 65.7036 305.927C65.6467 305.822 65.568 305.737 65.4672 305.672C65.3675 305.608 65.2538 305.575 65.1262 305.575ZM67.7787 308.393C67.5533 308.393 67.3614 308.332 67.2028 308.209C67.0443 308.086 66.9231 307.907 66.8393 307.672C66.7555 307.437 66.7137 307.153 66.7137 306.82C66.7137 306.489 66.7555 306.206 66.8393 305.972C66.9241 305.736 67.0457 305.557 67.2043 305.433C67.3639 305.308 67.5553 305.246 67.7787 305.246C68.0021 305.246 68.1931 305.308 68.3516 305.433C68.5112 305.557 68.6329 305.736 68.7166 305.972C68.8014 306.206 68.8438 306.489 68.8438 306.82C68.8438 307.153 68.8019 307.437 68.7181 307.672C68.6344 307.907 68.5132 308.086 68.3546 308.209C68.1961 308.332 68.0041 308.393 67.7787 308.393ZM67.7787 308.064C68.0021 308.064 68.1756 307.957 68.2993 307.741C68.4229 307.526 68.4848 307.219 68.4848 306.82C68.4848 306.555 68.4564 306.329 68.3995 306.142C68.3437 305.956 68.2629 305.814 68.1572 305.716C68.0525 305.618 67.9263 305.569 67.7787 305.569C67.5573 305.569 67.3843 305.678 67.2597 305.897C67.135 306.114 67.0727 306.422 67.0727 306.82C67.0727 307.085 67.1006 307.31 67.1564 307.496C67.2123 307.681 67.2926 307.823 67.3973 307.919C67.503 308.016 67.6301 308.064 67.7787 308.064Z" fill="white"/>
<path d="M56.9742 298.091V301.154H56.6033V298.48H56.5853L55.8374 298.976V298.599L56.6033 298.091H56.9742ZM57.8553 301.154V300.885L58.8665 299.778C58.9852 299.648 59.0829 299.536 59.1597 299.44C59.2365 299.343 59.2933 299.253 59.3302 299.168C59.3681 299.082 59.3871 298.992 59.3871 298.899C59.3871 298.791 59.3611 298.698 59.3093 298.619C59.2584 298.54 59.1886 298.479 59.0999 298.436C59.0111 298.393 58.9114 298.372 58.8007 298.372C58.683 298.372 58.5803 298.396 58.4925 298.445C58.4058 298.493 58.3385 298.56 58.2906 298.647C58.2437 298.734 58.2203 298.836 58.2203 298.952H57.8673C57.8673 298.773 57.9086 298.615 57.9914 298.48C58.0742 298.344 58.1869 298.238 58.3295 298.163C58.4731 298.087 58.6341 298.049 58.8127 298.049C58.9922 298.049 59.1512 298.087 59.2898 298.163C59.4285 298.238 59.5372 298.341 59.6159 298.469C59.6947 298.598 59.7341 298.741 59.7341 298.899C59.7341 299.011 59.7137 299.121 59.6728 299.229C59.6329 299.336 59.5631 299.455 59.4634 299.587C59.3646 299.717 59.2275 299.877 59.052 300.065L58.3639 300.801V300.825H59.788V301.154H57.8553ZM61.387 301.196C61.1816 301.196 61.0001 301.16 60.8425 301.087C60.686 301.013 60.5638 300.912 60.4761 300.783C60.3883 300.654 60.3449 300.506 60.3459 300.341C60.3449 300.211 60.3704 300.091 60.4222 299.982C60.4741 299.871 60.5449 299.779 60.6346 299.705C60.7254 299.63 60.8266 299.583 60.9383 299.563V299.545C60.7917 299.507 60.675 299.425 60.5883 299.298C60.5015 299.17 60.4586 299.025 60.4596 298.863C60.4586 298.707 60.498 298.568 60.5778 298.445C60.6576 298.323 60.7673 298.226 60.9069 298.155C61.0475 298.084 61.2075 298.049 61.387 298.049C61.5646 298.049 61.7231 298.084 61.8627 298.155C62.0023 298.226 62.112 298.323 62.1918 298.445C62.2726 298.568 62.3135 298.707 62.3145 298.863C62.3135 299.025 62.2691 299.17 62.1814 299.298C62.0946 299.425 61.9794 299.507 61.8358 299.545V299.563C61.9465 299.583 62.0462 299.63 62.135 299.705C62.2237 299.779 62.2945 299.871 62.3474 299.982C62.4002 300.091 62.4272 300.211 62.4282 300.341C62.4272 300.506 62.3823 300.654 62.2935 300.783C62.2058 300.912 62.0836 301.013 61.9271 301.087C61.7715 301.16 61.5915 301.196 61.387 301.196ZM61.387 300.867C61.5257 300.867 61.6453 300.845 61.7461 300.8C61.8468 300.755 61.9246 300.692 61.9794 300.61C62.0343 300.528 62.0622 300.432 62.0632 300.323C62.0622 300.207 62.0323 300.105 61.9734 300.016C61.9146 299.927 61.8343 299.857 61.7326 299.807C61.6319 299.756 61.5167 299.73 61.387 299.73C61.2564 299.73 61.1397 299.756 61.037 299.807C60.9353 299.857 60.855 299.927 60.7962 300.016C60.7383 300.105 60.7099 300.207 60.7109 300.323C60.7099 300.432 60.7363 300.528 60.7902 300.61C60.845 300.692 60.9233 300.755 61.025 300.8C61.1268 300.845 61.2474 300.867 61.387 300.867ZM61.387 299.413C61.4967 299.413 61.594 299.391 61.6787 299.347C61.7645 299.303 61.8318 299.242 61.8807 299.163C61.9295 299.085 61.9545 298.992 61.9555 298.887C61.9545 298.783 61.93 298.693 61.8822 298.616C61.8343 298.538 61.768 298.478 61.6832 298.436C61.5985 298.393 61.4997 298.372 61.387 298.372C61.2724 298.372 61.1721 298.393 61.0864 298.436C61.0006 298.478 60.9343 298.538 60.8874 298.616C60.8406 298.693 60.8176 298.783 60.8186 298.887C60.8176 298.992 60.8411 299.085 60.8889 299.163C60.9378 299.242 61.0051 299.303 61.0909 299.347C61.1766 299.391 61.2754 299.413 61.387 299.413Z" fill="white"/>
<path d="M70.9622 314.712C70.8366 314.71 70.7109 314.686 70.5853 314.64C70.4596 314.594 70.3449 314.517 70.2412 314.408C70.1375 314.298 70.0543 314.15 69.9914 313.964C69.9286 313.776 69.8972 313.541 69.8972 313.258C69.8972 312.987 69.9226 312.746 69.9735 312.537C70.0243 312.326 70.0981 312.149 70.1949 312.006C70.2916 311.861 70.4083 311.751 70.5449 311.677C70.6825 311.602 70.8376 311.564 71.0101 311.564C71.1816 311.564 71.3342 311.599 71.4678 311.668C71.6025 311.736 71.7122 311.83 71.7969 311.952C71.8817 312.074 71.9366 312.214 71.9615 312.372H71.5965C71.5626 312.235 71.4968 312.12 71.399 312.03C71.3013 311.939 71.1717 311.894 71.0101 311.894C70.7728 311.894 70.5858 311.997 70.4492 312.203C70.3135 312.41 70.2452 312.699 70.2442 313.072H70.2682C70.324 312.988 70.3903 312.915 70.4671 312.855C70.5449 312.795 70.6307 312.748 70.7244 312.715C70.8181 312.682 70.9174 312.665 71.0221 312.665C71.1976 312.665 71.3582 312.709 71.5038 312.797C71.6493 312.884 71.766 313.004 71.8538 313.158C71.9415 313.31 71.9854 313.485 71.9854 313.683C71.9854 313.872 71.943 314.046 71.8583 314.203C71.7735 314.36 71.6543 314.484 71.5008 314.577C71.3482 314.669 71.1687 314.714 70.9622 314.712ZM70.9622 314.383C71.0879 314.383 71.2006 314.351 71.3003 314.288C71.401 314.226 71.4803 314.141 71.5382 314.036C71.597 313.93 71.6264 313.812 71.6264 313.683C71.6264 313.556 71.598 313.441 71.5411 313.337C71.4853 313.232 71.408 313.149 71.3093 313.087C71.2116 313.025 71.0999 312.995 70.9742 312.995C70.8795 312.995 70.7912 313.013 70.7094 313.051C70.6277 313.088 70.5559 313.139 70.494 313.204C70.4332 313.269 70.3853 313.343 70.3504 313.427C70.3155 313.51 70.2981 313.597 70.2981 313.689C70.2981 313.81 70.3265 313.924 70.3833 314.03C70.4412 314.135 70.52 314.221 70.6197 314.285C70.7204 314.35 70.8346 314.383 70.9622 314.383ZM72.5019 314.042V313.736L73.8482 311.606H74.0695V312.079H73.92L72.9028 313.689V313.713H74.7158V314.042H72.5019ZM73.9439 314.67V313.949V313.807V311.606H74.2969V314.67H73.9439Z" fill="white"/>
<path d="M74.4348 318.604V318.299L75.7811 316.169H76.0024V316.642H75.8529L74.8357 318.251V318.275H76.6487V318.604H74.4348ZM75.8768 319.232V318.511V318.369V316.169H76.2298V319.232H75.8768ZM78.1666 319.274C77.9911 319.274 77.833 319.239 77.6924 319.17C77.5518 319.1 77.4391 319.004 77.3543 318.882C77.2696 318.761 77.2232 318.622 77.2152 318.467H77.5742C77.5882 318.605 77.651 318.72 77.7627 318.811C77.8754 318.9 78.01 318.945 78.1666 318.945C78.2923 318.945 78.4039 318.916 78.5017 318.857C78.6004 318.798 78.6777 318.717 78.7335 318.615C78.7904 318.511 78.8188 318.394 78.8188 318.263C78.8188 318.129 78.7894 318.01 78.7305 317.906C78.6727 317.8 78.5929 317.717 78.4912 317.656C78.3895 317.595 78.2733 317.564 78.1427 317.563C78.0489 317.562 77.9527 317.576 77.854 317.606C77.7552 317.635 77.674 317.673 77.6101 317.719L77.2631 317.677L77.4486 316.169H79.0402V316.498H77.7597L77.652 317.401H77.67C77.7328 317.352 77.8116 317.31 77.9063 317.277C78.0011 317.244 78.0998 317.228 78.2025 317.228C78.39 317.228 78.557 317.273 78.7036 317.363C78.8512 317.451 78.9669 317.573 79.0507 317.728C79.1354 317.882 79.1778 318.059 79.1778 318.257C79.1778 318.453 79.1339 318.627 79.0462 318.781C78.9594 318.933 78.8397 319.054 78.6872 319.143C78.5346 319.23 78.3611 319.274 78.1666 319.274Z" fill="white"/>
<path d="M78.8759 322.434C78.6785 322.434 78.5025 322.401 78.3479 322.333C78.1943 322.265 78.0722 322.171 77.9814 322.05C77.8917 321.928 77.8428 321.787 77.8348 321.627H78.2118C78.2198 321.725 78.2537 321.811 78.3135 321.882C78.3733 321.953 78.4516 322.008 78.5484 322.047C78.6451 322.086 78.7523 322.105 78.87 322.105C79.0016 322.105 79.1183 322.082 79.22 322.037C79.3217 321.991 79.4015 321.927 79.4593 321.845C79.5172 321.763 79.5461 321.669 79.5461 321.561C79.5461 321.448 79.5182 321.349 79.4623 321.263C79.4065 321.176 79.3247 321.109 79.217 321.06C79.1093 321.011 78.9777 320.986 78.8221 320.986H78.5768V320.657H78.8221C78.9438 320.657 79.0505 320.635 79.1422 320.592C79.235 320.548 79.3073 320.486 79.3591 320.406C79.412 320.326 79.4384 320.233 79.4384 320.125C79.4384 320.021 79.4155 319.931 79.3696 319.854C79.3237 319.777 79.2589 319.717 79.1751 319.675C79.0924 319.632 78.9946 319.61 78.8819 319.61C78.7762 319.61 78.6765 319.63 78.5828 319.669C78.49 319.706 78.4142 319.762 78.3554 319.835C78.2965 319.906 78.2646 319.993 78.2596 320.095H77.9006C77.9066 319.934 77.955 319.794 78.0457 319.673C78.1365 319.551 78.2552 319.457 78.4018 319.389C78.5493 319.321 78.7114 319.287 78.8879 319.287C79.0774 319.287 79.2399 319.326 79.3756 319.402C79.5112 319.478 79.6154 319.578 79.6882 319.703C79.761 319.828 79.7974 319.962 79.7974 320.107C79.7974 320.279 79.752 320.427 79.6613 320.548C79.5715 320.67 79.4494 320.754 79.2948 320.801V320.825C79.4883 320.857 79.6393 320.939 79.748 321.072C79.8567 321.203 79.9111 321.366 79.9111 321.561C79.9111 321.727 79.8657 321.877 79.775 322.01C79.6852 322.141 79.5626 322.245 79.407 322.321C79.2514 322.397 79.0744 322.434 78.8759 322.434ZM80.5229 322.393V322.123L81.5341 321.016C81.6528 320.887 81.7505 320.774 81.8273 320.678C81.9041 320.582 81.9609 320.491 81.9978 320.406C82.0357 320.32 82.0547 320.231 82.0547 320.137C82.0547 320.029 82.0287 319.936 81.9769 319.857C81.926 319.778 81.8562 319.717 81.7675 319.675C81.6787 319.632 81.579 319.61 81.4683 319.61C81.3506 319.61 81.2479 319.635 81.1601 319.684C81.0734 319.731 81.0061 319.799 80.9582 319.886C80.9113 319.972 80.8879 320.074 80.8879 320.191H80.5349C80.5349 320.011 80.5763 319.854 80.659 319.718C80.7418 319.582 80.8545 319.477 80.9971 319.401C81.1407 319.325 81.3018 319.287 81.4803 319.287C81.6598 319.287 81.8188 319.325 81.9574 319.401C82.0961 319.477 82.2048 319.579 82.2835 319.707C82.3623 319.836 82.4017 319.979 82.4017 320.137C82.4017 320.249 82.3813 320.36 82.3404 320.467C82.3005 320.574 82.2307 320.693 82.131 320.825C82.0322 320.956 81.8951 321.115 81.7196 321.304L81.0315 322.04V322.063H82.4556V322.393H80.5229Z" fill="white"/>
<rect x="318.387" y="334.82" width="45.2979" height="45.2979" fill="white" fill-opacity="0.2" stroke="white" stroke-width="1.875" stroke-linejoin="round"/>
<rect x="318.387" y="289.522" width="64.0611" height="64.0611" transform="rotate(45 318.387 289.522)" fill="white" fill-opacity="0.2" stroke="white" stroke-width="1.875" stroke-linejoin="round"/>
<path d="M363.683 334.82C363.683 328.872 362.511 322.981 360.235 317.486C357.958 311.99 354.622 306.996 350.415 302.79C346.209 298.584 341.215 295.247 335.72 292.971C330.224 290.694 324.333 289.522 318.385 289.522C312.436 289.522 306.546 290.694 301.05 292.971C295.554 295.247 290.561 298.584 286.354 302.79C282.148 306.996 278.811 311.99 276.535 317.486C274.259 322.981 273.087 328.872 273.087 334.82" stroke="white" stroke-width="1.875" stroke-linejoin="round"/>
<rect x="363.688" y="244.225" width="90.5959" height="90.5959" transform="rotate(90 363.688 244.225)" fill="white" fill-opacity="0.2" stroke="white" stroke-width="1.875" stroke-linejoin="round"/>
<path d="M363.685 334.82C388.324 310.181 388.324 268.863 363.685 244.224C339.046 219.585 297.728 219.585 273.089 244.224" stroke="white" stroke-width="1.875" stroke-linejoin="round"/>
<rect x="363.688" y="244.225" width="128.122" height="128.122" transform="rotate(135 363.688 244.225)" fill="white" fill-opacity="0.2" stroke="white" stroke-width="1.875" stroke-linejoin="round"/>
<path d="M182.496 244.225C182.496 220.197 192.041 197.154 209.031 180.164C226.021 163.174 249.064 153.629 273.092 153.629C297.119 153.629 320.163 163.174 337.153 180.164C354.143 197.154 363.687 220.197 363.688 244.225" stroke="white" stroke-width="1.875" stroke-linejoin="round"/>
<rect x="363.688" y="244.225" width="181.192" height="181.192" transform="rotate(180 363.688 244.225)" fill="white" fill-opacity="0.2" stroke="white" stroke-width="1.875" stroke-linejoin="round"/>
<path d="M363.684 244.224C387.738 220.171 401.262 187.559 401.282 153.562C401.302 119.565 387.816 86.9692 363.791 62.9441C339.766 38.919 307.169 25.4331 273.173 25.4531C239.176 25.473 206.564 38.9973 182.511 63.0506" stroke="white" stroke-width="1.875" stroke-linejoin="round"/>
<path d="M363.688 63.0322L182.496 244.224" stroke="white" stroke-width="1.875" stroke-linejoin="round"/>
</svg>
