<svg width="448" height="400" viewBox="0 0 448 400" fill="none" xmlns="http://www.w3.org/2000/svg">
<path d="M180.268 123.672C193.611 115.998 208.736 111.963 224.128 111.971C239.521 111.978 254.642 116.028 267.977 123.715C267.977 123.767 267.977 123.82 267.977 123.872C267.912 156.229 250.377 184.467 224.296 199.64L224.171 199.713L224.044 199.643C210.775 191.915 199.756 180.855 192.078 167.559C184.399 154.262 180.328 139.189 180.268 123.835C180.265 123.78 180.268 123.727 180.268 123.672Z" fill="#C98060"/>
<path d="M136.336 199.893L136.466 199.823C164.498 183.729 197.723 184.824 223.92 199.86L224.045 199.933V200.078C224.011 215.422 219.962 230.491 212.298 243.785C204.635 257.079 193.626 268.136 180.364 275.856L180.227 275.933C154.024 260.725 136.383 232.36 136.336 199.893Z" fill="#C98060"/>
<path d="M224.3 199.93L224.425 199.858C237.738 192.231 252.815 188.222 268.157 188.229C283.5 188.236 298.574 192.259 311.879 199.898L312.009 199.973C312.009 232.44 294.398 260.78 268.216 275.966C268.171 275.938 268.123 275.913 268.078 275.883C240.106 259.622 224.422 230.28 224.305 200.078C224.301 200.029 224.299 199.979 224.3 199.93V199.93Z" fill="#C98060"/>
<path d="M135.501 162.069C144.334 162.069 152.894 165.132 159.722 170.735C166.55 176.339 171.224 184.137 172.948 192.8C174.671 201.463 173.337 210.456 169.174 218.246C165.01 226.036 158.274 232.142 150.113 235.522C141.952 238.903 132.872 239.349 124.419 236.785C115.967 234.221 108.664 228.805 103.757 221.461C98.8494 214.117 96.6403 205.298 97.5059 196.507C98.3716 187.717 102.259 179.498 108.504 173.252C112.041 169.696 116.249 166.876 120.883 164.957C125.517 163.037 130.485 162.056 135.501 162.069ZM135.501 154.999C110.519 154.999 90.2512 175.267 90.2512 200.249C90.2512 225.231 110.519 245.499 135.501 245.499C160.483 245.499 180.751 225.231 180.751 200.249C180.751 175.267 160.483 154.999 135.501 154.999Z" fill="#C98060"/>
<path d="M135.498 174.41C141.476 174.411 147.268 176.484 151.888 180.276C156.509 184.069 159.671 189.346 160.837 195.208C162.003 201.071 161.1 207.157 158.282 212.428C155.463 217.7 150.905 221.831 145.382 224.118C139.86 226.406 133.715 226.707 127.995 224.972C122.275 223.237 117.333 219.572 114.013 214.601C110.692 209.631 109.197 203.663 109.783 197.715C110.369 191.766 112.999 186.204 117.226 181.978C119.62 179.571 122.468 177.662 125.604 176.363C128.74 175.064 132.103 174.401 135.498 174.41V174.41ZM135.498 167.34C128.989 167.34 122.626 169.27 117.214 172.886C111.802 176.502 107.584 181.642 105.093 187.656C102.602 193.669 101.951 200.286 103.221 206.67C104.49 213.054 107.625 218.918 112.227 223.521C116.83 228.123 122.694 231.258 129.078 232.527C135.462 233.797 142.079 233.145 148.092 230.655C154.106 228.164 159.246 223.946 162.862 218.534C166.478 213.122 168.408 206.759 168.408 200.25C168.408 191.522 164.941 183.151 158.769 176.979C152.597 170.807 144.226 167.34 135.498 167.34Z" fill="#C98060"/>
<path d="M135.502 186.749C138.173 186.749 140.783 187.541 143.004 189.024C145.224 190.508 146.955 192.617 147.977 195.084C148.999 197.551 149.266 200.266 148.745 202.885C148.224 205.504 146.938 207.91 145.05 209.798C143.162 211.687 140.756 212.973 138.137 213.493C135.517 214.014 132.803 213.747 130.336 212.725C127.868 211.703 125.76 209.973 124.276 207.752C122.792 205.532 122 202.921 122 200.251C122.004 196.671 123.428 193.239 125.959 190.708C128.491 188.176 131.923 186.753 135.502 186.749V186.749ZM135.502 179.679C131.434 179.679 127.456 180.885 124.073 183.146C120.69 185.406 118.053 188.619 116.496 192.378C114.939 196.137 114.532 200.274 115.325 204.264C116.119 208.255 118.079 211.921 120.956 214.798C123.833 217.675 127.498 219.634 131.489 220.428C135.48 221.222 139.616 220.814 143.375 219.257C147.134 217.7 150.347 215.063 152.608 211.68C154.868 208.297 156.075 204.32 156.075 200.251C156.075 194.795 153.907 189.562 150.049 185.704C146.191 181.846 140.959 179.679 135.502 179.679V179.679Z" fill="#C98060"/>
<path d="M135.499 211.563C141.747 211.563 146.811 206.499 146.811 200.251C146.811 194.003 141.747 188.938 135.499 188.938C129.251 188.938 124.186 194.003 124.186 200.251C124.186 206.499 129.251 211.563 135.499 211.563Z" fill="#C98060"/>
<path d="M224.004 162.069C232.837 162.069 241.397 165.132 248.225 170.735C255.053 176.339 259.727 184.137 261.451 192.8C263.174 201.463 261.84 210.456 257.676 218.246C253.513 226.036 246.776 232.142 238.616 235.522C230.455 238.903 221.375 239.349 212.922 236.785C204.469 234.221 197.167 228.805 192.26 221.461C187.352 214.117 185.143 205.298 186.009 196.507C186.874 187.717 190.761 179.498 197.007 173.252C200.544 169.696 204.751 166.876 209.385 164.957C214.019 163.037 218.988 162.056 224.004 162.069ZM224.004 154.999C199.022 154.999 178.754 175.267 178.754 200.249C178.754 225.231 199.022 245.499 224.004 245.499C248.986 245.499 269.254 225.231 269.254 200.249C269.254 175.267 248.986 154.999 224.004 154.999Z" fill="#C98060"/>
<path d="M224.001 174.41C229.979 174.411 235.771 176.484 240.391 180.276C245.012 184.069 248.174 189.346 249.34 195.208C250.506 201.071 249.603 207.157 246.784 212.428C243.966 217.7 239.408 221.831 233.885 224.118C228.363 226.406 222.218 226.707 216.498 224.972C210.778 223.237 205.836 219.572 202.516 214.601C199.195 209.631 197.7 203.663 198.286 197.715C198.872 191.766 201.502 186.204 205.729 181.978C208.123 179.571 210.97 177.662 214.107 176.363C217.243 175.064 220.606 174.401 224.001 174.41V174.41ZM224.001 167.34C217.492 167.34 211.129 169.27 205.717 172.886C200.305 176.502 196.087 181.642 193.596 187.656C191.105 193.669 190.454 200.286 191.723 206.67C192.993 213.054 196.128 218.918 200.73 223.521C205.333 228.123 211.197 231.258 217.581 232.527C223.965 233.797 230.582 233.145 236.595 230.655C242.609 228.164 247.748 223.946 251.365 218.534C254.981 213.122 256.911 206.759 256.911 200.25C256.911 191.522 253.444 183.151 247.272 176.979C241.1 170.807 232.729 167.34 224.001 167.34Z" fill="#C98060"/>
<path d="M224.005 186.749C226.676 186.749 229.286 187.541 231.506 189.024C233.727 190.508 235.457 192.617 236.479 195.084C237.501 197.551 237.769 200.266 237.248 202.885C236.727 205.504 235.441 207.91 233.552 209.798C231.664 211.687 229.258 212.973 226.639 213.493C224.02 214.014 221.305 213.747 218.838 212.725C216.371 211.703 214.262 209.973 212.779 207.752C211.295 205.532 210.503 202.921 210.503 200.251C210.507 196.671 211.931 193.239 214.462 190.708C216.993 188.176 220.425 186.753 224.005 186.749V186.749ZM224.005 179.679C219.936 179.679 215.959 180.885 212.576 183.146C209.193 185.406 206.556 188.619 204.999 192.378C203.442 196.137 203.034 200.274 203.828 204.264C204.622 208.255 206.581 211.921 209.458 214.798C212.335 217.675 216.001 219.634 219.992 220.428C223.982 221.222 228.119 220.814 231.878 219.257C235.637 217.7 238.85 215.063 241.11 211.68C243.371 208.297 244.577 204.32 244.577 200.251C244.577 194.795 242.41 189.562 238.552 185.704C234.694 181.846 229.461 179.679 224.005 179.679V179.679Z" fill="#C98060"/>
<path d="M224.001 211.563C230.249 211.563 235.314 206.499 235.314 200.251C235.314 194.003 230.249 188.938 224.001 188.938C217.754 188.938 212.689 194.003 212.689 200.251C212.689 206.499 217.754 211.563 224.001 211.563Z" fill="#C98060"/>
<path d="M312.485 162.069C321.318 162.069 329.878 165.132 336.706 170.735C343.535 176.339 348.209 184.137 349.932 192.8C351.655 201.463 350.322 210.456 346.158 218.246C341.994 226.036 335.258 232.142 327.097 235.522C318.937 238.903 309.856 239.349 301.403 236.785C292.951 234.221 285.648 228.805 280.741 221.461C275.833 214.117 273.624 205.298 274.49 196.507C275.356 187.717 279.243 179.498 285.489 173.252C289.026 169.696 293.233 166.876 297.867 164.957C302.501 163.037 307.47 162.056 312.485 162.069ZM312.485 154.999C287.504 154.999 267.235 175.267 267.235 200.249C267.235 225.231 287.504 245.499 312.485 245.499C337.467 245.499 357.735 225.231 357.735 200.249C357.735 175.267 337.467 154.999 312.485 154.999Z" fill="#C98060"/>
<path d="M312.482 174.408C318.46 174.409 324.252 176.482 328.872 180.274C333.493 184.067 336.655 189.344 337.821 195.207C338.987 201.069 338.084 207.155 335.266 212.426C332.448 217.698 327.889 221.829 322.366 224.116C316.844 226.404 310.699 226.705 304.979 224.97C299.259 223.235 294.318 219.57 290.997 214.599C287.676 209.629 286.181 203.661 286.767 197.713C287.353 191.764 289.983 186.202 294.21 181.976C296.604 179.569 299.452 177.66 302.588 176.361C305.725 175.062 309.087 174.399 312.482 174.408V174.408ZM312.482 167.338C305.973 167.338 299.61 169.268 294.198 172.884C288.786 176.5 284.568 181.64 282.077 187.654C279.587 193.667 278.935 200.284 280.205 206.668C281.474 213.052 284.609 218.916 289.211 223.519C293.814 228.121 299.678 231.256 306.062 232.525C312.446 233.795 319.063 233.144 325.076 230.653C331.09 228.162 336.23 223.944 339.846 218.532C343.462 213.12 345.392 206.757 345.392 200.248C345.392 191.52 341.925 183.149 335.753 176.977C329.581 170.805 321.21 167.338 312.482 167.338Z" fill="#C98060"/>
<path d="M312.487 186.749C315.157 186.749 317.767 187.541 319.988 189.024C322.208 190.508 323.939 192.617 324.961 195.084C325.983 197.551 326.25 200.266 325.729 202.885C325.208 205.504 323.922 207.91 322.034 209.798C320.146 211.687 317.74 212.973 315.121 213.493C312.502 214.014 309.787 213.747 307.32 212.725C304.852 211.703 302.744 209.973 301.26 207.752C299.776 205.532 298.985 202.921 298.985 200.251C298.988 196.671 300.412 193.239 302.943 190.708C305.475 188.176 308.907 186.753 312.487 186.749V186.749ZM312.487 179.679C308.418 179.679 304.44 180.885 301.057 183.146C297.674 185.406 295.037 188.619 293.48 192.378C291.923 196.137 291.516 200.274 292.31 204.264C293.103 208.255 295.063 211.921 297.94 214.798C300.817 217.675 304.482 219.634 308.473 220.428C312.464 221.222 316.6 220.814 320.359 219.257C324.118 217.7 327.331 215.063 329.592 211.68C331.852 208.297 333.059 204.32 333.059 200.251C333.059 194.795 330.891 189.562 327.033 185.704C323.175 181.846 317.943 179.679 312.487 179.679V179.679Z" fill="#C98060"/>
<path d="M312.483 211.563C318.731 211.563 323.795 206.499 323.795 200.251C323.795 194.003 318.731 188.938 312.483 188.938C306.235 188.938 301.17 194.003 301.17 200.251C301.17 206.499 306.235 211.563 312.483 211.563Z" fill="#C98060"/>
<path d="M212.809 104.515C217.226 112.164 218.854 121.109 217.415 129.824C215.976 138.539 211.56 146.486 204.919 152.31C198.278 158.134 189.823 161.475 180.995 161.764C172.166 162.054 163.511 159.273 156.503 153.895C149.495 148.518 144.569 140.878 142.563 132.275C140.557 123.673 141.596 114.641 145.502 106.719C149.409 98.797 155.942 92.4744 163.988 88.8289C172.033 85.1833 181.094 84.4402 189.626 86.7263C194.475 88.0112 199.02 90.245 203 93.2984C206.979 96.3518 210.313 100.164 212.809 104.515ZM218.932 100.98C206.441 79.3448 178.755 71.9261 157.12 84.417C135.485 96.9079 128.066 124.595 140.557 146.23C153.048 167.865 180.735 175.283 202.37 162.792C224.005 150.301 231.423 122.615 218.932 100.98Z" fill="#C98060"/>
<path d="M202.122 110.684C205.11 115.861 206.211 121.914 205.237 127.812C204.263 133.709 201.274 139.087 196.779 143.028C192.285 146.969 186.563 149.229 180.589 149.425C174.615 149.62 168.758 147.738 164.015 144.099C159.273 140.459 155.94 135.289 154.583 129.467C153.225 123.646 153.929 117.534 156.573 112.173C159.216 106.812 163.637 102.534 169.082 100.067C174.527 97.5998 180.658 97.0971 186.432 98.6442C189.714 99.5138 192.79 101.026 195.483 103.093C198.176 105.159 200.433 107.74 202.122 110.684V110.684ZM208.245 107.149C204.991 101.512 200.138 96.9671 194.3 94.0882C188.462 91.2094 181.902 90.1263 175.449 90.9759C168.995 91.8254 162.939 94.5696 158.045 98.8613C153.151 103.153 149.64 108.799 147.956 115.087C146.271 121.374 146.489 128.019 148.581 134.183C150.673 140.346 154.546 145.751 159.71 149.713C164.874 153.676 171.097 156.018 177.592 156.444C184.087 156.869 190.562 155.36 196.199 152.105C203.758 147.741 209.274 140.553 211.533 132.122C213.792 123.691 212.609 114.708 208.245 107.149Z" fill="#C98060"/>
<path d="M191.432 116.856C192.768 119.169 193.387 121.825 193.212 124.49C193.038 127.155 192.077 129.708 190.451 131.827C188.825 133.945 186.608 135.534 184.079 136.393C181.551 137.251 178.824 137.34 176.245 136.649C173.665 135.958 171.349 134.517 169.588 132.51C167.827 130.502 166.701 128.017 166.353 125.369C166.004 122.722 166.449 120.03 167.63 117.635C168.811 115.24 170.676 113.249 172.988 111.914C176.09 110.127 179.775 109.644 183.232 110.571C186.69 111.497 189.639 113.758 191.432 116.856V116.856ZM197.555 113.321C195.521 109.797 192.487 106.956 188.838 105.156C185.189 103.357 181.088 102.68 177.054 103.211C173.02 103.742 169.234 105.457 166.175 108.14C163.116 110.823 160.921 114.352 159.868 118.283C158.815 122.213 158.951 126.367 160.259 130.22C161.567 134.073 163.988 137.451 167.216 139.928C170.444 142.405 174.334 143.869 178.394 144.135C182.454 144.401 186.502 143.458 190.025 141.423C194.751 138.695 198.198 134.202 199.611 128.932C201.023 123.661 200.283 118.046 197.555 113.321V113.321Z" fill="#C98060"/>
<path d="M169.947 129.259C173.071 134.67 179.99 136.523 185.4 133.399C190.811 130.276 192.665 123.357 189.541 117.946C186.417 112.536 179.499 110.682 174.088 113.806C168.677 116.93 166.823 123.848 169.947 129.259Z" fill="#C98060"/>
<path d="M301.319 257.804C305.736 265.453 307.363 274.398 305.925 283.113C304.486 291.828 300.07 299.775 293.429 305.599C286.788 311.423 278.333 314.764 269.505 315.053C260.676 315.343 252.021 312.562 245.013 307.185C238.005 301.807 233.078 294.167 231.073 285.564C229.067 276.962 230.106 267.93 234.012 260.008C237.919 252.086 244.452 245.763 252.497 242.118C260.543 238.472 269.604 237.729 278.136 240.015C282.984 241.3 287.53 243.534 291.509 246.587C295.489 249.641 298.823 253.453 301.319 257.804ZM307.442 254.269C294.951 232.634 267.264 225.215 245.629 237.706C223.995 250.197 216.576 277.884 229.067 299.519C241.558 321.154 269.245 328.572 290.879 316.081C312.514 303.59 319.933 275.904 307.442 254.269Z" fill="#C98060"/>
<path d="M290.632 263.974C293.62 269.15 294.721 275.203 293.747 281.101C292.773 286.998 289.784 292.376 285.289 296.317C280.795 300.258 275.073 302.518 269.099 302.714C263.124 302.909 257.267 301.027 252.525 297.388C247.783 293.748 244.449 288.578 243.092 282.756C241.735 276.935 242.438 270.823 245.082 265.462C247.726 260.101 252.147 255.823 257.592 253.356C263.037 250.889 269.168 250.386 274.942 251.933C278.223 252.803 281.3 254.315 283.993 256.382C286.686 258.448 288.943 261.029 290.632 263.974V263.974ZM296.755 260.438C293.5 254.801 288.647 250.256 282.81 247.377C276.972 244.498 270.412 243.415 263.958 244.265C257.505 245.115 251.449 247.859 246.555 252.15C241.661 256.442 238.15 262.088 236.465 268.376C234.781 274.663 234.998 281.308 237.091 287.472C239.183 293.635 243.056 299.04 248.22 303.003C253.384 306.965 259.606 309.307 266.102 309.733C272.597 310.159 279.072 308.649 284.709 305.394C292.268 301.03 297.784 293.842 300.043 285.411C302.302 276.98 301.119 267.997 296.755 260.438Z" fill="#C98060"/>
<path d="M279.942 270.146C281.277 272.459 281.897 275.116 281.722 277.78C281.547 280.445 280.587 282.998 278.961 285.117C277.335 287.235 275.118 288.824 272.589 289.683C270.06 290.541 267.334 290.63 264.755 289.939C262.175 289.248 259.859 287.807 258.098 285.8C256.337 283.792 255.211 281.307 254.863 278.66C254.514 276.012 254.958 273.32 256.14 270.925C257.321 268.53 259.185 266.539 261.498 265.204C264.6 263.417 268.284 262.934 271.742 263.861C275.2 264.787 278.149 267.048 279.942 270.146V270.146ZM286.065 266.611C284.031 263.087 280.997 260.246 277.348 258.446C273.699 256.647 269.598 255.97 265.564 256.501C261.53 257.032 257.744 258.747 254.685 261.43C251.626 264.113 249.431 267.643 248.378 271.573C247.325 275.503 247.461 279.657 248.769 283.51C250.076 287.363 252.497 290.741 255.725 293.218C258.953 295.695 262.844 297.159 266.904 297.425C270.964 297.691 275.012 296.748 278.535 294.713C283.26 291.985 286.708 287.492 288.12 282.222C289.533 276.951 288.793 271.336 286.065 266.611V266.611Z" fill="#C98060"/>
<path d="M258.457 282.551C261.581 287.962 268.499 289.815 273.91 286.691C279.321 283.568 281.175 276.649 278.051 271.238C274.927 265.828 268.008 263.974 262.598 267.098C257.187 270.222 255.333 277.14 258.457 282.551Z" fill="#C98060"/>
<path d="M301.312 142.697C296.895 150.347 289.963 156.229 281.696 159.341C273.429 162.452 264.339 162.601 255.975 159.762C247.611 156.923 240.489 151.271 235.825 143.77C231.16 136.269 229.241 127.383 230.394 118.625C231.547 109.868 235.7 101.781 242.147 95.7425C248.594 89.7042 256.935 86.088 265.749 85.5102C274.563 84.9324 283.305 87.4286 290.485 92.5736C297.665 97.7186 302.839 105.194 305.126 113.726C306.437 118.567 306.775 123.621 306.121 128.594C305.466 133.567 303.831 138.36 301.312 142.697ZM307.435 146.233C319.926 124.598 312.507 96.9108 290.872 84.4199C269.237 71.929 241.55 79.3477 229.059 100.983C216.569 122.617 223.987 150.304 245.622 162.795C267.257 175.286 294.944 167.867 307.435 146.233Z" fill="#C98060"/>
<path d="M290.624 136.527C287.635 141.704 282.943 145.683 277.349 147.789C271.754 149.894 265.603 149.994 259.943 148.072C254.283 146.15 249.464 142.325 246.308 137.249C243.151 132.173 241.853 126.159 242.633 120.233C243.414 114.307 246.225 108.834 250.588 104.748C254.951 100.662 260.596 98.2154 266.56 97.8246C272.525 97.4338 278.441 99.1232 283.299 102.605C288.158 106.087 291.659 111.146 293.206 116.919C294.094 120.196 294.323 123.616 293.88 126.982C293.436 130.348 292.33 133.592 290.624 136.527V136.527ZM296.747 140.062C300.002 134.425 301.512 127.95 301.086 121.455C300.66 114.96 298.318 108.737 294.356 103.573C290.393 98.4092 284.988 94.5362 278.825 92.444C272.661 90.3518 266.016 90.1342 259.729 91.8188C253.441 93.5035 247.795 97.0147 243.503 101.908C239.212 106.802 236.468 112.859 235.618 119.312C234.768 125.765 235.851 132.325 238.73 138.163C241.609 144.001 246.154 148.854 251.791 152.108C259.35 156.472 268.333 157.655 276.764 155.396C285.195 153.137 292.383 147.621 296.747 140.062Z" fill="#C98060"/>
<path d="M279.939 130.359C278.603 132.672 276.612 134.537 274.217 135.718C271.822 136.899 269.131 137.343 266.483 136.994C263.836 136.646 261.351 135.52 259.343 133.759C257.335 131.999 255.895 129.682 255.204 127.103C254.513 124.523 254.602 121.797 255.46 119.268C256.319 116.739 257.908 114.522 260.026 112.896C262.145 111.271 264.698 110.31 267.363 110.135C270.027 109.96 272.684 110.58 274.997 111.915C278.095 113.708 280.355 116.657 281.282 120.115C282.208 123.573 281.725 127.257 279.939 130.359V130.359ZM286.062 133.894C288.096 130.371 289.04 126.323 288.774 122.263C288.508 118.203 287.044 114.313 284.567 111.085C282.09 107.857 278.711 105.435 274.858 104.128C271.006 102.82 266.851 102.684 262.921 103.737C258.991 104.79 255.461 106.985 252.779 110.044C250.096 113.103 248.38 116.889 247.849 120.923C247.318 124.957 247.995 129.058 249.795 132.707C251.595 136.356 254.436 139.39 257.96 141.424C262.685 144.152 268.3 144.892 273.57 143.479C278.84 142.067 283.334 138.619 286.062 133.894V133.894Z" fill="#C98060"/>
<path d="M258.452 117.952C255.328 123.363 257.182 130.281 262.592 133.405C268.003 136.529 274.922 134.675 278.046 129.265C281.17 123.854 279.316 116.935 273.905 113.812C268.494 110.688 261.576 112.541 258.452 117.952Z" fill="#C98060"/>
<path d="M212.814 295.983C208.398 303.632 201.466 309.514 193.199 312.626C184.932 315.737 175.842 315.886 167.477 313.047C159.113 310.208 151.992 304.556 147.327 297.055C142.663 289.554 140.743 280.668 141.896 271.91C143.049 263.153 147.203 255.066 153.65 249.028C160.096 242.989 168.438 239.373 177.252 238.795C186.066 238.218 194.808 240.714 201.988 245.859C209.168 251.004 214.342 258.479 216.628 267.011C217.939 271.853 218.278 276.906 217.623 281.879C216.968 286.852 215.334 291.646 212.814 295.983ZM218.937 299.518C231.428 277.883 224.009 250.196 202.375 237.705C180.74 225.214 153.053 232.633 140.562 254.268C128.071 275.903 135.49 303.589 157.125 316.08C178.759 328.571 206.446 321.153 218.937 299.518Z" fill="#C98060"/>
<path d="M202.127 289.813C199.137 294.99 194.446 298.97 188.851 301.075C183.257 303.18 177.105 303.28 171.445 301.358C165.785 299.436 160.966 295.612 157.81 290.535C154.654 285.459 153.355 279.445 154.136 273.519C154.916 267.593 157.728 262.12 162.09 258.034C166.453 253.948 172.098 251.502 178.063 251.111C184.027 250.72 189.943 252.409 194.802 255.891C199.661 259.373 203.162 264.432 204.709 270.206C205.596 273.482 205.825 276.902 205.382 280.268C204.939 283.634 203.832 286.878 202.127 289.813V289.813ZM208.25 293.349C211.504 287.712 213.014 281.236 212.588 274.741C212.163 268.246 209.82 262.023 205.858 256.859C201.896 251.695 196.491 247.822 190.327 245.73C184.164 243.638 177.518 243.42 171.231 245.105C164.944 246.79 159.297 250.301 155.006 255.195C150.714 260.088 147.97 266.145 147.12 272.598C146.271 279.051 147.354 285.612 150.233 291.449C153.112 297.287 157.657 302.14 163.294 305.394C170.853 309.759 179.836 310.941 188.267 308.682C196.697 306.423 203.885 300.907 208.25 293.349Z" fill="#C98060"/>
<path d="M191.441 283.644C190.106 285.957 188.115 287.822 185.72 289.003C183.325 290.184 180.633 290.628 177.986 290.28C175.338 289.931 172.853 288.805 170.846 287.045C168.838 285.284 167.397 282.967 166.706 280.388C166.015 277.808 166.104 275.082 166.963 272.553C167.821 270.024 169.41 267.807 171.529 266.181C173.647 264.556 176.2 263.595 178.865 263.42C181.53 263.246 184.186 263.865 186.499 265.2C189.597 266.993 191.858 269.942 192.784 273.4C193.711 276.858 193.228 280.542 191.441 283.644V283.644ZM197.564 287.179C199.599 283.656 200.542 279.608 200.276 275.548C200.01 271.488 198.546 267.598 196.069 264.37C193.592 261.142 190.214 258.721 186.361 257.413C182.508 256.105 178.354 255.969 174.424 257.022C170.493 258.075 166.964 260.27 164.281 263.329C161.598 266.388 159.883 270.174 159.352 274.208C158.821 278.242 159.498 282.343 161.297 285.992C163.097 289.641 165.938 292.675 169.462 294.709C174.187 297.437 179.802 298.177 185.073 296.765C190.343 295.352 194.836 291.905 197.564 287.179V287.179Z" fill="#C98060"/>
<path d="M169.954 271.237C166.83 276.648 168.684 283.567 174.095 286.691C179.506 289.814 186.424 287.961 189.548 282.55C192.672 277.139 190.818 270.221 185.407 267.097C179.997 263.973 173.078 265.827 169.954 271.237Z" fill="#C98060"/>
<path d="M311.999 288.246C360.6 288.246 399.999 248.847 399.999 200.246C399.999 151.645 360.6 112.246 311.999 112.246C263.398 112.246 223.999 151.645 223.999 200.246C223.999 248.847 263.398 288.246 311.999 288.246Z" stroke="#C98060" stroke-width="2.375" stroke-linecap="round" stroke-linejoin="round"/>
<path d="M135.992 288.246C184.593 288.246 223.992 248.847 223.992 200.246C223.992 151.645 184.593 112.246 135.992 112.246C87.3914 112.246 47.9924 151.645 47.9924 200.246C47.9924 248.847 87.3914 288.246 135.992 288.246Z" stroke="#C98060" stroke-width="2.375" stroke-linecap="round" stroke-linejoin="round"/>
<path d="M223.995 288.246C272.596 288.246 311.995 248.847 311.995 200.246C311.995 151.645 272.596 112.246 223.995 112.246C175.394 112.246 135.995 151.645 135.995 200.246C135.995 248.847 175.394 288.246 223.995 288.246Z" stroke="#C98060" stroke-width="2.375" stroke-linecap="round" stroke-linejoin="round"/>
<path d="M191.795 320.456C216.096 362.546 269.916 376.967 312.006 352.667C354.095 328.366 368.516 274.546 344.216 232.456C319.915 190.367 266.095 175.946 224.006 200.246C181.916 224.547 167.495 278.367 191.795 320.456Z" stroke="#C98060" stroke-width="2.375" stroke-linecap="round" stroke-linejoin="round"/>
<path d="M103.791 168.039C128.091 210.129 181.911 224.55 224.001 200.25C266.091 175.949 280.512 122.129 256.211 80.0393C231.911 37.9496 178.091 23.5286 136.001 47.8291C93.9114 72.1296 79.4904 125.95 103.791 168.039Z" stroke="#C98060" stroke-width="2.375" stroke-linecap="round" stroke-linejoin="round"/>
<path d="M103.795 232.458C79.4948 274.548 93.9158 328.368 136.006 352.669C178.095 376.969 231.915 362.548 256.216 320.458C280.516 278.369 266.095 224.549 224.006 200.248C181.916 175.948 128.096 190.369 103.795 232.458Z" stroke="#C98060" stroke-width="2.375" stroke-linecap="round" stroke-linejoin="round"/>
<path d="M191.79 80.0393C167.489 122.129 181.91 175.949 224 200.25C266.09 224.55 319.91 210.129 344.21 168.039C368.511 125.95 354.09 72.1296 312 47.8291C269.91 23.5286 216.09 37.9496 191.79 80.0393Z" stroke="#C98060" stroke-width="2.375" stroke-linecap="round" stroke-linejoin="round"/>
</svg>
