<svg width="448" height="400" viewBox="0 0 448 400" fill="none" xmlns="http://www.w3.org/2000/svg">
<g clip-path="url(#clip0_687_66879)">
<rect x="-136.002" y="75.1133" width="296.294" height="261.047" stroke="#F5D245" stroke-width="2" stroke-linejoin="round"/>
<rect x="160.285" y="75.1152" width="130.369" height="261.047" stroke="#F5D245" stroke-width="2" stroke-linejoin="round"/>
<rect x="290.654" y="75.1152" width="296.294" height="261.047" stroke="#F5D245" stroke-width="2" stroke-linejoin="round"/>
<rect x="160.285" y="75.1152" width="130.369" height="107.029" stroke="#F5D245" stroke-width="2" stroke-linejoin="round"/>
<rect x="160.285" y="229.131" width="130.369" height="107.029" stroke="#F5D245" stroke-width="2" stroke-linejoin="round"/>
<rect x="160.301" y="182.144" width="53.3329" height="46.9885" stroke="#F5D245" stroke-width="2" stroke-linejoin="round"/>
<rect x="238.816" y="182.142" width="51.8514" height="46.9885" stroke="#F5D245" stroke-width="2" stroke-linejoin="round"/>
<rect x="213.625" y="182.142" width="25.185" height="46.9885" stroke="#F5D245" stroke-width="2" stroke-linejoin="round"/>
<rect x="238.816" y="182.142" width="18.2733" height="25.185" transform="rotate(90 238.816 182.142)" stroke="#F5D245" stroke-width="2" stroke-linejoin="round"/>
<rect x="238.816" y="210.854" width="18.2733" height="25.185" transform="rotate(90 238.816 210.854)" stroke="#F5D245" stroke-width="2" stroke-linejoin="round"/>
<rect x="238.816" y="200.414" width="10.4419" height="25.185" transform="rotate(90 238.816 200.414)" stroke="#F5D245" stroke-width="2" stroke-linejoin="round"/>
<path d="M160.292 75.1133L160.292 336.16H-136.002C-136.002 301.879 -128.338 267.934 -113.448 236.262C-98.5578 204.59 -76.7329 175.813 -49.2195 151.572C-21.706 127.332 10.9571 108.103 46.9052 94.9843C82.8532 81.8655 121.382 75.1133 160.292 75.1133ZM160.292 75.1133L160.293 182.143H290.663M160.292 75.1133C177.412 75.1133 194.366 77.8817 210.183 83.2604C226.001 88.6391 240.372 96.5229 252.478 106.461C264.584 116.4 274.187 128.199 280.739 141.184C287.29 154.17 290.663 168.087 290.663 182.143M290.663 182.143C290.663 188.313 289.321 194.423 286.716 200.124C284.11 205.825 280.29 211.005 275.476 215.368C270.661 219.732 264.945 223.193 258.654 225.554C252.363 227.916 245.62 229.131 238.811 229.131M290.663 182.143L238.811 229.131M238.811 229.131V210.858H218.071C218.071 213.257 218.608 215.634 219.65 217.851C220.692 220.068 222.22 222.082 224.146 223.779C226.072 225.476 228.359 226.822 230.875 227.74C233.391 228.658 236.088 229.131 238.811 229.131Z" stroke="#F5D245" stroke-width="2" stroke-linejoin="round"/>
<path d="M290.656 336.162L290.656 75.1152H586.95C586.95 109.396 579.286 143.342 564.396 175.014C549.505 206.685 527.681 235.463 500.167 259.703C472.654 283.944 439.991 303.172 404.042 316.291C368.094 329.41 329.566 336.162 290.656 336.162ZM290.656 336.162L290.654 229.133H160.285M290.656 336.162C273.535 336.162 256.581 333.394 240.764 328.015C224.947 322.636 210.575 314.753 198.469 304.814C186.364 294.876 176.761 283.077 170.209 270.091C163.657 257.106 160.285 243.188 160.285 229.133M160.285 229.133C160.285 222.962 161.626 216.852 164.232 211.151C166.838 205.45 170.657 200.27 175.472 195.907C180.287 191.544 186.003 188.083 192.294 185.721C198.585 183.36 205.327 182.145 212.136 182.144M160.285 229.133L212.136 182.144M160.285 229.133L212.137 229.133V200.418M212.136 182.144C214.859 182.145 217.557 182.617 220.073 183.535C222.589 184.454 224.876 185.8 226.802 187.497C228.727 189.193 230.255 191.208 231.298 193.425C232.34 195.642 232.876 198.018 232.876 200.418H212.137M212.136 182.144L212.137 200.418" stroke="#F5D245" stroke-width="2" stroke-linejoin="round"/>
</g>
<defs>
<clipPath id="clip0_687_66879">
<rect width="448" height="400" rx="4" fill="white"/>
</clipPath>
</defs>
</svg>
