<svg width="448" height="400" viewBox="0 0 448 400" fill="none" xmlns="http://www.w3.org/2000/svg">
<g clip-path="url(#clip0_687_67811)">
<rect x="24" y="18.3076" width="45.8901" height="38.3092" stroke="white" stroke-width="1.90349"/>
<path d="M67.0252 54.2232C67.0252 49.5065 65.9123 44.8359 63.7501 40.4782C61.5879 36.1204 58.4187 32.1609 54.4234 28.8257C50.4282 25.4904 45.6851 22.8447 40.465 21.0397C35.245 19.2347 29.6502 18.3057 24 18.3057L24 54.2232H67.0252Z" stroke="white" stroke-width="1.90349"/>
</g>
<rect x="24.2096" y="18.5173" width="42.6059" height="35.4983" stroke="white" stroke-width="0.419287"/>
<g clip-path="url(#clip1_687_67811)">
<rect x="73.5811" y="18.3076" width="64.7051" height="38.3092" stroke="white" stroke-width="1.90349"/>
<path d="M138.115 54.225C138.115 47.1498 136.445 40.144 133.202 33.6074C129.959 27.0708 125.205 21.1315 119.212 16.1286C113.219 11.1258 106.105 7.15726 98.2745 4.44972C90.4444 1.74218 82.0521 0.348633 73.5769 0.348633L73.5769 54.225H138.115Z" stroke="white" stroke-width="1.90349"/>
</g>
<rect x="73.7865" y="18.5173" width="64.1185" height="35.4983" stroke="white" stroke-width="0.419287"/>
<g clip-path="url(#clip2_687_67811)">
<rect x="144.665" y="18.3076" width="79.3899" height="38.3092" stroke="white" stroke-width="1.90349"/>
<path d="M223.544 54.2258C223.544 45.5784 221.504 37.0157 217.54 29.0265C213.576 21.0374 207.765 13.7783 200.441 7.66363C193.116 1.549 184.421 -3.30139 174.85 -6.6106C165.28 -9.91982 155.023 -11.623 144.665 -11.623L144.665 54.2258H223.544Z" stroke="white" stroke-width="1.90349"/>
</g>
<rect x="144.876" y="18.5173" width="78.4603" height="35.4983" stroke="white" stroke-width="0.419287"/>
<g clip-path="url(#clip3_687_67811)">
<rect x="230.094" y="18.3066" width="91.3214" height="38.3092" stroke="white" stroke-width="1.90349"/>
<path d="M316.144 54.2247C316.144 44.7912 313.918 35.4501 309.594 26.7346C305.27 18.0192 298.931 10.1002 290.941 3.42966C282.95 -3.24084 273.464 -8.53218 263.024 -12.1422C252.584 -15.7523 241.394 -17.6104 230.094 -17.6104L230.094 54.2247H316.144Z" stroke="white" stroke-width="1.90349"/>
</g>
<rect x="230.308" y="18.5173" width="85.6311" height="35.4983" stroke="white" stroke-width="0.419287"/>
<g clip-path="url(#clip4_687_67811)">
<rect x="322.7" y="18.3076" width="102.335" height="38.3092" stroke="white" stroke-width="1.90349"/>
<path d="M423.093 54.2256C423.093 43.2198 420.496 32.3218 415.451 22.1538C410.406 11.9858 403.011 2.74691 393.688 -5.03535C384.366 -12.8176 373.299 -18.9908 361.119 -23.2026C348.939 -27.4143 335.884 -29.582 322.7 -29.582L322.7 54.2256H423.093Z" stroke="white" stroke-width="1.90349"/>
</g>
<rect x="322.91" y="18.5173" width="99.9729" height="35.4983" stroke="white" stroke-width="0.419287"/>
<g clip-path="url(#clip5_687_67811)">
<rect x="24" y="72.1836" width="45.8901" height="38.3092" stroke="white" stroke-width="1.90349"/>
<path d="M67.0252 108.101C67.0252 103.384 65.9123 98.7138 63.7501 94.3561C61.5879 89.9984 58.4187 86.0389 54.4234 82.7036C50.4282 79.3683 45.6851 76.7227 40.465 74.9177C35.245 73.1126 29.6502 72.1836 24 72.1836L24 108.101H67.0252Z" stroke="white" stroke-width="1.90349"/>
</g>
<rect x="24.2096" y="72.3932" width="42.6059" height="35.4983" stroke="white" stroke-width="0.419287"/>
<g clip-path="url(#clip6_687_67811)">
<rect x="73.5769" y="72.1826" width="64.7051" height="38.3092" stroke="white" stroke-width="1.90349"/>
<path d="M138.115 108.101C138.115 101.026 136.445 94.0199 133.202 87.4834C129.959 80.9468 125.205 75.0075 119.212 70.0046C113.219 65.0017 106.105 61.0332 98.2745 58.3257C90.4444 55.6182 82.0521 54.2246 73.5769 54.2246L73.5769 108.101H138.115Z" stroke="white" stroke-width="1.90349"/>
</g>
<rect x="73.7865" y="72.3932" width="64.1185" height="35.4983" stroke="white" stroke-width="0.419287"/>
<g clip-path="url(#clip7_687_67811)">
<rect x="144.665" y="72.1826" width="79.3899" height="38.3092" stroke="white" stroke-width="1.90349"/>
<path d="M223.544 108.101C223.544 99.4534 221.504 90.8907 217.54 82.9015C213.576 74.9124 207.765 67.6533 200.441 61.5386C193.116 55.424 184.421 50.5736 174.85 47.2644C165.28 43.9552 155.023 42.252 144.665 42.252L144.665 108.101H223.544Z" stroke="white" stroke-width="1.90349"/>
</g>
<rect x="144.876" y="72.3932" width="78.4603" height="35.4983" stroke="white" stroke-width="0.419287"/>
<g clip-path="url(#clip8_687_67811)">
<rect x="230.094" y="72.1826" width="91.3214" height="38.3092" stroke="white" stroke-width="1.90349"/>
<path d="M316.144 108.102C316.144 98.6682 313.918 89.327 309.594 80.6116C305.27 71.8962 298.931 63.9771 290.941 57.3066C282.95 50.6361 273.464 45.3448 263.024 41.7347C252.584 38.1247 241.394 36.2666 230.094 36.2666L230.094 108.102H316.144Z" stroke="white" stroke-width="1.90349"/>
</g>
<rect x="230.308" y="72.3932" width="85.6311" height="35.4983" stroke="white" stroke-width="0.419287"/>
<g clip-path="url(#clip9_687_67811)">
<rect x="322.7" y="72.1836" width="102.335" height="38.3092" stroke="white" stroke-width="1.90349"/>
<path d="M423.093 108.102C423.093 97.0958 420.496 86.1978 415.451 76.0298C410.406 65.8618 403.011 56.6229 393.688 48.8406C384.366 41.0584 373.299 34.8851 361.119 30.6734C348.939 26.4617 335.884 24.2939 322.7 24.2939L322.7 108.102H423.093Z" stroke="white" stroke-width="1.90349"/>
</g>
<rect x="322.91" y="72.3932" width="99.9729" height="35.4983" stroke="white" stroke-width="0.419287"/>
<g clip-path="url(#clip10_687_67811)">
<rect x="24" y="126.06" width="45.8901" height="38.3092" stroke="white" stroke-width="1.90349"/>
<path d="M67.0252 161.976C67.0252 157.259 65.9123 152.589 63.7501 148.231C61.5879 143.873 58.4187 139.914 54.4234 136.579C50.4282 133.243 45.6851 130.598 40.465 128.793C35.245 126.988 29.6502 126.059 24 126.059L24 161.976H67.0252Z" stroke="white" stroke-width="1.90349"/>
</g>
<rect x="24.2096" y="126.27" width="42.6059" height="35.4983" stroke="white" stroke-width="0.419287"/>
<g clip-path="url(#clip11_687_67811)">
<rect x="73.5769" y="126.06" width="64.7051" height="38.3092" stroke="white" stroke-width="1.90349"/>
<path d="M138.115 161.977C138.115 154.902 136.445 147.896 133.202 141.359C129.959 134.823 125.205 128.883 119.212 123.881C113.219 118.878 106.105 114.909 98.2745 112.202C90.4444 109.494 82.0521 108.101 73.5769 108.101L73.5769 161.977H138.115Z" stroke="white" stroke-width="1.90349"/>
</g>
<rect x="73.7865" y="126.27" width="64.1185" height="35.4983" stroke="white" stroke-width="0.419287"/>
<g clip-path="url(#clip12_687_67811)">
<rect x="144.665" y="126.062" width="79.3899" height="38.3092" stroke="white" stroke-width="1.90349"/>
<path d="M223.544 161.978C223.544 153.33 221.504 144.768 217.54 136.778C213.576 128.789 207.765 121.53 200.441 115.416C193.116 109.301 184.421 104.451 174.85 101.141C165.28 97.8321 155.023 96.1289 144.665 96.1289L144.665 161.978H223.544Z" stroke="white" stroke-width="1.90349"/>
</g>
<rect x="144.876" y="126.27" width="78.4603" height="35.4983" stroke="white" stroke-width="0.419287"/>
<g clip-path="url(#clip13_687_67811)">
<rect x="230.094" y="126.06" width="91.3214" height="38.3092" stroke="white" stroke-width="1.90349"/>
<path d="M316.144 161.978C316.144 152.544 313.918 143.203 309.594 134.488C305.27 125.772 298.931 117.853 290.941 111.183C282.95 104.512 273.464 99.2207 263.024 95.6107C252.584 92.0006 241.394 90.1426 230.094 90.1426L230.094 161.978H316.144Z" stroke="white" stroke-width="1.90349"/>
</g>
<rect x="230.308" y="126.27" width="85.6311" height="35.4983" stroke="white" stroke-width="0.419287"/>
<g clip-path="url(#clip14_687_67811)">
<rect x="322.7" y="126.061" width="102.335" height="38.3092" stroke="white" stroke-width="1.90349"/>
<path d="M423.093 161.977C423.093 150.971 420.496 140.073 415.451 129.905C410.406 119.737 403.011 110.498 393.688 102.716C384.366 94.9334 373.299 88.7601 361.119 84.5484C348.939 80.3367 335.884 78.1689 322.7 78.1689L322.7 161.977H423.093Z" stroke="white" stroke-width="1.90349"/>
</g>
<rect x="322.91" y="126.27" width="99.9729" height="35.4983" stroke="white" stroke-width="0.419287"/>
<path d="M204.082 380.764C204.082 361.015 199.424 341.459 190.375 323.214C181.325 304.969 168.061 288.39 151.339 274.426C134.618 260.461 114.766 249.385 92.9185 241.827C71.0707 234.27 47.6542 230.38 24.0063 230.38H204.082V380.764Z" fill="white"/>
<path d="M24.0083 380.764H24.0063V230.38H24.0083V380.764ZM277.913 379.98C277.791 352.401 271.228 325.104 258.587 299.619C245.827 273.893 227.125 250.518 203.547 230.828C203.368 230.678 203.187 230.529 203.007 230.38H277.913V379.98Z" fill="white"/>
<path d="M24.002 380.765H23.999V230.381H24.002V380.765ZM335.529 379.698C335.363 345.896 327.312 312.442 311.819 281.206C302.902 263.227 291.618 246.185 278.212 230.381H335.529V379.698Z" fill="white"/>
<path d="M382.357 380.764H24.0063V380.762H382.349C382.349 341.462 373.081 302.547 355.072 266.238C348.94 253.876 341.835 241.899 333.818 230.38H382.357V380.764Z" fill="white"/>
<path d="M425.578 380.766H425.575C425.575 336.726 415.188 293.118 395.007 252.431C391.297 244.951 387.268 237.597 382.933 230.382H425.578V380.766Z" fill="white"/>
<defs>
<clipPath id="clip0_687_67811">
<rect x="24" y="18.3076" width="43.0252" height="35.9175" fill="white"/>
</clipPath>
<clipPath id="clip1_687_67811">
<rect x="73.5769" y="18.3076" width="64.5378" height="35.9175" fill="white"/>
</clipPath>
<clipPath id="clip2_687_67811">
<rect x="144.667" y="18.3076" width="78.8796" height="35.9175" fill="white"/>
</clipPath>
<clipPath id="clip3_687_67811">
<rect x="230.098" y="18.3076" width="86.0504" height="35.9175" fill="white"/>
</clipPath>
<clipPath id="clip4_687_67811">
<rect x="322.7" y="18.3076" width="100.392" height="35.9175" fill="white"/>
</clipPath>
<clipPath id="clip5_687_67811">
<rect x="24" y="72.1836" width="43.0252" height="35.9175" fill="white"/>
</clipPath>
<clipPath id="clip6_687_67811">
<rect x="73.5769" y="72.1836" width="64.5378" height="35.9175" fill="white"/>
</clipPath>
<clipPath id="clip7_687_67811">
<rect x="144.667" y="72.1836" width="78.8796" height="35.9175" fill="white"/>
</clipPath>
<clipPath id="clip8_687_67811">
<rect x="230.098" y="72.1836" width="86.0504" height="35.9175" fill="white"/>
</clipPath>
<clipPath id="clip9_687_67811">
<rect x="322.7" y="72.1836" width="100.392" height="35.9175" fill="white"/>
</clipPath>
<clipPath id="clip10_687_67811">
<rect x="24" y="126.061" width="43.0252" height="35.9175" fill="white"/>
</clipPath>
<clipPath id="clip11_687_67811">
<rect x="73.5769" y="126.061" width="64.5378" height="35.9175" fill="white"/>
</clipPath>
<clipPath id="clip12_687_67811">
<rect x="144.667" y="126.061" width="78.8796" height="35.9175" fill="white"/>
</clipPath>
<clipPath id="clip13_687_67811">
<rect x="230.098" y="126.061" width="86.0504" height="35.9175" fill="white"/>
</clipPath>
<clipPath id="clip14_687_67811">
<rect x="322.7" y="126.061" width="100.392" height="35.9175" fill="white"/>
</clipPath>
</defs>
</svg>
