<svg width="448" height="400" viewBox="0 0 448 400" fill="none" xmlns="http://www.w3.org/2000/svg">
<path d="M24 66.667L224 333.218" stroke="#2A82FF" stroke-width="0.555556"/>
<path d="M24 66.667L424 199.942" stroke="#2A82FF" stroke-width="0.555556"/>
<path d="M24 66.667L123.928 333.218" stroke="#2A82FF" stroke-width="0.555556"/>
<path d="M24 333.218L224 66.6668" stroke="#2A82FF" stroke-width="0.555556"/>
<path d="M24 333.218L424 199.942" stroke="#2A82FF" stroke-width="0.555556"/>
<path d="M24 333.218L123.928 66.6668" stroke="#2A82FF" stroke-width="0.555556"/>
<path d="M424 66.667L224 333.218" stroke="#2A82FF" stroke-width="0.555556"/>
<path d="M424 66.667L24 333.218" stroke="#2A82FF" stroke-width="0.555556"/>
<path d="M424 66.667L24 199.942" stroke="#2A82FF" stroke-width="0.555556"/>
<path d="M424 66.667L324.072 333.218" stroke="#2A82FF" stroke-width="0.555556"/>
<path d="M424 333.218L224 66.6668" stroke="#2A82FF" stroke-width="0.555556"/>
<path d="M424 333.218L24 66.6668" stroke="#2A82FF" stroke-width="0.555556"/>
<path d="M424 333.218L24 199.942" stroke="#2A82FF" stroke-width="0.555556"/>
<path d="M424 333.218L324.072 66.6668" stroke="#2A82FF" stroke-width="0.555556"/>
<path d="M424 155.435L24 155.435" stroke="white" stroke-width="0.555556"/>
<path d="M424 133.211L24 133.211" stroke="white" stroke-width="0.555556"/>
<path d="M424 88.8496L24 88.8496" stroke="white" stroke-width="0.555556"/>
<path d="M424 199.942L24 199.942" stroke="white" stroke-width="0.555556"/>
<path d="M424 244.45L24 244.45" stroke="white" stroke-width="0.555556"/>
<path d="M424 266.674L24 266.674" stroke="white" stroke-width="0.555556"/>
<path d="M424 311.035L24 311.035" stroke="white" stroke-width="0.555556"/>
<path d="M183.889 333.218L183.889 66.6668" stroke="white" stroke-width="0.555556"/>
<path d="M123.928 333.218L123.928 66.6668" stroke="white" stroke-width="0.555556"/>
<path d="M103.866 333.218L103.866 66.6668" stroke="white" stroke-width="0.555556"/>
<path d="M90.5586 333.218L90.5586 66.6668" stroke="white" stroke-width="0.555556"/>
<path d="M73.8962 333.218L73.8962 66.6668" stroke="white" stroke-width="0.555556"/>
<path d="M48.9136 333.218L48.9136 66.6668" stroke="white" stroke-width="0.555556"/>
<path d="M32.3035 333.218L32.3035 66.6668" stroke="white" stroke-width="0.555556"/>
<path d="M224 333.218L224 66.6668" stroke="white" stroke-width="0.555556"/>
<path d="M264.111 333.218L264.111 66.6668" stroke="white" stroke-width="0.555556"/>
<path d="M324.072 333.218L324.072 66.6668" stroke="white" stroke-width="0.555556"/>
<path d="M344.133 333.218L344.133 66.6668" stroke="white" stroke-width="0.555556"/>
<path d="M357.441 333.218L357.441 66.6668" stroke="white" stroke-width="0.555556"/>
<path d="M374.104 333.218L374.104 66.6668" stroke="white" stroke-width="0.555556"/>
<path d="M399.086 333.218L399.086 66.6668" stroke="white" stroke-width="0.555556"/>
<path d="M415.696 333.218L415.696 66.6668" stroke="white" stroke-width="0.555556"/>
</svg>
