<svg width="448" height="400" viewBox="0 0 448 400" fill="none" xmlns="http://www.w3.org/2000/svg">
<path d="M138.056 249.032L30.9229 302.693L104.942 205.591M138.056 249.032L224.782 205.591M138.056 249.032L104.942 205.591M138.056 249.032L178.961 302.693V108.49L138.056 162.151M224.782 205.591L311.509 162.151M224.782 205.591L311.509 249.032M224.782 205.591L138.056 162.151M311.509 162.151L418.642 108.49L344.623 205.591M311.509 162.151L344.623 205.591M311.509 162.151L270.604 108.49V302.693L311.509 249.032M344.623 205.591L418.642 302.693L311.509 249.032M344.623 205.591L311.509 249.032M138.056 162.151L30.9229 108.49L104.942 205.591M138.056 162.151L104.942 205.591" stroke="white" stroke-width="1.9505" stroke-linecap="round" stroke-linejoin="round"/>
<path d="M37.5818 207.692H35.6249L41.2849 192.278H43.2117L48.8717 207.692H46.9148L42.3085 194.717H42.1881L37.5818 207.692ZM38.3044 201.671H46.1922V203.327H38.3044V201.671Z" fill="white"/>
<path d="M388.516 207.692V192.278H393.905C394.978 192.278 395.864 192.464 396.561 192.835C397.259 193.201 397.778 193.695 398.119 194.318C398.461 194.935 398.631 195.62 398.631 196.372C398.631 197.035 398.513 197.582 398.277 198.013C398.047 198.445 397.741 198.786 397.359 199.037C396.983 199.288 396.574 199.473 396.132 199.594V199.744C396.604 199.774 397.078 199.94 397.555 200.241C398.032 200.542 398.431 200.974 398.752 201.536C399.073 202.098 399.233 202.785 399.233 203.598C399.233 204.371 399.058 205.066 398.707 205.683C398.355 206.3 397.801 206.789 397.043 207.15C396.285 207.512 395.299 207.692 394.085 207.692H388.516ZM390.382 206.037H394.085C395.304 206.037 396.17 205.801 396.682 205.329C397.199 204.852 397.457 204.275 397.457 203.598C397.457 203.076 397.324 202.594 397.058 202.153C396.792 201.706 396.413 201.35 395.922 201.084C395.43 200.813 394.848 200.678 394.176 200.678H390.382V206.037ZM390.382 199.052H393.844C394.406 199.052 394.913 198.941 395.365 198.721C395.821 198.5 396.183 198.189 396.449 197.787C396.719 197.386 396.855 196.914 396.855 196.372C396.855 195.695 396.619 195.12 396.147 194.649C395.676 194.172 394.928 193.934 393.905 193.934H390.382V199.052Z" fill="white"/>
</svg>
