<svg width="448" height="400" viewBox="0 0 448 400" fill="none" xmlns="http://www.w3.org/2000/svg">
<path d="M425.987 252.001C425.987 228.865 420.789 205.955 410.688 184.58C400.587 163.205 385.782 143.783 367.118 127.423C348.454 111.063 326.296 98.086 301.911 89.2322C277.525 80.3783 251.389 75.8213 224.994 75.8213C198.599 75.8213 172.462 80.3783 148.077 89.2322C123.691 98.086 101.534 111.063 82.8697 127.423C64.2057 143.783 49.4006 163.205 39.2997 184.58C29.1989 205.955 24 228.865 24 252.001L425.987 252.001Z" stroke="#C98060" stroke-width="1.9505"/>
<rect x="24" y="93.4414" width="401.987" height="158.562" stroke="#C98060" stroke-width="1.9505"/>
<rect x="135.296" y="93.4404" width="176.874" height="158.562" stroke="#C98060" stroke-width="1.9505"/>
<path d="M134.546 93.4404L222.983 252.002L311.42 93.4404" stroke="#C98060" stroke-width="1.9505"/>
<path d="M32.1101 86.1467C32.0218 85.8767 31.9056 85.6348 31.7612 85.4209C31.6196 85.2044 31.4498 85.02 31.252 84.8676C31.0569 84.7153 30.835 84.599 30.5865 84.5188C30.3379 84.4386 30.0652 84.3985 29.7685 84.3985C29.282 84.3985 28.8397 84.5242 28.4414 84.7754C28.0431 85.0267 27.7264 85.3969 27.4911 85.886C27.2559 86.3752 27.1383 86.9753 27.1383 87.6863C27.1383 88.3973 27.2573 88.9974 27.4952 89.4865C27.733 89.9757 28.0551 90.3459 28.4614 90.5972C28.8677 90.8484 29.3248 90.9741 29.8327 90.9741C30.3031 90.9741 30.7174 90.8738 31.0756 90.6733C31.4365 90.4702 31.7171 90.1842 31.9176 89.8153C32.1207 89.4438 32.2223 89.0067 32.2223 88.5042L32.527 88.5684H30.0572V87.6863H33.1846V88.5684C33.1846 89.2446 33.0403 89.8327 32.7516 90.3325C32.4656 90.8324 32.07 91.22 31.5648 91.4953C31.0622 91.7679 30.4849 91.9043 29.8327 91.9043C29.1056 91.9043 28.4668 91.7332 27.9161 91.391C27.3682 91.0489 26.9405 90.5624 26.6331 89.9316C26.3284 89.3008 26.176 88.5523 26.176 87.6863C26.176 87.0368 26.2629 86.4527 26.4366 85.9341C26.6131 85.4129 26.8617 84.9692 27.1824 84.603C27.5032 84.2368 27.8827 83.9561 28.3211 83.761C28.7595 83.5659 29.2419 83.4683 29.7685 83.4683C30.2015 83.4683 30.6052 83.5338 30.9794 83.6648C31.3563 83.7931 31.6917 83.9762 31.9858 84.2141C32.2825 84.4493 32.5297 84.7313 32.7275 85.0601C32.9253 85.3862 33.0616 85.7484 33.1365 86.1467H32.1101Z" fill="#C98060"/>
<path d="M133.683 91.792H132.64L135.655 83.5806H136.682L139.697 91.792H138.654L136.201 84.8797H136.137L133.683 91.792ZM134.068 88.5844H138.27V89.4665H134.068V88.5844Z" fill="#C98060"/>
<path d="M317.271 86.1467H316.277C316.218 85.8606 316.115 85.6094 315.968 85.3929C315.823 85.1764 315.647 84.9946 315.439 84.8476C315.233 84.6979 315.004 84.5856 314.753 84.5108C314.502 84.4359 314.24 84.3985 313.967 84.3985C313.47 84.3985 313.02 84.5242 312.616 84.7754C312.215 85.0267 311.896 85.3969 311.658 85.886C311.422 86.3752 311.305 86.9753 311.305 87.6863C311.305 88.3973 311.422 88.9974 311.658 89.4865C311.896 89.9757 312.215 90.3459 312.616 90.5972C313.02 90.8484 313.47 90.9741 313.967 90.9741C314.24 90.9741 314.502 90.9366 314.753 90.8618C315.004 90.787 315.233 90.676 315.439 90.529C315.647 90.3793 315.823 90.1962 315.968 89.9797C316.115 89.7605 316.218 89.5093 316.277 89.2259H317.271C317.196 89.6456 317.06 90.0211 316.862 90.3526C316.664 90.684 316.418 90.966 316.124 91.1986C315.83 91.4285 315.5 91.6035 315.134 91.7238C314.77 91.8441 314.381 91.9043 313.967 91.9043C313.267 91.9043 312.644 91.7332 312.099 91.391C311.553 91.0489 311.124 90.5624 310.812 89.9316C310.499 89.3008 310.343 88.5523 310.343 87.6863C310.343 86.8202 310.499 86.0718 310.812 85.441C311.124 84.8102 311.553 84.3237 312.099 83.9815C312.644 83.6394 313.267 83.4683 313.967 83.4683C314.381 83.4683 314.77 83.5285 315.134 83.6487C315.5 83.769 315.83 83.9455 316.124 84.178C316.418 84.4079 316.664 84.6885 316.862 85.02C317.06 85.3488 317.196 85.7243 317.271 86.1467Z" fill="#C98060"/>
<path d="M418.938 91.792V83.5806H423.894V84.4627H419.933V87.2372H423.637V88.1193H419.933V90.9099H423.958V91.792H418.938Z" fill="#C98060"/>
<path d="M359.447 268.925C358.843 268.925 358.328 268.76 357.903 268.432C357.478 268.1 357.153 267.62 356.929 266.992C356.704 266.361 356.592 265.6 356.592 264.707C356.592 263.819 356.704 263.062 356.929 262.433C357.156 261.803 357.482 261.321 357.907 260.99C358.335 260.656 358.848 260.489 359.447 260.489C360.046 260.489 360.557 260.656 360.982 260.99C361.41 261.321 361.736 261.803 361.961 262.433C362.188 263.062 362.302 263.819 362.302 264.707C362.302 265.6 362.189 266.361 361.965 266.992C361.74 267.62 361.415 268.1 360.99 268.432C360.565 268.76 360.051 268.925 359.447 268.925ZM359.447 268.043C360.046 268.043 360.511 267.754 360.842 267.177C361.174 266.599 361.339 265.776 361.339 264.707C361.339 263.996 361.263 263.39 361.111 262.891C360.961 262.391 360.745 262.01 360.461 261.748C360.181 261.486 359.842 261.355 359.447 261.355C358.853 261.355 358.39 261.648 358.056 262.233C357.721 262.816 357.554 263.64 357.554 264.707C357.554 265.418 357.629 266.022 357.779 266.519C357.929 267.016 358.144 267.394 358.424 267.654C358.708 267.913 359.049 268.043 359.447 268.043ZM364.966 267.69L364.902 268.123C364.856 268.428 364.787 268.754 364.693 269.101C364.602 269.449 364.507 269.776 364.409 270.084C364.31 270.391 364.228 270.635 364.164 270.817H363.442C363.477 270.646 363.522 270.42 363.579 270.14C363.635 269.859 363.691 269.545 363.747 269.197C363.806 268.853 363.854 268.5 363.891 268.139L363.939 267.69H364.966ZM369.169 268.925C368.64 268.925 368.168 268.834 367.753 268.652C367.342 268.47 367.014 268.218 366.771 267.894C366.531 267.568 366.4 267.19 366.378 266.76H367.389C367.41 267.024 367.501 267.253 367.661 267.445C367.822 267.635 368.031 267.782 368.291 267.886C368.55 267.991 368.837 268.043 369.153 268.043C369.506 268.043 369.818 267.981 370.091 267.858C370.364 267.735 370.577 267.564 370.732 267.345C370.887 267.126 370.965 266.872 370.965 266.583C370.965 266.281 370.89 266.015 370.74 265.785C370.591 265.553 370.372 265.371 370.083 265.24C369.794 265.109 369.441 265.044 369.024 265.044H368.367V264.162H369.024C369.351 264.162 369.637 264.103 369.882 263.985C370.131 263.867 370.325 263.702 370.464 263.488C370.605 263.274 370.676 263.023 370.676 262.734C370.676 262.456 370.615 262.214 370.492 262.008C370.369 261.803 370.195 261.642 369.971 261.527C369.749 261.412 369.487 261.355 369.185 261.355C368.901 261.355 368.634 261.407 368.383 261.511C368.134 261.613 367.931 261.761 367.773 261.956C367.616 262.149 367.53 262.381 367.517 262.654H366.555C366.571 262.224 366.7 261.847 366.944 261.523C367.187 261.197 367.505 260.943 367.898 260.761C368.293 260.58 368.728 260.489 369.201 260.489C369.709 260.489 370.144 260.592 370.508 260.798C370.871 261.001 371.151 261.269 371.346 261.603C371.541 261.938 371.639 262.298 371.639 262.686C371.639 263.148 371.517 263.543 371.274 263.869C371.033 264.195 370.706 264.421 370.291 264.546V264.611C370.81 264.696 371.215 264.917 371.506 265.272C371.798 265.625 371.943 266.062 371.943 266.583C371.943 267.03 371.822 267.431 371.578 267.786C371.338 268.139 371.009 268.417 370.592 268.62C370.175 268.823 369.701 268.925 369.169 268.925ZM376.213 268.925C375.663 268.925 375.176 268.827 374.754 268.632C374.334 268.434 374.007 268.163 373.772 267.818C373.536 267.471 373.42 267.075 373.423 266.631C373.42 266.284 373.488 265.963 373.627 265.669C373.766 265.372 373.956 265.125 374.197 264.927C374.44 264.727 374.711 264.6 375.011 264.546V264.498C374.618 264.397 374.305 264.176 374.072 263.837C373.84 263.495 373.725 263.106 373.728 262.67C373.725 262.253 373.83 261.88 374.044 261.551C374.258 261.223 374.552 260.963 374.926 260.774C375.303 260.584 375.732 260.489 376.213 260.489C376.689 260.489 377.114 260.584 377.488 260.774C377.863 260.963 378.157 261.223 378.371 261.551C378.587 261.88 378.697 262.253 378.699 262.67C378.697 263.106 378.578 263.495 378.342 263.837C378.11 264.176 377.801 264.397 377.416 264.498V264.546C377.713 264.6 377.98 264.727 378.218 264.927C378.456 265.125 378.646 265.372 378.787 265.669C378.929 265.963 379.001 266.284 379.004 266.631C379.001 267.075 378.881 267.471 378.643 267.818C378.408 268.163 378.08 268.434 377.661 268.632C377.244 268.827 376.761 268.925 376.213 268.925ZM376.213 268.043C376.585 268.043 376.906 267.983 377.176 267.862C377.446 267.742 377.654 267.572 377.801 267.353C377.948 267.134 378.023 266.877 378.026 266.583C378.023 266.273 377.943 265.999 377.785 265.761C377.627 265.523 377.412 265.336 377.14 265.2C376.87 265.064 376.561 264.995 376.213 264.995C375.863 264.995 375.551 265.064 375.275 265.2C375.003 265.336 374.787 265.523 374.63 265.761C374.475 265.999 374.398 266.273 374.401 266.583C374.398 266.877 374.469 267.134 374.614 267.353C374.761 267.572 374.97 267.742 375.243 267.862C375.516 267.983 375.839 268.043 376.213 268.043ZM376.213 264.145C376.507 264.145 376.768 264.087 376.995 263.969C377.225 263.851 377.406 263.687 377.537 263.476C377.668 263.265 377.734 263.017 377.737 262.734C377.734 262.456 377.669 262.214 377.541 262.008C377.412 261.8 377.234 261.64 377.007 261.527C376.78 261.412 376.515 261.355 376.213 261.355C375.906 261.355 375.637 261.412 375.408 261.527C375.178 261.64 375 261.8 374.874 262.008C374.749 262.214 374.687 262.456 374.69 262.734C374.687 263.017 374.75 263.265 374.878 263.476C375.009 263.687 375.19 263.851 375.42 263.969C375.649 264.087 375.914 264.145 376.213 264.145ZM380.541 268.812V268.091L383.251 265.124C383.569 264.776 383.831 264.474 384.037 264.218C384.243 263.958 384.395 263.715 384.494 263.488C384.596 263.258 384.646 263.017 384.646 262.766C384.646 262.478 384.577 262.228 384.438 262.016C384.302 261.805 384.114 261.642 383.877 261.527C383.639 261.412 383.371 261.355 383.075 261.355C382.759 261.355 382.484 261.42 382.249 261.551C382.016 261.68 381.836 261.86 381.707 262.093C381.582 262.325 381.519 262.598 381.519 262.911H380.573C380.573 262.429 380.684 262.007 380.906 261.644C381.127 261.28 381.429 260.997 381.812 260.794C382.197 260.59 382.628 260.489 383.107 260.489C383.588 260.489 384.014 260.59 384.386 260.794C384.757 260.997 385.049 261.271 385.26 261.615C385.471 261.96 385.577 262.344 385.577 262.766C385.577 263.068 385.522 263.364 385.412 263.652C385.305 263.938 385.118 264.258 384.851 264.611C384.586 264.961 384.219 265.388 383.748 265.894L381.904 267.866V267.93H385.721V268.812H380.541Z" fill="#C98060"/>
<path d="M67.8789 268.925C67.2748 268.925 66.7603 268.76 66.3353 268.432C65.9103 268.1 65.5855 267.62 65.361 266.992C65.1364 266.361 65.0242 265.6 65.0242 264.707C65.0242 263.819 65.1364 263.062 65.361 262.433C65.5882 261.803 65.9143 261.321 66.3393 260.99C66.767 260.656 67.2802 260.489 67.8789 260.489C68.4777 260.489 68.9895 260.656 69.4146 260.99C69.8422 261.321 70.1683 261.803 70.3929 262.433C70.6201 263.062 70.7337 263.819 70.7337 264.707C70.7337 265.6 70.6214 266.361 70.3969 266.992C70.1723 267.62 69.8476 268.1 69.4226 268.432C68.9976 268.76 68.483 268.925 67.8789 268.925ZM67.8789 268.043C68.4777 268.043 68.9428 267.754 69.2742 267.177C69.6057 266.599 69.7714 265.776 69.7714 264.707C69.7714 263.996 69.6952 263.39 69.5429 262.891C69.3932 262.391 69.1767 262.01 68.8933 261.748C68.6127 261.486 68.2745 261.355 67.8789 261.355C67.2855 261.355 66.8218 261.648 66.4876 262.233C66.1535 262.816 65.9865 263.64 65.9865 264.707C65.9865 265.418 66.0613 266.022 66.211 266.519C66.3607 267.016 66.5758 267.394 66.8565 267.654C67.1398 267.913 67.4806 268.043 67.8789 268.043ZM73.398 267.69L73.3338 268.123C73.2884 268.428 73.2189 268.754 73.1253 269.101C73.0344 269.449 72.9395 269.776 72.8406 270.084C72.7417 270.391 72.6602 270.635 72.5961 270.817H71.8744C71.9091 270.646 71.9546 270.42 72.0107 270.14C72.0668 269.859 72.123 269.545 72.1791 269.197C72.2379 268.853 72.286 268.5 72.3234 268.139L72.3715 267.69H73.398ZM77.6009 268.925C77.0716 268.925 76.5999 268.834 76.1856 268.652C75.7739 268.47 75.4465 268.218 75.2032 267.894C74.9627 267.568 74.8317 267.19 74.8103 266.76H75.8207C75.8421 267.024 75.933 267.253 76.0933 267.445C76.2537 267.635 76.4635 267.782 76.7228 267.886C76.9821 267.991 77.2694 268.043 77.5849 268.043C77.9377 268.043 78.2504 267.981 78.5231 267.858C78.7957 267.735 79.0096 267.564 79.1646 267.345C79.3196 267.126 79.3971 266.872 79.3971 266.583C79.3971 266.281 79.3223 266.015 79.1726 265.785C79.0229 265.553 78.8037 265.371 78.5151 265.24C78.2264 265.109 77.8735 265.044 77.4566 265.044H76.799V264.162H77.4566C77.7827 264.162 78.0687 264.103 78.3146 263.985C78.5632 263.867 78.757 263.702 78.896 263.488C79.0376 263.274 79.1085 263.023 79.1085 262.734C79.1085 262.456 79.047 262.214 78.924 262.008C78.8011 261.803 78.6273 261.642 78.4028 261.527C78.1809 261.412 77.919 261.355 77.6169 261.355C77.3336 261.355 77.0663 261.407 76.815 261.511C76.5665 261.613 76.3633 261.761 76.2056 261.956C76.0479 262.149 75.9624 262.381 75.949 262.654H74.9867C75.0028 262.224 75.1324 261.847 75.3756 261.523C75.6189 261.197 75.937 260.943 76.3299 260.761C76.7255 260.58 77.1599 260.489 77.633 260.489C78.1408 260.489 78.5765 260.592 78.9401 260.798C79.3036 261.001 79.5829 261.269 79.778 261.603C79.9732 261.938 80.0707 262.298 80.0707 262.686C80.0707 263.148 79.9491 263.543 79.7059 263.869C79.4653 264.195 79.1379 264.421 78.7236 264.546V264.611C79.2421 264.696 79.6471 264.917 79.9384 265.272C80.2298 265.625 80.3755 266.062 80.3755 266.583C80.3755 267.03 80.2538 267.431 80.0106 267.786C79.77 268.139 79.4412 268.417 79.0243 268.62C78.6073 268.823 78.1328 268.925 77.6009 268.925ZM84.6455 268.925C84.0949 268.925 83.6084 268.827 83.1861 268.632C82.7664 268.434 82.439 268.163 82.2038 267.818C81.9686 267.471 81.8523 267.075 81.855 266.631C81.8523 266.284 81.9204 265.963 82.0594 265.669C82.1984 265.372 82.3882 265.125 82.6288 264.927C82.872 264.727 83.1433 264.6 83.4427 264.546V264.498C83.0498 264.397 82.737 264.176 82.5045 263.837C82.2719 263.495 82.157 263.106 82.1597 262.67C82.157 262.253 82.2626 261.88 82.4764 261.551C82.6903 261.223 82.9843 260.963 83.3585 260.774C83.7354 260.584 84.1644 260.489 84.6455 260.489C85.1213 260.489 85.5463 260.584 85.9206 260.774C86.2948 260.963 86.5888 261.223 86.8026 261.551C87.0192 261.88 87.1287 262.253 87.1314 262.67C87.1287 263.106 87.0098 263.495 86.7746 263.837C86.542 264.176 86.2333 264.397 85.8484 264.498V264.546C86.1451 264.6 86.4124 264.727 86.6503 264.927C86.8882 265.125 87.078 265.372 87.2196 265.669C87.3613 265.963 87.4335 266.284 87.4361 266.631C87.4335 267.075 87.3132 267.471 87.0753 267.818C86.8401 268.163 86.5126 268.434 86.093 268.632C85.676 268.827 85.1935 268.925 84.6455 268.925ZM84.6455 268.043C85.0171 268.043 85.3378 267.983 85.6078 267.862C85.8778 267.742 86.0863 267.572 86.2333 267.353C86.3803 267.134 86.4552 266.877 86.4578 266.583C86.4552 266.273 86.375 265.999 86.2173 265.761C86.0596 265.523 85.8444 265.336 85.5717 265.2C85.3018 265.064 84.993 264.995 84.6455 264.995C84.2954 264.995 83.9826 265.064 83.7073 265.2C83.4347 265.336 83.2195 265.523 83.0618 265.761C82.9068 265.999 82.8306 266.273 82.8333 266.583C82.8306 266.877 82.9014 267.134 83.0458 267.353C83.1928 267.572 83.4026 267.742 83.6753 267.862C83.9479 267.983 84.2713 268.043 84.6455 268.043ZM84.6455 264.145C84.9396 264.145 85.2002 264.087 85.4274 263.969C85.6573 263.851 85.8377 263.687 85.9687 263.476C86.0996 263.265 86.1665 263.017 86.1691 262.734C86.1665 262.456 86.101 262.214 85.9727 262.008C85.8444 261.8 85.6666 261.64 85.4394 261.527C85.2122 261.412 84.9476 261.355 84.6455 261.355C84.3382 261.355 84.0695 261.412 83.8396 261.527C83.6098 261.64 83.432 261.8 83.3064 262.008C83.1808 262.214 83.1193 262.456 83.1219 262.734C83.1193 263.017 83.1821 263.265 83.3104 263.476C83.4414 263.687 83.6218 263.851 83.8517 263.969C84.0815 264.087 84.3462 264.145 84.6455 264.145ZM88.9728 268.812V268.091L91.6832 265.124C92.0013 264.776 92.2632 264.474 92.469 264.218C92.6749 263.958 92.8272 263.715 92.9261 263.488C93.0277 263.258 93.0785 263.017 93.0785 262.766C93.0785 262.478 93.009 262.228 92.87 262.016C92.7337 261.805 92.5465 261.642 92.3087 261.527C92.0708 261.412 91.8035 261.355 91.5068 261.355C91.1913 261.355 90.916 261.42 90.6808 261.551C90.4483 261.68 90.2678 261.86 90.1395 262.093C90.0139 262.325 89.9511 262.598 89.9511 262.911H89.0048C89.0048 262.429 89.1158 262.007 89.3376 261.644C89.5595 261.28 89.8615 260.997 90.2438 260.794C90.6287 260.59 91.0604 260.489 91.5388 260.489C92.02 260.489 92.4463 260.59 92.8179 260.794C93.1894 260.997 93.4808 261.271 93.6919 261.615C93.9031 261.96 94.0087 262.344 94.0087 262.766C94.0087 263.068 93.9539 263.364 93.8443 263.652C93.7374 263.938 93.5503 264.258 93.283 264.611C93.0183 264.961 92.6508 265.388 92.1803 265.894L90.336 267.866V267.93H94.153V268.812H88.9728Z" fill="#C98060"/>
<path d="M209.041 260.601V268.812H208.047V261.644H207.999L205.994 262.975V261.964L208.047 260.601H209.041ZM211.623 268.877C211.425 268.877 211.256 268.806 211.114 268.664C210.972 268.522 210.901 268.353 210.901 268.155C210.901 267.957 210.972 267.787 211.114 267.646C211.256 267.504 211.425 267.433 211.623 267.433C211.821 267.433 211.991 267.504 212.132 267.646C212.274 267.787 212.345 267.957 212.345 268.155C212.345 268.286 212.311 268.406 212.245 268.516C212.18 268.625 212.094 268.714 211.984 268.78C211.877 268.845 211.757 268.877 211.623 268.877ZM216.418 268.925C215.814 268.925 215.3 268.76 214.875 268.432C214.45 268.1 214.125 267.62 213.901 266.992C213.676 266.361 213.564 265.6 213.564 264.707C213.564 263.819 213.676 263.062 213.901 262.433C214.128 261.803 214.454 261.321 214.879 260.99C215.307 260.656 215.82 260.489 216.418 260.489C217.017 260.489 217.529 260.656 217.954 260.99C218.382 261.321 218.708 261.803 218.932 262.433C219.16 263.062 219.273 263.819 219.273 264.707C219.273 265.6 219.161 266.361 218.936 266.992C218.712 267.62 218.387 268.1 217.962 268.432C217.537 268.76 217.023 268.925 216.418 268.925ZM216.418 268.043C217.017 268.043 217.482 267.754 217.814 267.177C218.145 266.599 218.311 265.776 218.311 264.707C218.311 263.996 218.235 263.39 218.082 262.891C217.933 262.391 217.716 262.01 217.433 261.748C217.152 261.486 216.814 261.355 216.418 261.355C215.825 261.355 215.361 261.648 215.027 262.233C214.693 262.816 214.526 263.64 214.526 264.707C214.526 265.418 214.601 266.022 214.751 266.519C214.9 267.016 215.115 267.394 215.396 267.654C215.679 267.913 216.02 268.043 216.418 268.043ZM223.475 268.925C222.871 268.925 222.356 268.76 221.931 268.432C221.506 268.1 221.182 267.62 220.957 266.992C220.733 266.361 220.62 265.6 220.62 264.707C220.62 263.819 220.733 263.062 220.957 262.433C221.184 261.803 221.51 261.321 221.936 260.99C222.363 260.656 222.876 260.489 223.475 260.489C224.074 260.489 224.586 260.656 225.011 260.99C225.438 261.321 225.765 261.803 225.989 262.433C226.216 263.062 226.33 263.819 226.33 264.707C226.33 265.6 226.218 266.361 225.993 266.992C225.769 267.62 225.444 268.1 225.019 268.432C224.594 268.76 224.079 268.925 223.475 268.925ZM223.475 268.043C224.074 268.043 224.539 267.754 224.87 267.177C225.202 266.599 225.368 265.776 225.368 264.707C225.368 263.996 225.291 263.39 225.139 262.891C224.989 262.391 224.773 262.01 224.49 261.748C224.209 261.486 223.871 261.355 223.475 261.355C222.882 261.355 222.418 261.648 222.084 262.233C221.75 262.816 221.583 263.64 221.583 264.707C221.583 265.418 221.658 266.022 221.807 266.519C221.957 267.016 222.172 267.394 222.453 267.654C222.736 267.913 223.077 268.043 223.475 268.043ZM230.532 268.925C229.928 268.925 229.413 268.76 228.988 268.432C228.563 268.1 228.238 267.62 228.014 266.992C227.789 266.361 227.677 265.6 227.677 264.707C227.677 263.819 227.789 263.062 228.014 262.433C228.241 261.803 228.567 261.321 228.992 260.99C229.42 260.656 229.933 260.489 230.532 260.489C231.131 260.489 231.642 260.656 232.067 260.99C232.495 261.321 232.821 261.803 233.046 262.433C233.273 263.062 233.387 263.819 233.387 264.707C233.387 265.6 233.274 266.361 233.05 266.992C232.825 267.62 232.5 268.1 232.075 268.432C231.65 268.76 231.136 268.925 230.532 268.925ZM230.532 268.043C231.131 268.043 231.596 267.754 231.927 267.177C232.259 266.599 232.424 265.776 232.424 264.707C232.424 263.996 232.348 263.39 232.196 262.891C232.046 262.391 231.83 262.01 231.546 261.748C231.266 261.486 230.927 261.355 230.532 261.355C229.938 261.355 229.475 261.648 229.141 262.233C228.806 262.816 228.639 263.64 228.639 264.707C228.639 265.418 228.714 266.022 228.864 266.519C229.014 267.016 229.229 267.394 229.509 267.654C229.793 267.913 230.134 268.043 230.532 268.043Z" fill="#C98060"/>
<path d="M24.9943 268.812V260.601H25.9887V264.258H30.367V260.601H31.3614V268.812H30.367V265.14H25.9887V268.812H24.9943Z" fill="#C98060"/>
<path d="M131.843 268.812V260.601H134.714C135.286 260.601 135.758 260.7 136.13 260.898C136.501 261.093 136.778 261.356 136.96 261.688C137.141 262.016 137.232 262.381 137.232 262.782C137.232 263.135 137.169 263.426 137.044 263.656C136.921 263.886 136.758 264.068 136.555 264.202C136.354 264.335 136.136 264.434 135.901 264.498V264.578C136.152 264.595 136.405 264.683 136.659 264.843C136.913 265.003 137.125 265.233 137.296 265.533C137.467 265.832 137.553 266.198 137.553 266.631C137.553 267.043 137.459 267.413 137.272 267.742C137.085 268.071 136.79 268.331 136.386 268.524C135.983 268.716 135.457 268.812 134.81 268.812H131.843ZM132.838 267.93H134.81C135.46 267.93 135.921 267.805 136.194 267.554C136.469 267.3 136.607 266.992 136.607 266.631C136.607 266.353 136.536 266.097 136.394 265.862C136.253 265.624 136.051 265.434 135.789 265.292C135.527 265.148 135.217 265.076 134.859 265.076H132.838V267.93ZM132.838 264.21H134.682C134.982 264.21 135.252 264.151 135.492 264.033C135.735 263.916 135.928 263.75 136.069 263.536C136.214 263.322 136.286 263.071 136.286 262.782C136.286 262.421 136.16 262.115 135.909 261.864C135.658 261.61 135.26 261.483 134.714 261.483H132.838V264.21Z" fill="#C98060"/>
<path d="M311.695 268.812H309.161V260.601H311.808C312.604 260.601 313.286 260.765 313.852 261.094C314.419 261.42 314.853 261.889 315.156 262.502C315.458 263.111 315.609 263.841 315.609 264.691C315.609 265.546 315.456 266.283 315.151 266.9C314.847 267.515 314.403 267.988 313.82 268.319C313.238 268.648 312.529 268.812 311.695 268.812ZM310.156 267.93H311.631C312.31 267.93 312.873 267.799 313.319 267.537C313.766 267.276 314.098 266.903 314.318 266.419C314.537 265.935 314.646 265.359 314.646 264.691C314.646 264.028 314.538 263.457 314.322 262.979C314.105 262.498 313.782 262.129 313.351 261.872C312.921 261.613 312.385 261.483 311.743 261.483H310.156V267.93Z" fill="#C98060"/>
<path d="M419.994 268.812V260.601H424.918V261.483H420.989V264.258H424.549V265.14H420.989V268.812H419.994Z" fill="#C98060"/>
<path d="M312.842 282.8C313.223 282.419 313.223 281.802 312.842 281.421L306.636 275.214C306.255 274.833 305.637 274.833 305.256 275.214C304.875 275.595 304.875 276.213 305.256 276.594L310.773 282.11L305.256 287.627C304.875 288.008 304.875 288.626 305.256 289.006C305.637 289.387 306.255 289.387 306.636 289.006L312.842 282.8ZM23.3106 281.421C22.9297 281.802 22.9297 282.419 23.3106 282.8L29.517 289.006C29.8979 289.387 30.5154 289.387 30.8962 289.006C31.2771 288.626 31.2771 288.008 30.8962 287.627L25.3794 282.11L30.8962 276.594C31.2771 276.213 31.2771 275.595 30.8962 275.214C30.5154 274.833 29.8979 274.833 29.517 275.214L23.3106 281.421ZM312.152 282.11V281.135H24.0002V282.11V283.086H312.152V282.11Z" fill="#C98060"/>
<path d="M158.313 289.426V297.638H157.319V290.469H157.271L155.266 291.8V290.79L157.319 289.426H158.313ZM160.895 297.702C160.697 297.702 160.528 297.631 160.386 297.489C160.244 297.348 160.173 297.178 160.173 296.98C160.173 296.782 160.244 296.613 160.386 296.471C160.528 296.329 160.697 296.258 160.895 296.258C161.093 296.258 161.263 296.329 161.404 296.471C161.546 296.613 161.617 296.782 161.617 296.98C161.617 297.111 161.583 297.231 161.517 297.341C161.452 297.451 161.366 297.539 161.256 297.606C161.149 297.67 161.029 297.702 160.895 297.702ZM165.739 297.75C165.402 297.745 165.065 297.68 164.728 297.558C164.391 297.435 164.084 297.227 163.806 296.936C163.528 296.642 163.305 296.245 163.136 295.745C162.968 295.243 162.884 294.612 162.884 293.853C162.884 293.126 162.952 292.482 163.088 291.92C163.225 291.356 163.422 290.882 163.682 290.497C163.941 290.109 164.254 289.815 164.62 289.615C164.989 289.414 165.404 289.314 165.867 289.314C166.327 289.314 166.736 289.406 167.094 289.591C167.455 289.772 167.749 290.026 167.976 290.352C168.203 290.679 168.35 291.054 168.417 291.479H167.439C167.348 291.11 167.171 290.804 166.909 290.561C166.647 290.318 166.3 290.196 165.867 290.196C165.231 290.196 164.729 290.473 164.363 291.026C164 291.579 163.817 292.356 163.814 293.356H163.878C164.028 293.128 164.206 292.935 164.411 292.774C164.62 292.611 164.85 292.486 165.101 292.397C165.352 292.309 165.618 292.265 165.899 292.265C166.369 292.265 166.8 292.383 167.19 292.618C167.58 292.85 167.893 293.172 168.128 293.584C168.363 293.993 168.481 294.462 168.481 294.991C168.481 295.499 168.367 295.964 168.14 296.387C167.913 296.806 167.594 297.141 167.182 297.389C166.773 297.635 166.292 297.755 165.739 297.75ZM165.739 296.868C166.075 296.868 166.377 296.784 166.645 296.615C166.915 296.447 167.127 296.221 167.282 295.938C167.44 295.654 167.519 295.339 167.519 294.991C167.519 294.652 167.443 294.343 167.29 294.065C167.141 293.785 166.933 293.561 166.669 293.396C166.407 293.23 166.107 293.147 165.771 293.147C165.517 293.147 165.28 293.198 165.061 293.299C164.842 293.398 164.649 293.535 164.484 293.708C164.321 293.882 164.192 294.081 164.099 294.306C164.005 294.528 163.958 294.762 163.958 295.007C163.958 295.334 164.035 295.638 164.187 295.922C164.342 296.205 164.553 296.434 164.82 296.607C165.09 296.781 165.396 296.868 165.739 296.868ZM172.945 289.426V297.638H171.95V290.469H171.902L169.897 291.8V290.79L171.95 289.426H172.945ZM177.936 297.75C177.386 297.75 176.899 297.652 176.477 297.457C176.057 297.259 175.73 296.988 175.495 296.643C175.259 296.296 175.143 295.9 175.146 295.457C175.143 295.109 175.211 294.788 175.35 294.494C175.489 294.198 175.679 293.95 175.92 293.753C176.163 293.552 176.434 293.425 176.734 293.372V293.324C176.341 293.222 176.028 293.001 175.795 292.662C175.563 292.32 175.448 291.931 175.45 291.495C175.448 291.078 175.553 290.705 175.767 290.377C175.981 290.048 176.275 289.788 176.649 289.599C177.026 289.409 177.455 289.314 177.936 289.314C178.412 289.314 178.837 289.409 179.211 289.599C179.586 289.788 179.88 290.048 180.093 290.377C180.31 290.705 180.42 291.078 180.422 291.495C180.42 291.931 180.301 292.32 180.065 292.662C179.833 293.001 179.524 293.222 179.139 293.324V293.372C179.436 293.425 179.703 293.552 179.941 293.753C180.179 293.95 180.369 294.198 180.51 294.494C180.652 294.788 180.724 295.109 180.727 295.457C180.724 295.9 180.604 296.296 180.366 296.643C180.131 296.988 179.803 297.259 179.384 297.457C178.967 297.652 178.484 297.75 177.936 297.75ZM177.936 296.868C178.308 296.868 178.629 296.808 178.899 296.687C179.169 296.567 179.377 296.397 179.524 296.178C179.671 295.959 179.746 295.702 179.749 295.408C179.746 295.098 179.666 294.824 179.508 294.586C179.35 294.349 179.135 294.161 178.863 294.025C178.593 293.889 178.284 293.821 177.936 293.821C177.586 293.821 177.273 293.889 176.998 294.025C176.726 294.161 176.51 294.349 176.353 294.586C176.198 294.824 176.121 295.098 176.124 295.408C176.121 295.702 176.192 295.959 176.337 296.178C176.484 296.397 176.693 296.567 176.966 296.687C177.239 296.808 177.562 296.868 177.936 296.868ZM177.936 292.971C178.23 292.971 178.491 292.912 178.718 292.794C178.948 292.677 179.129 292.512 179.26 292.301C179.39 292.09 179.457 291.843 179.46 291.559C179.457 291.281 179.392 291.039 179.264 290.834C179.135 290.625 178.957 290.465 178.73 290.352C178.503 290.238 178.238 290.18 177.936 290.18C177.629 290.18 177.36 290.238 177.13 290.352C176.901 290.465 176.723 290.625 176.597 290.834C176.472 291.039 176.41 291.281 176.413 291.559C176.41 291.843 176.473 292.09 176.601 292.301C176.732 292.512 176.913 292.677 177.142 292.794C177.372 292.912 177.637 292.971 177.936 292.971Z" fill="#C98060"/>
<path d="M427.41 312.751C427.791 312.37 427.791 311.753 427.41 311.372L421.204 305.165C420.823 304.785 420.206 304.785 419.825 305.165C419.444 305.546 419.444 306.164 419.825 306.545L425.341 312.062L419.825 317.578C419.444 317.959 419.444 318.577 419.825 318.958C420.206 319.338 420.823 319.338 421.204 318.958L427.41 312.751ZM137.879 311.372C137.498 311.753 137.498 312.37 137.879 312.751L144.085 318.958C144.466 319.338 145.084 319.338 145.465 318.958C145.845 318.577 145.845 317.959 145.465 317.578L139.948 312.062L145.465 306.545C145.845 306.164 145.845 305.546 145.465 305.165C145.084 304.785 144.466 304.785 144.085 305.165L137.879 311.372ZM426.721 312.062V311.086H138.569V312.062V313.037H426.721V312.062Z" fill="#C98060"/>
<path d="M272.881 319.377V327.589H271.887V320.42H271.839L269.834 321.751V320.741L271.887 319.377H272.881ZM275.463 327.653C275.266 327.653 275.096 327.582 274.954 327.441C274.813 327.299 274.742 327.129 274.742 326.931C274.742 326.734 274.813 326.564 274.954 326.422C275.096 326.28 275.266 326.21 275.463 326.21C275.661 326.21 275.831 326.28 275.973 326.422C276.114 326.564 276.185 326.734 276.185 326.931C276.185 327.062 276.152 327.183 276.085 327.292C276.021 327.402 275.934 327.49 275.824 327.557C275.717 327.621 275.597 327.653 275.463 327.653ZM280.307 327.701C279.97 327.696 279.633 327.632 279.297 327.509C278.96 327.386 278.652 327.179 278.374 326.887C278.096 326.593 277.873 326.196 277.705 325.696C277.536 325.194 277.452 324.563 277.452 323.804C277.452 323.077 277.52 322.433 277.657 321.871C277.793 321.307 277.991 320.833 278.25 320.448C278.509 320.06 278.822 319.766 279.188 319.566C279.557 319.365 279.973 319.265 280.435 319.265C280.895 319.265 281.304 319.357 281.662 319.542C282.023 319.724 282.317 319.978 282.544 320.304C282.771 320.63 282.918 321.005 282.985 321.43H282.007C281.916 321.061 281.74 320.755 281.478 320.512C281.216 320.269 280.868 320.147 280.435 320.147C279.799 320.147 279.298 320.424 278.932 320.977C278.568 321.531 278.385 322.307 278.382 323.307H278.447C278.596 323.08 278.774 322.886 278.98 322.725C279.188 322.562 279.418 322.437 279.669 322.348C279.921 322.26 280.187 322.216 280.467 322.216C280.938 322.216 281.368 322.334 281.758 322.569C282.149 322.802 282.461 323.124 282.697 323.535C282.932 323.944 283.049 324.413 283.049 324.943C283.049 325.45 282.936 325.916 282.709 326.338C282.481 326.758 282.162 327.092 281.75 327.34C281.341 327.586 280.86 327.706 280.307 327.701ZM280.307 326.819C280.644 326.819 280.946 326.735 281.213 326.566C281.483 326.398 281.696 326.172 281.851 325.889C282.008 325.606 282.087 325.29 282.087 324.943C282.087 324.603 282.011 324.294 281.859 324.016C281.709 323.736 281.502 323.513 281.237 323.347C280.975 323.181 280.676 323.098 280.339 323.098C280.085 323.098 279.848 323.149 279.629 323.251C279.41 323.35 279.218 323.486 279.052 323.66C278.889 323.833 278.761 324.032 278.667 324.257C278.573 324.479 278.527 324.713 278.527 324.959C278.527 325.285 278.603 325.589 278.755 325.873C278.91 326.156 279.121 326.385 279.389 326.558C279.659 326.732 279.965 326.819 280.307 326.819ZM287.513 319.377V327.589H286.519V320.42H286.47L284.466 321.751V320.741L286.519 319.377H287.513ZM292.505 327.701C291.954 327.701 291.468 327.604 291.045 327.408C290.626 327.211 290.298 326.939 290.063 326.595C289.828 326.247 289.711 325.851 289.714 325.408C289.711 325.06 289.78 324.739 289.919 324.445C290.058 324.149 290.247 323.901 290.488 323.704C290.731 323.503 291.003 323.376 291.302 323.323V323.275C290.909 323.173 290.596 322.953 290.364 322.613C290.131 322.271 290.016 321.882 290.019 321.446C290.016 321.029 290.122 320.656 290.336 320.328C290.549 319.999 290.843 319.74 291.218 319.55C291.595 319.36 292.024 319.265 292.505 319.265C292.981 319.265 293.406 319.36 293.78 319.55C294.154 319.74 294.448 319.999 294.662 320.328C294.878 320.656 294.988 321.029 294.991 321.446C294.988 321.882 294.869 322.271 294.634 322.613C294.401 322.953 294.092 323.173 293.708 323.275V323.323C294.004 323.376 294.272 323.503 294.509 323.704C294.747 323.901 294.937 324.149 295.079 324.445C295.22 324.739 295.293 325.06 295.295 325.408C295.293 325.851 295.172 326.247 294.934 326.595C294.699 326.939 294.372 327.211 293.952 327.408C293.535 327.604 293.053 327.701 292.505 327.701ZM292.505 326.819C292.876 326.819 293.197 326.759 293.467 326.639C293.737 326.518 293.945 326.349 294.092 326.129C294.239 325.91 294.314 325.654 294.317 325.36C294.314 325.05 294.234 324.776 294.076 324.538C293.919 324.3 293.704 324.113 293.431 323.976C293.161 323.84 292.852 323.772 292.505 323.772C292.155 323.772 291.842 323.84 291.567 323.976C291.294 324.113 291.079 324.3 290.921 324.538C290.766 324.776 290.69 325.05 290.692 325.36C290.69 325.654 290.761 325.91 290.905 326.129C291.052 326.349 291.262 326.518 291.534 326.639C291.807 326.759 292.131 326.819 292.505 326.819ZM292.505 322.922C292.799 322.922 293.059 322.863 293.287 322.745C293.516 322.628 293.697 322.463 293.828 322.252C293.959 322.041 294.026 321.794 294.028 321.511C294.026 321.233 293.96 320.991 293.832 320.785C293.704 320.576 293.526 320.416 293.299 320.304C293.071 320.189 292.807 320.131 292.505 320.131C292.197 320.131 291.929 320.189 291.699 320.304C291.469 320.416 291.291 320.576 291.166 320.785C291.04 320.991 290.978 321.233 290.981 321.511C290.978 321.794 291.041 322.041 291.17 322.252C291.301 322.463 291.481 322.628 291.711 322.745C291.941 322.863 292.205 322.922 292.505 322.922Z" fill="#C98060"/>
</svg>
