<svg width="448" height="400" viewBox="0 0 448 400" fill="none" xmlns="http://www.w3.org/2000/svg">
<path opacity="0.2" d="M355.658 151.8L241.685 268.394H240.374C240.374 209.789 169.99 162.28 83.1682 162.28L93.8694 151.803H258.714V151.8H355.658ZM219.413 131.494L229.559 141.322H104.573L114.611 131.494H219.413Z" fill="white"/>
<rect x="83.1675" y="130.84" width="272.489" height="137.555" stroke="white" stroke-width="0.524017"/>
<path d="M83.1675 141.322L355.657 141.322" stroke="white" stroke-width="0.524017"/>
<path d="M83.1675 151.802L355.657 151.802" stroke="white" stroke-width="0.524017"/>
<path d="M83.1675 162.28L355.657 162.28" stroke="white" stroke-width="0.524017"/>
<path d="M83.1697 162.28L114.611 130.839" stroke="white" stroke-width="0.524017"/>
<path d="M240.375 268.398L355.659 153.115" stroke="white" stroke-width="0.524017"/>
<path d="M83.1675 268.394L219.412 130.84L355.657 268.394" stroke="white" stroke-width="0.524017"/>
<path d="M83.1675 130.84L219.412 268.394L355.657 130.84" stroke="white" stroke-width="0.524017"/>
<path d="M245.749 266.801V266.526L246.557 265.249H246.786V265.64H246.647L246.102 266.502V266.517H247.231V266.801H245.749ZM246.658 267.154V266.717L246.661 266.594V265.249H246.987V267.154H246.658ZM248.191 267.18C248.067 267.18 247.956 267.157 247.857 267.111C247.759 267.063 247.682 266.999 247.624 266.917C247.567 266.835 247.537 266.741 247.533 266.636H247.868C247.874 266.714 247.908 266.778 247.969 266.828C248.031 266.877 248.104 266.901 248.191 266.901C248.258 266.901 248.318 266.886 248.371 266.855C248.424 266.824 248.465 266.781 248.496 266.725C248.526 266.67 248.541 266.607 248.54 266.536C248.541 266.465 248.526 266.401 248.495 266.345C248.464 266.289 248.421 266.245 248.367 266.214C248.313 266.181 248.251 266.165 248.181 266.165C248.124 266.165 248.068 266.175 248.013 266.197C247.958 266.219 247.914 266.247 247.882 266.282L247.57 266.231L247.67 265.249H248.775V265.537H247.955L247.9 266.042H247.911C247.947 266.001 247.997 265.966 248.061 265.939C248.126 265.911 248.196 265.897 248.273 265.897C248.389 265.897 248.492 265.925 248.582 265.979C248.673 266.033 248.744 266.108 248.796 266.202C248.848 266.297 248.874 266.406 248.874 266.528C248.874 266.654 248.845 266.766 248.787 266.865C248.729 266.963 248.649 267.04 248.546 267.097C248.444 267.152 248.325 267.18 248.191 267.18ZM249.617 266.13C249.534 266.13 249.459 266.11 249.392 266.07C249.324 266.03 249.27 265.976 249.23 265.908C249.19 265.84 249.169 265.765 249.169 265.682C249.169 265.6 249.19 265.526 249.23 265.458C249.27 265.39 249.324 265.336 249.392 265.296C249.459 265.256 249.534 265.236 249.617 265.236C249.699 265.236 249.774 265.256 249.842 265.296C249.91 265.336 249.964 265.39 250.004 265.458C250.044 265.526 250.064 265.6 250.064 265.682C250.064 265.765 250.044 265.84 250.004 265.908C249.964 265.976 249.91 266.03 249.842 266.07C249.774 266.11 249.699 266.13 249.617 266.13ZM249.617 265.892C249.655 265.892 249.69 265.882 249.722 265.864C249.754 265.845 249.779 265.82 249.797 265.788C249.817 265.757 249.826 265.721 249.826 265.682C249.826 265.644 249.817 265.609 249.797 265.577C249.779 265.546 249.754 265.52 249.722 265.502C249.69 265.483 249.655 265.474 249.617 265.474C249.578 265.474 249.543 265.483 249.512 265.502C249.48 265.52 249.455 265.546 249.436 265.577C249.417 265.609 249.408 265.644 249.408 265.682C249.408 265.721 249.417 265.756 249.436 265.788C249.454 265.82 249.479 265.845 249.511 265.864C249.543 265.882 249.578 265.892 249.617 265.892Z" fill="white"/>
<path d="M220.858 139.725V139.45L221.667 138.173H221.895V138.563H221.756L221.212 139.426V139.441H222.34V139.725H220.858ZM221.767 140.078V139.641L221.771 139.518V138.173H222.096V140.078H221.767ZM223.3 140.104C223.176 140.104 223.065 140.081 222.967 140.034C222.869 139.987 222.791 139.923 222.733 139.841C222.676 139.759 222.646 139.665 222.642 139.56H222.977C222.983 139.638 223.017 139.702 223.079 139.752C223.14 139.801 223.214 139.825 223.3 139.825C223.368 139.825 223.428 139.81 223.48 139.779C223.533 139.748 223.575 139.704 223.605 139.649C223.636 139.594 223.65 139.531 223.65 139.46C223.65 139.388 223.635 139.324 223.604 139.269C223.573 139.213 223.531 139.169 223.477 139.137C223.423 139.105 223.361 139.089 223.291 139.089C223.234 139.088 223.177 139.099 223.122 139.121C223.067 139.142 223.023 139.171 222.991 139.206L222.679 139.155L222.779 138.173H223.884V138.461H223.065L223.01 138.966H223.021C223.056 138.925 223.106 138.89 223.171 138.863C223.235 138.835 223.306 138.821 223.383 138.821C223.498 138.821 223.601 138.848 223.692 138.903C223.782 138.957 223.854 139.031 223.906 139.126C223.958 139.221 223.984 139.33 223.984 139.452C223.984 139.578 223.955 139.69 223.896 139.789C223.839 139.887 223.758 139.964 223.655 140.02C223.553 140.076 223.435 140.104 223.3 140.104ZM224.726 139.054C224.644 139.054 224.569 139.034 224.501 138.994C224.434 138.954 224.38 138.9 224.339 138.832C224.299 138.764 224.279 138.689 224.279 138.606C224.279 138.524 224.299 138.45 224.339 138.382C224.38 138.314 224.434 138.26 224.501 138.22C224.569 138.18 224.644 138.16 224.726 138.16C224.809 138.16 224.884 138.18 224.951 138.22C225.019 138.26 225.073 138.314 225.113 138.382C225.154 138.45 225.174 138.524 225.174 138.606C225.174 138.689 225.154 138.764 225.113 138.832C225.073 138.9 225.019 138.954 224.951 138.994C224.884 139.034 224.809 139.054 224.726 139.054ZM224.726 138.816C224.765 138.816 224.8 138.806 224.831 138.788C224.863 138.769 224.888 138.744 224.907 138.712C224.926 138.681 224.936 138.645 224.936 138.606C224.936 138.568 224.926 138.533 224.907 138.501C224.888 138.469 224.863 138.444 224.831 138.426C224.8 138.407 224.765 138.398 224.726 138.398C224.688 138.398 224.653 138.407 224.621 138.426C224.59 138.444 224.564 138.469 224.545 138.501C224.526 138.533 224.517 138.568 224.517 138.606C224.517 138.645 224.526 138.68 224.545 138.712C224.563 138.744 224.589 138.769 224.62 138.788C224.652 138.806 224.688 138.816 224.726 138.816Z" fill="white"/>
<circle cx="219.414" cy="134.769" r="2.62009" stroke="white" stroke-width="0.524017"/>
<circle cx="241.683" cy="267.084" r="1.31004" stroke="white" stroke-width="0.524017"/>
<path d="M362.208 151.802L364.828 151.802L364.828 268.396L362.208 268.396" stroke="white" stroke-width="0.524017"/>
<path d="M371.378 130.841L373.999 130.841L373.999 268.396L371.378 268.396" stroke="white" stroke-width="0.524017"/>
<path d="M217.047 292.048V291.674L218.04 290.701C218.134 290.605 218.214 290.52 218.277 290.446C218.34 290.371 218.388 290.299 218.419 290.229C218.451 290.16 218.467 290.085 218.467 290.006C218.467 289.916 218.446 289.839 218.405 289.774C218.364 289.709 218.308 289.659 218.236 289.624C218.165 289.588 218.083 289.571 217.992 289.571C217.898 289.571 217.816 289.59 217.745 289.629C217.674 289.667 217.619 289.722 217.58 289.792C217.542 289.863 217.523 289.947 217.523 290.045H217.03C217.03 289.864 217.072 289.706 217.155 289.572C217.237 289.438 217.351 289.334 217.497 289.261C217.643 289.187 217.81 289.15 217.999 289.15C218.191 289.15 218.359 289.186 218.504 289.258C218.649 289.33 218.762 289.428 218.842 289.552C218.923 289.677 218.963 289.819 218.963 289.98C218.963 290.087 218.943 290.192 218.902 290.295C218.861 290.398 218.789 290.513 218.686 290.638C218.583 290.764 218.44 290.916 218.254 291.095L217.762 291.596V291.615H219.007V292.048H217.047ZM219.907 289.904L220.34 290.695L220.779 289.904H221.314L220.668 290.976L221.325 292.048H220.793L220.34 291.276L219.89 292.048H219.354L220.007 290.976L219.371 289.904H219.907Z" fill="white"/>
<path d="M369.828 211.515L369.454 211.515L368.481 210.522C368.385 210.428 368.3 210.348 368.226 210.285C368.151 210.222 368.079 210.174 368.01 210.143C367.94 210.111 367.865 210.095 367.786 210.095C367.696 210.095 367.619 210.116 367.555 210.157C367.489 210.198 367.439 210.254 367.404 210.326C367.369 210.397 367.351 210.479 367.351 210.57C367.351 210.664 367.37 210.746 367.409 210.817C367.448 210.888 367.502 210.943 367.573 210.982C367.643 211.02 367.728 211.039 367.825 211.039L367.825 211.531C367.644 211.531 367.486 211.49 367.352 211.407C367.218 211.324 367.115 211.21 367.041 211.065C366.968 210.919 366.931 210.752 366.931 210.563C366.931 210.371 366.967 210.203 367.038 210.058C367.11 209.913 367.208 209.8 367.333 209.72C367.457 209.639 367.6 209.599 367.76 209.599C367.867 209.599 367.972 209.619 368.075 209.66C368.178 209.701 368.293 209.773 368.419 209.876C368.544 209.979 368.696 210.122 368.875 210.308L369.376 210.8L369.395 210.8L369.395 209.555L369.828 209.555L369.828 211.515ZM367.684 208.655L368.476 208.222L367.684 207.783L367.684 207.248L368.756 207.894L369.828 207.237L369.828 207.769L369.056 208.222L369.828 208.672L369.828 209.208L368.756 208.555L367.684 209.191L367.684 208.655Z" fill="white"/>
<path d="M378.999 202.344L378.625 202.344L377.652 201.352C377.556 201.257 377.471 201.178 377.396 201.114C377.322 201.051 377.25 201.004 377.18 200.972C377.11 200.94 377.036 200.924 376.957 200.924C376.866 200.924 376.789 200.945 376.725 200.986C376.66 201.027 376.61 201.083 376.574 201.155C376.539 201.226 376.521 201.308 376.521 201.399C376.521 201.493 376.541 201.575 376.58 201.646C376.618 201.717 376.672 201.772 376.743 201.811C376.814 201.849 376.898 201.868 376.996 201.868L376.996 202.361C376.814 202.361 376.657 202.319 376.523 202.236C376.389 202.154 376.285 202.04 376.211 201.894C376.138 201.748 376.101 201.581 376.101 201.392C376.101 201.2 376.137 201.032 376.209 200.887C376.28 200.742 376.378 200.629 376.503 200.549C376.628 200.468 376.77 200.428 376.93 200.428C377.037 200.428 377.142 200.448 377.246 200.489C377.349 200.53 377.463 200.602 377.589 200.705C377.715 200.808 377.867 200.951 378.045 201.137L378.546 201.629L378.566 201.629L378.566 200.384L378.999 200.384L378.999 202.344ZM376.855 199.484L377.646 199.052L376.855 198.612L376.855 198.077L377.927 198.724L378.999 198.066L378.999 198.598L378.227 199.052L378.999 199.501L378.999 200.037L377.927 199.384L376.855 200.02L376.855 199.484Z" fill="white"/>
<path d="M290.703 109.641V109.267L291.696 108.294C291.79 108.198 291.87 108.113 291.933 108.038C291.996 107.964 292.044 107.892 292.075 107.822C292.107 107.752 292.123 107.678 292.123 107.599C292.123 107.509 292.102 107.431 292.061 107.367C292.02 107.302 291.964 107.252 291.892 107.216C291.821 107.181 291.739 107.163 291.648 107.163C291.554 107.163 291.472 107.183 291.401 107.222C291.33 107.26 291.275 107.315 291.236 107.385C291.198 107.456 291.179 107.54 291.179 107.638H290.687C290.687 107.456 290.728 107.299 290.811 107.165C290.894 107.031 291.008 106.927 291.153 106.854C291.299 106.78 291.466 106.743 291.655 106.743C291.847 106.743 292.015 106.779 292.16 106.851C292.305 106.922 292.418 107.021 292.498 107.145C292.579 107.27 292.619 107.412 292.619 107.572C292.619 107.679 292.599 107.784 292.558 107.888C292.517 107.991 292.445 108.105 292.342 108.231C292.239 108.357 292.096 108.509 291.911 108.687L291.418 109.188V109.208L292.663 109.208V109.641H290.703ZM293.563 107.497L293.996 108.288L294.435 107.497H294.97L294.324 108.569L294.981 109.641H294.449L293.996 108.869L293.546 109.641H293.01L293.663 108.569L293.027 107.497H293.563Z" fill="white"/>
<path d="M234.362 120.121H233.809L234.816 117.263H235.455L236.462 120.121H235.91L235.146 117.849H235.124L234.362 120.121ZM234.38 119H235.887V119.416H234.38V119Z" fill="white"/>
<path d="M223.88 120.121H223.327L224.334 117.263H224.973L225.98 120.121H225.428L224.664 117.849H224.642L223.88 120.121ZM223.898 119H225.405V119.416H223.898V119Z" fill="white"/>
<path d="M164.928 110.952H164.376L165.382 108.094H166.021L167.029 110.952H166.476L165.713 108.68H165.69L164.928 110.952ZM164.947 109.831H166.454V110.247H164.947V109.831Z" fill="white"/>
<path d="M92.8771 110.952H92.3244L93.3307 108.094H93.9699L94.9775 110.952H94.4249L93.6614 108.68H93.6391L92.8771 110.952ZM92.8952 109.831H94.4025V110.247H92.8952V109.831Z" fill="white"/>
<path d="M87.6361 120.121H87.0834L88.0897 117.263H88.7289L89.7366 120.121H89.1839L88.4205 117.849H88.3981L87.6361 120.121ZM87.6543 119H89.1616V119.416H87.6543V119Z" fill="white"/>
<path d="M68.9971 136.62L68.9971 136.067L71.8553 137.074L71.8553 137.713L68.9971 138.72L68.9971 138.168L71.2692 137.404L71.2692 137.382L68.9971 136.62ZM70.1178 136.638L70.1178 138.145L69.7019 138.145L69.7019 136.638L70.1178 136.638Z" fill="white"/>
<path d="M68.9971 147.097L68.9971 146.544L71.8553 147.55L71.8553 148.189L68.9971 149.197L68.9971 148.644L71.2692 147.881L71.2692 147.859L68.9971 147.097ZM70.1178 147.115L70.1178 148.622L69.7019 148.622L69.7019 147.115L70.1178 147.115Z" fill="white"/>
<path d="M68.9971 157.579L68.9971 157.026L71.8553 158.033L71.8553 158.672L68.9971 159.679L68.9971 159.127L71.2692 158.363L71.2692 158.341L68.9971 157.579ZM70.1178 157.597L70.1178 159.104L69.7019 159.104L69.7019 157.597L70.1178 157.597Z" fill="white"/>
<path d="M68.9971 212.264L68.9971 211.711L71.8553 212.718L71.8553 213.357L68.9971 214.365L68.9971 213.812L71.2692 213.049L71.2692 213.026L68.9971 212.264ZM70.1178 212.282L70.1178 213.79L69.7019 213.79L69.7019 212.282L70.1178 212.282ZM68.9971 215.108L68.9971 214.555L71.8553 215.562L71.8553 216.201L68.9971 217.209L68.9971 216.656L71.2692 215.892L71.2692 215.87L68.9971 215.108ZM70.1178 215.126L70.1178 216.634L69.7019 216.634L69.7019 215.126L70.1178 215.126ZM68.9971 217.952L68.9971 217.399L71.8553 218.406L71.8553 219.045L68.9971 220.053L68.9971 219.5L71.2692 218.736L71.2692 218.714L68.9971 217.952ZM70.1178 217.97L70.1178 219.478L69.7019 219.478L69.7019 217.97L70.1178 217.97ZM68.9971 220.796L68.9971 220.243L71.8553 221.25L71.8553 221.889L68.9971 222.897L68.9971 222.344L71.2692 221.58L71.2692 221.558L68.9971 220.796ZM70.1178 220.814L70.1178 222.322L69.7019 222.322L69.7019 220.814L70.1178 220.814Z" fill="white"/>
<path d="M98.1151 120.121H97.5625L98.5687 117.263H99.2079L100.216 120.121H99.6629L98.8995 117.849H98.8771L98.1151 120.121ZM98.1333 119H99.6406V119.416H98.1333V119Z" fill="white"/>
<path d="M108.597 120.121H108.044L109.051 117.263H109.69L110.698 120.121H110.145L109.381 117.849H109.359L108.597 120.121ZM108.615 119H110.122V119.416H108.615V119Z" fill="white"/>
<path d="M115.702 118.081H115.149L116.156 115.223H116.795L117.802 118.081H117.25L116.486 115.809H116.464L115.702 118.081ZM115.72 116.96H117.227V117.376H115.72V116.96ZM119.265 116.42V115.99H121.123V116.42H119.265ZM119.265 117.313V116.884H121.123V117.313H119.265ZM123.164 115.937L123.596 116.729L124.036 115.937H124.571L123.924 117.009L124.582 118.081H124.05L123.596 117.309L123.147 118.081H122.611L123.264 117.009L122.628 115.937H123.164Z" fill="white"/>
<path d="M159.405 282.878V282.504L160.397 281.531C160.492 281.435 160.571 281.35 160.634 281.276C160.698 281.201 160.745 281.129 160.777 281.059C160.808 280.99 160.824 280.915 160.824 280.836C160.824 280.746 160.804 280.669 160.763 280.604C160.722 280.539 160.666 280.489 160.594 280.454C160.522 280.418 160.441 280.401 160.35 280.401C160.256 280.401 160.173 280.42 160.103 280.459C160.032 280.497 159.977 280.552 159.938 280.623C159.9 280.693 159.881 280.777 159.881 280.875H159.388C159.388 280.694 159.43 280.536 159.512 280.402C159.595 280.268 159.709 280.164 159.854 280.091C160 280.017 160.168 279.981 160.357 279.981C160.548 279.981 160.717 280.016 160.862 280.088C161.007 280.16 161.12 280.258 161.2 280.383C161.281 280.507 161.321 280.65 161.321 280.81C161.321 280.917 161.301 281.022 161.26 281.125C161.219 281.228 161.147 281.343 161.043 281.468C160.941 281.594 160.797 281.746 160.612 281.925L160.119 282.426V282.445H161.364V282.878H159.405ZM162.265 280.734L162.697 281.526L163.137 280.734H163.671L163.025 281.806L163.683 282.878H163.151L162.697 282.106L162.248 282.878H161.712L162.365 281.806L161.729 280.734H162.265Z" fill="white"/>
<path d="M240.373 274.946V277.566H83.1675V274.946" stroke="white" stroke-width="0.524017"/>
<path d="M355.657 284.116V286.736H83.1675V284.116" stroke="white" stroke-width="0.524017"/>
<path d="M355.659 274.946V277.566H240.375V274.946" stroke="white" stroke-width="0.524017"/>
<path d="M93.6476 121.669H83.1672V124.289M93.6476 121.669V124.289M93.6476 121.669H104.128M104.128 121.669V124.289M104.128 121.669H114.608V124.289" stroke="white" stroke-width="0.524017"/>
<path d="M229.892 121.669H219.411V124.289M229.892 121.669V124.289M229.892 121.669H240.372V124.289" stroke="white" stroke-width="0.524017"/>
<path d="M104.128 115.118V112.498H83.1672V115.118" stroke="white" stroke-width="0.524017"/>
<path d="M229.892 115.118V112.498H104.128V115.118" stroke="white" stroke-width="0.524017"/>
<path d="M355.656 115.118V112.498H229.892V115.118" stroke="white" stroke-width="0.524017"/>
<path d="M73.9971 151.801L73.9971 162.281L76.6172 162.281M73.9971 151.801L76.6172 151.801M73.9971 151.801L73.9971 141.321M73.9971 141.321L76.6172 141.321M73.9971 141.321L73.9971 130.84L76.6172 130.84" stroke="white" stroke-width="0.524017"/>
<path d="M76.6172 162.281L73.9971 162.281L73.9971 268.395L76.6172 268.395" stroke="white" stroke-width="0.524017"/>
<path d="M93.6494 130.841V268.395" stroke="white" stroke-width="0.524017"/>
<path d="M104.13 130.841V268.395" stroke="white" stroke-width="0.524017"/>
<path d="M114.61 130.841V268.395" stroke="white" stroke-width="0.524017"/>
<path d="M219.414 130.841V268.395" stroke="white" stroke-width="0.524017"/>
<path d="M229.895 130.841V268.395" stroke="white" stroke-width="0.524017"/>
<path d="M240.375 130.841V268.395" stroke="white" stroke-width="0.524017"/>
</svg>
