<svg width="448" height="400" viewBox="0 0 448 400" fill="none" xmlns="http://www.w3.org/2000/svg">
<g clip-path="url(#clip0_687_67789)">
<path d="M24.0009 310.345L421.242 89.6553" stroke="white" stroke-width="1.14943"/>
<path d="M421.238 310.345L288.824 89.6553" stroke="white" stroke-width="1.14943" stroke-linecap="square"/>
<path d="M131.305 277.695C130.543 277.695 129.85 277.552 129.229 277.264C128.607 276.972 128.113 276.551 127.747 276.002C127.382 275.449 127.199 274.78 127.199 273.996C127.199 273.307 127.335 272.747 127.606 272.319C127.878 271.885 128.241 271.546 128.696 271.3C129.15 271.055 129.652 270.872 130.2 270.752C130.754 270.626 131.311 270.527 131.87 270.454C132.601 270.36 133.194 270.289 133.649 270.242C134.108 270.19 134.443 270.104 134.652 269.984C134.866 269.863 134.973 269.654 134.973 269.357V269.294C134.973 268.521 134.762 267.92 134.338 267.491C133.92 267.063 133.286 266.849 132.434 266.849C131.551 266.849 130.859 267.042 130.357 267.429C129.856 267.815 129.503 268.228 129.299 268.667L127.544 268.04C127.857 267.309 128.275 266.739 128.798 266.332C129.325 265.919 129.9 265.631 130.522 265.47C131.149 265.302 131.765 265.219 132.371 265.219C132.758 265.219 133.202 265.266 133.704 265.36C134.21 265.449 134.699 265.634 135.169 265.916C135.645 266.198 136.039 266.624 136.352 267.194C136.666 267.763 136.823 268.526 136.823 269.482V277.413H134.973V275.783H134.879C134.754 276.044 134.545 276.324 134.252 276.622C133.96 276.919 133.57 277.173 133.084 277.382C132.599 277.591 132.006 277.695 131.305 277.695ZM131.588 276.034C132.319 276.034 132.936 275.89 133.437 275.603C133.944 275.315 134.325 274.944 134.581 274.49C134.843 274.035 134.973 273.557 134.973 273.056V271.363C134.895 271.457 134.722 271.543 134.456 271.622C134.195 271.695 133.892 271.76 133.547 271.817C133.207 271.87 132.875 271.917 132.552 271.959C132.233 271.995 131.974 272.026 131.776 272.053C131.295 272.115 130.846 272.217 130.428 272.358C130.015 272.494 129.681 272.7 129.425 272.977C129.174 273.249 129.048 273.62 129.048 274.09C129.048 274.733 129.286 275.219 129.762 275.548C130.242 275.872 130.851 276.034 131.588 276.034Z" fill="white"/>
<path d="M351.995 153.558C351.232 153.558 350.54 153.414 349.918 153.126C349.296 152.834 348.803 152.413 348.437 151.865C348.071 151.311 347.888 150.642 347.888 149.858C347.888 149.169 348.024 148.61 348.296 148.181C348.567 147.748 348.931 147.408 349.385 147.163C349.84 146.917 350.341 146.734 350.89 146.614C351.444 146.489 352 146.389 352.559 146.316C353.291 146.222 353.884 146.152 354.338 146.105C354.798 146.052 355.132 145.966 355.341 145.846C355.555 145.726 355.663 145.517 355.663 145.219V145.156C355.663 144.383 355.451 143.782 355.028 143.354C354.61 142.925 353.975 142.711 353.123 142.711C352.24 142.711 351.548 142.904 351.047 143.291C350.545 143.678 350.192 144.09 349.989 144.529L348.233 143.902C348.547 143.171 348.965 142.601 349.487 142.194C350.015 141.781 350.589 141.494 351.211 141.332C351.838 141.165 352.455 141.081 353.061 141.081C353.447 141.081 353.891 141.128 354.393 141.222C354.9 141.311 355.388 141.496 355.859 141.779C356.334 142.061 356.728 142.486 357.042 143.056C357.355 143.625 357.512 144.388 357.512 145.344V153.275H355.663V151.645H355.569C355.443 151.907 355.234 152.186 354.942 152.484C354.649 152.782 354.26 153.035 353.774 153.244C353.288 153.453 352.695 153.558 351.995 153.558ZM352.277 151.896C353.008 151.896 353.625 151.752 354.127 151.465C354.633 151.178 355.015 150.807 355.271 150.352C355.532 149.898 355.663 149.42 355.663 148.918V147.225C355.584 147.319 355.412 147.405 355.145 147.484C354.884 147.557 354.581 147.622 354.236 147.68C353.897 147.732 353.565 147.779 353.241 147.821C352.922 147.857 352.664 147.889 352.465 147.915C351.984 147.978 351.535 148.079 351.117 148.221C350.704 148.356 350.37 148.563 350.114 148.84C349.863 149.111 349.738 149.482 349.738 149.953C349.738 150.595 349.976 151.081 350.451 151.41C350.932 151.734 351.54 151.896 352.277 151.896Z" fill="white"/>
<path d="M296.823 181.143C296.06 181.143 295.367 181 294.746 180.712C294.124 180.42 293.63 179.999 293.265 179.451C292.899 178.897 292.716 178.228 292.716 177.444C292.716 176.755 292.852 176.196 293.123 175.767C293.395 175.334 293.758 174.994 294.213 174.748C294.667 174.503 295.169 174.32 295.717 174.2C296.271 174.074 296.828 173.975 297.387 173.902C298.118 173.808 298.711 173.738 299.166 173.69C299.626 173.638 299.96 173.552 300.169 173.432C300.383 173.312 300.49 173.103 300.49 172.805V172.742C300.49 171.969 300.279 171.368 299.855 170.94C299.437 170.511 298.803 170.297 297.951 170.297C297.068 170.297 296.376 170.49 295.874 170.877C295.373 171.264 295.02 171.676 294.816 172.115L293.061 171.488C293.374 170.757 293.792 170.187 294.315 169.78C294.842 169.367 295.417 169.08 296.039 168.918C296.666 168.751 297.282 168.667 297.888 168.667C298.275 168.667 298.719 168.714 299.221 168.808C299.727 168.897 300.216 169.082 300.686 169.364C301.162 169.647 301.556 170.072 301.87 170.642C302.183 171.211 302.34 171.974 302.34 172.93V180.861H300.49V179.231H300.396C300.271 179.492 300.062 179.772 299.769 180.07C299.477 180.368 299.087 180.621 298.602 180.83C298.116 181.039 297.523 181.143 296.823 181.143ZM297.105 179.482C297.836 179.482 298.453 179.338 298.954 179.051C299.461 178.764 299.842 178.393 300.098 177.938C300.36 177.484 300.49 177.006 300.49 176.504V174.811C300.412 174.905 300.239 174.991 299.973 175.07C299.712 175.143 299.409 175.208 299.064 175.266C298.724 175.318 298.393 175.365 298.069 175.407C297.75 175.443 297.491 175.475 297.293 175.501C296.812 175.564 296.363 175.665 295.945 175.806C295.532 175.942 295.198 176.149 294.942 176.426C294.691 176.697 294.565 177.068 294.565 177.538C294.565 178.181 294.803 178.667 295.279 178.996C295.759 179.32 296.368 179.482 297.105 179.482Z" fill="white"/>
<path d="M156.413 310.345L156.413 89.6553" stroke="white" stroke-width="1.14943" stroke-dasharray="2.76 8.28"/>
<path d="M288.826 310.345V89.6553" stroke="white" stroke-width="1.14943" stroke-dasharray="2.76 8.28"/>
<rect width="397.241" height="22.069" transform="translate(24 89.6553)" fill="#F5D245" fill-opacity="0.2"/>
<path d="M35.7232 107.932H33.2467V99.9066H35.8329C36.6114 99.9066 37.2775 100.067 37.8313 100.389C38.3851 100.707 38.8096 101.166 39.1048 101.764C39.4 102.36 39.5476 103.073 39.5476 103.903C39.5476 104.739 39.3987 105.459 39.1009 106.063C38.8031 106.663 38.3695 107.126 37.8 107.45C37.2305 107.771 36.5382 107.932 35.7232 107.932ZM34.2185 107.07H35.6605C36.324 107.07 36.8739 106.942 37.3102 106.686C37.7464 106.43 38.0717 106.065 38.2859 105.592C38.5001 105.119 38.6072 104.557 38.6072 103.903C38.6072 103.256 38.5014 102.698 38.2898 102.23C38.0782 101.76 37.7621 101.4 37.3415 101.149C36.9209 100.895 36.3972 100.769 35.7702 100.769H34.2185V107.07Z" fill="white"/>
<path d="M273.248 107.932V99.9066H278.091V100.769H274.219V103.48H277.84V104.342H274.219V107.07H278.154V107.932H273.248Z" fill="white"/>
<path d="M412.118 102.414H411.147C411.089 102.135 410.989 101.889 410.845 101.678C410.704 101.466 410.531 101.288 410.328 101.145C410.127 100.999 409.903 100.889 409.658 100.816C409.412 100.743 409.156 100.706 408.89 100.706C408.404 100.706 407.964 100.829 407.569 101.074C407.177 101.32 406.865 101.682 406.633 102.16C406.403 102.638 406.288 103.224 406.288 103.919C406.288 104.614 406.403 105.2 406.633 105.679C406.865 106.157 407.177 106.518 407.569 106.764C407.964 107.009 408.404 107.132 408.89 107.132C409.156 107.132 409.412 107.096 409.658 107.023C409.903 106.949 410.127 106.841 410.328 106.697C410.531 106.551 410.704 106.372 410.845 106.16C410.989 105.946 411.089 105.701 411.147 105.424H412.118C412.045 105.834 411.912 106.201 411.719 106.525C411.525 106.849 411.285 107.124 410.998 107.352C410.71 107.576 410.388 107.747 410.03 107.865C409.675 107.983 409.295 108.041 408.89 108.041C408.205 108.041 407.596 107.874 407.064 107.54C406.531 107.205 406.111 106.73 405.806 106.113C405.5 105.497 405.347 104.765 405.347 103.919C405.347 103.073 405.5 102.341 405.806 101.725C406.111 101.108 406.531 100.633 407.064 100.298C407.596 99.964 408.205 99.7968 408.89 99.7968C409.295 99.7968 409.675 99.8556 410.03 99.9732C410.388 100.091 410.71 100.263 410.998 100.49C411.285 100.715 411.525 100.989 411.719 101.313C411.912 101.635 412.045 102.002 412.118 102.414Z" fill="white"/>
<rect width="397.241" height="24.8276" transform="translate(24 285.518)" fill="#F5D245" fill-opacity="0.2"/>
<path d="M33.5758 303.794H32.557L35.5037 295.769H36.5069L39.4536 303.794H38.4348L36.0367 297.038H35.974L33.5758 303.794ZM33.952 300.659H38.0586V301.521H33.952V300.659Z" fill="white"/>
<path d="M273.248 303.794V295.769H278.06V296.631H274.219V299.343H277.699V300.205H274.219V303.794H273.248Z" fill="white"/>
<path d="M405.661 303.794V295.769H408.466C409.025 295.769 409.487 295.866 409.85 296.059C410.213 296.25 410.483 296.507 410.661 296.831C410.838 297.152 410.927 297.509 410.927 297.901C410.927 298.245 410.866 298.53 410.743 298.755C410.623 298.979 410.464 299.157 410.265 299.288C410.069 299.418 409.856 299.515 409.626 299.578V299.656C409.872 299.672 410.119 299.758 410.367 299.915C410.615 300.071 410.823 300.296 410.99 300.589C411.157 300.881 411.241 301.239 411.241 301.662C411.241 302.065 411.149 302.426 410.966 302.748C410.784 303.069 410.495 303.324 410.1 303.512C409.706 303.7 409.193 303.794 408.56 303.794H405.661ZM406.633 302.932H408.56C409.195 302.932 409.646 302.809 409.912 302.564C410.181 302.315 410.316 302.015 410.316 301.662C410.316 301.391 410.247 301.14 410.108 300.91C409.97 300.677 409.773 300.492 409.517 300.354C409.261 300.212 408.958 300.142 408.607 300.142H406.633V302.932ZM406.633 299.296H408.435C408.728 299.296 408.991 299.238 409.227 299.123C409.464 299.008 409.652 298.846 409.791 298.637C409.932 298.428 410.002 298.183 410.002 297.901C410.002 297.548 409.88 297.249 409.634 297.003C409.389 296.755 408.999 296.631 408.466 296.631H406.633V299.296Z" fill="white"/>
</g>
<defs>
<clipPath id="clip0_687_67789">
<rect width="400" height="220.69" fill="white" transform="translate(24 89.6553)"/>
</clipPath>
</defs>
</svg>
