<svg width="448" height="400" viewBox="0 0 448 400" fill="none" xmlns="http://www.w3.org/2000/svg">
<g clip-path="url(#clip0_687_66827)">
<circle cx="64" cy="195.313" r="40" stroke="#F5D245" stroke-width="0.5" stroke-linejoin="round" stroke-dasharray="8 4"/>
<circle cx="144" cy="195.313" r="40" stroke="#F5D245" stroke-width="0.5" stroke-linejoin="round" stroke-dasharray="8 4"/>
<circle cx="224" cy="195.313" r="40" stroke="#F5D245" stroke-width="0.5" stroke-linejoin="round" stroke-dasharray="8 4"/>
<circle cx="304" cy="195.313" r="40" stroke="#F5D245" stroke-width="0.5" stroke-linejoin="round" stroke-dasharray="8 4"/>
<circle cx="384" cy="195.313" r="40" stroke="#F5D245" stroke-width="0.5" stroke-linejoin="round" stroke-dasharray="8 4"/>
<rect opacity="0.2" x="129.002" y="237.186" width="190" height="15" fill="#FAE290"/>
<rect opacity="0.2" x="149.001" y="257.186" width="150" height="10.625" fill="#FAE290"/>
<path d="M149 400L149 6.83474e-06" stroke="#F5D245" stroke-width="0.5" stroke-linecap="round" stroke-linejoin="round" stroke-dasharray="8 4"/>
<path d="M299 400L299 5.36442e-06" stroke="#F5D245" stroke-width="0.5" stroke-linecap="round" stroke-linejoin="round" stroke-dasharray="8 4"/>
<path d="M344 400L344 5.36442e-06" stroke="#F5D245" stroke-width="0.5" stroke-linecap="round" stroke-linejoin="round" stroke-dasharray="8 4"/>
<path d="M104 400L104 5.36442e-06" stroke="#F5D245" stroke-width="0.5" stroke-linecap="round" stroke-linejoin="round" stroke-dasharray="8 4"/>
<path d="M319 400L319 197" stroke="#F5D245" stroke-width="0.5" stroke-linecap="round" stroke-linejoin="round" stroke-dasharray="8 4"/>
<path d="M129 400L129 198" stroke="#F5D245" stroke-width="0.5" stroke-linecap="round" stroke-linejoin="round" stroke-dasharray="8 4"/>
<path d="M129 292.187L319 292.187" stroke="#E58168" stroke-width="1.17188" stroke-linecap="round" stroke-linejoin="round"/>
<path d="M129 197.187H319" stroke="#F5D245" stroke-width="0.5" stroke-linecap="round" stroke-linejoin="round" stroke-dasharray="8 4"/>
<path d="M24 155.311H424" stroke="#F5D245" stroke-width="0.5" stroke-linecap="round" stroke-linejoin="round" stroke-dasharray="8 4"/>
<path d="M24 267.811H424" stroke="#F5D245" stroke-width="0.5" stroke-linecap="round" stroke-linejoin="round" stroke-dasharray="8 4"/>
<path d="M24 257.186H424" stroke="#F5D245" stroke-width="0.5" stroke-linecap="round" stroke-linejoin="round" stroke-dasharray="8 4"/>
<path d="M24 247.187H424" stroke="#F5D245" stroke-width="0.5" stroke-linecap="round" stroke-linejoin="round" stroke-dasharray="8 4"/>
<path d="M24 252.186H424" stroke="#F5D245" stroke-width="0.5" stroke-linecap="round" stroke-linejoin="round" stroke-dasharray="8 4"/>
<path d="M24 242.185H424" stroke="#F5D245" stroke-width="0.5" stroke-linecap="round" stroke-linejoin="round" stroke-dasharray="8 4"/>
<path d="M24 237.188H424" stroke="#E58168" stroke-width="1.17188" stroke-linecap="round" stroke-linejoin="round"/>
<circle cx="319" cy="292.19" r="5" stroke="#E58168" stroke-width="1.17188" stroke-linecap="round" stroke-linejoin="round"/>
<circle cx="129" cy="292.19" r="5" stroke="#E58168" stroke-width="1.17188" stroke-linecap="round" stroke-linejoin="round"/>
<circle cx="129" cy="252.189" r="5" stroke="#E58168" stroke-width="1.17188" stroke-linecap="round" stroke-linejoin="round"/>
<circle cx="319" cy="252.189" r="5" stroke="#E58168" stroke-width="1.17188" stroke-linecap="round" stroke-linejoin="round"/>
<path d="M-18.187 399.374L381.187 8.97828e-06" stroke="#F5D245" stroke-width="0.5" stroke-linecap="round" stroke-linejoin="round" stroke-dasharray="8 4"/>
<path d="M466.187 399.373L66.8135 2.19758e-05" stroke="#F5D245" stroke-width="0.5" stroke-linecap="round" stroke-linejoin="round" stroke-dasharray="8 4"/>
<path d="M224 400L224 6.83474e-06" stroke="#F5D245" stroke-width="0.5" stroke-linecap="round" stroke-linejoin="round" stroke-dasharray="8 4"/>
<path d="M21.813 399.373L421.186 2.22182e-05" stroke="#F5D245" stroke-width="0.5" stroke-linecap="round" stroke-linejoin="round" stroke-dasharray="8 4"/>
<path d="M26.812 0L426.187 399.375" stroke="#F5D245" stroke-width="0.5" stroke-linecap="round" stroke-linejoin="round" stroke-dasharray="8 4"/>
<circle cx="224" cy="132.812" r="12.5" stroke="#E58168" stroke-width="1.17188"/>
<circle cx="223.999" cy="195.311" r="75" stroke="#E58168" stroke-width="1.17188"/>
<circle cx="224" cy="195.312" r="85" stroke="#E58168" stroke-width="1.17188"/>
<circle cx="144.001" cy="197.186" r="5" stroke="#E58168" stroke-width="1.17188" stroke-linecap="round" stroke-linejoin="round"/>
<circle cx="304.001" cy="197.186" r="5" stroke="#E58168" stroke-width="1.17188" stroke-linecap="round" stroke-linejoin="round"/>
<circle cx="184" cy="197.186" r="5" stroke="#E58168" stroke-width="1.17188" stroke-linecap="round" stroke-linejoin="round"/>
<circle cx="224" cy="197.186" r="5" stroke="#E58168" stroke-width="1.17188" stroke-linecap="round" stroke-linejoin="round"/>
<circle cx="264" cy="197.186" r="5" stroke="#E58168" stroke-width="1.17188" stroke-linecap="round" stroke-linejoin="round"/>
</g>
<defs>
<clipPath id="clip0_687_66827">
<rect width="448" height="400" rx="4" fill="white"/>
</clipPath>
</defs>
</svg>
