<svg width="448" height="400" viewBox="0 0 448 400" fill="none" xmlns="http://www.w3.org/2000/svg">
<rect x="24" y="100.519" width="164.528" height="164.528" fill="#C98060" fill-opacity="0.01" stroke="#C98060" stroke-width="1.03627"/>
<rect x="188.528" y="100.519" width="164.528" height="164.528" fill="#C98060" fill-opacity="0.01" stroke="#C98060" stroke-width="1.03627"/>
<rect x="353.055" y="100.519" width="70.8705" height="164.528" fill="#C98060" fill-opacity="0.01"/>
<rect x="353.055" y="100.519" width="70.8705" height="164.528" stroke="#C98060" stroke-width="0.956556"/>
<path d="M390.322 155.172V169.086H388.638V156.939H388.556L385.159 159.194V157.482L388.638 155.172H390.322Z" fill="#C98060"/>
<path d="M366.804 177.738H410.178" stroke="#C98060" stroke-width="1.03627"/>
<path d="M371.822 186.477V200.391H370.138V188.243H370.056L366.659 190.499V188.787L370.138 186.477H371.822ZM379.927 197.945V188.977H381.449V197.945H379.927ZM376.204 194.222V192.7H385.172V194.222H376.204ZM392.266 198.081L396.56 186.477H398.476L393.218 200.391H391.995L392.266 198.081ZM390.799 193.026L392.674 198.081L393.027 200.391H391.805L388.897 193.026H390.799ZM387.701 194.521V193.026H390.745V194.521H387.701ZM400.504 200.391V199.168L405.096 194.14C405.635 193.552 406.079 193.04 406.428 192.605C406.777 192.166 407.035 191.754 407.202 191.369C407.375 190.979 407.461 190.571 407.461 190.146C407.461 189.657 407.343 189.233 407.107 188.875C406.876 188.517 406.559 188.241 406.156 188.046C405.753 187.852 405.3 187.754 404.798 187.754C404.263 187.754 403.797 187.865 403.398 188.087C403.004 188.305 402.698 188.61 402.481 189.004C402.268 189.398 402.162 189.86 402.162 190.39H400.558C400.558 189.575 400.746 188.859 401.122 188.243C401.498 187.627 402.01 187.147 402.657 186.803C403.31 186.459 404.041 186.287 404.852 186.287C405.667 186.287 406.39 186.459 407.019 186.803C407.649 187.147 408.142 187.612 408.5 188.196C408.858 188.78 409.037 189.43 409.037 190.146C409.037 190.657 408.944 191.158 408.758 191.647C408.577 192.132 408.26 192.673 407.807 193.271C407.359 193.864 406.736 194.589 405.939 195.445L402.814 198.787V198.896H409.281V200.391H400.504Z" fill="#C98060"/>
<path d="M53.291 176.216V190.13H51.6061V177.983H51.5246L48.1277 180.238V178.526L51.6061 176.216H53.291Z" fill="#C98060"/>
<path d="M108.096 277.612V291.525H106.411V279.378H106.329L102.932 281.634V279.922L106.411 277.612H108.096Z" fill="#C98060"/>
<path d="M23.6336 299.811C23.4313 300.014 23.4313 300.342 23.6336 300.544L26.931 303.842C27.1334 304.044 27.4614 304.044 27.6638 303.842C27.8661 303.639 27.8661 303.311 27.6638 303.109L24.7328 300.178L27.6638 297.247C27.8661 297.044 27.8661 296.716 27.6638 296.514C27.4614 296.312 27.1334 296.312 26.931 296.514L23.6336 299.811ZM188.894 300.544C189.096 300.342 189.096 300.014 188.894 299.811L185.597 296.514C185.394 296.312 185.066 296.312 184.864 296.514C184.662 296.716 184.662 297.044 184.864 297.247L187.795 300.178L184.864 303.109C184.662 303.311 184.662 303.639 184.864 303.842C185.066 304.044 185.394 304.044 185.597 303.842L188.894 300.544ZM24 300.178V300.696H188.528V300.178V299.66H24V300.178Z" fill="#C98060"/>
<path d="M299.536 289.216L303.829 277.612H305.745L300.487 291.525H299.264L299.536 289.216ZM298.068 284.161L299.943 289.216L300.296 291.525H299.074L296.166 284.161H298.068ZM294.97 285.656V284.161H298.014V285.656H294.97ZM307.773 291.525V290.303L312.366 285.275C312.905 284.686 313.348 284.175 313.697 283.74C314.046 283.3 314.304 282.888 314.472 282.503C314.644 282.114 314.73 281.706 314.73 281.28C314.73 280.791 314.612 280.368 314.376 280.01C314.146 279.652 313.828 279.376 313.425 279.181C313.022 278.986 312.569 278.889 312.067 278.889C311.532 278.889 311.066 279 310.667 279.222C310.273 279.439 309.967 279.745 309.75 280.139C309.537 280.533 309.431 280.995 309.431 281.525H307.827C307.827 280.71 308.015 279.994 308.391 279.378C308.767 278.762 309.279 278.282 309.927 277.938C310.579 277.594 311.31 277.422 312.121 277.422C312.936 277.422 313.659 277.594 314.288 277.938C314.918 278.282 315.411 278.746 315.769 279.331C316.127 279.915 316.306 280.565 316.306 281.28C316.306 281.792 316.213 282.293 316.027 282.782C315.846 283.266 315.529 283.808 315.076 284.406C314.628 284.999 314.005 285.724 313.208 286.58L310.083 289.922V290.031H316.55V291.525H307.773Z" fill="#C98060"/>
<path d="M188.161 299.811C187.959 300.014 187.959 300.342 188.161 300.544L191.459 303.842C191.661 304.044 191.989 304.044 192.191 303.842C192.394 303.639 192.394 303.311 192.191 303.109L189.26 300.178L192.191 297.247C192.394 297.044 192.394 296.716 192.191 296.514C191.989 296.312 191.661 296.312 191.459 296.514L188.161 299.811ZM424.366 300.544C424.569 300.342 424.569 300.014 424.366 299.811L421.069 296.514C420.867 296.312 420.538 296.312 420.336 296.514C420.134 296.716 420.134 297.044 420.336 297.247L423.267 300.178L420.336 303.109C420.134 303.311 420.134 303.639 420.336 303.842C420.538 304.044 420.867 304.044 421.069 303.842L424.366 300.544ZM188.528 300.178V300.696H424V300.178V299.66H188.528V300.178Z" fill="#C98060"/>
</svg>
