<svg width="448" height="400" viewBox="0 0 448 400" fill="none" xmlns="http://www.w3.org/2000/svg">
<g clip-path="url(#clip0_687_68707)">
<rect x="64" y="40" width="320" height="320" rx="24" fill="white" fill-opacity="0.04"/>
<rect x="135.385" y="72" width="177.231" height="256" rx="14.7692" stroke="#D69209"/>
<rect x="115.695" y="91.6924" width="216.615" height="216.615" rx="14.7692" stroke="#D69209"/>
<rect x="96" y="111.385" width="256" height="177.231" rx="14.7692" stroke="#D69209"/>
<circle cx="223.998" cy="200" r="108.308" stroke="#FAE290" stroke-linecap="round" stroke-dasharray="4 6"/>
<path fill-rule="evenodd" clip-rule="evenodd" d="M223.996 318.154C289.251 318.154 342.15 265.255 342.15 200.001C342.15 134.746 289.251 81.8467 223.996 81.8467C158.742 81.8467 105.843 134.746 105.843 200.001C105.843 265.255 158.742 318.154 223.996 318.154Z" stroke="#FAE290" stroke-linecap="round" stroke-dasharray="4 6"/>
<path d="M223.995 278.769L295.995 223.266L270.447 135.385H177.544L151.995 223.266L223.995 278.769Z" stroke="#FAE290" stroke-linecap="round" stroke-dasharray="4 6"/>
<path d="M223.995 121.232L295.995 176.735L270.447 264.616H177.544L151.995 176.735L223.995 121.232Z" stroke="#FAE290" stroke-linecap="round" stroke-dasharray="4 6"/>
<path d="M224 91.6914V308.307" stroke="#FCFBF8" stroke-linecap="round" stroke-linejoin="round"/>
<path d="M286.773 111.384L161.85 288.615" stroke="#FCFBF8" stroke-linecap="round" stroke-linejoin="round"/>
<path d="M161.848 111.384L286.155 288.615" stroke="#FCFBF8" stroke-linecap="round" stroke-linejoin="round"/>
<path d="M121.23 233.846L326.822 165.625" stroke="#FCFBF8" stroke-linecap="round" stroke-linejoin="round"/>
<path d="M121.23 165.685L326.822 233.758" stroke="#FCFBF8" stroke-linecap="round" stroke-linejoin="round"/>
<path d="M224.001 308.307L286.771 111.384H161.848L224.001 308.307Z" stroke="#FCFBF8" stroke-linecap="round" stroke-linejoin="round"/>
<path d="M224.002 91.6914L286.155 288.614H161.848L224.002 91.6914Z" stroke="#FCFBF8" stroke-linecap="round" stroke-linejoin="round"/>
<path d="M326.823 165.685H121.23L161.71 288.614L326.823 165.685Z" stroke="#FCFBF8" stroke-linecap="round" stroke-linejoin="round"/>
<path d="M121.217 165.685H327.003L286.463 288.614L121.217 165.685Z" stroke="#FCFBF8" stroke-linecap="round" stroke-linejoin="round"/>
<path d="M327.003 233.906H121.23L161.88 111.367L327.003 233.906Z" stroke="#FCFBF8" stroke-linecap="round" stroke-linejoin="round"/>
<path d="M121.409 233.906H327.003L286.646 111.384L121.409 233.906Z" stroke="#FCFBF8" stroke-linecap="round" stroke-linejoin="round"/>
</g>
<defs>
<clipPath id="clip0_687_68707">
<rect x="64" y="40" width="320" height="320" rx="24" fill="white"/>
</clipPath>
</defs>
</svg>
