<svg width="320" height="320" viewBox="0 0 320 320" fill="none" xmlns="http://www.w3.org/2000/svg">
<g clip-path="url(#clip0_494_188650)">
<rect width="320" height="320" rx="24" fill="#A2503C"/>
<path d="M44.7851 53.4276C44.2659 53.8476 43.4286 53.5226 43.4286 52.901V41.3225C43.4286 39.7205 44.1905 38.1921 45.5286 37.1096L61.5006 24.1892C62.0198 23.7692 62.8571 24.0942 62.8571 24.7158V36.2943C62.8571 37.8963 62.0952 39.4247 60.7571 40.5072L44.7851 53.4276Z" fill="#E0D8CE"/>
<path d="M42.072 69.1441C42.5913 69.5642 43.4286 69.2391 43.4286 68.6175V57.039C43.4286 55.4371 42.6667 53.9086 41.3285 52.8261L25.3565 39.9057C24.8373 39.4857 24 39.8108 24 40.4324V52.0109C24 53.6128 24.7619 55.1413 26.1001 56.2238L42.072 69.1441Z" fill="#E0D8CE"/>
<path d="M83.6406 39.9064C83.1213 39.4864 82.284 39.8114 82.284 40.433V52.0115C82.284 53.6135 83.0459 55.1419 84.3841 56.2244L100.356 69.1448C100.875 69.5648 101.713 69.2398 101.713 68.6182V57.0397C101.713 55.4377 100.951 53.9093 99.6125 52.8268L83.6406 39.9064Z" fill="#E0D8CE"/>
<path d="M80.9275 24.1898C81.4467 23.7698 82.284 24.0949 82.284 24.7165V36.2949C82.284 37.8969 81.5221 39.4254 80.184 40.5079L64.212 53.4282C63.6928 53.8483 62.8555 53.5232 62.8555 52.9016V41.3231C62.8555 39.7211 63.6174 38.1927 64.9555 37.1102L80.9275 24.1898Z" fill="#E0D8CE"/>
<path d="M122.5 53.4276C121.981 53.8476 121.143 53.5226 121.143 52.901V41.3225C121.143 39.7205 121.905 38.1921 123.243 37.1096L139.215 24.1892C139.735 23.7692 140.572 24.0942 140.572 24.7158V36.2943C140.572 37.8963 139.81 39.4247 138.472 40.5072L122.5 53.4276Z" fill="#E0D8CE"/>
<path d="M119.787 69.1441C120.306 69.5642 121.143 69.2391 121.143 68.6175V57.039C121.143 55.4371 120.382 53.9086 119.043 52.8261L103.071 39.9057C102.552 39.4857 101.715 39.8108 101.715 40.4324V52.0109C101.715 53.6128 102.477 55.1413 103.815 56.2238L119.787 69.1441Z" fill="#E0D8CE"/>
<path d="M161.355 39.9064C160.836 39.4864 159.999 39.8114 159.999 40.433V52.0115C159.999 53.6135 160.761 55.1419 162.099 56.2244L178.071 69.1448C178.59 69.5648 179.427 69.2398 179.427 68.6182V57.0397C179.427 55.4377 178.666 53.9093 177.327 52.8268L161.355 39.9064Z" fill="#E0D8CE"/>
<path d="M158.642 24.1898C159.162 23.7698 159.999 24.0949 159.999 24.7165V36.2949C159.999 37.8969 159.237 39.4254 157.899 40.5079L141.927 53.4282C141.408 53.8483 140.57 53.5232 140.57 52.9016V41.3231C140.57 39.7211 141.332 38.1927 142.67 37.1102L158.642 24.1898Z" fill="#E0D8CE"/>
<path d="M200.215 53.4276C199.696 53.8476 198.858 53.5226 198.858 52.901V41.3225C198.858 39.7205 199.62 38.1921 200.958 37.1096L216.93 24.1892C217.45 23.7692 218.287 24.0942 218.287 24.7158V36.2943C218.287 37.8963 217.525 39.4247 216.187 40.5072L200.215 53.4276Z" fill="#E0D8CE"/>
<path d="M197.502 69.1441C198.021 69.5642 198.858 69.2391 198.858 68.6175V57.039C198.858 55.4371 198.096 53.9086 196.758 52.8261L180.786 39.9057C180.267 39.4857 179.43 39.8108 179.43 40.4324V52.0109C179.43 53.6128 180.192 55.1413 181.53 56.2238L197.502 69.1441Z" fill="#E0D8CE"/>
<path d="M239.07 39.9064C238.551 39.4864 237.714 39.8114 237.714 40.433V52.0115C237.714 53.6135 238.476 55.1419 239.814 56.2244L255.786 69.1448C256.305 69.5648 257.142 69.2398 257.142 68.6182V57.0397C257.142 55.4377 256.38 53.9093 255.042 52.8268L239.07 39.9064Z" fill="#E0D8CE"/>
<path d="M236.357 24.1898C236.876 23.7698 237.714 24.0949 237.714 24.7165V36.2949C237.714 37.8969 236.952 39.4254 235.614 40.5079L219.642 53.4282C219.122 53.8483 218.285 53.5232 218.285 52.9016V41.3231C218.285 39.7211 219.047 38.1927 220.385 37.1102L236.357 24.1898Z" fill="#E0D8CE"/>
<path d="M277.93 53.4276C277.41 53.8476 276.573 53.5226 276.573 52.901V41.3225C276.573 39.7205 277.335 38.1921 278.673 37.1096L294.645 24.1892C295.164 23.7692 296.002 24.0942 296.002 24.7158V36.2943C296.002 37.8963 295.24 39.4247 293.902 40.5072L277.93 53.4276Z" fill="#E0D8CE"/>
<path d="M275.217 69.1441C275.736 69.5642 276.573 69.2391 276.573 68.6175V57.039C276.573 55.4371 275.811 53.9086 274.473 52.8261L258.501 39.9057C257.982 39.4857 257.145 39.8108 257.145 40.4324V52.0109C257.145 53.6128 257.906 55.1413 259.245 56.2238L275.217 69.1441Z" fill="#E0D8CE"/>
<path d="M44.7851 85.2404C44.2659 84.8204 43.4286 85.1454 43.4286 85.767V97.3455C43.4286 98.9475 44.1905 100.476 45.5286 101.558L61.5006 114.479C62.0198 114.899 62.8571 114.574 62.8571 113.952V102.374C62.8571 100.772 62.0952 99.2432 60.7571 98.1608L44.7851 85.2404Z" fill="#E0D8CE"/>
<path d="M42.072 69.5238C42.5913 69.1038 43.4286 69.4288 43.4286 70.0504V81.6289C43.4286 83.2309 42.6667 84.7594 41.3285 85.8419L25.3565 98.7622C24.8373 99.1822 24 98.8572 24 98.2356V86.6571C24 85.0551 24.7619 83.5267 26.1001 82.4442L42.072 69.5238Z" fill="#E0D8CE"/>
<path d="M83.6406 98.7616C83.1213 99.1816 82.284 98.8566 82.284 98.235V86.6565C82.284 85.0545 83.0459 83.526 84.3841 82.4435L100.356 69.5232C100.875 69.1031 101.713 69.4282 101.713 70.0498V81.6283C101.713 83.2303 100.951 84.7587 99.6125 85.8412L83.6406 98.7616Z" fill="#E0D8CE"/>
<path d="M80.9275 114.478C81.4467 114.898 82.284 114.573 82.284 113.952V102.373C82.284 100.771 81.5221 99.2426 80.184 98.1601L64.212 85.2397C63.6928 84.8197 62.8555 85.1448 62.8555 85.7663V97.3448C62.8555 98.9468 63.6174 100.475 64.9555 101.558L80.9275 114.478Z" fill="#E0D8CE"/>
<path d="M122.5 85.2404C121.981 84.8204 121.143 85.1454 121.143 85.767V97.3455C121.143 98.9475 121.905 100.476 123.243 101.558L139.215 114.479C139.735 114.899 140.572 114.574 140.572 113.952V102.374C140.572 100.772 139.81 99.2432 138.472 98.1608L122.5 85.2404Z" fill="#E0D8CE"/>
<path d="M119.787 69.5238C120.306 69.1038 121.143 69.4288 121.143 70.0504V81.6289C121.143 83.2309 120.382 84.7594 119.043 85.8419L103.071 98.7622C102.552 99.1822 101.715 98.8572 101.715 98.2356V86.6571C101.715 85.0551 102.477 83.5267 103.815 82.4442L119.787 69.5238Z" fill="#E0D8CE"/>
<path d="M161.355 98.7616C160.836 99.1816 159.999 98.8566 159.999 98.235V86.6565C159.999 85.0545 160.761 83.526 162.099 82.4435L178.071 69.5232C178.59 69.1031 179.427 69.4282 179.427 70.0498V81.6283C179.427 83.2303 178.666 84.7587 177.327 85.8412L161.355 98.7616Z" fill="#E0D8CE"/>
<path d="M158.642 114.478C159.162 114.898 159.999 114.573 159.999 113.952V102.373C159.999 100.771 159.237 99.2426 157.899 98.1601L141.927 85.2397C141.408 84.8197 140.57 85.1448 140.57 85.7663V97.3448C140.57 98.9468 141.332 100.475 142.67 101.558L158.642 114.478Z" fill="#E0D8CE"/>
<path d="M200.215 85.2404C199.696 84.8204 198.858 85.1454 198.858 85.767V97.3455C198.858 98.9475 199.62 100.476 200.958 101.558L216.93 114.479C217.45 114.899 218.287 114.574 218.287 113.952V102.374C218.287 100.772 217.525 99.2432 216.187 98.1608L200.215 85.2404Z" fill="#E0D8CE"/>
<path d="M197.502 69.5238C198.021 69.1038 198.858 69.4288 198.858 70.0504V81.6289C198.858 83.2309 198.096 84.7594 196.758 85.8419L180.786 98.7622C180.267 99.1822 179.43 98.8572 179.43 98.2356V86.6571C179.43 85.0551 180.192 83.5267 181.53 82.4442L197.502 69.5238Z" fill="#E0D8CE"/>
<path d="M239.07 98.7616C238.551 99.1816 237.714 98.8566 237.714 98.235V86.6565C237.714 85.0545 238.476 83.526 239.814 82.4435L255.786 69.5232C256.305 69.1031 257.142 69.4282 257.142 70.0498V81.6283C257.142 83.2303 256.38 84.7587 255.042 85.8412L239.07 98.7616Z" fill="#E0D8CE"/>
<path d="M236.357 114.478C236.876 114.898 237.714 114.573 237.714 113.952V102.373C237.714 100.771 236.952 99.2426 235.614 98.1601L219.642 85.2397C219.122 84.8197 218.285 85.1448 218.285 85.7663V97.3448C218.285 98.9468 219.047 100.475 220.385 101.558L236.357 114.478Z" fill="#E0D8CE"/>
<path d="M277.93 98.7616C277.41 99.1816 276.573 98.8566 276.573 98.235V86.6565C276.573 85.0545 277.335 83.526 278.673 82.4435L294.645 69.5232C295.164 69.1031 296.002 69.4282 296.002 70.0498V81.6283C296.002 83.2303 295.24 84.7587 293.902 85.8412L277.93 98.7616Z" fill="#E0D8CE"/>
<path d="M275.217 114.478C275.736 114.898 276.573 114.573 276.573 113.952V102.373C276.573 100.771 275.811 99.2426 274.473 98.1601L258.501 85.2397C257.982 84.8197 257.145 85.1448 257.145 85.7663V97.3448C257.145 98.9468 257.906 100.475 259.245 101.558L275.217 114.478Z" fill="#E0D8CE"/>
<path d="M44.7851 144.094C44.2659 144.514 43.4286 144.189 43.4286 143.567V131.988C43.4286 130.387 44.1905 128.858 45.5286 127.776L61.5006 114.855C62.0198 114.435 62.8571 114.76 62.8571 115.382V126.96C62.8571 128.562 62.0952 130.091 60.7571 131.173L44.7851 144.094Z" fill="#E0D8CE"/>
<path d="M42.072 159.81C42.5913 160.23 43.4286 159.905 43.4286 159.284V147.705C43.4286 146.103 42.6667 144.575 41.3285 143.492L25.3565 130.572C24.8373 130.152 24 130.477 24 131.098V142.677C24 144.279 24.7619 145.807 26.1001 146.89L42.072 159.81Z" fill="#E0D8CE"/>
<path d="M83.6406 130.572C83.1213 130.152 82.284 130.477 82.284 131.099V142.678C82.284 144.28 83.0459 145.808 84.3841 146.89L100.356 159.811C100.875 160.231 101.713 159.906 101.713 159.284V147.706C101.713 146.104 100.951 144.575 99.6125 143.493L83.6406 130.572Z" fill="#E0D8CE"/>
<path d="M80.9275 114.856C81.4467 114.436 82.284 114.761 82.284 115.382V126.961C82.284 128.563 81.5221 130.091 80.184 131.174L64.212 144.094C63.6928 144.514 62.8555 144.189 62.8555 143.568V131.989C62.8555 130.387 63.6174 128.859 64.9555 127.776L80.9275 114.856Z" fill="#E0D8CE"/>
<path d="M122.5 144.094C121.981 144.514 121.143 144.189 121.143 143.567V131.988C121.143 130.387 121.905 128.858 123.243 127.776L139.215 114.855C139.735 114.435 140.572 114.76 140.572 115.382V126.96C140.572 128.562 139.81 130.091 138.472 131.173L122.5 144.094Z" fill="#E0D8CE"/>
<path d="M119.787 159.81C120.306 160.23 121.143 159.905 121.143 159.284V147.705C121.143 146.103 120.382 144.575 119.043 143.492L103.071 130.572C102.552 130.152 101.715 130.477 101.715 131.098V142.677C101.715 144.279 102.477 145.807 103.815 146.89L119.787 159.81Z" fill="#E0D8CE"/>
<path d="M161.355 130.572C160.836 130.152 159.999 130.477 159.999 131.099V142.678C159.999 144.28 160.761 145.808 162.099 146.89L178.071 159.811C178.59 160.231 179.427 159.906 179.427 159.284V147.706C179.427 146.104 178.666 144.575 177.327 143.493L161.355 130.572Z" fill="#E0D8CE"/>
<path d="M158.642 114.856C159.162 114.436 159.999 114.761 159.999 115.382V126.961C159.999 128.563 159.237 130.091 157.899 131.174L141.927 144.094C141.408 144.514 140.57 144.189 140.57 143.568V131.989C140.57 130.387 141.332 128.859 142.67 127.776L158.642 114.856Z" fill="#E0D8CE"/>
<path d="M200.215 144.094C199.696 144.514 198.858 144.189 198.858 143.567V131.988C198.858 130.387 199.62 128.858 200.958 127.776L216.93 114.855C217.45 114.435 218.287 114.76 218.287 115.382V126.96C218.287 128.562 217.525 130.091 216.187 131.173L200.215 144.094Z" fill="#E0D8CE"/>
<path d="M197.502 159.81C198.021 160.23 198.858 159.905 198.858 159.284V147.705C198.858 146.103 198.096 144.575 196.758 143.492L180.786 130.572C180.267 130.152 179.43 130.477 179.43 131.098V142.677C179.43 144.279 180.192 145.807 181.53 146.89L197.502 159.81Z" fill="#E0D8CE"/>
<path d="M239.07 130.572C238.551 130.152 237.714 130.477 237.714 131.099V142.678C237.714 144.28 238.476 145.808 239.814 146.89L255.786 159.811C256.305 160.231 257.142 159.906 257.142 159.284V147.706C257.142 146.104 256.38 144.575 255.042 143.493L239.07 130.572Z" fill="#E0D8CE"/>
<path d="M236.357 114.856C236.876 114.436 237.714 114.761 237.714 115.382V126.961C237.714 128.563 236.952 130.091 235.614 131.174L219.642 144.094C219.122 144.514 218.285 144.189 218.285 143.568V131.989C218.285 130.387 219.047 128.859 220.385 127.776L236.357 114.856Z" fill="#E0D8CE"/>
<path d="M277.93 144.094C277.41 144.514 276.573 144.189 276.573 143.567V131.988C276.573 130.387 277.335 128.858 278.673 127.776L294.645 114.855C295.164 114.435 296.002 114.76 296.002 115.382V126.96C296.002 128.562 295.24 130.091 293.902 131.173L277.93 144.094Z" fill="#E0D8CE"/>
<path d="M275.217 159.81C275.736 160.23 276.573 159.905 276.573 159.284V147.705C276.573 146.103 275.811 144.575 274.473 143.492L258.501 130.572C257.982 130.152 257.145 130.477 257.145 131.098V142.677C257.145 144.279 257.906 145.807 259.245 146.89L275.217 159.81Z" fill="#E0D8CE"/>
<path d="M44.7851 175.906C44.2659 175.486 43.4286 175.811 43.4286 176.433V188.012C43.4286 189.613 44.1905 191.142 45.5286 192.224L61.5006 205.145C62.0198 205.565 62.8571 205.24 62.8571 204.618V193.04C62.8571 191.438 62.0952 189.909 60.7571 188.827L44.7851 175.906Z" fill="#E0D8CE"/>
<path d="M42.072 160.19C42.5913 159.77 43.4286 160.095 43.4286 160.716V172.295C43.4286 173.897 42.6667 175.425 41.3285 176.508L25.3565 189.428C24.8373 189.848 24 189.523 24 188.902V177.323C24 175.721 24.7619 174.193 26.1001 173.11L42.072 160.19Z" fill="#E0D8CE"/>
<path d="M83.6406 189.428C83.1213 189.848 82.284 189.523 82.284 188.901V177.322C82.284 175.72 83.0459 174.192 84.3841 173.11L100.356 160.189C100.875 159.769 101.713 160.094 101.713 160.716V172.294C101.713 173.896 100.951 175.425 99.6125 176.507L83.6406 189.428Z" fill="#E0D8CE"/>
<path d="M80.9275 205.144C81.4467 205.564 82.284 205.239 82.284 204.618V193.039C82.284 191.437 81.5221 189.909 80.184 188.826L64.212 175.906C63.6928 175.486 62.8555 175.811 62.8555 176.432V188.011C62.8555 189.613 63.6174 191.141 64.9555 192.224L80.9275 205.144Z" fill="#E0D8CE"/>
<path d="M122.5 175.906C121.981 175.486 121.143 175.811 121.143 176.433V188.012C121.143 189.613 121.905 191.142 123.243 192.224L139.215 205.145C139.735 205.565 140.572 205.24 140.572 204.618V193.04C140.572 191.438 139.81 189.909 138.472 188.827L122.5 175.906Z" fill="#E0D8CE"/>
<path d="M119.787 160.19C120.306 159.77 121.143 160.095 121.143 160.716V172.295C121.143 173.897 120.382 175.425 119.043 176.508L103.071 189.428C102.552 189.848 101.715 189.523 101.715 188.902V177.323C101.715 175.721 102.477 174.193 103.815 173.11L119.787 160.19Z" fill="#E0D8CE"/>
<path d="M161.355 189.428C160.836 189.848 159.999 189.523 159.999 188.901V177.322C159.999 175.72 160.761 174.192 162.099 173.11L178.071 160.189C178.59 159.769 179.427 160.094 179.427 160.716V172.294C179.427 173.896 178.666 175.425 177.327 176.507L161.355 189.428Z" fill="#E0D8CE"/>
<path d="M158.642 205.144C159.162 205.564 159.999 205.239 159.999 204.618V193.039C159.999 191.437 159.237 189.909 157.899 188.826L141.927 175.906C141.408 175.486 140.57 175.811 140.57 176.432V188.011C140.57 189.613 141.332 191.141 142.67 192.224L158.642 205.144Z" fill="#E0D8CE"/>
<path d="M200.215 175.906C199.696 175.486 198.858 175.811 198.858 176.433V188.012C198.858 189.613 199.62 191.142 200.958 192.224L216.93 205.145C217.45 205.565 218.287 205.24 218.287 204.618V193.04C218.287 191.438 217.525 189.909 216.187 188.827L200.215 175.906Z" fill="#E0D8CE"/>
<path d="M197.502 160.19C198.021 159.77 198.858 160.095 198.858 160.716V172.295C198.858 173.897 198.096 175.425 196.758 176.508L180.786 189.428C180.267 189.848 179.43 189.523 179.43 188.902V177.323C179.43 175.721 180.192 174.193 181.53 173.11L197.502 160.19Z" fill="#E0D8CE"/>
<path d="M239.07 189.428C238.551 189.848 237.714 189.523 237.714 188.901V177.322C237.714 175.72 238.476 174.192 239.814 173.11L255.786 160.189C256.305 159.769 257.142 160.094 257.142 160.716V172.294C257.142 173.896 256.38 175.425 255.042 176.507L239.07 189.428Z" fill="#E0D8CE"/>
<path d="M236.357 205.144C236.876 205.564 237.714 205.239 237.714 204.618V193.039C237.714 191.437 236.952 189.909 235.614 188.826L219.642 175.906C219.122 175.486 218.285 175.811 218.285 176.432V188.011C218.285 189.613 219.047 191.141 220.385 192.224L236.357 205.144Z" fill="#E0D8CE"/>
<path d="M277.93 189.428C277.41 189.848 276.573 189.523 276.573 188.901V177.322C276.573 175.72 277.335 174.192 278.673 173.11L294.645 160.189C295.164 159.769 296.002 160.094 296.002 160.716V172.294C296.002 173.896 295.24 175.425 293.902 176.507L277.93 189.428Z" fill="#E0D8CE"/>
<path d="M275.217 205.144C275.736 205.564 276.573 205.239 276.573 204.618V193.039C276.573 191.437 275.811 189.909 274.473 188.826L258.501 175.906C257.982 175.486 257.145 175.811 257.145 176.432V188.011C257.145 189.613 257.906 191.141 259.245 192.224L275.217 205.144Z" fill="#E0D8CE"/>
<path d="M44.7851 234.762C44.2659 235.182 43.4286 234.857 43.4286 234.235V222.656C43.4286 221.054 44.1905 219.526 45.5286 218.444L61.5006 205.523C62.0198 205.103 62.8571 205.428 62.8571 206.05V217.628C62.8571 219.23 62.0952 220.759 60.7571 221.841L44.7851 234.762Z" fill="#E0D8CE"/>
<path d="M42.072 250.478C42.5913 250.898 43.4286 250.573 43.4286 249.952V238.373C43.4286 236.771 42.6667 235.243 41.3285 234.16L25.3565 221.24C24.8373 220.82 24 221.145 24 221.766V233.345C24 234.947 24.7619 236.475 26.1001 237.558L42.072 250.478Z" fill="#E0D8CE"/>
<path d="M83.6406 221.24C83.1213 220.82 82.284 221.145 82.284 221.767V233.345C82.284 234.947 83.0459 236.476 84.3841 237.558L100.356 250.479C100.875 250.899 101.713 250.574 101.713 249.952V238.374C101.713 236.772 100.951 235.243 99.6125 234.161L83.6406 221.24Z" fill="#E0D8CE"/>
<path d="M80.9275 205.524C81.4467 205.104 82.284 205.429 82.284 206.05V217.629C82.284 219.231 81.5221 220.759 80.184 221.842L64.212 234.762C63.6928 235.182 62.8555 234.857 62.8555 234.236V222.657C62.8555 221.055 63.6174 219.527 64.9555 218.444L80.9275 205.524Z" fill="#E0D8CE"/>
<path d="M122.5 234.762C121.981 235.182 121.143 234.857 121.143 234.235V222.656C121.143 221.054 121.905 219.526 123.243 218.444L139.215 205.523C139.735 205.103 140.572 205.428 140.572 206.05V217.628C140.572 219.23 139.81 220.759 138.472 221.841L122.5 234.762Z" fill="#E0D8CE"/>
<path d="M119.787 250.478C120.306 250.898 121.143 250.573 121.143 249.952V238.373C121.143 236.771 120.382 235.243 119.043 234.16L103.071 221.24C102.552 220.82 101.715 221.145 101.715 221.766V233.345C101.715 234.947 102.477 236.475 103.815 237.558L119.787 250.478Z" fill="#E0D8CE"/>
<path d="M161.355 221.24C160.836 220.82 159.999 221.145 159.999 221.767V233.345C159.999 234.947 160.761 236.476 162.099 237.558L178.071 250.479C178.59 250.899 179.427 250.574 179.427 249.952V238.374C179.427 236.772 178.666 235.243 177.327 234.161L161.355 221.24Z" fill="#E0D8CE"/>
<path d="M158.642 205.524C159.162 205.104 159.999 205.429 159.999 206.05V217.629C159.999 219.231 159.237 220.759 157.899 221.842L141.927 234.762C141.408 235.182 140.57 234.857 140.57 234.236V222.657C140.57 221.055 141.332 219.527 142.67 218.444L158.642 205.524Z" fill="#E0D8CE"/>
<path d="M200.215 234.762C199.696 235.182 198.858 234.857 198.858 234.235V222.656C198.858 221.054 199.62 219.526 200.958 218.444L216.93 205.523C217.45 205.103 218.287 205.428 218.287 206.05V217.628C218.287 219.23 217.525 220.759 216.187 221.841L200.215 234.762Z" fill="#E0D8CE"/>
<path d="M197.502 250.478C198.021 250.898 198.858 250.573 198.858 249.952V238.373C198.858 236.771 198.096 235.243 196.758 234.16L180.786 221.24C180.267 220.82 179.43 221.145 179.43 221.766V233.345C179.43 234.947 180.192 236.475 181.53 237.558L197.502 250.478Z" fill="#E0D8CE"/>
<path d="M239.07 221.24C238.551 220.82 237.714 221.145 237.714 221.767V233.345C237.714 234.947 238.476 236.476 239.814 237.558L255.786 250.479C256.305 250.899 257.142 250.574 257.142 249.952V238.374C257.142 236.772 256.38 235.243 255.042 234.161L239.07 221.24Z" fill="#E0D8CE"/>
<path d="M236.357 205.524C236.876 205.104 237.714 205.429 237.714 206.05V217.629C237.714 219.231 236.952 220.759 235.614 221.842L219.642 234.762C219.122 235.182 218.285 234.857 218.285 234.236V222.657C218.285 221.055 219.047 219.527 220.385 218.444L236.357 205.524Z" fill="#E0D8CE"/>
<path d="M277.93 234.762C277.41 235.182 276.573 234.857 276.573 234.235V222.656C276.573 221.054 277.335 219.526 278.673 218.444L294.645 205.523C295.164 205.103 296.002 205.428 296.002 206.05V217.628C296.002 219.23 295.24 220.759 293.902 221.841L277.93 234.762Z" fill="#E0D8CE"/>
<path d="M275.217 250.478C275.736 250.898 276.573 250.573 276.573 249.952V238.373C276.573 236.771 275.811 235.243 274.473 234.16L258.501 221.24C257.982 220.82 257.145 221.145 257.145 221.766V233.345C257.145 234.947 257.906 236.475 259.245 237.558L275.217 250.478Z" fill="#E0D8CE"/>
<path d="M44.7851 266.572C44.2659 266.152 43.4286 266.477 43.4286 267.099V278.678C43.4286 280.28 44.1905 281.808 45.5286 282.89L61.5006 295.811C62.0198 296.231 62.8571 295.906 62.8571 295.284V283.706C62.8571 282.104 62.0952 280.575 60.7571 279.493L44.7851 266.572Z" fill="#E0D8CE"/>
<path d="M42.072 250.856C42.5913 250.436 43.4286 250.761 43.4286 251.382V262.961C43.4286 264.563 42.6667 266.091 41.3285 267.174L25.3565 280.094C24.8373 280.514 24 280.189 24 279.568V267.989C24 266.387 24.7619 264.859 26.1001 263.776L42.072 250.856Z" fill="#E0D8CE"/>
<path d="M83.6406 280.094C83.1213 280.514 82.284 280.189 82.284 279.567V267.988C82.284 266.387 83.0459 264.858 84.3841 263.776L100.356 250.855C100.875 250.435 101.713 250.76 101.713 251.382V262.96C101.713 264.562 100.951 266.091 99.6125 267.173L83.6406 280.094Z" fill="#E0D8CE"/>
<path d="M80.9275 295.81C81.4467 296.23 82.284 295.905 82.284 295.284V283.705C82.284 282.103 81.5221 280.575 80.184 279.492L64.212 266.572C63.6928 266.152 62.8555 266.477 62.8555 267.098V278.677C62.8555 280.279 63.6174 281.807 64.9555 282.89L80.9275 295.81Z" fill="#E0D8CE"/>
<path d="M122.5 266.572C121.981 266.152 121.143 266.477 121.143 267.099V278.678C121.143 280.28 121.905 281.808 123.243 282.89L139.215 295.811C139.735 296.231 140.572 295.906 140.572 295.284V283.706C140.572 282.104 139.81 280.575 138.472 279.493L122.5 266.572Z" fill="#E0D8CE"/>
<path d="M119.787 250.856C120.306 250.436 121.143 250.761 121.143 251.382V262.961C121.143 264.563 120.382 266.091 119.043 267.174L103.071 280.094C102.552 280.514 101.715 280.189 101.715 279.568V267.989C101.715 266.387 102.477 264.859 103.815 263.776L119.787 250.856Z" fill="#E0D8CE"/>
<path d="M161.355 280.094C160.836 280.514 159.999 280.189 159.999 279.567V267.988C159.999 266.387 160.761 264.858 162.099 263.776L178.071 250.855C178.59 250.435 179.427 250.76 179.427 251.382V262.96C179.427 264.562 178.666 266.091 177.327 267.173L161.355 280.094Z" fill="#E0D8CE"/>
<path d="M158.642 295.81C159.162 296.23 159.999 295.905 159.999 295.284V283.705C159.999 282.103 159.237 280.575 157.899 279.492L141.927 266.572C141.408 266.152 140.57 266.477 140.57 267.098V278.677C140.57 280.279 141.332 281.807 142.67 282.89L158.642 295.81Z" fill="#E0D8CE"/>
<path d="M200.215 266.572C199.696 266.152 198.858 266.477 198.858 267.099V278.678C198.858 280.28 199.62 281.808 200.958 282.89L216.93 295.811C217.45 296.231 218.287 295.906 218.287 295.284V283.706C218.287 282.104 217.525 280.575 216.187 279.493L200.215 266.572Z" fill="#E0D8CE"/>
<path d="M197.502 250.856C198.021 250.436 198.858 250.761 198.858 251.382V262.961C198.858 264.563 198.096 266.091 196.758 267.174L180.786 280.094C180.267 280.514 179.43 280.189 179.43 279.568V267.989C179.43 266.387 180.192 264.859 181.53 263.776L197.502 250.856Z" fill="#E0D8CE"/>
<path d="M239.07 280.094C238.551 280.514 237.714 280.189 237.714 279.567V267.988C237.714 266.387 238.476 264.858 239.814 263.776L255.786 250.855C256.305 250.435 257.142 250.76 257.142 251.382V262.96C257.142 264.562 256.38 266.091 255.042 267.173L239.07 280.094Z" fill="#E0D8CE"/>
<path d="M236.357 295.81C236.876 296.23 237.714 295.905 237.714 295.284V283.705C237.714 282.103 236.952 280.575 235.614 279.492L219.642 266.572C219.122 266.152 218.285 266.477 218.285 267.098V278.677C218.285 280.279 219.047 281.807 220.385 282.89L236.357 295.81Z" fill="#E0D8CE"/>
<path d="M277.93 280.094C277.41 280.514 276.573 280.189 276.573 279.567V267.988C276.573 266.387 277.335 264.858 278.673 263.776L294.645 250.855C295.164 250.435 296.002 250.76 296.002 251.382V262.96C296.002 264.562 295.24 266.091 293.902 267.173L277.93 280.094Z" fill="#E0D8CE"/>
<path d="M275.217 295.81C275.736 296.23 276.573 295.905 276.573 295.284V283.705C276.573 282.103 275.811 280.575 274.473 279.492L258.501 266.572C257.982 266.152 257.145 266.477 257.145 267.098V278.677C257.145 280.279 257.906 281.807 259.245 282.89L275.217 295.81Z" fill="#E0D8CE"/>
</g>
<defs>
<clipPath id="clip0_494_188650">
<rect width="320" height="320" rx="24" fill="white"/>
</clipPath>
</defs>
</svg>
