<svg width="320" height="320" viewBox="0 0 320 320" fill="none" xmlns="http://www.w3.org/2000/svg">
<g clip-path="url(#clip0_494_188449)">
<rect width="320" height="320" rx="24" fill="#4A79B9"/>
<path d="M319.998 113.799L319.748 319.999H172.848V48.1992C173.998 48.1992 175.198 48.1992 176.398 48.2492H176.698C227.798 49.1492 276.498 69.8992 312.598 106.099C315.048 108.549 317.448 111.099 319.748 113.649C319.848 113.649 319.948 113.749 319.998 113.799Z" fill="#D86253"/>
<path d="M280.501 155.749C280.351 184.249 268.951 211.499 248.801 231.649C228.651 251.799 201.351 263.199 172.801 263.299V48.1992H175.601C203.601 49.0992 230.151 60.7492 249.751 80.8492C269.351 100.899 280.351 127.749 280.551 155.799L280.501 155.749Z" fill="#FFEFD6"/>
<path d="M202.202 145C204.752 145 207.302 144.5 209.702 143.5C212.052 142.5 214.252 141.1 216.052 139.25C217.852 137.4 219.302 135.3 220.302 132.9C221.302 130.55 221.802 128 221.802 125.4C221.802 120.2 219.752 115.25 216.052 111.6C212.402 107.95 207.402 105.9 202.202 105.9C199.652 105.9 197.102 106.4 194.702 107.4C192.352 108.4 190.152 109.8 188.352 111.65C186.552 113.45 185.102 115.6 184.102 118C183.102 120.35 182.602 122.9 182.602 125.5C182.602 128.1 183.102 130.6 184.102 133C185.102 135.35 186.502 137.55 188.352 139.35C190.152 141.15 192.302 142.6 194.702 143.6C197.052 144.6 199.602 145.1 202.202 145.1V145Z" fill="#2E3853"/>
<path d="M172.849 48.1992V162.049L130.249 215.249L108.799 241.949C90.5989 228.499 77.1489 209.649 70.2989 188.099C63.4489 166.549 63.5989 143.349 70.6989 121.899C77.7989 100.399 91.4989 81.7492 109.849 68.4992C128.199 55.2992 150.199 48.1992 172.799 48.1992H172.849Z" fill="#FFCC00"/>
<path d="M172.851 162.051V230.751C157.301 230.601 142.301 225.151 130.301 215.251L172.851 162.051Z" fill="#FF9900"/>
</g>
<defs>
<clipPath id="clip0_494_188449">
<rect width="320" height="320" rx="24" fill="white"/>
</clipPath>
</defs>
</svg>
