<svg width="320" height="320" viewBox="0 0 320 320" fill="none" xmlns="http://www.w3.org/2000/svg">
<g clip-path="url(#clip0_494_188696)">
<rect width="320" height="320" rx="24" fill="#FFE5BD"/>
<path opacity="0.2" d="M111 229C157.391 229 195 190.946 195 144C195 97.0538 157.391 59 111 59C64.6093 59 27 97.0593 27 144C27 190.941 64.6093 229 111 229Z" fill="#CB7D26"/>
<path d="M110.49 258.653C146.661 258.653 175.98 256.603 175.98 254.074C175.98 251.544 146.661 249.494 110.49 249.494C74.3193 249.494 45 251.544 45 254.074C45 256.603 74.3222 258.653 110.49 258.653Z" fill="#BA6332"/>
<path d="M61.9614 253.382L61.1764 243.994C60.7143 238.538 64.7813 233.728 70.2346 233.266L71.0196 242.7C71.4817 248.156 67.4147 252.967 61.9614 253.382V253.382Z" fill="#F5BB1D"/>
<path d="M61.9601 253.381L58.3107 244.639C56.1839 239.598 58.5862 233.771 63.6248 231.645L67.2771 240.383C69.401 245.469 66.9987 251.295 61.9601 253.378V253.381Z" fill="#BA6332"/>
<path d="M61.9605 253.38L55.2602 246.674C51.3768 242.79 51.3768 236.499 55.2602 232.615L61.9605 239.322C65.8439 243.205 65.8439 249.541 61.9605 253.38V253.38Z" fill="#834C1A"/>
<path d="M84.6172 198.906V250.376" stroke="#F5BB1D" stroke-width="1.18486" stroke-linecap="round" stroke-linejoin="round"/>
<path d="M84.4448 254.073C86.5391 254.073 88.2364 252.376 88.2364 250.282C88.2364 248.188 86.5391 246.49 84.4448 246.49C82.3506 246.49 80.6562 248.188 80.6562 250.282C80.6562 252.376 82.3536 254.073 84.4448 254.073Z" fill="#834C1A"/>
<path d="M93.4807 207.784H60.992C59.973 207.784 59.1406 206.952 59.1406 205.933V190.719C59.1406 189.703 59.973 188.871 60.992 188.871H93.4807C94.4997 188.871 95.3291 189.703 95.3291 190.719V205.933C95.3291 206.949 94.4997 207.784 93.4807 207.784V207.784Z" fill="#F5BB1D"/>
<path d="M66.9996 201.124C68.5577 201.124 69.8196 199.862 69.8196 198.304C69.8196 196.746 68.5577 195.484 66.9996 195.484C65.4416 195.484 64.1797 196.746 64.1797 198.304C64.1797 199.862 65.4416 201.124 66.9996 201.124Z" fill="#834C1A"/>
<path d="M77.2106 201.124C78.7687 201.124 80.0305 199.862 80.0305 198.304C80.0305 196.746 78.7687 195.484 77.2106 195.484C75.6525 195.484 74.3906 196.746 74.3906 198.304C74.3906 199.862 75.6555 201.124 77.2106 201.124Z" fill="#834C1A"/>
<path d="M87.4215 201.124C88.9796 201.124 90.2415 199.862 90.2415 198.304C90.2415 196.746 88.9796 195.484 87.4215 195.484C85.8634 195.484 84.6016 196.746 84.6016 198.304C84.6016 199.862 85.8634 201.124 87.4215 201.124Z" fill="#834C1A"/>
<path d="M189.798 226.836C185.038 226.836 180.739 224.247 177.644 220.13C174.546 215.968 172.605 210.234 172.605 203.897V117.607C177.366 117.607 181.664 120.152 184.759 124.314C187.858 128.476 189.798 134.21 189.798 140.546V226.836Z" fill="#BA6332"/>
<path d="M210.04 235.252C205.28 235.252 200.982 232.663 197.886 228.546C194.788 224.384 192.848 218.65 192.848 212.314V126.023C197.608 126.023 201.906 128.568 205.004 132.73C208.1 136.892 210.04 142.626 210.04 148.962V235.252Z" fill="#BA6332"/>
<path d="M230.286 243.671C225.526 243.671 221.228 241.082 218.132 236.965C215.034 232.803 213.094 227.068 213.094 220.735V134.445C217.854 134.445 222.152 136.99 225.25 141.152C228.346 145.313 230.286 151.048 230.286 157.384V243.674V243.671Z" fill="#BA6332"/>
<path d="M250.575 252.086C245.815 252.086 241.517 249.497 238.418 245.38C235.323 241.218 233.383 235.484 233.383 229.147V142.857C238.143 142.857 242.441 145.402 245.536 149.564C248.635 153.726 250.575 159.46 250.575 165.796V252.086Z" fill="#BA6332"/>
<path d="M270.817 260.502C266.057 260.502 261.759 257.913 258.661 253.796C255.565 249.634 253.625 243.899 253.625 237.563V151.229C258.385 151.229 262.683 153.773 265.779 157.935C268.877 162.097 270.817 167.831 270.817 174.167V260.502Z" fill="#BA6332"/>
<path d="M293.001 140.224C293.001 159.229 277.749 174.629 258.848 174.908H102.953C102.953 155.764 110.72 138.376 123.288 125.843C135.86 113.266 153.194 105.496 172.326 105.496H258.848C277.749 105.819 293.001 121.264 293.001 140.224Z" fill="#F5BB1D"/>
<path d="M108.594 169.54C109.841 154.51 116.31 140.546 127.08 129.726C139.142 117.655 155.227 110.996 172.28 110.996H258.709C274.607 111.227 287.501 124.361 287.501 140.268C287.501 156.175 274.559 169.309 258.709 169.54H108.594Z" fill="#F5BB1D"/>
<path d="M155.875 122.514H173.023" stroke="#834C1A" stroke-width="2.36971" stroke-linecap="round" stroke-linejoin="round"/>
<path d="M182.469 122.514H226.93" stroke="#834C1A" stroke-width="2.36971" stroke-linecap="round" stroke-linejoin="round"/>
<path d="M236.379 122.514H240.769" stroke="#834C1A" stroke-width="2.36971" stroke-linecap="round" stroke-linejoin="round"/>
<path d="M250.219 122.514H254.609" stroke="#834C1A" stroke-width="2.36971" stroke-linecap="round" stroke-linejoin="round"/>
<path d="M131.102 158.814H148.249" stroke="#834C1A" stroke-width="2.36971" stroke-linecap="round" stroke-linejoin="round"/>
<path d="M157.695 158.814H202.157" stroke="#834C1A" stroke-width="2.36971" stroke-linecap="round" stroke-linejoin="round"/>
<path d="M211.605 158.814H215.995" stroke="#834C1A" stroke-width="2.36971" stroke-linecap="round" stroke-linejoin="round"/>
<path d="M225.445 158.814H229.835" stroke="#834C1A" stroke-width="2.36971" stroke-linecap="round" stroke-linejoin="round"/>
<path d="M144.922 135.043H149.312" stroke="#834C1A" stroke-width="2.36971" stroke-linecap="round" stroke-linejoin="round"/>
<path d="M158.758 135.043H203.22" stroke="#834C1A" stroke-width="2.36971" stroke-linecap="round" stroke-linejoin="round"/>
<path d="M212.668 135.043H229.816" stroke="#834C1A" stroke-width="2.36971" stroke-linecap="round" stroke-linejoin="round"/>
<path d="M239.266 135.043H256.458" stroke="#834C1A" stroke-width="2.36971" stroke-linecap="round" stroke-linejoin="round"/>
<path d="M265.902 135.043H270.295" stroke="#834C1A" stroke-width="2.36971" stroke-linecap="round" stroke-linejoin="round"/>
<path d="M131.102 147.158H135.491" stroke="#834C1A" stroke-width="2.36971" stroke-linecap="round" stroke-linejoin="round"/>
<path d="M144.938 147.158H162.082" stroke="#834C1A" stroke-width="2.36971" stroke-linecap="round" stroke-linejoin="round"/>
<path d="M171.531 147.158H188.679" stroke="#834C1A" stroke-width="2.36971" stroke-linecap="round" stroke-linejoin="round"/>
<path d="M198.125 147.158H242.587" stroke="#834C1A" stroke-width="2.36971" stroke-linecap="round" stroke-linejoin="round"/>
<path d="M252.035 147.158H256.428" stroke="#834C1A" stroke-width="2.36971" stroke-linecap="round" stroke-linejoin="round"/>
<path d="M265.875 147.158H270.268" stroke="#834C1A" stroke-width="2.36971" stroke-linecap="round" stroke-linejoin="round"/>
</g>
<defs>
<clipPath id="clip0_494_188696">
<rect width="320" height="320" rx="24" fill="white"/>
</clipPath>
</defs>
</svg>
