<svg width="320" height="320" viewBox="0 0 320 320" fill="none" xmlns="http://www.w3.org/2000/svg">
<g clip-path="url(#clip0_494_189996)">
<g clip-path="url(#clip1_494_189996)">
<rect width="320" height="320" transform="matrix(1 0 0 -1 0 320)" fill="#BA6332"/>
<mask id="mask0_494_189996" style="mask-type:alpha" maskUnits="userSpaceOnUse" x="0" y="0" width="320" height="320">
<rect x="320" y="320" width="320" height="320" transform="rotate(-180 320 320)" fill="#D9D9D9"/>
</mask>
<g mask="url(#mask0_494_189996)">
<path d="M449.059 406.971C437.854 365.157 394.952 340.387 353.137 351.591M353.137 351.591C387.962 342.26 425.21 368.545 436.415 410.359M353.137 351.591C381.002 344.125 412.616 371.919 423.82 413.734M353.137 351.591C374.046 345.989 400.029 375.292 411.233 417.107M353.137 351.591C367.07 347.858 387.409 378.674 398.613 420.488M353.137 351.591C360.117 349.721 374.832 382.044 386.036 423.858M353.137 351.591C394.903 340.4 433.233 348.242 438.83 369.127C436.497 369.752 436.121 375.906 437.991 382.886C432.895 384.252 430.277 390.976 432.137 397.918C425.664 399.653 421.942 406.727 423.82 413.734M353.137 351.591C341.933 309.777 366.703 266.874 408.518 255.67M353.137 351.591C343.803 316.757 370.091 279.518 411.905 268.314M353.137 351.591C345.671 323.727 373.465 292.113 415.28 280.909M353.137 351.591C347.535 330.683 376.838 304.7 418.653 293.495M353.137 351.591C349.404 337.659 380.22 317.32 422.034 306.116M353.137 351.591C351.267 344.611 383.59 329.897 425.404 318.693M353.137 351.591C341.946 309.826 349.788 271.495 370.673 265.899C371.3 268.24 377.44 268.624 384.402 266.758C385.766 271.847 392.502 274.457 399.464 272.592C401.199 279.065 408.273 282.786 415.28 280.909M353.137 351.591C311.323 362.796 268.42 338.026 257.216 296.211M353.137 351.591C318.312 360.923 281.064 334.638 269.86 292.823M353.137 351.591C325.273 359.058 293.659 331.263 282.455 289.449M353.137 351.591C332.231 357.193 306.246 327.891 295.041 286.076M353.137 351.591C339.205 355.324 318.866 324.509 307.662 282.694M353.137 351.591C346.157 353.462 331.443 321.139 320.239 279.324M353.137 351.591C311.323 362.796 272.953 354.943 267.351 334.037C269.737 333.397 270.163 327.265 268.304 320.327C273.393 318.963 276.003 312.227 274.138 305.265C280.611 303.53 284.332 296.456 282.455 289.449M353.137 351.591C364.342 393.406 339.572 436.308 297.757 447.513M353.137 351.591C362.471 386.426 336.184 423.664 294.369 434.869M353.137 351.591C360.604 379.456 332.809 411.07 290.995 422.274M353.137 351.591C358.739 372.498 329.437 398.483 287.622 409.687M353.137 351.591C356.871 365.524 326.055 385.863 284.24 397.067M353.137 351.591C355.008 358.571 322.685 373.286 280.87 384.49M353.137 351.591C364.328 393.357 356.486 431.687 335.602 437.283C334.975 434.943 328.835 434.559 321.873 436.425C320.509 431.336 313.773 428.726 306.811 430.591M423.82 413.734C421.947 406.744 414.567 402.662 407.319 404.604C405.454 397.642 397.902 393.628 390.416 395.634C388.552 388.678 381.307 384.584 374.214 386.485M415.28 280.909C413.62 281.351 412.063 282.117 410.699 283.162C409.335 284.206 408.19 285.51 407.33 286.997C406.47 288.485 405.912 290.127 405.687 291.831C405.462 293.534 405.575 295.265 406.02 296.925C399.058 298.79 395.104 306.566 397.18 314.311C390.223 316.175 386.131 323.422 388.031 330.514M282.455 289.449C284.328 296.438 291.707 300.521 298.955 298.579C300.826 305.559 308.385 309.587 315.872 307.581C317.737 314.543 324.983 318.639 332.075 316.738M306.809 430.583C305.088 424.163 298.062 420.469 291.099 422.335C298.062 420.469 302.111 413.05 300.157 405.76M300.158 405.762C307.1 403.902 311.098 396.347 309.095 388.87C316.075 387 320.185 379.748 318.284 372.653M447.945 150.522C436.74 108.707 393.838 83.9374 352.023 95.1416M352.023 95.1416C386.848 85.8103 424.096 112.095 435.301 153.91M352.023 95.1416C379.888 87.6753 411.502 115.47 422.706 157.284M352.023 95.1416C372.932 89.5392 398.915 118.842 410.119 160.657M352.023 95.1416C365.956 91.4085 386.295 122.224 397.499 164.039M352.023 95.1416C359.003 93.2713 373.718 125.594 384.922 167.409M352.023 95.1416C393.789 83.9506 432.119 91.7925 437.715 112.677C435.383 113.302 435.007 119.457 436.877 126.437C431.781 127.802 429.163 134.526 431.023 141.468C424.549 143.203 420.828 150.277 422.706 157.284M352.023 95.1416C340.819 53.3269 365.589 10.4246 407.403 -0.779597M352.023 95.1416C342.689 60.3068 368.977 23.0685 410.791 11.8643M352.023 95.1416C344.557 67.2769 372.351 35.6632 414.166 24.459M352.023 95.1416C346.421 74.2333 375.724 48.25 417.539 37.0457M352.023 95.1416C348.29 81.2093 379.106 60.8703 420.92 49.666M352.023 95.1416C350.153 88.1617 382.476 73.4472 424.29 62.2429M352.023 95.1416C340.832 53.3761 348.674 15.0455 369.559 9.44951C370.186 11.7899 376.326 12.1741 383.288 10.3085C384.651 15.3972 391.388 18.0075 398.35 16.1419C400.085 22.6156 407.159 26.3366 414.166 24.459M352.023 95.1416C310.209 106.346 267.306 81.5762 256.102 39.7615M352.023 95.1416C317.198 104.473 279.95 78.1883 268.746 36.3736M352.023 95.1416C324.159 102.608 292.545 74.8136 281.341 32.9988M352.023 95.1416C331.117 100.743 305.132 71.441 293.927 29.6262M352.023 95.1416C338.091 98.8748 317.752 68.0594 306.548 26.2446M352.023 95.1416C345.043 97.0119 330.329 64.6894 319.125 22.8747M352.023 95.1416C310.209 106.346 271.839 98.4932 266.237 77.5868C268.623 76.9475 269.049 70.8155 267.19 63.8769C272.279 62.5134 274.889 55.7772 273.024 48.815C279.497 47.0804 283.218 40.0064 281.341 32.9988M352.023 95.1416C363.228 136.956 338.458 179.859 296.643 191.063M352.023 95.1416C361.357 129.976 335.07 167.215 293.255 178.419M352.023 95.1416C359.49 123.006 331.695 154.62 289.88 165.824M352.023 95.1416C357.625 116.048 328.323 142.033 286.508 153.237M352.023 95.1416C355.756 109.074 324.941 129.413 283.126 140.617M352.023 95.1416C353.894 102.122 321.571 116.836 279.756 128.04M352.023 95.1416C363.214 136.907 355.372 175.238 334.488 180.834C333.861 178.493 327.721 178.109 320.759 179.975C319.395 174.886 312.659 172.276 305.697 174.141M422.706 157.284C420.833 150.295 413.453 146.212 406.205 148.154C404.34 141.192 396.788 137.178 389.302 139.184C387.438 132.228 380.193 128.135 373.1 130.035M414.166 24.459C412.506 24.9016 410.949 25.6671 409.585 26.7119C408.221 27.7566 407.076 29.06 406.216 30.5475C405.356 32.0349 404.798 33.6774 404.573 35.3809C404.348 37.0843 404.461 38.8154 404.906 40.475C397.944 42.3406 393.99 50.1165 396.066 57.8609C389.109 59.7248 385.016 66.9723 386.917 74.0646M281.341 32.9988C283.214 39.9886 290.593 44.0712 297.841 42.1291C299.712 49.1091 307.271 53.1373 314.757 51.1314C316.623 58.0936 323.869 62.1888 330.961 60.2884M305.695 174.134C303.974 167.713 296.948 164.019 289.985 165.885C296.948 164.019 300.996 156.6 299.043 149.311M299.044 149.313C305.986 147.452 309.984 139.897 307.981 132.42C314.961 130.55 319.071 123.298 317.17 116.204M320.264 279.317C309.059 237.503 266.157 212.733 224.342 223.937M224.342 223.937C259.167 214.606 296.415 240.89 307.62 282.705M224.342 223.937C252.207 216.471 283.821 244.265 295.025 286.08M224.342 223.937C245.251 218.335 271.234 247.638 282.438 289.453M224.342 223.937C238.275 220.204 258.614 251.019 269.818 292.834M224.342 223.937C231.322 222.067 246.037 254.389 257.241 296.204M224.342 223.937C266.108 212.746 304.438 220.588 310.034 241.473C307.702 242.098 307.326 248.252 309.196 255.232C304.1 256.598 301.482 263.321 303.342 270.264C296.868 271.998 293.147 279.072 295.025 286.08M224.342 223.937C213.138 182.122 237.908 139.22 279.722 128.016M224.342 223.937C215.008 189.102 241.296 151.864 283.11 140.66M224.342 223.937C216.876 196.072 244.67 164.459 286.485 153.254M224.342 223.937C218.74 203.029 248.043 177.046 289.858 165.841M224.342 223.937C220.609 210.005 251.425 189.666 293.239 178.462M224.342 223.937C222.472 216.957 254.795 202.243 296.609 191.038M224.342 223.937C213.151 182.172 220.993 143.841 241.878 138.245C242.505 140.585 248.645 140.97 255.607 139.104C256.97 144.193 263.707 146.803 270.669 144.937C272.404 151.411 279.478 155.132 286.485 153.254M224.342 223.937C182.528 235.141 139.625 210.372 128.421 168.557M224.342 223.937C189.517 233.268 152.269 206.984 141.065 165.169M224.342 223.937C196.478 231.403 164.864 203.609 153.66 161.794M224.342 223.937C203.436 229.539 177.451 200.236 166.246 158.422M224.342 223.937C210.41 227.67 190.071 196.855 178.867 155.04M224.342 223.937C217.362 225.807 202.648 193.485 191.444 151.67M224.342 223.937C182.528 235.141 144.158 227.289 138.556 206.382C140.942 205.743 141.368 199.611 139.509 192.672C144.598 191.309 147.208 184.573 145.343 177.611C151.816 175.876 155.537 168.802 153.66 161.794M224.342 223.937C235.547 265.752 210.777 308.654 168.962 319.858M224.342 223.937C233.676 258.772 207.389 296.01 165.574 307.215M224.342 223.937C231.809 251.802 204.014 283.416 162.199 294.62M224.342 223.937C229.944 244.844 200.642 270.829 158.827 282.033M224.342 223.937C228.075 237.869 197.26 258.208 155.445 269.413M224.342 223.937C226.213 230.917 193.89 245.632 152.075 256.836M224.342 223.937C235.533 265.703 227.691 304.033 206.807 309.629C206.18 307.289 200.04 306.905 193.078 308.77C191.714 303.682 184.978 301.071 178.016 302.937M295.025 286.08C293.152 279.09 285.772 275.008 278.524 276.95C276.659 269.987 269.107 265.974 261.621 267.98C259.757 261.024 252.512 256.93 245.419 258.831M286.485 153.254C284.825 153.697 283.268 154.463 281.904 155.507C280.54 156.552 279.395 157.855 278.535 159.343C277.675 160.83 277.117 162.473 276.892 164.176C276.667 165.88 276.78 167.611 277.225 169.271C270.263 171.136 266.309 178.912 268.385 186.656C261.428 188.52 257.335 195.768 259.236 202.86M153.66 161.794C155.533 168.784 162.912 172.867 170.16 170.925C172.031 177.905 179.59 181.933 187.076 179.927C188.942 186.889 196.188 190.984 203.28 189.084M178.014 302.929C176.293 296.509 169.267 292.815 162.304 294.68C169.267 292.815 173.315 285.396 171.362 278.106M171.363 278.108C178.305 276.248 182.303 268.692 180.3 261.216C187.28 259.346 191.39 252.093 189.489 244.999M193.153 408.074C181.949 366.259 139.047 341.49 97.2322 352.694M97.2322 352.694C132.057 343.363 169.305 369.647 180.509 411.462M97.2322 352.694C125.097 345.228 156.711 373.022 167.915 414.837M97.2322 352.694C118.141 347.092 144.124 376.395 155.328 418.209M97.2322 352.694C111.165 348.961 131.504 379.776 142.708 421.591M97.2322 352.694C104.212 350.824 118.927 383.146 130.131 424.961M97.2322 352.694C138.998 341.503 177.328 349.345 182.924 370.23C180.592 370.855 180.216 377.009 182.086 383.989C176.99 385.355 174.372 392.078 176.232 399.021C169.758 400.755 166.037 407.829 167.915 414.837M97.2322 352.694C86.028 310.879 110.798 267.977 152.612 256.773M97.2322 352.694C87.8982 317.859 114.186 280.621 156 269.417M97.2322 352.694C89.7659 324.829 117.56 293.216 159.375 282.011M97.2322 352.694C91.6298 331.786 120.933 305.802 162.748 294.598M97.2322 352.694C93.499 338.762 124.314 318.423 166.129 307.218M97.2322 352.694C95.3619 345.714 127.684 330.999 169.499 319.795M97.2322 352.694C86.0412 310.928 93.8831 272.598 114.768 267.002C115.395 269.342 121.535 269.726 128.497 267.861C129.86 272.95 136.597 275.56 143.559 273.694C145.293 280.168 152.367 283.889 159.375 282.011M97.2322 352.694C55.4175 363.898 12.5152 339.129 1.31098 297.314M97.2322 352.694C62.4073 362.025 25.159 335.741 13.9548 293.926M97.2322 352.694C69.3675 360.16 37.7537 332.366 26.5495 290.551M97.2322 352.694C76.3258 358.296 50.3405 328.993 39.1363 287.179M97.2322 352.694C83.2999 356.427 62.9608 325.612 51.7566 283.797M97.2322 352.694C90.2522 354.564 75.5377 322.242 64.3335 280.427M97.2322 352.694C55.4175 363.898 17.0481 356.046 11.4462 335.139C13.832 334.5 14.2582 328.368 12.399 321.429C17.4877 320.066 20.0979 313.33 18.2324 306.367C24.7061 304.633 28.4272 297.559 26.5495 290.551M97.2322 352.694C108.436 394.509 83.6667 437.411 41.852 448.615M97.2322 352.694C106.566 387.529 80.2788 424.767 38.4641 435.971M97.2322 352.694C104.699 380.559 76.9041 412.172 35.0893 423.377M97.2322 352.694C102.834 373.6 73.5315 399.586 31.7168 410.79M97.2322 352.694C100.965 366.626 70.1499 386.965 28.3351 398.169M97.2322 352.694C99.1025 359.674 66.7799 374.388 24.9652 385.593M97.2322 352.694C108.423 394.459 100.581 432.79 79.6966 438.386C79.0695 436.046 72.9298 435.662 65.9676 437.527C64.6041 432.438 57.8678 429.828 50.9056 431.694M167.915 414.837C166.042 407.847 158.662 403.764 151.414 405.706C149.549 398.744 141.997 394.731 134.511 396.737C132.647 389.78 125.401 385.687 118.309 387.587M159.375 282.011C157.715 282.454 156.158 283.219 154.794 284.264C153.43 285.309 152.285 286.612 151.425 288.1C150.565 289.587 150.007 291.23 149.782 292.933C149.557 294.637 149.67 296.368 150.115 298.027C143.153 299.893 139.199 307.669 141.274 315.413C134.318 317.277 130.225 324.525 132.126 331.617M26.5495 290.551C28.4224 297.541 35.8023 301.624 43.0502 299.681C44.9205 306.661 52.4801 310.69 59.9664 308.684C61.8319 315.646 69.0779 319.741 76.1702 317.841M50.9035 431.686C49.1831 425.266 42.1566 421.572 35.1943 423.437C42.1566 421.572 46.2053 414.152 44.2522 406.863M44.2527 406.865C51.1953 405.005 55.1928 397.449 53.1895 389.973C60.1695 388.102 64.2799 380.85 62.379 373.756M63.8702 280.554C52.666 238.739 9.76371 213.97 -32.051 225.174M-32.051 225.174C2.77389 215.843 40.022 242.127 51.2263 283.942M-32.051 225.174C-4.18636 217.708 27.4274 245.502 38.6316 287.317M-32.051 225.174C-11.1427 219.571 14.8406 248.875 26.0448 290.689M-32.051 225.174C-18.1187 221.441 2.22033 252.256 13.4246 294.071M-32.051 225.174C-25.0711 223.304 -10.3566 255.626 0.84765 297.441M-32.051 225.174C9.71445 213.983 48.045 221.825 53.6411 242.709C51.3085 243.334 50.9326 249.489 52.8029 256.469C47.7063 257.834 45.0885 264.558 46.9488 271.501C40.4751 273.235 36.7539 280.309 38.6316 287.317M-32.051 225.174C-43.2553 183.359 -18.4856 140.457 23.3291 129.253M-32.051 225.174C-41.385 190.339 -15.0977 153.101 26.717 141.897M-32.051 225.174C-39.5173 197.309 -11.723 165.695 30.0917 154.491M-32.051 225.174C-37.6534 204.265 -8.35039 178.282 33.4643 167.078M-32.051 225.174C-35.7842 211.242 -4.96875 190.902 36.846 179.698M-32.051 225.174C-33.9213 218.194 -1.5988 203.479 40.2159 192.275M-32.051 225.174C-43.2421 183.408 -35.4002 145.078 -14.5154 139.482C-13.8883 141.822 -7.74866 142.206 -0.786432 140.341C0.577078 145.429 7.31335 148.04 14.2756 146.174C16.0102 152.648 23.0842 156.369 30.0917 154.491M-32.051 225.174C-73.8658 236.378 -116.768 211.608 -127.972 169.794M-32.051 225.174C-66.876 234.505 -104.124 208.221 -115.328 166.406M-32.051 225.174C-59.9157 232.64 -91.5295 204.846 -102.734 163.031M-32.051 225.174C-52.9574 230.776 -78.9427 201.473 -90.1469 159.658M-32.051 225.174C-45.9834 228.907 -66.3224 198.092 -77.5267 156.277M-32.051 225.174C-39.031 227.044 -53.7455 194.722 -64.9498 152.907M-32.051 225.174C-73.8658 236.378 -112.235 228.525 -117.837 207.619C-115.451 206.98 -115.025 200.848 -116.884 193.909C-111.796 192.546 -109.185 185.809 -111.051 178.847C-104.577 177.113 -100.856 170.039 -102.734 163.031M-32.051 225.174C-20.8468 266.989 -45.6165 309.891 -87.4313 321.095M-32.051 225.174C-22.7171 260.009 -49.0044 297.247 -90.8191 308.451M-32.051 225.174C-24.5847 253.039 -52.3791 284.652 -94.1939 295.856M-32.051 225.174C-26.4492 246.08 -55.7517 272.066 -97.5665 283.27M-32.051 225.174C-28.3179 239.106 -59.1334 259.445 -100.948 270.649M-32.051 225.174C-30.1808 232.154 -62.5033 246.868 -104.318 258.072M-32.051 225.174C-20.86 266.939 -28.702 305.27 -49.5867 310.866C-50.2138 308.526 -56.3535 308.142 -63.3157 310.007C-64.6792 304.918 -71.4155 302.308 -78.3777 304.174M38.6316 287.317C36.7587 280.327 29.3788 276.244 22.1309 278.186C20.2654 271.224 12.714 267.211 5.22773 269.217C3.36379 262.26 -3.88178 258.167 -10.974 260.067M30.0917 154.491C28.4315 154.934 26.8749 155.699 25.5107 156.744C24.1466 157.789 23.0018 159.092 22.1417 160.58C21.2817 162.067 20.7233 163.71 20.4985 165.413C20.2737 167.117 20.3869 168.848 20.8316 170.507C13.8694 172.373 9.91607 180.149 11.9912 187.893C5.03484 189.757 0.942111 197.005 2.84247 204.097M-102.734 163.031C-100.861 170.021 -93.481 174.103 -86.2331 172.161C-84.3628 179.141 -76.8032 183.17 -69.3169 181.164C-67.4514 188.126 -60.2053 192.221 -53.1131 190.321M-78.3798 304.166C-80.1001 297.745 -87.1267 294.052 -94.0889 295.917C-87.1267 294.052 -83.0779 286.632 -85.0311 279.343M-85.0305 279.345C-78.088 277.485 -74.0905 269.929 -76.0938 262.453C-69.1138 260.582 -65.0034 253.33 -66.9043 246.236M62.7601 24.1065C51.5559 -17.7082 8.6536 -42.4778 -33.1611 -31.2736M-33.1611 -31.2736C1.66378 -40.6049 38.9119 -14.3203 50.1162 27.4945M-33.1611 -31.2736C-5.29647 -38.7399 26.3173 -10.9456 37.5215 30.8692M-33.1611 -31.2736C-12.2528 -36.876 13.7305 -7.5729 24.9347 34.2418M-33.1611 -31.2736C-19.2288 -35.0067 1.11022 -4.19131 12.3144 37.6234M-33.1611 -31.2736C-26.1812 -33.1439 -11.4667 -0.82136 -0.262458 40.9934M-33.1611 -31.2736C8.60435 -42.4646 46.9349 -34.6227 52.531 -13.738C50.1984 -13.113 49.8225 -6.95863 51.6928 0.0213312C46.5962 1.38695 43.9784 8.11059 45.8387 15.0531C39.365 16.7877 35.6439 23.8616 37.5215 30.8692M-33.1611 -31.2736C-44.3654 -73.0883 -19.5957 -115.991 22.219 -127.195M-33.1611 -31.2736C-42.4951 -66.1084 -16.2078 -103.347 25.6069 -114.551M-33.1611 -31.2736C-40.6275 -59.1383 -12.8331 -90.752 28.9816 -101.956M-33.1611 -31.2736C-38.7635 -52.1819 -9.46045 -78.1653 32.3543 -89.3695M-33.1611 -31.2736C-36.8943 -45.2059 -6.07886 -65.545 35.7359 -76.7492M-33.1611 -31.2736C-35.0314 -38.2535 -2.70888 -52.9681 39.1059 -64.1723M-33.1611 -31.2736C-44.3522 -73.0391 -36.5103 -111.37 -15.6255 -116.966C-14.9984 -114.625 -8.85872 -114.241 -1.89649 -116.107C-0.532981 -111.018 6.20324 -108.408 13.1655 -110.273C14.9001 -103.8 21.9741 -100.079 28.9816 -101.956M-33.1611 -31.2736C-74.9759 -20.0694 -117.878 -44.839 -129.082 -86.6538M-33.1611 -31.2736C-67.9861 -21.9423 -105.234 -48.2269 -116.439 -90.0417M-33.1611 -31.2736C-61.0258 -23.8073 -92.6396 -51.6017 -103.844 -93.4164M-33.1611 -31.2736C-54.0675 -25.6717 -80.0528 -54.9743 -91.257 -96.789M-33.1611 -31.2736C-47.0935 -27.5404 -67.4326 -58.3559 -78.6368 -100.171M-33.1611 -31.2736C-40.1411 -29.4033 -54.8556 -61.7258 -66.0599 -103.541M-33.1611 -31.2736C-74.9759 -20.0694 -113.345 -27.922 -118.947 -48.8284C-116.561 -49.4677 -116.135 -55.5997 -117.994 -62.5383C-112.906 -63.9018 -110.295 -70.638 -112.161 -77.6002C-105.687 -79.3348 -101.966 -86.4089 -103.844 -93.4164M-33.1611 -31.2736C-21.9569 10.5411 -46.7266 53.4435 -88.5414 64.6477M-33.1611 -31.2736C-23.8272 3.56119 -50.1145 40.7996 -91.9292 52.0038M-33.1611 -31.2736C-25.6948 -3.40892 -53.4892 28.2048 -95.304 39.409M-33.1611 -31.2736C-27.5593 -10.3672 -56.8618 15.618 -98.6766 26.8223M-33.1611 -31.2736C-29.428 -17.3413 -60.2435 2.99768 -102.058 14.2019M-33.1611 -31.2736C-31.2909 -24.2936 -63.6134 -9.57923 -105.428 1.62499M-33.1611 -31.2736C-21.9701 10.4919 -29.8121 48.8225 -50.6968 54.4185C-51.3239 52.0781 -57.4636 51.6941 -64.4258 53.5596C-65.7893 48.4709 -72.5256 45.8606 -79.4878 47.7262M37.5215 30.8692C35.6486 23.8794 28.2687 19.7968 21.0208 21.7389C19.1553 14.7766 11.6039 10.7632 4.11767 12.7692C2.25373 5.81287 -4.99189 1.71946 -12.0841 3.61982M28.9816 -101.956C27.3214 -101.514 25.7648 -100.748 24.4006 -99.7034C23.0365 -98.6587 21.8917 -97.3553 21.0316 -95.8678C20.1716 -94.3803 19.6132 -92.7378 19.3884 -91.0344C19.1636 -89.3309 19.2768 -87.5999 19.7215 -85.9402C12.7593 -84.0747 8.80596 -76.2987 10.881 -68.5544C3.92473 -66.6904 -0.167996 -59.4429 1.73237 -52.3506M-103.844 -93.4164C-101.971 -86.4266 -94.591 -82.344 -87.3431 -84.2861C-85.4728 -77.3061 -77.9133 -73.2779 -70.427 -75.2838C-68.5615 -68.3216 -61.3155 -64.2265 -54.2232 -66.1268M-79.4899 47.7184C-81.2103 41.298 -88.2368 37.6042 -95.199 39.4697C-88.2368 37.6042 -84.188 30.1848 -86.1412 22.8956M-86.1406 22.8975C-79.1981 21.0372 -75.2006 13.4816 -77.2039 6.00522C-70.2239 4.13494 -66.1135 -3.11736 -68.0144 -10.2116M191.527 151.768C180.323 109.954 137.42 85.184 95.6057 96.3882M95.6057 96.3882C130.431 87.0569 167.679 113.342 178.883 155.156M95.6057 96.3882C123.47 88.9219 155.084 116.716 166.288 158.531M95.6057 96.3882C116.514 90.7858 142.497 120.089 153.702 161.904M95.6057 96.3882C109.538 92.655 129.877 123.47 141.081 165.285M95.6057 96.3882C102.586 94.5179 117.3 126.84 128.504 168.655M95.6057 96.3882C137.371 85.1972 175.702 93.0391 181.298 113.924C178.965 114.549 178.589 120.703 180.46 127.683C175.363 129.049 172.745 135.772 174.606 142.715C168.132 144.45 164.411 151.523 166.288 158.531M95.6057 96.3882C84.4015 54.5734 109.171 11.6712 150.986 0.466937M95.6057 96.3882C86.2718 61.5534 112.559 24.3151 154.374 13.1109M95.6057 96.3882C88.1394 68.5235 115.934 36.9097 157.749 25.7055M95.6057 96.3882C90.0033 75.4798 119.306 49.4966 161.121 38.2923M95.6057 96.3882C91.8726 82.4558 122.688 62.1168 164.503 50.9126M95.6057 96.3882C93.7354 89.4082 126.058 74.6937 167.873 63.4895M95.6057 96.3882C84.4147 54.6227 92.2566 16.2921 113.141 10.6961C113.768 13.0365 119.908 13.4206 126.87 11.5551C128.234 16.6438 134.97 19.254 141.932 17.3885C143.667 23.8621 150.741 27.5832 157.749 25.7055M95.6057 96.3882C53.791 107.592 10.8887 82.8228 -0.315534 41.008M95.6057 96.3882C60.7808 105.719 23.5325 79.4348 12.3283 37.6201M95.6057 96.3882C67.741 103.854 36.1272 76.0601 24.923 34.2454M95.6057 96.3882C74.6993 101.99 48.714 72.6875 37.5098 30.8727M95.6057 96.3882C81.6734 100.121 61.3343 69.3059 50.1301 27.4912M95.6057 96.3882C88.6257 98.2585 73.9112 65.9359 62.707 24.1212M95.6057 96.3882C53.791 107.592 15.4216 99.7398 9.81972 78.8334C12.2055 78.1941 12.6317 72.0621 10.7725 65.1235C15.8612 63.76 18.4715 57.0238 16.606 50.0616C23.0796 48.327 26.8007 41.2529 24.923 34.2454M95.6057 96.3882C106.81 138.203 82.0402 181.105 40.2255 192.309M95.6057 96.3882C104.94 131.223 78.6524 168.461 36.8376 179.666M95.6057 96.3882C103.072 124.253 75.2776 155.867 33.4629 167.071M95.6057 96.3882C101.208 117.295 71.905 143.28 30.0903 154.484M95.6057 96.3882C99.3389 110.321 68.5234 130.659 26.7086 141.864M95.6057 96.3882C97.476 103.368 65.1535 118.083 23.3387 129.287M95.6057 96.3882C106.797 138.154 98.9548 176.484 78.0701 182.08C77.443 179.74 71.3033 179.356 64.3411 181.221C62.9776 176.133 56.2413 173.522 49.2791 175.388M166.288 158.531C164.415 151.541 157.036 147.459 149.788 149.401C147.922 142.438 140.371 138.425 132.884 140.431C131.021 133.475 123.775 129.381 116.683 131.282M157.749 25.7055C156.088 26.1481 154.532 26.9137 153.168 27.9584C151.803 29.0032 150.659 30.3065 149.799 31.794C148.938 33.2815 148.38 34.9239 148.155 36.6274C147.93 38.3308 148.044 40.0619 148.488 41.7216C141.526 43.5871 137.573 51.3631 139.648 59.1075C132.692 60.9714 128.599 68.2189 130.499 75.3112M24.923 34.2454C26.7959 41.2352 34.1758 45.3177 41.4237 43.3757C43.294 50.3556 50.8536 54.3839 58.3399 52.3779C60.2054 59.3402 67.4514 63.4354 74.5437 61.535M49.277 175.38C47.5566 168.96 40.53 165.266 33.5678 167.132C40.53 165.266 44.5789 157.847 42.6257 150.557M42.6262 150.559C49.5688 148.699 53.5663 141.143 51.563 133.667C58.543 131.797 62.6534 124.544 60.7525 117.45M319.178 22.86C307.973 -18.9548 265.071 -43.7244 223.256 -32.5202M223.256 -32.5202C258.081 -41.8515 295.33 -15.5668 306.534 26.2479M223.256 -32.5202C251.121 -39.9865 282.735 -12.1921 293.939 29.6226M223.256 -32.5202C244.165 -38.1225 270.148 -8.81948 281.352 32.9953M223.256 -32.5202C237.189 -36.2533 257.528 -5.43789 268.732 36.3768M223.256 -32.5202C230.236 -34.3904 244.951 -2.06794 256.155 39.7468M223.256 -32.5202C265.022 -43.7112 303.353 -35.8693 308.949 -14.9846C306.616 -14.3596 306.24 -8.20521 308.11 -1.22525C303.014 0.140371 300.396 6.86401 302.256 13.8065C295.783 15.5411 292.061 22.6151 293.939 29.6226M223.256 -32.5202C212.052 -74.3349 236.822 -117.237 278.637 -128.441M223.256 -32.5202C213.922 -67.355 240.21 -104.593 282.025 -115.797M223.256 -32.5202C215.79 -60.3848 243.585 -91.9986 285.399 -103.203M223.256 -32.5202C217.654 -53.4285 246.957 -79.4119 288.772 -90.6161M223.256 -32.5202C219.523 -46.4525 250.339 -66.7915 292.153 -77.9958M223.256 -32.5202C221.386 -39.5001 253.709 -54.2146 295.523 -65.4189M223.256 -32.5202C212.065 -74.2857 219.907 -112.616 240.792 -118.212C241.419 -115.872 247.559 -115.488 254.521 -117.353C255.885 -112.265 262.621 -109.654 269.583 -111.52C271.318 -105.046 278.392 -101.325 285.399 -103.203M223.256 -32.5202C181.442 -21.316 138.539 -46.0856 127.335 -87.9003M223.256 -32.5202C188.432 -23.1889 151.183 -49.4735 139.979 -91.2882M223.256 -32.5202C195.392 -25.0539 163.778 -52.8483 152.574 -94.663M223.256 -32.5202C202.35 -26.9183 176.365 -56.2209 165.161 -98.0356M223.256 -32.5202C209.324 -28.787 188.985 -59.6025 177.781 -101.417M223.256 -32.5202C216.276 -30.6499 201.562 -62.9724 190.358 -104.787M223.256 -32.5202C181.442 -21.316 143.072 -29.1686 137.47 -50.075C139.856 -50.7143 140.282 -56.8463 138.423 -63.7849C143.512 -65.1484 146.122 -71.8846 144.257 -78.8468C150.73 -80.5814 154.451 -87.6555 152.574 -94.663M223.256 -32.5202C234.461 9.29456 209.691 52.1969 167.876 63.4011M223.256 -32.5202C232.59 2.31461 206.303 39.553 164.488 50.7572M223.256 -32.5202C230.723 -4.6555 202.928 26.9582 161.114 38.1624M223.256 -32.5202C228.858 -11.6138 199.556 14.3715 157.741 25.5757M223.256 -32.5202C226.99 -18.5878 196.174 1.75109 154.359 12.9553M223.256 -32.5202C225.127 -25.5402 192.804 -10.8258 150.989 0.378411M223.256 -32.5202C234.447 9.24531 226.606 47.5759 205.721 53.172C205.094 50.8315 198.954 50.4475 191.992 52.313C190.628 47.2243 183.892 44.6141 176.93 46.4796M293.939 29.6226C292.066 22.6328 284.686 18.5502 277.438 20.4923C275.573 13.5301 268.022 9.51671 260.535 11.5226C258.671 4.56633 251.426 0.472873 244.333 2.37324M285.399 -103.203C283.739 -102.76 282.182 -101.995 280.818 -100.95C279.454 -99.9052 278.309 -98.6019 277.449 -97.1144C276.589 -95.6269 276.031 -93.9844 275.806 -92.281C275.581 -90.5775 275.694 -88.8465 276.139 -87.1868C269.177 -85.3213 265.224 -77.5452 267.299 -69.8009C260.342 -67.9369 256.25 -60.6895 258.15 -53.5972M152.574 -94.663C154.447 -87.6732 161.827 -83.5906 169.074 -85.5327C170.945 -78.5527 178.504 -74.5245 185.991 -76.5304C187.856 -69.5682 195.102 -65.473 202.194 -67.3733M176.928 46.4718C175.207 40.0514 168.181 36.3576 161.219 38.2231C168.181 36.3576 172.23 28.9382 170.276 21.649M170.277 21.6509C177.22 19.7906 181.217 12.2351 179.214 4.75864C186.194 2.88836 190.304 -4.36394 188.403 -11.4582" stroke="#F7CE46" stroke-width="4" stroke-linecap="round" stroke-linejoin="round"/>
</g>
</g>
</g>
<defs>
<clipPath id="clip0_494_189996">
<rect width="320" height="320" rx="24" fill="white"/>
</clipPath>
<clipPath id="clip1_494_189996">
<rect width="320" height="320" fill="white" transform="matrix(1 0 0 -1 0 320)"/>
</clipPath>
</defs>
</svg>
