<svg width="320" height="320" viewBox="0 0 320 320" fill="none" xmlns="http://www.w3.org/2000/svg">
<g clip-path="url(#clip0_494_189323)">
<rect width="320" height="320" rx="24" fill="white" fill-opacity="0.08"/>
<rect width="320" height="320" rx="24" fill="#FAE290"/>
<rect width="320" height="320" fill="#EEEBE4"/>
<rect x="232.25" y="24" width="63.75" height="13.125" rx="6.5625" stroke="black" stroke-width="0.75" stroke-linecap="round" stroke-linejoin="round" stroke-dasharray="3 3"/>
<rect width="56.25" height="5.625" rx="2.8125" transform="matrix(1 0 0 -1 236 33.375)" fill="black"/>
<rect opacity="0.1" width="27.5942" height="7.88406" transform="matrix(1 0 0 -1 24 161.5)" fill="#202A42"/>
<path fill-rule="evenodd" clip-rule="evenodd" d="M71.3039 153.617H51.5938V157.559H71.3039V153.617Z" fill="#202A42"/>
<path fill-rule="evenodd" clip-rule="evenodd" d="M91.0148 157.558H71.3047V161.5H91.0148V157.558Z" fill="#202A42"/>
<path fill-rule="evenodd" clip-rule="evenodd" d="M110.726 153.617H91.0156V157.559H110.726V153.617Z" fill="#202A42"/>
<path fill-rule="evenodd" clip-rule="evenodd" d="M130.433 157.558H110.723V161.5H130.433V157.558Z" fill="#202A42"/>
<path fill-rule="evenodd" clip-rule="evenodd" d="M150.144 153.617H130.434V157.559H150.144V153.617Z" fill="#202A42"/>
<path fill-rule="evenodd" clip-rule="evenodd" d="M169.855 157.558H150.145V161.5H169.855V157.558Z" fill="#202A42"/>
<path fill-rule="evenodd" clip-rule="evenodd" d="M189.566 153.617H169.855V157.559H189.566V153.617Z" fill="#202A42"/>
<path fill-rule="evenodd" clip-rule="evenodd" d="M209.277 157.558H189.566V161.5H209.277V157.558Z" fill="#202A42"/>
<path fill-rule="evenodd" clip-rule="evenodd" d="M228.984 153.617H209.273V157.559H228.984V153.617Z" fill="#202A42"/>
<path fill-rule="evenodd" clip-rule="evenodd" d="M248.695 157.558H228.984V161.5H248.695V157.558Z" fill="#202A42"/>
<path fill-rule="evenodd" clip-rule="evenodd" d="M268.405 153.617H248.695V157.559H268.405V153.617Z" fill="#202A42"/>
<rect opacity="0.1" width="27.5942" height="7.88406" transform="matrix(1 0 0 -1 268.406 161.5)" fill="#202A42"/>
<path d="M23.9961 90.5408L51.4069 153.613H268.585L295.996 90.5408H23.9961Z" stroke="#202A42" stroke-width="0.985507"/>
<path d="M67.7038 153.613L44.3477 90.5408" stroke="#202A42" stroke-width="0.985507"/>
<path d="M88.3531 153.613L69.9141 90.5408" stroke="#202A42" stroke-width="0.985507"/>
<path d="M108.999 153.613L95.4766 90.5408" stroke="#202A42" stroke-width="0.985507"/>
<path d="M129.648 153.613L121.043 90.5408" stroke="#202A42" stroke-width="0.985507"/>
<path d="M150.293 153.613L146.605 90.5408" stroke="#202A42" stroke-width="0.985507"/>
<path d="M169.711 153.613L173.398 90.5408" stroke="#202A42" stroke-width="0.985507"/>
<path d="M190.356 153.613L198.961 90.5408" stroke="#202A42" stroke-width="0.985507"/>
<path d="M211.001 153.613L224.523 90.5408" stroke="#202A42" stroke-width="0.985507"/>
<path d="M231.647 153.613L250.086 90.5408" stroke="#202A42" stroke-width="0.985507"/>
<path d="M252.292 153.613L275.648 90.5408" stroke="#202A42" stroke-width="0.985507"/>
<path fill-rule="evenodd" clip-rule="evenodd" d="M48.6377 82.6595H24V86.6016H48.6377V82.6595Z" fill="#202A42"/>
<path fill-rule="evenodd" clip-rule="evenodd" d="M73.2744 86.6009H48.6367V90.543H73.2744V86.6009Z" fill="#202A42"/>
<path fill-rule="evenodd" clip-rule="evenodd" d="M97.9111 82.6595H73.2734V86.6016H97.9111V82.6595Z" fill="#202A42"/>
<path fill-rule="evenodd" clip-rule="evenodd" d="M122.552 86.6009H97.9141V90.543H122.552V86.6009Z" fill="#202A42"/>
<path fill-rule="evenodd" clip-rule="evenodd" d="M147.188 82.6595H122.551V86.6016H147.188V82.6595Z" fill="#202A42"/>
<path fill-rule="evenodd" clip-rule="evenodd" d="M171.825 86.6009H147.188V90.543H171.825V86.6009Z" fill="#202A42"/>
<path fill-rule="evenodd" clip-rule="evenodd" d="M196.462 82.6595H171.824V86.6016H196.462V82.6595Z" fill="#202A42"/>
<path fill-rule="evenodd" clip-rule="evenodd" d="M221.103 86.6009H196.465V90.543H221.103V86.6009Z" fill="#202A42"/>
<path fill-rule="evenodd" clip-rule="evenodd" d="M245.739 82.6595H221.102V86.6016H245.739V82.6595Z" fill="#202A42"/>
<path fill-rule="evenodd" clip-rule="evenodd" d="M270.376 86.6009H245.738V90.543H270.376V86.6009Z" fill="#202A42"/>
<path fill-rule="evenodd" clip-rule="evenodd" d="M295.013 82.6595H270.375V86.6016H295.013V82.6595Z" fill="#202A42"/>
<rect opacity="0.1" x="24" y="158.5" width="27.5942" height="7.88406" fill="#202A42"/>
<path fill-rule="evenodd" clip-rule="evenodd" d="M71.3039 166.383H51.5938V162.441H71.3039V166.383Z" fill="#202A42"/>
<path fill-rule="evenodd" clip-rule="evenodd" d="M91.0148 162.442H71.3047V158.5H91.0148V162.442Z" fill="#202A42"/>
<path fill-rule="evenodd" clip-rule="evenodd" d="M110.726 166.383H91.0156V162.441H110.726V166.383Z" fill="#202A42"/>
<path fill-rule="evenodd" clip-rule="evenodd" d="M130.433 162.442H110.723V158.5H130.433V162.442Z" fill="#202A42"/>
<path fill-rule="evenodd" clip-rule="evenodd" d="M150.144 166.383H130.434V162.441H150.144V166.383Z" fill="#202A42"/>
<path fill-rule="evenodd" clip-rule="evenodd" d="M169.855 162.442H150.145V158.5H169.855V162.442Z" fill="#202A42"/>
<path fill-rule="evenodd" clip-rule="evenodd" d="M189.566 166.383H169.855V162.441H189.566V166.383Z" fill="#202A42"/>
<path fill-rule="evenodd" clip-rule="evenodd" d="M209.277 162.442H189.566V158.5H209.277V162.442Z" fill="#202A42"/>
<path fill-rule="evenodd" clip-rule="evenodd" d="M228.984 166.383H209.273V162.441H228.984V166.383Z" fill="#202A42"/>
<path fill-rule="evenodd" clip-rule="evenodd" d="M248.695 162.442H228.984V158.5H248.695V162.442Z" fill="#202A42"/>
<path fill-rule="evenodd" clip-rule="evenodd" d="M268.405 166.383H248.695V162.441H268.405V166.383Z" fill="#202A42"/>
<rect opacity="0.1" x="268.406" y="158.5" width="27.5942" height="7.88406" fill="#202A42"/>
<path d="M23.9961 229.459L51.4069 166.387H268.585L295.996 229.459H23.9961Z" stroke="#202A42" stroke-width="0.985507"/>
<path d="M67.7038 166.387L44.3477 229.459" stroke="#202A42" stroke-width="0.985507"/>
<path d="M88.3531 166.387L69.9141 229.459" stroke="#202A42" stroke-width="0.985507"/>
<path d="M108.999 166.387L95.4766 229.459" stroke="#202A42" stroke-width="0.985507"/>
<path d="M129.648 166.387L121.043 229.459" stroke="#202A42" stroke-width="0.985507"/>
<path d="M150.293 166.387L146.605 229.459" stroke="#202A42" stroke-width="0.985507"/>
<path d="M169.711 166.387L173.398 229.459" stroke="#202A42" stroke-width="0.985507"/>
<path d="M190.356 166.387L198.961 229.459" stroke="#202A42" stroke-width="0.985507"/>
<path d="M211.001 166.387L224.523 229.459" stroke="#202A42" stroke-width="0.985507"/>
<path d="M231.647 166.387L250.086 229.459" stroke="#202A42" stroke-width="0.985507"/>
<path d="M252.292 166.387L275.648 229.459" stroke="#202A42" stroke-width="0.985507"/>
<path fill-rule="evenodd" clip-rule="evenodd" d="M48.6377 237.34H24V233.398H48.6377V237.34Z" fill="#202A42"/>
<path fill-rule="evenodd" clip-rule="evenodd" d="M73.2744 233.399H48.6367V229.457H73.2744V233.399Z" fill="#202A42"/>
<path fill-rule="evenodd" clip-rule="evenodd" d="M97.9111 237.34H73.2734V233.398H97.9111V237.34Z" fill="#202A42"/>
<path fill-rule="evenodd" clip-rule="evenodd" d="M122.552 233.399H97.9141V229.457H122.552V233.399Z" fill="#202A42"/>
<path fill-rule="evenodd" clip-rule="evenodd" d="M147.188 237.34H122.551V233.398H147.188V237.34Z" fill="#202A42"/>
<path fill-rule="evenodd" clip-rule="evenodd" d="M171.825 233.399H147.188V229.457H171.825V233.399Z" fill="#202A42"/>
<path fill-rule="evenodd" clip-rule="evenodd" d="M196.462 237.34H171.824V233.398H196.462V237.34Z" fill="#202A42"/>
<path fill-rule="evenodd" clip-rule="evenodd" d="M221.103 233.399H196.465V229.457H221.103V233.399Z" fill="#202A42"/>
<path fill-rule="evenodd" clip-rule="evenodd" d="M245.739 237.34H221.102V233.398H245.739V237.34Z" fill="#202A42"/>
<path fill-rule="evenodd" clip-rule="evenodd" d="M270.376 233.399H245.738V229.457H270.376V233.399Z" fill="#202A42"/>
<path fill-rule="evenodd" clip-rule="evenodd" d="M295.013 237.34H270.375V233.398H295.013V237.34Z" fill="#202A42"/>
<rect x="24" y="285.18" width="35.4098" height="10.8197" rx="5.40984" stroke="black" stroke-width="0.75" stroke-linecap="round" stroke-linejoin="round" stroke-dasharray="3 3"/>
<rect x="176" y="282.875" width="120" height="13.125" rx="6.5625" stroke="black" stroke-width="0.75" stroke-linecap="round" stroke-linejoin="round" stroke-dasharray="3 3"/>
<rect width="112.5" height="5.625" rx="2.8125" transform="matrix(1 0 0 -1 179.75 292.25)" fill="black"/>
</g>
<defs>
<clipPath id="clip0_494_189323">
<rect width="320" height="320" rx="24" fill="white"/>
</clipPath>
</defs>
</svg>
