<svg width="320" height="320" viewBox="0 0 320 320" fill="none" xmlns="http://www.w3.org/2000/svg">
<rect width="320" height="320" rx="24" fill="#225FA6"/>
<path d="M140.547 69.9504L158.397 52.0254H184.572" stroke="#FFB708" stroke-width="4.5" stroke-miterlimit="10"/>
<path d="M162.273 64.3496H180.573" stroke="#FFB708" stroke-width="4.5" stroke-miterlimit="10"/>
<path d="M131.727 78.0254V104.425L158.727 113.725V217.975" stroke="#FFB708" stroke-width="4.5" stroke-miterlimit="10"/>
<path d="M158.727 144.701H180.177L240.102 192.176V215.126" stroke="#FFB708" stroke-width="4.5" stroke-miterlimit="10"/>
<path d="M131.722 78.0254V104.425L104.797 113.725V217.975" stroke="#FFB708" stroke-width="4.5" stroke-miterlimit="10"/>
<path d="M104.798 144.701H83.3485L51.0234 192.176V215.126" stroke="#FFB708" stroke-width="4.5" stroke-miterlimit="10"/>
<path d="M105.403 215.125V233.875L77.9531 243.175V260.95" stroke="#FFB708" stroke-width="4.5" stroke-miterlimit="10"/>
<path d="M158.278 215.125V233.875L130.828 243.175V260.95" stroke="#FFB708" stroke-width="4.5" stroke-miterlimit="10"/>
<path d="M158.727 215.125V233.875L186.177 243.175V260.95" stroke="#FFB708" stroke-width="4.5" stroke-miterlimit="10"/>
<path d="M240.1 215.125V233.875L212.5 243.175V260.95" stroke="#FFB708" stroke-width="4.5" stroke-miterlimit="10"/>
<path d="M240.398 233.875L267.848 243.175V260.95" stroke="#FFB708" stroke-width="4.5" stroke-miterlimit="10"/>
<path d="M131.728 90.1765C138.478 90.1765 143.878 84.7016 143.878 77.9516C143.878 71.2016 138.403 65.7266 131.728 65.7266C125.053 65.7266 119.578 71.2016 119.578 77.9516C119.578 84.7016 124.978 90.1765 131.728 90.1765Z" fill="white"/>
<path d="M158.728 221.277C162.103 221.277 164.878 218.502 164.878 215.127C164.878 211.752 162.103 208.977 158.728 208.977C155.353 208.977 152.578 211.752 152.578 215.127C152.578 218.502 155.353 221.277 158.728 221.277Z" fill="white"/>
<path d="M158.728 152.878C162.103 152.878 164.878 150.103 164.878 146.728C164.878 143.353 162.103 140.578 158.728 140.578C155.353 140.578 152.578 143.353 152.578 146.728C152.578 150.103 155.353 152.878 158.728 152.878Z" fill="white"/>
<path d="M52.15 221.277C55.525 221.277 58.3 218.502 58.3 215.127C58.3 211.752 55.525 208.977 52.15 208.977C48.775 208.977 46 211.752 46 215.127C46 218.502 48.775 221.277 52.15 221.277Z" fill="white"/>
<path d="M105.4 221.277C108.775 221.277 111.55 218.502 111.55 215.127C111.55 211.752 108.775 208.977 105.4 208.977C102.025 208.977 99.25 211.752 99.25 215.127C99.25 218.502 101.95 221.277 105.4 221.277Z" fill="white"/>
<path d="M77.8766 267.476C81.2516 267.476 84.0265 264.701 84.0265 261.326C84.0265 257.951 81.2516 255.176 77.8766 255.176C74.5016 255.176 71.7266 257.951 71.7266 261.326C71.7266 264.701 74.5016 267.476 77.8766 267.476Z" fill="white"/>
<path d="M105.4 152.878C108.775 152.878 111.55 150.103 111.55 146.728C111.55 143.353 108.775 140.578 105.4 140.578C102.025 140.578 99.25 143.353 99.25 146.728C99.25 150.103 101.95 152.878 105.4 152.878Z" fill="white"/>
<path d="M130.822 267.476C134.197 267.476 136.972 264.701 136.972 261.326C136.972 257.951 134.197 255.176 130.822 255.176C127.447 255.176 124.672 257.951 124.672 261.326C124.672 264.701 127.447 267.476 130.822 267.476Z" fill="white"/>
<path d="M186.173 267.476C189.548 267.476 192.323 264.701 192.323 261.326C192.323 257.951 189.548 255.176 186.173 255.176C182.798 255.176 180.023 257.951 180.023 261.326C180.023 264.701 182.798 267.476 186.173 267.476Z" fill="white"/>
<path d="M212.502 267.476C215.877 267.476 218.652 264.701 218.652 261.326C218.652 257.951 215.877 255.176 212.502 255.176C209.127 255.176 206.352 257.951 206.352 261.326C206.352 264.701 209.127 267.476 212.502 267.476Z" fill="white"/>
<path d="M267.853 267.476C271.228 267.476 274.003 264.701 274.003 261.326C274.003 257.951 271.228 255.176 267.853 255.176C264.478 255.176 261.703 257.951 261.703 261.326C261.703 264.701 264.478 267.476 267.853 267.476Z" fill="white"/>
</svg>
