<svg width="320" height="320" viewBox="0 0 320 320" fill="none" xmlns="http://www.w3.org/2000/svg">
<g clip-path="url(#clip0_494_188778)">
<rect width="320" height="320" fill="#F7CE46"/>
<path d="M160.417 160V156.45L316.867 0H320.317V160H160.367H160.417ZM303.967 0H296.867L160.417 136.45V143.55L303.967 0ZM283.967 0H276.867L160.417 116.45V123.55L283.967 0ZM263.967 0H256.917L160.417 96.5V103.55L263.967 0ZM243.967 0H236.867L160.367 76.5V83.55L243.967 0ZM223.967 0H216.867L160.367 56.5V63.55L223.967 0ZM203.967 0H196.867L160.367 36.5V43.55L203.967 0ZM184.017 0H176.917L160.417 16.55V23.6L184.017 0ZM160.417 0V3.6L164.017 0H160.417Z" fill="#E7654C"/>
<path d="M240.418 200H320.418L280.418 160L240.418 200Z" fill="#E7654C"/>
<path d="M280.418 200L320.418 240H240.418L280.418 200Z" fill="#E7654C"/>
<path d="M280.418 240L320.418 280H240.418L280.418 240Z" fill="#E7654C"/>
<path d="M280.418 280L320.418 320H240.418L280.418 280Z" fill="#E7654C"/>
<path d="M160.418 200H240.418L200.418 160L160.418 200Z" fill="#E7654C"/>
<path d="M200.418 200L240.418 240H160.418L200.418 200Z" fill="#E7654C"/>
<path d="M200.418 240L240.418 280H160.418L200.418 240Z" fill="#E7654C"/>
<path d="M200.418 280L240.418 320H160.418L200.418 280Z" fill="#E7654C"/>
<path d="M120.418 200L140.418 180V0H120.418V200Z" fill="#E7654C"/>
<path d="M80.418 240L100.418 220V0H80.418V240Z" fill="#E7654C"/>
<path d="M40.418 280L60.418 260V0H40.418V280Z" fill="#E7654C"/>
<path d="M0.417969 320L20.418 300V0H0.417969V320Z" fill="#E7654C"/>
<path d="M0.417969 320H8.56797L160.418 168.15V160L0.417969 320Z" fill="#E7654C"/>
<path d="M160.417 179.199V187.349L27.7672 319.999H19.6172L160.417 179.199Z" fill="#E7654C"/>
<path d="M160.416 198.35V206.5L46.9156 320H38.7656L160.416 198.35Z" fill="#E7654C"/>
<path d="M160.419 217.551V225.701L66.1188 320.001H57.9688L160.419 217.551Z" fill="#E7654C"/>
<path d="M160.418 236.75V244.9L85.318 320H77.168L160.418 236.75Z" fill="#E7654C"/>
<path d="M160.42 255.9V264.05L104.47 320H96.3203L160.42 255.9Z" fill="#E7654C"/>
<path d="M160.42 275.1V283.25L123.67 320H115.52L160.42 275.1Z" fill="#E7654C"/>
<path d="M160.419 294.301V302.451L142.869 320.001H134.719L160.419 294.301Z" fill="#E7654C"/>
<path d="M160.417 313.449V319.999H153.867L160.417 313.449Z" fill="#E7654C"/>
</g>
<defs>
<clipPath id="clip0_494_188778">
<rect width="320" height="320" rx="24" fill="white"/>
</clipPath>
</defs>
</svg>
