<svg width="320" height="320" viewBox="0 0 320 320" fill="none" xmlns="http://www.w3.org/2000/svg">
<g clip-path="url(#clip0_494_189286)">
<rect width="320" height="320" rx="24" fill="white" fill-opacity="0.08"/>
<rect width="320" height="320" rx="24" fill="#FAE290"/>
<path d="M240 35V125" stroke="#1E1E21"/>
<path d="M232.188 35.6836L247.816 124.316" stroke="#1E1E21"/>
<path d="M224.609 37.7148L255.391 122.287" stroke="#1E1E21"/>
<path d="M217.5 41.0293L262.5 118.972" stroke="#1E1E21"/>
<path d="M211.074 45.5273L268.925 114.471" stroke="#1E1E21"/>
<path d="M205.527 51.0742L274.471 108.925" stroke="#1E1E21"/>
<path d="M201.031 57.5L278.974 102.5" stroke="#1E1E21"/>
<path d="M197.715 64.6094L282.287 95.3912" stroke="#1E1E21"/>
<path d="M195.684 72.1855L284.316 87.8139" stroke="#1E1E21"/>
<path d="M195 80H285" stroke="#1E1E21"/>
<path d="M195.684 87.8145L284.316 72.1861" stroke="#1E1E21"/>
<path d="M197.715 95.3906L282.287 64.6088" stroke="#1E1E21"/>
<path d="M201.031 102.5L278.974 57.5" stroke="#1E1E21"/>
<path d="M205.527 108.926L274.471 51.0749" stroke="#1E1E21"/>
<path d="M211.074 114.473L268.925 45.5287" stroke="#1E1E21"/>
<path d="M217.5 118.971L262.5 41.0284" stroke="#1E1E21"/>
<path d="M224.609 122.285L255.391 37.7128" stroke="#1E1E21"/>
<path d="M232.188 124.316L247.816 35.6837" stroke="#1E1E21"/>
<path d="M240 60C236.044 60 232.178 61.173 228.889 63.3706C225.6 65.5682 223.036 68.6918 221.522 72.3463C220.009 76.0008 219.613 80.0222 220.384 83.9018C221.156 87.7814 223.061 91.3451 225.858 94.1421C228.655 96.9392 232.219 98.844 236.098 99.6157C239.978 100.387 243.999 99.9913 247.654 98.4776C251.308 96.9638 254.432 94.4004 256.629 91.1114C258.827 87.8224 260 83.9556 260 80C260 74.6957 257.893 69.6086 254.142 65.8579C250.391 62.1071 245.304 60 240 60Z" fill="#1E1E21"/>
<circle cx="240" cy="144" r="6" fill="#1E1E21"/>
<path d="M176 80C176 96.9738 182.743 113.252 194.745 125.255C206.747 137.257 223.026 144 240 144" stroke="#1E1E21"/>
<circle cx="240" cy="162" r="6" fill="#1E1E21"/>
<path d="M158 80C158 101.748 166.639 122.605 182.017 137.983C197.395 153.361 218.252 162 240 162" stroke="#1E1E21"/>
<circle cx="240" cy="180" r="6" fill="#1E1E21"/>
<path d="M140 80C140 106.522 150.536 131.957 169.289 150.711C188.043 169.464 213.478 180 240 180" stroke="#1E1E21"/>
<circle cx="240" cy="198" r="6" fill="#1E1E21"/>
<path d="M122 80C122 111.296 134.432 141.309 156.561 163.439C178.691 185.568 208.704 198 240 198" stroke="#1E1E21"/>
<circle cx="240" cy="216" r="6" fill="#1E1E21"/>
<path d="M104 80C104 116.069 118.329 150.662 143.833 176.167C169.338 201.671 203.931 216 240 216" stroke="#1E1E21"/>
<circle cx="240" cy="234" r="6" fill="#1E1E21"/>
<path d="M86 80C86 120.843 102.225 160.014 131.106 188.894C159.986 217.775 199.157 234 240 234" stroke="#1E1E21"/>
<circle cx="240" cy="252" r="6" fill="#1E1E21"/>
<path d="M68 80C68 125.617 86.1214 169.366 118.378 201.622C150.634 233.879 194.383 252 240 252" stroke="#1E1E21"/>
<circle cx="240" cy="270" r="6" fill="#1E1E21"/>
<path d="M50 80C50 130.391 70.0178 178.718 105.65 214.35C141.282 249.982 189.609 270 240 270" stroke="#1E1E21"/>
<circle cx="240" cy="288" r="6" fill="#1E1E21"/>
<path d="M32 80C32 107.315 37.3801 134.362 47.8331 159.598C58.286 184.834 73.6072 207.764 92.9218 227.078C112.236 246.393 135.166 261.714 160.402 272.167C185.638 282.62 212.685 288 240 288" stroke="#1E1E21"/>
</g>
<defs>
<clipPath id="clip0_494_189286">
<rect width="320" height="320" rx="24" fill="white"/>
</clipPath>
</defs>
</svg>
