<svg width="320" height="320" viewBox="0 0 320 320" fill="none" xmlns="http://www.w3.org/2000/svg">
<g clip-path="url(#clip0_494_190000)">
<rect width="320" height="320" rx="24" fill="#343437"/>
<rect width="320" height="320" fill="#D69209"/>
<path d="M-32 22.5L16.0001 50L16 105" stroke="#262A33" stroke-width="2" stroke-linecap="round" stroke-linejoin="round" stroke-dasharray="4 8"/>
<path d="M64 22.5L16 50L16 105" stroke="#262A33" stroke-width="2" stroke-linecap="round" stroke-linejoin="round" stroke-dasharray="4 8"/>
<path d="M64 22.5L16 50L-32 22.5" stroke="#262A33" stroke-width="2" stroke-linecap="round" stroke-linejoin="round" stroke-dasharray="4 8"/>
<path d="M16 -5L64 22.5V77.5L16 105L-32 77.5V22.5L16 -5Z" stroke="#262A33" stroke-width="2" stroke-linecap="round" stroke-dasharray="4 8"/>
<circle cx="16" cy="-5.5" r="6" fill="#262A33"/>
<circle cx="16" cy="105" r="6" fill="#262A33"/>
<circle cx="16" cy="50" r="6" fill="#262A33"/>
<circle cx="64" cy="20.5" r="6" fill="#262A33"/>
<circle cx="64" cy="77.5" r="6" fill="#262A33"/>
<path d="M64 22.5L112 50L112 105" stroke="#262A33" stroke-width="2" stroke-linecap="round" stroke-linejoin="round" stroke-dasharray="4 8"/>
<path d="M160 22.5L112 50L112 105" stroke="#262A33" stroke-width="2" stroke-linecap="round" stroke-linejoin="round" stroke-dasharray="4 8"/>
<path d="M160 22.5L112 50L64 22.5" stroke="#262A33" stroke-width="2" stroke-linecap="round" stroke-linejoin="round" stroke-dasharray="4 8"/>
<path d="M112 -5L160 22.5V77.5L112 105L64 77.5V22.5L112 -5Z" stroke="#262A33" stroke-width="2" stroke-linecap="round" stroke-dasharray="4 8"/>
<circle cx="112" cy="-5.5" r="6" fill="#262A33"/>
<circle cx="112" cy="105" r="6" fill="#262A33"/>
<circle cx="112" cy="50" r="6" fill="#262A33"/>
<circle cx="160" cy="20.5" r="6" fill="#262A33"/>
<circle cx="160" cy="77.5" r="6" fill="#262A33"/>
<circle cx="64" cy="77.5" r="6" fill="#262A33"/>
<circle cx="64" cy="20.5" r="6" fill="#262A33"/>
<path d="M160 22.5L208 50L208 105" stroke="#262A33" stroke-width="2" stroke-linecap="round" stroke-linejoin="round" stroke-dasharray="4 8"/>
<path d="M256 22.5L208 50L208 105" stroke="#262A33" stroke-width="2" stroke-linecap="round" stroke-linejoin="round" stroke-dasharray="4 8"/>
<path d="M256 22.5L208 50L160 22.5" stroke="#262A33" stroke-width="2" stroke-linecap="round" stroke-linejoin="round" stroke-dasharray="4 8"/>
<path d="M208 -5L256 22.5V77.5L208 105L160 77.5V22.5L208 -5Z" stroke="#262A33" stroke-width="2" stroke-linecap="round" stroke-dasharray="4 8"/>
<circle cx="208" cy="-5.5" r="6" fill="#262A33"/>
<circle cx="208" cy="105" r="6" fill="#262A33"/>
<circle cx="208" cy="50" r="6" fill="#262A33"/>
<circle cx="256" cy="20.5" r="6" fill="#262A33"/>
<circle cx="256" cy="77.5" r="6" fill="#262A33"/>
<circle cx="160" cy="77.5" r="6" fill="#262A33"/>
<circle cx="160" cy="20.5" r="6" fill="#262A33"/>
<path d="M256 22.5L304 50L304 105" stroke="#262A33" stroke-width="2" stroke-linecap="round" stroke-linejoin="round" stroke-dasharray="4 8"/>
<path d="M352 22.5L304 50L304 105" stroke="#262A33" stroke-width="2" stroke-linecap="round" stroke-linejoin="round" stroke-dasharray="4 8"/>
<path d="M352 22.5L304 50L256 22.5" stroke="#262A33" stroke-width="2" stroke-linecap="round" stroke-linejoin="round" stroke-dasharray="4 8"/>
<path d="M304 -5L352 22.5V77.5L304 105L256 77.5V22.5L304 -5Z" stroke="#262A33" stroke-width="2" stroke-linecap="round" stroke-dasharray="4 8"/>
<circle cx="304" cy="-5.5" r="6" fill="#262A33"/>
<circle cx="304" cy="105" r="6" fill="#262A33"/>
<circle cx="304" cy="50" r="6" fill="#262A33"/>
<circle cx="256" cy="77.5" r="6" fill="#262A33"/>
<circle cx="256" cy="20.5" r="6" fill="#262A33"/>
<path d="M-32 132.5L16.0001 160L16 215" stroke="#262A33" stroke-width="2" stroke-linecap="round" stroke-linejoin="round" stroke-dasharray="4 8"/>
<path d="M64 132.5L16 160L16 215" stroke="#262A33" stroke-width="2" stroke-linecap="round" stroke-linejoin="round" stroke-dasharray="4 8"/>
<path d="M64 132.5L16 160L-32 132.5" stroke="#262A33" stroke-width="2" stroke-linecap="round" stroke-linejoin="round" stroke-dasharray="4 8"/>
<path d="M16 105L64 132.5V187.5L16 215L-32 187.5V132.5L16 105Z" stroke="#262A33" stroke-width="2" stroke-linecap="round" stroke-dasharray="4 8"/>
<circle cx="16" cy="104.5" r="6" fill="#262A33"/>
<circle cx="16" cy="215" r="6" fill="#262A33"/>
<circle cx="16" cy="160" r="6" fill="#262A33"/>
<circle cx="64" cy="130.5" r="6" fill="#262A33"/>
<circle cx="64" cy="187.5" r="6" fill="#262A33"/>
<path d="M64 132.5L112 160L112 215" stroke="#262A33" stroke-width="2" stroke-linecap="round" stroke-linejoin="round" stroke-dasharray="4 8"/>
<path d="M160 132.5L112 160L112 215" stroke="#262A33" stroke-width="2" stroke-linecap="round" stroke-linejoin="round" stroke-dasharray="4 8"/>
<path d="M160 132.5L112 160L64 132.5" stroke="#262A33" stroke-width="2" stroke-linecap="round" stroke-linejoin="round" stroke-dasharray="4 8"/>
<path d="M112 105L160 132.5V187.5L112 215L64 187.5V132.5L112 105Z" stroke="#262A33" stroke-width="2" stroke-linecap="round" stroke-dasharray="4 8"/>
<circle cx="112" cy="104.5" r="6" fill="#262A33"/>
<circle cx="112" cy="215" r="6" fill="#262A33"/>
<circle cx="112" cy="160" r="6" fill="#262A33"/>
<circle cx="160" cy="130.5" r="6" fill="#262A33"/>
<circle cx="160" cy="187.5" r="6" fill="#262A33"/>
<circle cx="64" cy="187.5" r="6" fill="#262A33"/>
<circle cx="64" cy="130.5" r="6" fill="#262A33"/>
<path d="M160 132.5L208 160L208 215" stroke="#262A33" stroke-width="2" stroke-linecap="round" stroke-linejoin="round" stroke-dasharray="4 8"/>
<path d="M256 132.5L208 160L208 215" stroke="#262A33" stroke-width="2" stroke-linecap="round" stroke-linejoin="round" stroke-dasharray="4 8"/>
<path d="M256 132.5L208 160L160 132.5" stroke="#262A33" stroke-width="2" stroke-linecap="round" stroke-linejoin="round" stroke-dasharray="4 8"/>
<path d="M208 105L256 132.5V187.5L208 215L160 187.5V132.5L208 105Z" stroke="#262A33" stroke-width="2" stroke-linecap="round" stroke-dasharray="4 8"/>
<circle cx="208" cy="104.5" r="6" fill="#262A33"/>
<circle cx="208" cy="215" r="6" fill="#262A33"/>
<circle cx="208" cy="160" r="6" fill="#262A33"/>
<circle cx="256" cy="130.5" r="6" fill="#262A33"/>
<circle cx="256" cy="187.5" r="6" fill="#262A33"/>
<circle cx="160" cy="187.5" r="6" fill="#262A33"/>
<circle cx="160" cy="130.5" r="6" fill="#262A33"/>
<path d="M256 132.5L304 160L304 215" stroke="#262A33" stroke-width="2" stroke-linecap="round" stroke-linejoin="round" stroke-dasharray="4 8"/>
<path d="M352 132.5L304 160L304 215" stroke="#262A33" stroke-width="2" stroke-linecap="round" stroke-linejoin="round" stroke-dasharray="4 8"/>
<path d="M352 132.5L304 160L256 132.5" stroke="#262A33" stroke-width="2" stroke-linecap="round" stroke-linejoin="round" stroke-dasharray="4 8"/>
<path d="M304 105L352 132.5V187.5L304 215L256 187.5V132.5L304 105Z" stroke="#262A33" stroke-width="2" stroke-linecap="round" stroke-dasharray="4 8"/>
<circle cx="304" cy="104.5" r="6" fill="#262A33"/>
<circle cx="304" cy="215" r="6" fill="#262A33"/>
<circle cx="304" cy="160" r="6" fill="#262A33"/>
<circle cx="256" cy="187.5" r="6" fill="#262A33"/>
<circle cx="256" cy="130.5" r="6" fill="#262A33"/>
<path d="M-32 242.5L16.0001 270L16 325" stroke="#262A33" stroke-width="2" stroke-linecap="round" stroke-linejoin="round" stroke-dasharray="4 8"/>
<path d="M64 242.5L16 270L16 325" stroke="#262A33" stroke-width="2" stroke-linecap="round" stroke-linejoin="round" stroke-dasharray="4 8"/>
<path d="M64 242.5L16 270L-32 242.5" stroke="#262A33" stroke-width="2" stroke-linecap="round" stroke-linejoin="round" stroke-dasharray="4 8"/>
<path d="M16 215L64 242.5V297.5L16 325L-32 297.5V242.5L16 215Z" stroke="#262A33" stroke-width="2" stroke-linecap="round" stroke-dasharray="4 8"/>
<circle cx="16" cy="214.5" r="6" fill="#262A33"/>
<circle cx="16" cy="325" r="6" fill="#262A33"/>
<circle cx="16" cy="270" r="6" fill="#262A33"/>
<circle cx="64" cy="240.5" r="6" fill="#262A33"/>
<circle cx="64" cy="297.5" r="6" fill="#262A33"/>
<path d="M64 242.5L112 270L112 325" stroke="#262A33" stroke-width="2" stroke-linecap="round" stroke-linejoin="round" stroke-dasharray="4 8"/>
<path d="M160 242.5L112 270L112 325" stroke="#262A33" stroke-width="2" stroke-linecap="round" stroke-linejoin="round" stroke-dasharray="4 8"/>
<path d="M160 242.5L112 270L64 242.5" stroke="#262A33" stroke-width="2" stroke-linecap="round" stroke-linejoin="round" stroke-dasharray="4 8"/>
<path d="M112 215L160 242.5V297.5L112 325L64 297.5V242.5L112 215Z" stroke="#262A33" stroke-width="2" stroke-linecap="round" stroke-dasharray="4 8"/>
<circle cx="112" cy="214.5" r="6" fill="#262A33"/>
<circle cx="112" cy="325" r="6" fill="#262A33"/>
<circle cx="112" cy="270" r="6" fill="#262A33"/>
<circle cx="160" cy="240.5" r="6" fill="#262A33"/>
<circle cx="160" cy="297.5" r="6" fill="#262A33"/>
<circle cx="64" cy="297.5" r="6" fill="#262A33"/>
<circle cx="64" cy="240.5" r="6" fill="#262A33"/>
<path d="M160 242.5L208 270L208 325" stroke="#262A33" stroke-width="2" stroke-linecap="round" stroke-linejoin="round" stroke-dasharray="4 8"/>
<path d="M256 242.5L208 270L208 325" stroke="#262A33" stroke-width="2" stroke-linecap="round" stroke-linejoin="round" stroke-dasharray="4 8"/>
<path d="M256 242.5L208 270L160 242.5" stroke="#262A33" stroke-width="2" stroke-linecap="round" stroke-linejoin="round" stroke-dasharray="4 8"/>
<path d="M208 215L256 242.5V297.5L208 325L160 297.5V242.5L208 215Z" stroke="#262A33" stroke-width="2" stroke-linecap="round" stroke-dasharray="4 8"/>
<circle cx="208" cy="214.5" r="6" fill="#262A33"/>
<circle cx="208" cy="325" r="6" fill="#262A33"/>
<circle cx="208" cy="270" r="6" fill="#262A33"/>
<circle cx="256" cy="240.5" r="6" fill="#262A33"/>
<circle cx="256" cy="297.5" r="6" fill="#262A33"/>
<circle cx="160" cy="297.5" r="6" fill="#262A33"/>
<circle cx="160" cy="240.5" r="6" fill="#262A33"/>
<path d="M256 242.5L304 270L304 325" stroke="#262A33" stroke-width="2" stroke-linecap="round" stroke-linejoin="round" stroke-dasharray="4 8"/>
<path d="M352 242.5L304 270L304 325" stroke="#262A33" stroke-width="2" stroke-linecap="round" stroke-linejoin="round" stroke-dasharray="4 8"/>
<path d="M352 242.5L304 270L256 242.5" stroke="#262A33" stroke-width="2" stroke-linecap="round" stroke-linejoin="round" stroke-dasharray="4 8"/>
<path d="M304 215L352 242.5V297.5L304 325L256 297.5V242.5L304 215Z" stroke="#262A33" stroke-width="2" stroke-linecap="round" stroke-dasharray="4 8"/>
<circle cx="304" cy="214.5" r="6" fill="#262A33"/>
<circle cx="304" cy="325" r="6" fill="#262A33"/>
<circle cx="304" cy="270" r="6" fill="#262A33"/>
<circle cx="256" cy="297.5" r="6" fill="#262A33"/>
<circle cx="256" cy="240.5" r="6" fill="#262A33"/>
</g>
<defs>
<clipPath id="clip0_494_190000">
<rect width="320" height="320" rx="24" fill="white"/>
</clipPath>
</defs>
</svg>
