<svg width="320" height="320" viewBox="0 0 320 320" fill="none" xmlns="http://www.w3.org/2000/svg">
<rect width="320" height="320" rx="24" fill="white" fill-opacity="0.04"/>
<path d="M160 48C124.654 48 96 77.2077 96 113.239C98.1004 115.383 100.595 117.083 103.34 118.243C106.085 119.403 109.028 120 112 120C114.972 120 117.915 119.403 120.66 118.243C123.405 117.083 125.9 115.383 128 113.239C130.1 111.096 132.594 109.395 135.34 108.235C138.085 107.075 141.028 106.477 144 106.477C146.972 106.477 149.915 107.075 152.66 108.235C155.406 109.395 157.9 111.096 160 113.239C162.1 115.383 164.595 117.083 167.34 118.243C170.085 119.403 173.028 120 176 120C178.972 120 181.915 119.403 184.66 118.243C187.405 117.083 189.9 115.383 192 113.239C194.1 111.096 196.594 109.395 199.34 108.235C202.085 107.075 205.028 106.477 208 106.477C210.972 106.477 213.915 107.075 216.66 108.235C219.406 109.395 221.9 111.096 224 113.239C224 77.2077 195.346 48 160 48Z" fill="#FFCC00"/>
<path d="M96 137.001L95.0578 138.041L95.0579 138.041L96 137.001ZM128 137.001L128.942 138.041L128.942 138.041L128 137.001ZM160 137.001L159.058 138.041L159.058 138.041L160 137.001ZM192 137.001L192.942 138.041L192.942 138.041L192 137.001ZM224 137.001L223.058 138.041L223.058 138.041L224 137.001ZM256.942 138.041L257.982 137.099L256.098 135.018L255.058 135.96L256 137.001L256.942 138.041ZM64 137.001L64.9422 138.041C66.9066 136.262 69.247 134.843 71.8325 133.874L71.3397 132.56L70.8468 131.246C67.9416 132.335 65.2937 133.935 63.0578 135.96L64 137.001ZM71.3397 132.56L71.8325 133.874C74.4182 132.904 77.194 132.404 80 132.404V131V129.596C76.862 129.596 73.752 130.156 70.8468 131.246L71.3397 132.56ZM80 131V132.404C82.806 132.404 85.5818 132.904 88.1675 133.874L88.6603 132.56L89.1532 131.246C86.248 130.156 83.138 129.596 80 129.596V131ZM88.6603 132.56L88.1675 133.874C90.753 134.843 93.0934 136.262 95.0578 138.041L96 137.001L96.9422 135.96C94.7063 133.935 92.0584 132.335 89.1532 131.246L88.6603 132.56ZM96 137.001L95.0579 138.041C97.2941 140.066 99.9419 141.666 102.847 142.755L103.34 141.441L103.833 140.127C101.247 139.157 98.9067 137.739 96.9421 135.96L96 137.001ZM103.34 141.441L102.847 142.755C105.752 143.844 108.862 144.404 112 144.404V143V141.596C109.194 141.596 106.418 141.096 103.833 140.127L103.34 141.441ZM112 143V144.404C115.138 144.404 118.248 143.844 121.153 142.755L120.66 141.441L120.167 140.127C117.582 141.096 114.806 141.596 112 141.596V143ZM120.66 141.441L121.153 142.755C124.058 141.666 126.706 140.066 128.942 138.041L128 137.001L127.058 135.96C125.093 137.739 122.753 139.157 120.167 140.127L120.66 141.441ZM128 137.001L128.942 138.041C130.907 136.262 133.247 134.843 135.833 133.874L135.34 132.56L134.847 131.246C131.942 132.335 129.294 133.935 127.058 135.96L128 137.001ZM135.34 132.56L135.833 133.874C138.418 132.904 141.194 132.404 144 132.404V131V129.596C140.862 129.596 137.752 130.156 134.847 131.246L135.34 132.56ZM144 131V132.404C146.806 132.404 149.582 132.904 152.167 133.874L152.66 132.56L153.153 131.246C150.248 130.156 147.138 129.596 144 129.596V131ZM152.66 132.56L152.167 133.874C154.753 134.843 157.093 136.262 159.058 138.041L160 137.001L160.942 135.96C158.706 133.935 156.058 132.335 153.153 131.246L152.66 132.56ZM160 137.001L159.058 138.041C161.294 140.066 163.942 141.666 166.847 142.755L167.34 141.441L167.833 140.127C165.247 139.157 162.907 137.739 160.942 135.96L160 137.001ZM167.34 141.441L166.847 142.755C169.752 143.844 172.862 144.404 176 144.404V143V141.596C173.194 141.596 170.418 141.096 167.833 140.127L167.34 141.441ZM176 143V144.404C179.138 144.404 182.248 143.844 185.153 142.755L184.66 141.441L184.167 140.127C181.582 141.096 178.806 141.596 176 141.596V143ZM184.66 141.441L185.153 142.755C188.058 141.666 190.706 140.066 192.942 138.041L192 137.001L191.058 135.96C189.093 137.739 186.753 139.157 184.167 140.127L184.66 141.441ZM192 137.001L192.942 138.041C194.907 136.262 197.247 134.843 199.833 133.874L199.34 132.56L198.847 131.246C195.942 132.335 193.294 133.935 191.058 135.96L192 137.001ZM199.34 132.56L199.833 133.874C202.418 132.904 205.194 132.404 208 132.404V131V129.596C204.862 129.596 201.752 130.156 198.847 131.246L199.34 132.56ZM208 131V132.404C210.806 132.404 213.582 132.904 216.167 133.874L216.66 132.56L217.153 131.246C214.248 130.156 211.138 129.596 208 129.596V131ZM216.66 132.56L216.167 133.874C218.753 134.843 221.093 136.262 223.058 138.041L224 137.001L224.942 135.96C222.706 133.935 220.058 132.335 217.153 131.246L216.66 132.56ZM224 137.001L223.058 138.041C225.294 140.066 227.942 141.666 230.847 142.755L231.34 141.441L231.833 140.127C229.247 139.157 226.907 137.739 224.942 135.96L224 137.001ZM231.34 141.441L230.847 142.755C233.752 143.844 236.862 144.404 240 144.404V143V141.596C237.194 141.596 234.418 141.096 231.833 140.127L231.34 141.441ZM240 143V144.404C243.138 144.404 246.248 143.844 249.153 142.755L248.66 141.441L248.167 140.127C245.582 141.096 242.806 141.596 240 141.596V143ZM248.66 141.441L249.153 142.755C252.058 141.666 254.706 140.066 256.942 138.041L256 137.001L255.058 135.96C253.093 137.739 250.753 139.157 248.167 140.127L248.66 141.441Z" fill="#FFCC00"/>
<path d="M96 160.001L95.0578 161.041L95.0579 161.041L96 160.001ZM128 160.001L128.942 161.041L128.942 161.041L128 160.001ZM160 160.001L159.058 161.041L159.058 161.041L160 160.001ZM192 160.001L192.942 161.041L192.942 161.041L192 160.001ZM224 160.001L223.058 161.041L223.058 161.041L224 160.001ZM256.942 161.041L257.982 160.099L256.098 158.018L255.058 158.96L256 160.001L256.942 161.041ZM64 160.001L64.9422 161.041C66.9066 159.262 69.247 157.843 71.8325 156.874L71.3397 155.56L70.8468 154.246C67.9416 155.335 65.2937 156.935 63.0578 158.96L64 160.001ZM71.3397 155.56L71.8325 156.874C74.4182 155.904 77.194 155.404 80 155.404V154V152.596C76.862 152.596 73.752 153.156 70.8468 154.246L71.3397 155.56ZM80 154V155.404C82.806 155.404 85.5818 155.904 88.1675 156.874L88.6603 155.56L89.1532 154.246C86.248 153.156 83.138 152.596 80 152.596V154ZM88.6603 155.56L88.1675 156.874C90.753 157.843 93.0934 159.262 95.0578 161.041L96 160.001L96.9422 158.96C94.7063 156.935 92.0584 155.335 89.1532 154.246L88.6603 155.56ZM96 160.001L95.0579 161.041C97.2941 163.066 99.9419 164.666 102.847 165.755L103.34 164.441L103.833 163.127C101.247 162.157 98.9067 160.739 96.9421 158.96L96 160.001ZM103.34 164.441L102.847 165.755C105.752 166.844 108.862 167.404 112 167.404V166V164.596C109.194 164.596 106.418 164.096 103.833 163.127L103.34 164.441ZM112 166V167.404C115.138 167.404 118.248 166.844 121.153 165.755L120.66 164.441L120.167 163.127C117.582 164.096 114.806 164.596 112 164.596V166ZM120.66 164.441L121.153 165.755C124.058 164.666 126.706 163.066 128.942 161.041L128 160.001L127.058 158.96C125.093 160.739 122.753 162.157 120.167 163.127L120.66 164.441ZM128 160.001L128.942 161.041C130.907 159.262 133.247 157.843 135.833 156.874L135.34 155.56L134.847 154.246C131.942 155.335 129.294 156.935 127.058 158.96L128 160.001ZM135.34 155.56L135.833 156.874C138.418 155.904 141.194 155.404 144 155.404V154V152.596C140.862 152.596 137.752 153.156 134.847 154.246L135.34 155.56ZM144 154V155.404C146.806 155.404 149.582 155.904 152.167 156.874L152.66 155.56L153.153 154.246C150.248 153.156 147.138 152.596 144 152.596V154ZM152.66 155.56L152.167 156.874C154.753 157.843 157.093 159.262 159.058 161.041L160 160.001L160.942 158.96C158.706 156.935 156.058 155.335 153.153 154.246L152.66 155.56ZM160 160.001L159.058 161.041C161.294 163.066 163.942 164.666 166.847 165.755L167.34 164.441L167.833 163.127C165.247 162.157 162.907 160.739 160.942 158.96L160 160.001ZM167.34 164.441L166.847 165.755C169.752 166.844 172.862 167.404 176 167.404V166V164.596C173.194 164.596 170.418 164.096 167.833 163.127L167.34 164.441ZM176 166V167.404C179.138 167.404 182.248 166.844 185.153 165.755L184.66 164.441L184.167 163.127C181.582 164.096 178.806 164.596 176 164.596V166ZM184.66 164.441L185.153 165.755C188.058 164.666 190.706 163.066 192.942 161.041L192 160.001L191.058 158.96C189.093 160.739 186.753 162.157 184.167 163.127L184.66 164.441ZM192 160.001L192.942 161.041C194.907 159.262 197.247 157.843 199.833 156.874L199.34 155.56L198.847 154.246C195.942 155.335 193.294 156.935 191.058 158.96L192 160.001ZM199.34 155.56L199.833 156.874C202.418 155.904 205.194 155.404 208 155.404V154V152.596C204.862 152.596 201.752 153.156 198.847 154.246L199.34 155.56ZM208 154V155.404C210.806 155.404 213.582 155.904 216.167 156.874L216.66 155.56L217.153 154.246C214.248 153.156 211.138 152.596 208 152.596V154ZM216.66 155.56L216.167 156.874C218.753 157.843 221.093 159.262 223.058 161.041L224 160.001L224.942 158.96C222.706 156.935 220.058 155.335 217.153 154.246L216.66 155.56ZM224 160.001L223.058 161.041C225.294 163.066 227.942 164.666 230.847 165.755L231.34 164.441L231.833 163.127C229.247 162.157 226.907 160.739 224.942 158.96L224 160.001ZM231.34 164.441L230.847 165.755C233.752 166.844 236.862 167.404 240 167.404V166V164.596C237.194 164.596 234.418 164.096 231.833 163.127L231.34 164.441ZM240 166V167.404C243.138 167.404 246.248 166.844 249.153 165.755L248.66 164.441L248.167 163.127C245.582 164.096 242.806 164.596 240 164.596V166ZM248.66 164.441L249.153 165.755C252.058 164.666 254.706 163.066 256.942 161.041L256 160.001L255.058 158.96C253.093 160.739 250.753 162.157 248.167 163.127L248.66 164.441Z" fill="#FFCC00"/>
<path d="M96 183.001L95.0578 184.041L95.0579 184.041L96 183.001ZM128 183.001L128.942 184.041L128.942 184.041L128 183.001ZM160 183.001L159.058 184.041L159.058 184.041L160 183.001ZM192 183.001L192.942 184.041L192.942 184.041L192 183.001ZM224 183.001L223.058 184.041L223.058 184.041L224 183.001ZM256.942 184.041L257.982 183.099L256.098 181.018L255.058 181.96L256 183.001L256.942 184.041ZM64 183.001L64.9422 184.041C66.9066 182.262 69.247 180.843 71.8325 179.874L71.3397 178.56L70.8468 177.246C67.9416 178.335 65.2937 179.935 63.0578 181.96L64 183.001ZM71.3397 178.56L71.8325 179.874C74.4182 178.904 77.194 178.404 80 178.404V177V175.596C76.862 175.596 73.752 176.156 70.8468 177.246L71.3397 178.56ZM80 177V178.404C82.806 178.404 85.5818 178.904 88.1675 179.874L88.6603 178.56L89.1532 177.246C86.248 176.156 83.138 175.596 80 175.596V177ZM88.6603 178.56L88.1675 179.874C90.753 180.843 93.0934 182.262 95.0578 184.041L96 183.001L96.9422 181.96C94.7063 179.935 92.0584 178.335 89.1532 177.246L88.6603 178.56ZM96 183.001L95.0579 184.041C97.2941 186.066 99.9419 187.666 102.847 188.755L103.34 187.441L103.833 186.127C101.247 185.157 98.9067 183.739 96.9421 181.96L96 183.001ZM103.34 187.441L102.847 188.755C105.752 189.844 108.862 190.404 112 190.404V189V187.596C109.194 187.596 106.418 187.096 103.833 186.127L103.34 187.441ZM112 189V190.404C115.138 190.404 118.248 189.844 121.153 188.755L120.66 187.441L120.167 186.127C117.582 187.096 114.806 187.596 112 187.596V189ZM120.66 187.441L121.153 188.755C124.058 187.666 126.706 186.066 128.942 184.041L128 183.001L127.058 181.96C125.093 183.739 122.753 185.157 120.167 186.127L120.66 187.441ZM128 183.001L128.942 184.041C130.907 182.262 133.247 180.843 135.833 179.874L135.34 178.56L134.847 177.246C131.942 178.335 129.294 179.935 127.058 181.96L128 183.001ZM135.34 178.56L135.833 179.874C138.418 178.904 141.194 178.404 144 178.404V177V175.596C140.862 175.596 137.752 176.156 134.847 177.246L135.34 178.56ZM144 177V178.404C146.806 178.404 149.582 178.904 152.167 179.874L152.66 178.56L153.153 177.246C150.248 176.156 147.138 175.596 144 175.596V177ZM152.66 178.56L152.167 179.874C154.753 180.843 157.093 182.262 159.058 184.041L160 183.001L160.942 181.96C158.706 179.935 156.058 178.335 153.153 177.246L152.66 178.56ZM160 183.001L159.058 184.041C161.294 186.066 163.942 187.666 166.847 188.755L167.34 187.441L167.833 186.127C165.247 185.157 162.907 183.739 160.942 181.96L160 183.001ZM167.34 187.441L166.847 188.755C169.752 189.844 172.862 190.404 176 190.404V189V187.596C173.194 187.596 170.418 187.096 167.833 186.127L167.34 187.441ZM176 189V190.404C179.138 190.404 182.248 189.844 185.153 188.755L184.66 187.441L184.167 186.127C181.582 187.096 178.806 187.596 176 187.596V189ZM184.66 187.441L185.153 188.755C188.058 187.666 190.706 186.066 192.942 184.041L192 183.001L191.058 181.96C189.093 183.739 186.753 185.157 184.167 186.127L184.66 187.441ZM192 183.001L192.942 184.041C194.907 182.262 197.247 180.843 199.833 179.874L199.34 178.56L198.847 177.246C195.942 178.335 193.294 179.935 191.058 181.96L192 183.001ZM199.34 178.56L199.833 179.874C202.418 178.904 205.194 178.404 208 178.404V177V175.596C204.862 175.596 201.752 176.156 198.847 177.246L199.34 178.56ZM208 177V178.404C210.806 178.404 213.582 178.904 216.167 179.874L216.66 178.56L217.153 177.246C214.248 176.156 211.138 175.596 208 175.596V177ZM216.66 178.56L216.167 179.874C218.753 180.843 221.093 182.262 223.058 184.041L224 183.001L224.942 181.96C222.706 179.935 220.058 178.335 217.153 177.246L216.66 178.56ZM224 183.001L223.058 184.041C225.294 186.066 227.942 187.666 230.847 188.755L231.34 187.441L231.833 186.127C229.247 185.157 226.907 183.739 224.942 181.96L224 183.001ZM231.34 187.441L230.847 188.755C233.752 189.844 236.862 190.404 240 190.404V189V187.596C237.194 187.596 234.418 187.096 231.833 186.127L231.34 187.441ZM240 189V190.404C243.138 190.404 246.248 189.844 249.153 188.755L248.66 187.441L248.167 186.127C245.582 187.096 242.806 187.596 240 187.596V189ZM248.66 187.441L249.153 188.755C252.058 187.666 254.706 186.066 256.942 184.041L256 183.001L255.058 181.96C253.093 183.739 250.753 185.157 248.167 186.127L248.66 187.441Z" fill="#FFCC00"/>
<path d="M192 206.761C189.9 208.904 187.405 210.604 184.66 211.764C181.915 212.924 178.972 213.521 176 213.521C173.028 213.521 170.085 212.924 167.34 211.764C164.595 210.604 162.1 208.904 160 206.761C157.9 204.617 155.405 202.917 152.66 201.757C149.915 200.597 146.972 200 144 200C141.028 200 138.085 200.597 135.34 201.757C132.595 202.917 130.1 204.617 128 206.761C125.9 208.904 123.405 210.604 120.66 211.764C117.915 212.924 114.972 213.521 112 213.521C109.028 213.521 106.085 212.924 103.34 211.764C100.595 210.604 98.1004 208.904 96 206.761C96 242.791 124.654 272 160 272C195.346 272 224 242.791 224 206.761C221.9 204.617 219.405 202.917 216.66 201.757C213.915 200.597 210.972 200 208 200C205.028 200 202.085 200.597 199.34 201.757C196.595 202.917 194.1 204.617 192 206.761V206.761Z" fill="#FFCC00"/>
</svg>
