<svg width="320" height="320" viewBox="0 0 320 320" fill="none" xmlns="http://www.w3.org/2000/svg">
<rect width="320" height="320" rx="24" fill="#F5BB1D"/>
<rect x="100.367" y="81.1914" width="12.0471" height="24.0941" rx="6.02353" transform="rotate(90 100.367 81.1914)" fill="#FCFBF8" stroke="#262A33" stroke-width="3.01176"/>
<path d="M88.3203 69.1445L88.3203 81.1916" stroke="#262A33" stroke-width="3.01176"/>
<rect x="144.641" y="32" width="37.1451" height="112.64" rx="18.5725" transform="rotate(90 144.641 32)" stroke="#262A33" stroke-width="3.01176"/>
<rect x="172.047" y="81.1914" width="12.0471" height="24.0941" rx="6.02353" transform="rotate(90 172.047 81.1914)" fill="#FCFBF8" stroke="#262A33" stroke-width="3.01176"/>
<path d="M160 69.1445L160 81.1916" stroke="#262A33" stroke-width="3.01176"/>
<rect x="216.32" y="32" width="37.1451" height="112.64" rx="18.5725" transform="rotate(90 216.32 32)" stroke="#262A33" stroke-width="3.01176"/>
<rect x="243.727" y="81.1914" width="12.0471" height="24.0941" rx="6.02353" transform="rotate(90 243.727 81.1914)" fill="#FCFBF8" stroke="#262A33" stroke-width="3.01176"/>
<path d="M231.68 69.1445L231.68 81.1916" stroke="#262A33" stroke-width="3.01176"/>
<rect x="288" y="32" width="37.1451" height="112.64" rx="18.5725" transform="rotate(90 288 32)" stroke="#262A33" stroke-width="3.01176"/>
<rect width="12.0471" height="93.3647" rx="6.02353" transform="matrix(-1.45705e-08 -1 -1 1.31134e-07 125.363 105.285)" stroke="#262A33" stroke-width="3.01176"/>
<rect width="12.0471" height="93.3647" rx="6.02353" transform="matrix(-1.45705e-08 -1 -1 1.31134e-07 206.684 105.285)" stroke="#262A33" stroke-width="3.01176"/>
<rect width="12.0471" height="93.3647" rx="6.02353" transform="matrix(-1.45705e-08 -1 -1 1.31134e-07 288 105.285)" stroke="#262A33" stroke-width="3.01176"/>
<rect width="12.0471" height="73.0353" rx="6.02353" transform="matrix(-1.45705e-08 -1 -1 1.31134e-07 105.035 117.332)" stroke="#262A33" stroke-width="3.01176"/>
<rect width="12.0471" height="73.0353" rx="6.02353" transform="matrix(-1.45705e-08 -1 -1 1.31134e-07 166.023 117.332)" stroke="#262A33" stroke-width="3.01176"/>
<rect width="12.0471" height="73.0353" rx="6.02353" transform="matrix(-1.45705e-08 -1 -1 1.31134e-07 227.012 117.332)" stroke="#262A33" stroke-width="3.01176"/>
<rect width="12.0471" height="73.0353" rx="6.02353" transform="matrix(-1.45705e-08 -1 -1 1.31134e-07 288 117.332)" stroke="#262A33" stroke-width="3.01176"/>
<rect width="12.0471" height="93.3647" rx="6.02353" transform="matrix(-1.45705e-08 -1 -1 1.31134e-07 125.363 129.379)" stroke="#262A33" stroke-width="3.01176"/>
<rect width="12.0471" height="93.3647" rx="6.02353" transform="matrix(-1.45705e-08 -1 -1 1.31134e-07 206.684 129.379)" stroke="#262A33" stroke-width="3.01176"/>
<rect width="12.0471" height="93.3647" rx="6.02353" transform="matrix(-1.45705e-08 -1 -1 1.31134e-07 288 129.379)" stroke="#262A33" stroke-width="3.01176"/>
<rect width="12.0471" height="24.0941" rx="6.02353" transform="matrix(-1.45705e-08 -1 -1 1.31134e-07 100.367 141.428)" fill="#FCFBF8" stroke="#262A33" stroke-width="3.01176"/>
<path d="M88.3203 147.451L88.3203 141.428" stroke="#262A33" stroke-width="3.01176"/>
<rect width="25.098" height="112.64" rx="12.549" transform="matrix(-1.45705e-08 -1 -1 1.31134e-07 144.641 172.549)" stroke="#262A33" stroke-width="3.01176"/>
<path d="M88.3203 178.572L88.3203 172.549" stroke="#262A33" stroke-width="3.01176"/>
<rect width="12.0471" height="24.0941" rx="6.02353" transform="matrix(-1.45705e-08 -1 -1 1.31134e-07 100.367 190.619)" fill="#FCFBF8" stroke="#262A33" stroke-width="3.01176"/>
<rect width="12.0471" height="24.0941" rx="6.02353" transform="matrix(-1.45705e-08 -1 -1 1.31134e-07 172.047 141.428)" fill="#FCFBF8" stroke="#262A33" stroke-width="3.01176"/>
<path d="M160 147.451L160 141.428" stroke="#262A33" stroke-width="3.01176"/>
<rect width="25.098" height="112.64" rx="12.549" transform="matrix(-1.45705e-08 -1 -1 1.31134e-07 216.32 172.549)" stroke="#262A33" stroke-width="3.01176"/>
<path d="M160 178.572L160 172.549" stroke="#262A33" stroke-width="3.01176"/>
<rect width="12.0471" height="24.0941" rx="6.02353" transform="matrix(-1.45705e-08 -1 -1 1.31134e-07 172.047 190.619)" fill="#FCFBF8" stroke="#262A33" stroke-width="3.01176"/>
<rect width="12.0471" height="24.0941" rx="6.02353" transform="matrix(-1.45705e-08 -1 -1 1.31134e-07 243.727 141.428)" fill="#FCFBF8" stroke="#262A33" stroke-width="3.01176"/>
<path d="M231.68 147.451L231.68 141.428" stroke="#262A33" stroke-width="3.01176"/>
<rect width="25.098" height="112.64" rx="12.549" transform="matrix(-1.45705e-08 -1 -1 1.31134e-07 288 172.549)" stroke="#262A33" stroke-width="3.01176"/>
<path d="M231.68 178.572L231.68 172.549" stroke="#262A33" stroke-width="3.01176"/>
<rect width="12.0471" height="24.0941" rx="6.02353" transform="matrix(-1.45705e-08 -1 -1 1.31134e-07 243.727 190.619)" fill="#FCFBF8" stroke="#262A33" stroke-width="3.01176"/>
<rect width="12.0471" height="93.3647" rx="6.02353" transform="matrix(-1.45705e-08 -1 -1 1.31134e-07 125.363 202.666)" stroke="#262A33" stroke-width="3.01176"/>
<rect width="12.0471" height="93.3647" rx="6.02353" transform="matrix(-1.45705e-08 -1 -1 1.31134e-07 206.684 202.666)" stroke="#262A33" stroke-width="3.01176"/>
<rect width="12.0471" height="93.3647" rx="6.02353" transform="matrix(-1.45705e-08 -1 -1 1.31134e-07 288 202.666)" stroke="#262A33" stroke-width="3.01176"/>
<rect width="12.0471" height="73.0353" rx="6.02353" transform="matrix(-1.45705e-08 -1 -1 1.31134e-07 105.035 214.713)" stroke="#262A33" stroke-width="3.01176"/>
<rect width="12.0471" height="73.0353" rx="6.02353" transform="matrix(-1.45705e-08 -1 -1 1.31134e-07 166.023 214.713)" stroke="#262A33" stroke-width="3.01176"/>
<rect width="12.0471" height="73.0353" rx="6.02353" transform="matrix(-1.45705e-08 -1 -1 1.31134e-07 227.012 214.713)" stroke="#262A33" stroke-width="3.01176"/>
<rect width="12.0471" height="73.0353" rx="6.02353" transform="matrix(-1.45705e-08 -1 -1 1.31134e-07 288 214.713)" stroke="#262A33" stroke-width="3.01176"/>
<rect width="12.0471" height="93.3647" rx="6.02353" transform="matrix(-1.45705e-08 -1 -1 1.31134e-07 125.363 226.76)" stroke="#262A33" stroke-width="3.01176"/>
<rect width="12.0471" height="93.3647" rx="6.02353" transform="matrix(-1.45705e-08 -1 -1 1.31134e-07 206.684 226.76)" stroke="#262A33" stroke-width="3.01176"/>
<rect width="12.0471" height="93.3647" rx="6.02353" transform="matrix(-1.45705e-08 -1 -1 1.31134e-07 288 226.76)" stroke="#262A33" stroke-width="3.01176"/>
<rect width="12.0471" height="24.0941" rx="6.02353" transform="matrix(-1.45705e-08 -1 -1 1.31134e-07 100.367 238.809)" fill="#FCFBF8" stroke="#262A33" stroke-width="3.01176"/>
<path d="M88.3203 250.855L88.3203 238.808" stroke="#262A33" stroke-width="3.01176"/>
<rect width="37.1451" height="112.64" rx="18.5725" transform="matrix(-1.45705e-08 -1 -1 1.31134e-07 144.641 288)" stroke="#262A33" stroke-width="3.01176"/>
<rect width="12.0471" height="24.0941" rx="6.02353" transform="matrix(-1.45705e-08 -1 -1 1.31134e-07 172.047 238.809)" fill="#FCFBF8" stroke="#262A33" stroke-width="3.01176"/>
<path d="M160 250.855L160 238.808" stroke="#262A33" stroke-width="3.01176"/>
<rect width="37.1451" height="112.64" rx="18.5725" transform="matrix(-1.45705e-08 -1 -1 1.31134e-07 216.32 288)" stroke="#262A33" stroke-width="3.01176"/>
<rect width="12.0471" height="24.0941" rx="6.02353" transform="matrix(-1.45705e-08 -1 -1 1.31134e-07 243.727 238.809)" fill="#FCFBF8" stroke="#262A33" stroke-width="3.01176"/>
<path d="M231.68 250.855L231.68 238.808" stroke="#262A33" stroke-width="3.01176"/>
<rect width="37.1451" height="112.64" rx="18.5725" transform="matrix(-1.45705e-08 -1 -1 1.31134e-07 288 288)" stroke="#262A33" stroke-width="3.01176"/>
</svg>
