<svg width="320" height="320" viewBox="0 0 320 320" fill="none" xmlns="http://www.w3.org/2000/svg">
<g clip-path="url(#clip0_494_188536)">
<rect width="320" height="320" rx="24" fill="white" fill-opacity="0.04"/>
<g clip-path="url(#clip1_494_188536)">
<path d="M272 32C280.837 32 288 39.1634 288 48V272C288 280.837 280.837 288 272 288H48C39.1634 288 32 280.837 32 272V48C32 39.1634 39.1634 32 48 32H272ZM160.077 63.125C159.509 63.1162 158.882 63.3105 158.295 63.4717C153.695 64.7311 153.602 69.8938 153.715 70.333C154.186 72.1761 155.593 73.6829 156.01 74.21C157.317 75.8644 156.604 76.7209 156.801 78.8291C156.823 79.0658 156.587 86.5175 156.763 87.8477C156.883 88.7556 156.657 92.8131 156.74 93.4551C156.835 94.1768 156.692 95.8455 155.991 96.0557C155.389 96.2365 154.767 96.44 154.129 96.3652C152.915 96.2239 153.185 96.5657 152.182 96.3496C151.306 96.1605 150.896 96.4419 150.36 96.4004C148.993 96.293 147.618 96.5391 146.252 96.293C145.626 96.1801 145.072 96.4826 144.7 96.3936C143.843 96.1868 142.986 96.4146 142.13 96.3711C140.538 96.2895 138.938 96.7425 137.341 96.3223C137.072 96.2515 136.759 96.3617 136.465 96.376C135.494 96.4236 133.83 95.1161 133.167 94.4971C131.976 93.3844 130.033 93.5779 129.346 93.3623C128.911 93.2265 128.934 93.4185 127.846 93.6904C126.507 94.0264 125.379 95.2891 124.39 96.6826C123.401 98.0762 123.424 99.5597 123.696 101.104C123.757 101.453 123.762 101.836 123.979 102.146C126.822 106.205 126.551 104.76 126.511 108.127C126.503 108.83 126.334 109.53 126.407 110.22C126.498 111.065 126.57 114.861 126.615 115.289C126.68 115.841 126.542 116.398 126.228 116.856C125.913 117.315 125.443 117.644 124.904 117.782C124.751 117.822 124.6 117.871 124.45 117.924C123.442 118.273 122.375 118.339 121.336 118.535C119.216 118.934 119.554 119.357 118.004 119.377C116.725 119.394 116.475 119.888 115.329 120.067C114.587 120.184 113.072 120.962 111.21 121.347C109.921 121.611 108.675 122.051 107.506 122.653C106.414 123.218 105.223 123.518 104.078 123.935C101.892 124.727 98.8787 121.895 94.5605 126.043C94.2885 126.309 94.4512 126.626 93.8799 127.276C93.4515 127.763 93.5884 128.839 93.2559 129.614C93.1532 129.854 93.2902 130.054 93.5146 131.074C94.0282 133.405 95.0246 133.739 95.7197 134.969C95.9265 135.335 95.9517 135.753 96.1523 136.106C96.6262 136.943 96.0833 137.264 96.2783 138.358C96.4089 139.091 96.2609 139.849 96.4404 140.584C96.486 140.765 96.081 141.209 96.3496 142.043C96.3849 142.148 96.4152 142.276 96.3848 142.375C95.8026 144.253 96.9985 146.212 94.5195 146.716C91.5899 147.312 90.1165 148.14 89.8096 148.178C87.8867 148.41 86.0675 149.639 85.0391 149.65C84.7937 149.653 84.5556 149.761 84.334 149.883C83.5947 150.29 83.1542 149.954 81.5049 150.927C81.1804 151.118 76.8379 152.668 76.8311 152.672C75.2226 153.326 73.3412 154.869 71.7178 154.162C70.1214 153.465 66.5179 154.298 66.1406 154.774C65.6809 155.352 64.2788 155.895 63.8135 157.087C63.3714 158.215 63.0716 159.364 63.1328 160.588C63.1617 161.167 64.0251 163.822 64.9873 164.499C65.7265 165.019 66.4201 165.608 67.3496 165.772C67.6489 165.826 67.9414 166.319 68.8848 166.205C70.2471 166.038 71.9536 165.759 73.1221 164.845C73.2915 164.712 73.68 164.77 73.9805 164.227C74.8096 162.73 78.041 163.557 79.3789 163.329C80.5568 163.132 81.7224 163.378 82.8887 163.268C83.4097 163.22 83.9164 163.428 84.4395 163.336C85.1968 163.192 85.974 163.183 86.7344 163.311C87.4048 163.43 87.3832 163.202 89.0371 163.214C90.8429 163.227 92.6461 163.401 94.4561 163.252C95.8545 163.138 96.365 164.687 96.3174 165.468C96.2508 166.577 96.4376 167.685 96.3057 168.794C96.271 169.085 96.1664 169.398 96.2344 169.665C96.4152 170.361 96.1732 171.046 96.2637 171.744C96.363 172.514 96.4811 173.303 96.25 174.084C96.233 174.14 96.3838 174.763 96.3369 175.024C96.1805 175.896 96.2308 178.582 96.3438 180.091C96.3817 180.595 96.1534 181.104 96.2812 181.573C96.4798 182.302 96.1957 182.997 96.2637 183.715C96.3745 184.825 94.6779 185.995 94.0195 187.423C93.4475 188.665 93.2479 190.741 93.4648 191.471C93.8716 192.838 94.5183 194.072 95.665 194.956C96.5914 195.672 97.5175 196.445 98.8193 196.322C100.007 196.548 101.236 196.367 102.31 195.812C102.859 195.523 103.449 195.212 103.834 194.707C104.573 193.738 105.63 193.461 106.718 193.461C107.353 193.462 108.023 193.351 108.662 193.555C108.773 193.582 108.889 193.579 108.998 193.546C109.996 193.28 115.709 193.498 116.028 193.574C116.862 193.773 117.455 193.141 118.919 193.463C119.916 193.683 120.909 193.512 121.889 193.49C122.973 193.466 124.047 193.551 125.125 193.566C126.26 193.583 126.651 194.351 126.532 196.653C126.461 198.032 126.659 199.415 126.447 200.79C126.701 201.592 126.519 202.409 126.536 203.219C126.556 204.163 126.785 205.114 126.445 206.047C126.39 206.199 126.758 207.853 126.433 209.344C126.3 209.952 126.693 211.001 126.563 212.167C126.415 213.494 126.714 214.604 125.711 215.692C124.708 216.781 123.628 218.242 123.654 219.747C123.662 220.203 123.269 220.472 123.625 221.614C123.826 222.261 124.407 223.82 124.898 224.285C125.786 225.126 126.287 225.749 127.187 226.048C128.086 226.346 128.981 226.657 129.953 226.687C130.608 226.705 132.632 226.14 133.117 225.678C133.644 225.175 134.244 224.766 134.807 224.31C135.051 224.104 135.349 223.971 135.665 223.925C136.372 223.83 137.063 223.497 137.8 223.762C137.889 223.786 137.983 223.786 138.072 223.762C139.434 223.447 140.563 223.933 141.447 223.664C142.086 223.47 142.041 223.77 145.104 223.759C151.215 223.737 150.131 223.86 150.535 223.776C151.986 223.479 152.19 224.004 152.881 223.845C153.8 223.633 154.723 223.712 155.648 223.764C155.986 223.783 156.211 223.908 156.343 224.207C156.817 225.277 156.798 225.974 156.73 227.249C156.593 229.761 156.876 233.151 156.749 234.367C156.418 237.544 157.9 245.206 155.402 246.558C155.137 246.699 155.008 247.331 154.736 247.65C153.948 248.575 153.803 249.695 153.773 250.836C153.745 251.786 154.195 252.632 154.493 253.505C154.601 253.82 154.697 254.156 154.941 254.412C157.282 256.873 159.428 257.4 162.457 256.391C163.572 256.019 164.351 255.139 165.031 254.26C166.111 252.864 166.155 251.157 166.112 249.467C166.108 249.257 165.547 247.629 164.378 246.354C163.873 245.803 163.41 245.229 163.362 244.421C163.315 243.613 163.089 242.823 163.258 241.993C163.564 240.493 162.964 240.533 163.274 239.576C163.574 238.651 163.364 239.047 163.311 237.154C163.311 237.147 163.081 231.676 163.317 230.534C163.415 230.061 163.171 229.582 163.226 229.12C163.334 228.228 163.279 226.039 163.311 225.386C163.344 224.685 163.894 224.001 164.519 223.927C167.968 223.519 167.919 223.995 169.254 223.751C170.23 223.578 173.316 223.756 174.027 223.728C174.592 223.707 175.154 223.596 175.722 223.639C176.037 223.663 176.363 223.763 176.665 223.714C177.79 223.532 183.22 223.59 184.315 223.918C186.183 224.477 185.888 225.568 187.908 226.212C191.224 227.272 192.397 226.17 193.35 225.844C194.283 225.521 194.775 224.705 195.382 224.021C195.48 223.91 195.502 223.732 195.558 223.584C195.88 222.736 196.223 222.867 196.323 221.275C196.517 218.186 195.299 218.531 195.942 215.946C196.262 214.661 197.068 213.544 197.288 212.213C197.319 212.021 197.465 211.848 197.556 211.665C198.027 210.708 200.521 203.202 200.606 201.56C200.614 201.469 200.646 201.382 200.697 201.308C201.158 200.632 200.828 200.168 201.147 199.481C201.494 198.736 201.331 198.253 201.502 197.902C202.315 196.24 201.788 194.545 202.876 193.98C204.421 193.179 205.14 193.642 206.043 193.548C208.717 193.27 208.096 193.579 209.278 193.542C210.047 193.515 210.82 193.423 211.582 193.475C214.001 193.638 214.302 193.452 215.198 194.091C215.786 194.51 216.413 194.87 216.967 195.346C218.377 196.554 218.519 195.829 219.126 196.116C219.75 196.413 220.353 196.454 221.063 196.331C224.869 195.672 224.812 194.516 225.713 193.396C225.854 193.222 226.047 193.027 226.066 192.827C226.145 192.053 226.539 191.37 226.66 190.613C226.829 189.558 226.223 188.392 225.997 187.529C225.981 187.467 225.231 186.164 224.161 184.936C223.975 184.722 223.855 184.479 223.875 184.193C223.929 183.401 223.509 182.459 223.594 182.119C223.786 181.36 223.65 180.59 223.718 179.828C223.744 179.539 223.811 179.248 223.695 178.955C223.532 178.54 223.55 178.098 223.642 177.681C223.754 177.169 223.758 176.908 223.583 174.772C223.528 174.128 223.768 173.509 223.72 172.879C223.601 171.322 223.844 169.768 223.726 168.211C223.695 167.81 223.832 167.389 223.771 166.997C223.655 166.254 223.743 165.504 223.615 164.762C223.317 163.025 226.964 163.438 228.696 163.243C230.138 163.081 231.583 163.456 233.027 163.236C233.34 163.189 233.11 163.416 234.504 163.299C235.109 163.248 235.726 163.128 236.322 163.306C237.442 163.64 237.808 162.928 240.163 163.336C241.062 163.491 241.957 163.212 242.852 163.366C243.177 163.42 243.452 162.995 244.51 163.435C245.152 163.702 245.836 163.905 246.328 164.455C246.502 164.637 246.722 164.767 246.965 164.834C247.749 165.08 247.502 165.84 250.287 166.213C251.78 166.413 253.689 165.59 253.94 165.236C254.318 164.71 254.927 164.633 255.348 164.08C259.3 158.874 254.562 154.451 252.566 154.188C252.389 154.163 251.978 153.69 250.874 153.792C247.918 154.066 247.174 154.77 245.666 153.804C245.361 153.609 245.054 153.38 244.714 153.286C242.674 152.722 236.729 149.989 235.188 149.777C234.79 149.723 233.745 148.853 232.375 148.87C231.639 148.88 230.304 148.006 229.786 147.889C229.267 147.771 226.421 146.952 224.675 146.316C224.431 146.227 224.215 146.105 224.123 145.851C223.812 144.994 223.575 144.099 223.63 143.198C223.685 142.298 223.603 141.398 223.715 140.498C223.826 139.577 223.629 138.645 223.715 137.718C223.75 137.357 223.562 137.017 223.647 136.641C224.209 134.169 224.676 134.802 225.336 133.549C225.911 132.451 226.327 132.376 226.561 130.584C226.686 129.626 226.323 128.704 226.25 127.758C226.204 127.166 224.605 125.025 223.452 124.445C219.293 122.354 217.424 125.551 213.877 123.283C213.519 123.054 212.162 122.703 210.957 122.209C207.929 120.97 208.028 121.442 207.328 121.113C206.509 120.728 205.596 120.589 204.796 120.149C204.679 120.078 204.542 120.047 204.405 120.06C203.71 120.19 203.114 119.89 202.523 119.623C201.825 119.307 201.103 118.991 200.835 118.16C200.649 117.586 199.883 115.729 199.772 115.018C199.446 112.917 198.154 110.675 197.905 108.946C197.898 108.901 197.884 108.858 197.862 108.818C197.288 107.766 196.013 103.679 195.906 103.474C195.829 103.325 195.882 103.167 195.913 103.009C196.042 102.371 196.065 101.723 196.206 101.079C196.811 98.312 195.717 96.8626 195.23 95.8262C195.179 95.716 195.04 95.6303 194.925 95.5664C193.882 94.993 193.786 93.8965 191.365 93.5137C190.523 93.3817 189.695 93.5467 188.861 93.582C186.401 93.6875 186.101 96.0352 183.441 96.3359C182.909 96.3958 181.969 96.2151 179.748 96.3613C179.292 96.3919 178.849 96.2987 178.395 96.332C175.324 96.5543 175.994 96.1366 175.492 96.2725C174.897 96.4357 174.279 96.3124 173.673 96.3994C172.31 96.5953 171.681 95.9767 169.815 96.3018C168.89 96.4636 167.966 96.2491 167.047 96.3994C166.8 96.4373 166.144 96.1804 165.839 96.2627C165.28 96.4164 164.776 96.2378 164.247 96.127C162.634 95.7896 163.255 91.287 163.21 90.9727C163.062 89.9532 163.151 88.9412 163.191 87.9326C163.278 85.6277 163.149 83.264 163.211 82.3887C163.469 78.7203 162.952 79.3701 163.219 78.6396C163.37 78.2243 163.322 75.7553 163.317 75.5947C163.279 74.274 164.404 74.3508 165.446 72.0664C165.79 71.3074 166.266 70.5542 166.198 69.6953C166.134 68.8554 166.199 67.9807 165.805 67.1836C164.601 64.7462 164.204 64.7463 162.24 63.5596C161.613 63.1801 160.794 63.1366 160.077 63.125ZM143.834 193.569C144.534 193.634 145.222 193.346 145.844 193.445L145.847 193.446C147.205 193.423 147.908 193.73 149.181 193.508C149.929 193.38 152.819 193.507 153.571 193.561C155.095 193.67 155.491 194.867 156.012 195.303C157.1 196.218 156.564 199.276 156.849 201.491C157.02 202.825 156.654 200.885 156.767 208.619C156.79 210.224 156.642 211.21 156.67 211.381C156.871 212.618 156.741 213.857 156.689 215.096C156.67 215.57 157.109 216.798 155.681 217.096C154.645 217.309 154.383 216.957 153.667 217.241C153.569 217.282 152.046 217.215 148.661 217.215C147.383 217.214 146.107 217.428 144.825 217.195C143.84 217.016 143.417 217.666 142.071 217.364C140.527 217.018 140.162 217.432 136.604 217.267C135.571 217.218 135.551 215.973 135.842 215.215C136.442 213.653 137.129 212.126 137.594 210.512C137.848 209.628 138.31 208.798 138.514 207.905C138.771 206.781 139.245 205.734 139.552 204.626C139.875 203.46 139.985 202.218 140.591 201.13C140.701 200.932 140.573 201.166 141.51 196.902C141.664 196.201 141.64 195.257 142.285 194.335C142.667 193.789 143.134 193.504 143.834 193.569ZM172.029 193.424C173.929 193.361 174.094 193.711 174.871 193.531C175.848 193.304 180.966 193.64 182.027 193.45C182.433 193.378 182.835 193.526 183.243 193.542C186.607 193.679 187.284 192.566 186.984 198.463C186.687 204.309 187.226 199.8 186.954 204.27C186.898 205.196 187.063 206.115 187.034 207.043C187.021 207.45 186.966 207.853 186.943 208.258C186.805 210.692 187.617 214.262 186.037 216.018C185.404 216.721 185.218 217.061 182.859 217.193C181.738 217.257 180.605 217.382 179.493 217.291C178.495 217.209 177.512 217.42 176.528 217.3C174.658 217.071 172.071 217.31 171.993 217.31C170.773 217.274 169.554 217.073 168.334 217.196C167.593 217.272 166.852 217.156 166.112 217.279C165.397 217.398 164.723 217.169 164.059 216.931C163.824 216.846 163.729 216.645 163.608 216.45C162.665 214.928 163.581 213.18 163.236 211.654C163.012 210.666 163.541 210.974 163.229 208.959C163.131 208.322 163.359 207.699 163.258 207.066C163.121 206.215 163.266 205.358 163.243 204.503C163.223 203.774 163.123 203.024 163.288 202.281C163.402 201.771 163.152 201.258 163.181 200.731C163.272 199.118 163.369 199.216 163.248 198.501C163.2 198.223 163.131 196.658 163.262 196.407L163.264 196.408C165.012 193.062 165.912 193.627 172.029 193.424ZM134.236 193.717C135.1 193.772 135.359 194.351 135.201 195.223C134.667 198.162 134.579 197.576 134.599 197.785C134.688 198.755 134.004 199.472 133.766 200.334C133.599 200.934 133.008 200.895 132.97 198.351H132.973C132.958 197.424 133.248 196.504 133.055 195.578C132.968 195.157 133.043 194.767 133.145 194.374C133.284 193.844 133.577 193.675 134.236 193.717ZM193.729 194.351C193.748 194.234 194.267 193.382 194.795 193.603C195.632 193.954 195.515 194.466 195.515 194.974C195.302 197.544 194.934 197.006 194.844 197.854C194.754 198.703 194.283 199.431 194.107 200.253C194.005 200.732 193.413 200.569 193.521 200.137C193.689 199.465 193.503 198.789 193.58 198.109C193.643 197.559 193.534 196.983 193.461 196.423C193.367 195.704 193.62 195.037 193.729 194.351ZM152.288 181.414C153.224 181.15 154.178 181.322 155.122 181.312C156.291 181.299 156.723 181.567 156.723 183.243V183.247C156.764 184.753 155.93 185.689 154.738 186.452C153.033 187.553 150.506 186.699 148.028 187.061C147.197 187.182 146.05 186.999 145.391 187.072C144.844 187.136 144.366 186.753 143.886 186.527C143.621 186.403 143.517 185.952 143.653 185.669C144.158 184.611 143.124 181.976 145.494 181.892C146.603 181.853 147.669 181.415 148.792 181.594C148.928 181.603 149.065 181.585 149.194 181.542C150.309 181.251 152.116 181.462 152.288 181.414ZM163.256 183.264C163.066 182.071 164.146 181.098 165.251 181.323C166.416 181.559 169.81 181.151 171.721 181.627C171.919 181.674 172.122 181.699 172.325 181.701C176.577 181.78 181.765 182.581 182.776 182.664C183.359 182.712 183.943 182.674 184.53 182.797C186.71 183.253 187.303 183.693 186.778 186.146C186.488 187.499 184.107 186.762 179.594 187.075C178.582 187.146 176.859 186.853 176.082 186.989C174.835 187.213 173.312 186.761 172.437 186.921C171.198 187.148 171.129 186.768 170.686 186.936C169.636 187.333 166.423 186.917 165.516 186.707C165.19 186.632 164.88 186.524 164.704 186.259C164.346 185.72 163.845 185.293 163.651 184.618C163.523 184.169 163.331 183.734 163.256 183.264ZM195.145 184.845C196.262 184.656 197.716 186.31 196.384 186.777C195.667 187.03 194.923 187.291 194.189 186.793C193.805 186.533 193.602 186.181 193.655 185.705C193.761 184.744 194.547 184.845 195.145 184.845ZM125.149 184.744C125.817 184.748 126.246 185.176 126.35 185.836C126.51 186.831 124.674 187.224 123.696 187.02C122.875 186.847 122.036 187.119 121.199 187.011C119.819 186.835 119.117 186.903 118.786 186.738C118.369 186.528 118.804 186.214 119.262 186.109C120.517 185.822 121.712 185.332 122.971 185.042C123.733 184.867 124.508 184.948 125.147 184.744H125.149ZM135.721 182.75C136.338 182.62 136.949 183.093 136.994 183.72C137.021 184.103 137.18 184.468 137.14 184.808H137.143C137.244 187.391 133.105 187.655 133.152 185.756C133.183 184.614 132.736 185.252 133.344 183.727C133.459 183.438 133.716 183.277 134.014 183.196C134.581 183.043 135.146 182.871 135.721 182.75ZM208.963 163.271C210.218 163.082 209.886 163.38 212.076 163.37C216.11 163.354 217.062 163.044 217.172 165.441L217.174 165.445C217.246 165.692 217.08 167.984 217.219 169.209C217.316 170.045 217.367 170.894 217.112 171.698C216.95 172.216 217.346 172.623 217.248 173.084C217.155 173.525 216.964 173.941 217.198 174.399C217.281 174.563 217.31 174.748 217.283 174.929C217.119 175.787 217.336 176.642 217.279 177.497C217.222 178.352 217.013 178.439 217.149 179.109C217.373 180.192 217.073 181.445 217.141 181.597C217.402 182.205 217.155 182.803 217.106 183.402C217.046 184.136 216.345 184.856 215.449 184.306C214.69 183.839 214.401 184.097 213.986 183.799C212.712 182.882 211.558 182.792 209.055 181.948C206.146 180.968 204.567 180.69 204.649 179.073C204.756 177.015 205.216 174.024 205.241 173.077C205.409 166.833 205.663 167.123 205.415 165.786C205.325 165.303 205.611 165.226 205.646 164.464C205.686 163.56 206.359 163.227 207.074 163.288C207.709 163.342 208.326 163.366 208.963 163.271ZM121.714 163.294C122.6 163.151 123.516 163.086 124.352 163.604C124.582 163.75 124.817 163.875 124.964 164.118C125.381 164.812 126.205 164.686 126.392 166.457C126.464 167.152 126.534 167.831 126.432 168.544C126.356 169.078 126.573 169.654 126.54 170.221C126.471 171.377 126.56 175.309 126.419 176.244C126.119 178.221 124.245 178.17 121.63 178.777C112.961 180.79 104.289 184.089 104.25 184.101C103.567 184.334 102.91 183.889 102.917 183.154C102.927 182.157 102.671 181.173 102.801 180.258L102.803 180.259C102.777 178.036 103.123 177.508 102.749 176.6C102.715 176.516 102.7 176.426 102.707 176.336C102.855 174.579 102.761 172.818 102.799 171.06C102.832 169.452 102.55 169.694 102.713 168.42C102.931 166.714 102.457 166.942 102.945 164.104C103.049 163.496 104.918 163.251 105.53 163.314C106.903 163.459 108.274 163.051 110.119 163.343C110.297 163.38 110.48 163.389 110.66 163.37C111.732 163.199 112.817 163.366 113.892 163.23C115.059 163.082 115.421 163.505 116.391 163.339C117.581 163.135 120.339 163.516 121.714 163.294ZM197.575 163.288C199.283 163.353 199.05 165.598 199.017 165.611C199.012 165.815 198.947 171.415 198.613 173.109C198.462 173.886 198.811 173.277 198.462 175.534C198.375 176.092 198.267 176.643 198.215 177.209C198.134 178.089 197.303 178.617 196.429 178.354C195.657 178.121 193.285 178.173 193.373 175.997C193.391 175.554 193.619 174.257 193.423 173.499C193.221 172.719 193.622 172.393 193.451 170.322C193.394 169.539 193.405 168.751 193.483 167.97C193.532 167.433 193.456 166.9 193.52 166.355C193.68 164.984 194.612 164.615 194.809 164.296C195.466 163.228 196.555 163.249 197.575 163.288ZM178.032 163.221C179.118 163.314 180.206 163.14 181.278 163.246C183.413 163.457 184.591 163.062 185.482 164.235C185.827 164.689 186.882 164.902 186.946 166.76C187.03 169.163 187.262 167.446 186.907 169.861C186.756 170.889 187.023 170.65 186.97 172.222C186.885 174.684 187.407 176.995 185.049 176.378C182.736 175.776 182.064 176.232 180.822 175.979C179.312 175.673 177.774 175.606 176.251 175.496C174.855 175.395 173.483 175.053 172.066 175.148C171.019 175.22 172.073 174.937 166.054 174.852C165.393 174.843 164.769 174.613 164.117 174.534C163.367 174.443 163.201 172.625 163.293 171.982C163.329 171.731 163.262 171.477 163.297 171.239C163.42 170.4 163.171 169.561 163.307 168.723C163.333 168.611 163.339 168.496 163.324 168.383C163.134 167.468 163.312 166.538 163.202 165.62C163.142 165.119 163.261 164.622 163.379 164.146C163.495 163.68 164.201 163.296 164.739 163.307L164.741 163.31C165.758 163.329 175.214 163.187 176.414 163.344C176.959 163.417 177.496 163.175 178.032 163.221ZM132.98 167.716C132.772 165.846 134.728 162.642 137.816 163.39C138.147 163.47 138.35 163.743 138.455 164.048C138.624 164.536 138.86 165.016 138.773 165.465V165.47C138.869 166.588 138.528 166.467 138.715 167.17C138.76 167.322 138.772 167.482 138.75 167.639C138.432 169.301 138.636 171.012 138.287 172.672C138.12 173.468 138.938 173.17 137.903 175.453C137.841 175.6 137.742 175.729 137.617 175.828C137.492 175.927 137.345 175.994 137.188 176.022C136.325 176.202 135.458 176.343 134.574 176.367C133.942 176.384 132.893 175.994 133.01 175.239C133.074 174.826 132.91 174.44 132.88 174.039C132.811 173.125 133.259 172.27 133.1 171.362C132.887 170.154 133.116 168.93 132.98 167.716ZM146.914 163.399C148.25 163.314 149.594 162.96 150.954 163.34C151.379 163.459 151.854 163.32 152.293 163.287C153.361 163.208 154.413 163.442 155.476 163.349C156.354 163.27 156.616 164.139 156.708 165.063C157.011 168.104 156.697 167.413 156.72 168.297C156.826 172.359 156.643 172.4 156.733 173.239C156.928 175.049 153.806 174.854 151.979 174.883C151.103 174.743 149.915 174.993 148.716 174.965C148.139 174.951 147.507 175.05 146.915 175.186C146.129 175.367 144.894 174.981 144.817 174.007C144.681 172.275 145.221 172.32 145.232 165.192C145.234 163.983 145.769 163.473 146.914 163.399ZM205.354 150.497C205.475 148.329 207.583 149.22 209.72 149.675C209.808 149.694 209.909 149.742 209.984 149.718C210.675 149.494 211.261 149.888 211.883 150.042C212.405 150.171 216.825 150.585 217.01 152.022C217.14 153.037 217.592 153.842 216.901 155.968C216.765 156.387 216.479 156.598 216.018 156.691C213.613 157.184 213.805 156.565 213 156.781C211.376 157.219 210.467 156.54 209.711 156.922C209.079 157.24 209.052 156.79 207.235 156.79C206.006 156.789 205.315 155.661 205.413 154.483C205.518 153.218 205.296 151.553 205.354 150.497ZM121.963 147.486C124.174 147.63 124.307 146.417 126.111 147.622C126.582 147.937 126.454 148.474 126.415 149.071C126.429 150.648 126.707 150.47 126.61 150.743C126.301 151.603 126.639 152.492 126.488 153.348C126.019 156.021 123.727 157.152 121.246 156.816C120.014 156.651 118.501 157.177 115.969 156.787C115.607 156.731 114.73 157.031 113.409 156.719C113.113 156.649 112.821 156.744 112.532 156.776C110.649 156.98 106.529 156.538 105.373 156.762C104.887 156.855 104.393 156.685 103.89 156.723C103.442 156.756 102.858 156.08 102.823 155.55C102.678 153.35 102.956 153.518 102.871 152.504C102.825 151.966 103.46 151.182 104.049 150.996C109.089 149.403 121.956 147.486 121.963 147.486ZM164.521 145.149C165.523 145.034 166.521 144.688 167.534 145.091C167.64 145.135 167.757 145.145 167.868 145.12C168.731 144.862 169.574 145.148 170.424 145.202C170.901 145.233 171.826 144.978 173.059 145.219C173.521 145.31 173.998 145.383 174.474 145.302C174.892 145.23 175.28 145.387 175.677 145.467C176.688 145.671 176.611 145.368 177.082 145.409C178.202 145.504 179.345 145.386 180.438 145.749C180.563 145.794 180.716 145.848 180.835 145.817C181.423 145.663 182.004 145.872 182.585 145.83C183.406 145.771 184.208 145.948 185.021 145.998C186.89 146.11 187.052 148.372 187.078 150.215L187.08 150.218C187.134 150.595 186.98 151.15 186.912 151.708C186.72 153.342 187.069 154.531 185.855 155.634C184.963 156.443 183.952 156.809 182.77 156.815C182.763 156.815 178.618 156.984 177.512 156.862C176.419 156.743 175.361 156.784 174.287 156.9C173.761 156.957 173.254 156.74 172.731 156.78C171.63 156.864 170.517 156.619 169.422 156.907C169.028 157.011 168.745 156.616 168.435 156.763C167.702 157.108 167.078 156.582 165.959 156.809C165.468 156.908 165.008 156.807 164.548 156.722C162.448 156.33 163.695 153.828 163.181 147.467C163.142 146.989 163.258 146.519 163.36 146.056C163.508 145.382 164.333 145.171 164.521 145.149ZM224.76 153.421C225.487 153.429 226.205 153.572 226.88 153.843C227.189 153.968 233.489 155.656 233.352 156.34C233.269 156.745 231.928 156.823 231.515 156.788C228.954 157.115 229.086 156.625 226.846 156.894C226.335 156.955 226.08 156.697 224.917 156.542C224.102 156.434 223.703 155.98 223.703 155.154C223.706 154.282 223.888 153.407 224.76 153.421ZM95.0156 153.349C95.3101 153.266 95.5622 153.337 95.7451 153.574C96.5387 154.602 96.3998 155.015 95.8926 156.136C95.7634 156.421 95.5532 156.636 95.2227 156.629C94.6525 156.618 94.1067 156.824 93.5352 156.816C92.3989 156.504 91.2387 156.962 90.0977 156.686C89.9636 156.659 89.825 156.668 89.6953 156.711C88.6995 157.021 87.7911 156.581 86.8545 156.388C85.4195 156.09 90.8959 154.543 91.541 154.212C92.2899 153.828 92.5553 154.173 93.7715 153.671C94.1761 153.504 94.6036 153.464 95.0156 153.349ZM149.506 145.04C149.634 144.991 149.775 144.989 149.904 145.033C150.88 145.435 151.258 144.898 155.493 145.047C156.124 145.069 156.83 145.964 156.84 146.645C156.845 146.955 156.695 147.248 156.796 147.58C156.88 147.855 156.857 148.162 156.893 148.587C156.566 149.774 156.723 154.917 156.722 154.966C156.735 157.414 154.265 156.588 150.858 156.775C149.552 156.847 148.237 156.801 146.928 156.763C145.919 156.733 145.189 155.823 145.302 154.816C145.315 154.704 145.372 154.57 145.33 154.483C144.988 153.784 145.292 153.055 145.224 152.342C144.843 148.409 145.089 153.031 144.855 146.81C144.836 146.272 145.386 145.599 146.012 145.456C147.845 145.041 148.449 145.464 149.506 145.04ZM133.24 147.049C133.588 146.243 135.118 145.823 136.054 145.952C136.871 146.034 138.332 145.782 138.495 147.27C138.631 148.553 138.38 149.429 138.427 149.569C138.757 150.533 138.812 153.99 138.707 155.351C138.6 156.743 137.249 156.947 135.87 156.743C134.985 156.611 135.013 156.131 134.296 155.633C133.285 154.93 133.1 153.826 132.877 152.744C132.807 152.404 132.999 152.086 133.036 151.746C133.161 150.57 132.696 148.306 133.24 147.049ZM194.824 147.165C196.602 147.143 196.772 147.538 197.146 147.551C198.297 147.591 198.68 148.412 198.977 149.326C199.04 149.498 199.04 149.687 198.977 149.859C198.601 150.769 199.227 151.517 198.977 152.81C198.883 153.291 199.037 153.751 199.1 154.217C199.18 154.808 199.027 155.382 198.943 155.945C198.79 156.98 196.167 157.192 194.985 155.908C194.682 155.578 194.312 155.323 194.002 154.987C193.245 154.168 193.507 153.164 193.417 152.242C193.321 151.263 193.421 150.268 193.541 149.284C193.617 148.661 193.192 147.183 194.824 147.165ZM208.567 132.937C209.158 132.758 210.254 133.319 212.617 133.136C213.233 133.087 213.828 133.001 214.422 133.189C215.283 133.464 216.008 133.919 216.399 134.785C216.765 135.586 217.296 135.76 217.147 136.893C217.122 137.208 217.145 137.525 217.216 137.833C217.34 138.45 217.029 141.663 217.033 143.376C217.035 144.178 216.53 144.337 215.982 144.234C214.879 144.028 213.759 143.932 212.667 143.65C211.988 143.476 211.317 143.221 210.637 143.124C209.81 143.004 209.007 142.758 208.178 142.663C206.344 142.451 205.506 142.127 204.888 141.447C204.76 141.316 204.689 141.139 204.689 140.956C204.7 139.773 204.28 138.65 204.195 137.479C204.075 135.821 204.367 135.811 204.007 135.289C203.54 134.612 203.951 133.621 204.272 133.521C205.167 133.244 206.03 132.823 207.02 132.992C207.531 133.079 208.054 133.092 208.567 132.937ZM119.873 133.033C124.154 133.073 124.843 132.779 125.832 133.45C126.096 133.63 126.301 133.821 126.343 134.125C126.437 134.794 126.625 135.452 126.562 136.143C126.448 137.414 126.746 137.05 126.508 139.25C126.43 139.95 125.162 140.627 124.467 140.711C121.894 141.025 121.921 141.182 121.525 141.052C121.442 141.025 121.333 140.995 121.26 141.024C120.638 141.275 119.978 141.229 119.333 141.308C116.721 141.627 116.763 142.073 113.883 142.317C112.568 142.431 111.374 142.958 110.354 142.906C109.276 142.852 109.401 143.169 107.905 143.354C107.385 143.417 106.907 143.741 106.354 143.8C105.75 143.863 105.153 143.991 104.576 144.184C103.662 144.49 102.693 143.655 102.744 142.698C102.768 142.263 102.628 141.602 102.671 141.488C103.035 140.559 102.721 139.607 102.792 138.67C102.935 136.798 102.577 134.321 105.064 133.324C106.019 132.942 106.977 133.015 109.648 133.015C110.958 133.139 119.863 133.035 119.873 133.033ZM193.546 134.513C193.63 132.369 196.932 132.75 197.249 134.395C198.198 139.329 197.894 138.674 198.044 139.472C198.158 140.072 197.68 140.625 197.072 140.721C195.894 140.905 195.253 140.529 194.381 140.469C194.211 140.457 194.091 140.354 193.996 140.218C193.206 139.099 193.519 138.381 193.515 137.293C193.511 136.366 193.51 135.438 193.546 134.513ZM175.266 132.983C176.383 132.875 176.834 133.231 177.756 133.015C177.778 133.011 177.801 133.011 177.823 133.015C179.422 133.228 181.027 132.959 182.635 133.074C183.496 133.135 184.385 133.249 185.269 133.091C185.74 133.01 186.171 133.275 186.458 133.635C187.534 134.987 186.801 135.437 186.99 136.859C187.073 137.533 186.983 138.217 186.73 138.848C186.495 139.456 185.671 139.605 185.155 139.516C184.011 139.318 182.855 139.374 181.703 139.35C181.025 139.335 179.975 138.899 177.675 139.059C176.941 139.11 177.35 138.819 173.639 138.819C172.334 138.819 171.03 138.463 169.723 138.772C169.249 138.889 170.004 138.476 165.267 138.617C164.276 138.647 163.137 138.075 163.331 136.703C163.303 135.81 163.626 135.046 164.281 134.403C164.833 133.867 165.337 133.284 166.153 133.119C167.668 132.814 167.362 133.336 168.565 133.064C169.126 132.936 169.695 133.061 170.26 133.045C173.805 132.942 171.657 133.335 175.266 132.983ZM133.887 133.368C134.358 133.015 136.491 133.012 136.801 133.951C137.018 134.613 137.309 135.244 137.297 135.979C137.288 136.513 137.452 137.052 137.397 137.596C137.397 138.756 137.458 138.91 136.629 139.236C135.8 139.563 134.956 139.64 134.104 139.373C133.316 139.129 133.091 138.798 133.112 137.973C133.137 137.008 132.831 136.481 133.027 135.612C133.196 134.872 132.527 134.388 133.887 133.368ZM151.979 133.03C153.298 132.996 153.362 133.349 154.326 133.288C154.669 133.267 154.962 133.376 155.113 133.706C155.56 134.672 157.274 135.249 156.58 137.579C156.364 138.304 156.053 138.509 155.296 138.544C152.083 138.694 151.36 138.327 148.743 138.727C147.794 138.871 146.844 138.793 145.896 138.824C145.261 138.845 144.792 138.36 144.271 138.06C144.194 138.014 144.147 137.867 144.134 137.76C144.03 136.91 143.673 136.103 143.708 135.229C143.735 134.585 143.353 132.939 145.284 133.103V133.106C145.581 133.172 145.87 133.069 146.158 133.041C146.819 132.987 147.466 133.188 148.121 133.141C149.406 133.047 150.692 133.064 151.979 133.03ZM150.56 121.11C155.511 120.866 154.231 121.04 155.396 121.014C156.027 121 156.565 121.601 156.619 122.31C156.652 122.737 156.597 123.168 156.702 123.593C156.718 123.66 156.72 123.729 156.707 123.797C156.694 123.864 156.666 123.928 156.626 123.983C155.621 125.417 155.252 126.184 153.192 126.56C152.995 126.596 152.778 126.63 152.587 126.589C151.729 126.405 151.473 126.761 150.984 126.693C149.258 126.446 145.311 126.554 145.304 126.554C143.541 126.549 143.113 126.709 142.761 126.233C141.568 124.627 142.153 124.536 141.772 123.9C141.523 123.49 141.622 123.066 141.705 122.647C141.851 121.913 142.958 121.821 143.625 121.573C143.999 121.433 144.381 121.478 144.917 121.473V121.474C146.201 121.336 146.098 121.34 146.19 121.349C147.662 121.519 149.103 121.182 150.56 121.11ZM165.146 120.884C165.676 120.842 165.317 121.202 167.676 121.088C170.257 120.962 173.091 121.569 175.182 121.522C177.378 121.474 177.523 121.893 178.33 121.894C181.611 121.898 183.782 122.81 184.865 122.47C185.015 122.423 185.204 122.413 185.321 122.531C186.185 123.402 187.47 123.015 186.817 125.655C186.566 126.676 185.783 126.456 183.777 126.585C183.145 126.546 182.508 126.664 181.878 126.51C181.651 126.454 181.428 126.541 181.205 126.571C180.843 126.62 180.471 126.532 180.124 126.576C179.211 126.694 178.311 126.49 177.397 126.554C174.056 126.787 175.419 126.424 173.354 126.507C169.357 126.667 173.898 126.736 166.787 126.569C165.553 126.537 164.14 125.135 163.638 124.497C163.098 123.809 163.015 122.237 163.506 121.53C163.898 120.966 164.534 120.931 165.146 120.884ZM121.401 125.132C123.259 125.053 124.736 124.148 125.844 124.509C126.278 124.649 126.503 124.961 126.388 125.386C125.995 126.831 125.091 126.603 123.547 126.603C122.435 126.757 121.344 126.37 120.231 126.454C120.031 126.466 119.799 126.425 119.738 126.182C119.629 125.744 120.812 125.158 121.401 125.132ZM133.412 123.471C133.458 122.925 134.776 123.19 134.933 123.717C135.385 125.231 135.561 125.844 134.903 126.291C134.756 126.399 134.581 126.462 134.398 126.471C134.216 126.479 134.035 126.434 133.879 126.341C133.382 126.063 132.969 125.723 133.121 125.086C133.076 124.503 133.366 124.017 133.412 123.471ZM194.361 124.513C195.571 124.52 196.019 126.34 194.605 126.333C194.047 126.33 193.699 126.035 193.692 125.559C193.681 124.862 193.908 124.509 194.361 124.513ZM171.911 102.845C175.634 102.673 175.959 102.68 176.543 102.896C176.696 102.943 176.861 102.939 177.012 102.886C177.889 102.642 178.924 102.924 179.015 102.881C179.724 102.546 180.439 102.892 181.152 102.843C181.874 102.797 182.598 102.791 183.32 102.823C183.778 102.841 185.12 103.178 185.398 103.542C187.665 106.493 186.568 106.514 187.031 111.054C187.11 111.824 186.715 112.687 186.87 113.681C187.179 115.656 186.491 116.026 185.461 116.111C185.123 116.145 184.78 116.121 184.45 116.039H184.452C183.201 115.716 173.659 114.855 171.727 114.882C170.36 114.901 170.745 114.48 169.104 114.654C168.057 114.767 167.029 114.62 165.994 114.54C165.085 114.469 163.321 114.886 163.215 112.383C163.183 111.622 163.151 110.853 163.219 110.097C163.313 109.059 163.071 108.029 163.245 106.985C163.333 106.44 163.207 105.86 163.196 105.296C163.183 104.553 163.535 103.323 163.858 103.217C164.573 102.983 165.26 102.519 166.064 102.83C166.774 103.106 167.93 102.612 168.475 102.795C168.537 102.822 168.606 102.834 168.674 102.83C169.753 102.646 170.83 102.895 171.911 102.845ZM146.454 102.752C147.077 102.634 148.253 102.988 148.606 102.931C150.465 102.626 151.736 102.918 155.578 102.979C156.598 102.995 156.937 104.599 156.762 105.519C156.633 106.192 156.722 106.883 156.775 107.546C156.891 108.996 156.629 110.437 156.76 111.881C156.858 112.959 157 113.816 155.765 114.292C153.991 114.972 153.454 114.313 152.283 114.563C151.656 114.697 151.028 114.443 150.396 114.6C149.541 114.812 148.632 114.533 147.784 114.862C147.74 114.876 147.694 114.879 147.648 114.87C146.329 114.657 145.046 114.974 143.754 115.137C143.057 115.224 142.361 115.105 141.527 115.296C141.228 115.364 140.897 115.298 140.581 115.284C140.444 115.28 140.31 115.245 140.188 115.184C140.067 115.122 139.96 115.033 139.876 114.926C138.801 113.606 139.338 113.661 138.757 112.279C138.305 111.205 136.528 105.759 136.064 105.133C135.858 104.853 135.821 104.457 135.821 104.087C135.808 102.652 137.053 102.856 138.18 102.856C138.783 102.909 139.403 102.731 140.002 102.948C140.133 102.989 140.273 102.983 140.401 102.935C141.273 102.592 141.318 103.007 144.296 102.83C145.013 102.787 145.726 102.888 146.454 102.752Z" fill="#BA6332"/>
</g>
</g>
<defs>
<clipPath id="clip0_494_188536">
<rect width="320" height="320" rx="24" fill="white"/>
</clipPath>
<clipPath id="clip1_494_188536">
<rect x="32" y="32" width="256" height="256" rx="128" fill="white"/>
</clipPath>
</defs>
</svg>
