<svg width="320" height="320" viewBox="0 0 320 320" fill="none" xmlns="http://www.w3.org/2000/svg">
<g clip-path="url(#clip0_494_188444)">
<g clip-path="url(#clip1_494_188444)">
<rect width="320" height="320" rx="24" fill="#F7CE46"/>
<rect width="320" height="320" rx="24" fill="#F7CE46"/>
<path d="M112.681 40C108.664 40 105.408 43.2561 105.408 47.2727V68.371L99.1852 119.115C98.6535 123.45 102.036 127.273 106.404 127.273H149.094C153.11 127.273 156.367 124.017 156.367 120L156.367 47.2727C156.367 43.2561 153.11 40 149.094 40L112.681 40Z" fill="#9B552D"/>
<path d="M83.6889 156.364C87.7055 156.364 90.9616 153.108 90.9616 149.091V127.993L97.1843 77.2489C97.716 72.9136 94.3334 69.0909 89.9657 69.0909L47.2757 69.0909C43.2591 69.0909 40.0029 72.347 40.0029 76.3637L40.0029 149.091C40.0029 153.108 43.2591 156.364 47.2757 156.364H83.6889Z" fill="#9B552D"/>
<path d="M280.006 112.678C280.006 108.661 276.75 105.405 272.734 105.405H251.635L200.891 99.1822C196.556 98.6506 192.734 102.033 192.734 106.401V149.091C192.734 153.108 195.99 156.364 200.006 156.364H272.734C276.75 156.364 280.006 153.108 280.006 149.091V112.678Z" fill="#9B552D"/>
<path d="M163.644 83.686C163.644 87.7026 166.9 90.9587 170.917 90.9587H192.015L242.759 97.1814C247.094 97.7131 250.917 94.3305 250.917 89.9628V47.2728C250.917 43.2561 247.661 40 243.644 40H170.917C166.9 40 163.644 43.2561 163.644 47.2727V83.686Z" fill="#9B552D"/>
<path d="M39.9961 207.322C39.9961 211.339 43.2522 214.595 47.2688 214.595H68.3671L119.111 220.818C123.446 221.349 127.269 217.967 127.269 213.599V170.909C127.269 166.892 124.013 163.636 119.996 163.636H47.2688C43.2522 163.636 39.9961 166.892 39.9961 170.909V207.322Z" fill="#9B552D"/>
<path d="M156.358 236.314C156.358 232.297 153.102 229.041 149.085 229.041H127.987L77.2432 222.819C72.9079 222.287 69.0852 225.67 69.0852 230.037V272.727C69.0852 276.744 72.3413 280 76.358 280H149.085C153.102 280 156.358 276.744 156.358 272.727V236.314Z" fill="#9B552D"/>
<path d="M207.322 280C211.338 280 214.594 276.744 214.594 272.727V251.629L220.817 200.885C221.349 196.55 217.966 192.727 213.599 192.727L170.908 192.727C166.892 192.727 163.636 195.983 163.636 200V272.727C163.636 276.744 166.892 280 170.908 280H207.322Z" fill="#9B552D"/>
<path d="M236.313 163.636C232.297 163.636 229.041 166.892 229.041 170.909L229.041 192.007L222.818 242.751C222.286 247.086 225.669 250.909 230.037 250.909H272.727C276.743 250.909 279.999 247.653 279.999 243.636V170.909C279.999 166.892 276.743 163.636 272.727 163.636H236.313Z" fill="#9B552D"/>
</g>
</g>
<defs>
<clipPath id="clip0_494_188444">
<rect width="320" height="320" rx="24" fill="white"/>
</clipPath>
<clipPath id="clip1_494_188444">
<rect width="320" height="320" rx="24" fill="white"/>
</clipPath>
</defs>
</svg>
