<svg width="320" height="320" viewBox="0 0 320 320" fill="none" xmlns="http://www.w3.org/2000/svg">
<g clip-path="url(#clip0_494_188575)">
<rect width="320" height="320" rx="24" fill="white" fill-opacity="0.08"/>
<rect width="320" height="320" rx="24" fill="#FAE290"/>
<rect width="400" height="400" transform="translate(-40 -40)" fill="#BC583F"/>
<path d="M120.982 190.142C135.322 181.394 151.359 178.475 162.965 190.142V176.168H119.539L120.982 190.142Z" fill="#1E1E21" stroke="#1E1E21" stroke-width="3.4554" stroke-linecap="round" stroke-linejoin="round"/>
<path d="M203.014 185.356C192.648 192.528 179.884 193.561 168.65 189.578L117.527 167.776C123.55 163.775 130.609 161.64 137.828 161.639L203.014 185.356Z" fill="#1E1E21" stroke="#1E1E21" stroke-width="3.4554" stroke-linecap="round" stroke-linejoin="round"/>
<path d="M228.894 223.199H233.568C227.089 223.095 225.543 217.674 225.543 208.217C225.543 198.491 222.001 195.746 216.688 195.746H211.453C216.766 195.746 220.308 198.491 220.308 208.217C220.308 217.943 221.936 223.399 228.894 223.199Z" fill="#1E1E21" stroke="#1E1E21" stroke-width="3.4554" stroke-linecap="round" stroke-linejoin="round"/>
<path d="M223.671 223.199H228.344C221.865 223.095 220.319 217.674 220.319 208.217C220.319 198.491 216.777 195.746 211.465 195.746H206.238C211.551 195.746 215.093 198.491 215.093 208.217C215.093 217.943 216.712 223.399 223.671 223.199Z" fill="#1E1E21" stroke="#1E1E21" stroke-width="3.4554" stroke-linecap="round" stroke-linejoin="round"/>
<path d="M218.274 223.199H222.947C216.468 223.095 214.922 217.674 214.922 208.217C214.922 198.491 211.38 195.746 206.067 195.746H200.828C206.145 195.746 209.687 198.491 209.687 208.217C209.687 217.943 211.315 223.399 218.274 223.199Z" fill="#1E1E21" stroke="#1E1E21" stroke-width="3.4554" stroke-linecap="round" stroke-linejoin="round"/>
<path d="M213.035 223.199H217.713C211.234 223.095 209.687 217.674 209.687 208.217C209.687 198.491 206.146 195.746 200.829 195.746H195.594C200.911 195.746 204.453 198.491 204.453 208.217C204.453 217.943 206.077 223.399 213.035 223.199Z" fill="#1E1E21" stroke="#1E1E21" stroke-width="3.4554" stroke-linecap="round" stroke-linejoin="round"/>
<path d="M218.458 245.3C221.938 245.3 224.76 242.463 224.76 238.963C224.76 235.462 221.938 232.625 218.458 232.625C214.978 232.625 212.156 235.462 212.156 238.963C212.156 242.463 214.978 245.3 218.458 245.3Z" fill="#1E1E21"/>
<path d="M218.445 238.962V211.635" stroke="#1E1E21" stroke-width="3.4554" stroke-linecap="round" stroke-linejoin="round"/>
<path d="M217.742 239.027H259.587" stroke="#1E1E21" stroke-width="3.4554" stroke-linecap="round" stroke-linejoin="round"/>
<path d="M259.598 239.03H267.498C267.498 239.03 274.287 241.401 275.087 240.598C275.886 239.794 272.547 233.535 273.532 232.961C274.516 232.388 278.218 238.426 279.328 238.131C280.438 237.835 280.624 230.746 281.781 230.746C282.939 230.746 283.164 237.844 284.235 238.131C285.306 238.417 289.064 232.418 290.027 232.961C290.99 233.504 287.677 239.803 288.476 240.598C289.275 241.393 295.499 238.039 296.069 239.03C296.64 240.02 290.636 243.747 290.93 244.864H298.272" stroke="#1E1E21" stroke-width="3.4554" stroke-linecap="round" stroke-linejoin="round"/>
<path d="M76.2973 204.716H67.4688C79.7095 204.499 82.6164 193.222 82.6164 173.549C82.6164 153.32 89.3069 147.604 99.3362 147.604H109.219C99.1894 147.604 92.4988 153.32 92.4988 173.549C92.4988 193.778 89.4322 205.129 76.2973 204.716Z" fill="#F5D245" stroke="#1E1E21" stroke-width="3.4554" stroke-linecap="round" stroke-linejoin="round"/>
<path d="M86.1801 204.716H77.3516C89.5923 204.499 92.4992 193.222 92.4992 173.549C92.4992 153.32 99.1897 147.604 109.219 147.604H119.101C109.072 147.604 102.382 153.32 102.382 173.549C102.382 193.778 99.315 205.129 86.1801 204.716Z" fill="#F5D245" stroke="#1E1E21" stroke-width="3.4554" stroke-linecap="round" stroke-linejoin="round"/>
<path d="M96.0586 204.716H87.2344C99.4708 204.499 102.378 193.222 102.378 173.549C102.378 153.32 109.068 147.604 119.098 147.604H128.98C118.951 147.604 112.26 153.32 112.26 173.549C112.26 193.778 109.193 205.129 96.0586 204.716Z" fill="#F5D245" stroke="#1E1E21" stroke-width="3.4554" stroke-linecap="round" stroke-linejoin="round"/>
<path d="M105.941 204.716H97.1172C109.354 204.499 112.26 193.222 112.26 173.549C112.26 153.32 118.951 147.604 128.98 147.604H138.85C128.821 147.604 122.134 153.32 122.134 173.549C122.134 193.778 119.076 205.129 105.941 204.716Z" fill="#F5D245" stroke="#1E1E21" stroke-width="3.4554" stroke-linecap="round" stroke-linejoin="round"/>
<path d="M220.514 206.837C225.691 193.768 219.031 178.824 205.639 173.459C192.247 168.094 177.194 174.339 172.018 187.409C166.841 200.478 173.501 215.421 186.893 220.787C200.285 226.152 215.337 219.906 220.514 206.837Z" fill="#F5D245" stroke="#1E1E21" stroke-width="3.4554" stroke-linecap="round" stroke-linejoin="round"/>
<path d="M210.291 213.175C215.467 200.092 208.794 185.138 195.388 179.774C181.982 174.41 166.918 180.667 161.742 193.75C156.567 206.833 163.239 221.788 176.645 227.152C190.052 232.516 205.115 226.258 210.291 213.175Z" fill="#F5D245" stroke="#1E1E21" stroke-width="3.45851" stroke-linecap="round" stroke-linejoin="round"/>
<path d="M183.588 76.1265L148.313 61.7051L138.016 36.7324L208.398 65.5971L183.588 76.1265Z" fill="#F5D245"/>
<path d="M183.588 76.1265L148.313 61.7051L138.016 36.7324L208.398 65.5971L183.588 76.1265Z" fill="#F5D245"/>
<path d="M183.588 76.1265L148.313 61.7051L138.016 36.7324L208.398 65.5971L183.588 76.1265Z" stroke="#1E1E21" stroke-width="3.4554" stroke-linecap="round" stroke-linejoin="round"/>
<path d="M208.289 83.4599L208.41 65.5938" stroke="#1E1E21" stroke-width="3.4554" stroke-linecap="round" stroke-linejoin="round"/>
<path d="M208.407 65.5811C206.506 70.2855 202.824 74.0377 198.172 76.0122C193.52 77.9866 188.278 78.0215 183.6 76.1093V76.1093C185.502 71.4049 189.184 67.6527 193.836 65.6783C198.488 63.7038 203.73 63.6689 208.407 65.5811V65.5811Z" fill="#1E1E21"/>
<path d="M148.328 61.707C143.65 59.7948 139.919 56.0921 137.956 51.4134C135.993 46.7347 135.958 41.4633 137.859 36.7588V36.7588C142.537 38.671 146.268 42.3737 148.231 47.0524C150.195 51.7311 150.23 57.0026 148.328 61.707V61.707Z" fill="#1E1E21"/>
<path d="M138.845 153.902C138.845 153.902 146.896 161.752 140.14 173.15C132.366 186.255 118.039 194 102.874 194H62.1562C62.1562 172.49 79.2389 153.915 100.619 153.915L138.845 153.902Z" fill="#1E1E21" stroke="#1E1E21" stroke-width="3.4554" stroke-linecap="round" stroke-linejoin="round"/>
<path d="M62.3906 258.925V223.201" stroke="#1E1E21" stroke-width="3.4554" stroke-linecap="round" stroke-linejoin="round"/>
<path d="M48.2365 224.506H22.2734V283.256" stroke="#1E1E21" stroke-width="3.4554" stroke-linecap="round" stroke-linejoin="round"/>
<path d="M22.2734 283.256H30.1734" stroke="#1E1E21" stroke-width="3.4554" stroke-linecap="round" stroke-linejoin="round"/>
<path d="M30.1836 283.262H37.427C37.7207 282.146 31.7256 278.406 32.2871 277.428C32.8486 276.451 39.0769 279.8 39.8803 278.996C40.6837 278.193 37.3579 271.946 38.3211 271.36C39.2843 270.773 43.0118 276.824 44.1218 276.529C45.2319 276.234 45.4176 269.145 46.5752 269.145C47.7327 269.145 47.9573 276.242 49.0285 276.529C50.0997 276.816 53.8531 270.795 54.8249 271.36C55.7968 271.925 52.4709 278.193 53.27 278.996C54.0691 279.8 60.2888 276.438 60.8589 277.428C61.4291 278.419 55.4253 282.146 55.7233 283.262H63.0661" stroke="#1E1E21" stroke-width="3.4554" stroke-linecap="round" stroke-linejoin="round"/>
<path d="M62.3906 258.926H70.2905" stroke="#1E1E21" stroke-width="3.4554" stroke-linecap="round" stroke-linejoin="round"/>
<path d="M70.2812 258.916H77.516C77.814 257.8 71.8189 254.064 72.3804 253.087C72.9419 252.109 79.1703 255.454 79.9693 254.651C80.7684 253.847 77.4296 247.592 78.4144 247.019C79.3992 246.445 83.1008 252.483 84.2108 252.183C85.3209 251.884 85.5066 244.799 86.6642 244.799C87.8217 244.799 88.0463 251.901 89.1175 252.183C90.1887 252.466 93.9464 246.454 94.9183 247.019C95.8901 247.583 92.5643 253.86 93.3633 254.664C94.1624 255.467 100.408 252.109 100.957 253.1C101.505 254.09 95.523 257.817 95.8167 258.916H103.159" stroke="#1E1E21" stroke-width="3.4554" stroke-linecap="round" stroke-linejoin="round"/>
<path d="M167.131 104.467H129.052L110.164 85.2285L186.17 85.3154L167.131 104.467Z" fill="#F5D245"/>
<path d="M167.131 104.467H129.052L110.164 85.2285L186.17 85.3154L167.131 104.467Z" fill="#F5D245"/>
<path d="M167.131 104.467H129.052L110.164 85.2285L186.17 85.3154L167.131 104.467Z" stroke="#1E1E21" stroke-width="3.4554" stroke-linecap="round" stroke-linejoin="round"/>
<path d="M191.173 98.2219L186.18 85.3164" stroke="#1E1E21" stroke-width="3.4554" stroke-linecap="round" stroke-linejoin="round"/>
<path d="M186.176 85.3164C186.176 90.3947 184.17 95.2649 180.6 98.8558C177.029 102.447 172.186 104.464 167.137 104.464V104.464C167.137 99.3857 169.143 94.5155 172.713 90.9246C176.284 87.3337 181.126 85.3164 186.176 85.3164V85.3164Z" fill="#1E1E21"/>
<path d="M129.051 104.467C124.001 104.467 119.159 102.449 115.588 98.8586C112.017 95.2677 110.012 90.3975 110.012 85.3192V85.3192C115.061 85.3192 119.904 87.3366 123.474 90.9274C127.045 94.5183 129.051 99.3885 129.051 104.467V104.467Z" fill="#1E1E21"/>
<path d="M256.025 113.471C256.025 123.674 236.981 132.623 217.938 132.623C236.981 132.623 229.587 113.471 256.025 113.471Z" fill="#1E1E21" stroke="#1E1E21" stroke-width="3.4554" stroke-linecap="round" stroke-linejoin="round"/>
<path d="M236.989 103.987C240.155 103.987 242.721 101.407 242.721 98.2232C242.721 95.0397 240.155 92.459 236.989 92.459C233.824 92.459 231.258 95.0397 231.258 98.2232C231.258 101.407 233.824 103.987 236.989 103.987Z" fill="#F5D245" stroke="#1E1E21" stroke-width="3.4554" stroke-linecap="round" stroke-linejoin="round"/>
<path d="M247.705 100.862C239.36 101.34 234.837 103.964 231.598 107.109C225.849 112.682 224.134 119.91 212.425 119.91C209.084 119.915 205.801 119.034 202.907 117.356C200.012 115.678 197.609 113.263 195.938 110.353C195.938 110.353 193.813 104.876 194.5 102.865C195.187 100.853 199.415 100.584 200.724 98.8596C202.033 97.1351 201.156 93.0128 202.94 91.7748C204.724 90.5368 208.218 92.8651 210.317 92.2092C212.33 91.5924 213.945 87.6699 216.17 87.6699C219.521 87.6699 221.785 91.6271 224.039 92.2092C227.227 93.0215 231.049 91.0364 233.11 92.4742C235.429 94.1075 235.343 98.9899 237.783 100.575C239.822 101.931 247.411 100.71 247.705 100.862Z" fill="#FCFBF8" stroke="#1E1E21" stroke-width="3.4554" stroke-linecap="round" stroke-linejoin="round"/>
<path d="M256.015 113.47C229.577 113.47 236.972 132.622 217.928 132.622C207.415 132.622 197.753 121.229 195.926 110.36C197.596 113.27 200 115.685 202.894 117.363C205.789 119.041 209.072 119.922 212.412 119.917C224.122 119.917 225.837 112.671 231.573 107.098C234.812 103.953 239.347 101.329 247.679 100.852C248.111 100.826 248.543 100.808 248.996 100.799C249.45 100.791 249.99 100.773 250.5 100.773C252.24 101.808 253.704 103.255 254.763 104.987C255.521 106.246 256.023 107.645 256.238 109.102C256.453 110.558 256.377 112.044 256.015 113.47V113.47Z" fill="#F5D245" stroke="#1E1E21" stroke-width="3.4554" stroke-linecap="round" stroke-linejoin="round"/>
<path d="M254.719 107.984C258.173 107.984 260.973 106.032 260.973 103.623C260.973 101.214 258.173 99.2617 254.719 99.2617C251.265 99.2617 248.465 101.214 248.465 103.623C248.465 106.032 251.265 107.984 254.719 107.984Z" fill="#1E1E21" stroke="#1E1E21" stroke-width="3.4554" stroke-linecap="round" stroke-linejoin="round"/>
<path d="M214.634 111.6C218.925 111.6 222.404 108.101 222.404 103.785C222.404 99.4694 218.925 95.9707 214.634 95.9707C210.342 95.9707 206.863 99.4694 206.863 103.785C206.863 108.101 210.342 111.6 214.634 111.6Z" fill="#F5D245" stroke="#1E1E21" stroke-width="3.4554" stroke-linecap="round" stroke-linejoin="round"/>
<path d="M208.348 176.493L208.352 140.457" stroke="#1E1E21" stroke-width="3.4554" stroke-linecap="round" stroke-linejoin="round"/>
<path d="M138.845 153.902C138.845 153.902 146.896 161.752 140.14 173.15C132.366 186.255 118.039 194 102.874 194H62.1562C62.1562 172.49 79.2389 153.915 100.619 153.915L138.845 153.902Z" fill="#F5D245" stroke="#1E1E21" stroke-width="3.4554" stroke-linecap="round" stroke-linejoin="round"/>
<path d="M180.077 265.638C184.02 265.638 187.217 262.423 187.217 258.458C187.217 254.492 184.02 251.277 180.077 251.277C176.134 251.277 172.938 254.492 172.938 258.458C172.938 262.423 176.134 265.638 180.077 265.638Z" fill="#1E1E21"/>
<path d="M180.086 258.455H221.927" stroke="#1E1E21" stroke-width="3.4554" stroke-linecap="round" stroke-linejoin="round"/>
<path d="M180.086 258.456V227.498" stroke="#1E1E21" stroke-width="3.4554" stroke-linecap="round" stroke-linejoin="round"/>
<path d="M221.922 258.48H229.822C229.822 258.48 236.616 260.847 237.415 260.043C238.214 259.24 234.871 252.963 235.856 252.398C236.841 251.834 240.547 257.854 241.657 257.554C242.767 257.255 242.952 250.17 244.11 250.17C245.267 250.17 245.492 257.272 246.563 257.554C247.634 257.837 251.388 251.825 252.36 252.398C253.331 252.972 250.006 259.227 250.805 260.03C251.604 260.834 257.824 257.476 258.394 258.467C258.964 259.457 252.96 263.171 253.258 264.287H260.601" stroke="#1E1E21" stroke-width="3.4554" stroke-linecap="round" stroke-linejoin="round"/>
<path d="M162.24 241.651H156.219C164.572 241.49 166.559 233.189 166.559 218.707C166.559 203.816 171.124 199.594 177.971 199.594H184.717C177.871 199.594 173.306 203.799 173.306 218.707C173.306 233.615 171.211 241.972 162.24 241.651Z" fill="#F5D245" stroke="#1E1E21" stroke-width="3.4554" stroke-linecap="round" stroke-linejoin="round"/>
<path d="M168.982 241.651H162.957C171.31 241.49 173.297 233.189 173.297 218.707C173.297 203.816 177.863 199.594 184.709 199.594H191.455C184.609 199.594 180.044 203.799 180.044 218.707C180.044 233.615 177.949 241.972 168.982 241.651Z" fill="#F5D245" stroke="#1E1E21" stroke-width="3.4554" stroke-linecap="round" stroke-linejoin="round"/>
<path d="M175.918 241.651H169.871C178.25 241.49 180.233 233.189 180.233 218.707C180.233 203.816 184.803 199.594 191.649 199.594H198.395C191.549 199.594 186.98 203.799 186.98 218.707C186.98 233.615 184.885 241.972 175.918 241.651Z" fill="#F5D245" stroke="#1E1E21" stroke-width="3.4554" stroke-linecap="round" stroke-linejoin="round"/>
<path d="M182.656 241.651H176.609C184.967 241.49 186.95 233.189 186.95 218.707C186.95 203.816 191.519 199.594 198.365 199.594H205.112C198.266 199.594 193.701 203.799 193.701 218.707C193.701 233.615 191.623 241.972 182.656 241.651Z" fill="#F5D245" stroke="#1E1E21" stroke-width="3.4554" stroke-linecap="round" stroke-linejoin="round"/>
<path d="M213.083 140.822C213.083 138.617 211.306 136.83 209.114 136.83C206.922 136.83 205.145 138.617 205.145 140.822V178.47C205.145 180.675 206.922 182.462 209.114 182.462C211.306 182.462 213.083 180.675 213.083 178.47V140.822Z" fill="#F5D245" stroke="#1E1E21" stroke-width="3.4554" stroke-linecap="round" stroke-linejoin="round"/>
<path d="M48.3867 124.256C48.3867 138.86 57.8891 150.679 69.6245 150.679" stroke="#1E1E21" stroke-width="3.4554" stroke-linecap="round" stroke-linejoin="round"/>
<path d="M31.7266 124.253C31.7266 122.876 34.6377 121.903 34.9746 120.631C35.3115 119.358 33.2988 117.012 33.9596 115.852C34.6205 114.693 37.6353 115.305 38.5769 114.358C39.5185 113.411 38.9052 110.388 40.0627 109.715C41.2203 109.041 43.5181 111.087 44.8139 110.735C46.1097 110.383 47.0426 107.469 48.4118 107.469C49.781 107.469 50.7486 110.396 52.0098 110.735C53.271 111.074 55.612 109.05 56.761 109.715C57.9099 110.379 57.3052 113.411 58.2468 114.358C59.1884 115.305 62.1946 114.688 62.8641 115.852C63.5336 117.016 61.4992 119.327 61.8447 120.631C62.1903 121.934 65.0971 122.876 65.0971 124.253C65.0971 125.63 62.1859 126.603 61.8447 127.872C61.5035 129.14 63.5249 131.494 62.8641 132.65C62.2032 133.805 59.1884 133.202 58.2468 134.149C57.3052 135.095 57.9185 138.114 56.7566 138.792C55.5948 139.47 53.3228 137.415 52.0055 137.767C50.6881 138.119 49.7767 141.038 48.4075 141.038C47.0383 141.038 46.0708 138.106 44.8053 137.767C43.5397 137.428 41.2073 139.457 40.0541 138.792C38.9008 138.127 39.5099 135.095 38.5683 134.149C37.6267 133.202 34.6205 133.818 33.951 132.65C33.2815 131.481 35.3159 129.197 34.966 127.872C34.6161 126.547 31.7266 125.626 31.7266 124.253Z" fill="#F5D245"/>
<path d="M31.7266 124.253C31.7266 122.876 34.6377 121.903 34.9746 120.631C35.3115 119.358 33.2988 117.012 33.9596 115.852C34.6205 114.693 37.6353 115.305 38.5769 114.358C39.5185 113.411 38.9052 110.388 40.0627 109.715C41.2203 109.041 43.5181 111.087 44.8139 110.735C46.1097 110.383 47.0426 107.469 48.4118 107.469C49.781 107.469 50.7486 110.396 52.0098 110.735C53.271 111.074 55.612 109.05 56.761 109.715C57.9099 110.379 57.3052 113.411 58.2468 114.358C59.1884 115.305 62.1946 114.688 62.8641 115.852C63.5336 117.016 61.4992 119.327 61.8447 120.631C62.1903 121.934 65.0971 122.876 65.0971 124.253C65.0971 125.63 62.1859 126.603 61.8447 127.872C61.5035 129.14 63.5249 131.494 62.8641 132.65C62.2032 133.805 59.1884 133.202 58.2468 134.149C57.3052 135.095 57.9185 138.114 56.7566 138.792C55.5948 139.47 53.3228 137.415 52.0055 137.767C50.6881 138.119 49.7767 141.038 48.4075 141.038C47.0383 141.038 46.0708 138.106 44.8053 137.767C43.5397 137.428 41.2073 139.457 40.0541 138.792C38.9008 138.127 39.5099 135.095 38.5683 134.149C37.6267 133.202 34.6205 133.818 33.951 132.65C33.2815 131.481 35.3159 129.197 34.966 127.872C34.6161 126.547 31.7266 125.626 31.7266 124.253Z" stroke="#1E1E21" stroke-width="3.4554" stroke-linecap="round" stroke-linejoin="round"/>
<path d="M203.483 171.325C193.117 178.497 180.353 179.531 169.119 175.547L117.996 153.746L138.858 147.604L203.483 171.325Z" fill="#F5D245" stroke="#1E1E21" stroke-width="3.4554" stroke-linecap="round" stroke-linejoin="round"/>
<path d="M117.985 153.746H58.2109L79.0859 147.604H138.86L117.985 153.746Z" fill="#F5D245" stroke="#1E1E21" stroke-width="3.4554" stroke-linecap="round" stroke-linejoin="round"/>
<path d="M32.0712 225.523H21.7266C36.0708 225.25 39.5003 211.076 39.5003 186.372C39.5003 160.948 47.3397 153.768 59.0967 153.768H70.681C58.924 153.768 51.0845 160.948 51.0845 186.372C51.0845 211.797 47.465 226.044 32.0712 225.523Z" fill="#F5D245" stroke="#1E1E21" stroke-width="3.4554" stroke-linecap="round" stroke-linejoin="round"/>
<path d="M43.6553 225.521H33.2891C47.6333 225.248 51.0412 211.074 51.0412 186.349C51.0412 160.924 58.8806 153.744 70.6377 153.744H82.2608C70.5038 153.744 62.6643 160.924 62.6643 186.349C62.6643 211.773 59.0491 226.043 43.6553 225.521Z" fill="#F5D245" stroke="#1E1E21" stroke-width="3.4554" stroke-linecap="round" stroke-linejoin="round"/>
<path d="M55.2373 225.521H44.8711C59.2197 225.248 62.6275 211.074 62.6275 186.349C62.6275 160.924 70.467 153.744 82.224 153.744H93.8083C82.0512 153.744 74.2118 160.924 74.2118 186.349C74.2118 211.773 70.6354 226.043 55.2373 225.521Z" fill="#F5D245" stroke="#1E1E21" stroke-width="3.4554" stroke-linecap="round" stroke-linejoin="round"/>
<path d="M66.8368 225.521H56.4922C70.8408 225.248 74.2486 211.074 74.2486 186.349C74.2486 160.924 82.0881 153.744 93.8451 153.744H105.425C93.6723 153.744 85.8329 160.924 85.8329 186.349C85.8329 211.773 82.2349 226.043 66.8368 225.521Z" fill="#F5D245" stroke="#1E1E21" stroke-width="3.4554" stroke-linecap="round" stroke-linejoin="round"/>
</g>
<defs>
<clipPath id="clip0_494_188575">
<rect width="320" height="320" rx="24" fill="white"/>
</clipPath>
</defs>
</svg>
