<svg width="320" height="320" viewBox="0 0 320 320" fill="none" xmlns="http://www.w3.org/2000/svg">
<g clip-path="url(#clip0_494_189290)">
<rect width="320" height="320" rx="24" fill="white" fill-opacity="0.08"/>
<rect width="320" height="320" rx="24" fill="#BA6332"/>
<path d="M143.96 134.775C143.978 135.366 143.371 135.771 142.832 135.529L138.433 133.548C137.86 133.29 137.795 132.502 138.317 132.153L142.569 129.312C143.091 128.963 143.794 129.325 143.813 129.953L143.96 134.775Z" fill="#FFCC00" stroke="black" stroke-width="0.8"/>
<path d="M142.222 133.394C142.589 133.148 142.688 132.651 142.443 132.284C142.197 131.917 141.701 131.818 141.333 132.063C140.966 132.309 140.867 132.806 141.112 133.173C141.358 133.54 141.855 133.639 142.222 133.394Z" fill="black"/>
<path d="M177.168 184.472C176.629 184.229 176.022 184.635 176.04 185.226L176.187 190.048C176.206 190.676 176.908 191.037 177.431 190.688L181.682 187.848C182.205 187.498 182.139 186.711 181.566 186.453L177.168 184.472Z" fill="#FFCC00" stroke="black" stroke-width="0.8"/>
<path d="M177.78 186.608C178.148 186.363 178.644 186.461 178.89 186.829C179.135 187.196 179.036 187.693 178.669 187.938C178.302 188.184 177.805 188.085 177.559 187.718C177.314 187.35 177.413 186.853 177.78 186.608Z" fill="black"/>
<path d="M134.773 176.04C135.364 176.022 135.769 176.629 135.527 177.168L133.546 181.567C133.288 182.14 132.5 182.205 132.151 181.683L129.31 177.431C128.961 176.909 129.323 176.206 129.951 176.187L134.773 176.04Z" fill="#FFCC00" stroke="black" stroke-width="0.8"/>
<path d="M133.394 177.778C133.148 177.411 132.651 177.312 132.284 177.557C131.917 177.803 131.818 178.299 132.063 178.667C132.309 179.034 132.806 179.133 133.173 178.888C133.54 178.642 133.639 178.145 133.394 177.778Z" fill="black"/>
<path d="M184.47 142.834C184.227 143.373 184.633 143.98 185.224 143.962L190.046 143.815C190.674 143.796 191.035 143.094 190.686 142.571L187.846 138.32C187.497 137.797 186.709 137.863 186.451 138.436L184.47 142.834Z" fill="#FFCC00" stroke="black" stroke-width="0.8"/>
<path d="M186.604 142.224C186.359 141.856 186.457 141.36 186.825 141.114C187.192 140.869 187.689 140.967 187.934 141.335C188.18 141.702 188.081 142.199 187.714 142.444C187.346 142.69 186.85 142.591 186.604 142.224Z" fill="black"/>
<path d="M166.497 130.822C166.092 131.253 165.376 131.111 165.166 130.558L163.457 126.047C163.234 125.459 163.745 124.856 164.361 124.979L169.376 125.976C169.992 126.099 170.233 126.852 169.803 127.309L166.497 130.822Z" fill="#FFCC00" stroke="black" stroke-width="0.8"/>
<path d="M166.246 128.616C166.679 128.702 167.1 128.421 167.187 127.987C167.273 127.554 166.991 127.133 166.558 127.047C166.125 126.961 165.704 127.242 165.617 127.675C165.531 128.109 165.813 128.53 166.246 128.616Z" fill="black"/>
<path d="M154.836 189.444C154.627 188.892 153.911 188.749 153.506 189.18L150.2 192.693C149.769 193.151 150.01 193.903 150.627 194.026L155.642 195.023C156.258 195.146 156.768 194.543 156.546 193.955L154.836 189.444Z" fill="#FFCC00" stroke="black" stroke-width="0.8"/>
<path d="M153.757 191.386C154.19 191.472 154.472 191.893 154.385 192.326C154.299 192.76 153.878 193.041 153.445 192.955C153.011 192.869 152.73 192.448 152.816 192.014C152.902 191.581 153.324 191.299 153.757 191.386Z" fill="black"/>
<path d="M130.82 153.505C131.251 153.91 131.109 154.626 130.556 154.836L126.045 156.545C125.457 156.768 124.854 156.257 124.977 155.641L125.974 150.626C126.097 150.01 126.85 149.769 127.307 150.199L130.82 153.505Z" fill="#FFCC00" stroke="black" stroke-width="0.8"/>
<path d="M128.616 153.758C128.702 153.325 128.421 152.903 127.987 152.817C127.554 152.731 127.133 153.013 127.047 153.446C126.961 153.879 127.242 154.3 127.675 154.387C128.109 154.473 128.53 154.191 128.616 153.758Z" fill="black"/>
<path d="M189.442 165.166C188.89 165.375 188.747 166.091 189.178 166.496L192.691 169.802C193.149 170.233 193.901 169.992 194.024 169.375L195.021 164.36C195.144 163.744 194.541 163.234 193.953 163.456L189.442 165.166Z" fill="#FFCC00" stroke="black" stroke-width="0.8"/>
<path d="M191.384 166.243C191.47 165.81 191.891 165.528 192.324 165.615C192.758 165.701 193.039 166.122 192.953 166.555C192.867 166.989 192.446 167.27 192.012 167.184C191.579 167.098 191.297 166.676 191.384 166.243Z" fill="black"/>
<circle cx="160" cy="160" r="3.52" fill="black"/>
<circle cx="160.003" cy="160.001" r="4.88" stroke="black" stroke-width="0.8"/>
<path d="M160 41.5996V278.4" stroke="black" stroke-width="0.8"/>
<path d="M278.402 160L41.6023 160" stroke="black" stroke-width="0.8"/>
<path d="M269.391 114.689L50.616 205.309" stroke="black" stroke-width="0.8"/>
<path d="M269.391 205.309L50.616 114.689" stroke="black" stroke-width="0.8"/>
<path d="M76.2812 76.2793L243.724 243.722" stroke="black" stroke-width="0.8"/>
<path d="M243.723 76.2793L76.2798 243.722" stroke="black" stroke-width="0.8"/>
<path d="M205.312 50.6113L114.693 269.386" stroke="black" stroke-width="0.8"/>
<path d="M114.691 50.6113L205.311 269.386" stroke="black" stroke-width="0.8"/>
<path d="M64.8434 199.018C59.6974 186.594 57.0487 173.278 57.0487 159.831L71.3847 159.831C71.3847 171.396 73.6625 182.847 78.0882 193.532L64.8434 199.018Z" fill="#FFCC00" stroke="black" stroke-width="0.8" stroke-linecap="round"/>
<path d="M86.9126 232.325C77.4038 222.816 69.8611 211.528 64.715 199.104L77.9598 193.618C82.3854 204.302 88.8722 214.01 97.0496 222.188L86.9126 232.325Z" fill="#FFCC00" stroke="black" stroke-width="0.8" stroke-linecap="round"/>
<path d="M198.42 254.957C185.996 260.103 172.681 262.752 159.233 262.752L159.233 248.416C170.798 248.416 182.25 246.138 192.934 241.713L198.42 254.957Z" fill="#FFCC00" stroke="black" stroke-width="0.8" stroke-linecap="round"/>
<path d="M160.002 57.6004C173.45 57.6004 186.765 60.2491 199.189 65.3951L193.703 78.6399C183.019 74.2142 171.567 71.9364 160.002 71.9364L160.002 57.6004Z" fill="#FFCC00" stroke="black" stroke-width="0.8" stroke-linecap="round"/>
<path d="M54.5533 116.767C49.0103 114.487 42.778 114.497 37.2273 116.796C31.6767 119.095 27.2625 123.495 24.9557 129.027C22.6489 134.559 22.6386 140.771 24.9269 146.295C27.2153 151.82 31.6149 156.205 37.1578 158.486" stroke="#AF3F07" stroke-width="1.6" stroke-miterlimit="10" stroke-dasharray="2.64 2.64"/>
<path d="M62.0039 142.199L84.4039 142.199" stroke="black" stroke-width="1.6" stroke-miterlimit="10"/>
<path d="M65.2031 150.199L81.0423 134.36" stroke="black" stroke-width="1.6" stroke-miterlimit="10"/>
<path d="M264.65 203.432C270.193 205.713 276.425 205.702 281.976 203.403C287.526 201.104 291.941 196.704 294.247 191.172C296.554 185.64 296.565 179.428 294.276 173.904C291.988 168.379 287.588 163.994 282.045 161.713" stroke="#AF3F07" stroke-width="1.6" stroke-miterlimit="10" stroke-dasharray="2.64 2.64"/>
<path d="M257.199 178L234.799 178" stroke="black" stroke-width="1.6" stroke-miterlimit="10"/>
<path d="M254 170L238.161 185.839" stroke="black" stroke-width="1.6" stroke-miterlimit="10"/>
<path d="M199.159 65.548C211.583 70.6941 222.871 78.2368 232.38 87.7455L222.243 97.8826C214.065 89.7051 204.357 83.2184 193.673 78.7927L199.159 65.548Z" fill="#FFCC00" stroke="black" stroke-width="0.8" stroke-linecap="round"/>
<path d="M160.002 57.6004C173.45 57.6004 186.765 60.2491 199.189 65.3951L193.703 78.6399C183.019 74.2142 171.567 71.9364 160.002 71.9364L160.002 57.6004Z" fill="#FFCC00" stroke="black" stroke-width="0.8" stroke-linecap="round"/>
<rect width="19.2" height="3.2" transform="matrix(-0.382683 0.92388 0.92388 0.382683 115.734 40.6543)" fill="black"/>
<path d="M118.691 41.8789L111.344 59.6174" stroke="black" stroke-width="0.8"/>
<rect width="19.2" height="3.2" transform="matrix(-8.42937e-08 1 1 8.42937e-08 73.4336 66.6777)" fill="black"/>
<path d="M76.6328 66.6777L76.6328 85.8777" stroke="black" stroke-width="0.8"/>
<rect width="19.2" height="3.2" transform="matrix(0.382683 0.92388 0.92388 -0.382683 44.3086 106.908)" fill="black"/>
<path d="M47.2656 105.684L54.6131 123.422" stroke="black" stroke-width="0.8"/>
<rect width="19.2" height="3.2" transform="matrix(0.707107 0.707107 0.707107 -0.707107 32.8008 155.223)" fill="black"/>
<path d="M35.0625 152.961L48.6389 166.537" stroke="black" stroke-width="0.8"/>
<rect width="19.2" height="3.2" transform="matrix(0.923879 0.382683 0.382683 -0.923879 40.6523 204.266)" fill="black"/>
<path d="M41.8789 201.309L59.6174 208.656" stroke="black" stroke-width="0.8"/>
<rect width="19.2" height="3.2" transform="matrix(1 0 0 -1 66.6797 246.566)" fill="black"/>
<path d="M66.6797 243.367H85.8797" stroke="black" stroke-width="0.8"/>
<rect width="19.2" height="3.2" transform="matrix(0.923879 -0.382683 -0.382683 -0.923879 106.91 275.691)" fill="black"/>
<path d="M105.684 272.734L123.422 265.387" stroke="black" stroke-width="0.8"/>
<rect width="19.2" height="3.2" transform="matrix(0.707107 -0.707107 -0.707107 -0.707107 155.223 287.199)" fill="black"/>
<path d="M152.961 284.938L166.537 271.361" stroke="black" stroke-width="0.8"/>
<rect width="19.2" height="3.2" transform="matrix(0.382683 -0.92388 -0.92388 -0.382683 204.266 279.346)" fill="black"/>
<path d="M201.309 278.121L208.656 260.383" stroke="black" stroke-width="0.8"/>
<rect width="19.2" height="3.2" transform="matrix(8.42937e-08 -1 -1 -8.42937e-08 246.566 253.322)" fill="black"/>
<path d="M243.367 253.322L243.367 234.122" stroke="black" stroke-width="0.8"/>
<rect width="19.2" height="3.2" transform="matrix(-0.382683 -0.92388 -0.92388 0.382683 275.691 213.092)" fill="black"/>
<path d="M272.734 214.316L265.387 196.578" stroke="black" stroke-width="0.8"/>
<rect width="19.2" height="3.2" transform="matrix(-0.707107 -0.707107 -0.707107 0.707107 287.199 164.777)" fill="black"/>
<path d="M284.938 167.039L271.361 153.463" stroke="black" stroke-width="0.8"/>
<rect width="19.2" height="3.2" transform="matrix(-0.923879 -0.382683 -0.382683 0.923879 279.348 115.734)" fill="black"/>
<path d="M278.121 118.691L260.383 111.344" stroke="black" stroke-width="0.8"/>
<rect width="19.2" height="3.2" transform="matrix(-1 0 0 1 253.32 73.4336)" fill="black"/>
<path d="M253.32 76.6328H234.12" stroke="black" stroke-width="0.8"/>
<rect width="19.2" height="3.2" transform="matrix(-0.923879 0.382683 0.382683 0.923879 213.09 44.3086)" fill="black"/>
<path d="M214.316 47.2656L196.578 54.6131" stroke="black" stroke-width="0.8"/>
<rect width="19.2" height="3.2" transform="matrix(-0.707107 0.707107 0.707107 0.707107 164.777 32.8008)" fill="black"/>
<path d="M167.039 35.0625L153.463 48.6389" stroke="black" stroke-width="0.8"/>
<circle cx="160.002" cy="160.002" r="6.4" fill="#FFCC00" stroke="black" stroke-width="0.8"/>
</g>
<defs>
<clipPath id="clip0_494_189290">
<rect width="320" height="320" rx="24" fill="white"/>
</clipPath>
</defs>
</svg>
