<svg width="320" height="320" viewBox="0 0 320 320" fill="none" xmlns="http://www.w3.org/2000/svg">
<g clip-path="url(#clip0_494_189485)">
<path d="M0.00160098 76.4707C0.00160098 56.1894 7.71787 36.7389 21.4529 22.3978C35.188 8.05682 53.8167 0.000116211 73.241 0.000114679C92.6653 0.000113148 111.294 8.05681 125.029 22.3978C138.764 36.7388 146.48 56.1894 146.48 76.4707L0.00160098 76.4707Z" fill="url(#paint0_linear_494_189485)"/>
<path d="M146.479 76.4707C146.479 96.752 138.763 116.203 125.028 130.544C111.292 144.885 92.6637 152.941 73.2394 152.941C53.8151 152.941 35.1864 144.885 21.4513 130.544C7.71628 116.203 2.93299e-06 96.752 0 76.4707L146.479 76.4707Z" fill="url(#paint1_linear_494_189485)"/>
<path d="M319.998 76.4707C319.998 56.1894 312.282 36.7389 298.547 22.3978C284.812 8.05682 266.183 0.000116211 246.759 0.000114679C227.335 0.000113148 208.706 8.05681 194.971 22.3978C181.236 36.7388 173.52 56.1894 173.52 76.4707L319.998 76.4707Z" fill="url(#paint2_linear_494_189485)"/>
<path d="M173.521 76.4707C173.521 96.752 181.237 116.203 194.972 130.544C208.708 144.885 227.336 152.941 246.761 152.941C266.185 152.941 284.814 144.885 298.549 130.544C312.284 116.203 320 96.752 320 76.4707L173.521 76.4707Z" fill="url(#paint3_linear_494_189485)"/>
<path d="M173.521 243.529C173.521 223.248 181.237 203.797 194.972 189.456C208.708 175.115 227.336 167.059 246.761 167.059C266.185 167.059 284.814 175.115 298.549 189.456C312.284 203.797 320 223.248 320 243.529L173.521 243.529Z" fill="url(#paint4_linear_494_189485)"/>
<path d="M319.998 243.529C319.998 263.811 312.282 283.261 298.547 297.602C284.812 311.943 266.183 320 246.759 320C227.335 320 208.706 311.943 194.971 297.602C181.236 283.261 173.52 263.811 173.52 243.529L319.998 243.529Z" fill="url(#paint5_linear_494_189485)"/>
<path d="M146.479 243.529C146.479 223.248 138.763 203.797 125.028 189.456C111.292 175.115 92.6637 167.059 73.2394 167.059C53.8151 167.059 35.1864 175.115 21.4513 189.456C7.71628 203.797 2.93299e-06 223.248 0 243.529L146.479 243.529Z" fill="url(#paint6_linear_494_189485)"/>
<path d="M0.00160098 243.529C0.00160098 263.811 7.71787 283.261 21.4529 297.602C35.188 311.943 53.8167 320 73.241 320C92.6653 320 111.294 311.943 125.029 297.602C138.764 283.261 146.48 263.811 146.48 243.529L0.00160098 243.529Z" fill="url(#paint7_linear_494_189485)"/>
</g>
<defs>
<linearGradient id="paint0_linear_494_189485" x1="40.076" y1="64.2065" x2="151.318" y2="65.5301" gradientUnits="userSpaceOnUse">
<stop stop-color="white" stop-opacity="0"/>
<stop offset="1" stop-color="white"/>
</linearGradient>
<linearGradient id="paint1_linear_494_189485" x1="106.404" y1="88.7349" x2="-4.83798" y2="87.4114" gradientUnits="userSpaceOnUse">
<stop stop-color="white" stop-opacity="0"/>
<stop offset="1" stop-color="white"/>
</linearGradient>
<linearGradient id="paint2_linear_494_189485" x1="279.924" y1="64.2065" x2="168.682" y2="65.5301" gradientUnits="userSpaceOnUse">
<stop stop-color="white" stop-opacity="0"/>
<stop offset="1" stop-color="white"/>
</linearGradient>
<linearGradient id="paint3_linear_494_189485" x1="213.596" y1="88.7349" x2="324.838" y2="87.4114" gradientUnits="userSpaceOnUse">
<stop stop-color="white" stop-opacity="0"/>
<stop offset="1" stop-color="white"/>
</linearGradient>
<linearGradient id="paint4_linear_494_189485" x1="213.596" y1="231.265" x2="324.838" y2="232.589" gradientUnits="userSpaceOnUse">
<stop stop-color="white" stop-opacity="0"/>
<stop offset="1" stop-color="white"/>
</linearGradient>
<linearGradient id="paint5_linear_494_189485" x1="279.924" y1="255.793" x2="168.682" y2="254.47" gradientUnits="userSpaceOnUse">
<stop stop-color="white" stop-opacity="0"/>
<stop offset="1" stop-color="white"/>
</linearGradient>
<linearGradient id="paint6_linear_494_189485" x1="106.404" y1="231.265" x2="-4.83798" y2="232.589" gradientUnits="userSpaceOnUse">
<stop stop-color="white" stop-opacity="0"/>
<stop offset="1" stop-color="white"/>
</linearGradient>
<linearGradient id="paint7_linear_494_189485" x1="40.076" y1="255.793" x2="151.318" y2="254.47" gradientUnits="userSpaceOnUse">
<stop stop-color="white" stop-opacity="0"/>
<stop offset="1" stop-color="white"/>
</linearGradient>
<clipPath id="clip0_494_189485">
<rect width="320" height="320" rx="24" fill="white"/>
</clipPath>
</defs>
</svg>
