<svg width="320" height="320" viewBox="0 0 320 320" fill="none" xmlns="http://www.w3.org/2000/svg">
<rect opacity="0.4" x="71.3906" y="32" width="177.231" height="256" rx="14.7692" fill="#FCFBF8"/>
<rect opacity="0.4" x="51.6953" y="51.6914" width="216.615" height="216.615" rx="14.7692" fill="#FCFBF8"/>
<rect opacity="0.4" x="32.0039" y="71.3848" width="256" height="177.231" rx="14.7692" fill="#FCFBF8"/>
<rect x="71.3906" y="32" width="177.231" height="256" rx="14.7692" stroke="#1E1E21"/>
<rect x="51.6953" y="51.6914" width="216.615" height="216.615" rx="14.7692" stroke="#1E1E21"/>
<rect x="32.0039" y="71.3848" width="256" height="177.231" rx="14.7692" stroke="#1E1E21"/>
<path d="M237.706 82.6273C254.412 99.3336 254.412 126.418 237.706 143.124L213.659 167.171H189.612L201.762 179.321L153.415 227.668H92.918V167.171L177.462 82.6273C193.915 65.9211 220.999 65.9211 237.706 82.6273Z" fill="#2752E7"/>
<path d="M74.6953 249.182C73.9359 249.182 72.9234 248.929 72.1641 248.17C70.8984 246.904 70.8984 244.626 72.1641 243.107L211.13 104.395C212.395 103.129 214.673 103.129 216.192 104.395C217.458 105.66 217.458 107.938 216.192 109.457L77.2266 248.17C76.4672 248.676 75.4547 249.182 74.6953 249.182Z" fill="#0083F5"/>
</svg>
