<svg width="320" height="320" viewBox="0 0 320 320" fill="none" xmlns="http://www.w3.org/2000/svg">
<g clip-path="url(#clip0_494_189498)">
<rect opacity="0.1" width="31.9643" height="8.09755" transform="matrix(1 4.37114e-08 4.37114e-08 -1 2.32422 81.7793)" fill="#EDEBE4"/>
<path fill-rule="evenodd" clip-rule="evenodd" d="M57.1207 73.6811L34.2891 73.6811L34.2891 75.9824L57.1207 75.9824L57.1207 73.6811Z" fill="#EDEBE4"/>
<path fill-rule="evenodd" clip-rule="evenodd" d="M79.9528 79.4779L57.1211 79.4779L57.1211 81.7793L79.9528 81.7793L79.9528 79.4779Z" fill="#EDEBE4"/>
<path fill-rule="evenodd" clip-rule="evenodd" d="M102.785 73.6811L79.9531 73.6811L79.9531 75.9824L102.785 75.9824L102.785 73.6811Z" fill="#EDEBE4"/>
<path fill-rule="evenodd" clip-rule="evenodd" d="M125.613 79.4779L102.781 79.4779L102.781 81.7793L125.613 81.7793L125.613 79.4779Z" fill="#EDEBE4"/>
<path fill-rule="evenodd" clip-rule="evenodd" d="M148.449 73.6811L125.617 73.6811L125.617 75.9824L148.449 75.9824L148.449 73.6811Z" fill="#EDEBE4"/>
<path fill-rule="evenodd" clip-rule="evenodd" d="M171.277 79.4779L148.445 79.4779L148.445 81.7793L171.277 81.7793L171.277 79.4779Z" fill="#EDEBE4"/>
<path fill-rule="evenodd" clip-rule="evenodd" d="M194.109 73.6811L171.277 73.6811L171.277 75.9824L194.109 75.9824L194.109 73.6811Z" fill="#EDEBE4"/>
<path fill-rule="evenodd" clip-rule="evenodd" d="M216.941 79.4779L194.109 79.4779L194.109 81.7793L216.941 81.7793L216.941 79.4779Z" fill="#EDEBE4"/>
<path fill-rule="evenodd" clip-rule="evenodd" d="M239.773 73.6811L216.941 73.6811L216.941 75.9824L239.773 75.9824L239.773 73.6811Z" fill="#EDEBE4"/>
<path fill-rule="evenodd" clip-rule="evenodd" d="M262.605 79.4779L239.773 79.4779L239.773 81.7793L262.605 81.7793L262.605 79.4779Z" fill="#EDEBE4"/>
<path fill-rule="evenodd" clip-rule="evenodd" d="M285.437 73.6811L262.605 73.6811L262.605 75.9824L285.437 75.9824L285.437 73.6811Z" fill="#EDEBE4"/>
<rect opacity="0.1" width="31.9643" height="8.09755" transform="matrix(1 4.37114e-08 4.37114e-08 -1 285.438 81.7793)" fill="#EDEBE4"/>
<path d="M2.32422 8.90127L34.0762 73.6816L285.649 73.6817L317.401 8.90128L2.32422 8.90127Z" stroke="#EDEBE4" stroke-width="0.575342"/>
<path d="M46.3776 73.6816L32.7422 9.10973" stroke="#EDEBE4" stroke-width="0.575342"/>
<path d="M71.7023 73.6816L60.9375 9.10973" stroke="#EDEBE4" stroke-width="0.575342"/>
<path d="M97.0348 73.6816L89.1406 9.10973" stroke="#EDEBE4" stroke-width="0.575342"/>
<path d="M122.36 73.6816L117.336 9.10973" stroke="#EDEBE4" stroke-width="0.575342"/>
<path d="M147.692 73.6816L145.539 9.10973" stroke="#EDEBE4" stroke-width="0.575342"/>
<path d="M172.035 73.6816L174.188 9.10973" stroke="#EDEBE4" stroke-width="0.575342"/>
<path d="M197.363 73.6816L202.387 9.10973" stroke="#EDEBE4" stroke-width="0.575342"/>
<path d="M222.692 73.6816L230.586 9.10973" stroke="#EDEBE4" stroke-width="0.575342"/>
<path d="M248.02 73.6816L258.785 9.10973" stroke="#EDEBE4" stroke-width="0.575342"/>
<path d="M273.349 73.6816L286.984 9.10973" stroke="#EDEBE4" stroke-width="0.575342"/>
<path fill-rule="evenodd" clip-rule="evenodd" d="M30.8638 0.804744L2.32422 0.804742L2.32422 4.85352L30.8638 4.85352L30.8638 0.804744Z" fill="#EDEBE4"/>
<path fill-rule="evenodd" clip-rule="evenodd" d="M59.4029 4.85357L30.8633 4.85357L30.8633 8.90234L59.4029 8.90234L59.4029 4.85357Z" fill="#EDEBE4"/>
<path fill-rule="evenodd" clip-rule="evenodd" d="M87.9419 0.804744L59.4023 0.804742L59.4023 4.85352L87.9419 4.85352L87.9419 0.804744Z" fill="#EDEBE4"/>
<path fill-rule="evenodd" clip-rule="evenodd" d="M116.481 4.85357L87.9414 4.85357L87.9414 8.90234L116.481 8.90234L116.481 4.85357Z" fill="#EDEBE4"/>
<path fill-rule="evenodd" clip-rule="evenodd" d="M145.024 0.804744L116.484 0.804742L116.484 4.85352L145.024 4.85352L145.024 0.804744Z" fill="#EDEBE4"/>
<path fill-rule="evenodd" clip-rule="evenodd" d="M173.563 4.85357L145.023 4.85357L145.023 8.90234L173.563 8.90234L173.563 4.85357Z" fill="#EDEBE4"/>
<path fill-rule="evenodd" clip-rule="evenodd" d="M202.102 0.804744L173.563 0.804742L173.562 4.85352L202.102 4.85352L202.102 0.804744Z" fill="#EDEBE4"/>
<path fill-rule="evenodd" clip-rule="evenodd" d="M230.641 4.85357L202.102 4.85357L202.102 8.90234L230.641 8.90234L230.641 4.85357Z" fill="#EDEBE4"/>
<path fill-rule="evenodd" clip-rule="evenodd" d="M259.18 0.804744L230.641 0.804742L230.641 4.85352L259.18 4.85352L259.18 0.804744Z" fill="#EDEBE4"/>
<path fill-rule="evenodd" clip-rule="evenodd" d="M287.719 4.85357L259.18 4.85357L259.18 8.90234L287.719 8.90234L287.719 4.85357Z" fill="#EDEBE4"/>
<path fill-rule="evenodd" clip-rule="evenodd" d="M316.258 0.804744L287.719 0.804742L287.719 4.85352L316.258 4.85352L316.258 0.804744Z" fill="#EDEBE4"/>
<rect opacity="0.1" x="2.32422" y="80.2207" width="31.9643" height="8.09755" fill="#EDEBE4"/>
<path fill-rule="evenodd" clip-rule="evenodd" d="M57.1207 88.3189L34.2891 88.3189L34.2891 86.0176L57.1207 86.0176L57.1207 88.3189Z" fill="#EDEBE4"/>
<path fill-rule="evenodd" clip-rule="evenodd" d="M79.9528 82.5221L57.1211 82.5221L57.1211 80.2207L79.9528 80.2207L79.9528 82.5221Z" fill="#EDEBE4"/>
<path fill-rule="evenodd" clip-rule="evenodd" d="M102.785 88.3189L79.9531 88.3189L79.9531 86.0176L102.785 86.0176L102.785 88.3189Z" fill="#EDEBE4"/>
<path fill-rule="evenodd" clip-rule="evenodd" d="M125.613 82.5221L102.781 82.5221L102.781 80.2207L125.613 80.2207L125.613 82.5221Z" fill="#EDEBE4"/>
<path fill-rule="evenodd" clip-rule="evenodd" d="M148.449 88.3189L125.617 88.3189L125.617 86.0176L148.449 86.0176L148.449 88.3189Z" fill="#EDEBE4"/>
<path fill-rule="evenodd" clip-rule="evenodd" d="M171.277 82.5221L148.445 82.5221L148.445 80.2207L171.277 80.2207L171.277 82.5221Z" fill="#EDEBE4"/>
<path fill-rule="evenodd" clip-rule="evenodd" d="M194.109 88.3189L171.277 88.3189L171.277 86.0176L194.109 86.0176L194.109 88.3189Z" fill="#EDEBE4"/>
<path fill-rule="evenodd" clip-rule="evenodd" d="M216.941 82.5221L194.109 82.5221L194.109 80.2207L216.941 80.2207L216.941 82.5221Z" fill="#EDEBE4"/>
<path fill-rule="evenodd" clip-rule="evenodd" d="M239.773 88.3189L216.941 88.3189L216.941 86.0176L239.773 86.0176L239.773 88.3189Z" fill="#EDEBE4"/>
<path fill-rule="evenodd" clip-rule="evenodd" d="M262.605 82.5221L239.773 82.5221L239.773 80.2207L262.605 80.2207L262.605 82.5221Z" fill="#EDEBE4"/>
<path fill-rule="evenodd" clip-rule="evenodd" d="M285.437 88.3189L262.605 88.3189L262.605 86.0176L285.437 86.0176L285.437 88.3189Z" fill="#EDEBE4"/>
<rect opacity="0.1" x="285.438" y="80.2207" width="31.9643" height="8.09755" fill="#EDEBE4"/>
<path d="M2.32422 153.099L34.0762 88.3184L285.649 88.3184L317.401 153.099L2.32422 153.099Z" stroke="#EDEBE4" stroke-width="0.575342"/>
<path d="M46.3776 88.3184L32.7422 152.89" stroke="#EDEBE4" stroke-width="0.575342"/>
<path d="M71.7023 88.3184L60.9375 152.89" stroke="#EDEBE4" stroke-width="0.575342"/>
<path d="M97.0348 88.3184L89.1406 152.89" stroke="#EDEBE4" stroke-width="0.575342"/>
<path d="M122.36 88.3184L117.336 152.89" stroke="#EDEBE4" stroke-width="0.575342"/>
<path d="M147.692 88.3184L145.539 152.89" stroke="#EDEBE4" stroke-width="0.575342"/>
<path d="M172.035 88.3184L174.187 152.89" stroke="#EDEBE4" stroke-width="0.575342"/>
<path d="M197.363 88.3184L202.387 152.89" stroke="#EDEBE4" stroke-width="0.575342"/>
<path d="M222.692 88.3184L230.586 152.89" stroke="#EDEBE4" stroke-width="0.575342"/>
<path d="M248.02 88.3184L258.785 152.89" stroke="#EDEBE4" stroke-width="0.575342"/>
<path d="M273.349 88.3184L286.984 152.89" stroke="#EDEBE4" stroke-width="0.575342"/>
<path fill-rule="evenodd" clip-rule="evenodd" d="M30.8638 161.197L2.32422 161.197L2.32422 157.148L30.8638 157.148L30.8638 161.197Z" fill="#EDEBE4"/>
<path fill-rule="evenodd" clip-rule="evenodd" d="M59.4029 157.146L30.8633 157.146L30.8633 153.098L59.4029 153.098L59.4029 157.146Z" fill="#EDEBE4"/>
<path fill-rule="evenodd" clip-rule="evenodd" d="M87.9419 161.197L59.4023 161.197L59.4023 157.148L87.9419 157.148L87.9419 161.197Z" fill="#EDEBE4"/>
<path fill-rule="evenodd" clip-rule="evenodd" d="M116.481 157.146L87.9414 157.146L87.9414 153.098L116.481 153.098L116.481 157.146Z" fill="#EDEBE4"/>
<path fill-rule="evenodd" clip-rule="evenodd" d="M145.024 161.197L116.484 161.197L116.484 157.148L145.024 157.148L145.024 161.197Z" fill="#EDEBE4"/>
<path fill-rule="evenodd" clip-rule="evenodd" d="M173.563 157.146L145.023 157.146L145.023 153.098L173.563 153.098L173.563 157.146Z" fill="#EDEBE4"/>
<path fill-rule="evenodd" clip-rule="evenodd" d="M202.102 161.197L173.562 161.197L173.562 157.148L202.102 157.148L202.102 161.197Z" fill="#EDEBE4"/>
<path fill-rule="evenodd" clip-rule="evenodd" d="M230.641 157.146L202.102 157.146L202.102 153.098L230.641 153.098L230.641 157.146Z" fill="#EDEBE4"/>
<path fill-rule="evenodd" clip-rule="evenodd" d="M259.18 161.197L230.641 161.197L230.641 157.148L259.18 157.148L259.18 161.197Z" fill="#EDEBE4"/>
<path fill-rule="evenodd" clip-rule="evenodd" d="M287.719 157.146L259.18 157.146L259.18 153.098L287.719 153.098L287.719 157.146Z" fill="#EDEBE4"/>
<path fill-rule="evenodd" clip-rule="evenodd" d="M316.258 161.197L287.719 161.197L287.719 157.148L316.258 157.148L316.258 161.197Z" fill="#EDEBE4"/>
<rect opacity="0.1" width="31.9643" height="8.09755" transform="matrix(1 4.37114e-08 4.37114e-08 -1 2.32422 239.779)" fill="#EDEBE4"/>
<path fill-rule="evenodd" clip-rule="evenodd" d="M57.1207 231.681L34.2891 231.681L34.2891 233.982L57.1207 233.982L57.1207 231.681Z" fill="#EDEBE4"/>
<path fill-rule="evenodd" clip-rule="evenodd" d="M79.9528 237.478L57.1211 237.478L57.1211 239.779L79.9528 239.779L79.9528 237.478Z" fill="#EDEBE4"/>
<path fill-rule="evenodd" clip-rule="evenodd" d="M102.785 231.681L79.9531 231.681L79.9531 233.982L102.785 233.982L102.785 231.681Z" fill="#EDEBE4"/>
<path fill-rule="evenodd" clip-rule="evenodd" d="M125.613 237.478L102.781 237.478L102.781 239.779L125.613 239.779L125.613 237.478Z" fill="#EDEBE4"/>
<path fill-rule="evenodd" clip-rule="evenodd" d="M148.449 231.681L125.617 231.681L125.617 233.982L148.449 233.982L148.449 231.681Z" fill="#EDEBE4"/>
<path fill-rule="evenodd" clip-rule="evenodd" d="M171.277 237.478L148.445 237.478L148.445 239.779L171.277 239.779L171.277 237.478Z" fill="#EDEBE4"/>
<path fill-rule="evenodd" clip-rule="evenodd" d="M194.109 231.681L171.277 231.681L171.277 233.982L194.109 233.982L194.109 231.681Z" fill="#EDEBE4"/>
<path fill-rule="evenodd" clip-rule="evenodd" d="M216.941 237.478L194.109 237.478L194.109 239.779L216.941 239.779L216.941 237.478Z" fill="#EDEBE4"/>
<path fill-rule="evenodd" clip-rule="evenodd" d="M239.773 231.681L216.941 231.681L216.941 233.982L239.773 233.982L239.773 231.681Z" fill="#EDEBE4"/>
<path fill-rule="evenodd" clip-rule="evenodd" d="M262.605 237.478L239.773 237.478L239.773 239.779L262.605 239.779L262.605 237.478Z" fill="#EDEBE4"/>
<path fill-rule="evenodd" clip-rule="evenodd" d="M285.437 231.681L262.605 231.681L262.605 233.982L285.437 233.982L285.437 231.681Z" fill="#EDEBE4"/>
<rect opacity="0.1" width="31.9643" height="8.09755" transform="matrix(1 4.37114e-08 4.37114e-08 -1 285.438 239.779)" fill="#EDEBE4"/>
<path d="M2.32422 166.901L34.0762 231.682L285.649 231.682L317.401 166.901L2.32422 166.901Z" stroke="#EDEBE4" stroke-width="0.575342"/>
<path d="M46.3776 231.682L32.7422 167.11" stroke="#EDEBE4" stroke-width="0.575342"/>
<path d="M71.7023 231.682L60.9375 167.11" stroke="#EDEBE4" stroke-width="0.575342"/>
<path d="M97.0348 231.682L89.1406 167.11" stroke="#EDEBE4" stroke-width="0.575342"/>
<path d="M122.36 231.682L117.336 167.11" stroke="#EDEBE4" stroke-width="0.575342"/>
<path d="M147.692 231.682L145.539 167.11" stroke="#EDEBE4" stroke-width="0.575342"/>
<path d="M172.035 231.682L174.188 167.11" stroke="#EDEBE4" stroke-width="0.575342"/>
<path d="M197.363 231.682L202.387 167.11" stroke="#EDEBE4" stroke-width="0.575342"/>
<path d="M222.692 231.682L230.586 167.11" stroke="#EDEBE4" stroke-width="0.575342"/>
<path d="M248.02 231.682L258.785 167.11" stroke="#EDEBE4" stroke-width="0.575342"/>
<path d="M273.349 231.682L286.984 167.11" stroke="#EDEBE4" stroke-width="0.575342"/>
<path fill-rule="evenodd" clip-rule="evenodd" d="M30.8638 158.805L2.32422 158.805L2.32422 162.854L30.8638 162.854L30.8638 158.805Z" fill="#EDEBE4"/>
<path fill-rule="evenodd" clip-rule="evenodd" d="M59.4029 162.854L30.8633 162.854L30.8633 166.902L59.4029 166.902L59.4029 162.854Z" fill="#EDEBE4"/>
<path fill-rule="evenodd" clip-rule="evenodd" d="M87.9419 158.805L59.4023 158.805L59.4023 162.854L87.9419 162.854L87.9419 158.805Z" fill="#EDEBE4"/>
<path fill-rule="evenodd" clip-rule="evenodd" d="M116.481 162.854L87.9414 162.854L87.9414 166.902L116.481 166.902L116.481 162.854Z" fill="#EDEBE4"/>
<path fill-rule="evenodd" clip-rule="evenodd" d="M145.024 158.805L116.484 158.805L116.484 162.854L145.024 162.854L145.024 158.805Z" fill="#EDEBE4"/>
<path fill-rule="evenodd" clip-rule="evenodd" d="M173.563 162.854L145.023 162.854L145.023 166.902L173.563 166.902L173.563 162.854Z" fill="#EDEBE4"/>
<path fill-rule="evenodd" clip-rule="evenodd" d="M202.102 158.805L173.563 158.805L173.562 162.854L202.102 162.854L202.102 158.805Z" fill="#EDEBE4"/>
<path fill-rule="evenodd" clip-rule="evenodd" d="M230.641 162.854L202.102 162.854L202.102 166.902L230.641 166.902L230.641 162.854Z" fill="#EDEBE4"/>
<path fill-rule="evenodd" clip-rule="evenodd" d="M259.18 158.805L230.641 158.805L230.641 162.854L259.18 162.854L259.18 158.805Z" fill="#EDEBE4"/>
<path fill-rule="evenodd" clip-rule="evenodd" d="M287.719 162.854L259.18 162.854L259.18 166.902L287.719 166.902L287.719 162.854Z" fill="#EDEBE4"/>
<path fill-rule="evenodd" clip-rule="evenodd" d="M316.258 158.805L287.719 158.805L287.719 162.854L316.258 162.854L316.258 158.805Z" fill="#EDEBE4"/>
<rect opacity="0.1" x="2.32422" y="238.221" width="31.9643" height="8.09755" fill="#EDEBE4"/>
<path fill-rule="evenodd" clip-rule="evenodd" d="M57.1207 246.319L34.2891 246.319L34.2891 244.018L57.1207 244.018L57.1207 246.319Z" fill="#EDEBE4"/>
<path fill-rule="evenodd" clip-rule="evenodd" d="M79.9528 240.522L57.1211 240.522L57.1211 238.221L79.9528 238.221L79.9528 240.522Z" fill="#EDEBE4"/>
<path fill-rule="evenodd" clip-rule="evenodd" d="M102.785 246.319L79.9531 246.319L79.9531 244.018L102.785 244.018L102.785 246.319Z" fill="#EDEBE4"/>
<path fill-rule="evenodd" clip-rule="evenodd" d="M125.613 240.522L102.781 240.522L102.781 238.221L125.613 238.221L125.613 240.522Z" fill="#EDEBE4"/>
<path fill-rule="evenodd" clip-rule="evenodd" d="M148.449 246.319L125.617 246.319L125.617 244.018L148.449 244.018L148.449 246.319Z" fill="#EDEBE4"/>
<path fill-rule="evenodd" clip-rule="evenodd" d="M171.277 240.522L148.445 240.522L148.445 238.221L171.277 238.221L171.277 240.522Z" fill="#EDEBE4"/>
<path fill-rule="evenodd" clip-rule="evenodd" d="M194.109 246.319L171.277 246.319L171.277 244.018L194.109 244.018L194.109 246.319Z" fill="#EDEBE4"/>
<path fill-rule="evenodd" clip-rule="evenodd" d="M216.941 240.522L194.109 240.522L194.109 238.221L216.941 238.221L216.941 240.522Z" fill="#EDEBE4"/>
<path fill-rule="evenodd" clip-rule="evenodd" d="M239.773 246.319L216.941 246.319L216.941 244.018L239.773 244.018L239.773 246.319Z" fill="#EDEBE4"/>
<path fill-rule="evenodd" clip-rule="evenodd" d="M262.605 240.522L239.773 240.522L239.773 238.221L262.605 238.221L262.605 240.522Z" fill="#EDEBE4"/>
<path fill-rule="evenodd" clip-rule="evenodd" d="M285.437 246.319L262.605 246.319L262.605 244.018L285.437 244.018L285.437 246.319Z" fill="#EDEBE4"/>
<rect opacity="0.1" x="285.438" y="238.221" width="31.9643" height="8.09755" fill="#EDEBE4"/>
<path d="M2.32422 311.099L34.0762 246.318L285.649 246.318L317.401 311.099L2.32422 311.099Z" stroke="#EDEBE4" stroke-width="0.575342"/>
<path d="M46.3776 246.318L32.7422 310.89" stroke="#EDEBE4" stroke-width="0.575342"/>
<path d="M71.7023 246.318L60.9375 310.89" stroke="#EDEBE4" stroke-width="0.575342"/>
<path d="M97.0348 246.318L89.1406 310.89" stroke="#EDEBE4" stroke-width="0.575342"/>
<path d="M122.36 246.318L117.336 310.89" stroke="#EDEBE4" stroke-width="0.575342"/>
<path d="M147.692 246.318L145.539 310.89" stroke="#EDEBE4" stroke-width="0.575342"/>
<path d="M172.035 246.318L174.187 310.89" stroke="#EDEBE4" stroke-width="0.575342"/>
<path d="M197.363 246.318L202.387 310.89" stroke="#EDEBE4" stroke-width="0.575342"/>
<path d="M222.692 246.318L230.586 310.89" stroke="#EDEBE4" stroke-width="0.575342"/>
<path d="M248.02 246.318L258.785 310.89" stroke="#EDEBE4" stroke-width="0.575342"/>
<path d="M273.349 246.318L286.984 310.89" stroke="#EDEBE4" stroke-width="0.575342"/>
<path fill-rule="evenodd" clip-rule="evenodd" d="M30.8638 319.197L2.32422 319.197L2.32422 315.148L30.8638 315.148L30.8638 319.197Z" fill="#EDEBE4"/>
<path fill-rule="evenodd" clip-rule="evenodd" d="M59.4029 315.146L30.8633 315.146L30.8633 311.098L59.4029 311.098L59.4029 315.146Z" fill="#EDEBE4"/>
<path fill-rule="evenodd" clip-rule="evenodd" d="M87.9419 319.197L59.4023 319.197L59.4023 315.148L87.9419 315.148L87.9419 319.197Z" fill="#EDEBE4"/>
<path fill-rule="evenodd" clip-rule="evenodd" d="M116.481 315.146L87.9414 315.146L87.9414 311.098L116.481 311.098L116.481 315.146Z" fill="#EDEBE4"/>
<path fill-rule="evenodd" clip-rule="evenodd" d="M145.024 319.197L116.484 319.197L116.484 315.148L145.024 315.148L145.024 319.197Z" fill="#EDEBE4"/>
<path fill-rule="evenodd" clip-rule="evenodd" d="M173.563 315.146L145.023 315.146L145.023 311.098L173.563 311.098L173.563 315.146Z" fill="#EDEBE4"/>
<path fill-rule="evenodd" clip-rule="evenodd" d="M202.102 319.197L173.562 319.197L173.562 315.148L202.102 315.148L202.102 319.197Z" fill="#EDEBE4"/>
<path fill-rule="evenodd" clip-rule="evenodd" d="M230.641 315.146L202.102 315.146L202.102 311.098L230.641 311.098L230.641 315.146Z" fill="#EDEBE4"/>
<path fill-rule="evenodd" clip-rule="evenodd" d="M259.18 319.197L230.641 319.197L230.641 315.148L259.18 315.148L259.18 319.197Z" fill="#EDEBE4"/>
<path fill-rule="evenodd" clip-rule="evenodd" d="M287.719 315.146L259.18 315.146L259.18 311.098L287.719 311.098L287.719 315.146Z" fill="#EDEBE4"/>
<path fill-rule="evenodd" clip-rule="evenodd" d="M316.258 319.197L287.719 319.197L287.719 315.148L316.258 315.148L316.258 319.197Z" fill="#EDEBE4"/>
</g>
<defs>
<clipPath id="clip0_494_189498">
<rect width="320" height="320" rx="24" fill="white"/>
</clipPath>
</defs>
</svg>
