<svg width="320" height="320" viewBox="0 0 320 320" fill="none" xmlns="http://www.w3.org/2000/svg">
<g clip-path="url(#clip0_494_188654)">
<rect width="320" height="320" rx="24" fill="#F5BB1D"/>
<path d="M247.61 238H62.3903C59.9735 238 58 235.618 58 232.71V73.2903C58 70.3781 59.9771 68 62.3903 68H247.61C250.026 68 252 70.3824 252 73.2903V232.71C252 235.622 250.023 238 247.61 238V238Z" fill="#FAE290"/>
<path d="M100.487 231.338L302.09 114.674C303.128 114.07 303.513 112.697 302.91 111.653L299.349 105.45C298.746 104.406 297.376 104.023 296.335 104.627L94.7319 221.291C93.6936 221.895 93.3083 223.268 93.9113 224.312L97.472 230.516C98.1285 231.56 99.445 231.942 100.487 231.338Z" fill="#D69209"/>
<path d="M68.0192 221.371L269.624 104.708C270.666 104.103 271.048 102.73 270.445 101.686L266.887 95.483C266.284 94.439 264.914 94.0564 263.872 94.6607L62.2678 211.324C61.2259 211.928 60.8442 213.301 61.4472 214.345L65.0079 220.549C65.6644 221.593 66.981 221.975 68.0192 221.371Z" fill="#D69209"/>
<path d="M35.8758 211.407L237.479 94.6954C238.521 94.0909 238.903 92.7174 238.3 91.6729L234.739 85.5206C234.14 84.4761 232.766 84.0934 231.728 84.6979L30.1244 201.41C29.0826 202.014 28.7008 203.388 29.3002 204.432L32.861 210.638C33.521 211.625 34.834 212.012 35.8758 211.407Z" fill="#D69209"/>
<path d="M84.9453 123.945C87.4298 123.945 89.4453 121.93 89.4453 119.445C89.4453 116.961 87.4298 114.945 84.9453 114.945C82.4608 114.945 80.4453 116.961 80.4453 119.445C80.4453 121.93 82.4608 123.945 84.9453 123.945Z" stroke="#FAE290" stroke-width="1.28571" stroke-miterlimit="10"/>
<path d="M143.125 219.09C145.613 219.09 147.625 217.074 147.625 214.59C147.625 212.105 145.613 210.09 143.125 210.09C140.637 210.09 138.625 212.105 138.625 214.59C138.625 217.074 140.64 219.09 143.125 219.09Z" stroke="#FAE290" stroke-width="1.28571" stroke-miterlimit="10"/>
<path d="M223.48 143.553C225.969 143.553 227.98 141.537 227.98 139.053C227.98 136.568 225.969 134.553 223.48 134.553C220.992 134.553 218.98 136.568 218.98 139.053C218.98 141.537 220.996 143.553 223.48 143.553Z" stroke="#FAE290" stroke-width="1.28571" stroke-miterlimit="10"/>
<path d="M185.876 106.91V251.874M200.983 132.624V251.874M25.8047 132.624H199.055M218.983 158.982V251.874M25.8047 158.982H216.733M231.198 184.374V251.874M25.8047 184.374H228.948M140.876 251.874H265.59M25.8047 106.91H183.626M278.448 259.589H260.464C256.19 259.589 252.733 256.167 252.733 251.874H270.716C274.994 251.928 278.448 255.353 278.448 259.589Z" stroke="#834C1A" stroke-width="1.28571" stroke-miterlimit="10"/>
<path d="M140.716 253.802C141.865 253.802 142.804 252.866 142.804 251.712C142.804 250.559 141.869 249.623 140.716 249.623C139.563 249.623 138.625 250.559 138.625 251.712C138.625 252.866 139.56 253.802 140.716 253.802Z" fill="#BA6332"/>
<path d="M185.396 108.839C186.545 108.839 187.483 107.903 187.483 106.749C187.483 105.596 186.548 104.66 185.396 104.66C184.243 104.66 183.305 105.596 183.305 106.749C183.305 107.903 184.24 108.839 185.396 108.839Z" fill="#BA6332"/>
<path d="M200.825 134.552C201.981 134.552 202.913 133.616 202.913 132.462C202.913 131.309 201.981 130.373 200.825 130.373C199.669 130.373 198.734 131.309 198.734 132.462C198.734 133.616 199.669 134.552 200.825 134.552Z" fill="#BA6332"/>
<path d="M218.822 160.589C219.978 160.589 220.913 159.653 220.913 158.499C220.913 157.346 219.978 156.41 218.822 156.41C217.666 156.41 216.734 157.346 216.734 158.499C216.734 159.653 217.669 160.589 218.822 160.589Z" fill="#BA6332"/>
<path d="M231.036 186.302C232.186 186.302 233.124 185.366 233.124 184.212C233.124 183.059 232.189 182.123 231.036 182.123C229.884 182.123 228.945 183.059 228.945 184.212C228.945 185.366 229.88 186.302 231.036 186.302Z" fill="#BA6332"/>
<path d="M21.7882 111.732C19.0208 111.732 16.8047 109.461 16.8047 106.75C16.8047 104.039 19.0784 101.768 21.7882 101.768C24.4979 101.768 26.768 104.039 26.768 106.75C26.8221 109.518 24.552 111.732 21.7882 111.732Z" fill="#BA6332"/>
<path d="M21.7882 137.767C19.0208 137.767 16.8047 135.496 16.8047 132.785C16.8047 130.074 19.0784 127.803 21.7882 127.803C24.4979 127.803 26.768 130.074 26.768 132.785C26.8221 135.496 24.552 137.767 21.7882 137.767Z" fill="#BA6332"/>
<path d="M21.7882 163.804C19.0208 163.804 16.8047 161.533 16.8047 158.822C16.8047 156.111 19.0784 153.84 21.7882 153.84C24.4979 153.84 26.768 156.111 26.768 158.822C26.8221 161.591 24.552 163.804 21.7882 163.804Z" fill="#BA6332"/>
<path d="M21.7882 189.839C19.0208 189.839 16.8047 187.568 16.8047 184.857C16.8047 182.146 19.0784 179.875 21.7882 179.875C24.4979 179.875 26.768 182.146 26.768 184.857C26.8221 187.568 24.552 189.839 21.7882 189.839Z" fill="#BA6332"/>
</g>
<defs>
<clipPath id="clip0_494_188654">
<rect width="320" height="320" rx="24" fill="white"/>
</clipPath>
</defs>
</svg>
