<svg width="320" height="320" viewBox="0 0 320 320" fill="none" xmlns="http://www.w3.org/2000/svg">
<rect width="320" height="320" rx="24" fill="#D69209"/>
<g clip-path="url(#clip0_494_188408)">
<path d="M68.0312 33.6134C68.0312 32.7224 68.7536 32 69.6447 32H85.7792C86.6702 32 87.3926 32.7224 87.3926 33.6134V49.7479C87.3926 50.0449 87.1518 50.2857 86.8548 50.2857H68.5691C68.272 50.2857 68.0312 50.0449 68.0312 49.7479V33.6134Z" fill="#262A33"/>
</g>
<g clip-path="url(#clip1_494_188408)">
<path d="M61.5781 61.0412C61.5781 60.1501 62.3005 59.4277 63.1916 59.4277H80.9395C81.8306 59.4277 82.5529 60.1501 82.5529 61.0412V86.3185C82.5529 86.6155 82.3121 86.8563 82.0151 86.8563H62.1159C61.8189 86.8563 61.5781 86.6155 61.5781 86.3185V61.0412Z" fill="#262A33"/>
</g>
<g clip-path="url(#clip2_494_188408)">
<rect x="50.2852" y="96" width="12.9076" height="192" fill="#262A33"/>
<rect x="64.267" y="97.0756" width="25.2773" height="189.849" fill="#FAE290" stroke="#262A33" stroke-width="2.15126"/>
</g>
<g clip-path="url(#clip3_494_188408)">
<path d="M127.73 286.387C127.73 287.278 128.453 288 129.344 288H145.478C146.369 288 147.092 287.278 147.092 286.387V270.252C147.092 269.955 146.851 269.714 146.554 269.714H128.268C127.971 269.714 127.73 269.955 127.73 270.252V286.387Z" fill="#262A33"/>
</g>
<g clip-path="url(#clip4_494_188408)">
<path d="M121.277 258.957C121.277 259.848 122 260.57 122.891 260.57H140.639C141.53 260.57 142.252 259.848 142.252 258.957V233.68C142.252 233.383 142.011 233.142 141.714 233.142H121.815C121.518 233.142 121.277 233.383 121.277 233.68V258.957Z" fill="#262A33"/>
</g>
<g clip-path="url(#clip5_494_188408)">
<rect width="12.9076" height="192" transform="matrix(1 0 0 -1 109.984 224)" fill="#262A33"/>
<rect x="1.07563" y="-1.07563" width="25.2773" height="189.849" transform="matrix(1 0 0 -1 122.891 221.849)" fill="#FAE290" stroke="#262A33" stroke-width="2.15126"/>
</g>
<g clip-path="url(#clip6_494_188408)">
<path d="M187.426 33.6134C187.426 32.7224 188.148 32 189.039 32H205.174C206.065 32 206.787 32.7224 206.787 33.6134V49.7479C206.787 50.0449 206.546 50.2857 206.249 50.2857H187.964C187.667 50.2857 187.426 50.0449 187.426 49.7479V33.6134Z" fill="#262A33"/>
</g>
<g clip-path="url(#clip7_494_188408)">
<path d="M180.973 61.0412C180.973 60.1501 181.695 59.4277 182.586 59.4277H200.334C201.225 59.4277 201.947 60.1501 201.947 61.0412V86.3185C201.947 86.6155 201.707 86.8563 201.41 86.8563H181.51C181.213 86.8563 180.973 86.6155 180.973 86.3185V61.0412Z" fill="#262A33"/>
</g>
<g clip-path="url(#clip8_494_188408)">
<rect x="169.68" y="96" width="12.9076" height="192" fill="#262A33"/>
<rect x="183.662" y="97.0756" width="25.2773" height="189.849" fill="#FAE290" stroke="#262A33" stroke-width="2.15126"/>
</g>
<g clip-path="url(#clip9_494_188408)">
<path d="M247.125 286.387C247.125 287.278 247.847 288 248.738 288H264.873C265.764 288 266.486 287.278 266.486 286.387V270.252C266.486 269.955 266.246 269.714 265.949 269.714H247.663C247.366 269.714 247.125 269.955 247.125 270.252V286.387Z" fill="#262A33"/>
</g>
<g clip-path="url(#clip10_494_188408)">
<path d="M240.672 258.957C240.672 259.848 241.394 260.57 242.285 260.57H260.033C260.924 260.57 261.647 259.848 261.647 258.957V233.68C261.647 233.383 261.406 233.142 261.109 233.142H241.21C240.913 233.142 240.672 233.383 240.672 233.68V258.957Z" fill="#262A33"/>
</g>
<g clip-path="url(#clip11_494_188408)">
<rect width="12.9076" height="192" transform="matrix(1 0 0 -1 229.379 224)" fill="#262A33"/>
<rect x="1.07563" y="-1.07563" width="25.2773" height="189.849" transform="matrix(1 0 0 -1 242.285 221.849)" fill="#FAE290" stroke="#262A33" stroke-width="2.15126"/>
</g>
<defs>
<clipPath id="clip0_494_188408">
<path d="M50.2852 33.0756C50.2852 32.4816 50.7667 32 51.3608 32H89.5457C90.1397 32 90.6213 32.4816 90.6213 33.0756V50.2857H50.2852V33.0756Z" fill="white"/>
</clipPath>
<clipPath id="clip1_494_188408">
<path d="M50.2852 60.5034C50.2852 59.9093 50.7667 59.4277 51.3608 59.4277H89.5457C90.1397 59.4277 90.6213 59.9093 90.6213 60.5034V86.8563H50.2852V60.5034Z" fill="white"/>
</clipPath>
<clipPath id="clip2_494_188408">
<rect x="50.2852" y="96" width="40.3361" height="192" rx="2.15126" fill="white"/>
</clipPath>
<clipPath id="clip3_494_188408">
<path d="M109.984 286.924C109.984 287.518 110.466 288 111.06 288H149.245C149.839 288 150.321 287.518 150.321 286.924V269.714H109.984V286.924Z" fill="white"/>
</clipPath>
<clipPath id="clip4_494_188408">
<path d="M109.984 259.495C109.984 260.089 110.466 260.57 111.06 260.57H149.245C149.839 260.57 150.321 260.089 150.321 259.495V233.142H109.984V259.495Z" fill="white"/>
</clipPath>
<clipPath id="clip5_494_188408">
<rect width="40.3361" height="192" rx="2.15126" transform="matrix(1 0 0 -1 109.984 224)" fill="white"/>
</clipPath>
<clipPath id="clip6_494_188408">
<path d="M169.68 33.0756C169.68 32.4816 170.161 32 170.755 32H208.94C209.534 32 210.016 32.4816 210.016 33.0756V50.2857H169.68V33.0756Z" fill="white"/>
</clipPath>
<clipPath id="clip7_494_188408">
<path d="M169.68 60.5034C169.68 59.9093 170.161 59.4277 170.755 59.4277H208.94C209.534 59.4277 210.016 59.9093 210.016 60.5034V86.8563H169.68V60.5034Z" fill="white"/>
</clipPath>
<clipPath id="clip8_494_188408">
<rect x="169.68" y="96" width="40.3361" height="192" rx="2.15126" fill="white"/>
</clipPath>
<clipPath id="clip9_494_188408">
<path d="M229.379 286.924C229.379 287.518 229.86 288 230.455 288H268.639C269.233 288 269.715 287.518 269.715 286.924V269.714H229.379V286.924Z" fill="white"/>
</clipPath>
<clipPath id="clip10_494_188408">
<path d="M229.379 259.495C229.379 260.089 229.86 260.57 230.455 260.57H268.639C269.233 260.57 269.715 260.089 269.715 259.495V233.142H229.379V259.495Z" fill="white"/>
</clipPath>
<clipPath id="clip11_494_188408">
<rect width="40.3361" height="192" rx="2.15126" transform="matrix(1 0 0 -1 229.379 224)" fill="white"/>
</clipPath>
</defs>
</svg>
