<svg width="320" height="320" viewBox="0 0 320 320" fill="none" xmlns="http://www.w3.org/2000/svg">
<g clip-path="url(#clip0_494_188853)">
<rect width="320" height="320" rx="24" fill="#F5BB1D"/>
<g clip-path="url(#clip1_494_188853)">
<path d="M120.949 183.659V145.809H57.0312" stroke="#1E1E21" stroke-width="1.44008" stroke-miterlimit="10"/>
<path d="M171.255 74.4956C153.244 71.433 134.946 74.0252 118.562 81.9984" stroke="#BA6332" stroke-width="1.44008" stroke-miterlimit="10"/>
<path d="M242.204 144.22C237.778 120.814 223.833 99.7836 203.211 86.7461" stroke="#BA6332" stroke-width="1.44008" stroke-miterlimit="10"/>
<path d="M241.023 181.797C246.952 158.573 242.852 134.245 230.746 114.607" stroke="#BA6332" stroke-width="1.44008" stroke-miterlimit="10"/>
<path d="M167.246 246.763C194.848 243.35 218.595 227.26 232.141 203.686" stroke="#BA6332" stroke-width="1.44008" stroke-miterlimit="10"/>
<path d="M119.77 239.25C142.388 249.787 168.939 250.286 192.258 239.802" stroke="#BA6332" stroke-width="1.44008" stroke-miterlimit="10"/>
<path d="M69.8477 167.879C72.0558 193.392 85.4773 216.712 106.349 231.468" stroke="#BA6332" stroke-width="1.44008" stroke-miterlimit="10"/>
<path d="M209.438 107.718C199.934 98.1894 187.914 91.2722 174.617 87.9648" stroke="#BA6332" stroke-width="1.44008" stroke-miterlimit="10"/>
<path d="M216.379 204.936C228.351 188.894 233.54 168.43 230.184 148.135" stroke="#BA6332" stroke-width="1.44008" stroke-miterlimit="10"/>
<path d="M194.074 224.807C199.993 221.361 205.288 217.213 209.891 212.514" stroke="#BA6332" stroke-width="1.44008" stroke-miterlimit="10"/>
<path d="M100.609 209.57C115.505 226.544 136.914 235.348 158.198 234.897" stroke="#BA6332" stroke-width="1.44008" stroke-miterlimit="10"/>
<path d="M82.8499 149.389C81.6259 157.645 81.7747 166.228 83.4788 174.825" stroke="#BA6332" stroke-width="1.44008" stroke-miterlimit="10"/>
<path d="M109.68 102.385C97.0124 112.648 88.0935 126.785 84.2148 142.481" stroke="#BA6332" stroke-width="1.44008" stroke-miterlimit="10"/>
<path d="M219.597 120.409C207.337 101.021 186.922 88.66 164.754 86.207" stroke="#BA6332" stroke-width="1.44008" stroke-miterlimit="10"/>
<path d="M226.353 133.96C225.441 131.541 224.414 129.203 223.281 126.938" stroke="#BA6332" stroke-width="1.44008" stroke-miterlimit="10"/>
<path d="M200.352 204.352C209.88 194.886 215.991 182.616 217.964 169.564" stroke="#BA6332" stroke-width="1.44008" stroke-miterlimit="10"/>
<path d="M183.262 216.353C185.681 215.206 187.985 213.919 190.184 212.508" stroke="#BA6332" stroke-width="1.44008" stroke-miterlimit="10"/>
<path d="M95.907 147.59C91.1883 170.055 99.2768 192.237 115.214 206.542" stroke="#BA6332" stroke-width="1.44008" stroke-miterlimit="10"/>
<path d="M146.528 99.127C122.359 103.111 103.767 120.565 97.1719 142.55" stroke="#BA6332" stroke-width="1.44008" stroke-miterlimit="10"/>
<path d="M210.246 191.508C218.392 177.491 220.432 161.602 217.182 146.928" stroke="#BA6332" stroke-width="1.44008" stroke-miterlimit="10"/>
<path d="M205.528 153.1C204.314 144.877 201.136 137.427 196.547 131.158" stroke="#BA6332" stroke-width="1.44008" stroke-miterlimit="10"/>
<path d="M131.652 203.008C132.032 203.008 144.599 211.864 163.243 209.33" stroke="#BA6332" stroke-width="1.44008" stroke-miterlimit="10"/>
<path d="M121.578 195.219C124.78 198.43 128.414 201.2 132.379 203.432" stroke="#BA6332" stroke-width="1.44008" stroke-miterlimit="10"/>
<path d="M107.34 164.328C107.786 169.858 109.13 175.105 111.214 179.934" stroke="#BA6332" stroke-width="1.44008" stroke-miterlimit="10"/>
<path d="M166.22 111.832C146.126 107.853 126.478 116.657 115.668 132.608" stroke="#BA6332" stroke-width="1.44008" stroke-miterlimit="10"/>
<path d="M158.414 197.214C176.305 197.214 194.57 180.513 193.499 158.543C192.904 146.35 186.462 135.828 177.015 129.559" stroke="#BA6332" stroke-width="1.44008" stroke-miterlimit="10"/>
<path d="M131.469 187.373C136.111 191.679 141.794 194.737 147.948 196.23" stroke="#BA6332" stroke-width="1.44008" stroke-miterlimit="10"/>
<path d="M145.872 125.018C136.171 127.97 128.572 134.556 124.117 142.827" stroke="#BA6332" stroke-width="1.44008" stroke-miterlimit="10"/>
<path d="M171.823 141.253C160.341 132.099 143.41 135.085 135.754 147.676" stroke="#BA6332" stroke-width="1.44008" stroke-miterlimit="10"/>
<path d="M132.566 164.496C134.102 173.319 140.458 180.966 149.627 183.707C169.495 189.649 186.987 169.666 179.124 150.916" stroke="#BA6332" stroke-width="1.44008" stroke-miterlimit="10"/>
<path d="M144.217 158.355C143.228 162.849 144.927 167.702 148.911 170.529" stroke="#BA6332" stroke-width="1.44008" stroke-miterlimit="10"/>
<path d="M120.954 191.53C125.299 191.53 128.822 188.007 128.822 183.658C128.822 179.309 125.299 175.785 120.954 175.785C116.61 175.785 113.082 179.309 113.082 183.658C113.082 188.007 116.605 191.53 120.954 191.53Z" fill="#BA6332"/>
<path d="M120.951 188.743C123.754 188.743 126.029 186.468 126.029 183.665C126.029 180.861 123.754 178.586 120.951 178.586C118.147 178.586 115.867 180.861 115.867 183.665C115.867 186.468 118.143 188.743 120.951 188.743Z" fill="#1E1E21" stroke="#BA6332" stroke-width="1.44008" stroke-miterlimit="10"/>
<path d="M45.8725 156.968C52.036 156.968 57.0331 151.971 57.0331 145.807C57.0331 139.644 52.036 134.646 45.8725 134.646C39.7089 134.646 34.707 139.644 34.707 145.807C34.707 151.971 39.7041 156.968 45.8725 156.968Z" stroke="#1E1E21" stroke-width="1.44008" stroke-miterlimit="10"/>
<path d="M45.8695 152.895C49.7817 152.895 52.9547 149.722 52.9547 145.81C52.9547 141.898 49.7817 138.725 45.8695 138.725C41.9572 138.725 38.7891 141.898 38.7891 145.81C38.7891 149.722 41.9572 152.895 45.8695 152.895Z" fill="#BA6332"/>
<path d="M54.0696 164.988H22.1094" stroke="#1E1E21" stroke-width="1.44008" stroke-linecap="round" stroke-linejoin="round"/>
<path d="M54.0708 173H12.6445" stroke="#1E1E21" stroke-width="1.44008" stroke-linecap="round" stroke-linejoin="round"/>
<path d="M43.0734 181.09H12.6445" stroke="#1E1E21" stroke-width="1.44008" stroke-linecap="round" stroke-linejoin="round"/>
<path d="M157.012 161.405V123.555H266.566" stroke="#1E1E21" stroke-width="1.44008" stroke-miterlimit="10"/>
<path d="M157.013 167.843C161.362 167.843 164.885 164.319 164.885 159.97C164.885 155.621 161.362 152.098 157.013 152.098C152.664 152.098 149.141 155.621 149.141 159.97C149.141 164.319 152.669 167.843 157.013 167.843Z" fill="#BA6332"/>
<path d="M157.012 165.052C159.816 165.052 162.091 162.777 162.091 159.973C162.091 157.17 159.816 154.895 157.012 154.895C154.209 154.895 151.934 157.17 151.934 159.973C151.934 162.777 154.209 165.052 157.012 165.052Z" fill="#1E1E21" stroke="#BA6332" stroke-width="1.44008" stroke-miterlimit="10"/>
<path d="M277.653 134.722C283.816 134.722 288.813 129.725 288.813 123.561C288.813 117.397 283.816 112.4 277.653 112.4C271.489 112.4 266.492 117.397 266.492 123.561C266.492 129.725 271.489 134.722 277.653 134.722Z" stroke="#1E1E21" stroke-width="1.44008" stroke-miterlimit="10"/>
<path d="M277.652 130.641C281.564 130.641 284.732 127.468 284.732 123.556C284.732 119.644 281.564 116.471 277.652 116.471C273.739 116.471 270.566 119.644 270.566 123.556C270.566 127.468 273.739 130.641 277.652 130.641Z" fill="#BA6332"/>
<path d="M265.871 142.734H307.297" stroke="#1E1E21" stroke-width="1.44008" stroke-linecap="round" stroke-linejoin="round"/>
<path d="M272.875 150.752H307.303" stroke="#1E1E21" stroke-width="1.44008" stroke-linecap="round" stroke-linejoin="round"/>
<path d="M265.871 158.836H292.09" stroke="#1E1E21" stroke-width="1.44008" stroke-linecap="round" stroke-linejoin="round"/>
<path d="M188.207 179.367V208.702H242.525" stroke="#1E1E21" stroke-width="1.44008" stroke-miterlimit="10"/>
<path d="M188.212 187.239C192.557 187.239 196.085 183.716 196.085 179.367C196.085 175.018 192.557 171.494 188.212 171.494C183.868 171.494 180.34 175.018 180.34 179.367C180.34 183.716 183.863 187.239 188.212 187.239Z" fill="#BA6332"/>
<path d="M188.211 184.444C191.015 184.444 193.29 182.169 193.29 179.366C193.29 176.562 191.015 174.287 188.211 174.287C185.408 174.287 183.133 176.562 183.133 179.366C183.133 182.169 185.403 184.444 188.211 184.444Z" fill="#1E1E21" stroke="#BA6332" stroke-width="1.44008" stroke-miterlimit="10"/>
<path d="M253.689 219.862C259.852 219.862 264.849 214.865 264.849 208.702C264.849 202.538 259.852 197.541 253.689 197.541C247.525 197.541 242.523 202.538 242.523 208.702C242.523 214.865 247.521 219.862 253.689 219.862Z" stroke="#1E1E21" stroke-width="1.44008" stroke-miterlimit="10"/>
<path d="M253.682 215.786C257.594 215.786 260.767 212.613 260.767 208.7C260.767 204.788 257.594 201.615 253.682 201.615C249.77 201.615 246.602 204.788 246.602 208.7C246.602 212.613 249.77 215.786 253.682 215.786Z" fill="#BA6332"/>
<path d="M245.855 226.121H287.282" stroke="#1E1E21" stroke-width="1.44008" stroke-linecap="round" stroke-linejoin="round"/>
<path d="M245.855 234.205H287.282" stroke="#1E1E21" stroke-width="1.44008" stroke-linecap="round" stroke-linejoin="round"/>
<path d="M259.77 242.217H287.28" stroke="#1E1E21" stroke-width="1.44008" stroke-linecap="round" stroke-linejoin="round"/>
</g>
</g>
<defs>
<clipPath id="clip0_494_188853">
<rect width="320" height="320" rx="24" fill="white"/>
</clipPath>
<clipPath id="clip1_494_188853">
<rect width="297.6" height="176.4" fill="white" transform="translate(11.1992 71.8008)"/>
</clipPath>
</defs>
</svg>
