<svg width="320" height="320" viewBox="0 0 320 320" fill="none" xmlns="http://www.w3.org/2000/svg">
<g clip-path="url(#clip0_494_189734)">
<rect width="320" height="320" rx="24" fill="white" fill-opacity="0.08"/>
<rect width="320" height="320" rx="24" fill="#FAE290"/>
<rect width="320" height="320" fill="#BDA080"/>
<path d="M16.7633 19V16.3641C16.6637 16.677 16.4551 16.8145 16.109 16.8145V16.2456C16.621 16.2456 16.7633 16.0844 16.7633 15.6815H17.427V19H16.7633ZM17.8084 18.9004C17.8084 17.2696 19.5341 17.5209 19.5341 16.6676C19.5341 16.3689 19.3444 16.203 19.0647 16.203C18.7376 16.203 18.5243 16.4305 18.4627 16.7434L17.8321 16.6012C17.9744 16.0607 18.4105 15.6483 19.1453 15.6483C19.7616 15.6483 20.2167 15.9896 20.2167 16.6154C20.2167 17.7295 18.8656 17.6204 18.529 18.4738H20.2879L20.193 19H17.8084V18.9004ZM21.7972 19.0332C21.143 19.0332 20.6026 18.7156 20.4461 18.1324L21.0814 17.9855C21.1999 18.2936 21.4511 18.4785 21.8162 18.4785C22.1433 18.4785 22.3519 18.3126 22.3519 17.9997C22.3519 17.7247 22.148 17.5304 21.7451 17.5304H21.3943L21.4796 17.0279H21.7783C22.0627 17.0279 22.2571 16.8856 22.2571 16.6012C22.2571 16.3594 22.0627 16.203 21.7735 16.203C21.4606 16.203 21.271 16.3547 21.1999 16.677L20.5836 16.5396C20.6689 16.0086 21.1809 15.6483 21.8162 15.6483C22.4941 15.6483 22.935 15.9707 22.935 16.5016C22.935 16.8856 22.66 17.1274 22.2997 17.2175C22.7406 17.3076 23.0393 17.611 23.0393 18.0281C23.0393 18.6302 22.5937 19.0332 21.7972 19.0332ZM24.6074 19.0332C23.9532 19.0332 23.4127 18.7156 23.2563 18.1324L23.8916 17.9855C24.0101 18.2936 24.2613 18.4785 24.6264 18.4785C24.9535 18.4785 25.1621 18.3126 25.1621 17.9997C25.1621 17.7247 24.9582 17.5304 24.5553 17.5304H24.2044L24.2898 17.0279H24.5884C24.8729 17.0279 25.0673 16.8856 25.0673 16.6012C25.0673 16.3594 24.8729 16.203 24.5837 16.203C24.2708 16.203 24.0812 16.3547 24.0101 16.677L23.3938 16.5396C23.4791 16.0086 23.9911 15.6483 24.6264 15.6483C25.3043 15.6483 25.7452 15.9707 25.7452 16.5016C25.7452 16.8856 25.4702 17.1274 25.1099 17.2175C25.5508 17.3076 25.8495 17.611 25.8495 18.0281C25.8495 18.6302 25.4039 19.0332 24.6074 19.0332ZM26.0761 17.701L27.522 15.6815H28.2616V17.701H28.7119L28.6266 18.2178H28.2616V19H27.5931V18.2178H26.0761V17.701ZM26.7066 17.701H27.5931V16.421L26.7066 17.701ZM28.8909 17.701L30.3368 15.6815H31.0764V17.701H31.5267L31.4414 18.2178H31.0764V19H30.4079V18.2178H28.8909V17.701ZM29.5214 17.701H30.4079V16.421L29.5214 17.701ZM33.8565 19L32.6997 15.6815H33.3634L34.2974 18.3363L35.2503 15.6815H35.8997L34.7051 19H33.8565ZM37.4986 19.0332C36.4935 19.0332 35.9057 18.4027 35.9057 17.3407C35.9057 16.2788 36.4935 15.6483 37.4986 15.6483C38.5036 15.6483 39.0962 16.2788 39.0962 17.3407C39.0962 18.4027 38.5036 19.0332 37.4986 19.0332ZM36.5883 17.3407C36.5883 18.0471 36.9344 18.4785 37.4986 18.4785C38.0627 18.4785 38.4088 18.0471 38.4088 17.3407C38.4088 16.6296 38.0627 16.203 37.4986 16.203C36.9344 16.203 36.5883 16.6296 36.5883 17.3407ZM41.2241 19L40.4703 17.8385L39.707 19H39.0007L40.1195 17.3028L39.0623 15.6815H39.7876L40.5177 16.8003L41.243 15.6815H41.9447L40.8638 17.336L41.9494 19H41.2241ZM42.6244 19V16.3641C42.5248 16.677 42.3162 16.8145 41.9701 16.8145V16.2456C42.4821 16.2456 42.6244 16.0844 42.6244 15.6815H43.2881V19H42.6244Z" fill="#262A33"/>
<rect x="16" y="21.3711" width="47.4074" height="1.77778" fill="#BA6332"/>
<path d="M16.0781 39.7928V35.1113" stroke="#231E1F" stroke-width="0.296296" stroke-miterlimit="10"/>
<path d="M82.4961 39.7928V35.1113" stroke="#231E1F" stroke-width="0.296296" stroke-miterlimit="10"/>
<path d="M75.8594 39.7928V35.1113" stroke="#231E1F" stroke-width="0.296296" stroke-miterlimit="10"/>
<path d="M69.207 39.7928V35.1113" stroke="#231E1F" stroke-width="0.296296" stroke-miterlimit="10"/>
<path d="M62.5703 39.7928V35.1113" stroke="#231E1F" stroke-width="0.296296" stroke-miterlimit="10"/>
<path d="M55.9297 39.7928V35.1113" stroke="#231E1F" stroke-width="0.296296" stroke-miterlimit="10"/>
<path d="M49.2773 39.7928V35.1113" stroke="#231E1F" stroke-width="0.296296" stroke-miterlimit="10"/>
<path d="M42.6406 39.7928V35.1113" stroke="#231E1F" stroke-width="0.296296" stroke-miterlimit="10"/>
<path d="M36.0039 39.7928V35.1113" stroke="#231E1F" stroke-width="0.296296" stroke-miterlimit="10"/>
<path d="M29.3516 39.7928V35.1113" stroke="#231E1F" stroke-width="0.296296" stroke-miterlimit="10"/>
<path d="M22.7148 39.7928V35.1113" stroke="#231E1F" stroke-width="0.296296" stroke-miterlimit="10"/>
<path d="M82.4959 35.1113H16.0781V38.2521H82.4959V35.1113Z" stroke="#231E1F" stroke-width="0.296296" stroke-miterlimit="10"/>
<path d="M35.9886 36.6816H29.3516V38.252H35.9886V36.6816Z" fill="#231E1F"/>
<path d="M22.7152 36.6816H16.0781V38.252H22.7152V36.6816Z" fill="#231E1F"/>
<path d="M29.3519 35.1113H22.7148V36.6817H29.3519V35.1113Z" fill="#231E1F"/>
<path d="M42.6409 35.1113H36.0039V36.6817H42.6409V35.1113Z" fill="#231E1F"/>
<path d="M55.9144 35.1113H49.2773V36.6817H55.9144V35.1113Z" fill="#231E1F"/>
<path d="M69.2074 35.1113H62.5703V36.6817H69.2074V35.1113Z" fill="#231E1F"/>
<path d="M82.4964 35.1113H75.8594V36.6817H82.4964V35.1113Z" fill="#231E1F"/>
<path d="M49.2777 36.6816H42.6406V38.252H49.2777V36.6816Z" fill="#231E1F"/>
<path d="M62.5667 36.6816H55.9297V38.252H62.5667V36.6816Z" fill="#231E1F"/>
<path d="M75.8441 36.6816H69.207V38.252H75.8441V36.6816Z" fill="#231E1F"/>
<path d="M15.8828 43.3536C15.756 43.3536 15.648 43.3191 15.5587 43.2501C15.4695 43.1805 15.4013 43.0798 15.3542 42.9479C15.3071 42.8155 15.2835 42.6556 15.2835 42.4681C15.2835 42.2818 15.3071 42.1227 15.3542 41.9909C15.4019 41.8584 15.4704 41.7574 15.5596 41.6878C15.6494 41.6177 15.7571 41.5826 15.8828 41.5826C16.0085 41.5826 16.116 41.6177 16.2052 41.6878C16.295 41.7574 16.3635 41.8584 16.4106 41.9909C16.4583 42.1227 16.4821 42.2818 16.4821 42.4681C16.4821 42.6556 16.4586 42.8155 16.4114 42.9479C16.3643 43.0798 16.2961 43.1805 16.2069 43.2501C16.1177 43.3191 16.0096 43.3536 15.8828 43.3536ZM15.8828 43.1685C16.0085 43.1685 16.1062 43.1079 16.1757 42.9866C16.2453 42.8654 16.2801 42.6926 16.2801 42.4681C16.2801 42.3189 16.2641 42.1918 16.2321 42.0868C16.2007 41.9819 16.1553 41.9019 16.0958 41.8469C16.0369 41.7919 15.9659 41.7644 15.8828 41.7644C15.7582 41.7644 15.6609 41.8259 15.5907 41.9488C15.5206 42.0711 15.4855 42.2442 15.4855 42.4681C15.4855 42.6174 15.5012 42.7442 15.5326 42.8486C15.5641 42.953 15.6092 43.0324 15.6682 43.0868C15.7276 43.1412 15.7992 43.1685 15.8828 43.1685Z" fill="#231E1F"/>
<path d="M22.757 41.6062V43.3301H22.5483V41.825H22.5382L22.1173 42.1045V41.8924L22.5483 41.6062H22.757Z" fill="#231E1F"/>
<path d="M28.6288 43.3301V43.1786L29.1979 42.5557C29.2646 42.4827 29.3196 42.4193 29.3628 42.3654C29.406 42.311 29.438 42.2599 29.4588 42.2122C29.4801 42.164 29.4908 42.1135 29.4908 42.0607C29.4908 42.0001 29.4762 41.9476 29.447 41.9033C29.4184 41.859 29.3791 41.8247 29.3292 41.8006C29.2792 41.7765 29.2231 41.7644 29.1608 41.7644C29.0946 41.7644 29.0368 41.7782 28.9874 41.8057C28.9386 41.8326 28.9007 41.8705 28.8738 41.9193C28.8474 41.9681 28.8342 42.0254 28.8342 42.091H28.6356C28.6356 41.99 28.6588 41.9013 28.7054 41.825C28.752 41.7487 28.8154 41.6892 28.8957 41.6466C28.9765 41.6039 29.0671 41.5826 29.1675 41.5826C29.2686 41.5826 29.3581 41.6039 29.4361 41.6466C29.5141 41.6892 29.5752 41.7467 29.6196 41.8191C29.6639 41.8915 29.6861 41.9721 29.6861 42.0607C29.6861 42.1241 29.6746 42.1861 29.6516 42.2467C29.6291 42.3068 29.5898 42.3738 29.5337 42.4479C29.4782 42.5214 29.401 42.6112 29.3022 42.7173L28.915 43.1314V43.1449H29.7164V43.3301H28.6288Z" fill="#231E1F"/>
<path d="M35.6587 43.3536C35.5475 43.3536 35.4485 43.3346 35.3615 43.2964C35.2751 43.2582 35.2064 43.2052 35.1553 43.1373C35.1048 43.0689 35.0773 42.9894 35.0728 42.8991H35.2849C35.2894 42.9547 35.3085 43.0026 35.3422 43.043C35.3758 43.0829 35.4199 43.1137 35.4743 43.1356C35.5287 43.1575 35.5891 43.1685 35.6553 43.1685C35.7294 43.1685 35.795 43.1556 35.8523 43.1297C35.9095 43.1039 35.9544 43.068 35.9869 43.022C36.0195 42.976 36.0358 42.9227 36.0358 42.8621C36.0358 42.7987 36.02 42.7428 35.9886 42.6946C35.9572 42.6457 35.9112 42.6076 35.8506 42.5801C35.79 42.5526 35.7159 42.5388 35.6284 42.5388H35.4903V42.3536H35.6284C35.6968 42.3536 35.7569 42.3413 35.8085 42.3166C35.8607 42.2919 35.9014 42.2571 35.9305 42.2122C35.9603 42.1673 35.9752 42.1146 35.9752 42.054C35.9752 41.9956 35.9622 41.9448 35.9364 41.9016C35.9106 41.8584 35.8741 41.8247 35.827 41.8006C35.7804 41.7765 35.7254 41.7644 35.662 41.7644C35.6025 41.7644 35.5464 41.7754 35.4937 41.7972C35.4415 41.8186 35.3988 41.8497 35.3657 41.8907C35.3326 41.9311 35.3147 41.9799 35.3119 42.0371H35.1098C35.1132 41.9468 35.1404 41.8677 35.1915 41.7998C35.2426 41.7313 35.3093 41.678 35.3918 41.6398C35.4749 41.6017 35.5661 41.5826 35.6654 41.5826C35.772 41.5826 35.8635 41.6042 35.9398 41.6474C36.0161 41.6901 36.0748 41.7465 36.1157 41.8166C36.1567 41.8868 36.1772 41.9625 36.1772 42.0439C36.1772 42.141 36.1516 42.2237 36.1006 42.2922C36.0501 42.3607 35.9813 42.4081 35.8943 42.4345V42.4479C36.0032 42.4659 36.0882 42.5122 36.1494 42.5868C36.2106 42.6609 36.2411 42.7526 36.2411 42.8621C36.2411 42.9558 36.2156 43.04 36.1645 43.1146C36.114 43.1887 36.045 43.247 35.9575 43.2897C35.8699 43.3323 35.7703 43.3536 35.6587 43.3536Z" fill="#231E1F"/>
<path d="M41.6706 42.9765V42.8048L42.4282 41.6062H42.5528V41.8722H42.4686L41.8962 42.7779V42.7914H42.9164V42.9765H41.6706ZM42.482 43.3301V42.9244V42.8444V41.6062H42.6807V43.3301H42.482Z" fill="#231E1F"/>
<path d="M49.0899 43.3536C48.9911 43.3536 48.9021 43.334 48.823 43.2947C48.7439 43.2554 48.6805 43.2016 48.6328 43.1331C48.5851 43.0646 48.559 42.9866 48.5545 42.8991H48.7565C48.7644 42.9771 48.7997 43.0416 48.8626 43.0927C48.926 43.1432 49.0018 43.1685 49.0899 43.1685C49.1606 43.1685 49.2234 43.1519 49.2784 43.1188C49.334 43.0857 49.3775 43.0402 49.4089 42.9824C49.4409 42.9241 49.4569 42.8581 49.4569 42.7846C49.4569 42.7094 49.4403 42.6424 49.4072 42.5834C49.3746 42.524 49.3298 42.4771 49.2725 42.4429C49.2153 42.4086 49.1499 42.3912 49.0764 42.3907C49.0236 42.3901 48.9695 42.3983 48.9139 42.4151C48.8584 42.4314 48.8126 42.4524 48.7767 42.4782L48.5814 42.4547L48.6858 41.6062H49.5814V41.7914H48.8609L48.8003 42.2998H48.8104C48.8457 42.2717 48.8901 42.2484 48.9434 42.2299C48.9967 42.2114 49.0523 42.2021 49.1101 42.2021C49.2156 42.2021 49.3096 42.2274 49.392 42.2779C49.4751 42.3278 49.5402 42.3963 49.5873 42.4833C49.635 42.5703 49.6589 42.6696 49.6589 42.7813C49.6589 42.8912 49.6342 42.9894 49.5848 43.0759C49.536 43.1617 49.4686 43.2296 49.3828 43.2796C49.2969 43.329 49.1993 43.3536 49.0899 43.3536Z" fill="#231E1F"/>
<path d="M55.7456 43.3536C55.6749 43.3525 55.6042 43.3391 55.5335 43.3132C55.4628 43.2874 55.3983 43.2439 55.3399 43.1828C55.2815 43.121 55.2347 43.0377 55.1993 42.9328C55.164 42.8273 55.1463 42.6948 55.1463 42.5355C55.1463 42.3828 55.1606 42.2476 55.1892 42.1297C55.2179 42.0113 55.2594 41.9117 55.3138 41.8309C55.3682 41.7496 55.4339 41.6878 55.5108 41.6457C55.5882 41.6036 55.6755 41.5826 55.7726 41.5826C55.8691 41.5826 55.9549 41.602 56.0301 41.6407C56.1059 41.6788 56.1676 41.7322 56.2153 41.8006C56.263 41.8691 56.2939 41.9479 56.3079 42.0371H56.1025C56.0835 41.9597 56.0464 41.8955 55.9914 41.8444C55.9364 41.7933 55.8635 41.7678 55.7726 41.7678C55.639 41.7678 55.5338 41.8259 55.4569 41.942C55.3806 42.0582 55.3422 42.2212 55.3416 42.4311H55.3551C55.3865 42.3834 55.4238 42.3427 55.467 42.309C55.5108 42.2748 55.559 42.2484 55.6118 42.2299C55.6645 42.2114 55.7204 42.2021 55.7793 42.2021C55.8781 42.2021 55.9684 42.2268 56.0503 42.2762C56.1323 42.325 56.1979 42.3926 56.2473 42.4791C56.2967 42.5649 56.3214 42.6634 56.3214 42.7745C56.3214 42.8811 56.2975 42.9788 56.2498 43.0675C56.2021 43.1556 56.1351 43.2257 56.0487 43.2779C55.9628 43.3295 55.8618 43.3548 55.7456 43.3536ZM55.7456 43.1685C55.8163 43.1685 55.8798 43.1508 55.9359 43.1154C55.9925 43.0801 56.0372 43.0327 56.0697 42.9732C56.1028 42.9137 56.1194 42.8475 56.1194 42.7745C56.1194 42.7033 56.1034 42.6384 56.0714 42.5801C56.04 42.5212 55.9965 42.4743 55.9409 42.4395C55.8859 42.4047 55.8231 42.3873 55.7524 42.3873C55.6991 42.3873 55.6494 42.398 55.6034 42.4193C55.5574 42.4401 55.517 42.4687 55.4822 42.5052C55.4479 42.5416 55.421 42.5834 55.4014 42.6306C55.3817 42.6772 55.3719 42.7263 55.3719 42.7779C55.3719 42.8464 55.3879 42.9103 55.4199 42.9698C55.4524 43.0293 55.4968 43.0773 55.5529 43.1137C55.6096 43.1502 55.6738 43.1685 55.7456 43.1685Z" fill="#231E1F"/>
<path d="M61.9341 43.3301L62.7052 41.8048V41.7914H61.8163V41.6062H62.9207V41.8015L62.153 43.3301H61.9341Z" fill="#231E1F"/>
<path d="M69.0198 43.3536C68.9042 43.3536 68.8021 43.3332 68.7134 43.2922C68.6253 43.2507 68.5566 43.1937 68.5072 43.1213C68.4578 43.0484 68.4334 42.9653 68.434 42.8722C68.4334 42.7992 68.4477 42.7319 68.4769 42.6701C68.5061 42.6079 68.5459 42.5559 68.5964 42.5144C68.6475 42.4723 68.7045 42.4457 68.7673 42.4345V42.4244C68.6848 42.403 68.6192 42.3567 68.5704 42.2855C68.5215 42.2136 68.4974 42.132 68.498 42.0405C68.4974 41.953 68.5196 41.8747 68.5645 41.8057C68.6094 41.7366 68.6711 41.6822 68.7496 41.6424C68.8288 41.6025 68.9188 41.5826 69.0198 41.5826C69.1197 41.5826 69.209 41.6025 69.2875 41.6424C69.3661 41.6822 69.4278 41.7366 69.4727 41.8057C69.5182 41.8747 69.5412 41.953 69.5417 42.0405C69.5412 42.132 69.5162 42.2136 69.4668 42.2855C69.418 42.3567 69.3532 42.403 69.2724 42.4244V42.4345C69.3347 42.4457 69.3908 42.4723 69.4407 42.5144C69.4907 42.5559 69.5305 42.6079 69.5603 42.6701C69.59 42.7319 69.6051 42.7992 69.6057 42.8722C69.6051 42.9653 69.5799 43.0484 69.5299 43.1213C69.4806 43.1937 69.4118 43.2507 69.3237 43.2922C69.2362 43.3332 69.1349 43.3536 69.0198 43.3536ZM69.0198 43.1685C69.0978 43.1685 69.1652 43.1558 69.2219 43.1306C69.2785 43.1053 69.3223 43.0697 69.3532 43.0237C69.384 42.9777 69.3998 42.9238 69.4003 42.8621C69.3998 42.797 69.3829 42.7394 69.3498 42.6895C69.3167 42.6396 69.2715 42.6003 69.2143 42.5717C69.1576 42.543 69.0928 42.5287 69.0198 42.5287C68.9463 42.5287 68.8807 42.543 68.8229 42.5717C68.7656 42.6003 68.7205 42.6396 68.6874 42.6895C68.6548 42.7394 68.6388 42.797 68.6394 42.8621C68.6388 42.9238 68.6537 42.9777 68.684 43.0237C68.7149 43.0697 68.7589 43.1053 68.8161 43.1306C68.8734 43.1558 68.9413 43.1685 69.0198 43.1685ZM69.0198 42.3503C69.0816 42.3503 69.1363 42.3379 69.184 42.3132C69.2322 42.2886 69.2701 42.254 69.2976 42.2097C69.3251 42.1654 69.3392 42.1135 69.3397 42.054C69.3392 41.9956 69.3254 41.9448 69.2985 41.9016C69.2715 41.8579 69.2342 41.8242 69.1865 41.8006C69.1388 41.7765 69.0833 41.7644 69.0198 41.7644C68.9553 41.7644 68.8989 41.7765 68.8507 41.8006C68.8024 41.8242 68.7651 41.8579 68.7387 41.9016C68.7123 41.9448 68.6994 41.9956 68.7 42.054C68.6994 42.1135 68.7126 42.1654 68.7395 42.2097C68.767 42.254 68.8049 42.2886 68.8532 42.3132C68.9014 42.3379 68.957 42.3503 69.0198 42.3503Z" fill="#231E1F"/>
<path d="M75.6478 41.5826C75.7186 41.5832 75.7893 41.5966 75.86 41.623C75.9307 41.6494 75.9952 41.6932 76.0536 41.7543C76.1119 41.8149 76.1588 41.8977 76.1941 42.0026C76.2295 42.1076 76.2472 42.2392 76.2472 42.3974C76.2472 42.5506 76.2326 42.6867 76.2034 42.8057C76.1748 42.9241 76.1333 43.024 76.0788 43.1053C76.025 43.1867 75.9593 43.2484 75.8819 43.2905C75.805 43.3326 75.718 43.3536 75.6209 43.3536C75.5244 43.3536 75.4382 43.3346 75.3625 43.2964C75.2873 43.2577 75.2256 43.2041 75.1773 43.1356C75.1296 43.0666 75.099 42.9866 75.0856 42.8957H75.2909C75.3095 42.9749 75.3462 43.0402 75.4012 43.0919C75.4568 43.1429 75.53 43.1685 75.6209 43.1685C75.7539 43.1685 75.8588 43.1104 75.9357 42.9942C76.0132 42.8781 76.0519 42.7139 76.0519 42.5018H76.0384C76.007 42.5489 75.9697 42.5896 75.9265 42.6238C75.8833 42.6581 75.8353 42.6845 75.7825 42.703C75.7298 42.7215 75.6737 42.7308 75.6142 42.7308C75.5154 42.7308 75.4248 42.7063 75.3423 42.6575C75.2604 42.6081 75.1947 42.5405 75.1453 42.4547C75.0965 42.3682 75.0721 42.2695 75.0721 42.1584C75.0721 42.0529 75.0957 41.9563 75.1428 41.8688C75.1905 41.7807 75.2573 41.7105 75.3431 41.6584C75.4296 41.6062 75.5311 41.5809 75.6478 41.5826ZM75.6478 41.7678C75.5771 41.7678 75.5134 41.7855 75.4568 41.8208C75.4007 41.8556 75.356 41.9027 75.3229 41.9622C75.2904 42.0212 75.2741 42.0865 75.2741 42.1584C75.2741 42.2302 75.2898 42.2956 75.3212 42.3545C75.3532 42.4129 75.3967 42.4594 75.4517 42.4942C75.5073 42.5285 75.5704 42.5456 75.6411 42.5456C75.6944 42.5456 75.7441 42.5352 75.7901 42.5144C75.8361 42.4931 75.8762 42.4642 75.9105 42.4277C75.9453 42.3907 75.9725 42.3489 75.9921 42.3023C76.0118 42.2552 76.0216 42.2061 76.0216 42.155C76.0216 42.0877 76.0053 42.0245 75.9728 41.9656C75.9408 41.9067 75.8964 41.859 75.8398 41.8225C75.7836 41.786 75.7197 41.7678 75.6478 41.7678Z" fill="#231E1F"/>
<path d="M81.2624 41.6062V43.3301H81.0536V41.825H81.0435L80.6226 42.1045V41.8924L81.0536 41.6062H81.2624ZM82.3205 43.3536C82.1936 43.3536 82.0856 43.3191 81.9964 43.2501C81.9072 43.1805 81.839 43.0798 81.7918 42.9479C81.7447 42.8155 81.7211 42.6556 81.7211 42.4681C81.7211 42.2818 81.7447 42.1227 81.7918 41.9909C81.8395 41.8584 81.908 41.7574 81.9972 41.6878C82.087 41.6177 82.1948 41.5826 82.3205 41.5826C82.4462 41.5826 82.5536 41.6177 82.6428 41.6878C82.7326 41.7574 82.8011 41.8584 82.8482 41.9909C82.8959 42.1227 82.9198 42.2818 82.9198 42.4681C82.9198 42.6556 82.8962 42.8155 82.8491 42.9479C82.8019 43.0798 82.7338 43.1805 82.6445 43.2501C82.5553 43.3191 82.4473 43.3536 82.3205 43.3536ZM82.3205 43.1685C82.4462 43.1685 82.5438 43.1079 82.6134 42.9866C82.683 42.8654 82.7178 42.6926 82.7178 42.4681C82.7178 42.3189 82.7018 42.1918 82.6698 42.0868C82.6384 41.9819 82.5929 41.9019 82.5334 41.8469C82.4745 41.7919 82.4035 41.7644 82.3205 41.7644C82.1959 41.7644 82.0985 41.8259 82.0284 41.9488C81.9582 42.0711 81.9232 42.2442 81.9232 42.4681C81.9232 42.6174 81.9389 42.7442 81.9703 42.8486C82.0017 42.953 82.0469 43.0324 82.1058 43.0868C82.1653 43.1412 82.2368 43.1685 82.3205 43.1685Z" fill="#231E1F"/>
<path d="M198.345 15.4862C198.84 15.4862 199.316 15.8276 199.316 16.6524C199.316 17.4382 198.982 18.0249 198.303 18.0249C197.848 18.0249 197.556 17.7653 197.46 17.4098L197.94 17.3067C198.022 17.5093 198.139 17.6053 198.335 17.6053C198.658 17.6053 198.84 17.296 198.872 16.6276C198.761 16.9227 198.502 17.104 198.207 17.104C197.773 17.104 197.442 16.8231 197.442 16.3502C197.442 15.856 197.776 15.4862 198.345 15.4862ZM197.958 16.3253C197.958 16.5813 198.114 16.7413 198.367 16.7413C198.608 16.7413 198.793 16.5813 198.793 16.3253C198.793 16.0729 198.608 15.9022 198.367 15.9022C198.118 15.9022 197.958 16.0693 197.958 16.3253ZM200.414 18.0249C199.809 18.0249 199.468 17.7511 199.468 17.3031C199.468 16.9973 199.692 16.784 200.03 16.7164C199.76 16.6524 199.553 16.4604 199.553 16.1618C199.553 15.76 199.881 15.4862 200.414 15.4862C200.944 15.4862 201.274 15.76 201.274 16.1618C201.274 16.4533 201.072 16.6524 200.798 16.7164C201.136 16.784 201.356 16.9973 201.356 17.296C201.356 17.7511 201.015 18.0249 200.414 18.0249ZM199.984 17.264C199.984 17.4809 200.147 17.6053 200.414 17.6053C200.677 17.6053 200.844 17.4809 200.844 17.2533C200.844 17.0684 200.677 16.9191 200.414 16.9191C200.147 16.9191 199.984 17.0649 199.984 17.264ZM200.058 16.208C200.058 16.4 200.193 16.5244 200.414 16.5244C200.631 16.5244 200.766 16.4 200.766 16.208C200.766 16.0267 200.631 15.9022 200.414 15.9022C200.193 15.9022 200.058 16.0267 200.058 16.208ZM201.453 18L202.527 15.9022H201.436L201.375 15.5111H203.025V15.9022L201.951 18H201.453ZM203.072 17.9253C203.072 16.7022 204.366 16.8907 204.366 16.2507C204.366 16.0267 204.224 15.9022 204.014 15.9022C203.769 15.9022 203.609 16.0729 203.563 16.3076L203.09 16.2009C203.197 15.7956 203.524 15.4862 204.075 15.4862C204.537 15.4862 204.878 15.7422 204.878 16.2116C204.878 17.0471 203.865 16.9653 203.613 17.6053H204.932L204.861 18H203.072V17.9253ZM205.993 18.0249C205.502 18.0249 205.097 17.7867 204.979 17.3493L205.456 17.2391C205.545 17.4702 205.733 17.6089 206.007 17.6089C206.252 17.6089 206.409 17.4844 206.409 17.2498C206.409 17.0436 206.256 16.8978 205.954 16.8978H205.691L205.755 16.5209H205.979C206.192 16.5209 206.338 16.4142 206.338 16.2009C206.338 16.0196 206.192 15.9022 205.975 15.9022C205.74 15.9022 205.598 16.016 205.545 16.2578L205.083 16.1547C205.147 15.7564 205.531 15.4862 206.007 15.4862C206.515 15.4862 206.846 15.728 206.846 16.1262C206.846 16.4142 206.64 16.5956 206.37 16.6631C206.7 16.7307 206.924 16.9582 206.924 17.2711C206.924 17.7227 206.59 18.0249 205.993 18.0249ZM207.786 17.9253C207.786 16.7022 209.08 16.8907 209.08 16.2507C209.08 16.0267 208.938 15.9022 208.728 15.9022C208.483 15.9022 208.323 16.0729 208.277 16.3076L207.804 16.2009C207.91 15.7956 208.238 15.4862 208.789 15.4862C209.251 15.4862 209.592 15.7422 209.592 16.2116C209.592 17.0471 208.579 16.9653 208.326 17.6053H209.646L209.574 18H207.786V17.9253ZM210.706 18.0249C210.216 18.0249 209.81 17.7867 209.693 17.3493L210.17 17.2391C210.258 17.4702 210.447 17.6089 210.721 17.6089C210.966 17.6089 211.122 17.4844 211.122 17.2498C211.122 17.0436 210.97 16.8978 210.667 16.8978H210.404L210.468 16.5209H210.692C210.906 16.5209 211.051 16.4142 211.051 16.2009C211.051 16.0196 210.906 15.9022 210.689 15.9022C210.454 15.9022 210.312 16.016 210.258 16.2578L209.796 16.1547C209.86 15.7564 210.244 15.4862 210.721 15.4862C211.229 15.4862 211.56 15.728 211.56 16.1262C211.56 16.4142 211.354 16.5956 211.083 16.6631C211.414 16.7307 211.638 16.9582 211.638 17.2711C211.638 17.7227 211.304 18.0249 210.706 18.0249ZM211.737 17.0258L212.821 15.5111H213.376V17.0258H213.714L213.65 17.4133H213.376V18H212.875V17.4133H211.737V17.0258ZM212.21 17.0258H212.875V16.0658L212.21 17.0258ZM214.798 18.0249C214.229 18.0249 213.816 17.5449 213.816 16.7627C213.816 15.9662 214.229 15.4862 214.798 15.4862C215.37 15.4862 215.783 15.9662 215.783 16.7627C215.783 17.5449 215.37 18.0249 214.798 18.0249ZM214.332 16.7627C214.332 17.3351 214.524 17.6089 214.798 17.6089C215.071 17.6089 215.267 17.3351 215.267 16.7627C215.267 16.1796 215.071 15.9022 214.798 15.9022C214.524 15.9022 214.332 16.1796 214.332 16.7627ZM216.878 18.0249C216.274 18.0249 215.932 17.7511 215.932 17.3031C215.932 16.9973 216.156 16.784 216.494 16.7164C216.224 16.6524 216.018 16.4604 216.018 16.1618C216.018 15.76 216.345 15.4862 216.878 15.4862C217.408 15.4862 217.739 15.76 217.739 16.1618C217.739 16.4533 217.536 16.6524 217.262 16.7164C217.6 16.784 217.82 16.9973 217.82 17.296C217.82 17.7511 217.479 18.0249 216.878 18.0249ZM216.448 17.264C216.448 17.4809 216.611 17.6053 216.878 17.6053C217.141 17.6053 217.308 17.4809 217.308 17.2533C217.308 17.0684 217.141 16.9191 216.878 16.9191C216.611 16.9191 216.448 17.0649 216.448 17.264ZM216.523 16.208C216.523 16.4 216.658 16.5244 216.878 16.5244C217.095 16.5244 217.23 16.4 217.23 16.208C217.23 16.0267 217.095 15.9022 216.878 15.9022C216.658 15.9022 216.523 16.0267 216.523 16.208Z" fill="#262A33"/>
<path d="M238.596 18.0249C238.124 18.0249 237.761 17.7476 237.658 17.3493L238.131 17.2391C238.209 17.456 238.39 17.6089 238.611 17.6089C238.856 17.6089 239.02 17.424 239.02 17.1396C239.02 16.8587 238.86 16.6738 238.614 16.6738C238.419 16.6738 238.248 16.8338 238.184 16.9831H237.679L237.91 15.5111H239.45L239.414 15.9022H238.355L238.23 16.6453C238.358 16.432 238.572 16.3111 238.838 16.3111C239.268 16.3111 239.535 16.6311 239.535 17.1324C239.535 17.6729 239.169 18.0249 238.596 18.0249ZM239.664 16.9191V16.4462H240.095V16.9191H239.664ZM239.664 18V17.5271H240.095V18H239.664ZM240.617 18V16.0231C240.542 16.2578 240.386 16.3609 240.126 16.3609V15.9342C240.51 15.9342 240.617 15.8133 240.617 15.5111H241.115V18H240.617ZM241.33 17.9253C241.33 16.7022 242.624 16.8907 242.624 16.2507C242.624 16.0267 242.482 15.9022 242.272 15.9022C242.027 15.9022 241.867 16.0729 241.82 16.3076L241.347 16.2009C241.454 15.7956 241.781 15.4862 242.332 15.4862C242.795 15.4862 243.136 15.7422 243.136 16.2116C243.136 17.0471 242.123 16.9653 241.87 17.6053H243.189L243.118 18H241.33V17.9253Z" fill="#262A33"/>
<path d="M198.345 22.0976C198.84 22.0976 199.316 22.4389 199.316 23.2638C199.316 24.0496 198.982 24.6362 198.303 24.6362C197.848 24.6362 197.556 24.3767 197.46 24.0211L197.94 23.918C198.022 24.1207 198.139 24.2167 198.335 24.2167C198.658 24.2167 198.84 23.9073 198.872 23.2389C198.761 23.534 198.502 23.7153 198.207 23.7153C197.773 23.7153 197.442 23.4344 197.442 22.9616C197.442 22.4673 197.776 22.0976 198.345 22.0976ZM197.958 22.9367C197.958 23.1927 198.114 23.3527 198.367 23.3527C198.608 23.3527 198.793 23.1927 198.793 22.9367C198.793 22.6842 198.608 22.5136 198.367 22.5136C198.118 22.5136 197.958 22.6807 197.958 22.9367ZM200.414 24.6362C199.809 24.6362 199.468 24.3624 199.468 23.9144C199.468 23.6087 199.692 23.3953 200.03 23.3278C199.76 23.2638 199.553 23.0718 199.553 22.7731C199.553 22.3713 199.881 22.0976 200.414 22.0976C200.944 22.0976 201.274 22.3713 201.274 22.7731C201.274 23.0647 201.072 23.2638 200.798 23.3278C201.136 23.3953 201.356 23.6087 201.356 23.9073C201.356 24.3624 201.015 24.6362 200.414 24.6362ZM199.984 23.8753C199.984 24.0922 200.147 24.2167 200.414 24.2167C200.677 24.2167 200.844 24.0922 200.844 23.8647C200.844 23.6798 200.677 23.5304 200.414 23.5304C200.147 23.5304 199.984 23.6762 199.984 23.8753ZM200.058 22.8193C200.058 23.0113 200.193 23.1358 200.414 23.1358C200.631 23.1358 200.766 23.0113 200.766 22.8193C200.766 22.638 200.631 22.5136 200.414 22.5136C200.193 22.5136 200.058 22.638 200.058 22.8193ZM201.466 24.5367C201.466 23.3136 202.761 23.502 202.761 22.862C202.761 22.638 202.618 22.5136 202.409 22.5136C202.163 22.5136 202.003 22.6842 201.957 22.9189L201.484 22.8122C201.591 22.4069 201.918 22.0976 202.469 22.0976C202.931 22.0976 203.273 22.3536 203.273 22.8229C203.273 23.6584 202.259 23.5767 202.007 24.2167H203.326L203.255 24.6113H201.466V24.5367ZM204.387 24.6362C203.896 24.6362 203.491 24.398 203.373 23.9607L203.85 23.8504C203.939 24.0816 204.127 24.2202 204.401 24.2202C204.646 24.2202 204.803 24.0958 204.803 23.8611C204.803 23.6549 204.65 23.5091 204.348 23.5091H204.085L204.149 23.1322H204.373C204.586 23.1322 204.732 23.0256 204.732 22.8122C204.732 22.6309 204.586 22.5136 204.369 22.5136C204.134 22.5136 203.992 22.6273 203.939 22.8691L203.477 22.766C203.541 22.3678 203.925 22.0976 204.401 22.0976C204.909 22.0976 205.24 22.3393 205.24 22.7376C205.24 23.0256 205.034 23.2069 204.764 23.2744C205.094 23.342 205.318 23.5696 205.318 23.8824C205.318 24.334 204.984 24.6362 204.387 24.6362ZM205.417 23.6371L206.502 22.1224H207.056V23.6371H207.394L207.33 24.0247H207.056V24.6113H206.555V24.0247H205.417V23.6371ZM205.89 23.6371H206.555V22.6771L205.89 23.6371Z" fill="#262A33"/>
<path d="M238.596 24.6362C238.124 24.6362 237.761 24.3589 237.658 23.9607L238.131 23.8504C238.209 24.0673 238.39 24.2202 238.611 24.2202C238.856 24.2202 239.02 24.0353 239.02 23.7509C239.02 23.47 238.86 23.2851 238.614 23.2851C238.419 23.2851 238.248 23.4451 238.184 23.5944H237.679L237.91 22.1224H239.45L239.414 22.5136H238.355L238.23 23.2567C238.358 23.0433 238.572 22.9224 238.838 22.9224C239.268 22.9224 239.535 23.2424 239.535 23.7438C239.535 24.2842 239.169 24.6362 238.596 24.6362ZM239.664 23.5304V23.0576H240.095V23.5304H239.664ZM239.664 24.6113V24.1384H240.095V24.6113H239.664ZM240.617 24.6113V22.6344C240.542 22.8691 240.386 22.9722 240.126 22.9722V22.5456C240.51 22.5456 240.617 22.4247 240.617 22.1224H241.115V24.6113H240.617ZM241.33 24.5367C241.33 23.3136 242.624 23.502 242.624 22.862C242.624 22.638 242.482 22.5136 242.272 22.5136C242.027 22.5136 241.867 22.6842 241.82 22.9189L241.347 22.8122C241.454 22.4069 241.781 22.0976 242.332 22.0976C242.795 22.0976 243.136 22.3536 243.136 22.8229C243.136 23.6584 242.123 23.5767 241.87 24.2167H243.189L243.118 24.6113H241.33V24.5367Z" fill="#262A33"/>
<path d="M197.424 31.148C197.424 29.9249 198.719 30.1133 198.719 29.4733C198.719 29.2493 198.576 29.1249 198.367 29.1249C198.121 29.1249 197.961 29.2955 197.915 29.5302L197.442 29.4235C197.549 29.0182 197.876 28.7089 198.427 28.7089C198.889 28.7089 199.231 28.9649 199.231 29.4342C199.231 30.2698 198.217 30.188 197.965 30.828H199.284L199.213 31.2227H197.424V31.148ZM200.345 31.2475C199.854 31.2475 199.449 31.0093 199.332 30.572L199.808 30.4618C199.897 30.6929 200.085 30.8315 200.359 30.8315C200.605 30.8315 200.761 30.7071 200.761 30.4724C200.761 30.2662 200.608 30.1204 200.306 30.1204H200.043L200.107 29.7435H200.331C200.544 29.7435 200.69 29.6369 200.69 29.4235C200.69 29.2422 200.544 29.1249 200.327 29.1249C200.093 29.1249 199.95 29.2387 199.897 29.4804L199.435 29.3773C199.499 28.9791 199.883 28.7089 200.359 28.7089C200.868 28.7089 201.198 28.9507 201.198 29.3489C201.198 29.6369 200.992 29.8182 200.722 29.8858C201.053 29.9533 201.277 30.1809 201.277 30.4938C201.277 30.9453 200.942 31.2475 200.345 31.2475ZM201.375 30.2484L202.46 28.7338H203.014V30.2484H203.352L203.288 30.636H203.014V31.2227H202.513V30.636H201.375V30.2484ZM201.848 30.2484H202.513V29.2884L201.848 30.2484Z" fill="#262A33"/>
<path d="M209.408 28.7089C209.902 28.7089 210.379 29.0502 210.379 29.8751C210.379 30.6609 210.044 31.2475 209.365 31.2475C208.91 31.2475 208.619 30.988 208.523 30.6324L209.003 30.5293C209.084 30.732 209.202 30.828 209.397 30.828C209.721 30.828 209.902 30.5187 209.934 29.8502C209.824 30.1453 209.564 30.3267 209.269 30.3267C208.835 30.3267 208.505 30.0458 208.505 29.5729C208.505 29.0787 208.839 28.7089 209.408 28.7089ZM209.02 29.548C209.02 29.804 209.177 29.964 209.429 29.964C209.671 29.964 209.856 29.804 209.856 29.548C209.856 29.2955 209.671 29.1249 209.429 29.1249C209.18 29.1249 209.02 29.292 209.02 29.548ZM211.476 31.2475C210.872 31.2475 210.531 30.9738 210.531 30.5258C210.531 30.22 210.755 30.0067 211.092 29.9391C210.822 29.8751 210.616 29.6831 210.616 29.3844C210.616 28.9827 210.943 28.7089 211.476 28.7089C212.006 28.7089 212.337 28.9827 212.337 29.3844C212.337 29.676 212.134 29.8751 211.86 29.9391C212.198 30.0067 212.419 30.22 212.419 30.5187C212.419 30.9738 212.077 31.2475 211.476 31.2475ZM211.046 30.4867C211.046 30.7035 211.21 30.828 211.476 30.828C211.74 30.828 211.907 30.7035 211.907 30.476C211.907 30.2911 211.74 30.1418 211.476 30.1418C211.21 30.1418 211.046 30.2875 211.046 30.4867ZM211.121 29.4307C211.121 29.6227 211.256 29.7471 211.476 29.7471C211.693 29.7471 211.828 29.6227 211.828 29.4307C211.828 29.2493 211.693 29.1249 211.476 29.1249C211.256 29.1249 211.121 29.2493 211.121 29.4307ZM212.529 31.148C212.529 29.9249 213.823 30.1133 213.823 29.4733C213.823 29.2493 213.681 29.1249 213.471 29.1249C213.226 29.1249 213.066 29.2955 213.019 29.5302L212.547 29.4235C212.653 29.0182 212.98 28.7089 213.531 28.7089C213.994 28.7089 214.335 28.9649 214.335 29.4342C214.335 30.2698 213.322 30.188 213.069 30.828H214.388L214.317 31.2227H212.529V31.148ZM215.449 31.2475C214.959 31.2475 214.553 31.0093 214.436 30.572L214.912 30.4618C215.001 30.6929 215.19 30.8315 215.463 30.8315C215.709 30.8315 215.865 30.7071 215.865 30.4724C215.865 30.2662 215.712 30.1204 215.41 30.1204H215.147L215.211 29.7435H215.435C215.648 29.7435 215.794 29.6369 215.794 29.4235C215.794 29.2422 215.648 29.1249 215.431 29.1249C215.197 29.1249 215.055 29.2387 215.001 29.4804L214.539 29.3773C214.603 28.9791 214.987 28.7089 215.463 28.7089C215.972 28.7089 216.303 28.9507 216.303 29.3489C216.303 29.6369 216.096 29.8182 215.826 29.8858C216.157 29.9533 216.381 30.1809 216.381 30.4938C216.381 30.9453 216.047 31.2475 215.449 31.2475ZM216.48 30.2484L217.564 28.7338H218.119V30.2484H218.457L218.393 30.636H218.119V31.2227H217.617V30.636H216.48V30.2484ZM216.953 30.2484H217.617V29.2884L216.953 30.2484Z" fill="#262A33"/>
<path d="M238.596 31.2475C238.124 31.2475 237.761 30.9702 237.658 30.572L238.131 30.4618C238.209 30.6787 238.39 30.8315 238.611 30.8315C238.856 30.8315 239.02 30.6467 239.02 30.3622C239.02 30.0813 238.86 29.8964 238.614 29.8964C238.419 29.8964 238.248 30.0564 238.184 30.2058H237.679L237.91 28.7338H239.45L239.414 29.1249H238.355L238.23 29.868C238.358 29.6547 238.572 29.5338 238.838 29.5338C239.268 29.5338 239.535 29.8538 239.535 30.3551C239.535 30.8955 239.169 31.2475 238.596 31.2475ZM239.664 30.1418V29.6689H240.095V30.1418H239.664ZM239.664 31.2227V30.7498H240.095V31.2227H239.664ZM240.617 31.2227V29.2458C240.542 29.4804 240.386 29.5835 240.126 29.5835V29.1569C240.51 29.1569 240.617 29.036 240.617 28.7338H241.115V31.2227H240.617ZM241.33 31.148C241.33 29.9249 242.624 30.1133 242.624 29.4733C242.624 29.2493 242.482 29.1249 242.272 29.1249C242.027 29.1249 241.867 29.2955 241.82 29.5302L241.347 29.4235C241.454 29.0182 241.781 28.7089 242.332 28.7089C242.795 28.7089 243.136 28.9649 243.136 29.4342C243.136 30.2698 242.123 30.188 241.87 30.828H243.189L243.118 31.2227H241.33V31.148Z" fill="#262A33"/>
<path d="M198.434 37.8589C197.936 37.8589 197.488 37.578 197.385 37.1015L197.858 36.9949C197.933 37.3007 198.16 37.4678 198.445 37.4678C198.665 37.4678 198.854 37.3718 198.854 37.1549C198.854 36.9664 198.722 36.9024 198.498 36.8242L198.068 36.6749C197.702 36.5504 197.471 36.394 197.471 36.0207C197.471 35.6367 197.787 35.3202 198.352 35.3202C198.9 35.3202 199.227 35.6047 199.344 35.9815L198.861 36.0847C198.793 35.8642 198.612 35.7113 198.328 35.7113C198.096 35.7113 197.958 35.8251 197.958 35.9851C197.958 36.1415 198.089 36.2127 198.288 36.2802L198.722 36.426C199.06 36.5433 199.341 36.7247 199.341 37.1158C199.341 37.5175 199.067 37.8589 198.434 37.8589ZM199.568 37.834V35.3451H200.439C201.228 35.3451 201.719 35.8251 201.719 36.5895C201.719 37.354 201.228 37.834 200.439 37.834H199.568ZM200.066 37.4429H200.439C200.908 37.4429 201.203 37.098 201.203 36.5895C201.203 36.0811 200.908 35.7362 200.439 35.7362H200.066V37.4429ZM201.938 37.834V35.3451H203.584V35.7362H202.436V36.426H203.399V36.8171H202.436V37.834H201.938ZM204.553 37.8589C204.063 37.8589 203.657 37.6207 203.54 37.1833L204.017 37.0731C204.105 37.3042 204.294 37.4429 204.568 37.4429C204.813 37.4429 204.969 37.3184 204.969 37.0838C204.969 36.8775 204.817 36.7318 204.514 36.7318H204.251L204.315 36.3549H204.539C204.753 36.3549 204.898 36.2482 204.898 36.0349C204.898 35.8535 204.753 35.7362 204.536 35.7362C204.301 35.7362 204.159 35.85 204.105 36.0918L203.643 35.9887C203.707 35.5904 204.091 35.3202 204.568 35.3202C205.076 35.3202 205.407 35.562 205.407 35.9602C205.407 36.2482 205.201 36.4295 204.93 36.4971C205.261 36.5647 205.485 36.7922 205.485 37.1051C205.485 37.5567 205.151 37.8589 204.553 37.8589ZM205.598 37.7593C205.598 36.5362 206.893 36.7247 206.893 36.0847C206.893 35.8607 206.75 35.7362 206.541 35.7362C206.295 35.7362 206.135 35.9069 206.089 36.1415L205.616 36.0349C205.723 35.6295 206.05 35.3202 206.601 35.3202C207.063 35.3202 207.405 35.5762 207.405 36.0455C207.405 36.8811 206.391 36.7993 206.139 37.4393H207.458L207.387 37.834H205.598V37.7593ZM208.519 37.8589C208.028 37.8589 207.623 37.6207 207.506 37.1833L207.982 37.0731C208.071 37.3042 208.259 37.4429 208.533 37.4429C208.778 37.4429 208.935 37.3184 208.935 37.0838C208.935 36.8775 208.782 36.7318 208.48 36.7318H208.217L208.281 36.3549H208.505C208.718 36.3549 208.864 36.2482 208.864 36.0349C208.864 35.8535 208.718 35.7362 208.501 35.7362C208.266 35.7362 208.124 35.85 208.071 36.0918L207.609 35.9887C207.673 35.5904 208.057 35.3202 208.533 35.3202C209.042 35.3202 209.372 35.562 209.372 35.9602C209.372 36.2482 209.166 36.4295 208.896 36.4971C209.226 36.5647 209.45 36.7922 209.45 37.1051C209.45 37.5567 209.116 37.8589 208.519 37.8589ZM209.564 37.7593C209.564 36.5362 210.858 36.7247 210.858 36.0847C210.858 35.8607 210.716 35.7362 210.506 35.7362C210.261 35.7362 210.101 35.9069 210.054 36.1415L209.582 36.0349C209.688 35.6295 210.015 35.3202 210.566 35.3202C211.029 35.3202 211.37 35.5762 211.37 36.0455C211.37 36.8811 210.357 36.7993 210.104 37.4393H211.423L211.352 37.834H209.564V37.7593ZM211.548 37.7593C211.548 36.5362 212.842 36.7247 212.842 36.0847C212.842 35.8607 212.7 35.7362 212.49 35.7362C212.245 35.7362 212.085 35.9069 212.039 36.1415L211.566 36.0349C211.673 35.6295 212 35.3202 212.551 35.3202C213.013 35.3202 213.354 35.5762 213.354 36.0455C213.354 36.8811 212.341 36.7993 212.089 37.4393H213.408L213.337 37.834H211.548V37.7593ZM214.469 37.8589C213.978 37.8589 213.573 37.6207 213.455 37.1833L213.932 37.0731C214.021 37.3042 214.209 37.4429 214.483 37.4429C214.728 37.4429 214.885 37.3184 214.885 37.0838C214.885 36.8775 214.732 36.7318 214.43 36.7318H214.166L214.23 36.3549H214.454C214.668 36.3549 214.814 36.2482 214.814 36.0349C214.814 35.8535 214.668 35.7362 214.451 35.7362C214.216 35.7362 214.074 35.85 214.021 36.0918L213.558 35.9887C213.622 35.5904 214.006 35.3202 214.483 35.3202C214.991 35.3202 215.322 35.562 215.322 35.9602C215.322 36.2482 215.116 36.4295 214.846 36.4971C215.176 36.5647 215.4 36.7922 215.4 37.1051C215.4 37.5567 215.066 37.8589 214.469 37.8589ZM215.514 37.7593C215.514 36.5362 216.808 36.7247 216.808 36.0847C216.808 35.8607 216.666 35.7362 216.456 35.7362C216.211 35.7362 216.051 35.9069 216.004 36.1415L215.531 36.0349C215.638 35.6295 215.965 35.3202 216.516 35.3202C216.979 35.3202 217.32 35.5762 217.32 36.0455C217.32 36.8811 216.307 36.7993 216.054 37.4393H217.373L217.302 37.834H215.514V37.7593ZM218.226 37.7593C218.226 36.5362 219.52 36.7247 219.52 36.0847C219.52 35.8607 219.378 35.7362 219.168 35.7362C218.922 35.7362 218.762 35.9069 218.716 36.1415L218.243 36.0349C218.35 35.6295 218.677 35.3202 219.228 35.3202C219.69 35.3202 220.032 35.5762 220.032 36.0455C220.032 36.8811 219.018 36.7993 218.766 37.4393H220.085L220.014 37.834H218.226V37.7593ZM221.146 37.8589C220.655 37.8589 220.25 37.6207 220.133 37.1833L220.609 37.0731C220.698 37.3042 220.887 37.4429 221.16 37.4429C221.406 37.4429 221.562 37.3184 221.562 37.0838C221.562 36.8775 221.409 36.7318 221.107 36.7318H220.844L220.908 36.3549H221.132C221.345 36.3549 221.491 36.2482 221.491 36.0349C221.491 35.8535 221.345 35.7362 221.128 35.7362C220.894 35.7362 220.751 35.85 220.698 36.0918L220.236 35.9887C220.3 35.5904 220.684 35.3202 221.16 35.3202C221.669 35.3202 221.999 35.562 221.999 35.9602C221.999 36.2482 221.793 36.4295 221.523 36.4971C221.854 36.5647 222.078 36.7922 222.078 37.1051C222.078 37.5567 221.743 37.8589 221.146 37.8589ZM222.191 37.7593C222.191 36.5362 223.485 36.7247 223.485 36.0847C223.485 35.8607 223.343 35.7362 223.133 35.7362C222.888 35.7362 222.728 35.9069 222.682 36.1415L222.209 36.0349C222.315 35.6295 222.643 35.3202 223.194 35.3202C223.656 35.3202 223.997 35.5762 223.997 36.0455C223.997 36.8811 222.984 36.7993 222.731 37.4393H224.051L223.979 37.834H222.191V37.7593ZM225.111 37.8589C224.621 37.8589 224.215 37.6207 224.098 37.1833L224.575 37.0731C224.663 37.3042 224.852 37.4429 225.126 37.4429C225.371 37.4429 225.527 37.3184 225.527 37.0838C225.527 36.8775 225.375 36.7318 225.072 36.7318H224.809L224.873 36.3549H225.097C225.311 36.3549 225.456 36.2482 225.456 36.0349C225.456 35.8535 225.311 35.7362 225.094 35.7362C224.859 35.7362 224.717 35.85 224.663 36.0918L224.201 35.9887C224.265 35.5904 224.649 35.3202 225.126 35.3202C225.634 35.3202 225.965 35.562 225.965 35.9602C225.965 36.2482 225.759 36.4295 225.488 36.4971C225.819 36.5647 226.043 36.7922 226.043 37.1051C226.043 37.5567 225.709 37.8589 225.111 37.8589Z" fill="#262A33"/>
<path d="M238.596 37.8589C238.124 37.8589 237.761 37.5815 237.658 37.1833L238.131 37.0731C238.209 37.29 238.39 37.4429 238.611 37.4429C238.856 37.4429 239.02 37.258 239.02 36.9735C239.02 36.6927 238.86 36.5078 238.614 36.5078C238.419 36.5078 238.248 36.6678 238.184 36.8171H237.679L237.91 35.3451H239.45L239.414 35.7362H238.355L238.23 36.4793C238.358 36.266 238.572 36.1451 238.838 36.1451C239.268 36.1451 239.535 36.4651 239.535 36.9664C239.535 37.5069 239.169 37.8589 238.596 37.8589ZM239.664 36.7531V36.2802H240.095V36.7531H239.664ZM239.664 37.834V37.3611H240.095V37.834H239.664ZM240.617 37.834V35.8571C240.542 36.0918 240.386 36.1949 240.126 36.1949V35.7682C240.51 35.7682 240.617 35.6473 240.617 35.3451H241.115V37.834H240.617ZM241.33 37.7593C241.33 36.5362 242.624 36.7247 242.624 36.0847C242.624 35.8607 242.482 35.7362 242.272 35.7362C242.027 35.7362 241.867 35.9069 241.82 36.1415L241.347 36.0349C241.454 35.6295 241.781 35.3202 242.332 35.3202C242.795 35.3202 243.136 35.5762 243.136 36.0455C243.136 36.8811 242.123 36.7993 241.87 37.4393H243.189L243.118 37.834H241.33V37.7593Z" fill="#262A33"/>
<path d="M198.345 41.9315C198.84 41.9315 199.316 42.2729 199.316 43.0978C199.316 43.8835 198.982 44.4702 198.303 44.4702C197.848 44.4702 197.556 44.2106 197.46 43.8551L197.94 43.752C198.022 43.9546 198.139 44.0506 198.335 44.0506C198.658 44.0506 198.84 43.7413 198.872 43.0729C198.761 43.368 198.502 43.5493 198.207 43.5493C197.773 43.5493 197.442 43.2684 197.442 42.7955C197.442 42.3013 197.776 41.9315 198.345 41.9315ZM197.958 42.7706C197.958 43.0266 198.114 43.1866 198.367 43.1866C198.608 43.1866 198.793 43.0266 198.793 42.7706C198.793 42.5182 198.608 42.3475 198.367 42.3475C198.118 42.3475 197.958 42.5146 197.958 42.7706ZM200.414 44.4702C199.809 44.4702 199.468 44.1964 199.468 43.7484C199.468 43.4426 199.692 43.2293 200.03 43.1618C199.76 43.0978 199.553 42.9058 199.553 42.6071C199.553 42.2053 199.881 41.9315 200.414 41.9315C200.944 41.9315 201.274 42.2053 201.274 42.6071C201.274 42.8986 201.072 43.0978 200.798 43.1618C201.136 43.2293 201.356 43.4426 201.356 43.7413C201.356 44.1964 201.015 44.4702 200.414 44.4702ZM199.984 43.7093C199.984 43.9262 200.147 44.0506 200.414 44.0506C200.677 44.0506 200.844 43.9262 200.844 43.6986C200.844 43.5138 200.677 43.3644 200.414 43.3644C200.147 43.3644 199.984 43.5102 199.984 43.7093ZM200.058 42.6533C200.058 42.8453 200.193 42.9698 200.414 42.9698C200.631 42.9698 200.766 42.8453 200.766 42.6533C200.766 42.472 200.631 42.3475 200.414 42.3475C200.193 42.3475 200.058 42.472 200.058 42.6533ZM201.466 44.3706C201.466 43.1475 202.761 43.336 202.761 42.696C202.761 42.472 202.618 42.3475 202.409 42.3475C202.163 42.3475 202.003 42.5182 201.957 42.7529L201.484 42.6462C201.591 42.2409 201.918 41.9315 202.469 41.9315C202.931 41.9315 203.273 42.1875 203.273 42.6569C203.273 43.4924 202.259 43.4106 202.007 44.0506H203.326L203.255 44.4453H201.466V44.3706ZM204.387 44.4702C203.896 44.4702 203.491 44.232 203.373 43.7946L203.85 43.6844C203.939 43.9155 204.127 44.0542 204.401 44.0542C204.646 44.0542 204.803 43.9298 204.803 43.6951C204.803 43.4889 204.65 43.3431 204.348 43.3431H204.085L204.149 42.9662H204.373C204.586 42.9662 204.732 42.8595 204.732 42.6462C204.732 42.4649 204.586 42.3475 204.369 42.3475C204.134 42.3475 203.992 42.4613 203.939 42.7031L203.477 42.6C203.541 42.2018 203.925 41.9315 204.401 41.9315C204.909 41.9315 205.24 42.1733 205.24 42.5715C205.24 42.8595 205.034 43.0409 204.764 43.1084C205.094 43.176 205.318 43.4035 205.318 43.7164C205.318 44.168 204.984 44.4702 204.387 44.4702ZM205.417 43.4711L206.502 41.9564H207.056V43.4711H207.394L207.33 43.8586H207.056V44.4453H206.555V43.8586H205.417V43.4711ZM205.89 43.4711H206.555V42.5111L205.89 43.4711Z" fill="#262A33"/>
<path d="M238.596 44.4702C238.124 44.4702 237.761 44.1929 237.658 43.7946L238.131 43.6844C238.209 43.9013 238.39 44.0542 238.611 44.0542C238.856 44.0542 239.02 43.8693 239.02 43.5849C239.02 43.304 238.86 43.1191 238.614 43.1191C238.419 43.1191 238.248 43.2791 238.184 43.4284H237.679L237.91 41.9564H239.45L239.414 42.3475H238.355L238.23 43.0906C238.358 42.8773 238.572 42.7564 238.838 42.7564C239.268 42.7564 239.535 43.0764 239.535 43.5778C239.535 44.1182 239.169 44.4702 238.596 44.4702ZM239.664 43.3644V42.8915H240.095V43.3644H239.664ZM239.664 44.4453V43.9724H240.095V44.4453H239.664ZM240.617 44.4453V42.4684C240.542 42.7031 240.386 42.8062 240.126 42.8062V42.3795C240.51 42.3795 240.617 42.2586 240.617 41.9564H241.115V44.4453H240.617ZM241.33 44.3706C241.33 43.1475 242.624 43.336 242.624 42.696C242.624 42.472 242.482 42.3475 242.272 42.3475C242.027 42.3475 241.867 42.5182 241.82 42.7529L241.347 42.6462C241.454 42.2409 241.781 41.9315 242.332 41.9315C242.795 41.9315 243.136 42.1875 243.136 42.6569C243.136 43.4924 242.123 43.4106 241.87 44.0506H243.189L243.118 44.4453H241.33V44.3706Z" fill="#262A33"/>
<path d="M258.567 18V15.9022H257.82V15.5111H259.811V15.9022H259.064V18H258.567ZM260.972 15.5111L261.89 18H261.392L261.189 17.4311H260.105L259.899 18H259.412L260.34 15.5111H260.972ZM260.244 17.04H261.051L260.649 15.92L260.244 17.04ZM262.237 18V15.9022H261.49V15.5111H263.481V15.9022H262.735V18H262.237ZM264.643 15.5111L265.56 18H265.062L264.86 17.4311H263.775L263.569 18H263.082L264.01 15.5111H264.643ZM263.914 17.04H264.721L264.319 15.92L263.914 17.04ZM265.907 18V15.9022H265.161V15.5111H267.152V15.9022H266.405V18H265.907ZM268.313 15.5111L269.23 18H268.733L268.53 17.4311H267.445L267.239 18H266.752L267.68 15.5111H268.313ZM267.584 17.04H268.391L267.989 15.92L267.584 17.04ZM270.125 18V15.5111H270.999C271.615 15.5111 271.999 15.824 271.999 16.3253C271.999 16.8373 271.636 17.1609 271.053 17.1609H270.623V18H270.125ZM270.623 16.7698H270.971C271.284 16.7698 271.483 16.6027 271.483 16.336C271.483 16.0693 271.284 15.9022 270.971 15.9022H270.623V16.7698ZM273.284 15.5111L274.201 18H273.703L273.501 17.4311H272.416L272.21 18H271.723L272.651 15.5111H273.284ZM272.555 17.04H273.362L272.96 15.92L272.555 17.04ZM274.347 18V15.5111H274.845V17.6089H275.876V18H274.347ZM277.457 15.5111L278.375 18H277.877L277.674 17.4311H276.59L276.384 18H275.897L276.825 15.5111H277.457ZM276.729 17.04H277.536L277.134 15.92L276.729 17.04ZM279.54 18.0249C278.786 18.0249 278.313 17.5307 278.313 16.7556C278.313 15.9982 278.8 15.4862 279.522 15.4862C280.091 15.4862 280.475 15.8169 280.607 16.3324L280.116 16.4427C280.031 16.1156 279.828 15.9022 279.511 15.9022C279.103 15.9022 278.825 16.2364 278.825 16.7307C278.825 17.2676 279.103 17.6089 279.547 17.6089C279.839 17.6089 280.073 17.4311 280.141 17.0933L280.624 17.2107C280.5 17.6836 280.098 18.0249 279.54 18.0249ZM280.818 18V15.5111H282.446V15.9022H281.316V16.5244H282.261V16.9156H281.316V17.6089H282.446V18H280.818Z" fill="#262A33"/>
<path d="M299.042 18.0249C298.569 18.0249 298.206 17.7476 298.103 17.3493L298.576 17.2391C298.654 17.456 298.836 17.6089 299.056 17.6089C299.301 17.6089 299.465 17.424 299.465 17.1396C299.465 16.8587 299.305 16.6738 299.06 16.6738C298.864 16.6738 298.693 16.8338 298.629 16.9831H298.124L298.356 15.5111H299.895L299.86 15.9022H298.8L298.676 16.6453C298.804 16.432 299.017 16.3111 299.284 16.3111C299.714 16.3111 299.98 16.6311 299.98 17.1324C299.98 17.6729 299.614 18.0249 299.042 18.0249ZM300.11 16.9191V16.4462H300.54V16.9191H300.11ZM300.11 18V17.5271H300.54V18H300.11ZM301.062 18V16.0231C300.987 16.2578 300.831 16.3609 300.571 16.3609V15.9342C300.955 15.9342 301.062 15.8133 301.062 15.5111H301.56V18H301.062ZM301.775 17.9253C301.775 16.7022 303.069 16.8907 303.069 16.2507C303.069 16.0267 302.927 15.9022 302.717 15.9022C302.472 15.9022 302.312 16.0729 302.266 16.3076L301.793 16.2009C301.899 15.7956 302.226 15.4862 302.778 15.4862C303.24 15.4862 303.581 15.7422 303.581 16.2116C303.581 17.0471 302.568 16.9653 302.315 17.6053H303.634L303.563 18H301.775V17.9253Z" fill="#262A33"/>
<path d="M258.791 22.0976C259.285 22.0976 259.761 22.4389 259.761 23.2638C259.761 24.0496 259.427 24.6362 258.748 24.6362C258.293 24.6362 258.001 24.3767 257.905 24.0211L258.385 23.918C258.467 24.1207 258.584 24.2167 258.78 24.2167C259.104 24.2167 259.285 23.9073 259.317 23.2389C259.207 23.534 258.947 23.7153 258.652 23.7153C258.218 23.7153 257.888 23.4344 257.888 22.9616C257.888 22.4673 258.222 22.0976 258.791 22.0976ZM258.403 22.9367C258.403 23.1927 258.56 23.3527 258.812 23.3527C259.054 23.3527 259.239 23.1927 259.239 22.9367C259.239 22.6842 259.054 22.5136 258.812 22.5136C258.563 22.5136 258.403 22.6807 258.403 22.9367ZM260.859 24.6362C260.255 24.6362 259.913 24.3624 259.913 23.9144C259.913 23.6087 260.137 23.3953 260.475 23.3278C260.205 23.2638 259.999 23.0718 259.999 22.7731C259.999 22.3713 260.326 22.0976 260.859 22.0976C261.389 22.0976 261.72 22.3713 261.72 22.7731C261.72 23.0647 261.517 23.2638 261.243 23.3278C261.581 23.3953 261.801 23.6087 261.801 23.9073C261.801 24.3624 261.46 24.6362 260.859 24.6362ZM260.429 23.8753C260.429 24.0922 260.593 24.2167 260.859 24.2167C261.122 24.2167 261.289 24.0922 261.289 23.8647C261.289 23.6798 261.122 23.5304 260.859 23.5304C260.593 23.5304 260.429 23.6762 260.429 23.8753ZM260.504 22.8193C260.504 23.0113 260.639 23.1358 260.859 23.1358C261.076 23.1358 261.211 23.0113 261.211 22.8193C261.211 22.638 261.076 22.5136 260.859 22.5136C260.639 22.5136 260.504 22.638 260.504 22.8193ZM261.912 24.5367C261.912 23.3136 263.206 23.502 263.206 22.862C263.206 22.638 263.064 22.5136 262.854 22.5136C262.608 22.5136 262.448 22.6842 262.402 22.9189L261.929 22.8122C262.036 22.4069 262.363 22.0976 262.914 22.0976C263.376 22.0976 263.718 22.3536 263.718 22.8229C263.718 23.6584 262.704 23.5767 262.452 24.2167H263.771L263.7 24.6113H261.912V24.5367ZM264.832 24.6362C264.341 24.6362 263.936 24.398 263.819 23.9607L264.295 23.8504C264.384 24.0816 264.573 24.2202 264.846 24.2202C265.092 24.2202 265.248 24.0958 265.248 23.8611C265.248 23.6549 265.095 23.5091 264.793 23.5091H264.53L264.594 23.1322H264.818C265.031 23.1322 265.177 23.0256 265.177 22.8122C265.177 22.6309 265.031 22.5136 264.814 22.5136C264.58 22.5136 264.437 22.6273 264.384 22.8691L263.922 22.766C263.986 22.3678 264.37 22.0976 264.846 22.0976C265.355 22.0976 265.685 22.3393 265.685 22.7376C265.685 23.0256 265.479 23.2069 265.209 23.2744C265.54 23.342 265.764 23.5696 265.764 23.8824C265.764 24.334 265.429 24.6362 264.832 24.6362ZM265.862 23.6371L266.947 22.1224H267.502V23.6371H267.839L267.775 24.0247H267.502V24.6113H267V24.0247H265.862V23.6371ZM266.335 23.6371H267V22.6771L266.335 23.6371Z" fill="#262A33"/>
<path d="M299.042 24.6362C298.569 24.6362 298.206 24.3589 298.103 23.9607L298.576 23.8504C298.654 24.0673 298.836 24.2202 299.056 24.2202C299.301 24.2202 299.465 24.0353 299.465 23.7509C299.465 23.47 299.305 23.2851 299.06 23.2851C298.864 23.2851 298.693 23.4451 298.629 23.5944H298.124L298.356 22.1224H299.895L299.86 22.5136H298.8L298.676 23.2567C298.804 23.0433 299.017 22.9224 299.284 22.9224C299.714 22.9224 299.98 23.2424 299.98 23.7438C299.98 24.2842 299.614 24.6362 299.042 24.6362ZM300.11 23.5304V23.0576H300.54V23.5304H300.11ZM300.11 24.6113V24.1384H300.54V24.6113H300.11ZM301.062 24.6113V22.6344C300.987 22.8691 300.831 22.9722 300.571 22.9722V22.5456C300.955 22.5456 301.062 22.4247 301.062 22.1224H301.56V24.6113H301.062ZM301.775 24.5367C301.775 23.3136 303.069 23.502 303.069 22.862C303.069 22.638 302.927 22.5136 302.717 22.5136C302.472 22.5136 302.312 22.6842 302.266 22.9189L301.793 22.8122C301.899 22.4069 302.226 22.0976 302.778 22.0976C303.24 22.0976 303.581 22.3536 303.581 22.8229C303.581 23.6584 302.568 23.5767 302.315 24.2167H303.634L303.563 24.6113H301.775V24.5367Z" fill="#262A33"/>
<path d="M257.987 31.2227V28.7338H259.633V29.1249H258.485V29.8147H259.448V30.2058H258.485V31.2227H257.987ZM260.606 31.2475C260.001 31.2475 259.66 30.9738 259.66 30.5258C259.66 30.22 259.884 30.0067 260.222 29.9391C259.952 29.8751 259.745 29.6831 259.745 29.3844C259.745 28.9827 260.072 28.7089 260.606 28.7089C261.136 28.7089 261.466 28.9827 261.466 29.3844C261.466 29.676 261.264 29.8751 260.99 29.9391C261.328 30.0067 261.548 30.22 261.548 30.5187C261.548 30.9738 261.207 31.2475 260.606 31.2475ZM260.176 30.4867C260.176 30.7035 260.339 30.828 260.606 30.828C260.869 30.828 261.036 30.7035 261.036 30.476C261.036 30.2911 260.869 30.1418 260.606 30.1418C260.339 30.1418 260.176 30.2875 260.176 30.4867ZM260.25 29.4307C260.25 29.6227 260.385 29.7471 260.606 29.7471C260.823 29.7471 260.958 29.6227 260.958 29.4307C260.958 29.2493 260.823 29.1249 260.606 29.1249C260.385 29.1249 260.25 29.2493 260.25 29.4307ZM262.65 31.2475C262.159 31.2475 261.754 31.0093 261.636 30.572L262.113 30.4618C262.202 30.6929 262.39 30.8315 262.664 30.8315C262.909 30.8315 263.066 30.7071 263.066 30.4724C263.066 30.2662 262.913 30.1204 262.611 30.1204H262.347L262.411 29.7435H262.635C262.849 29.7435 262.995 29.6369 262.995 29.4235C262.995 29.2422 262.849 29.1249 262.632 29.1249C262.397 29.1249 262.255 29.2387 262.202 29.4804L261.739 29.3773C261.803 28.9791 262.187 28.7089 262.664 28.7089C263.172 28.7089 263.503 28.9507 263.503 29.3489C263.503 29.6369 263.297 29.8182 263.027 29.8858C263.357 29.9533 263.581 30.1809 263.581 30.4938C263.581 30.9453 263.247 31.2475 262.65 31.2475ZM263.682 31.2227L264.756 29.1249H263.664L263.604 28.7338H265.253V29.1249L264.18 31.2227H263.682ZM267.051 31.2475C266.56 31.2475 266.155 31.0093 266.038 30.572L266.514 30.4618C266.603 30.6929 266.791 30.8315 267.065 30.8315C267.311 30.8315 267.467 30.7071 267.467 30.4724C267.467 30.2662 267.314 30.1204 267.012 30.1204H266.749L266.813 29.7435H267.037C267.25 29.7435 267.396 29.6369 267.396 29.4235C267.396 29.2422 267.25 29.1249 267.033 29.1249C266.799 29.1249 266.656 29.2387 266.603 29.4804L266.141 29.3773C266.205 28.9791 266.589 28.7089 267.065 28.7089C267.574 28.7089 267.904 28.9507 267.904 29.3489C267.904 29.6369 267.698 29.8182 267.428 29.8858C267.759 29.9533 267.983 30.1809 267.983 30.4938C267.983 30.9453 267.648 31.2475 267.051 31.2475ZM268.096 31.148C268.096 29.9249 269.39 30.1133 269.39 29.4733C269.39 29.2493 269.248 29.1249 269.038 29.1249C268.793 29.1249 268.633 29.2955 268.587 29.5302L268.114 29.4235C268.22 29.0182 268.547 28.7089 269.099 28.7089C269.561 28.7089 269.902 28.9649 269.902 29.4342C269.902 30.2698 268.889 30.188 268.636 30.828H269.955L269.884 31.2227H268.096V31.148ZM270.064 31.2227L271.138 29.1249H270.046L269.986 28.7338H271.636V29.1249L270.562 31.2227H270.064ZM272.647 31.2475C272.156 31.2475 271.751 31.0093 271.633 30.572L272.11 30.4618C272.199 30.6929 272.387 30.8315 272.661 30.8315C272.906 30.8315 273.063 30.7071 273.063 30.4724C273.063 30.2662 272.91 30.1204 272.608 30.1204H272.344L272.408 29.7435H272.632C272.846 29.7435 272.992 29.6369 272.992 29.4235C272.992 29.2422 272.846 29.1249 272.629 29.1249C272.394 29.1249 272.252 29.2387 272.199 29.4804L271.736 29.3773C271.8 28.9791 272.184 28.7089 272.661 28.7089C273.169 28.7089 273.5 28.9507 273.5 29.3489C273.5 29.6369 273.294 29.8182 273.024 29.8858C273.354 29.9533 273.578 30.1809 273.578 30.4938C273.578 30.9453 273.244 31.2475 272.647 31.2475ZM275.414 31.2475C274.923 31.2475 274.518 31.0093 274.401 30.572L274.877 30.4618C274.966 30.6929 275.155 30.8315 275.428 30.8315C275.674 30.8315 275.83 30.7071 275.83 30.4724C275.83 30.2662 275.677 30.1204 275.375 30.1204H275.112L275.176 29.7435H275.4C275.613 29.7435 275.759 29.6369 275.759 29.4235C275.759 29.2422 275.613 29.1249 275.396 29.1249C275.162 29.1249 275.019 29.2387 274.966 29.4804L274.504 29.3773C274.568 28.9791 274.952 28.7089 275.428 28.7089C275.937 28.7089 276.267 28.9507 276.267 29.3489C276.267 29.6369 276.061 29.8182 275.791 29.8858C276.122 29.9533 276.346 30.1809 276.346 30.4938C276.346 30.9453 276.011 31.2475 275.414 31.2475Z" fill="#262A33"/>
<path d="M299.042 31.2475C298.569 31.2475 298.206 30.9702 298.103 30.572L298.576 30.4618C298.654 30.6787 298.836 30.8315 299.056 30.8315C299.301 30.8315 299.465 30.6467 299.465 30.3622C299.465 30.0813 299.305 29.8964 299.06 29.8964C298.864 29.8964 298.693 30.0564 298.629 30.2058H298.124L298.356 28.7338H299.895L299.86 29.1249H298.8L298.676 29.868C298.804 29.6547 299.017 29.5338 299.284 29.5338C299.714 29.5338 299.98 29.8538 299.98 30.3551C299.98 30.8955 299.614 31.2475 299.042 31.2475ZM300.11 30.1418V29.6689H300.54V30.1418H300.11ZM300.11 31.2227V30.7498H300.54V31.2227H300.11ZM301.062 31.2227V29.2458C300.987 29.4804 300.831 29.5835 300.571 29.5835V29.1569C300.955 29.1569 301.062 29.036 301.062 28.7338H301.56V31.2227H301.062ZM301.775 31.148C301.775 29.9249 303.069 30.1133 303.069 29.4733C303.069 29.2493 302.927 29.1249 302.717 29.1249C302.472 29.1249 302.312 29.2955 302.266 29.5302L301.793 29.4235C301.899 29.0182 302.226 28.7089 302.778 28.7089C303.24 28.7089 303.581 28.9649 303.581 29.4342C303.581 30.2698 302.568 30.188 302.315 30.828H303.634L303.563 31.2227H301.775V31.148Z" fill="#262A33"/>
<path d="M258.791 35.3202C259.285 35.3202 259.761 35.6615 259.761 36.4864C259.761 37.2722 259.427 37.8589 258.748 37.8589C258.293 37.8589 258.001 37.5993 257.905 37.2438L258.385 37.1407C258.467 37.3433 258.584 37.4393 258.78 37.4393C259.104 37.4393 259.285 37.13 259.317 36.4615C259.207 36.7567 258.947 36.938 258.652 36.938C258.218 36.938 257.888 36.6571 257.888 36.1842C257.888 35.69 258.222 35.3202 258.791 35.3202ZM258.403 36.1593C258.403 36.4153 258.56 36.5753 258.812 36.5753C259.054 36.5753 259.239 36.4153 259.239 36.1593C259.239 35.9069 259.054 35.7362 258.812 35.7362C258.563 35.7362 258.403 35.9033 258.403 36.1593ZM260.859 37.8589C260.255 37.8589 259.913 37.5851 259.913 37.1371C259.913 36.8313 260.137 36.618 260.475 36.5504C260.205 36.4864 259.999 36.2944 259.999 35.9958C259.999 35.594 260.326 35.3202 260.859 35.3202C261.389 35.3202 261.72 35.594 261.72 35.9958C261.72 36.2873 261.517 36.4864 261.243 36.5504C261.581 36.618 261.801 36.8313 261.801 37.13C261.801 37.5851 261.46 37.8589 260.859 37.8589ZM260.429 37.098C260.429 37.3149 260.593 37.4393 260.859 37.4393C261.122 37.4393 261.289 37.3149 261.289 37.0873C261.289 36.9024 261.122 36.7531 260.859 36.7531C260.593 36.7531 260.429 36.8989 260.429 37.098ZM260.504 36.042C260.504 36.234 260.639 36.3584 260.859 36.3584C261.076 36.3584 261.211 36.234 261.211 36.042C261.211 35.8607 261.076 35.7362 260.859 35.7362C260.639 35.7362 260.504 35.8607 260.504 36.042ZM261.912 37.7593C261.912 36.5362 263.206 36.7247 263.206 36.0847C263.206 35.8607 263.064 35.7362 262.854 35.7362C262.608 35.7362 262.448 35.9069 262.402 36.1415L261.929 36.0349C262.036 35.6295 262.363 35.3202 262.914 35.3202C263.376 35.3202 263.718 35.5762 263.718 36.0455C263.718 36.8811 262.704 36.7993 262.452 37.4393H263.771L263.7 37.834H261.912V37.7593ZM264.832 37.8589C264.341 37.8589 263.936 37.6207 263.819 37.1833L264.295 37.0731C264.384 37.3042 264.573 37.4429 264.846 37.4429C265.092 37.4429 265.248 37.3184 265.248 37.0838C265.248 36.8775 265.095 36.7318 264.793 36.7318H264.53L264.594 36.3549H264.818C265.031 36.3549 265.177 36.2482 265.177 36.0349C265.177 35.8535 265.031 35.7362 264.814 35.7362C264.58 35.7362 264.437 35.85 264.384 36.0918L263.922 35.9887C263.986 35.5904 264.37 35.3202 264.846 35.3202C265.355 35.3202 265.685 35.562 265.685 35.9602C265.685 36.2482 265.479 36.4295 265.209 36.4971C265.54 36.5647 265.764 36.7922 265.764 37.1051C265.764 37.5567 265.429 37.8589 264.832 37.8589ZM265.862 36.8598L266.947 35.3451H267.502V36.8598H267.839L267.775 37.2473H267.502V37.834H267V37.2473H265.862V36.8598ZM266.335 36.8598H267V35.8998L266.335 36.8598Z" fill="#262A33"/>
<path d="M299.042 37.8589C298.569 37.8589 298.206 37.5815 298.103 37.1833L298.576 37.0731C298.654 37.29 298.836 37.4429 299.056 37.4429C299.301 37.4429 299.465 37.258 299.465 36.9735C299.465 36.6927 299.305 36.5078 299.06 36.5078C298.864 36.5078 298.693 36.6678 298.629 36.8171H298.124L298.356 35.3451H299.895L299.86 35.7362H298.8L298.676 36.4793C298.804 36.266 299.017 36.1451 299.284 36.1451C299.714 36.1451 299.98 36.4651 299.98 36.9664C299.98 37.5069 299.614 37.8589 299.042 37.8589ZM300.11 36.7531V36.2802H300.54V36.7531H300.11ZM300.11 37.834V37.3611H300.54V37.834H300.11ZM301.062 37.834V35.8571C300.987 36.0918 300.831 36.1949 300.571 36.1949V35.7682C300.955 35.7682 301.062 35.6473 301.062 35.3451H301.56V37.834H301.062ZM301.775 37.7593C301.775 36.5362 303.069 36.7247 303.069 36.0847C303.069 35.8607 302.927 35.7362 302.717 35.7362C302.472 35.7362 302.312 35.9069 302.266 36.1415L301.793 36.0349C301.899 35.6295 302.226 35.3202 302.778 35.3202C303.24 35.3202 303.581 35.5762 303.581 36.0455C303.581 36.8811 302.568 36.7993 302.315 37.4393H303.634L303.563 37.834H301.775V37.7593Z" fill="#262A33"/>
<path d="M257.87 44.3706C257.87 43.1475 259.164 43.336 259.164 42.696C259.164 42.472 259.022 42.3475 258.812 42.3475C258.567 42.3475 258.407 42.5182 258.36 42.7529L257.888 42.6462C257.994 42.2409 258.321 41.9315 258.872 41.9315C259.335 41.9315 259.676 42.1875 259.676 42.6569C259.676 43.4924 258.663 43.4106 258.41 44.0506H259.729L259.658 44.4453H257.87V44.3706ZM260.79 44.4702C260.3 44.4702 259.894 44.232 259.777 43.7946L260.253 43.6844C260.342 43.9155 260.531 44.0542 260.804 44.0542C261.05 44.0542 261.206 43.9298 261.206 43.6951C261.206 43.4889 261.053 43.3431 260.751 43.3431H260.488L260.552 42.9662H260.776C260.989 42.9662 261.135 42.8595 261.135 42.6462C261.135 42.4649 260.989 42.3475 260.772 42.3475C260.538 42.3475 260.396 42.4613 260.342 42.7031L259.88 42.6C259.944 42.2018 260.328 41.9315 260.804 41.9315C261.313 41.9315 261.644 42.1733 261.644 42.5715C261.644 42.8595 261.437 43.0409 261.167 43.1084C261.498 43.176 261.722 43.4035 261.722 43.7164C261.722 44.168 261.388 44.4702 260.79 44.4702ZM261.821 43.4711L262.905 41.9564H263.46V43.4711H263.798L263.734 43.8586H263.46V44.4453H262.958V43.8586H261.821V43.4711ZM262.294 43.4711H262.958V42.5111L262.294 43.4711Z" fill="#262A33"/>
<path d="M269.853 41.9315C270.347 41.9315 270.824 42.2729 270.824 43.0978C270.824 43.8835 270.49 44.4702 269.811 44.4702C269.355 44.4702 269.064 44.2106 268.968 43.8551L269.448 43.752C269.53 43.9546 269.647 44.0506 269.843 44.0506C270.166 44.0506 270.347 43.7413 270.379 43.0729C270.269 43.368 270.01 43.5493 269.715 43.5493C269.281 43.5493 268.95 43.2684 268.95 42.7955C268.95 42.3013 269.284 41.9315 269.853 41.9315ZM269.466 42.7706C269.466 43.0266 269.622 43.1866 269.875 43.1866C270.116 43.1866 270.301 43.0266 270.301 42.7706C270.301 42.5182 270.116 42.3475 269.875 42.3475C269.626 42.3475 269.466 42.5146 269.466 42.7706ZM271.922 44.4702C271.317 44.4702 270.976 44.1964 270.976 43.7484C270.976 43.4426 271.2 43.2293 271.538 43.1618C271.267 43.0978 271.061 42.9058 271.061 42.6071C271.061 42.2053 271.388 41.9315 271.922 41.9315C272.451 41.9315 272.782 42.2053 272.782 42.6071C272.782 42.8986 272.579 43.0978 272.306 43.1618C272.643 43.2293 272.864 43.4426 272.864 43.7413C272.864 44.1964 272.523 44.4702 271.922 44.4702ZM271.491 43.7093C271.491 43.9262 271.655 44.0506 271.922 44.0506C272.185 44.0506 272.352 43.9262 272.352 43.6986C272.352 43.5138 272.185 43.3644 271.922 43.3644C271.655 43.3644 271.491 43.5102 271.491 43.7093ZM271.566 42.6533C271.566 42.8453 271.701 42.9698 271.922 42.9698C272.139 42.9698 272.274 42.8453 272.274 42.6533C272.274 42.472 272.139 42.3475 271.922 42.3475C271.701 42.3475 271.566 42.472 271.566 42.6533ZM272.974 44.3706C272.974 43.1475 274.268 43.336 274.268 42.696C274.268 42.472 274.126 42.3475 273.916 42.3475C273.671 42.3475 273.511 42.5182 273.465 42.7529L272.992 42.6462C273.099 42.2409 273.426 41.9315 273.977 41.9315C274.439 41.9315 274.78 42.1875 274.78 42.6569C274.78 43.4924 273.767 43.4106 273.515 44.0506H274.834L274.763 44.4453H272.974V44.3706ZM275.895 44.4702C275.404 44.4702 274.999 44.232 274.881 43.7946L275.358 43.6844C275.447 43.9155 275.635 44.0542 275.909 44.0542C276.154 44.0542 276.311 43.9298 276.311 43.6951C276.311 43.4889 276.158 43.3431 275.855 43.3431H275.592L275.656 42.9662H275.88C276.094 42.9662 276.239 42.8595 276.239 42.6462C276.239 42.4649 276.094 42.3475 275.877 42.3475C275.642 42.3475 275.5 42.4613 275.447 42.7031L274.984 42.6C275.048 42.2018 275.432 41.9315 275.909 41.9315C276.417 41.9315 276.748 42.1733 276.748 42.5715C276.748 42.8595 276.542 43.0409 276.271 43.1084C276.602 43.176 276.826 43.4035 276.826 43.7164C276.826 44.168 276.492 44.4702 275.895 44.4702ZM276.925 43.4711L278.009 41.9564H278.564V43.4711H278.902L278.838 43.8586H278.564V44.4453H278.063V43.8586H276.925V43.4711ZM277.398 43.4711H278.063V42.5111L277.398 43.4711Z" fill="#262A33"/>
<path d="M299.042 44.4702C298.569 44.4702 298.206 44.1929 298.103 43.7946L298.576 43.6844C298.654 43.9013 298.836 44.0542 299.056 44.0542C299.301 44.0542 299.465 43.8693 299.465 43.5849C299.465 43.304 299.305 43.1191 299.06 43.1191C298.864 43.1191 298.693 43.2791 298.629 43.4284H298.124L298.356 41.9564H299.895L299.86 42.3475H298.8L298.676 43.0906C298.804 42.8773 299.017 42.7564 299.284 42.7564C299.714 42.7564 299.98 43.0764 299.98 43.5778C299.98 44.1182 299.614 44.4702 299.042 44.4702ZM300.11 43.3644V42.8915H300.54V43.3644H300.11ZM300.11 44.4453V43.9724H300.54V44.4453H300.11ZM301.062 44.4453V42.4684C300.987 42.7031 300.831 42.8062 300.571 42.8062V42.3795C300.955 42.3795 301.062 42.2586 301.062 41.9564H301.56V44.4453H301.062ZM301.775 44.3706C301.775 43.1475 303.069 43.336 303.069 42.696C303.069 42.472 302.927 42.3475 302.717 42.3475C302.472 42.3475 302.312 42.5182 302.266 42.7529L301.793 42.6462C301.899 42.2409 302.226 41.9315 302.778 41.9315C303.24 41.9315 303.581 42.1875 303.581 42.6569C303.581 43.4924 302.568 43.4106 302.315 44.0506H303.634L303.563 44.4453H301.775V44.3706Z" fill="#262A33"/>
<rect x="70.3984" y="70.4004" width="179.2" height="179.2" rx="89.6" fill="#D4CCAF"/>
<rect x="76.7969" y="76.8008" width="166.4" height="166.4" rx="83.2" fill="#BA6332"/>
<path d="M150.776 131.833H101.992C102.755 129.742 104.142 127.936 105.965 126.66C107.789 125.384 109.961 124.7 112.187 124.7C113.795 124.696 115.383 125.051 116.837 125.739C117.69 123.825 119.08 122.2 120.838 121.059C122.595 119.919 124.645 119.311 126.741 119.311C129.076 119.312 131.349 120.066 133.222 121.463C135.094 122.859 136.466 124.822 137.133 127.06C138.646 125.713 140.602 124.969 142.628 124.971C144.576 124.974 146.461 125.664 147.951 126.919C149.441 128.174 150.442 129.914 150.776 131.833V131.833Z" fill="#D4CCAF"/>
<path d="M150.776 154.787H101.992C102.754 152.695 104.141 150.888 105.964 149.611C107.788 148.334 109.961 147.649 112.187 147.649C113.795 147.645 115.383 148 116.837 148.688C117.691 146.775 119.081 145.151 120.838 144.011C122.596 142.871 124.646 142.264 126.741 142.264C129.076 142.265 131.349 143.019 133.222 144.416C135.094 145.812 136.466 147.775 137.133 150.013C138.645 148.664 140.601 147.921 142.628 147.925C144.576 147.928 146.461 148.617 147.951 149.872C149.441 151.127 150.442 152.867 150.776 154.787V154.787Z" fill="#D4CCAF"/>
<path d="M150.776 177.738H101.992C102.755 175.647 104.142 173.841 105.965 172.565C107.789 171.288 109.961 170.604 112.187 170.605C113.795 170.6 115.383 170.955 116.837 171.643C117.69 169.73 119.08 168.104 120.838 166.964C122.595 165.823 124.645 165.216 126.741 165.215C129.076 165.216 131.349 165.971 133.222 167.367C135.094 168.763 136.466 170.726 137.133 172.964C138.646 171.617 140.602 170.874 142.628 170.876C144.576 170.879 146.461 171.568 147.951 172.823C149.441 174.078 150.442 175.818 150.776 177.738V177.738Z" fill="#D4CCAF"/>
<path d="M150.776 200.691H101.992C102.754 198.599 104.141 196.792 105.964 195.515C107.788 194.239 109.961 193.554 112.187 193.554C113.795 193.549 115.384 193.905 116.837 194.596C117.69 192.683 119.08 191.057 120.838 189.917C122.595 188.776 124.645 188.169 126.741 188.168C129.076 188.169 131.349 188.924 133.222 190.32C135.094 191.716 136.466 193.679 137.133 195.917C138.645 194.569 140.601 193.825 142.628 193.829C144.576 193.832 146.461 194.521 147.951 195.776C149.441 197.031 150.442 198.771 150.776 200.691V200.691Z" fill="#D4CCAF"/>
<path d="M184.389 120.359H135.605C136.367 118.268 137.753 116.461 139.576 115.184C141.399 113.908 143.571 113.223 145.796 113.222C147.404 113.219 148.993 113.575 150.446 114.264C151.3 112.351 152.689 110.725 154.447 109.585C156.205 108.444 158.255 107.837 160.35 107.836C162.686 107.837 164.959 108.592 166.831 109.988C168.703 111.384 170.075 113.347 170.742 115.585C172.257 114.238 174.214 113.494 176.241 113.497C178.189 113.5 180.074 114.189 181.564 115.444C183.055 116.699 184.055 118.439 184.389 120.359V120.359Z" fill="#D4CCAF"/>
<path d="M184.389 143.312H135.605C136.367 141.221 137.753 139.414 139.576 138.138C141.399 136.861 143.571 136.176 145.796 136.175C147.404 136.171 148.993 136.526 150.446 137.213C151.3 135.301 152.69 133.676 154.448 132.536C156.205 131.396 158.255 130.789 160.35 130.789C162.686 130.79 164.959 131.545 166.831 132.941C168.703 134.337 170.075 136.3 170.742 138.538C172.257 137.192 174.214 136.45 176.241 136.454C178.189 136.456 180.074 137.145 181.564 138.399C183.055 139.653 184.055 141.393 184.389 143.312V143.312Z" fill="#D4CCAF"/>
<path d="M184.389 166.263H135.605C136.367 164.172 137.753 162.365 139.576 161.089C141.399 159.812 143.571 159.127 145.796 159.126C147.404 159.123 148.993 159.479 150.446 160.168C151.3 158.255 152.689 156.63 154.447 155.489C156.205 154.348 158.255 153.741 160.35 153.74C162.686 153.741 164.959 154.496 166.831 155.892C168.703 157.288 170.075 159.251 170.742 161.49C172.257 160.142 174.214 159.399 176.241 159.401C178.189 159.404 180.074 160.094 181.564 161.349C183.055 162.604 184.055 164.344 184.389 166.263V166.263Z" fill="#D4CCAF"/>
<path d="M184.389 189.216H135.605C136.367 187.125 137.753 185.319 139.576 184.042C141.399 182.765 143.571 182.08 145.796 182.079C147.404 182.075 148.993 182.43 150.446 183.118C151.3 181.205 152.69 179.581 154.448 178.441C156.205 177.301 158.255 176.694 160.35 176.693C162.686 176.694 164.959 177.449 166.831 178.845C168.703 180.241 170.075 182.205 170.742 184.443C172.257 183.096 174.214 182.354 176.241 182.358C178.189 182.36 180.074 183.049 181.564 184.303C183.055 185.558 184.055 187.297 184.389 189.216V189.216Z" fill="#D4CCAF"/>
<path d="M184.389 212.169H135.605C136.367 210.078 137.753 208.272 139.576 206.995C141.399 205.718 143.571 205.033 145.796 205.032C147.404 205.029 148.993 205.385 150.446 206.075C151.3 204.161 152.689 202.536 154.447 201.395C156.205 200.255 158.255 199.647 160.35 199.646C162.686 199.648 164.959 200.402 166.831 201.798C168.703 203.195 170.075 205.158 170.742 207.396C172.257 206.048 174.214 205.305 176.241 205.307C178.189 205.31 180.074 206 181.564 207.255C183.055 208.51 184.055 210.25 184.389 212.169V212.169Z" fill="#D4CCAF"/>
<path d="M218.003 131.833H169.219C169.981 129.743 171.367 127.937 173.19 126.661C175.013 125.385 177.184 124.701 179.41 124.7C181.017 124.696 182.606 125.051 184.059 125.739C184.913 123.825 186.303 122.2 188.06 121.059C189.818 119.919 191.868 119.311 193.963 119.311C196.299 119.312 198.572 120.066 200.444 121.463C202.317 122.859 203.688 124.822 204.356 127.06C205.869 125.713 207.824 124.969 209.85 124.971C211.799 124.973 213.685 125.663 215.176 126.918C216.667 128.173 217.668 129.913 218.003 131.833V131.833Z" fill="#D4CCAF"/>
<path d="M218.003 154.787H169.219C169.98 152.695 171.366 150.889 173.189 149.612C175.012 148.335 177.184 147.65 179.41 147.649C181.017 147.645 182.606 148 184.059 148.688C184.914 146.775 186.304 145.151 188.061 144.011C189.819 142.871 191.868 142.264 193.963 142.264C196.299 142.265 198.572 143.019 200.444 144.416C202.317 145.812 203.688 147.775 204.356 150.013C205.868 148.664 207.824 147.921 209.85 147.925C211.799 147.927 213.685 148.616 215.176 149.871C216.667 151.126 217.668 152.866 218.003 154.787V154.787Z" fill="#D4CCAF"/>
<path d="M218.003 177.738H169.219C169.981 175.647 171.367 173.842 173.19 172.566C175.013 171.29 177.184 170.605 179.41 170.605C181.017 170.601 182.606 170.955 184.059 171.643C184.913 169.73 186.303 168.104 188.06 166.964C189.818 165.823 191.868 165.216 193.963 165.215C196.299 165.216 198.572 165.971 200.444 167.367C202.317 168.763 203.688 170.726 204.356 172.964C205.869 171.617 207.824 170.874 209.85 170.876C211.799 170.878 213.685 171.567 215.176 172.822C216.667 174.077 217.668 175.818 218.003 177.738V177.738Z" fill="#D4CCAF"/>
<path d="M218.003 200.691H169.219C169.98 198.6 171.366 196.793 173.189 195.516C175.012 194.24 177.184 193.554 179.41 193.554C181.018 193.549 182.607 193.905 184.059 194.596C184.913 192.683 186.303 191.057 188.06 189.917C189.818 188.776 191.868 188.169 193.963 188.168C196.299 188.169 198.572 188.924 200.444 190.32C202.317 191.716 203.688 193.679 204.356 195.917C205.868 194.569 207.824 193.825 209.85 193.829C211.799 193.831 213.685 194.52 215.176 195.775C216.667 197.03 217.668 198.771 218.003 200.691V200.691Z" fill="#D4CCAF"/>
<rect x="16" y="277.443" width="95.4444" height="1.18519" fill="#BA6332"/>
<rect width="11.8519" height="23" transform="translate(16 280.998)" fill="#BA6332"/>
<path d="M18.9871 300.677H24.9258V300.965H19.457C19.3152 300.965 19.2302 301.054 19.2302 301.188V302.01H18.9871V300.677ZM24.9987 297.793C24.9987 298.923 24.3262 299.628 23.2446 299.628H20.6602C19.5786 299.628 18.9102 298.923 18.9102 297.793C18.9102 296.659 19.5786 295.958 20.6602 295.958H23.2446C24.3262 295.958 24.9987 296.659 24.9987 297.793ZM23.2284 299.345C24.1723 299.345 24.7516 298.757 24.7516 297.793C24.7516 296.829 24.1683 296.238 23.2284 296.238H20.6804C19.7365 296.238 19.1613 296.825 19.1613 297.793C19.1613 298.753 19.7406 299.345 20.6804 299.345H23.2284ZM24.9987 293.175C24.9987 294.305 24.3262 295.01 23.2446 295.01H20.6602C19.5786 295.01 18.9102 294.305 18.9102 293.175C18.9102 292.041 19.5786 291.34 20.6602 291.34H23.2446C24.3262 291.34 24.9987 292.041 24.9987 293.175ZM23.2284 294.727C24.1723 294.727 24.7516 294.139 24.7516 293.175C24.7516 292.211 24.1683 291.62 23.2284 291.62H20.6804C19.7365 291.62 19.1613 292.207 19.1613 293.175C19.1613 294.135 19.7406 294.727 20.6804 294.727H23.2284ZM23.7186 289.047V289.59C23.7186 290.052 23.8968 290.307 24.229 290.307C24.549 290.307 24.7313 290.052 24.7313 289.59V288.342C24.7313 287.573 25.0595 287.139 25.6428 287.139C26.2504 287.139 26.5867 287.573 26.5867 288.342V289.582C26.5867 290.307 26.2666 290.696 25.6995 290.696C25.2985 290.696 25.0271 290.489 24.9096 290.088C24.8083 290.404 24.5855 290.574 24.2574 290.574C23.828 290.574 23.5728 290.287 23.5363 289.76C23.3176 290.137 22.9165 290.372 22.4102 290.372H22.159C21.3934 290.372 20.8789 289.837 20.8789 289.047C20.8789 288.496 21.1139 288.059 21.5068 287.836C21.1625 287.755 20.9559 287.556 20.9559 287.188V286.912H21.1827V287.168C21.1827 287.565 21.519 287.674 22.0091 287.674H22.4102C23.1879 287.674 23.7186 288.233 23.7186 289.047ZM25.6509 290.429C26.1046 290.429 26.3477 290.113 26.3477 289.55V288.379C26.3477 287.767 26.1087 287.423 25.663 287.423C25.2215 287.423 24.9744 287.767 24.9744 288.379V289.55C24.9744 290.113 25.2215 290.429 25.6509 290.429ZM22.4021 290.1C23.0462 290.1 23.4837 289.675 23.4837 289.043C23.4837 288.403 23.0462 287.949 22.4021 287.949H22.1712C21.5433 287.949 21.1098 288.391 21.1098 289.043C21.1098 289.675 21.5433 290.1 22.1712 290.1H22.4021ZM24.9258 286.467H20.9559V286.187H21.5433C21.126 286.009 20.883 285.636 20.883 285.13C20.883 284.405 21.3812 283.955 22.1955 283.955H22.3494V284.227H22.2198C21.5392 284.227 21.122 284.599 21.122 285.203C21.122 285.815 21.5392 286.187 22.2238 286.187H24.9258V286.467Z" fill="#262A33"/>
<path d="M28.5148 303.998V303.942C29.6953 303.942 29.8203 303.651 29.8203 302.984V282.262C29.8203 281.595 29.6953 281.304 28.5148 281.304V281.248H33.4314V281.304C32.2509 281.304 32.1259 281.595 32.1259 282.262V302.984C32.1259 303.651 32.2509 303.942 33.4314 303.942V303.998H28.5148ZM33.3064 290.095C33.3064 289.873 33.3203 289.665 33.5842 288.873C34.4453 286.526 36.1675 281.304 34.2092 281.304V281.248H37.8898V281.304C36.5842 281.304 34.5148 286.526 33.6536 288.873C33.3898 289.665 33.3759 289.873 33.3759 290.109C33.3759 290.998 33.8481 291.484 34.6675 291.484C35.3064 291.484 36.2231 291.192 37.0703 290.595C36.1536 292.817 35.6536 299.026 35.6536 301.581C35.6536 302.817 35.7786 303.748 36.2925 303.748C36.8898 303.748 37.362 302.442 37.362 297.567H37.4175C37.4175 302.859 37.0009 304.192 35.5842 304.192C34.1953 304.192 33.5564 302.929 33.5564 300.165C33.5564 298.554 33.7925 293.915 34.3898 291.526C33.7925 291.442 33.3064 290.998 33.3064 290.095ZM41.3759 303.998V303.942C42.5564 303.942 42.6398 303.651 42.5564 302.998L42.0286 298.637H39.0703C38.987 301.151 39.2231 303.942 40.7092 303.942V303.998H37.1675V303.942C38.2092 303.942 38.9175 298.401 39.1814 295.915L39.9036 289.331C40.1675 286.845 40.6259 281.304 39.3203 281.304V281.248H39.8481C41.0425 281.248 41.7786 281.22 42.2925 281.012L44.8481 302.984C44.9175 303.651 45.0842 303.942 46.2648 303.942V303.998H41.3759ZM39.0703 298.581H42.0286L40.4175 285.22L39.2648 295.915C39.1953 296.623 39.112 297.581 39.0703 298.581ZM46.0148 303.998V303.942C47.1953 303.942 47.3203 303.651 47.3203 302.984V281.29C45.737 281.47 44.5564 286.748 44.362 289.929H44.3064L44.6536 280.956C44.8898 281.137 46.3481 281.248 47.4036 281.248H49.5564C50.612 281.248 52.0703 281.137 52.3064 280.956L52.6536 289.929H52.5981C52.4036 286.734 51.2231 281.456 49.6259 281.304V302.984C49.6259 303.651 49.7509 303.942 50.9314 303.942V303.998H46.0148ZM55.1536 303.998V303.942C56.3342 303.942 56.4592 303.651 56.4592 302.984V281.29C54.8759 281.47 53.6953 286.748 53.5009 289.929H53.4453L53.7925 280.956C54.0286 281.137 55.487 281.248 56.5425 281.248H58.6953C59.7509 281.248 61.2092 281.137 61.4453 280.956L61.7925 289.929H61.737C61.5425 286.734 60.362 281.456 58.7648 281.304V302.984C58.7648 303.651 58.8898 303.942 60.0703 303.942V303.998H55.1536ZM64.6536 303.998V303.942C65.8342 303.942 65.9175 303.651 65.8342 302.998L65.3064 298.637H62.3481C62.2648 301.151 62.5009 303.942 63.987 303.942V303.998H60.4453V303.942C61.487 303.942 62.1953 298.401 62.4592 295.915L63.1814 289.331C63.4453 286.845 63.9036 281.304 62.5981 281.304V281.248H63.1259C64.3203 281.248 65.0564 281.22 65.5703 281.012L68.1259 302.984C68.1953 303.651 68.362 303.942 69.5425 303.942V303.998H64.6536ZM62.3481 298.581H65.3064L63.6953 285.22L62.5425 295.915C62.4731 296.623 62.3898 297.581 62.3481 298.581ZM76.1814 304.192C74.6675 304.192 74.112 302.609 74.112 300.151C74.112 298.665 74.3481 294.609 74.9592 292.192C74.237 291.984 73.9731 291.29 73.9731 290.456C73.9731 288.345 75.5842 285.206 75.5842 283.012C75.5842 281.637 74.8342 281.304 73.4731 281.304H72.6814V302.984C72.6814 303.651 72.8064 303.942 73.987 303.942V303.998H69.0703V303.942C70.2509 303.942 70.3759 303.651 70.3759 302.984V282.262C70.3759 281.595 70.2509 281.304 69.0703 281.304V281.248H73.5009C76.4175 281.248 77.8481 281.929 77.8481 283.581C77.8481 286.317 74.1675 288.956 74.1675 290.97C74.1675 291.581 74.5009 292.179 75.362 292.179C75.9592 292.179 76.8481 291.929 77.6259 291.29C76.7231 293.484 76.2092 298.762 76.2092 301.373C76.2092 302.581 76.3203 303.748 76.8481 303.748C77.4314 303.748 77.9175 302.637 77.9175 297.567H77.9731C77.9731 302.817 77.5703 304.192 76.1814 304.192ZM82.3203 304.067L79.7509 285.692V295.873C79.7509 298.373 79.9175 303.942 81.487 303.942V303.998H78.2092V303.942C79.5148 303.942 79.6536 298.373 79.6536 295.873V289.373C79.6536 286.873 79.5148 281.304 78.2092 281.304V281.248H78.8203C80.1398 281.248 80.8342 281.22 81.362 281.012L83.3064 295.345L85.0009 281.248H88.237V281.304C87.0564 281.304 86.9314 281.595 86.9314 282.262V302.984C86.9314 303.651 87.0564 303.942 88.237 303.942V303.998H83.2648V303.942C84.4453 303.942 84.5703 303.651 84.5703 302.984V285.679L82.3759 304.067H82.3203ZM88.5842 304.331V293.929H88.6398C88.8064 295.012 90.4731 303.72 91.6814 303.72C92.2231 303.72 92.1953 302.915 92.1953 301.359V282.262C92.1953 281.595 92.0703 281.304 90.8898 281.304V281.248H95.8064V281.304C94.6259 281.304 94.5009 281.595 94.5009 282.262V301.359C94.5009 303.123 93.7786 304.054 92.5286 304.054C91.5981 304.054 91.1814 303.567 90.7648 302.595C90.4453 302.567 88.862 302.859 88.6398 304.331H88.5842ZM99.6259 304.179C97.1953 304.179 95.8759 300.22 95.8759 292.609C95.8759 284.998 97.1953 281.054 99.6259 281.054C102.029 281.054 103.362 284.998 103.362 292.609C103.362 300.22 102.029 304.179 99.6259 304.179ZM96.4175 278.22C96.4175 277.484 97.0009 276.901 97.737 276.901C98.5009 276.901 99.0425 277.484 99.0425 278.22C99.0425 278.956 98.5009 279.54 97.737 279.54C97.0009 279.54 96.4175 278.956 96.4175 278.22ZM98.2509 292.609C98.2509 300.151 98.6953 304.123 99.6259 304.123C100.529 304.123 100.987 300.151 100.987 292.609C100.987 285.067 100.529 281.109 99.6259 281.109C98.6953 281.109 98.2509 285.067 98.2509 292.609ZM100.195 278.22C100.195 277.484 100.737 276.901 101.501 276.901C102.237 276.901 102.82 277.484 102.82 278.22C102.82 278.956 102.237 279.54 101.501 279.54C100.737 279.54 100.195 278.956 100.195 278.22ZM103.431 303.998V303.942C104.612 303.942 104.737 303.651 104.737 302.984V282.262C104.737 281.595 104.612 281.304 103.431 281.304V281.248H108.348V281.304C107.168 281.304 107.043 281.595 107.043 282.262V303.942H107.945C109.57 303.942 110.806 298.554 110.987 293.929H111.043L110.695 304.29C109.987 304.109 109.001 303.998 107.945 303.998H103.431Z" fill="#262A33"/>
<rect x="253.332" y="279.348" width="1" height="7.58519" fill="#262A33"/>
<rect x="255.754" y="275.555" width="1" height="11.3778" fill="#262A33"/>
<rect x="258.176" y="278.398" width="1" height="8.53333" fill="#262A33"/>
<circle cx="264.305" cy="283.139" r="3.34815" transform="rotate(180 264.305 283.139)" stroke="#262A33" stroke-width="0.888889"/>
<rect x="269.52" y="280.77" width="1" height="6.16296" fill="#262A33"/>
<rect x="271.941" y="281.244" width="1" height="5.68889" fill="#262A33"/>
<rect x="274.363" y="277.926" width="1" height="9.00741" fill="#262A33"/>
<rect x="282.457" y="279.346" width="1" height="3.79259" transform="rotate(180 282.457 279.346)" fill="#262A33"/>
<rect x="280.035" y="283.139" width="1" height="7.58519" transform="rotate(180 280.035 283.139)" fill="#262A33"/>
<rect x="277.613" y="281.242" width="1" height="5.68889" transform="rotate(180 277.613 281.242)" fill="#262A33"/>
<rect x="283.879" y="283.141" width="1" height="3.79259" fill="#262A33"/>
<rect x="286.301" y="281.244" width="1" height="5.68889" fill="#262A33"/>
<rect x="288.723" y="279.822" width="1" height="7.11111" fill="#262A33"/>
<rect width="1" height="8.05926" transform="matrix(1 0 0 -1 291.059 283.613)" fill="#262A33"/>
<rect width="1" height="2.37037" transform="matrix(1 0 0 -1 293.48 277.924)" fill="#262A33"/>
<rect width="1" height="6.63704" transform="matrix(1 0 0 -1 295.902 282.191)" fill="#262A33"/>
<rect x="298.242" y="275.555" width="1" height="11.3778" fill="#262A33"/>
<rect x="300.664" y="282.666" width="1" height="4.26667" fill="#262A33"/>
<rect x="303.086" y="276.977" width="1" height="9.95555" fill="#262A33"/>
<rect x="304" y="299.258" width="1" height="7.58519" transform="rotate(180 304 299.258)" fill="#262A33"/>
<rect x="301.578" y="303.051" width="1" height="11.3778" transform="rotate(180 301.578 303.051)" fill="#262A33"/>
<rect x="299.156" y="300.207" width="1" height="8.53333" transform="rotate(180 299.156 300.207)" fill="#262A33"/>
<rect x="296.82" y="297.836" width="1" height="6.16296" transform="rotate(180 296.82 297.836)" fill="#262A33"/>
<rect x="294.398" y="297.361" width="1" height="5.68889" transform="rotate(180 294.398 297.361)" fill="#262A33"/>
<rect x="291.977" y="300.68" width="1" height="9.00741" transform="rotate(180 291.977 300.68)" fill="#262A33"/>
<rect x="283.883" y="299.26" width="1" height="3.79259" fill="#262A33"/>
<rect x="286.305" y="295.467" width="1" height="7.58519" fill="#262A33"/>
<rect x="288.727" y="297.363" width="1" height="5.68889" fill="#262A33"/>
<circle cx="278.668" cy="295.466" r="3.34815" stroke="#262A33" stroke-width="0.888889"/>
<rect x="273.453" y="295.465" width="1" height="3.79259" transform="rotate(180 273.453 295.465)" fill="#262A33"/>
<rect x="271.031" y="297.361" width="1" height="5.68889" transform="rotate(180 271.031 297.361)" fill="#262A33"/>
<rect x="268.609" y="298.783" width="1" height="7.11111" transform="rotate(180 268.609 298.783)" fill="#262A33"/>
<rect width="1" height="8.05926" transform="matrix(-1 0 0 1 266.273 294.992)" fill="#262A33"/>
<rect width="1" height="2.37037" transform="matrix(-1 0 0 1 263.852 300.682)" fill="#262A33"/>
<rect width="1" height="6.63704" transform="matrix(-1 0 0 1 261.43 296.414)" fill="#262A33"/>
<rect x="259.09" y="303.051" width="1" height="11.3778" transform="rotate(180 259.09 303.051)" fill="#262A33"/>
<rect x="256.668" y="295.939" width="1" height="4.26667" transform="rotate(180 256.668 295.939)" fill="#262A33"/>
<rect x="254.246" y="301.629" width="1" height="9.95555" transform="rotate(180 254.246 301.629)" fill="#262A33"/>
</g>
<defs>
<clipPath id="clip0_494_189734">
<rect width="320" height="320" rx="24" fill="white"/>
</clipPath>
</defs>
</svg>
