<svg width="320" height="320" viewBox="0 0 320 320" fill="none" xmlns="http://www.w3.org/2000/svg">
<g clip-path="url(#clip0_494_190174)">
<path d="M160 46.001C184.074 46.001 207.531 53.6225 227.008 67.773" stroke="#DB7500" stroke-width="28"/>
<path d="M160 66.0009C179.851 66.0009 199.192 72.2852 215.252 83.9532" stroke="#EB9C00" stroke-width="28"/>
<path d="M160 86.0007C175.627 86.0007 190.853 90.948 203.496 100.133" stroke="#FFCC00" stroke-width="28"/>
<path d="M160 106.002C171.404 106.002 182.515 109.613 191.74 116.316" stroke="#FFE066" stroke-width="28"/>
<path d="M160 125.998C167.18 125.998 174.176 128.271 179.985 132.492" stroke="#FFEB99" stroke-width="28"/>
<path d="M227.008 67.773C246.484 81.9235 260.981 101.877 268.42 124.773" stroke="#AF3F07" stroke-width="28"/>
<path d="M215.252 83.9532C231.311 95.6212 243.265 112.074 249.399 130.953" stroke="#C95E00" stroke-width="28"/>
<path d="M203.496 100.133C216.139 109.319 225.549 122.271 230.378 137.133" stroke="#DF760B" stroke-width="28"/>
<path d="M191.74 116.316C200.966 123.018 207.833 132.47 211.357 143.315" stroke="#E3A054" stroke-width="28"/>
<path d="M179.985 132.492C185.794 136.712 190.117 142.663 192.336 149.492" stroke="#F5CF81" stroke-width="28"/>
<path d="M268.42 124.773C275.86 147.669 275.86 172.332 268.42 195.228" stroke="#781805" stroke-width="28"/>
<path d="M249.399 130.953C255.534 149.832 255.534 170.169 249.399 189.048" stroke="#99260F" stroke-width="28"/>
<path d="M230.378 137.133C235.207 151.996 235.207 168.005 230.378 182.867" stroke="#C93E22" stroke-width="28"/>
<path d="M211.357 143.315C214.881 154.161 214.881 165.844 211.357 176.689" stroke="#E86B52" stroke-width="28"/>
<path d="M192.336 149.492C194.555 156.32 194.555 163.676 192.336 170.505" stroke="#EC9C8C" stroke-width="28"/>
<path d="M268.42 195.228C260.981 218.124 246.484 238.077 227.008 252.228" stroke="#790F56" stroke-width="28"/>
<path d="M249.399 189.048C243.265 207.927 231.311 224.38 215.252 236.048" stroke="#A12076" stroke-width="28"/>
<path d="M230.378 182.867C225.549 197.73 216.139 210.682 203.496 219.867" stroke="#CF389C" stroke-width="28"/>
<path d="M211.357 176.689C207.833 187.535 200.966 196.986 191.74 203.689" stroke="#D76EB4" stroke-width="28"/>
<path d="M192.336 170.505C190.117 177.333 185.794 183.284 179.985 187.505" stroke="#D89EC5" stroke-width="28"/>
<path d="M227.008 252.228C207.531 266.379 184.074 274 160 274" stroke="#560C84" stroke-width="28"/>
<path d="M215.252 236.048C199.192 247.716 179.851 254 160 254" stroke="#7D20A1" stroke-width="28"/>
<path d="M203.496 219.867C190.853 229.053 175.627 234 160 234" stroke="#B536C9" stroke-width="28"/>
<path d="M191.74 203.689C182.515 210.392 171.404 214.002 160 214.002" stroke="#D373E2" stroke-width="28"/>
<path d="M179.985 187.505C174.176 191.725 167.18 193.998 160 193.998" stroke="#E9ABF3" stroke-width="28"/>
<path d="M92.9925 252.228C112.469 266.379 135.926 274 160 274" stroke="#2D069B" stroke-width="28"/>
<path d="M104.748 236.048C120.808 247.716 140.149 254 160 254" stroke="#461ABE" stroke-width="28"/>
<path d="M116.504 219.867C129.147 229.053 144.373 234 160 234" stroke="#5D36C9" stroke-width="28"/>
<path d="M128.26 203.689C137.485 210.392 148.596 214.002 160 214.002" stroke="#886ADB" stroke-width="28"/>
<path d="M140.015 187.505C145.824 191.725 152.82 193.998 160 193.998" stroke="#AC9BDA" stroke-width="28"/>
<path d="M51.5796 195.228C59.019 218.124 73.5159 238.077 92.9925 252.228" stroke="#0924AD" stroke-width="28"/>
<path d="M70.6007 189.048C76.7349 207.927 88.6885 224.38 104.748 236.048" stroke="#1541D4" stroke-width="28"/>
<path d="M89.6218 182.867C94.4509 197.73 103.861 210.682 116.504 219.867" stroke="#1755E5" stroke-width="28"/>
<path d="M108.643 176.689C112.167 187.535 119.034 196.986 128.26 203.689" stroke="#2A82FF" stroke-width="28"/>
<path d="M127.664 170.505C129.883 177.333 134.206 183.284 140.015 187.505" stroke="#7CBEF9" stroke-width="28"/>
<path d="M51.5796 124.773C44.1402 147.669 44.1402 172.332 51.5796 195.228" stroke="#01546A" stroke-width="28"/>
<path d="M70.6007 130.953C64.4665 149.832 64.4665 170.169 70.6007 189.048" stroke="#08708C" stroke-width="28"/>
<path d="M89.6218 137.133C84.7927 151.996 84.7927 168.005 89.6218 182.867" stroke="#2599BA" stroke-width="28"/>
<path d="M108.643 143.315C105.119 154.161 105.119 165.844 108.643 176.689" stroke="#3BB4D6" stroke-width="28"/>
<path d="M127.664 149.492C125.445 156.32 125.445 163.676 127.664 170.505" stroke="#7FDBF5" stroke-width="28"/>
<path d="M92.9925 67.773C73.5159 81.9235 59.019 101.877 51.5796 124.773" stroke="#086828" stroke-width="28"/>
<path d="M104.748 83.9532C88.6885 95.6212 76.7349 112.074 70.6007 130.953" stroke="#118F3C" stroke-width="28"/>
<path d="M116.504 100.133C103.861 109.319 94.4509 122.271 89.6218 137.133" stroke="#15BB4C" stroke-width="28"/>
<path d="M128.26 116.316C119.034 123.018 112.167 132.47 108.643 143.315" stroke="#60E08B" stroke-width="28"/>
<path d="M140.015 132.492C134.206 136.712 129.883 142.663 127.664 149.492" stroke="#A8F0C0" stroke-width="28"/>
<path d="M160 46.001C135.926 46.001 112.469 53.6225 92.9925 67.773" stroke="#2B7100" stroke-width="28"/>
<path d="M160 66.0009C140.149 66.0009 120.808 72.2852 104.748 83.9532" stroke="#429A0C" stroke-width="28"/>
<path d="M160 86.0007C144.373 86.0007 129.147 90.948 116.504 100.133" stroke="#6FC936" stroke-width="28"/>
<path d="M160 106.002C148.596 106.002 137.485 109.613 128.26 116.316" stroke="#9DE86F" stroke-width="28"/>
<path d="M160 125.998C152.82 125.998 145.824 128.271 140.015 132.492" stroke="#BCF39A" stroke-width="28"/>
<path d="M228.185 66.1549C234.44 70.6997 243.195 69.313 247.74 63.0577C252.285 56.8024 250.898 48.0472 244.643 43.5024C238.387 38.9577 229.632 40.3444 225.087 46.5997C220.543 52.855 221.929 61.6102 228.185 66.1549Z" fill="#DF760B" stroke="#F8F9FA" stroke-width="2" stroke-miterlimit="10"/>
<path d="M91.8174 253.846L228.184 66.1543" stroke="#F8F9FA" stroke-width="2" stroke-miterlimit="10"/>
<path d="M91.8194 253.846C98.0747 258.391 99.4614 267.146 94.9166 273.401C90.3719 279.657 81.6167 281.043 75.3614 276.499C69.1061 271.954 67.7194 263.199 72.2641 256.943C76.8089 250.688 85.5641 249.301 91.8194 253.846Z" fill="#2599BA" stroke="#F8F9FA" stroke-width="2" stroke-miterlimit="10"/>
<path d="M91.8155 66.1539C98.0708 61.6092 99.4575 52.854 94.9127 46.5987C90.368 40.3434 81.6128 38.9567 75.3575 43.5015C69.1022 48.0462 67.7155 56.8014 72.2602 63.0567C76.805 69.312 85.5602 70.6987 91.8155 66.1539Z" fill="#15BB4C" stroke="#F8F9FA" stroke-width="2" stroke-miterlimit="10"/>
<path d="M228.183 253.846L91.8164 66.1543" stroke="#F8F9FA" stroke-width="2" stroke-miterlimit="10"/>
<path d="M228.181 253.845C234.436 249.3 243.191 250.687 247.736 256.942C252.281 263.198 250.894 271.953 244.639 276.498C238.383 281.042 229.628 279.656 225.084 273.4C220.539 267.145 221.925 258.39 228.181 253.845Z" fill="#5D36C9" stroke="#F8F9FA" stroke-width="2" stroke-miterlimit="10"/>
<path d="M160 44C167.732 44 174 37.732 174 30C174 22.268 167.732 16 160 16C152.268 16 146 22.268 146 30C146 37.732 152.268 44 160 44Z" fill="#FFCC00" stroke="#F8F9FA" stroke-width="2" stroke-miterlimit="10"/>
<path d="M160 160L160 44" stroke="#F8F9FA" stroke-width="2" stroke-miterlimit="10"/>
<path d="M160 133C174.912 133 187 145.088 187 160C187 174.912 174.912 187 160 187C145.088 187 133 174.912 133 160C133 145.088 145.088 133 160 133Z" fill="#F8F9FA" stroke="#F8F9FA" stroke-width="2"/>
</g>
<defs>
<clipPath id="clip0_494_190174">
<rect width="320" height="320" rx="24" fill="white"/>
</clipPath>
</defs>
</svg>
