<svg width="320" height="320" viewBox="0 0 320 320" fill="none" xmlns="http://www.w3.org/2000/svg">
<path d="M175.118 104.762L175.118 114.615C175.12 115.698 175.372 116.765 175.855 117.733C176.435 118.929 177.341 119.938 178.467 120.644C179.594 121.349 180.897 121.724 182.226 121.724L206.61 121.724C207.91 121.689 209.175 121.298 210.268 120.594C211.362 119.891 212.241 118.901 212.812 117.733C213.298 116.769 213.551 115.704 213.549 114.624L213.549 104.94C213.072 104.827 212.583 104.77 212.092 104.77C210.623 104.77 209.198 105.269 208.05 106.185C207.411 106.707 206.61 106.993 205.784 106.993C204.958 106.993 204.158 106.707 203.518 106.185C202.367 105.268 200.939 104.769 199.468 104.77C198.111 104.768 196.788 105.195 195.689 105.99C195.063 106.44 194.312 106.683 193.541 106.683C192.77 106.683 192.019 106.44 191.394 105.99C190.298 105.194 188.978 104.766 187.623 104.77C186.215 104.767 184.844 105.222 183.717 106.066C183.055 106.578 182.241 106.855 181.404 106.855C180.567 106.855 179.754 106.578 179.091 106.066C177.965 105.222 176.594 104.767 175.186 104.77L175.118 104.762Z" fill="#FFEFD6"/>
<path d="M171.425 192.578C171.412 197.978 173.343 203.202 176.864 207.295C178.985 209.788 181.622 211.789 184.594 213.16C187.565 214.531 190.8 215.238 194.072 215.233C197.213 215.238 200.32 214.587 203.195 213.32C206.069 212.054 208.647 210.201 210.763 207.879C214.593 203.706 216.711 198.243 216.694 192.578C216.694 191.461 216.612 190.345 216.448 189.24C214.502 189.326 212.619 189.96 211.017 191.07C210.351 191.545 209.555 191.804 208.736 191.812C207.918 191.819 207.117 191.575 206.442 191.112C204.707 189.887 202.635 189.23 200.511 189.231C198.551 189.228 196.631 189.787 194.979 190.841C194.33 191.256 193.576 191.477 192.806 191.477C192.035 191.477 191.281 191.256 190.632 190.841C188.98 189.787 187.06 189.228 185.1 189.231C183.175 189.231 181.288 189.768 179.652 190.782C178.994 191.177 178.238 191.381 177.47 191.371C176.702 191.36 175.953 191.136 175.306 190.722C174.183 190.034 172.937 189.571 171.637 189.358C171.493 190.426 171.423 191.501 171.425 192.578Z" fill="#FFEFD6"/>
<path d="M183.091 158.138L205.068 158.138L205.068 136.965L183.091 136.965L183.091 158.138Z" fill="#FFEFD6"/>
<path d="M120.996 191.019C124.175 191.019 127.225 192.282 129.473 194.531C131.721 196.779 132.984 199.828 132.984 203.008L132.984 210.997C132.984 211.528 132.774 212.036 132.399 212.411C132.024 212.786 131.515 212.997 130.985 212.997L120.996 212.997C120.465 212.997 119.957 212.786 119.582 212.411C119.207 212.036 118.996 211.528 118.996 210.997L118.996 193.01C118.998 192.481 119.21 191.975 119.585 191.602C119.959 191.229 120.467 191.019 120.996 191.019Z" fill="#FFEFD6"/>
<path d="M213.559 56.9882L160.547 56.9882C158.446 56.9882 156.431 56.1536 154.945 54.668C153.459 53.1823 152.625 51.1674 152.625 49.0664L205.637 49.0664C206.678 49.0664 207.708 49.2713 208.669 49.6694C209.63 50.0675 210.503 50.6511 211.239 51.3867C211.974 52.1223 212.558 52.9956 212.956 53.9567C213.354 54.9178 213.559 55.9479 213.559 56.9882Z" fill="#FFB926"/>
<path d="M221.048 67.6683L168.001 67.6683C165.9 67.6683 163.885 66.8336 162.4 65.348C160.914 63.8624 160.08 61.8474 160.08 59.7464L213.126 59.7464C215.227 59.7464 217.242 60.5811 218.728 62.0667C220.213 63.5523 221.048 65.5673 221.048 67.6683Z" fill="#FFB926"/>
<path d="M207.06 143.066C207.06 141.961 206.165 141.066 205.061 141.066H183.083C181.979 141.066 181.084 141.961 181.084 143.066C181.084 144.17 181.979 145.065 183.083 145.065H205.061C206.165 145.065 207.06 144.17 207.06 143.066Z" fill="#FFB926"/>
<path d="M205.059 153.055C206.164 153.055 207.059 152.16 207.059 151.056C207.059 149.951 206.164 149.056 205.059 149.056H183.082C181.977 149.056 181.082 149.951 181.082 151.056C181.082 152.16 181.977 153.055 183.082 153.055H205.059Z" fill="#FFB926"/>
<path fill-rule="evenodd" clip-rule="evenodd" d="M199.063 169.119H189.243V180.133H199.063V169.119ZM197.91 178.947L190.395 178.947V170.279H197.91L197.91 178.947Z" fill="#FFB926"/>
<path fill-rule="evenodd" clip-rule="evenodd" d="M205.069 163.75L205.069 157.054H183.091V159.045H171.094V155.046H166.841V167.035H171.094V163.044H183.091V163.744C179.374 165.226 175.958 167.457 173.074 170.342C167.505 175.913 164.374 183.465 164.367 191.342C164.374 199.219 167.505 206.771 173.074 212.342C178.643 217.913 186.195 221.046 194.072 221.055C201.949 221.046 209.502 217.913 215.072 212.343C220.643 206.772 223.776 199.22 223.785 191.342C223.776 183.464 220.643 175.912 215.072 170.342C212.192 167.461 208.781 165.232 205.069 163.75ZM199.788 165.044C204.791 166.135 209.421 168.639 213.098 172.316C218.144 177.363 220.982 184.205 220.989 191.342C220.982 198.479 218.144 205.322 213.098 210.368C208.051 215.415 201.209 218.253 194.072 218.259C186.936 218.25 180.094 215.412 175.048 210.366C170.002 205.32 167.164 198.478 167.155 191.342C167.157 184.202 169.993 177.354 175.039 172.302C178.691 168.648 183.283 166.149 188.248 165.044H199.788Z" fill="#FFB926"/>
<path fill-rule="evenodd" clip-rule="evenodd" d="M218.129 125.403C216.252 127.557 213.66 128.962 210.83 129.358V138.067H178.313V129.417C175.382 129.142 172.66 127.78 170.682 125.599C168.705 123.418 167.616 120.576 167.629 117.632L167.629 72.5747L221.048 72.5747V117.632C221.043 120.489 220.006 123.249 218.129 125.403ZM173.077 124.028C174.774 125.724 177.074 126.678 179.473 126.68H181.109V135.271H208.034V126.697L209.407 126.672C211.765 126.604 214.005 125.624 215.654 123.937C217.304 122.251 218.236 119.991 218.252 117.632L218.252 75.3707L170.425 75.3707V117.632C170.427 120.031 171.381 122.331 173.077 124.028Z" fill="#FFB926"/>
<path d="M95.3242 176.355C95.3216 178.869 95.8276 181.358 96.8119 183.671C97.7961 185.985 99.2384 188.076 101.052 189.817C104.526 193.165 109.165 195.03 113.989 195.02H114.913V191.724H114.023C111.197 191.729 108.425 190.949 106.017 189.47C103.767 188.099 101.908 186.173 100.619 183.876C99.3296 181.579 98.6529 178.989 98.6539 176.355C98.6607 172.283 100.283 168.38 103.164 165.503C106.046 162.627 109.951 161.011 114.023 161.011C116.065 161.011 118.086 161.417 119.968 162.207C121.85 162.997 123.557 164.155 124.987 165.611L127.384 168.789H130.985V168.636C130.497 167.556 129.904 166.525 129.214 165.561C128.576 164.657 127.86 163.815 127.077 163.044H165.104V159.045H120.996V159.046C118.767 158.143 116.38 157.677 113.964 157.681C111.513 157.681 109.087 158.164 106.823 159.103C104.559 160.042 102.503 161.418 100.772 163.153C99.0404 164.887 97.6681 166.946 96.7334 169.211C95.7986 171.477 95.3198 173.904 95.3242 176.355Z" fill="#FFB926"/>
<path d="M132.984 259.554C132.984 261.426 131.467 262.943 129.595 262.943H118.394C116.523 262.943 115.005 261.426 115.005 259.554L115.005 218.386C115.005 216.515 116.523 214.997 118.394 214.997H129.595C131.467 214.997 132.984 216.515 132.984 218.386L132.984 259.554Z" fill="#FFB926"/>
<path d="M172.807 232.967C171.702 232.967 170.807 232.072 170.807 230.967C170.807 229.863 171.702 228.968 172.807 228.968L213.051 228.968C214.156 228.968 215.051 229.863 215.051 230.967C215.051 232.072 214.156 232.967 213.051 232.967H172.807Z" fill="#FFB926"/>
<path d="M214.899 248.752C214.725 248.883 214.513 248.955 214.294 248.955H171.847C171.625 248.96 171.407 248.891 171.227 248.76C171.048 248.628 170.917 248.44 170.856 248.227L167.467 236.238C167.423 236.09 167.415 235.933 167.442 235.781C167.47 235.629 167.533 235.485 167.626 235.362C167.719 235.238 167.84 235.138 167.978 235.07C168.117 235.001 168.269 234.966 168.424 234.967H217.692C217.846 234.966 217.999 235.001 218.138 235.07C218.276 235.138 218.397 235.238 218.49 235.362C218.583 235.485 218.646 235.629 218.674 235.781C218.701 235.933 218.693 236.09 218.649 236.238L215.26 248.227C215.2 248.436 215.073 248.621 214.899 248.752Z" fill="#FFB926"/>
<path d="M169.103 263.935L169.103 251.946C169.103 251.815 169.129 251.686 169.179 251.565C169.229 251.444 169.303 251.334 169.396 251.242C169.489 251.15 169.599 251.077 169.721 251.028C169.842 250.979 169.972 250.954 170.103 250.955L217.04 250.955C217.04 253.578 216.524 256.176 215.52 258.6C214.516 261.024 213.044 263.226 211.189 265.082C209.334 266.937 207.131 268.408 204.708 269.412C202.284 270.416 199.686 270.933 197.062 270.933H169.103V270.789H107.372C107.241 270.79 107.111 270.765 106.99 270.716C106.869 270.667 106.759 270.594 106.666 270.502C106.573 270.41 106.499 270.3 106.449 270.179C106.398 270.058 106.372 269.929 106.372 269.798V265.934C106.372 265.669 106.478 265.415 106.665 265.227C106.853 265.04 107.107 264.934 107.372 264.934H168.103C168.368 264.934 168.623 264.829 168.81 264.642C168.998 264.454 169.103 264.2 169.103 263.935Z" fill="#FFB926"/>
</svg>
