<svg width="320" height="320" viewBox="0 0 320 320" fill="none" xmlns="http://www.w3.org/2000/svg">
<rect width="320" height="320" rx="24" fill="#78A65A"/>
<path d="M105.718 91.5977C107.639 91.5977 109.509 91.8154 111.305 92.2275C111.717 94.024 111.936 95.8948 111.936 97.8164C111.936 105.246 108.676 111.914 103.512 116.472C108.676 121.03 111.936 127.697 111.936 135.127C111.936 137.048 111.717 138.919 111.305 140.715C109.509 141.127 107.639 141.346 105.718 141.346C98.2876 141.346 91.6194 138.086 87.0615 132.921C82.5037 138.086 75.8355 141.346 68.4053 141.346C66.484 141.346 64.6135 141.127 62.8174 140.715C62.4051 138.919 62.1875 137.048 62.1875 135.127C62.1875 127.697 65.4459 121.03 70.6104 116.472C65.4458 111.914 62.1876 105.246 62.1875 97.8164C62.1875 95.8949 62.405 94.0239 62.8174 92.2275C64.6135 91.8153 66.4841 91.5977 68.4053 91.5977C75.8351 91.5977 82.5027 94.8567 87.0605 100.021C91.6184 94.8562 98.2875 91.5977 105.718 91.5977Z" fill="#F5BB1D"/>
<path d="M87.0625 100.02C89.7537 103.069 91.7079 106.784 92.6494 110.885C96.7491 111.826 100.462 113.78 103.511 116.471C100.462 119.161 96.7491 121.115 92.6494 122.058C91.7077 126.158 89.7532 129.872 87.0625 132.921C84.3719 129.872 82.4164 126.159 81.4746 122.059C77.3734 121.117 73.6589 119.162 70.6094 116.471C73.6589 113.78 77.3734 111.824 81.4746 110.883C82.4163 106.782 84.3715 103.069 87.0625 100.02Z" fill="#BC583F"/>
<path d="M87.0615 110.252C88.9829 110.252 90.8532 110.471 92.6494 110.884C93.0617 112.679 93.2812 114.549 93.2812 116.47C93.2812 118.391 93.062 120.262 92.6494 122.058C90.8533 122.47 88.983 122.689 87.0615 122.689C85.1407 122.689 83.2712 122.47 81.4756 122.058C81.063 120.262 80.8437 118.391 80.8438 116.47C80.8438 114.549 81.0622 112.679 81.4746 110.883C83.2705 110.471 85.1405 110.252 87.0615 110.252Z" fill="#262A33"/>
<path d="M87.0615 110.252L87.0615 108.752L87.0615 108.752L87.0615 110.252ZM92.6494 110.884L94.1114 110.548L93.9011 109.632L92.9852 109.422L92.6494 110.884ZM93.2812 116.47L94.7813 116.47L94.7812 116.47L93.2812 116.47ZM92.6494 122.058L92.9853 123.52L93.901 123.309L94.1113 122.393L92.6494 122.058ZM87.0615 122.689L87.0615 124.189H87.0615V122.689ZM81.4756 122.058L80.0137 122.393L80.224 123.309L81.1399 123.52L81.4756 122.058ZM80.8438 116.47L79.3438 116.47L79.3438 116.47L80.8438 116.47ZM81.4746 110.883L81.139 109.421L80.223 109.631L80.0127 110.547L81.4746 110.883ZM87.0615 110.252V111.752C88.8684 111.752 90.6261 111.958 92.3137 112.346L92.6494 110.884L92.9852 109.422C91.0803 108.984 89.0975 108.752 87.0615 108.752V110.252ZM92.6494 110.884L91.1875 111.219C91.5748 112.907 91.7812 114.664 91.7813 116.47L93.2812 116.47L94.7812 116.47C94.7812 114.434 94.5485 112.452 94.1114 110.548L92.6494 110.884ZM93.2812 116.47L91.7812 116.47C91.7812 118.277 91.5751 120.034 91.1875 121.722L92.6494 122.058L94.1113 122.393C94.5489 120.489 94.7812 118.506 94.7812 116.47L93.2812 116.47ZM92.6494 122.058L92.3135 120.596C90.6262 120.983 88.8686 121.189 87.0615 121.189V122.689V124.189C89.0974 124.189 91.0804 123.957 92.9853 123.52L92.6494 122.058ZM87.0615 122.689L87.0615 121.189C85.2554 121.189 83.4984 120.983 81.8113 120.596L81.4756 122.058L81.1399 123.52C83.044 123.957 85.0261 124.189 87.0615 124.189L87.0615 122.689ZM81.4756 122.058L82.9375 121.722C82.5499 120.034 82.3437 118.277 82.3438 116.47L80.8438 116.47L79.3438 116.47C79.3437 118.506 79.5761 120.489 80.0137 122.393L81.4756 122.058ZM80.8438 116.47L82.3437 116.47C82.3438 114.663 82.5492 112.905 82.9366 111.219L81.4746 110.883L80.0127 110.547C79.5752 112.452 79.3438 114.435 79.3438 116.47L80.8438 116.47ZM81.4746 110.883L81.8102 112.345C83.4972 111.958 85.2546 111.752 87.0615 111.752L87.0615 110.252L87.0615 108.752C85.0263 108.752 83.0438 108.984 81.139 109.421L81.4746 110.883Z" fill="#262A33"/>
<path d="M62.1875 97.8154C62.1875 84.0779 73.3239 72.9414 87.0615 72.9414C100.799 72.9414 111.935 84.0779 111.935 97.8154C111.935 111.553 100.799 122.689 87.0615 122.689C73.3239 122.689 62.1875 111.553 62.1875 97.8154Z" stroke="#262A33" stroke-width="3" stroke-linecap="round"/>
<path d="M62.1875 135.126C62.1875 121.388 73.3239 110.252 87.0615 110.252C100.799 110.252 111.935 121.388 111.935 135.126C111.935 148.863 100.799 160 87.0615 160C73.3239 160 62.1875 148.863 62.1875 135.126Z" stroke="#262A33" stroke-width="3" stroke-linecap="round"/>
<path d="M68.4034 91.5977C82.1409 91.5977 93.2773 102.734 93.2773 116.472C93.2773 130.209 82.1409 141.346 68.4034 141.346C54.6659 141.346 43.5294 130.209 43.5294 116.472C43.5294 102.734 54.6659 91.5977 68.4034 91.5977Z" stroke="#262A33" stroke-width="3" stroke-linecap="round"/>
<path d="M105.716 91.5977C119.453 91.5977 130.59 102.734 130.59 116.472C130.59 130.209 119.453 141.346 105.716 141.346C91.9784 141.346 80.8419 130.209 80.8419 116.472C80.8419 102.734 91.9784 91.5977 105.716 91.5977Z" stroke="#262A33" stroke-width="3" stroke-linecap="round"/>
<path d="M82.3984 68.2771C82.3984 65.7014 84.4865 63.6133 87.0623 63.6133C89.6381 63.6133 91.7262 65.7014 91.7262 68.2771C91.7262 70.8529 89.6381 72.941 87.0623 72.941C84.4865 72.941 82.3984 70.8529 82.3984 68.2771Z" fill="#F5BB1D" stroke="#262A33" stroke-width="3" stroke-linecap="round"/>
<path d="M82.3984 164.664C82.3984 162.088 84.4865 160 87.0623 160C89.6381 160 91.7262 162.088 91.7262 164.664C91.7262 167.24 89.6381 169.328 87.0623 169.328C84.4865 169.328 82.3984 167.24 82.3984 164.664Z" fill="#F5BB1D" stroke="#262A33" stroke-width="3" stroke-linecap="round"/>
<path d="M34.2031 116.471C34.2031 113.895 36.2912 111.807 38.867 111.807C41.4428 111.807 43.5309 113.895 43.5309 116.471C43.5309 119.046 41.4428 121.134 38.867 121.134C36.2912 121.134 34.2031 119.046 34.2031 116.471Z" fill="#F5BB1D" stroke="#262A33" stroke-width="3" stroke-linecap="round"/>
<path d="M130.59 116.471C130.59 113.895 132.678 111.807 135.254 111.807C137.829 111.807 139.918 113.895 139.918 116.471C139.918 119.046 137.829 121.134 135.254 121.134C132.678 121.134 130.59 119.046 130.59 116.471Z" fill="#F5BB1D" stroke="#262A33" stroke-width="3" stroke-linecap="round"/>
<path d="M105.718 178.656C107.639 178.656 109.509 178.874 111.305 179.286C111.717 181.082 111.936 182.954 111.936 184.875C111.935 192.305 108.676 198.972 103.512 203.53C108.676 208.088 111.936 214.756 111.936 222.186C111.936 224.107 111.717 225.977 111.305 227.773C109.509 228.186 107.639 228.404 105.718 228.404C98.2874 228.404 91.6194 225.144 87.0615 219.979C82.5037 225.144 75.8358 228.404 68.4053 228.404C66.484 228.404 64.6135 228.186 62.8174 227.773C62.4051 225.977 62.1875 224.107 62.1875 222.186C62.1875 214.756 65.4459 208.088 70.6104 203.53C65.4458 198.972 62.1876 192.305 62.1875 184.875C62.1875 182.953 62.405 181.083 62.8174 179.286C64.6135 178.874 66.4841 178.656 68.4053 178.656C75.8351 178.656 82.5027 181.915 87.0605 187.08C91.6184 181.915 98.2875 178.656 105.718 178.656Z" fill="#F5BB1D"/>
<path d="M87.0625 187.078C89.7535 190.127 91.7078 193.842 92.6494 197.942C96.7492 198.884 100.462 200.839 103.511 203.529C100.462 206.22 96.7491 208.174 92.6494 209.116C91.7077 213.217 89.7532 216.93 87.0625 219.979C84.3719 216.931 82.4164 213.217 81.4746 209.117C77.3734 208.175 73.6589 206.221 70.6094 203.529C73.6589 200.838 77.3734 198.883 81.4746 197.941C82.4163 193.841 84.3715 190.127 87.0625 187.078Z" fill="#BC583F"/>
<path d="M87.0615 197.311C88.983 197.311 90.8532 197.53 92.6494 197.942C93.0617 199.738 93.2812 201.607 93.2812 203.528C93.2812 205.449 93.0617 207.319 92.6494 209.114C90.8532 209.527 88.9831 209.747 87.0615 209.747C85.1404 209.747 83.2705 209.528 81.4746 209.115C81.0622 207.319 80.8437 205.449 80.8438 203.528C80.8438 201.607 81.0622 199.737 81.4746 197.941C83.2705 197.529 85.1405 197.311 87.0615 197.311Z" fill="#262A33"/>
<path d="M87.0615 197.311L87.0615 195.811L87.0615 195.811L87.0615 197.311ZM92.6494 197.942L94.1114 197.607L93.9011 196.691L92.9852 196.48L92.6494 197.942ZM93.2812 203.528L94.7813 203.528L94.7812 203.528L93.2812 203.528ZM92.6494 209.114L92.9852 210.576L93.9011 210.366L94.1114 209.45L92.6494 209.114ZM87.0615 209.747L87.0615 211.247H87.0615V209.747ZM81.4746 209.115L80.0127 209.451L80.223 210.367L81.1389 210.577L81.4746 209.115ZM80.8438 203.528L79.3438 203.528L79.3438 203.528L80.8438 203.528ZM81.4746 197.941L81.139 196.479L80.223 196.69L80.0127 197.606L81.4746 197.941ZM87.0615 197.311V198.811C88.8684 198.811 90.6261 199.017 92.3137 199.404L92.6494 197.942L92.9852 196.48C91.0803 196.043 89.0975 195.811 87.0615 195.811V197.311ZM92.6494 197.942L91.1874 198.278C91.5748 199.965 91.7812 201.722 91.7813 203.528L93.2812 203.528L94.7812 203.528C94.7812 201.493 94.5485 199.511 94.1114 197.607L92.6494 197.942ZM93.2812 203.528L91.7812 203.528C91.7812 205.334 91.5749 207.091 91.1875 208.779L92.6494 209.114L94.1114 209.45C94.5486 207.546 94.7812 205.564 94.7812 203.528L93.2812 203.528ZM92.6494 209.114L92.3136 207.652C90.6256 208.04 88.8681 208.247 87.0615 208.247V209.747V211.247C89.0981 211.247 91.0808 211.014 92.9852 210.576L92.6494 209.114ZM87.0615 209.747L87.0615 208.247C85.255 208.247 83.4977 208.041 81.8103 207.653L81.4746 209.115L81.1389 210.577C83.0433 211.014 85.0258 211.247 87.0615 211.247L87.0615 209.747ZM81.4746 209.115L82.9366 208.779C82.5492 207.093 82.3437 205.335 82.3438 203.528L80.8438 203.528L79.3438 203.528C79.3437 205.563 79.5752 207.546 80.0127 209.451L81.4746 209.115ZM80.8438 203.528L82.3437 203.528C82.3438 201.721 82.5492 199.964 82.9366 198.277L81.4746 197.941L80.0127 197.606C79.5752 199.511 79.3438 201.493 79.3438 203.528L80.8438 203.528ZM81.4746 197.941L81.8102 199.403C83.4972 199.016 85.2546 198.811 87.0615 198.811L87.0615 197.311L87.0615 195.811C85.0263 195.811 83.0438 196.042 81.139 196.479L81.4746 197.941Z" fill="#262A33"/>
<path d="M62.1875 184.874C62.1875 171.136 73.3239 160 87.0615 160C100.799 160 111.935 171.136 111.935 184.874C111.935 198.611 100.799 209.748 87.0615 209.748C73.3239 209.748 62.1875 198.611 62.1875 184.874Z" stroke="#262A33" stroke-width="3" stroke-linecap="round"/>
<path d="M62.1875 222.184C62.1875 208.447 73.3239 197.311 87.0615 197.311C100.799 197.311 111.935 208.447 111.935 222.184C111.935 235.922 100.799 247.058 87.0615 247.058C73.3239 247.058 62.1875 235.922 62.1875 222.184Z" stroke="#262A33" stroke-width="3" stroke-linecap="round"/>
<path d="M68.4034 178.656C82.1409 178.656 93.2773 189.793 93.2773 203.53C93.2773 217.268 82.1409 228.404 68.4034 228.404C54.6659 228.404 43.5294 217.268 43.5294 203.53C43.5294 189.793 54.6659 178.656 68.4034 178.656Z" stroke="#262A33" stroke-width="3" stroke-linecap="round"/>
<path d="M105.716 178.656C119.453 178.656 130.59 189.793 130.59 203.53C130.59 217.268 119.453 228.404 105.716 228.404C91.9784 228.404 80.8419 217.268 80.8419 203.53C80.8419 189.793 91.9784 178.656 105.716 178.656Z" stroke="#262A33" stroke-width="3" stroke-linecap="round"/>
<path d="M82.3984 155.336C82.3984 152.76 84.4865 150.672 87.0623 150.672C89.6381 150.672 91.7262 152.76 91.7262 155.336C91.7262 157.912 89.6381 160 87.0623 160C84.4865 160 82.3984 157.912 82.3984 155.336Z" fill="#F5BB1D" stroke="#262A33" stroke-width="3" stroke-linecap="round"/>
<path d="M82.3984 251.722C82.3984 249.147 84.4865 247.059 87.0623 247.059C89.6381 247.059 91.7262 249.147 91.7262 251.722C91.7262 254.298 89.6381 256.386 87.0623 256.386C84.4865 256.386 82.3984 254.298 82.3984 251.722Z" fill="#F5BB1D" stroke="#262A33" stroke-width="3" stroke-linecap="round"/>
<path d="M34.2031 203.529C34.2031 200.953 36.2912 198.865 38.867 198.865C41.4428 198.865 43.5309 200.953 43.5309 203.529C43.5309 206.105 41.4428 208.193 38.867 208.193C36.2912 208.193 34.2031 206.105 34.2031 203.529Z" fill="#F5BB1D" stroke="#262A33" stroke-width="3" stroke-linecap="round"/>
<path d="M130.59 203.529C130.59 200.953 132.678 198.865 135.254 198.865C137.829 198.865 139.918 200.953 139.918 203.529C139.918 206.105 137.829 208.193 135.254 208.193C132.678 208.193 130.59 206.105 130.59 203.529Z" fill="#F5BB1D" stroke="#262A33" stroke-width="3" stroke-linecap="round"/>
<path d="M178.659 48.0684C180.58 48.0684 182.45 48.2861 184.246 48.6982C184.659 50.4947 184.877 52.3655 184.877 54.2871C184.877 61.7168 181.618 68.3845 176.453 72.9424C181.618 77.5002 184.877 84.168 184.877 91.5977C184.877 93.5189 184.658 95.3894 184.246 97.1855C182.45 97.5977 180.58 97.8164 178.659 97.8164C171.229 97.8164 164.56 94.5571 160.002 89.3916C155.444 94.5567 148.777 97.8164 141.347 97.8164C139.425 97.8164 137.555 97.5979 135.759 97.1855C135.347 95.3895 135.129 93.5188 135.129 91.5977C135.129 84.1681 138.387 77.5002 143.552 72.9424C138.387 68.3845 135.129 61.7166 135.129 54.2871C135.129 52.3657 135.346 50.4946 135.759 48.6982C137.555 48.2859 139.425 48.0684 141.347 48.0684C148.777 48.0684 155.444 51.3274 160.002 56.4922C164.56 51.3269 171.229 48.0684 178.659 48.0684Z" fill="#F5BB1D"/>
<path d="M160.003 56.4902C162.694 59.5398 164.648 63.2542 165.59 67.3555C169.69 68.2971 173.403 70.251 176.452 72.9414C173.403 75.6323 169.689 77.5863 165.589 78.5283C164.647 82.6287 162.694 86.3425 160.003 89.3916C157.312 86.3427 155.358 82.6294 154.416 78.5293C150.315 77.5875 146.6 75.6328 143.551 72.9414C146.6 70.2504 150.314 68.2949 154.415 67.3535C155.357 63.2529 157.312 59.5394 160.003 56.4902Z" fill="#BC583F"/>
<path d="M160.003 66.7227C161.924 66.7227 163.795 66.942 165.591 67.3545C166.003 69.1501 166.223 71.0196 166.223 72.9404C166.223 74.8615 166.003 76.7315 165.591 78.5273C163.795 78.9401 161.925 79.1601 160.003 79.1602C158.082 79.1602 156.213 78.9407 154.417 78.5283C154.004 76.7322 153.785 74.8618 153.785 72.9404C153.785 71.0194 154.004 69.1494 154.416 67.3535C156.212 66.9413 158.082 66.7227 160.003 66.7227Z" fill="#262A33"/>
<path d="M160.003 66.7227L160.003 65.2227H160.003V66.7227ZM165.591 67.3545L167.053 67.0188L166.842 66.1029L165.927 65.8926L165.591 67.3545ZM166.223 72.9404L167.723 72.9404L167.723 72.9404L166.223 72.9404ZM165.591 78.5273L165.927 79.9892L166.842 79.7788L167.053 78.8631L165.591 78.5273ZM160.003 79.1602L160.003 80.6602L160.003 80.6602L160.003 79.1602ZM154.417 78.5283L152.955 78.8641L153.165 79.78L154.081 79.9903L154.417 78.5283ZM153.785 72.9404L152.285 72.9404L152.285 72.9404L153.785 72.9404ZM154.416 67.3535L154.08 65.8915L153.164 66.1018L152.954 67.0178L154.416 67.3535ZM160.003 66.7227L160.003 68.2227C161.81 68.2227 163.567 68.4289 165.255 68.8164L165.591 67.3545L165.927 65.8926C164.022 65.4551 162.039 65.2227 160.003 65.2227L160.003 66.7227ZM165.591 67.3545L164.129 67.6902C164.516 69.3774 164.723 71.1343 164.723 72.9405L166.223 72.9404L167.723 72.9404C167.723 70.905 167.49 68.9229 167.053 67.0188L165.591 67.3545ZM166.223 72.9404L164.723 72.9404C164.723 74.7469 164.516 76.5044 164.129 78.1916L165.591 78.5273L167.053 78.8631C167.49 76.9587 167.723 74.976 167.723 72.9404L166.223 72.9404ZM165.591 78.5273L165.255 77.0654C163.567 77.4533 161.81 77.6601 160.003 77.6602L160.003 79.1602L160.003 80.6602C162.039 80.6601 164.022 80.4269 165.927 79.9892L165.591 78.5273ZM160.003 79.1602V77.6602C158.197 77.6602 156.44 77.4538 154.753 77.0664L154.417 78.5283L154.081 79.9903C155.985 80.4275 157.967 80.6602 160.003 80.6602V79.1602ZM154.417 78.5283L155.879 78.1925C155.491 76.5051 155.285 74.7473 155.285 72.9404L153.785 72.9404L152.285 72.9404C152.285 74.9763 152.518 76.9593 152.955 78.8641L154.417 78.5283ZM153.785 72.9404L155.285 72.9405C155.285 71.1334 155.491 69.3761 155.878 67.6892L154.416 67.3535L152.954 67.0178C152.517 68.9227 152.285 70.9053 152.285 72.9404L153.785 72.9404ZM154.416 67.3535L154.752 68.8155C156.439 68.4282 158.196 68.2227 160.003 68.2227V66.7227V65.2227C157.968 65.2227 155.985 65.4543 154.08 65.8915L154.416 67.3535Z" fill="#262A33"/>
<path d="M135.129 54.2861C135.129 40.5486 146.265 29.4121 160.003 29.4121C173.74 29.4121 184.877 40.5486 184.877 54.2861C184.877 68.0236 173.74 79.16 160.003 79.16C146.265 79.16 135.129 68.0236 135.129 54.2861Z" stroke="#262A33" stroke-width="3" stroke-linecap="round"/>
<path d="M135.129 91.5966C135.129 77.8591 146.265 66.7227 160.003 66.7227C173.74 66.7227 184.877 77.8591 184.877 91.5966C184.877 105.334 173.74 116.471 160.003 116.471C146.265 116.471 135.129 105.334 135.129 91.5966Z" stroke="#262A33" stroke-width="3" stroke-linecap="round"/>
<path d="M141.349 48.0684C155.086 48.0684 166.223 59.2048 166.223 72.9423C166.223 86.6798 155.086 97.8163 141.349 97.8163C127.611 97.8163 116.475 86.6798 116.475 72.9423C116.475 59.2048 127.611 48.0684 141.349 48.0684Z" stroke="#262A33" stroke-width="3" stroke-linecap="round"/>
<path d="M178.657 48.0684C192.395 48.0684 203.531 59.2048 203.531 72.9423C203.531 86.6798 192.395 97.8163 178.657 97.8163C164.92 97.8163 153.783 86.6798 153.783 72.9423C153.783 59.2048 164.92 48.0684 178.657 48.0684Z" stroke="#262A33" stroke-width="3" stroke-linecap="round"/>
<path d="M155.34 24.7479C155.34 22.1721 157.428 20.084 160.004 20.084C162.579 20.084 164.668 22.1721 164.668 24.7479C164.668 27.3236 162.579 29.4117 160.004 29.4117C157.428 29.4117 155.34 27.3236 155.34 24.7479Z" fill="#F5BB1D" stroke="#262A33" stroke-width="3" stroke-linecap="round"/>
<path d="M155.34 121.135C155.34 118.559 157.428 116.471 160.004 116.471C162.579 116.471 164.668 118.559 164.668 121.135C164.668 123.71 162.579 125.798 160.004 125.798C157.428 125.798 155.34 123.71 155.34 121.135Z" fill="#F5BB1D" stroke="#262A33" stroke-width="3" stroke-linecap="round"/>
<path d="M107.145 72.9412C107.145 70.3654 109.233 68.2773 111.808 68.2773C114.384 68.2773 116.472 70.3654 116.472 72.9412C116.472 75.517 114.384 77.6051 111.808 77.6051C109.233 77.6051 107.145 75.517 107.145 72.9412Z" fill="#F5BB1D" stroke="#262A33" stroke-width="3" stroke-linecap="round"/>
<path d="M203.531 72.9412C203.531 70.3654 205.619 68.2773 208.195 68.2773C210.771 68.2773 212.859 70.3654 212.859 72.9412C212.859 75.517 210.771 77.6051 208.195 77.6051C205.619 77.6051 203.531 75.517 203.531 72.9412Z" fill="#F5BB1D" stroke="#262A33" stroke-width="3" stroke-linecap="round"/>
<path d="M178.659 135.127C180.58 135.127 182.45 135.345 184.246 135.757C184.659 137.553 184.877 139.424 184.877 141.346C184.877 148.775 181.618 155.443 176.453 160.001C181.618 164.559 184.877 171.227 184.877 178.656C184.877 180.577 184.658 182.447 184.246 184.243C182.45 184.655 180.58 184.875 178.659 184.875C171.229 184.875 164.561 181.615 160.003 176.45C155.445 181.616 148.777 184.875 141.347 184.875C139.425 184.875 137.555 184.656 135.759 184.244C135.347 182.448 135.129 180.577 135.129 178.656C135.129 171.227 138.387 164.559 143.552 160.001C138.387 155.443 135.129 148.775 135.129 141.346C135.129 139.424 135.346 137.553 135.759 135.757C137.555 135.345 139.425 135.127 141.347 135.127C148.777 135.127 155.444 138.386 160.002 143.551C164.56 138.386 171.229 135.127 178.659 135.127Z" fill="#F5BB1D"/>
<path d="M160.003 143.549C162.694 146.598 164.648 150.313 165.59 154.414C169.69 155.356 173.403 157.31 176.452 160C173.403 162.691 169.69 164.645 165.59 165.587C164.648 169.687 162.694 173.401 160.003 176.45C157.312 173.401 155.358 169.688 154.416 165.588C150.315 164.646 146.6 162.691 143.551 160C146.6 157.309 150.314 155.354 154.415 154.413C155.357 150.312 157.312 146.598 160.003 143.549Z" fill="#BC583F"/>
<path d="M160.003 153.781C161.924 153.781 163.795 154.001 165.591 154.413C166.003 156.209 166.223 158.078 166.223 159.999C166.223 161.92 166.003 163.79 165.591 165.586C163.795 165.999 161.925 166.219 160.003 166.219C158.082 166.219 156.213 165.999 154.417 165.587C154.004 163.791 153.785 161.92 153.785 159.999C153.785 158.078 154.004 156.208 154.416 154.412C156.212 154 158.082 153.781 160.003 153.781Z" fill="#262A33"/>
<path d="M160.003 153.781L160.003 152.281H160.003V153.781ZM165.591 154.413L167.053 154.077L166.842 153.161L165.927 152.951L165.591 154.413ZM166.223 159.999L167.723 159.999L167.723 159.999L166.223 159.999ZM165.591 165.586L165.927 167.048L166.842 166.837L167.053 165.922L165.591 165.586ZM160.003 166.219L160.003 167.719L160.003 167.719L160.003 166.219ZM154.417 165.587L152.955 165.923L153.165 166.839L154.081 167.049L154.417 165.587ZM153.785 159.999L152.285 159.999L152.285 159.999L153.785 159.999ZM154.416 154.412L154.08 152.95L153.164 153.16L152.954 154.076L154.416 154.412ZM160.003 153.781L160.003 155.281C161.81 155.281 163.567 155.487 165.255 155.875L165.591 154.413L165.927 152.951C164.022 152.514 162.039 152.281 160.003 152.281L160.003 153.781ZM165.591 154.413L164.129 154.749C164.516 156.436 164.723 158.193 164.723 159.999L166.223 159.999L167.723 159.999C167.723 157.964 167.49 155.981 167.053 154.077L165.591 154.413ZM166.223 159.999L164.723 159.999C164.723 161.805 164.516 163.563 164.129 165.25L165.591 165.586L167.053 165.922C167.49 164.017 167.723 162.035 167.723 159.999L166.223 159.999ZM165.591 165.586L165.255 164.124C163.567 164.512 161.81 164.719 160.003 164.719L160.003 166.219L160.003 167.719C162.039 167.719 164.022 167.485 165.927 167.048L165.591 165.586ZM160.003 166.219V164.719C158.197 164.719 156.44 164.512 154.753 164.125L154.417 165.587L154.081 167.049C155.985 167.486 157.967 167.719 160.003 167.719V166.219ZM154.417 165.587L155.879 165.251C155.491 163.564 155.285 161.806 155.285 159.999L153.785 159.999L152.285 159.999C152.285 162.035 152.518 164.018 152.955 165.923L154.417 165.587ZM153.785 159.999L155.285 159.999C155.285 158.192 155.491 156.435 155.878 154.748L154.416 154.412L152.954 154.076C152.517 155.981 152.285 157.964 152.285 159.999L153.785 159.999ZM154.416 154.412L154.752 155.874C156.439 155.487 158.196 155.281 160.003 155.281V153.781V152.281C157.968 152.281 155.985 152.513 154.08 152.95L154.416 154.412Z" fill="#262A33"/>
<path d="M135.129 141.345C135.129 127.607 146.265 116.471 160.003 116.471C173.74 116.471 184.877 127.607 184.877 141.345C184.877 155.082 173.74 166.219 160.003 166.219C146.265 166.219 135.129 155.082 135.129 141.345Z" stroke="#262A33" stroke-width="3" stroke-linecap="round"/>
<path d="M135.129 178.655C135.129 164.918 146.265 153.781 160.003 153.781C173.74 153.781 184.877 164.918 184.877 178.655C184.877 192.393 173.74 203.529 160.003 203.529C146.265 203.529 135.129 192.393 135.129 178.655Z" stroke="#262A33" stroke-width="3" stroke-linecap="round"/>
<path d="M141.349 135.127C155.086 135.127 166.223 146.263 166.223 160.001C166.223 173.738 155.086 184.875 141.349 184.875C127.611 184.875 116.475 173.738 116.475 160.001C116.475 146.263 127.611 135.127 141.349 135.127Z" stroke="#262A33" stroke-width="3" stroke-linecap="round"/>
<path d="M178.657 135.127C192.395 135.127 203.531 146.263 203.531 160.001C203.531 173.738 192.395 184.875 178.657 184.875C164.92 184.875 153.783 173.738 153.783 160.001C153.783 146.263 164.92 135.127 178.657 135.127Z" stroke="#262A33" stroke-width="3" stroke-linecap="round"/>
<path d="M155.34 111.806C155.34 109.231 157.428 107.143 160.004 107.143C162.579 107.143 164.668 109.231 164.668 111.806C164.668 114.382 162.579 116.47 160.004 116.47C157.428 116.47 155.34 114.382 155.34 111.806Z" fill="#F5BB1D" stroke="#262A33" stroke-width="3" stroke-linecap="round"/>
<path d="M155.34 208.193C155.34 205.617 157.428 203.529 160.004 203.529C162.579 203.529 164.668 205.617 164.668 208.193C164.668 210.769 162.579 212.857 160.004 212.857C157.428 212.857 155.34 210.769 155.34 208.193Z" fill="#F5BB1D" stroke="#262A33" stroke-width="3" stroke-linecap="round"/>
<path d="M107.145 160C107.145 157.424 109.233 155.336 111.808 155.336C114.384 155.336 116.472 157.424 116.472 160C116.472 162.576 114.384 164.664 111.808 164.664C109.233 164.664 107.145 162.576 107.145 160Z" fill="#F5BB1D" stroke="#262A33" stroke-width="3" stroke-linecap="round"/>
<path d="M203.531 160C203.531 157.424 205.619 155.336 208.195 155.336C210.771 155.336 212.859 157.424 212.859 160C212.859 162.576 210.771 164.664 208.195 164.664C205.619 164.664 203.531 162.576 203.531 160Z" fill="#F5BB1D" stroke="#262A33" stroke-width="3" stroke-linecap="round"/>
<path d="M178.659 222.186C180.58 222.186 182.45 222.403 184.246 222.815C184.659 224.612 184.877 226.483 184.877 228.404C184.877 235.834 181.618 242.502 176.453 247.06C181.618 251.617 184.877 258.285 184.877 265.715C184.877 267.636 184.658 269.507 184.246 271.303C182.45 271.715 180.58 271.934 178.659 271.934C171.229 271.934 164.56 268.674 160.002 263.509C155.444 268.674 148.777 271.934 141.347 271.934C139.425 271.934 137.555 271.715 135.759 271.303C135.347 269.507 135.129 267.636 135.129 265.715C135.129 258.285 138.387 251.617 143.552 247.06C138.387 242.502 135.129 235.834 135.129 228.404C135.129 226.483 135.346 224.612 135.759 222.815C137.555 222.403 139.425 222.186 141.347 222.186C148.777 222.186 155.444 225.445 160.002 230.609C164.56 225.444 171.229 222.186 178.659 222.186Z" fill="#F5BB1D"/>
<path d="M160.003 230.607C162.694 233.657 164.648 237.371 165.59 241.473C169.69 242.414 173.403 244.368 176.452 247.059C173.403 249.75 169.689 251.704 165.589 252.646C164.647 256.746 162.694 260.46 160.003 263.509C157.312 260.46 155.358 256.747 154.416 252.646C150.315 251.705 146.6 249.75 143.551 247.059C146.6 244.368 150.314 242.412 154.415 241.471C155.357 237.37 157.312 233.657 160.003 230.607Z" fill="#BC583F"/>
<path d="M160.003 240.84C161.924 240.84 163.795 241.059 165.591 241.472C166.003 243.267 166.223 245.137 166.223 247.058C166.223 248.979 166.003 250.849 165.591 252.645C163.795 253.057 161.925 253.277 160.003 253.277C158.082 253.277 156.213 253.058 154.417 252.646C154.004 250.849 153.785 248.979 153.785 247.058C153.785 245.137 154.004 243.267 154.416 241.471C156.212 241.058 158.082 240.84 160.003 240.84Z" fill="#262A33"/>
<path d="M160.003 240.84L160.003 239.34H160.003V240.84ZM165.591 241.472L167.053 241.136L166.842 240.22L165.927 240.01L165.591 241.472ZM166.223 247.058L167.723 247.058L167.723 247.058L166.223 247.058ZM165.591 252.645L165.927 254.106L166.842 253.896L167.053 252.98L165.591 252.645ZM160.003 253.277L160.003 254.777L160.003 254.777L160.003 253.277ZM154.417 252.646L152.955 252.981L153.165 253.897L154.081 254.107L154.417 252.646ZM153.785 247.058L152.285 247.058L152.285 247.058L153.785 247.058ZM154.416 241.471L154.08 240.009L153.164 240.219L152.954 241.135L154.416 241.471ZM160.003 240.84L160.003 242.34C161.81 242.34 163.567 242.546 165.255 242.934L165.591 241.472L165.927 240.01C164.022 239.572 162.039 239.34 160.003 239.34L160.003 240.84ZM165.591 241.472L164.129 241.807C164.516 243.495 164.723 245.252 164.723 247.058L166.223 247.058L167.723 247.058C167.723 245.022 167.49 243.04 167.053 241.136L165.591 241.472ZM166.223 247.058L164.723 247.058C164.723 248.864 164.516 250.622 164.129 252.309L165.591 252.645L167.053 252.98C167.49 251.076 167.723 249.093 167.723 247.058L166.223 247.058ZM165.591 252.645L165.255 251.183C163.567 251.57 161.81 251.777 160.003 251.777L160.003 253.277L160.003 254.777C162.039 254.777 164.022 254.544 165.927 254.106L165.591 252.645ZM160.003 253.277V251.777C158.197 251.777 156.44 251.571 154.753 251.184L154.417 252.646L154.081 254.107C155.985 254.545 157.967 254.777 160.003 254.777V253.277ZM154.417 252.646L155.879 252.31C155.491 250.622 155.285 248.865 155.285 247.058L153.785 247.058L152.285 247.058C152.285 249.093 152.518 251.077 152.955 252.981L154.417 252.646ZM153.785 247.058L155.285 247.058C155.285 245.251 155.491 243.493 155.878 241.806L154.416 241.471L152.954 241.135C152.517 243.04 152.285 245.022 152.285 247.058L153.785 247.058ZM154.416 241.471L154.752 242.933C156.439 242.545 158.196 242.34 160.003 242.34V240.84V239.34C157.968 239.34 155.985 239.571 154.08 240.009L154.416 241.471Z" fill="#262A33"/>
<path d="M135.129 228.403C135.129 214.666 146.265 203.529 160.003 203.529C173.74 203.529 184.877 214.666 184.877 228.403C184.877 242.141 173.74 253.277 160.003 253.277C146.265 253.277 135.129 242.141 135.129 228.403Z" stroke="#262A33" stroke-width="3" stroke-linecap="round"/>
<path d="M135.129 265.714C135.129 251.976 146.265 240.84 160.003 240.84C173.74 240.84 184.877 251.976 184.877 265.714C184.877 279.451 173.74 290.588 160.003 290.588C146.265 290.588 135.129 279.451 135.129 265.714Z" stroke="#262A33" stroke-width="3" stroke-linecap="round"/>
<path d="M141.349 222.186C155.086 222.186 166.223 233.322 166.223 247.06C166.223 260.797 155.086 271.933 141.349 271.933C127.611 271.933 116.475 260.797 116.475 247.059C116.475 233.322 127.611 222.186 141.349 222.186Z" stroke="#262A33" stroke-width="3" stroke-linecap="round"/>
<path d="M178.657 222.186C192.395 222.186 203.531 233.322 203.531 247.06C203.531 260.797 192.395 271.933 178.657 271.933C164.92 271.933 153.783 260.797 153.783 247.059C153.783 233.322 164.92 222.186 178.657 222.186Z" stroke="#262A33" stroke-width="3" stroke-linecap="round"/>
<path d="M155.34 198.865C155.34 196.289 157.428 194.201 160.004 194.201C162.579 194.201 164.668 196.289 164.668 198.865C164.668 201.441 162.579 203.529 160.004 203.529C157.428 203.529 155.34 201.441 155.34 198.865Z" fill="#F5BB1D" stroke="#262A33" stroke-width="3" stroke-linecap="round"/>
<path d="M155.34 295.252C155.34 292.676 157.428 290.588 160.004 290.588C162.579 290.588 164.668 292.676 164.668 295.252C164.668 297.828 162.579 299.916 160.004 299.916C157.428 299.916 155.34 297.828 155.34 295.252Z" fill="#F5BB1D" stroke="#262A33" stroke-width="3" stroke-linecap="round"/>
<path d="M107.145 247.058C107.145 244.483 109.233 242.395 111.808 242.395C114.384 242.395 116.472 244.483 116.472 247.058C116.472 249.634 114.384 251.722 111.808 251.722C109.233 251.722 107.145 249.634 107.145 247.058Z" fill="#F5BB1D" stroke="#262A33" stroke-width="3" stroke-linecap="round"/>
<path d="M203.531 247.058C203.531 244.483 205.619 242.395 208.195 242.395C210.771 242.395 212.859 244.483 212.859 247.058C212.859 249.634 210.771 251.722 208.195 251.722C205.619 251.722 203.531 249.634 203.531 247.058Z" fill="#F5BB1D" stroke="#262A33" stroke-width="3" stroke-linecap="round"/>
<path d="M251.6 91.5977C253.52 91.5977 255.391 91.8154 257.187 92.2275C257.599 94.024 257.817 95.8948 257.817 97.8164C257.817 105.246 254.558 111.914 249.394 116.472C254.558 121.03 257.817 127.697 257.817 135.127C257.817 137.048 257.599 138.919 257.187 140.715C255.391 141.127 253.52 141.346 251.6 141.346C244.169 141.346 237.501 138.086 232.943 132.921C228.386 138.086 221.718 141.346 214.288 141.346C212.367 141.346 210.496 141.127 208.7 140.715C208.288 138.919 208.07 137.048 208.07 135.127C208.07 127.697 211.329 121.03 216.493 116.472C211.329 111.914 208.07 105.246 208.07 97.8164C208.07 95.8948 208.288 94.024 208.7 92.2275C210.496 91.8152 212.367 91.5977 214.288 91.5977C221.718 91.5977 228.386 94.856 232.943 100.021C237.501 94.8557 244.17 91.5978 251.6 91.5977Z" fill="#F5BB1D"/>
<path d="M232.944 100.02C235.636 103.069 237.59 106.784 238.531 110.885C242.631 111.827 246.345 113.781 249.394 116.472C246.344 119.162 242.631 121.117 238.53 122.059C237.588 126.159 235.635 129.872 232.944 132.921C230.254 129.872 228.299 126.159 227.357 122.059C223.256 121.117 219.542 119.163 216.492 116.472C219.541 113.781 223.256 111.825 227.356 110.884C228.298 106.783 230.253 103.069 232.944 100.02Z" fill="#BC583F"/>
<path d="M232.943 110.252C234.865 110.252 236.736 110.471 238.532 110.884C238.944 112.679 239.164 114.549 239.164 116.47C239.164 118.391 238.945 120.261 238.532 122.057C236.736 122.47 234.865 122.689 232.943 122.689C231.023 122.689 229.154 122.47 227.358 122.058C226.946 120.262 226.727 118.391 226.727 116.47C226.727 114.549 226.945 112.679 227.357 110.883C229.153 110.471 231.023 110.252 232.943 110.252Z" fill="#262A33"/>
<path d="M232.943 110.252L232.943 108.752L232.943 108.752L232.943 110.252ZM238.532 110.884L239.994 110.548L239.784 109.632L238.868 109.422L238.532 110.884ZM239.164 116.47L240.664 116.47L240.664 116.47L239.164 116.47ZM238.532 122.057L238.868 123.519L239.784 123.308L239.994 122.392L238.532 122.057ZM232.943 122.689L232.943 124.189L232.943 124.189L232.943 122.689ZM227.358 122.058L225.896 122.393L226.107 123.309L227.023 123.52L227.358 122.058ZM226.727 116.47L225.227 116.47L225.227 116.47L226.727 116.47ZM227.357 110.883L227.022 109.421L226.106 109.631L225.895 110.547L227.357 110.883ZM232.943 110.252L232.943 111.752C234.751 111.752 236.509 111.958 238.196 112.346L238.532 110.884L238.868 109.422C236.963 108.984 234.98 108.752 232.943 108.752L232.943 110.252ZM238.532 110.884L237.07 111.219C237.458 112.907 237.664 114.664 237.664 116.47L239.164 116.47L240.664 116.47C240.664 114.434 240.431 112.452 239.994 110.548L238.532 110.884ZM239.164 116.47L237.664 116.47C237.664 118.276 237.458 120.034 237.07 121.721L238.532 122.057L239.994 122.392C240.432 120.488 240.664 118.505 240.664 116.47L239.164 116.47ZM238.532 122.057L238.196 120.595C236.508 120.983 234.75 121.189 232.943 121.189L232.943 122.689L232.943 124.189C234.98 124.189 236.963 123.956 238.868 123.519L238.532 122.057ZM232.943 122.689L232.943 121.189C231.138 121.189 229.381 120.983 227.694 120.596L227.358 122.058L227.023 123.52C228.926 123.957 230.908 124.189 232.943 124.189L232.943 122.689ZM227.358 122.058L228.82 121.722C228.433 120.034 228.227 118.277 228.227 116.47L226.727 116.47L225.227 116.47C225.227 118.506 225.459 120.489 225.896 122.393L227.358 122.058ZM226.727 116.47L228.227 116.47C228.227 114.663 228.432 112.905 228.819 111.219L227.357 110.883L225.895 110.547C225.458 112.452 225.227 114.435 225.227 116.47L226.727 116.47ZM227.357 110.883L227.693 112.345C229.38 111.958 231.137 111.752 232.943 111.752L232.943 110.252L232.943 108.752C230.909 108.752 228.926 108.984 227.022 109.421L227.357 110.883Z" fill="#262A33"/>
<path d="M208.07 97.8154C208.07 84.0779 219.207 72.9414 232.944 72.9414C246.682 72.9414 257.818 84.0779 257.818 97.8154C257.818 111.553 246.682 122.689 232.944 122.689C219.207 122.689 208.07 111.553 208.07 97.8154Z" stroke="#262A33" stroke-width="3" stroke-linecap="round"/>
<path d="M208.07 135.126C208.07 121.388 219.207 110.252 232.944 110.252C246.682 110.252 257.818 121.388 257.818 135.126C257.818 148.863 246.682 160 232.944 160C219.207 160 208.07 148.863 208.07 135.126Z" stroke="#262A33" stroke-width="3" stroke-linecap="round"/>
<path d="M214.286 91.5977C228.024 91.5977 239.16 102.734 239.16 116.472C239.16 130.209 228.024 141.346 214.286 141.346C200.549 141.346 189.412 130.209 189.412 116.472C189.412 102.734 200.549 91.5977 214.286 91.5977Z" stroke="#262A33" stroke-width="3" stroke-linecap="round"/>
<path d="M251.599 91.5977C265.336 91.5977 276.473 102.734 276.473 116.472C276.473 130.209 265.336 141.346 251.599 141.346C237.861 141.346 226.725 130.209 226.725 116.472C226.725 102.734 237.861 91.5977 251.599 91.5977Z" stroke="#262A33" stroke-width="3" stroke-linecap="round"/>
<path d="M228.281 68.2771C228.281 65.7014 230.369 63.6133 232.945 63.6133C235.521 63.6133 237.609 65.7014 237.609 68.2771C237.609 70.8529 235.521 72.941 232.945 72.941C230.369 72.941 228.281 70.8529 228.281 68.2771Z" fill="#F5BB1D" stroke="#262A33" stroke-width="3" stroke-linecap="round"/>
<path d="M228.281 164.664C228.281 162.088 230.369 160 232.945 160C235.521 160 237.609 162.088 237.609 164.664C237.609 167.24 235.521 169.328 232.945 169.328C230.369 169.328 228.281 167.24 228.281 164.664Z" fill="#F5BB1D" stroke="#262A33" stroke-width="3" stroke-linecap="round"/>
<path d="M180.086 116.471C180.086 113.895 182.174 111.807 184.75 111.807C187.326 111.807 189.414 113.895 189.414 116.471C189.414 119.046 187.326 121.134 184.75 121.134C182.174 121.134 180.086 119.046 180.086 116.471Z" fill="#F5BB1D" stroke="#262A33" stroke-width="3" stroke-linecap="round"/>
<path d="M276.473 116.471C276.473 113.895 278.561 111.807 281.137 111.807C283.712 111.807 285.8 113.895 285.8 116.471C285.8 119.046 283.712 121.134 281.137 121.134C278.561 121.134 276.473 119.046 276.473 116.471Z" fill="#F5BB1D" stroke="#262A33" stroke-width="3" stroke-linecap="round"/>
<path d="M251.6 178.656C253.52 178.656 255.391 178.874 257.187 179.286C257.599 181.083 257.817 182.953 257.817 184.875C257.817 192.305 254.558 198.971 249.394 203.529C254.559 208.087 257.817 214.755 257.817 222.186C257.817 224.107 257.599 225.977 257.187 227.773C255.391 228.186 253.52 228.404 251.6 228.404C244.169 228.404 237.501 225.145 232.943 219.979C228.386 225.145 221.718 228.404 214.288 228.404C212.367 228.404 210.496 228.186 208.7 227.773C208.288 225.977 208.07 224.107 208.07 222.186C208.07 214.756 211.329 208.088 216.493 203.53C211.329 198.972 208.07 192.305 208.07 184.875C208.07 182.953 208.288 181.083 208.7 179.286C210.496 178.874 212.367 178.656 214.288 178.656C221.718 178.656 228.386 181.915 232.943 187.079C237.501 181.914 244.17 178.656 251.6 178.656Z" fill="#F5BB1D"/>
<path d="M232.944 187.078C235.636 190.128 237.59 193.842 238.531 197.943C242.631 198.885 246.345 200.84 249.394 203.53C246.345 206.221 242.631 208.174 238.531 209.116C237.589 213.217 235.635 216.93 232.944 219.979C230.254 216.931 228.299 213.217 227.357 209.117C223.256 208.176 219.542 206.222 216.492 203.53C219.541 200.839 223.256 198.884 227.356 197.942C228.298 193.841 230.253 190.127 232.944 187.078Z" fill="#BC583F"/>
<path d="M232.943 197.311C234.865 197.311 236.736 197.53 238.532 197.942C238.944 199.738 239.164 201.608 239.164 203.528C239.164 205.449 238.945 207.319 238.532 209.114C236.736 209.527 234.865 209.747 232.943 209.747C231.023 209.747 229.153 209.527 227.357 209.115C226.945 207.319 226.727 205.449 226.727 203.528C226.727 201.607 226.945 199.737 227.357 197.941C229.153 197.529 231.023 197.311 232.943 197.311Z" fill="#262A33"/>
<path d="M232.943 197.311L232.943 195.811L232.943 195.811L232.943 197.311ZM238.532 197.942L239.994 197.607L239.784 196.691L238.868 196.48L238.532 197.942ZM239.164 203.528L240.664 203.528L240.664 203.528L239.164 203.528ZM238.532 209.114L238.868 210.576L239.784 210.366L239.994 209.45L238.532 209.114ZM232.943 209.747L232.943 211.247L232.943 211.247L232.943 209.747ZM227.357 209.115L225.895 209.451L226.106 210.367L227.022 210.577L227.357 209.115ZM226.727 203.528L225.227 203.528L225.227 203.528L226.727 203.528ZM227.357 197.941L227.022 196.479L226.106 196.69L225.895 197.606L227.357 197.941ZM232.943 197.311L232.943 198.811C234.751 198.811 236.509 199.017 238.196 199.404L238.532 197.942L238.868 196.48C236.963 196.043 234.98 195.811 232.943 195.811L232.943 197.311ZM238.532 197.942L237.07 198.278C237.458 199.965 237.664 201.722 237.664 203.528L239.164 203.528L240.664 203.528C240.664 201.493 240.431 199.511 239.994 197.607L238.532 197.942ZM239.164 203.528L237.664 203.528C237.664 205.334 237.458 207.091 237.07 208.779L238.532 209.114L239.994 209.45C240.431 207.546 240.664 205.564 240.664 203.528L239.164 203.528ZM238.532 209.114L238.196 207.652C236.508 208.04 234.75 208.247 232.943 208.247L232.943 209.747L232.943 211.247C234.98 211.247 236.963 211.014 238.868 210.576L238.532 209.114ZM232.943 209.747L232.943 208.247C231.137 208.247 229.38 208.041 227.693 207.653L227.357 209.115L227.022 210.577C228.926 211.014 230.908 211.247 232.943 211.247L232.943 209.747ZM227.357 209.115L228.819 208.779C228.432 207.093 228.227 205.335 228.227 203.528L226.727 203.528L225.227 203.528C225.227 205.563 225.458 207.546 225.895 209.451L227.357 209.115ZM226.727 203.528L228.227 203.528C228.227 201.721 228.432 199.964 228.819 198.277L227.357 197.941L225.895 197.606C225.458 199.511 225.227 201.493 225.227 203.528L226.727 203.528ZM227.357 197.941L227.693 199.403C229.38 199.016 231.137 198.811 232.943 198.811L232.943 197.311L232.943 195.811C230.909 195.811 228.926 196.042 227.022 196.479L227.357 197.941Z" fill="#262A33"/>
<path d="M208.07 184.874C208.07 171.136 219.207 160 232.944 160C246.682 160 257.818 171.136 257.818 184.874C257.818 198.611 246.682 209.748 232.944 209.748C219.207 209.748 208.07 198.611 208.07 184.874Z" stroke="#262A33" stroke-width="3" stroke-linecap="round"/>
<path d="M208.07 222.184C208.07 208.447 219.207 197.311 232.944 197.311C246.682 197.311 257.818 208.447 257.818 222.184C257.818 235.922 246.682 247.058 232.944 247.058C219.207 247.058 208.07 235.922 208.07 222.184Z" stroke="#262A33" stroke-width="3" stroke-linecap="round"/>
<path d="M214.286 178.656C228.024 178.656 239.16 189.793 239.16 203.53C239.16 217.268 228.024 228.404 214.286 228.404C200.549 228.404 189.412 217.268 189.412 203.53C189.412 189.793 200.549 178.656 214.286 178.656Z" stroke="#262A33" stroke-width="3" stroke-linecap="round"/>
<path d="M251.599 178.656C265.336 178.656 276.473 189.793 276.473 203.53C276.473 217.268 265.336 228.404 251.599 228.404C237.861 228.404 226.725 217.268 226.725 203.53C226.725 189.793 237.861 178.656 251.599 178.656Z" stroke="#262A33" stroke-width="3" stroke-linecap="round"/>
<path d="M228.281 155.336C228.281 152.76 230.369 150.672 232.945 150.672C235.521 150.672 237.609 152.76 237.609 155.336C237.609 157.912 235.521 160 232.945 160C230.369 160 228.281 157.912 228.281 155.336Z" fill="#F5BB1D" stroke="#262A33" stroke-width="3" stroke-linecap="round"/>
<path d="M228.281 251.722C228.281 249.147 230.369 247.059 232.945 247.059C235.521 247.059 237.609 249.147 237.609 251.722C237.609 254.298 235.521 256.386 232.945 256.386C230.369 256.386 228.281 254.298 228.281 251.722Z" fill="#F5BB1D" stroke="#262A33" stroke-width="3" stroke-linecap="round"/>
<path d="M180.086 203.529C180.086 200.953 182.174 198.865 184.75 198.865C187.326 198.865 189.414 200.953 189.414 203.529C189.414 206.105 187.326 208.193 184.75 208.193C182.174 208.193 180.086 206.105 180.086 203.529Z" fill="#F5BB1D" stroke="#262A33" stroke-width="3" stroke-linecap="round"/>
<path d="M276.473 203.529C276.473 200.953 278.561 198.865 281.137 198.865C283.712 198.865 285.8 200.953 285.8 203.529C285.8 206.105 283.712 208.193 281.137 208.193C278.561 208.193 276.473 206.105 276.473 203.529Z" fill="#F5BB1D" stroke="#262A33" stroke-width="3" stroke-linecap="round"/>
</svg>
