<svg width="320" height="320" viewBox="0 0 320 320" fill="none" xmlns="http://www.w3.org/2000/svg">
<rect width="320" height="320" rx="24" fill="#1B4E8C"/>
<g clip-path="url(#clip0_494_188469)">
<path d="M165.935 227.291C183.421 244.777 183.452 273.105 166.033 290.631L57.9466 182.545C40.4611 165.059 40.4285 136.731 57.8478 119.204L165.935 227.291Z" stroke="#FCFBF8" stroke-width="0.28125"/>
<circle cx="90.0179" cy="150.471" r="2.25" transform="rotate(-45 90.0179 150.471)" fill="#FCFBF8"/>
<path d="M83.6569 144.107C81.9691 145.795 81.0209 148.084 81.0209 150.471C81.0209 152.858 81.9691 155.147 83.6569 156.835C85.3448 158.522 87.6339 159.471 90.0209 159.471C92.4078 159.471 94.697 158.522 96.3848 156.835" stroke="#FCFBF8" stroke-width="0.28125" stroke-miterlimit="10" stroke-linecap="round" stroke-linejoin="round" stroke-dasharray="0.56 1.12"/>
<path d="M77.2904 137.743C75.619 139.414 74.2931 141.399 73.3885 143.582C72.4839 145.766 72.0183 148.107 72.0183 150.471C72.0183 152.834 72.4839 155.175 73.3885 157.359C74.2931 159.543 75.619 161.527 77.2904 163.199C78.9619 164.87 80.9462 166.196 83.13 167.101C85.3139 168.005 87.6545 168.471 90.0183 168.471C92.3821 168.471 94.7228 168.005 96.9066 167.101C99.0905 166.196 101.075 164.87 102.746 163.199" stroke="#FCFBF8" stroke-width="0.28125" stroke-miterlimit="10" stroke-linecap="round" stroke-linejoin="round" stroke-dasharray="0.56 1.12"/>
<path d="M70.9278 131.379C68.4206 133.886 66.4318 136.862 65.075 140.138C63.7181 143.414 63.0197 146.925 63.0197 150.471C63.0197 154.016 63.7181 157.527 65.075 160.803C66.4318 164.079 68.4206 167.055 70.9278 169.563C73.435 172.07 76.4115 174.059 79.6872 175.415C82.963 176.772 86.474 177.471 90.0197 177.471C93.5654 177.471 97.0764 176.772 100.352 175.415C103.628 174.059 106.604 172.07 109.112 169.563" stroke="#FCFBF8" stroke-width="0.28125" stroke-miterlimit="10" stroke-linecap="round" stroke-linejoin="round" stroke-dasharray="0.56 1.12"/>
<path d="M64.5652 125.015C57.8139 131.766 54.0211 140.923 54.0211 150.471C54.0211 160.018 57.8139 169.175 64.5652 175.927C71.3165 182.678 80.4733 186.471 90.0211 186.471C99.5688 186.471 108.726 182.678 115.477 175.927" stroke="#FCFBF8" stroke-width="0.28125" stroke-miterlimit="10" stroke-linecap="round" stroke-linejoin="round" stroke-dasharray="0.56 1.12"/>
<path d="M58.2981 118.75C62.4637 114.585 67.409 111.28 72.8516 109.026C78.2942 106.772 84.1275 105.611 90.0185 105.611C95.9095 105.611 101.743 106.772 107.185 109.026C112.628 111.28 117.573 114.585 121.739 118.75C125.904 122.916 129.209 127.861 131.463 133.304C133.718 138.746 134.878 144.58 134.878 150.471C134.878 156.362 133.718 162.195 131.463 167.638C129.209 173.08 125.904 178.026 121.739 182.191C117.573 186.357 112.628 189.661 107.185 191.915C101.743 194.17 95.9095 195.33 90.0185 195.33C84.1275 195.33 78.2941 194.17 72.8516 191.915C67.409 189.661 62.4637 186.357 58.2981 182.191C54.1326 178.025 50.8282 173.08 48.5738 167.638C46.3195 162.195 45.1591 156.362 45.1591 150.471C45.1591 144.58 46.3195 138.746 48.5739 133.304C50.8283 127.861 54.1326 122.916 58.2982 118.75L58.2981 118.75Z" stroke="#FCFBF8" stroke-width="0.28125" stroke-miterlimit="10" stroke-linecap="round" stroke-linejoin="round"/>
<path d="M58.1992 182.291L90.019 150.471" stroke="#FCFBF8" stroke-width="0.28125" stroke-miterlimit="10" stroke-linecap="round" stroke-linejoin="round" stroke-dasharray="0.56 1.12"/>
<circle cx="134.565" cy="258.658" r="2.25" transform="rotate(-45 134.565 258.658)" fill="#FCFBF8"/>
<path d="M128.202 252.294C129.89 250.606 132.179 249.658 134.566 249.658C136.953 249.658 139.243 250.606 140.93 252.294C142.618 253.981 143.566 256.271 143.566 258.658C143.566 261.045 142.618 263.334 140.93 265.022" stroke="#FCFBF8" stroke-width="0.28125" stroke-miterlimit="10" stroke-linecap="round" stroke-linejoin="round" stroke-dasharray="0.56 1.12"/>
<path d="M121.838 245.929C123.51 244.258 125.494 242.932 127.678 242.027C129.862 241.123 132.203 240.657 134.566 240.657C136.93 240.657 139.271 241.123 141.455 242.027C143.639 242.932 145.623 244.258 147.294 245.929C148.966 247.601 150.292 249.585 151.196 251.769C152.101 253.953 152.566 256.293 152.566 258.657C152.566 261.021 152.101 263.361 151.196 265.545C150.292 267.729 148.966 269.713 147.294 271.385" stroke="#FCFBF8" stroke-width="0.28125" stroke-miterlimit="10" stroke-linecap="round" stroke-linejoin="round" stroke-dasharray="0.56 1.12"/>
<path d="M115.475 239.566C117.982 237.059 120.958 235.071 124.234 233.714C127.51 232.357 131.021 231.658 134.566 231.658C138.112 231.658 141.623 232.357 144.899 233.714C148.175 235.071 151.151 237.059 153.658 239.566C156.165 242.074 158.154 245.05 159.511 248.326C160.868 251.602 161.566 255.113 161.566 258.658C161.566 262.204 160.868 265.715 159.511 268.991C158.154 272.267 156.165 275.243 153.658 277.75" stroke="#FCFBF8" stroke-width="0.28125" stroke-miterlimit="10" stroke-linecap="round" stroke-linejoin="round" stroke-dasharray="0.56 1.12"/>
<path d="M109.111 233.202C115.862 226.451 125.019 222.658 134.566 222.658C144.114 222.658 153.271 226.451 160.022 233.202C166.774 239.953 170.566 249.11 170.566 258.658C170.566 268.206 166.774 277.362 160.022 284.114" stroke="#FCFBF8" stroke-width="0.28125" stroke-miterlimit="10" stroke-linecap="round" stroke-linejoin="round" stroke-dasharray="0.56 1.12"/>
<path d="M102.845 226.938C107.011 222.772 111.956 219.468 117.398 217.214C122.841 214.959 128.674 213.799 134.565 213.799C140.456 213.799 146.29 214.959 151.732 217.214C157.175 219.468 162.12 222.772 166.286 226.938C170.451 231.103 173.756 236.049 176.01 241.491C178.264 246.934 179.425 252.767 179.425 258.658C179.425 264.549 178.264 270.383 176.01 275.825C173.756 281.268 170.451 286.213 166.286 290.379C162.12 294.544 157.175 297.848 151.732 300.103C146.29 302.357 140.456 303.518 134.565 303.518C128.674 303.518 122.841 302.357 117.398 300.103C111.956 297.848 107.011 294.544 102.845 290.379C98.6794 286.213 95.3751 281.268 93.1207 275.825C90.8663 270.383 89.706 264.549 89.706 258.658C89.706 252.767 90.8663 246.934 93.1207 241.491C95.3751 236.049 98.6795 231.103 102.845 226.938L102.845 226.938Z" stroke="#FCFBF8" stroke-width="0.28125" stroke-miterlimit="10" stroke-linecap="round" stroke-linejoin="round"/>
<path d="M134.566 258.658L166.386 226.838" stroke="#FCFBF8" stroke-width="0.28125" stroke-miterlimit="10" stroke-linecap="round" stroke-linejoin="round" stroke-dasharray="0.56 1.12"/>
<path d="M210.482 182.744C227.967 200.23 227.999 228.558 210.58 246.084L102.493 137.998C85.0079 120.512 84.9754 92.1837 102.395 74.6571L210.482 182.744Z" stroke="#FCFBF8" stroke-width="0.28125"/>
<circle cx="134.565" cy="105.924" r="2.25" transform="rotate(-45 134.565 105.924)" fill="#FCFBF8"/>
<path d="M128.204 99.5599C126.516 101.248 125.568 103.537 125.568 105.924C125.568 108.311 126.516 110.6 128.204 112.288C129.892 113.976 132.181 114.924 134.568 114.924C136.955 114.924 139.244 113.976 140.932 112.288" stroke="#FCFBF8" stroke-width="0.28125" stroke-miterlimit="10" stroke-linecap="round" stroke-linejoin="round" stroke-dasharray="0.56 1.12"/>
<path d="M121.837 93.1959C120.166 94.8674 118.84 96.8517 117.935 99.0355C117.031 101.219 116.565 103.56 116.565 105.924C116.565 108.288 117.031 110.628 117.935 112.812C118.84 114.996 120.166 116.98 121.837 118.652C123.509 120.323 125.493 121.649 127.677 122.554C129.861 123.458 132.201 123.924 134.565 123.924C136.929 123.924 139.27 123.458 141.454 122.554C143.637 121.649 145.622 120.323 147.293 118.652" stroke="#FCFBF8" stroke-width="0.28125" stroke-miterlimit="10" stroke-linecap="round" stroke-linejoin="round" stroke-dasharray="0.56 1.12"/>
<path d="M115.475 86.8319C112.968 89.3391 110.979 92.3156 109.622 95.5914C108.265 98.8672 107.567 102.378 107.567 105.924C107.567 109.47 108.265 112.98 109.622 116.256C110.979 119.532 112.968 122.509 115.475 125.016C117.982 127.523 120.958 129.512 124.234 130.869C127.51 132.225 131.021 132.924 134.567 132.924C138.112 132.924 141.623 132.225 144.899 130.869C148.175 129.512 151.151 127.523 153.658 125.016" stroke="#FCFBF8" stroke-width="0.28125" stroke-miterlimit="10" stroke-linecap="round" stroke-linejoin="round" stroke-dasharray="0.56 1.12"/>
<path d="M109.112 80.468C102.361 87.2193 98.5679 96.376 98.5679 105.924C98.5679 115.472 102.361 124.628 109.112 131.38C115.863 138.131 125.02 141.924 134.568 141.924C144.116 141.924 153.272 138.131 160.024 131.38" stroke="#FCFBF8" stroke-width="0.28125" stroke-miterlimit="10" stroke-linecap="round" stroke-linejoin="round" stroke-dasharray="0.56 1.12"/>
<path d="M102.845 74.2035C107.011 70.0379 111.956 66.7336 117.398 64.4792C122.841 62.2248 128.674 61.0645 134.565 61.0645C140.456 61.0645 146.29 62.2248 151.732 64.4792C157.175 66.7336 162.12 70.0379 166.286 74.2035C170.451 78.369 173.756 83.3143 176.01 88.7569C178.264 94.1995 179.425 100.033 179.425 105.924C179.425 111.815 178.264 117.648 176.01 123.091C173.756 128.533 170.451 133.479 166.286 137.644C162.12 141.81 157.175 145.114 151.732 147.368C146.29 149.623 140.456 150.783 134.565 150.783C128.674 150.783 122.841 149.623 117.398 147.368C111.956 145.114 107.011 141.81 102.845 137.644C98.6794 133.479 95.3751 128.533 93.1207 123.091C90.8663 117.648 89.706 111.815 89.706 105.924C89.706 100.033 90.8663 94.1995 93.1207 88.7569C95.3751 83.3143 98.6795 78.369 102.845 74.2034L102.845 74.2035Z" stroke="#FCFBF8" stroke-width="0.28125" stroke-miterlimit="10" stroke-linecap="round" stroke-linejoin="round"/>
<path d="M102.746 137.744L134.566 105.924" stroke="#FCFBF8" stroke-width="0.28125" stroke-miterlimit="10" stroke-linecap="round" stroke-linejoin="round" stroke-dasharray="0.56 1.12"/>
<circle cx="179.112" cy="214.111" r="2.25" transform="rotate(-45 179.112 214.111)" fill="#FCFBF8"/>
<path d="M172.749 207.747C174.437 206.059 176.726 205.111 179.113 205.111C181.5 205.111 183.789 206.059 185.477 207.747C187.165 209.435 188.113 211.724 188.113 214.111C188.113 216.498 187.165 218.787 185.477 220.475" stroke="#FCFBF8" stroke-width="0.28125" stroke-miterlimit="10" stroke-linecap="round" stroke-linejoin="round" stroke-dasharray="0.56 1.12"/>
<path d="M166.385 201.382C168.057 199.711 170.041 198.385 172.225 197.48C174.409 196.576 176.749 196.11 179.113 196.11C181.477 196.11 183.818 196.576 186.002 197.48C188.185 198.385 190.17 199.711 191.841 201.382C193.513 203.054 194.839 205.038 195.743 207.222C196.648 209.406 197.113 211.746 197.113 214.11C197.113 216.474 196.648 218.815 195.743 220.998C194.839 223.182 193.513 225.167 191.841 226.838" stroke="#FCFBF8" stroke-width="0.28125" stroke-miterlimit="10" stroke-linecap="round" stroke-linejoin="round" stroke-dasharray="0.56 1.12"/>
<path d="M160.021 195.02C162.529 192.512 165.505 190.524 168.781 189.167C172.057 187.81 175.568 187.111 179.113 187.111C182.659 187.111 186.17 187.81 189.446 189.167C192.722 190.524 195.698 192.512 198.205 195.02C200.712 197.527 202.701 200.503 204.058 203.779C205.415 207.055 206.113 210.566 206.113 214.111C206.113 217.657 205.415 221.168 204.058 224.444C202.701 227.72 200.712 230.696 198.205 233.203" stroke="#FCFBF8" stroke-width="0.28125" stroke-miterlimit="10" stroke-linecap="round" stroke-linejoin="round" stroke-dasharray="0.56 1.12"/>
<path d="M153.657 188.655C160.409 181.904 169.565 178.111 179.113 178.111C188.661 178.111 197.818 181.904 204.569 188.655C211.32 195.406 215.113 204.563 215.113 214.111C215.113 223.659 211.32 232.815 204.569 239.567" stroke="#FCFBF8" stroke-width="0.28125" stroke-miterlimit="10" stroke-linecap="round" stroke-linejoin="round" stroke-dasharray="0.56 1.12"/>
<path d="M147.392 182.391C151.557 178.225 156.503 174.921 161.945 172.667C167.388 170.412 173.221 169.252 179.112 169.252C185.003 169.252 190.837 170.412 196.279 172.667C201.722 174.921 206.667 178.225 210.833 182.391C214.998 186.557 218.303 191.502 220.557 196.944C222.811 202.387 223.972 208.22 223.972 214.111C223.972 220.002 222.811 225.836 220.557 231.278C218.303 236.721 214.998 241.666 210.833 245.832C206.667 249.997 201.722 253.302 196.279 255.556C190.837 257.81 185.003 258.971 179.112 258.971C173.221 258.971 167.388 257.81 161.945 255.556C156.503 253.302 151.557 249.997 147.392 245.832C143.226 241.666 139.922 236.721 137.668 231.278C135.413 225.836 134.253 220.002 134.253 214.111C134.253 208.22 135.413 202.387 137.668 196.944C139.922 191.502 143.226 186.557 147.392 182.391L147.392 182.391Z" stroke="#FCFBF8" stroke-width="0.28125" stroke-miterlimit="10" stroke-linecap="round" stroke-linejoin="round"/>
<path d="M179.113 214.111L210.933 182.292" stroke="#FCFBF8" stroke-width="0.28125" stroke-miterlimit="10" stroke-linecap="round" stroke-linejoin="round" stroke-dasharray="0.56 1.12"/>
<path d="M255.029 138.195C272.514 155.681 272.546 184.009 255.127 201.535L147.04 93.4489C129.555 75.9634 129.522 47.6348 146.942 30.1083L255.029 138.195Z" stroke="#FCFBF8" stroke-width="0.28125"/>
<circle cx="179.112" cy="61.375" r="2.25" transform="rotate(-45 179.112 61.375)" fill="#FCFBF8"/>
<path d="M172.751 55.011C171.063 56.6989 170.115 58.9881 170.115 61.375C170.115 63.7619 171.063 66.0511 172.751 67.739C174.439 69.4268 176.728 70.375 179.115 70.375C181.502 70.375 183.791 69.4268 185.479 67.739" stroke="#FCFBF8" stroke-width="0.28125" stroke-miterlimit="10" stroke-linecap="round" stroke-linejoin="round" stroke-dasharray="0.56 1.12"/>
<path d="M166.384 48.6471C164.713 50.3185 163.387 52.3028 162.482 54.4867C161.578 56.6706 161.112 59.0112 161.112 61.375C161.112 63.7388 161.578 66.0794 162.482 68.2633C163.387 70.4472 164.713 72.4315 166.384 74.1029C168.056 75.7744 170.04 77.1002 172.224 78.0048C174.408 78.9094 176.748 79.375 179.112 79.375C181.476 79.375 183.817 78.9094 186 78.0048C188.184 77.1002 190.169 75.7744 191.84 74.1029" stroke="#FCFBF8" stroke-width="0.28125" stroke-miterlimit="10" stroke-linecap="round" stroke-linejoin="round" stroke-dasharray="0.56 1.12"/>
<path d="M160.022 42.2831C157.514 44.7903 155.526 47.7668 154.169 51.0425C152.812 54.3183 152.113 57.8293 152.113 61.375C152.113 64.9207 152.812 68.4317 154.169 71.7075C155.526 74.9832 157.514 77.9597 160.022 80.4669C162.529 82.9741 165.505 84.9629 168.781 86.3197C172.057 87.6766 175.568 88.375 179.113 88.375C182.659 88.375 186.17 87.6766 189.446 86.3197C192.722 84.9629 195.698 82.9741 198.205 80.4669" stroke="#FCFBF8" stroke-width="0.28125" stroke-miterlimit="10" stroke-linecap="round" stroke-linejoin="round" stroke-dasharray="0.56 1.12"/>
<path d="M153.659 35.9192C146.908 42.6705 143.115 51.8272 143.115 61.375C143.115 70.9228 146.908 80.0795 153.659 86.8308C160.41 93.5821 169.567 97.375 179.115 97.375C188.663 97.375 197.819 93.5822 204.571 86.8308" stroke="#FCFBF8" stroke-width="0.28125" stroke-miterlimit="10" stroke-linecap="round" stroke-linejoin="round" stroke-dasharray="0.56 1.12"/>
<path d="M147.392 29.6546C151.557 25.4891 156.503 22.1847 161.945 19.9303C167.388 17.676 173.221 16.5156 179.112 16.5156C185.003 16.5156 190.837 17.676 196.279 19.9303C201.722 22.1847 206.667 25.4891 210.833 29.6546C214.998 33.8202 218.303 38.7655 220.557 44.2081C222.811 49.6507 223.972 55.484 223.972 61.375C223.972 67.266 222.811 73.0994 220.557 78.542C218.303 83.9845 214.998 88.9298 210.833 93.0954C206.667 97.261 201.722 100.565 196.279 102.82C190.837 105.074 185.003 106.234 179.112 106.234C173.221 106.234 167.388 105.074 161.945 102.82C156.503 100.565 151.557 97.2609 147.392 93.0953C143.226 88.9298 139.922 83.9845 137.668 78.5419C135.413 73.0993 134.253 67.266 134.253 61.375C134.253 55.484 135.413 49.6506 137.668 44.208C139.922 38.7654 143.226 33.8202 147.392 29.6546L147.392 29.6546Z" stroke="#FCFBF8" stroke-width="0.28125" stroke-miterlimit="10" stroke-linecap="round" stroke-linejoin="round"/>
<path d="M147.293 93.1953L179.113 61.3755" stroke="#FCFBF8" stroke-width="0.28125" stroke-miterlimit="10" stroke-linecap="round" stroke-linejoin="round" stroke-dasharray="0.56 1.12"/>
<circle cx="223.659" cy="169.562" r="2.25" transform="rotate(-45 223.659 169.562)" fill="#FCFBF8"/>
<path d="M217.296 163.198C218.984 161.51 221.273 160.562 223.66 160.562C226.047 160.562 228.336 161.51 230.024 163.198C231.712 164.886 232.66 167.175 232.66 169.562C232.66 171.949 231.712 174.238 230.024 175.926" stroke="#FCFBF8" stroke-width="0.28125" stroke-miterlimit="10" stroke-linecap="round" stroke-linejoin="round" stroke-dasharray="0.56 1.12"/>
<path d="M210.932 156.833C212.604 155.162 214.588 153.836 216.772 152.931C218.956 152.027 221.296 151.561 223.66 151.561C226.024 151.561 228.365 152.027 230.548 152.931C232.732 153.836 234.717 155.162 236.388 156.833C238.06 158.505 239.385 160.489 240.29 162.673C241.195 164.857 241.66 167.198 241.66 169.561C241.66 171.925 241.195 174.266 240.29 176.45C239.385 178.633 238.06 180.618 236.388 182.289" stroke="#FCFBF8" stroke-width="0.28125" stroke-miterlimit="10" stroke-linecap="round" stroke-linejoin="round" stroke-dasharray="0.56 1.12"/>
<path d="M204.568 150.471C207.075 147.964 210.052 145.975 213.328 144.618C216.603 143.261 220.114 142.563 223.66 142.563C227.206 142.563 230.717 143.261 233.993 144.618C237.268 145.975 240.245 147.964 242.752 150.471C245.259 152.978 247.248 155.954 248.605 159.23C249.962 162.506 250.66 166.017 250.66 169.563C250.66 173.108 249.962 176.619 248.605 179.895C247.248 183.171 245.259 186.147 242.752 188.655" stroke="#FCFBF8" stroke-width="0.28125" stroke-miterlimit="10" stroke-linecap="round" stroke-linejoin="round" stroke-dasharray="0.56 1.12"/>
<path d="M198.204 144.106C204.956 137.355 214.112 133.562 223.66 133.562C233.208 133.562 242.365 137.355 249.116 144.106C255.867 150.858 259.66 160.014 259.66 169.562C259.66 179.11 255.867 188.267 249.116 195.018" stroke="#FCFBF8" stroke-width="0.28125" stroke-miterlimit="10" stroke-linecap="round" stroke-linejoin="round" stroke-dasharray="0.56 1.12"/>
<path d="M191.939 137.842C196.104 133.677 201.05 130.372 206.492 128.118C211.935 125.863 217.768 124.703 223.659 124.703C229.55 124.703 235.383 125.863 240.826 128.118C246.269 130.372 251.214 133.677 255.38 137.842C259.545 142.008 262.849 146.953 265.104 152.396C267.358 157.838 268.519 163.671 268.519 169.563C268.519 175.454 267.358 181.287 265.104 186.729C262.849 192.172 259.545 197.117 255.379 201.283C251.214 205.448 246.269 208.753 240.826 211.007C235.383 213.262 229.55 214.422 223.659 214.422C217.768 214.422 211.935 213.262 206.492 211.007C201.05 208.753 196.104 205.448 191.939 201.283C187.773 197.117 184.469 192.172 182.214 186.729C179.96 181.287 178.8 175.453 178.8 169.562C178.8 163.671 179.96 157.838 182.214 152.396C184.469 146.953 187.773 142.008 191.939 137.842L191.939 137.842Z" stroke="#FCFBF8" stroke-width="0.28125" stroke-miterlimit="10" stroke-linecap="round" stroke-linejoin="round"/>
<path d="M223.66 169.562L255.48 137.743" stroke="#FCFBF8" stroke-width="0.28125" stroke-miterlimit="10" stroke-linecap="round" stroke-linejoin="round" stroke-dasharray="0.56 1.12"/>
<path d="M97.3733 216.78C97.2683 216.885 97.1574 216.96 97.0406 217.007C96.9243 217.052 96.8125 217.068 96.7052 217.052C96.5978 217.036 96.5053 216.989 96.4276 216.911C96.3664 216.85 96.3238 216.781 96.2998 216.704C96.2758 216.626 96.2697 216.547 96.2814 216.468C96.2932 216.387 96.3226 216.314 96.3697 216.248L96.3598 216.238C96.269 216.296 96.1708 216.318 96.0653 216.305C95.9599 216.291 95.8683 216.245 95.7906 216.166C95.7157 216.092 95.6701 216.005 95.6536 215.905C95.6371 215.805 95.6487 215.701 95.6882 215.595C95.7273 215.488 95.7937 215.388 95.8874 215.294C95.9801 215.201 96.0797 215.136 96.1861 215.097C96.2925 215.057 96.3958 215.046 96.4961 215.062C96.5969 215.078 96.6845 215.124 96.7588 215.198C96.837 215.276 96.8827 215.368 96.8958 215.475C96.909 215.58 96.8874 215.678 96.8309 215.767L96.8408 215.777C96.9067 215.73 96.9794 215.701 97.059 215.69C97.1386 215.678 97.2172 215.685 97.2949 215.709C97.373 215.732 97.4425 215.774 97.5032 215.835C97.5814 215.913 97.6282 216.006 97.6437 216.114C97.6588 216.221 97.6435 216.333 97.5978 216.449C97.5526 216.565 97.4778 216.675 97.3733 216.78ZM97.1713 216.578C97.2254 216.524 97.2633 216.467 97.285 216.409C97.3062 216.35 97.3109 216.293 97.2991 216.237C97.2873 216.181 97.2596 216.13 97.2158 216.086C97.1692 216.04 97.1164 216.011 97.0576 215.999C96.9987 215.987 96.9389 215.991 96.8782 216.011C96.8179 216.031 96.7621 216.066 96.7108 216.117C96.659 216.169 96.623 216.225 96.6028 216.286C96.5825 216.347 96.5785 216.407 96.5908 216.466C96.603 216.525 96.6324 216.577 96.679 216.622C96.7228 216.667 96.7727 216.695 96.8288 216.707C96.8843 216.718 96.9415 216.713 97.0004 216.692C97.0597 216.671 97.1167 216.633 97.1713 216.578ZM96.5124 215.919C96.5566 215.875 96.5868 215.827 96.6028 215.775C96.6192 215.723 96.6214 215.671 96.6091 215.619C96.5969 215.567 96.57 215.52 96.5286 215.478C96.4867 215.437 96.4406 215.41 96.3902 215.398C96.3393 215.386 96.2883 215.389 96.2369 215.406C96.1851 215.423 96.1369 215.454 96.0922 215.499C96.0465 215.544 96.0149 215.593 95.9975 215.646C95.9801 215.697 95.9775 215.748 95.9898 215.799C96.002 215.849 96.0291 215.894 96.071 215.935C96.1124 215.978 96.1588 216.005 96.2101 216.018C96.2614 216.03 96.3134 216.028 96.3662 216.011C96.4189 215.995 96.4676 215.964 96.5124 215.919ZM98.6853 215.483C98.569 215.6 98.4397 215.67 98.2975 215.695C98.1553 215.718 98.0061 215.696 97.8498 215.63C97.6935 215.562 97.5365 215.449 97.3787 215.291C97.2215 215.133 97.1097 214.977 97.0433 214.822C96.9769 214.666 96.9559 214.517 96.9804 214.376C97.0054 214.234 97.0758 214.106 97.1916 213.99C97.3074 213.874 97.4362 213.804 97.5779 213.779C97.7196 213.754 97.8681 213.775 98.0235 213.841C98.1794 213.908 98.3359 214.02 98.4932 214.177C98.6514 214.335 98.7641 214.493 98.8314 214.649C98.8988 214.805 98.9202 214.954 98.8957 215.096C98.8717 215.238 98.8015 215.367 98.6853 215.483ZM98.4642 215.262C98.5546 215.172 98.5814 215.056 98.5447 214.915C98.508 214.773 98.4028 214.615 98.229 214.441C98.1142 214.326 98.0056 214.242 97.9035 214.187C97.8013 214.133 97.7085 214.108 97.6252 214.113C97.5414 214.116 97.4696 214.148 97.4098 214.208C97.3199 214.298 97.2935 214.414 97.3307 214.555C97.3674 214.697 97.4717 214.854 97.6436 215.026C97.7584 215.142 97.867 215.228 97.9691 215.283C98.0718 215.337 98.165 215.363 98.2488 215.359C98.3321 215.355 98.4039 215.323 98.4642 215.262Z" fill="#FCFBF8"/>
<path d="M95.8086 219.898L96.6041 220.694" stroke="#FCFBF8" stroke-width="0.28125" stroke-linecap="round"/>
<path d="M96.2071 220.297L128.027 188.477" stroke="#FCFBF8" stroke-width="0.28125" stroke-dasharray="0.56 0.84"/>
<path d="M127.629 188.078L128.424 188.874" stroke="#FCFBF8" stroke-width="0.28125" stroke-linecap="round"/>
<path d="M129.238 184.915C129.137 185.016 129.029 185.089 128.915 185.134C128.801 185.178 128.691 185.191 128.583 185.175C128.475 185.158 128.379 185.111 128.295 185.032L128.56 184.766C128.602 184.803 128.649 184.824 128.702 184.83C128.754 184.835 128.808 184.826 128.863 184.803C128.918 184.78 128.969 184.744 129.018 184.696C129.07 184.644 129.107 184.589 129.129 184.531C129.151 184.473 129.156 184.416 129.147 184.361C129.137 184.306 129.11 184.258 129.067 184.216C129.024 184.171 128.974 184.144 128.918 184.134C128.861 184.123 128.802 184.131 128.739 184.156C128.677 184.18 128.615 184.223 128.554 184.284L128.426 184.412L128.224 184.21L128.352 184.082C128.402 184.032 128.438 183.979 128.458 183.924C128.479 183.868 128.484 183.814 128.474 183.761C128.464 183.707 128.437 183.66 128.395 183.618C128.355 183.577 128.31 183.55 128.261 183.539C128.212 183.527 128.162 183.529 128.111 183.546C128.061 183.563 128.013 183.593 127.968 183.639C127.924 183.683 127.891 183.732 127.869 183.786C127.847 183.839 127.84 183.892 127.846 183.945C127.852 183.997 127.875 184.044 127.914 184.086L127.662 184.339C127.583 184.256 127.535 184.161 127.519 184.055C127.502 183.948 127.514 183.84 127.555 183.73C127.596 183.62 127.663 183.518 127.757 183.425C127.853 183.328 127.955 183.262 128.062 183.228C128.17 183.192 128.273 183.185 128.373 183.206C128.473 183.228 128.56 183.276 128.633 183.349C128.715 183.43 128.759 183.522 128.766 183.626C128.773 183.729 128.746 183.828 128.685 183.923L128.696 183.935C128.812 183.847 128.927 183.807 129.043 183.814C129.158 183.82 129.261 183.868 129.351 183.959C129.432 184.04 129.481 184.136 129.499 184.246C129.517 184.355 129.504 184.468 129.459 184.585C129.416 184.701 129.342 184.811 129.238 184.915ZM129.995 184.119L129.806 183.929L129.815 182.935C129.815 182.839 129.812 182.755 129.806 182.686C129.801 182.616 129.788 182.556 129.769 182.504C129.75 182.453 129.72 182.407 129.68 182.367C129.634 182.322 129.585 182.293 129.532 182.281C129.478 182.269 129.424 182.272 129.37 182.29C129.316 182.309 129.266 182.341 129.219 182.387C129.172 182.435 129.14 182.486 129.124 182.542C129.108 182.597 129.107 182.652 129.123 182.708C129.14 182.763 129.173 182.815 129.222 182.864L128.973 183.114C128.881 183.022 128.822 182.921 128.796 182.811C128.771 182.702 128.776 182.592 128.812 182.481C128.849 182.37 128.915 182.267 129.01 182.171C129.107 182.074 129.211 182.007 129.32 181.97C129.43 181.932 129.537 181.925 129.64 181.948C129.744 181.97 129.837 182.021 129.918 182.102C129.972 182.157 130.015 182.22 130.046 182.293C130.078 182.366 130.099 182.46 130.111 182.576C130.122 182.692 130.127 182.841 130.123 183.025L130.128 183.528L130.138 183.538L130.767 182.908L130.986 183.127L129.995 184.119Z" fill="#FCFBF8"/>
<path d="M127.629 188.078L128.424 188.874" stroke="#FCFBF8" stroke-width="0.28125" stroke-linecap="round"/>
<path d="M128.027 188.477L140.755 175.749" stroke="#FCFBF8" stroke-width="0.28125" stroke-dasharray="0.56 0.84"/>
<path d="M140.355 175.35L141.151 176.145" stroke="#FCFBF8" stroke-width="0.28125" stroke-linecap="round"/>
<path d="M141.92 172.233C141.815 172.338 141.704 172.414 141.588 172.46C141.471 172.505 141.359 172.521 141.252 172.506C141.145 172.49 141.052 172.442 140.974 172.364C140.913 172.303 140.871 172.234 140.847 172.157C140.823 172.079 140.817 172 140.828 171.921C140.84 171.84 140.87 171.767 140.917 171.701L140.907 171.691C140.816 171.749 140.718 171.772 140.612 171.758C140.507 171.744 140.415 171.698 140.337 171.619C140.263 171.545 140.217 171.458 140.2 171.358C140.184 171.258 140.196 171.154 140.235 171.048C140.274 170.941 140.341 170.841 140.434 170.747C140.527 170.654 140.627 170.589 140.733 170.55C140.839 170.511 140.943 170.499 141.043 170.515C141.144 170.531 141.231 170.577 141.306 170.651C141.384 170.729 141.43 170.821 141.443 170.928C141.456 171.033 141.434 171.131 141.378 171.22L141.388 171.23C141.454 171.183 141.526 171.154 141.606 171.143C141.685 171.132 141.764 171.138 141.842 171.162C141.92 171.185 141.989 171.227 142.05 171.288C142.128 171.366 142.175 171.459 142.191 171.567C142.206 171.674 142.19 171.786 142.145 171.902C142.1 172.018 142.025 172.128 141.92 172.233ZM141.718 172.031C141.772 171.977 141.81 171.921 141.832 171.862C141.853 171.803 141.858 171.746 141.846 171.69C141.834 171.634 141.806 171.584 141.763 171.539C141.716 171.493 141.663 171.464 141.604 171.453C141.546 171.44 141.486 171.444 141.425 171.464C141.365 171.484 141.309 171.519 141.258 171.571C141.206 171.622 141.17 171.679 141.15 171.739C141.129 171.8 141.125 171.86 141.138 171.919C141.15 171.978 141.179 172.03 141.226 172.076C141.27 172.12 141.32 172.148 141.376 172.16C141.431 172.172 141.488 172.167 141.547 172.145C141.607 172.124 141.664 172.086 141.718 172.031ZM141.059 171.372C141.103 171.328 141.134 171.28 141.15 171.228C141.166 171.176 141.168 171.124 141.156 171.072C141.144 171.02 141.117 170.973 141.075 170.931C141.034 170.89 140.987 170.863 140.937 170.852C140.886 170.839 140.835 170.842 140.784 170.859C140.732 170.876 140.684 170.907 140.639 170.952C140.593 170.998 140.562 171.047 140.544 171.099C140.527 171.15 140.524 171.201 140.537 171.252C140.549 171.302 140.576 171.347 140.618 171.388C140.659 171.431 140.706 171.458 140.757 171.471C140.808 171.483 140.86 171.481 140.913 171.465C140.966 171.448 141.015 171.417 141.059 171.372ZM143.232 170.937C143.116 171.053 142.987 171.123 142.844 171.148C142.702 171.171 142.553 171.15 142.397 171.083C142.24 171.015 142.083 170.902 141.926 170.744C141.768 170.586 141.657 170.43 141.59 170.275C141.524 170.119 141.503 169.97 141.527 169.829C141.552 169.687 141.623 169.559 141.738 169.443C141.854 169.327 141.983 169.257 142.125 169.232C142.266 169.207 142.415 169.228 142.57 169.295C142.726 169.361 142.883 169.473 143.04 169.63C143.198 169.788 143.311 169.946 143.378 170.102C143.446 170.258 143.467 170.407 143.443 170.55C143.419 170.691 143.348 170.82 143.232 170.937ZM143.011 170.715C143.101 170.625 143.128 170.509 143.092 170.368C143.055 170.226 142.95 170.068 142.776 169.894C142.661 169.779 142.553 169.695 142.45 169.641C142.348 169.586 142.255 169.562 142.172 169.566C142.088 169.57 142.016 169.601 141.957 169.661C141.867 169.751 141.84 169.867 141.878 170.009C141.914 170.15 142.019 170.307 142.19 170.48C142.305 170.595 142.414 170.681 142.516 170.736C142.619 170.791 142.712 170.816 142.796 170.812C142.879 170.808 142.951 170.776 143.011 170.715Z" fill="#FCFBF8"/>
<path d="M140.355 175.352L141.151 176.147" stroke="#FCFBF8" stroke-width="0.28125" stroke-linecap="round"/>
<path d="M140.754 175.75L172.574 143.93" stroke="#FCFBF8" stroke-width="0.28125" stroke-dasharray="0.56 0.84"/>
<path d="M172.176 143.531L172.971 144.327" stroke="#FCFBF8" stroke-width="0.28125" stroke-linecap="round"/>
<path d="M173.785 140.368C173.684 140.47 173.576 140.543 173.462 140.587C173.348 140.631 173.238 140.644 173.13 140.628C173.022 140.611 172.926 140.564 172.842 140.485L173.107 140.22C173.149 140.256 173.196 140.278 173.248 140.283C173.301 140.288 173.354 140.279 173.409 140.256C173.465 140.233 173.516 140.197 173.565 140.149C173.617 140.097 173.654 140.042 173.676 139.984C173.697 139.926 173.703 139.869 173.693 139.814C173.684 139.759 173.657 139.711 173.614 139.669C173.571 139.625 173.521 139.597 173.465 139.587C173.408 139.576 173.349 139.584 173.286 139.609C173.224 139.633 173.162 139.676 173.101 139.737L172.973 139.865L172.771 139.663L172.899 139.535C172.949 139.485 172.985 139.432 173.005 139.377C173.026 139.322 173.031 139.267 173.021 139.214C173.011 139.16 172.984 139.113 172.942 139.071C172.901 139.03 172.857 139.003 172.808 138.992C172.759 138.98 172.709 138.982 172.658 138.999C172.608 139.016 172.56 139.047 172.515 139.092C172.47 139.136 172.437 139.185 172.416 139.239C172.394 139.292 172.387 139.346 172.393 139.398C172.399 139.451 172.422 139.498 172.461 139.54L172.209 139.792C172.13 139.709 172.082 139.614 172.066 139.508C172.049 139.402 172.061 139.293 172.102 139.184C172.143 139.073 172.21 138.971 172.304 138.878C172.4 138.781 172.502 138.716 172.609 138.681C172.717 138.645 172.82 138.638 172.92 138.66C173.02 138.681 173.107 138.729 173.18 138.802C173.262 138.883 173.306 138.975 173.313 139.079C173.32 139.182 173.293 139.281 173.232 139.376L173.243 139.388C173.359 139.3 173.474 139.26 173.59 139.267C173.705 139.273 173.808 139.322 173.897 139.412C173.978 139.493 174.028 139.589 174.046 139.699C174.064 139.808 174.051 139.921 174.006 140.038C173.962 140.154 173.889 140.264 173.785 140.368ZM174.542 139.572L174.352 139.383L174.362 138.388C174.362 138.292 174.359 138.209 174.353 138.139C174.348 138.069 174.335 138.009 174.316 137.957C174.296 137.906 174.267 137.86 174.227 137.82C174.181 137.775 174.132 137.746 174.078 137.734C174.025 137.722 173.971 137.725 173.917 137.743C173.863 137.762 173.812 137.794 173.766 137.84C173.719 137.888 173.687 137.939 173.671 137.995C173.654 138.05 173.654 138.105 173.67 138.161C173.687 138.216 173.72 138.268 173.769 138.318L173.52 138.567C173.428 138.475 173.369 138.374 173.343 138.265C173.317 138.155 173.323 138.045 173.359 137.934C173.396 137.823 173.462 137.72 173.557 137.624C173.654 137.527 173.758 137.46 173.867 137.423C173.977 137.386 174.084 137.378 174.187 137.401C174.291 137.423 174.384 137.475 174.465 137.556C174.519 137.61 174.562 137.673 174.593 137.746C174.625 137.819 174.646 137.914 174.658 138.029C174.669 138.145 174.674 138.295 174.67 138.479L174.675 138.981L174.684 138.991L175.314 138.361L175.533 138.58L174.542 139.572Z" fill="#FCFBF8"/>
<path d="M172.176 143.531L172.971 144.327" stroke="#FCFBF8" stroke-width="0.28125" stroke-linecap="round"/>
<path d="M172.574 143.93L185.302 131.202" stroke="#FCFBF8" stroke-width="0.28125" stroke-dasharray="0.56 0.84"/>
<path d="M184.902 130.803L185.698 131.598" stroke="#FCFBF8" stroke-width="0.28125" stroke-linecap="round"/>
<path d="M186.467 127.684C186.362 127.789 186.251 127.865 186.134 127.911C186.018 127.957 185.906 127.972 185.799 127.957C185.692 127.941 185.599 127.893 185.521 127.815C185.46 127.755 185.418 127.686 185.394 127.608C185.37 127.53 185.363 127.452 185.375 127.372C185.387 127.292 185.416 127.218 185.463 127.152L185.454 127.142C185.363 127.2 185.265 127.223 185.159 127.21C185.054 127.195 184.962 127.149 184.884 127.07C184.809 126.997 184.764 126.909 184.747 126.809C184.731 126.709 184.742 126.606 184.782 126.499C184.821 126.392 184.887 126.292 184.981 126.198C185.074 126.106 185.173 126.04 185.28 126.001C185.386 125.962 185.49 125.95 185.59 125.967C185.691 125.983 185.778 126.028 185.853 126.102C185.931 126.18 185.976 126.273 185.99 126.379C186.003 126.485 185.981 126.582 185.925 126.671L185.935 126.681C186 126.634 186.073 126.605 186.153 126.594C186.232 126.583 186.311 126.589 186.389 126.613C186.467 126.636 186.536 126.679 186.597 126.739C186.675 126.817 186.722 126.91 186.737 127.018C186.753 127.126 186.737 127.237 186.692 127.354C186.646 127.469 186.572 127.58 186.467 127.684ZM186.265 127.482C186.319 127.428 186.357 127.372 186.379 127.313C186.4 127.255 186.405 127.197 186.393 127.141C186.381 127.085 186.353 127.035 186.31 126.99C186.263 126.944 186.21 126.916 186.151 126.904C186.092 126.891 186.033 126.895 185.972 126.915C185.912 126.935 185.856 126.97 185.805 127.022C185.753 127.074 185.717 127.13 185.697 127.191C185.676 127.251 185.672 127.311 185.685 127.371C185.697 127.429 185.726 127.481 185.773 127.527C185.817 127.571 185.866 127.6 185.923 127.611C185.978 127.623 186.035 127.618 186.094 127.597C186.153 127.575 186.21 127.537 186.265 127.482ZM185.606 126.823C185.65 126.779 185.681 126.731 185.697 126.679C185.713 126.627 185.715 126.575 185.703 126.523C185.691 126.471 185.664 126.424 185.622 126.382C185.58 126.341 185.534 126.315 185.484 126.303C185.433 126.291 185.382 126.293 185.331 126.311C185.279 126.328 185.231 126.358 185.186 126.403C185.14 126.449 185.109 126.498 185.091 126.55C185.074 126.601 185.071 126.652 185.084 126.703C185.096 126.753 185.123 126.799 185.165 126.84C185.206 126.882 185.253 126.909 185.304 126.922C185.355 126.934 185.407 126.932 185.46 126.916C185.513 126.899 185.561 126.868 185.606 126.823ZM187.779 126.388C187.663 126.504 187.533 126.574 187.391 126.599C187.249 126.622 187.1 126.601 186.944 126.534C186.787 126.466 186.63 126.353 186.472 126.196C186.315 126.037 186.203 125.881 186.137 125.726C186.071 125.57 186.05 125.422 186.074 125.28C186.099 125.139 186.17 125.01 186.285 124.894C186.401 124.778 186.53 124.708 186.672 124.683C186.813 124.658 186.962 124.679 187.117 124.746C187.273 124.812 187.43 124.924 187.587 125.081C187.745 125.239 187.858 125.397 187.925 125.554C187.993 125.709 188.014 125.859 187.989 126.001C187.965 126.142 187.895 126.271 187.779 126.388ZM187.558 126.167C187.648 126.076 187.675 125.96 187.638 125.819C187.602 125.677 187.497 125.519 187.323 125.345C187.208 125.23 187.099 125.146 186.997 125.092C186.895 125.038 186.802 125.013 186.719 125.017C186.635 125.021 186.563 125.052 186.504 125.112C186.414 125.202 186.387 125.318 186.424 125.46C186.461 125.601 186.565 125.758 186.737 125.931C186.852 126.047 186.961 126.132 187.063 126.187C187.166 126.242 187.259 126.267 187.343 126.263C187.426 126.259 187.498 126.227 187.558 126.167Z" fill="#FCFBF8"/>
<path d="M184.902 130.803L185.698 131.598" stroke="#FCFBF8" stroke-width="0.28125" stroke-linecap="round"/>
<path d="M185.301 131.201L217.121 99.3814" stroke="#FCFBF8" stroke-width="0.28125" stroke-dasharray="0.56 0.84"/>
<path d="M216.723 98.9824L217.518 99.7779" stroke="#FCFBF8" stroke-width="0.28125" stroke-linecap="round"/>
<path d="M22.6257 141.429L24.072 142.876L23.81 143.138L22.6186 141.946L22.6101 141.955L22.488 142.509L22.2479 142.269L22.3764 141.678L22.6257 141.429ZM24.9887 141.998C24.919 142.067 24.8395 142.123 24.75 142.165C24.6601 142.207 24.5619 142.227 24.4555 142.227C24.3486 142.225 24.2349 142.195 24.1144 142.137C23.9934 142.078 23.8668 141.982 23.7345 141.849C23.6106 141.725 23.5134 141.601 23.4428 141.478C23.3722 141.355 23.3281 141.235 23.3107 141.118C23.2928 141.002 23.3011 140.891 23.3354 140.786C23.3703 140.68 23.431 140.584 23.5176 140.498C23.6085 140.407 23.7069 140.344 23.8129 140.31C23.9193 140.275 24.0252 140.267 24.1307 140.286C24.2356 140.304 24.3322 140.347 24.4202 140.414L24.1624 140.672C24.0937 140.63 24.0224 140.613 23.9484 140.621C23.8745 140.628 23.8065 140.662 23.7443 140.724C23.6441 140.825 23.6104 140.945 23.6434 141.087C23.6768 141.227 23.7693 141.374 23.9209 141.527L23.9308 141.517C23.9124 141.452 23.9068 141.387 23.9138 141.32C23.9209 141.254 23.9395 141.19 23.9696 141.128C23.9998 141.065 24.0407 141.007 24.0925 140.955C24.1773 140.871 24.2735 140.815 24.3814 140.788C24.4897 140.761 24.5991 140.763 24.7098 140.794C24.8199 140.825 24.9205 140.887 25.0113 140.979C25.1069 141.073 25.1707 141.18 25.2027 141.3C25.2343 141.419 25.2326 141.539 25.1978 141.661C25.1629 141.782 25.0932 141.895 24.9887 141.998ZM24.7754 141.788C24.8268 141.737 24.8602 141.678 24.8757 141.613C24.8913 141.547 24.8896 141.482 24.8708 141.416C24.8519 141.35 24.8159 141.291 24.7627 141.238C24.7114 141.186 24.6533 141.151 24.5883 141.132C24.5238 141.113 24.4593 141.111 24.3948 141.126C24.3303 141.142 24.2724 141.175 24.2211 141.226C24.1829 141.265 24.1547 141.307 24.1363 141.355C24.1179 141.403 24.1095 141.452 24.1109 141.502C24.1118 141.552 24.1222 141.601 24.142 141.649C24.1617 141.696 24.1904 141.739 24.2281 141.777C24.279 141.827 24.3371 141.862 24.4026 141.881C24.468 141.9 24.5337 141.903 24.5996 141.888C24.6655 141.872 24.7241 141.839 24.7754 141.788ZM26.291 140.712C26.1747 140.828 26.0455 140.898 25.9033 140.923C25.7611 140.946 25.6119 140.925 25.4555 140.858C25.2992 140.79 25.1422 140.677 24.9845 140.52C24.8272 140.361 24.7154 140.205 24.649 140.05C24.5826 139.894 24.5617 139.746 24.5862 139.604C24.6111 139.463 24.6815 139.334 24.7973 139.218C24.9132 139.102 25.0419 139.032 25.1836 139.007C25.3254 138.982 25.4739 139.003 25.6293 139.07C25.7851 139.136 25.9417 139.248 26.0989 139.405C26.2571 139.563 26.3699 139.721 26.4372 139.878C26.5045 140.033 26.5259 140.182 26.5015 140.325C26.4775 140.466 26.4073 140.595 26.291 140.712ZM26.07 140.491C26.1604 140.4 26.1872 140.284 26.1505 140.143C26.1137 140.001 26.0085 139.843 25.8348 139.669C25.7199 139.554 25.6114 139.47 25.5092 139.416C25.407 139.362 25.3143 139.337 25.231 139.341C25.1472 139.345 25.0754 139.376 25.0156 139.436C24.9256 139.526 24.8993 139.642 24.9365 139.784C24.9732 139.925 25.0775 140.082 25.2493 140.255C25.3642 140.371 25.4727 140.456 25.5749 140.511C25.6775 140.566 25.7708 140.591 25.8546 140.587C25.9379 140.583 26.0097 140.551 26.07 140.491Z" fill="#FCFBF8"/>
<path d="M22.2266 146.314L23.0221 147.11" stroke="#FCFBF8" stroke-width="0.28125" stroke-linecap="round"/>
<path d="M22.625 146.713L86.2646 83.0733" stroke="#FCFBF8" stroke-width="0.28125" stroke-dasharray="0.56 0.84"/>
<path d="M85.8672 82.6758L86.6627 83.4713" stroke="#FCFBF8" stroke-width="0.28125" stroke-linecap="round"/>
<path d="M173.386 292.707C173.284 292.808 173.176 292.881 173.063 292.926C172.949 292.969 172.838 292.983 172.731 292.967C172.623 292.95 172.527 292.902 172.442 292.824L172.708 292.558C172.749 292.595 172.797 292.616 172.849 292.622C172.901 292.627 172.955 292.618 173.01 292.595C173.065 292.572 173.117 292.536 173.166 292.488C173.217 292.436 173.254 292.381 173.277 292.323C173.298 292.265 173.304 292.208 173.294 292.153C173.284 292.098 173.258 292.049 173.215 292.007C173.172 291.963 173.122 291.936 173.065 291.926C173.009 291.915 172.949 291.922 172.887 291.947C172.825 291.972 172.763 292.015 172.702 292.076L172.574 292.204L172.372 292.002L172.5 291.874C172.55 291.824 172.585 291.771 172.606 291.716C172.626 291.66 172.632 291.606 172.622 291.553C172.611 291.499 172.585 291.451 172.543 291.41C172.502 291.369 172.458 291.342 172.409 291.331C172.36 291.319 172.31 291.321 172.259 291.338C172.208 291.354 172.161 291.385 172.115 291.43C172.071 291.475 172.038 291.524 172.017 291.577C171.995 291.631 171.987 291.684 171.994 291.737C172 291.789 172.023 291.836 172.062 291.878L171.81 292.13C171.731 292.047 171.683 291.953 171.666 291.847C171.65 291.74 171.662 291.632 171.703 291.522C171.744 291.412 171.811 291.31 171.904 291.216C172.001 291.12 172.103 291.054 172.21 291.019C172.317 290.984 172.421 290.977 172.521 290.998C172.621 291.02 172.707 291.067 172.781 291.141C172.863 291.222 172.907 291.314 172.914 291.418C172.921 291.521 172.893 291.62 172.832 291.715L172.844 291.726C172.959 291.639 173.075 291.599 173.19 291.606C173.306 291.612 173.408 291.66 173.498 291.751C173.579 291.832 173.629 291.928 173.647 292.038C173.664 292.147 173.651 292.26 173.607 292.377C173.563 292.493 173.49 292.603 173.386 292.707ZM174.705 291.403C174.588 291.52 174.459 291.59 174.317 291.615C174.175 291.638 174.026 291.616 173.869 291.55C173.713 291.482 173.556 291.369 173.398 291.211C173.241 291.053 173.129 290.897 173.063 290.742C172.996 290.586 172.975 290.437 173 290.296C173.025 290.154 173.095 290.026 173.211 289.91C173.327 289.794 173.456 289.724 173.597 289.699C173.739 289.674 173.888 289.695 174.043 289.761C174.199 289.828 174.355 289.94 174.513 290.097C174.671 290.255 174.784 290.413 174.851 290.569C174.918 290.725 174.94 290.874 174.915 291.016C174.891 291.158 174.821 291.287 174.705 291.403ZM174.484 291.182C174.574 291.092 174.601 290.976 174.564 290.835C174.527 290.693 174.422 290.535 174.248 290.361C174.134 290.246 174.025 290.162 173.923 290.108C173.821 290.053 173.728 290.028 173.645 290.033C173.561 290.036 173.489 290.068 173.429 290.128C173.339 290.218 173.313 290.334 173.35 290.475C173.387 290.617 173.491 290.774 173.663 290.947C173.778 291.062 173.886 291.148 173.989 291.203C174.091 291.257 174.184 291.283 174.268 291.279C174.352 291.275 174.423 291.243 174.484 291.182ZM175.174 290.342L174.966 290.133L174.61 288.55L174.784 288.376L175.081 288.673L174.975 288.779L175.216 289.847L175.227 289.858L176.084 289.001L176.3 289.217L175.174 290.342ZM176.133 289.92L175.801 289.588L175.711 289.492L174.689 288.471L174.936 288.224L176.383 289.67L176.133 289.92Z" fill="#FCFBF8"/>
<path d="M171.777 295.869L172.573 296.665" stroke="#FCFBF8" stroke-width="0.28125" stroke-linecap="round"/>
<path d="M172.176 296.268L293.091 175.352" stroke="#FCFBF8" stroke-width="0.28125" stroke-dasharray="0.56 0.84"/>
<path d="M292.691 174.953L293.487 175.749" stroke="#FCFBF8" stroke-width="0.28125" stroke-linecap="round"/>
<path d="M154.059 22.793L153.263 23.5885" stroke="#FCFBF8" stroke-width="0.28125" stroke-linecap="round"/>
<path d="M153.66 23.1895L293.667 163.197" stroke="#FCFBF8" stroke-width="0.28125" stroke-dasharray="0.56 0.84"/>
<path d="M293.27 163.596L294.065 162.8" stroke="#FCFBF8" stroke-width="0.28125" stroke-linecap="round"/>
<path d="M169.094 34.4873C168.992 34.589 168.884 34.662 168.77 34.7063C168.657 34.7501 168.546 34.7637 168.438 34.7472C168.33 34.7307 168.234 34.6832 168.15 34.6046L168.416 34.339C168.457 34.3758 168.504 34.3969 168.557 34.4026C168.609 34.4078 168.663 34.3988 168.718 34.3758C168.773 34.3527 168.825 34.3169 168.873 34.2684C168.925 34.2166 168.962 34.1618 168.984 34.1039C169.006 34.0455 169.012 33.9887 169.002 33.9337C168.992 33.8786 168.965 33.8301 168.923 33.7882C168.879 33.7439 168.829 33.7166 168.773 33.7062C168.716 33.6959 168.657 33.7032 168.594 33.7281C168.532 33.7526 168.47 33.7955 168.409 33.8567L168.281 33.9845L168.079 33.7825L168.207 33.6547C168.258 33.6043 168.293 33.5516 168.313 33.4965C168.334 33.4409 168.339 33.3866 168.329 33.3334C168.319 33.2797 168.293 33.2321 168.25 33.1907C168.21 33.1493 168.165 33.1229 168.116 33.1116C168.067 33.0994 168.017 33.1017 167.966 33.1187C167.916 33.1351 167.868 33.166 167.823 33.2112C167.779 33.2554 167.746 33.3044 167.724 33.3581C167.702 33.4118 167.695 33.465 167.702 33.5177C167.708 33.5699 167.73 33.617 167.769 33.6589L167.517 33.9111C167.438 33.8282 167.39 33.7338 167.374 33.6279C167.357 33.521 167.37 33.4127 167.411 33.303C167.451 33.1928 167.518 33.0909 167.612 32.9972C167.708 32.9007 167.81 32.835 167.918 32.8002C168.025 32.7644 168.129 32.7573 168.228 32.779C168.328 32.8006 168.415 32.8482 168.488 32.9216C168.57 33.0026 168.614 33.0949 168.621 33.1985C168.628 33.3016 168.601 33.4007 168.54 33.4958L168.551 33.5071C168.667 33.4195 168.783 33.3793 168.898 33.3863C169.013 33.3924 169.116 33.4409 169.206 33.5318C169.287 33.6128 169.336 33.7084 169.354 33.8185C169.372 33.9278 169.359 34.0408 169.315 34.1575C169.271 34.2738 169.197 34.3838 169.094 34.4873ZM170.373 33.2082C170.279 33.3023 170.177 33.369 170.067 33.408C169.957 33.4466 169.849 33.4568 169.743 33.4384C169.637 33.4196 169.543 33.3716 169.46 33.2943L169.714 33.0401C169.779 33.0947 169.853 33.1175 169.937 33.1086C170.021 33.0992 170.095 33.0618 170.161 32.9963C170.212 32.945 170.246 32.8876 170.263 32.824C170.279 32.7604 170.278 32.6962 170.259 32.6312C170.24 32.5662 170.204 32.5071 170.15 32.4539C170.095 32.3988 170.035 32.3619 169.969 32.3431C169.904 32.3242 169.838 32.3233 169.773 32.3402C169.708 32.3567 169.648 32.3915 169.595 32.4447C169.551 32.4876 169.517 32.5382 169.491 32.5966C169.466 32.655 169.454 32.7098 169.457 32.7611L169.181 32.9589L168.511 32.1375L169.35 31.2985L169.569 31.5175L168.947 32.1397L169.289 32.5648L169.297 32.5563C169.292 32.498 169.304 32.4339 169.332 32.3642C169.36 32.2941 169.403 32.2298 169.462 32.1714C169.549 32.0839 169.648 32.0264 169.758 31.9991C169.868 31.9713 169.979 31.9737 170.09 32.0062C170.202 32.0387 170.304 32.1013 170.397 32.194C170.492 32.2896 170.555 32.397 170.586 32.5161C170.617 32.6343 170.614 32.7538 170.579 32.8748C170.544 32.9949 170.475 33.106 170.373 33.2082ZM171.109 32.4327L170.919 32.2435L170.929 31.2491C170.929 31.1526 170.926 31.0695 170.92 30.9998C170.914 30.9301 170.902 30.8696 170.883 30.8183C170.863 30.767 170.834 30.7213 170.794 30.6813C170.748 30.6356 170.698 30.6069 170.645 30.5951C170.592 30.5829 170.538 30.586 170.484 30.6043C170.429 30.6227 170.379 30.6549 170.333 30.7011C170.286 30.7486 170.254 30.8002 170.238 30.8557C170.221 30.9108 170.221 30.9661 170.237 31.0217C170.254 31.0768 170.287 31.129 170.336 31.1785L170.087 31.4278C169.995 31.336 169.936 31.2352 169.91 31.1255C169.884 31.0158 169.889 30.9056 169.926 30.795C169.962 30.6839 170.029 30.5805 170.124 30.485C170.221 30.388 170.324 30.3209 170.434 30.2837C170.544 30.2465 170.65 30.2392 170.754 30.2618C170.858 30.2839 170.951 30.3355 171.032 30.4165C171.086 30.4706 171.129 30.5342 171.16 30.6071C171.192 30.6801 171.213 30.7745 171.224 30.8903C171.236 31.0057 171.24 31.1554 171.237 31.3395L171.241 31.8423L171.251 31.8522L171.881 31.2223L172.1 31.4412L171.109 32.4327Z" fill="#FCFBF8"/>
<path opacity="0.1" d="M58.1987 182.291C40.6251 164.717 40.6251 136.224 58.1987 118.651V118.651L166.386 226.838C183.96 244.412 183.96 272.904 166.386 290.478V290.478L58.1987 182.291Z" fill="#FCFBF8"/>
<path opacity="0.1" d="M102.746 137.744C85.172 120.17 85.172 91.6776 102.746 74.104V74.104L210.933 182.291C228.507 199.865 228.507 228.357 210.933 245.931V245.931L102.746 137.744Z" fill="#FCFBF8"/>
<path opacity="0.1" d="M147.296 93.1948C129.723 75.6212 129.723 47.1288 147.296 29.5552V29.5552L255.484 137.743C273.057 155.316 273.057 183.809 255.484 201.382V201.382L147.296 93.1948Z" fill="#FCFBF8"/>
</g>
<defs>
<clipPath id="clip0_494_188469">
<rect width="288" height="288" fill="white" transform="translate(16 16)"/>
</clipPath>
</defs>
</svg>
