<svg width="320" height="320" viewBox="0 0 320 320" fill="none" xmlns="http://www.w3.org/2000/svg">
<rect width="320" height="320" rx="24" fill="white" fill-opacity="0.04"/>
<path d="M205.066 41.25C241.665 41.7377 288.491 51.6135 320.001 70.291V164.775C320.001 165.053 320 165.331 320 165.608V320H214V319.971C213.795 319.98 213.59 319.991 213.385 320C208.541 299.421 205.164 272.307 205.066 255.189V137.027C222.485 136.93 236.528 122.885 236.528 105.524C236.528 88.1635 222.485 74.0702 205.066 73.9727V41.25Z" fill="#D86253"/>
<path d="M173.457 105.524C173.457 122.934 187.548 136.979 205.065 137.028V173.603L155.647 235.439L130.742 266.503C109.555 250.849 93.849 228.953 85.8735 203.935C77.898 178.918 78.0448 151.999 86.3139 127.03C94.534 102.111 110.485 80.4096 131.818 64.9993C151.194 51.0033 174.093 42.9081 197.824 41.4938C200.221 41.3475 202.619 41.25 205.065 41.25V73.9724C187.548 74.0212 173.457 88.066 173.457 105.524Z" fill="#FFCC00"/>
<path d="M205.066 73.9727H204.87C187.353 74.0214 173.262 88.0662 173.262 105.525C173.262 122.983 187.353 136.979 204.87 137.028H205.066C222.485 136.93 236.527 122.886 236.527 105.525C236.527 88.1637 222.485 74.0702 205.066 73.9727V73.9727ZM205.066 127.567H204.87C192.491 127.518 182.509 117.57 182.509 105.232C182.509 92.8941 192.491 82.9945 204.87 82.9457H205.066C217.396 83.0432 227.28 92.9429 227.28 105.232C227.28 117.521 217.396 127.47 205.066 127.567V127.567Z" fill="#FFEFD6"/>
<path d="M227.278 105.232C227.278 117.521 217.394 127.469 205.064 127.567H204.868C192.489 127.518 182.508 117.57 182.508 105.232C182.508 92.8937 192.489 82.9941 204.868 82.9453H205.064C217.394 83.0428 227.278 92.9425 227.278 105.232Z" fill="#383939"/>
</svg>
