<svg width="320" height="320" viewBox="0 0 320 320" fill="none" xmlns="http://www.w3.org/2000/svg">
<rect width="320" height="320" rx="24" fill="#78A65A"/>
<g clip-path="url(#clip0_494_188571)">
<path fill-rule="evenodd" clip-rule="evenodd" d="M66.66 242.024C65.098 243.586 65.098 246.119 66.66 247.681L72.3169 253.338C73.879 254.9 76.4117 254.9 77.9738 253.338L123.001 208.311C126.096 205.216 131.2 208.626 129.525 212.67L105.157 271.499C104.312 273.54 105.281 275.88 107.322 276.726L114.713 279.787C116.754 280.632 119.094 279.663 119.939 277.622L144.304 218.799C145.979 214.755 152 215.953 152 220.33V284C152 286.209 153.791 288 156 288H164C166.209 288 168 286.209 168 284V220.33C168 215.953 174.021 214.755 175.696 218.799L200.061 277.622C200.906 279.663 203.246 280.632 205.287 279.787L212.678 276.726C214.719 275.88 215.688 273.54 214.843 271.499L190.478 212.676C188.803 208.633 193.907 205.222 197.002 208.317L242.023 253.338C243.585 254.9 246.117 254.9 247.679 253.338L253.336 247.681C254.898 246.119 254.898 243.587 253.336 242.024L208.311 196.999C205.216 193.904 208.626 188.8 212.67 190.475L271.501 214.844C273.542 215.689 275.882 214.72 276.727 212.679L279.789 205.288C280.634 203.247 279.665 200.907 277.624 200.062L218.799 175.696C214.755 174.021 215.953 168 220.329 168H284C286.209 168 288 166.209 288 164V156C288 153.791 286.209 152 284 152H220.33C215.953 152 214.755 145.979 218.799 144.304L277.624 119.938C279.665 119.093 280.634 116.753 279.789 114.712L276.727 107.321C275.882 105.28 273.542 104.311 271.501 105.156L212.67 129.525C208.626 131.2 205.216 126.096 208.311 123.001L253.336 77.9755C254.898 76.4134 254.898 73.8808 253.336 72.3187L247.679 66.6618C246.117 65.0997 243.585 65.0997 242.023 66.6618L197.004 111.68C193.909 114.775 188.805 111.365 190.48 107.321L214.845 48.5002C215.69 46.4592 214.721 44.1193 212.68 43.2739L205.289 40.2124C203.248 39.367 200.908 40.3362 200.063 42.3772L175.696 101.205C174.021 105.248 168 104.051 168 99.6738V36C168 33.7909 166.209 32 164 32H156C153.791 32 152 33.7909 152 36V99.6738C152 104.051 145.979 105.248 144.304 101.205L119.937 42.3772C119.092 40.3362 116.752 39.367 114.711 40.2124L107.32 43.2739C105.279 44.1193 104.31 46.4592 105.155 48.5002L129.522 107.328C131.197 111.371 126.093 114.782 122.998 111.687L77.9738 66.662C76.4117 65.0999 73.879 65.0999 72.3169 66.662L66.6601 72.3188C65.098 73.8809 65.098 76.4136 66.6601 77.9757L111.68 122.996C114.775 126.091 111.365 131.195 107.321 129.52L48.5016 105.156C46.4607 104.311 44.1208 105.28 43.2754 107.321L40.2139 114.712C39.3685 116.753 40.3377 119.093 42.3787 119.938L101.204 144.304C105.248 145.979 104.05 152 99.6733 152H36C33.7909 152 32 153.791 32 156V164C32 166.209 33.7909 168 36 168H99.6734C104.05 168 105.248 174.021 101.204 175.695L42.3787 200.062C40.3377 200.907 39.3685 203.247 40.2139 205.288L43.2754 212.679C44.1208 214.72 46.4607 215.689 48.5016 214.844L107.321 190.48C111.365 188.805 114.775 193.909 111.68 197.004L66.66 242.024ZM160 204C184.301 204 204 184.301 204 160C204 135.699 184.301 116 160 116C135.699 116 116 135.699 116 160C116 184.301 135.699 204 160 204Z" fill="#F7CE46"/>
</g>
<defs>
<clipPath id="clip0_494_188571">
<rect width="256" height="256" fill="white" transform="translate(32 32)"/>
</clipPath>
</defs>
</svg>
