<svg width="320" height="320" viewBox="0 0 320 320" fill="none" xmlns="http://www.w3.org/2000/svg">
<g clip-path="url(#clip0_494_189952)">
<path d="M274.716 103.336C274.716 90.8359 277.677 78.3359 281.239 70.4687C282.388 42.5703 261.083 16.8906 231.31 15C229.616 24.485 225.816 33.4691 220.188 41.2898C214.561 49.1106 207.25 55.5684 198.794 60.1875C195.287 53.4669 190.383 47.5745 184.411 42.9062C178.438 38.2379 171.536 34.9019 164.168 33.1221C156.799 31.3423 149.135 31.1601 141.69 32.5876C134.246 34.0151 127.192 37.0194 121.005 41.3985C134.825 66.2813 129.974 97.6484 111.286 116.547L37.8486 189.984C34.6221 202.023 37.7158 216.484 44.7393 223.977C45.1455 224.414 45.5205 224.844 45.9502 225.281C48.5638 226.285 51.2657 227.041 54.0205 227.539C53.6859 228.417 53.5308 229.354 53.5643 230.293C53.5979 231.232 53.8194 232.156 54.2158 233.008C57.7886 240.769 63.5857 247.295 70.8721 251.758C91.919 264.703 117.403 256.914 129.364 238.328C132.775 232.965 137.461 228.53 143.004 225.42C148.548 222.31 154.775 220.623 161.13 220.508C164.427 220.461 167.718 220.44 171.005 220.445C179.991 220.395 188.916 221.937 197.364 225C217.981 232.531 240.935 230.101 259.864 219.031C277.536 208.711 296.169 197.305 311.88 185.805C312.816 185.117 313.575 184.216 314.093 183.176C314.611 182.137 314.873 180.988 314.858 179.827C314.842 178.665 314.55 177.525 314.005 176.499C313.46 175.473 312.678 174.592 311.724 173.93C300.301 166.037 290.966 155.49 284.52 143.193C278.074 130.897 274.709 117.219 274.716 103.336V103.336Z" fill="white"/>
<path d="M274.716 103.336C274.716 90.8359 277.677 78.3359 281.239 70.4687C282.388 42.5703 261.083 16.8906 231.31 15C229.616 24.485 225.816 33.4691 220.188 41.2898C214.561 49.1106 207.25 55.5684 198.794 60.1875C195.287 53.4669 190.383 47.5745 184.411 42.9062C178.438 38.2379 171.536 34.9019 164.168 33.1221C156.799 31.3423 149.135 31.1601 141.69 32.5876C134.246 34.0151 127.192 37.0194 121.005 41.3985C134.825 66.2813 129.974 97.6484 111.286 116.547L37.8486 189.984C34.6221 202.023 37.7158 216.484 44.7393 223.977C45.1455 224.414 45.5205 224.844 45.9502 225.281C48.5638 226.285 51.2657 227.041 54.0205 227.539C53.6859 228.417 53.5308 229.354 53.5643 230.293C53.5979 231.232 53.8194 232.156 54.2158 233.008C57.7886 240.769 63.5857 247.295 70.8721 251.758C91.919 264.703 117.403 256.914 129.364 238.328C132.775 232.965 137.461 228.53 143.004 225.42C148.548 222.31 154.775 220.623 161.13 220.508C164.427 220.461 167.718 220.44 171.005 220.445C179.991 220.395 188.916 221.937 197.364 225C217.981 232.531 240.935 230.101 259.864 219.031C277.536 208.711 296.169 197.305 311.88 185.805C312.816 185.117 313.575 184.216 314.093 183.176C314.611 182.137 314.873 180.988 314.858 179.827C314.842 178.665 314.55 177.525 314.005 176.499C313.46 175.473 312.678 174.592 311.724 173.93C300.301 166.037 290.966 155.49 284.52 143.193C278.074 130.897 274.709 117.219 274.716 103.336V103.336Z" fill="url(#paint0_radial_494_189952)"/>
<path d="M112.678 133.818L88.0689 120.303C86.7252 119.522 84.1627 121.701 83.8658 123.865L81.8189 139.365C79.9361 153.584 89.5533 160.842 100.866 151.084L112.585 140.928C114.733 139.092 114.702 134.928 112.678 133.818Z" fill="white"/>
<path d="M79.1049 212.789L62.5267 203.195C53.9955 198.266 52.1049 188.852 58.2377 182.719L140.019 100.922L141.363 102.266C151.956 112.852 156.558 126.172 151.792 133.219L100.519 208.937C96.2689 215.234 86.683 217.172 79.1049 212.789Z" fill="#FFE785"/>
<path d="M72.1458 208.734L60.2473 201.852C52.9426 197.633 51.3332 189.594 56.6145 184.32L140.021 100.922C149.138 110.039 153.036 121.383 148.825 127.141L91.3801 205.688C87.4348 211.078 78.8254 212.641 72.1458 208.734Z" fill="url(#paint1_radial_494_189952)"/>
<path d="M136.103 231.54C130.126 260.547 93.1339 264.462 78.3526 236.134C74.0714 231.368 66.7823 226.391 58.6182 227.876C43.3682 237.36 28.9307 219.227 32.9229 199.462C35.0245 189.118 43.0792 178.368 54.1182 180.126C55.5479 182.071 58.4932 188.657 72.1729 190.688C85.626 192.704 104.306 190.844 108.314 189.36C126.524 192.672 140.048 212.321 136.103 231.54Z" fill="white"/>
<path d="M190.664 61.7494C181.531 43.851 151.906 31.3354 131.375 45.937C137.469 56.8744 138.195 67.2651 135.508 78.1089C134.063 83.9448 140.773 88.3353 145.469 84.5775C159.453 73.3744 172.867 65.9213 190.664 61.7494Z" fill="black"/>
<path d="M144.751 151.196L198.102 125.969C201.798 124.219 205.532 128.368 204.102 132.625L195.798 157.376C190.29 173.782 173.141 180.508 159.93 171.383L144.134 160.446C140.946 158.235 141.305 152.829 144.751 151.196Z" fill="white"/>
<path d="M191.63 74.7109C190.965 76.5617 190.436 78.5039 190.194 80.3721C188.657 80.7621 187.123 81.1644 185.592 81.5801C180.904 82.9091 176.286 84.4737 171.756 86.2676C167.545 88.0644 163.256 89.9395 159.467 93.0176C159.21 93.2284 158.968 93.4556 158.74 93.6973C158.092 94.353 157.248 93.2441 157.865 92.4785V92.4941C161.67 88.3145 166.42 85.8769 170.951 83.377C177.733 79.9227 184.656 77.1323 191.63 74.7109ZM194.71 68.1113C193.787 69.6845 192.768 71.7255 191.918 73.9355C190.633 74.2862 189.365 74.647 188.123 75.0176C180.971 77.0455 173.988 79.6316 167.24 82.752C163.068 84.8613 158.764 87.0411 155.178 90.5645C154.945 90.8108 154.729 91.0719 154.529 91.3457C153.959 92.1266 152.967 91.1737 153.506 90.3066V90.2988C161.428 79.8927 183.1 71.416 194.131 67.377C194.144 67.3722 194.157 67.3671 194.17 67.3623L194.71 68.1113ZM193.435 66.3398C181.551 69.8667 169.519 74.026 158.389 81.0176C155.365 83.0722 152.225 85.2286 149.865 88.4316C149.764 88.5956 149.654 88.7442 149.592 88.8691C149.107 89.728 148.03 88.9705 148.451 88.0254L148.459 88.002C153.475 79.3536 166.428 72.377 174.186 68.2676C179.297 65.7469 184.492 63.4023 189.762 61.2383L193.435 66.3398Z" fill="black"/>
<path d="M274.203 66.75C275.07 45.7343 259.016 26.3906 236.586 24.9766C234.102 39.1172 224.398 55.625 211.297 62.75C221.906 92.6953 253.305 100.484 274.203 66.75Z" fill="black"/>
<path fill-rule="evenodd" clip-rule="evenodd" d="M174.025 142.857C174.884 142.937 175.515 143.699 175.435 144.558L173.153 168.894C173.073 169.753 172.311 170.384 171.452 170.304C170.593 170.223 169.962 169.462 170.042 168.602L172.323 144.266C172.404 143.407 173.166 142.776 174.025 142.857Z" fill="black"/>
<path fill-rule="evenodd" clip-rule="evenodd" d="M159.449 154.828C159.551 153.971 160.329 153.36 161.186 153.462L185.162 156.33C186.019 156.432 186.631 157.21 186.528 158.067C186.426 158.923 185.648 159.535 184.791 159.432L160.815 156.565C159.958 156.463 159.346 155.685 159.449 154.828Z" fill="black"/>
<path fill-rule="evenodd" clip-rule="evenodd" d="M93.5905 129.383C94.2321 129.468 94.6839 130.056 94.5995 130.698L92.7714 144.596C92.687 145.238 92.0984 145.69 91.4567 145.605C90.815 145.521 90.3632 144.932 90.4476 144.291L92.2758 130.392C92.3602 129.751 92.9488 129.299 93.5905 129.383Z" fill="black"/>
<path fill-rule="evenodd" clip-rule="evenodd" d="M86.1929 138.15C86.2254 137.504 86.7757 137.006 87.4221 137.039L99.7112 137.656C100.358 137.688 100.855 138.239 100.823 138.885C100.79 139.531 100.24 140.029 99.5936 139.997L87.3045 139.379C86.6581 139.347 86.1604 138.797 86.1929 138.15Z" fill="black"/>
<path d="M106.348 226.143C125.575 232.573 147.755 243.401 159.473 260.518C159.601 260.701 159.651 260.926 159.612 261.145C159.573 261.364 159.449 261.559 159.266 261.686C159.084 261.814 158.858 261.863 158.639 261.825C158.42 261.786 158.226 261.662 158.098 261.479C156.575 259.367 154.899 257.369 153.083 255.503C143.864 246.206 132.106 239.878 120.098 234.885C115.252 232.889 110.296 231.17 105.255 229.737C104.776 229.594 104.374 229.267 104.136 228.827C103.899 228.388 103.846 227.872 103.989 227.393C104.132 226.915 104.459 226.512 104.899 226.275C105.338 226.038 105.854 225.985 106.333 226.128L106.348 226.143Z" fill="black"/>
<path d="M114.038 220.542C133.226 227.019 155.398 237.902 167.007 255.034C167.111 255.178 167.153 255.358 167.124 255.533C167.096 255.708 166.999 255.864 166.855 255.968C166.711 256.072 166.532 256.114 166.356 256.085C166.181 256.057 166.025 255.96 165.921 255.816C164.385 253.704 162.699 251.707 160.874 249.839C151.617 240.558 139.827 234.214 127.796 229.292C122.948 227.311 117.992 225.606 112.952 224.183C112.701 224.124 112.465 224.015 112.258 223.861C112.051 223.708 111.877 223.514 111.748 223.291C111.618 223.068 111.536 222.82 111.505 222.564C111.475 222.308 111.497 222.049 111.571 221.802C111.645 221.555 111.768 221.325 111.934 221.128C112.099 220.93 112.303 220.768 112.534 220.653C112.764 220.537 113.016 220.469 113.273 220.454C113.531 220.439 113.788 220.477 114.031 220.566L114.038 220.542Z" fill="black"/>
<path d="M121.753 214.855C140.972 221.331 163.159 232.222 174.784 249.378C174.866 249.545 174.884 249.736 174.837 249.916C174.79 250.096 174.681 250.253 174.528 250.36C174.376 250.466 174.19 250.514 174.005 250.496C173.82 250.478 173.648 250.395 173.519 250.261C171.99 248.151 170.309 246.156 168.488 244.292C159.245 235.019 147.456 228.714 135.441 223.761C130.593 221.78 125.637 220.074 120.597 218.651C120.334 218.589 120.087 218.474 119.87 218.313C119.653 218.151 119.472 217.948 119.337 217.714C119.201 217.48 119.115 217.221 119.084 216.952C119.052 216.684 119.076 216.412 119.153 216.153C119.23 215.894 119.36 215.654 119.533 215.447C119.706 215.24 119.92 215.07 120.162 214.949C120.403 214.827 120.666 214.756 120.936 214.74C121.206 214.724 121.476 214.763 121.73 214.855H121.753Z" fill="black"/>
<path d="M6.65232 213.767C17.6367 207.298 31.2226 203.001 43.8242 207.017C44.0036 207.066 44.1709 207.152 44.3158 207.268C44.4607 207.385 44.5802 207.53 44.6667 207.695C44.7532 207.86 44.8051 208.04 44.8189 208.226C44.8328 208.411 44.8085 208.598 44.7474 208.773C44.6863 208.949 44.5898 209.111 44.4638 209.247C44.3379 209.384 44.1852 209.494 44.0151 209.57C43.8451 209.645 43.6614 209.685 43.4753 209.687C43.2893 209.688 43.1049 209.652 42.9336 209.579C34.1992 206.36 24.4414 207.899 15.8633 211.04C12.9326 212.113 10.0928 213.419 7.37107 214.946C7.21784 215.021 7.04237 215.036 6.87871 214.988C6.71506 214.941 6.57487 214.834 6.48534 214.689C6.39581 214.544 6.36332 214.371 6.39418 214.204C6.42503 214.036 6.51703 213.886 6.65232 213.782V213.767Z" fill="black"/>
<path d="M5.96811 206.72C17.1869 200.134 31.1556 195.845 43.9369 200.22C44.0939 200.266 44.2398 200.343 44.3656 200.448C44.4913 200.552 44.5941 200.681 44.6675 200.828C44.741 200.974 44.7834 201.133 44.7923 201.297C44.8012 201.46 44.7763 201.623 44.7191 201.776C44.6619 201.929 44.5738 202.069 44.4601 202.187C44.3464 202.304 44.2098 202.397 44.0586 202.459C43.9074 202.521 43.745 202.552 43.5816 202.548C43.4181 202.545 43.2571 202.508 43.1087 202.439C34.179 199.002 24.1244 200.517 15.3275 203.759C12.3223 204.86 9.41166 206.203 6.62436 207.775C6.48563 207.841 6.3274 207.854 6.17991 207.811C6.03242 207.768 5.906 207.671 5.82481 207.541C5.74362 207.411 5.71335 207.255 5.73979 207.103C5.76622 206.952 5.8475 206.816 5.96811 206.72V206.72Z" fill="black"/>
<path d="M5.25699 199.316C16.7179 192.285 31.1554 187.84 44.3195 192.449C44.5422 192.519 44.7483 192.634 44.9248 192.787C45.1014 192.94 45.2448 193.128 45.3462 193.338C45.4475 193.549 45.5048 193.777 45.5143 194.011C45.5238 194.244 45.4855 194.477 45.4016 194.695C45.3177 194.913 45.19 195.112 45.0265 195.278C44.863 195.445 44.6671 195.577 44.4508 195.665C44.2345 195.753 44.0024 195.796 43.7689 195.791C43.5354 195.786 43.3053 195.734 43.0929 195.636C34.1398 191.832 23.8351 193.144 14.8351 196.301C11.7393 197.379 8.73926 198.714 5.86637 200.293C5.73707 200.367 5.58403 200.389 5.43924 200.353C5.29445 200.317 5.16911 200.226 5.08942 200.1C5.00973 199.974 4.98186 199.822 5.01164 199.676C5.04141 199.53 5.12652 199.401 5.24918 199.316H5.25699Z" fill="black"/>
<g clip-path="url(#clip1_494_189952)">
<path d="M92.7266 193.914C90.6094 196.508 80.8672 208.414 78.5157 210.844C76.4494 212.812 73.7055 213.911 70.8516 213.914C69.7578 213.914 68.3282 215.062 65.1016 214.219C64.9375 214.172 64.7578 214.117 64.5938 214.055C62.4922 213.226 61.7422 212.219 60.4922 210.008C58.0781 205.562 55.336 194.32 54.5938 191.101C54.452 190.507 54.4387 189.889 54.5547 189.289C54.7813 188.039 55.2422 185.914 55.8281 185.219C56.4141 184.523 56.211 185.062 56.5547 184.375C56.781 184.019 57.078 183.713 57.4274 183.476C57.7769 183.24 58.1712 183.078 58.586 183C61.5938 182.367 65.7578 188.633 82.8516 189.789C90.0235 190.148 91.3516 189.156 92.8047 191.047C93.1245 191.46 93.2914 191.972 93.2772 192.494C93.2629 193.017 93.0684 193.518 92.7266 193.914V193.914Z" fill="black"/>
</g>
<mask id="mask0_494_189952" style="mask-type:alpha" maskUnits="userSpaceOnUse" x="36" y="15" width="279" height="244">
<path d="M274.716 103.338C274.716 90.8378 277.677 78.3379 281.239 70.4707C282.388 42.5723 261.083 16.8926 231.31 15.002C229.616 24.487 225.816 33.4711 220.188 41.2918C214.561 49.1125 207.25 55.5704 198.794 60.1894C195.287 53.4688 190.383 47.5765 184.411 42.9082C178.438 38.2399 171.536 34.9038 164.168 33.1241C156.799 31.3443 149.135 31.162 141.69 32.5895C134.246 34.017 127.192 37.0213 121.005 41.4004C134.825 66.2832 129.974 97.6504 111.286 116.549L37.8486 189.986C34.6221 202.025 37.7158 216.486 44.7393 223.978C45.1455 224.416 45.5205 224.846 45.9502 225.283C48.5638 226.287 51.2657 227.043 54.0205 227.541C53.6859 228.419 53.5308 229.356 53.5643 230.295C53.5979 231.234 53.8194 232.158 54.2158 233.01C57.7886 240.771 63.5857 247.297 70.8721 251.76C91.919 264.705 117.403 256.916 129.364 238.33C132.775 232.967 137.461 228.532 143.004 225.422C148.548 222.312 154.775 220.625 161.13 220.51C164.427 220.463 167.718 220.442 171.005 220.447C179.991 220.397 188.916 221.939 197.364 225.002C217.981 232.533 240.935 230.103 259.864 219.033C277.536 208.713 296.169 197.307 311.88 185.807C312.816 185.119 313.575 184.218 314.093 183.178C314.611 182.139 314.873 180.99 314.858 179.829C314.842 178.667 314.55 177.526 314.005 176.501C313.46 175.475 312.678 174.594 311.724 173.932C300.301 166.039 290.966 155.492 284.52 143.195C278.074 130.899 274.709 117.221 274.716 103.338V103.338Z" fill="url(#paint2_radial_494_189952)"/>
</mask>
<g mask="url(#mask0_494_189952)">
<path d="M301.942 219.721C269.293 227.081 205.332 235.659 190.918 195.745C190.59 194.809 190.449 193.819 190.504 192.829C190.558 191.839 190.807 190.87 191.236 189.977C191.665 189.084 192.266 188.283 193.005 187.622C193.743 186.961 194.604 186.452 195.539 186.123C196.475 185.795 197.465 185.654 198.455 185.709C199.444 185.763 200.414 186.012 201.307 186.441C202.2 186.87 203.001 187.471 203.662 188.21C204.323 188.948 204.832 189.809 205.16 190.744C206.008 194.592 207.762 198.181 210.278 201.213C223.778 216.604 253.489 218.354 273.012 218.338C282.48 218.258 291.935 217.606 301.325 216.385C301.748 216.346 302.171 216.466 302.51 216.722C302.849 216.979 303.08 217.353 303.158 217.771C303.235 218.189 303.153 218.621 302.928 218.982C302.703 219.343 302.351 219.607 301.942 219.721V219.721Z" fill="black"/>
<path d="M331.685 200.551C299.037 207.918 235.068 216.488 220.654 176.574C220.288 175.63 220.116 174.622 220.148 173.611C220.18 172.599 220.415 171.604 220.839 170.684C221.263 169.765 221.867 168.94 222.616 168.259C223.365 167.578 224.243 167.054 225.198 166.719C226.153 166.384 227.166 166.244 228.176 166.308C229.187 166.372 230.174 166.638 231.079 167.091C231.984 167.544 232.79 168.174 233.447 168.944C234.104 169.715 234.599 170.609 234.904 171.574C235.744 175.424 237.5 179.015 240.021 182.043C253.521 197.434 283.224 199.184 302.747 199.168C312.218 199.088 321.676 198.436 331.068 197.215C331.491 197.175 331.914 197.296 332.253 197.552C332.593 197.809 332.824 198.183 332.901 198.601C332.978 199.019 332.897 199.451 332.672 199.812C332.446 200.173 332.095 200.436 331.685 200.551V200.551Z" fill="black"/>
<path d="M361.35 182.174C328.757 189.549 264.678 198.08 250.327 158.19C249.702 156.31 249.841 154.261 250.714 152.483C251.586 150.705 253.123 149.342 254.992 148.687C256.861 148.031 258.912 148.137 260.704 148.981C262.496 149.825 263.884 151.339 264.569 153.197C265.418 157.044 267.172 160.633 269.686 163.666C283.186 179.057 312.897 180.807 332.421 180.783C341.889 180.706 351.343 180.056 360.733 178.838C361.157 178.798 361.58 178.919 361.919 179.175C362.258 179.432 362.489 179.806 362.566 180.224C362.644 180.642 362.562 181.074 362.337 181.435C362.112 181.796 361.76 182.059 361.35 182.174V182.174Z" fill="black"/>
<path d="M233.944 127.541C243.265 111.447 267.405 98.5019 281.78 90.8222C298.522 82.3456 316.53 75.1972 333.686 68.9472C340.632 66.6034 343.53 79.0097 336.632 81.8769C336.468 81.9394 336.257 82.0019 336.085 82.0487L323.007 85.5722C299.163 92.4863 274.804 100.416 252.413 114.478C246.788 118.299 240.96 122.291 236.569 128.268C236.382 128.572 236.179 128.838 236.061 129.049C235.163 130.611 233.171 129.244 233.944 127.486V127.541Z" fill="black"/>
<path d="M243.331 131.808C258.058 112.456 298.362 96.6983 318.855 89.1826C326.48 86.3858 337.284 82.9326 345.027 80.4717C352.058 78.4873 354.558 91.0264 347.581 93.5733C334.698 96.3936 320.464 99.6201 307.698 103.417C294.636 107.269 281.55 111.792 268.862 117.808C261.105 121.714 253.105 125.784 246.433 132.362C246.002 132.794 245.603 133.257 245.237 133.745C244.167 135.183 242.362 133.425 243.331 131.808V131.808Z" fill="black"/>
<path d="M251.424 135.885C258.518 128.119 267.346 123.58 275.776 118.94C296.815 108.205 318.604 100.924 340.331 94.5335L353.315 90.9008C360.346 89.1898 362.573 101.838 355.542 104.143C338.206 107.166 320.221 110.737 303.003 115.596C294.284 118.081 285.698 121.007 277.276 124.362C269.464 127.705 261.456 131.182 254.417 136.909C253.942 137.31 253.489 137.735 253.057 138.182C251.846 139.401 250.292 137.338 251.424 135.909V135.885Z" fill="black"/>
</g>
</g>
<defs>
<radialGradient id="paint0_radial_494_189952" cx="0" cy="0" r="1" gradientUnits="userSpaceOnUse" gradientTransform="translate(155.325 125.766) scale(139.656 139.656)">
<stop stop-color="#F99600"/>
<stop offset="0.25" stop-color="#F59303"/>
<stop offset="0.5" stop-color="#E8890D"/>
<stop offset="0.76" stop-color="#D4781D"/>
<stop offset="0.99" stop-color="#BA6332"/>
</radialGradient>
<radialGradient id="paint1_radial_494_189952" cx="0" cy="0" r="1" gradientUnits="userSpaceOnUse" gradientTransform="translate(-3.87767 109.945) scale(466.188 466.188)">
<stop stop-color="#FFCC00"/>
<stop offset="0.31" stop-color="#E3A115"/>
<stop offset="0.6" stop-color="#CC7F25"/>
<stop offset="0.84" stop-color="#BF6A2E"/>
<stop offset="0.99" stop-color="#BA6332"/>
</radialGradient>
<radialGradient id="paint2_radial_494_189952" cx="0" cy="0" r="1" gradientUnits="userSpaceOnUse" gradientTransform="translate(155.325 125.768) scale(139.656 139.656)">
<stop stop-color="#F99600"/>
<stop offset="0.25" stop-color="#F59303"/>
<stop offset="0.5" stop-color="#E8890D"/>
<stop offset="0.76" stop-color="#D4781D"/>
<stop offset="0.99" stop-color="#BA6332"/>
</radialGradient>
<clipPath id="clip0_494_189952">
<rect width="320" height="320" rx="24" fill="white"/>
</clipPath>
<clipPath id="clip1_494_189952">
<rect width="38.7969" height="31.5703" fill="white" transform="translate(54.4766 182.953)"/>
</clipPath>
</defs>
</svg>
