<svg width="320" height="320" viewBox="0 0 320 320" fill="none" xmlns="http://www.w3.org/2000/svg">
<rect width="8.53333" height="8.48929" fill="white"/>
<path d="M8.53125 0.0878906V8.57718L17.0646 17.0665V8.57718L8.53125 0.0878906Z" fill="url(#paint0_linear_494_188400)"/>
<path d="M0 8.48828H8.53333L17.0667 16.9776H8.53333L0 8.48828Z" fill="url(#paint1_linear_494_188400)"/>
<rect y="43.2754" width="8.53333" height="8.48929" fill="white"/>
<path d="M8.53125 43.3633V51.8526L17.0646 60.3419V51.8526L8.53125 43.3633Z" fill="url(#paint2_linear_494_188400)"/>
<path d="M0 51.7656H8.53333L17.0667 60.2549H8.53333L0 51.7656Z" fill="url(#paint3_linear_494_188400)"/>
<rect y="86.5527" width="8.53333" height="8.48929" fill="white"/>
<path d="M8.53125 86.6406V95.1299L17.0646 103.619V95.1299L8.53125 86.6406Z" fill="url(#paint4_linear_494_188400)"/>
<path d="M0 95.041H8.53333L17.0667 103.53H8.53333L0 95.041Z" fill="url(#paint5_linear_494_188400)"/>
<rect y="129.828" width="8.53333" height="8.48929" fill="white"/>
<path d="M8.53125 129.916V138.405L17.0646 146.895V138.405L8.53125 129.916Z" fill="url(#paint6_linear_494_188400)"/>
<path d="M0 138.316H8.53333L17.0667 146.806H8.53333L0 138.316Z" fill="url(#paint7_linear_494_188400)"/>
<rect y="173.105" width="8.53333" height="8.48929" fill="white"/>
<path d="M8.53125 173.193V181.683L17.0646 190.172V181.683L8.53125 173.193Z" fill="url(#paint8_linear_494_188400)"/>
<path d="M0 181.594H8.53333L17.0667 190.083H8.53333L0 181.594Z" fill="url(#paint9_linear_494_188400)"/>
<rect y="216.381" width="8.53333" height="8.48929" fill="white"/>
<path d="M8.53125 216.469V224.958L17.0646 233.447V224.958L8.53125 216.469Z" fill="url(#paint10_linear_494_188400)"/>
<path d="M0 224.871H8.53333L17.0667 233.36H8.53333L0 224.871Z" fill="url(#paint11_linear_494_188400)"/>
<rect y="259.656" width="8.53333" height="8.48929" fill="white"/>
<path d="M8.53125 259.744V268.233L17.0646 276.723V268.233L8.53125 259.744Z" fill="url(#paint12_linear_494_188400)"/>
<path d="M0 268.145H8.53333L17.0667 276.634H8.53333L0 268.145Z" fill="url(#paint13_linear_494_188400)"/>
<rect y="302.934" width="8.53333" height="8.48929" fill="white"/>
<path d="M8.53125 303.021V311.511L17.0646 320V311.511L8.53125 303.021Z" fill="url(#paint14_linear_494_188400)"/>
<path d="M0 311.422H8.53333L17.0667 319.911H8.53333L0 311.422Z" fill="url(#paint15_linear_494_188400)"/>
<rect x="43.2773" width="8.53333" height="8.48929" fill="white"/>
<path d="M51.8086 0.0878906V8.57718L60.3419 17.0665V8.57718L51.8086 0.0878906Z" fill="url(#paint16_linear_494_188400)"/>
<path d="M43.2773 8.48828H51.8107L60.344 16.9776H51.8107L43.2773 8.48828Z" fill="url(#paint17_linear_494_188400)"/>
<rect x="43.2773" y="43.2754" width="8.53333" height="8.48929" fill="white"/>
<path d="M51.8086 43.3633V51.8526L60.3419 60.3419V51.8526L51.8086 43.3633Z" fill="url(#paint18_linear_494_188400)"/>
<path d="M43.2773 51.7656H51.8107L60.344 60.2549H51.8107L43.2773 51.7656Z" fill="url(#paint19_linear_494_188400)"/>
<rect x="43.2773" y="86.5527" width="8.53333" height="8.48929" fill="white"/>
<path d="M51.8086 86.6406V95.1299L60.3419 103.619V95.1299L51.8086 86.6406Z" fill="url(#paint20_linear_494_188400)"/>
<path d="M43.2773 95.041H51.8107L60.344 103.53H51.8107L43.2773 95.041Z" fill="url(#paint21_linear_494_188400)"/>
<rect x="43.2773" y="129.828" width="8.53333" height="8.48929" fill="white"/>
<path d="M51.8086 129.916V138.405L60.3419 146.895V138.405L51.8086 129.916Z" fill="url(#paint22_linear_494_188400)"/>
<path d="M43.2773 138.316H51.8107L60.344 146.806H51.8107L43.2773 138.316Z" fill="url(#paint23_linear_494_188400)"/>
<rect x="43.2773" y="173.105" width="8.53333" height="8.48929" fill="white"/>
<path d="M51.8086 173.193V181.683L60.3419 190.172V181.683L51.8086 173.193Z" fill="url(#paint24_linear_494_188400)"/>
<path d="M43.2773 181.594H51.8107L60.344 190.083H51.8107L43.2773 181.594Z" fill="url(#paint25_linear_494_188400)"/>
<rect x="43.2773" y="216.381" width="8.53333" height="8.48929" fill="white"/>
<path d="M51.8086 216.469V224.958L60.3419 233.447V224.958L51.8086 216.469Z" fill="url(#paint26_linear_494_188400)"/>
<path d="M43.2773 224.871H51.8107L60.344 233.36H51.8107L43.2773 224.871Z" fill="url(#paint27_linear_494_188400)"/>
<rect x="43.2773" y="259.656" width="8.53333" height="8.48929" fill="white"/>
<path d="M51.8086 259.744V268.233L60.3419 276.723V268.233L51.8086 259.744Z" fill="url(#paint28_linear_494_188400)"/>
<path d="M43.2773 268.145H51.8107L60.344 276.634H51.8107L43.2773 268.145Z" fill="url(#paint29_linear_494_188400)"/>
<rect x="43.2773" y="302.934" width="8.53333" height="8.48929" fill="white"/>
<path d="M51.8086 303.021V311.511L60.3419 320V311.511L51.8086 303.021Z" fill="url(#paint30_linear_494_188400)"/>
<path d="M43.2773 311.422H51.8107L60.344 319.911H51.8107L43.2773 311.422Z" fill="url(#paint31_linear_494_188400)"/>
<rect x="86.5508" width="8.53333" height="8.48929" fill="white"/>
<path d="M95.082 0.0878906V8.57718L103.615 17.0665V8.57718L95.082 0.0878906Z" fill="url(#paint32_linear_494_188400)"/>
<path d="M86.5508 8.48828H95.0841L103.617 16.9776H95.0841L86.5508 8.48828Z" fill="url(#paint33_linear_494_188400)"/>
<rect x="86.5508" y="43.2754" width="8.53333" height="8.48929" fill="white"/>
<path d="M95.082 43.3633V51.8526L103.615 60.3419V51.8526L95.082 43.3633Z" fill="url(#paint34_linear_494_188400)"/>
<path d="M86.5508 51.7656H95.0841L103.617 60.2549H95.0841L86.5508 51.7656Z" fill="url(#paint35_linear_494_188400)"/>
<rect x="86.5508" y="86.5527" width="8.53333" height="8.48929" fill="white"/>
<path d="M95.082 86.6406V95.1299L103.615 103.619V95.1299L95.082 86.6406Z" fill="url(#paint36_linear_494_188400)"/>
<path d="M86.5508 95.041H95.0841L103.617 103.53H95.0841L86.5508 95.041Z" fill="url(#paint37_linear_494_188400)"/>
<rect x="86.5508" y="129.828" width="8.53333" height="8.48929" fill="white"/>
<path d="M95.082 129.916V138.405L103.615 146.895V138.405L95.082 129.916Z" fill="url(#paint38_linear_494_188400)"/>
<path d="M86.5508 138.316H95.0841L103.617 146.806H95.0841L86.5508 138.316Z" fill="url(#paint39_linear_494_188400)"/>
<rect x="86.5508" y="173.105" width="8.53333" height="8.48929" fill="white"/>
<path d="M95.082 173.193V181.683L103.615 190.172V181.683L95.082 173.193Z" fill="url(#paint40_linear_494_188400)"/>
<path d="M86.5508 181.594H95.0841L103.617 190.083H95.0841L86.5508 181.594Z" fill="url(#paint41_linear_494_188400)"/>
<rect x="86.5508" y="216.381" width="8.53333" height="8.48929" fill="white"/>
<path d="M95.082 216.469V224.958L103.615 233.447V224.958L95.082 216.469Z" fill="url(#paint42_linear_494_188400)"/>
<path d="M86.5508 224.871H95.0841L103.617 233.36H95.0841L86.5508 224.871Z" fill="url(#paint43_linear_494_188400)"/>
<rect x="86.5508" y="259.656" width="8.53333" height="8.48929" fill="white"/>
<path d="M95.082 259.744V268.233L103.615 276.723V268.233L95.082 259.744Z" fill="url(#paint44_linear_494_188400)"/>
<path d="M86.5508 268.145H95.0841L103.617 276.634H95.0841L86.5508 268.145Z" fill="url(#paint45_linear_494_188400)"/>
<rect x="86.5508" y="302.934" width="8.53333" height="8.48929" fill="white"/>
<path d="M95.082 303.021V311.511L103.615 320V311.511L95.082 303.021Z" fill="url(#paint46_linear_494_188400)"/>
<path d="M86.5508 311.422H95.0841L103.617 319.911H95.0841L86.5508 311.422Z" fill="url(#paint47_linear_494_188400)"/>
<rect x="129.828" width="8.53333" height="8.48929" fill="white"/>
<path d="M138.363 0.0878906V8.57718L146.897 17.0665V8.57718L138.363 0.0878906Z" fill="url(#paint48_linear_494_188400)"/>
<path d="M129.828 8.48828H138.361L146.895 16.9776H138.361L129.828 8.48828Z" fill="url(#paint49_linear_494_188400)"/>
<rect x="129.828" y="43.2754" width="8.53333" height="8.48929" fill="white"/>
<path d="M138.363 43.3633V51.8526L146.897 60.3419V51.8526L138.363 43.3633Z" fill="url(#paint50_linear_494_188400)"/>
<path d="M129.828 51.7656H138.361L146.895 60.2549H138.361L129.828 51.7656Z" fill="url(#paint51_linear_494_188400)"/>
<rect x="129.828" y="86.5527" width="8.53333" height="8.48929" fill="white"/>
<path d="M138.363 86.6406V95.1299L146.897 103.619V95.1299L138.363 86.6406Z" fill="url(#paint52_linear_494_188400)"/>
<path d="M129.828 95.041H138.361L146.895 103.53H138.361L129.828 95.041Z" fill="url(#paint53_linear_494_188400)"/>
<rect x="129.828" y="129.828" width="8.53333" height="8.48929" fill="white"/>
<path d="M138.363 129.916V138.405L146.897 146.895V138.405L138.363 129.916Z" fill="url(#paint54_linear_494_188400)"/>
<path d="M129.828 138.316H138.361L146.895 146.806H138.361L129.828 138.316Z" fill="url(#paint55_linear_494_188400)"/>
<rect x="129.828" y="173.105" width="8.53333" height="8.48929" fill="white"/>
<path d="M138.363 173.193V181.683L146.897 190.172V181.683L138.363 173.193Z" fill="url(#paint56_linear_494_188400)"/>
<path d="M129.828 181.594H138.361L146.895 190.083H138.361L129.828 181.594Z" fill="url(#paint57_linear_494_188400)"/>
<rect x="129.828" y="216.381" width="8.53333" height="8.48929" fill="white"/>
<path d="M138.363 216.469V224.958L146.897 233.447V224.958L138.363 216.469Z" fill="url(#paint58_linear_494_188400)"/>
<path d="M129.828 224.871H138.361L146.895 233.36H138.361L129.828 224.871Z" fill="url(#paint59_linear_494_188400)"/>
<rect x="129.828" y="259.656" width="8.53333" height="8.48929" fill="white"/>
<path d="M138.363 259.744V268.233L146.897 276.723V268.233L138.363 259.744Z" fill="url(#paint60_linear_494_188400)"/>
<path d="M129.828 268.145H138.361L146.895 276.634H138.361L129.828 268.145Z" fill="url(#paint61_linear_494_188400)"/>
<rect x="129.828" y="302.934" width="8.53333" height="8.48929" fill="white"/>
<path d="M138.363 303.021V311.511L146.897 320V311.511L138.363 303.021Z" fill="url(#paint62_linear_494_188400)"/>
<path d="M129.828 311.422H138.361L146.895 319.911H138.361L129.828 311.422Z" fill="url(#paint63_linear_494_188400)"/>
<rect x="173.105" width="8.53333" height="8.48929" fill="white"/>
<path d="M181.637 0.0878906V8.57718L190.17 17.0665V8.57718L181.637 0.0878906Z" fill="url(#paint64_linear_494_188400)"/>
<path d="M173.105 8.48828H181.639L190.172 16.9776H181.639L173.105 8.48828Z" fill="url(#paint65_linear_494_188400)"/>
<rect x="173.105" y="43.2754" width="8.53333" height="8.48929" fill="white"/>
<path d="M181.637 43.3633V51.8526L190.17 60.3419V51.8526L181.637 43.3633Z" fill="url(#paint66_linear_494_188400)"/>
<path d="M173.105 51.7656H181.639L190.172 60.2549H181.639L173.105 51.7656Z" fill="url(#paint67_linear_494_188400)"/>
<rect x="173.105" y="86.5527" width="8.53333" height="8.48929" fill="white"/>
<path d="M181.637 86.6406V95.1299L190.17 103.619V95.1299L181.637 86.6406Z" fill="url(#paint68_linear_494_188400)"/>
<path d="M173.105 95.041H181.639L190.172 103.53H181.639L173.105 95.041Z" fill="url(#paint69_linear_494_188400)"/>
<rect x="173.105" y="129.828" width="8.53333" height="8.48929" fill="white"/>
<path d="M181.637 129.916V138.405L190.17 146.895V138.405L181.637 129.916Z" fill="url(#paint70_linear_494_188400)"/>
<path d="M173.105 138.316H181.639L190.172 146.806H181.639L173.105 138.316Z" fill="url(#paint71_linear_494_188400)"/>
<rect x="173.105" y="173.105" width="8.53333" height="8.48929" fill="white"/>
<path d="M181.637 173.193V181.683L190.17 190.172V181.683L181.637 173.193Z" fill="url(#paint72_linear_494_188400)"/>
<path d="M173.105 181.594H181.639L190.172 190.083H181.639L173.105 181.594Z" fill="url(#paint73_linear_494_188400)"/>
<rect x="173.105" y="216.381" width="8.53333" height="8.48929" fill="white"/>
<path d="M181.637 216.469V224.958L190.17 233.447V224.958L181.637 216.469Z" fill="url(#paint74_linear_494_188400)"/>
<path d="M173.105 224.871H181.639L190.172 233.36H181.639L173.105 224.871Z" fill="url(#paint75_linear_494_188400)"/>
<rect x="173.105" y="259.656" width="8.53333" height="8.48929" fill="white"/>
<path d="M181.637 259.744V268.233L190.17 276.723V268.233L181.637 259.744Z" fill="url(#paint76_linear_494_188400)"/>
<path d="M173.105 268.145H181.639L190.172 276.634H181.639L173.105 268.145Z" fill="url(#paint77_linear_494_188400)"/>
<rect x="173.105" y="302.934" width="8.53333" height="8.48929" fill="white"/>
<path d="M181.637 303.021V311.511L190.17 320V311.511L181.637 303.021Z" fill="url(#paint78_linear_494_188400)"/>
<path d="M173.105 311.422H181.639L190.172 319.911H181.639L173.105 311.422Z" fill="url(#paint79_linear_494_188400)"/>
<rect x="216.383" width="8.53333" height="8.48929" fill="white"/>
<path d="M224.918 0.0878906V8.57718L233.451 17.0665V8.57718L224.918 0.0878906Z" fill="url(#paint80_linear_494_188400)"/>
<path d="M216.383 8.48828H224.916L233.449 16.9776H224.916L216.383 8.48828Z" fill="url(#paint81_linear_494_188400)"/>
<rect x="216.383" y="43.2754" width="8.53333" height="8.48929" fill="white"/>
<path d="M224.918 43.3633V51.8526L233.451 60.3419V51.8526L224.918 43.3633Z" fill="url(#paint82_linear_494_188400)"/>
<path d="M216.383 51.7656H224.916L233.449 60.2549H224.916L216.383 51.7656Z" fill="url(#paint83_linear_494_188400)"/>
<rect x="216.383" y="86.5527" width="8.53333" height="8.48929" fill="white"/>
<path d="M224.918 86.6406V95.1299L233.451 103.619V95.1299L224.918 86.6406Z" fill="url(#paint84_linear_494_188400)"/>
<path d="M216.383 95.041H224.916L233.449 103.53H224.916L216.383 95.041Z" fill="url(#paint85_linear_494_188400)"/>
<rect x="216.383" y="129.828" width="8.53333" height="8.48929" fill="white"/>
<path d="M224.918 129.916V138.405L233.451 146.895V138.405L224.918 129.916Z" fill="url(#paint86_linear_494_188400)"/>
<path d="M216.383 138.316H224.916L233.449 146.806H224.916L216.383 138.316Z" fill="url(#paint87_linear_494_188400)"/>
<rect x="216.383" y="173.105" width="8.53333" height="8.48929" fill="white"/>
<path d="M224.918 173.193V181.683L233.451 190.172V181.683L224.918 173.193Z" fill="url(#paint88_linear_494_188400)"/>
<path d="M216.383 181.594H224.916L233.449 190.083H224.916L216.383 181.594Z" fill="url(#paint89_linear_494_188400)"/>
<rect x="216.383" y="216.381" width="8.53333" height="8.48929" fill="white"/>
<path d="M224.918 216.469V224.958L233.451 233.447V224.958L224.918 216.469Z" fill="url(#paint90_linear_494_188400)"/>
<path d="M216.383 224.871H224.916L233.449 233.36H224.916L216.383 224.871Z" fill="url(#paint91_linear_494_188400)"/>
<rect x="216.383" y="259.656" width="8.53333" height="8.48929" fill="white"/>
<path d="M224.918 259.744V268.233L233.451 276.723V268.233L224.918 259.744Z" fill="url(#paint92_linear_494_188400)"/>
<path d="M216.383 268.145H224.916L233.449 276.634H224.916L216.383 268.145Z" fill="url(#paint93_linear_494_188400)"/>
<rect x="216.383" y="302.934" width="8.53333" height="8.48929" fill="white"/>
<path d="M224.918 303.021V311.511L233.451 320V311.511L224.918 303.021Z" fill="url(#paint94_linear_494_188400)"/>
<path d="M216.383 311.422H224.916L233.449 319.911H224.916L216.383 311.422Z" fill="url(#paint95_linear_494_188400)"/>
<rect x="259.656" width="8.53333" height="8.48929" fill="white"/>
<path d="M268.191 0.0878906V8.57718L276.725 17.0665V8.57718L268.191 0.0878906Z" fill="url(#paint96_linear_494_188400)"/>
<path d="M259.656 8.48828H268.19L276.723 16.9776H268.19L259.656 8.48828Z" fill="url(#paint97_linear_494_188400)"/>
<rect x="259.656" y="43.2754" width="8.53333" height="8.48929" fill="white"/>
<path d="M268.191 43.3633V51.8526L276.725 60.3419V51.8526L268.191 43.3633Z" fill="url(#paint98_linear_494_188400)"/>
<path d="M259.656 51.7656H268.19L276.723 60.2549H268.19L259.656 51.7656Z" fill="url(#paint99_linear_494_188400)"/>
<rect x="259.656" y="86.5527" width="8.53333" height="8.48929" fill="white"/>
<path d="M268.191 86.6406V95.1299L276.725 103.619V95.1299L268.191 86.6406Z" fill="url(#paint100_linear_494_188400)"/>
<path d="M259.656 95.041H268.19L276.723 103.53H268.19L259.656 95.041Z" fill="url(#paint101_linear_494_188400)"/>
<rect x="259.656" y="129.828" width="8.53333" height="8.48929" fill="white"/>
<path d="M268.191 129.916V138.405L276.725 146.895V138.405L268.191 129.916Z" fill="url(#paint102_linear_494_188400)"/>
<path d="M259.656 138.316H268.19L276.723 146.806H268.19L259.656 138.316Z" fill="url(#paint103_linear_494_188400)"/>
<rect x="259.656" y="173.105" width="8.53333" height="8.48929" fill="white"/>
<path d="M268.191 173.193V181.683L276.725 190.172V181.683L268.191 173.193Z" fill="url(#paint104_linear_494_188400)"/>
<path d="M259.656 181.594H268.19L276.723 190.083H268.19L259.656 181.594Z" fill="url(#paint105_linear_494_188400)"/>
<rect x="259.656" y="216.381" width="8.53333" height="8.48929" fill="white"/>
<path d="M268.191 216.469V224.958L276.725 233.447V224.958L268.191 216.469Z" fill="url(#paint106_linear_494_188400)"/>
<path d="M259.656 224.871H268.19L276.723 233.36H268.19L259.656 224.871Z" fill="url(#paint107_linear_494_188400)"/>
<rect x="259.656" y="259.656" width="8.53333" height="8.48929" fill="white"/>
<path d="M268.191 259.744V268.233L276.725 276.723V268.233L268.191 259.744Z" fill="url(#paint108_linear_494_188400)"/>
<path d="M259.656 268.145H268.19L276.723 276.634H268.19L259.656 268.145Z" fill="url(#paint109_linear_494_188400)"/>
<rect x="259.656" y="302.934" width="8.53333" height="8.48929" fill="white"/>
<path d="M268.191 303.021V311.511L276.725 320V311.511L268.191 303.021Z" fill="url(#paint110_linear_494_188400)"/>
<path d="M259.656 311.422H268.19L276.723 319.911H268.19L259.656 311.422Z" fill="url(#paint111_linear_494_188400)"/>
<rect x="302.934" width="8.53333" height="8.48929" fill="white"/>
<path d="M311.469 0.0878906V8.57718L320.002 17.0665V8.57718L311.469 0.0878906Z" fill="url(#paint112_linear_494_188400)"/>
<path d="M302.934 8.48828H311.467L320 16.9776H311.467L302.934 8.48828Z" fill="url(#paint113_linear_494_188400)"/>
<rect x="302.934" y="43.2754" width="8.53333" height="8.48929" fill="white"/>
<path d="M311.469 43.3633V51.8526L320.002 60.3419V51.8526L311.469 43.3633Z" fill="url(#paint114_linear_494_188400)"/>
<path d="M302.934 51.7656H311.467L320 60.2549H311.467L302.934 51.7656Z" fill="url(#paint115_linear_494_188400)"/>
<rect x="302.934" y="86.5527" width="8.53333" height="8.48929" fill="white"/>
<path d="M311.469 86.6406V95.1299L320.002 103.619V95.1299L311.469 86.6406Z" fill="url(#paint116_linear_494_188400)"/>
<path d="M302.934 95.041H311.467L320 103.53H311.467L302.934 95.041Z" fill="url(#paint117_linear_494_188400)"/>
<rect x="302.934" y="129.828" width="8.53333" height="8.48929" fill="white"/>
<path d="M311.469 129.916V138.405L320.002 146.895V138.405L311.469 129.916Z" fill="url(#paint118_linear_494_188400)"/>
<path d="M302.934 138.316H311.467L320 146.806H311.467L302.934 138.316Z" fill="url(#paint119_linear_494_188400)"/>
<rect x="302.934" y="173.105" width="8.53333" height="8.48929" fill="white"/>
<path d="M311.469 173.193V181.683L320.002 190.172V181.683L311.469 173.193Z" fill="url(#paint120_linear_494_188400)"/>
<path d="M302.934 181.594H311.467L320 190.083H311.467L302.934 181.594Z" fill="url(#paint121_linear_494_188400)"/>
<rect x="302.934" y="216.381" width="8.53333" height="8.48929" fill="white"/>
<path d="M311.469 216.469V224.958L320.002 233.447V224.958L311.469 216.469Z" fill="url(#paint122_linear_494_188400)"/>
<path d="M302.934 224.871H311.467L320 233.36H311.467L302.934 224.871Z" fill="url(#paint123_linear_494_188400)"/>
<rect x="302.934" y="259.656" width="8.53333" height="8.48929" fill="white"/>
<path d="M311.469 259.744V268.233L320.002 276.723V268.233L311.469 259.744Z" fill="url(#paint124_linear_494_188400)"/>
<path d="M302.934 268.145H311.467L320 276.634H311.467L302.934 268.145Z" fill="url(#paint125_linear_494_188400)"/>
<rect x="302.934" y="302.934" width="8.53333" height="8.48929" fill="white"/>
<path d="M311.469 303.021V311.511L320.002 320V311.511L311.469 303.021Z" fill="url(#paint126_linear_494_188400)"/>
<path d="M302.934 311.422H311.467L320 319.911H311.467L302.934 311.422Z" fill="url(#paint127_linear_494_188400)"/>
<defs>
<linearGradient id="paint0_linear_494_188400" x1="36.9312" y1="8.4891" x2="8.53125" y2="8.4891" gradientUnits="userSpaceOnUse">
<stop stop-color="white"/>
<stop offset="1" stop-color="white" stop-opacity="0"/>
</linearGradient>
<linearGradient id="paint1_linear_494_188400" x1="14.8" y1="26.3954" x2="-2.56188" y2="5.87934" gradientUnits="userSpaceOnUse">
<stop stop-color="white"/>
<stop offset="1" stop-color="white" stop-opacity="0"/>
</linearGradient>
<linearGradient id="paint2_linear_494_188400" x1="36.9312" y1="51.7645" x2="8.53125" y2="51.7645" gradientUnits="userSpaceOnUse">
<stop stop-color="white"/>
<stop offset="1" stop-color="white" stop-opacity="0"/>
</linearGradient>
<linearGradient id="paint3_linear_494_188400" x1="14.8" y1="69.6727" x2="-2.56188" y2="49.1567" gradientUnits="userSpaceOnUse">
<stop stop-color="white"/>
<stop offset="1" stop-color="white" stop-opacity="0"/>
</linearGradient>
<linearGradient id="paint4_linear_494_188400" x1="36.9312" y1="95.0418" x2="8.53125" y2="95.0418" gradientUnits="userSpaceOnUse">
<stop stop-color="white"/>
<stop offset="1" stop-color="white" stop-opacity="0"/>
</linearGradient>
<linearGradient id="paint5_linear_494_188400" x1="14.8" y1="112.948" x2="-2.56188" y2="92.4321" gradientUnits="userSpaceOnUse">
<stop stop-color="white"/>
<stop offset="1" stop-color="white" stop-opacity="0"/>
</linearGradient>
<linearGradient id="paint6_linear_494_188400" x1="36.9312" y1="138.317" x2="8.53125" y2="138.317" gradientUnits="userSpaceOnUse">
<stop stop-color="white"/>
<stop offset="1" stop-color="white" stop-opacity="0"/>
</linearGradient>
<linearGradient id="paint7_linear_494_188400" x1="14.8" y1="156.224" x2="-2.56188" y2="135.707" gradientUnits="userSpaceOnUse">
<stop stop-color="white"/>
<stop offset="1" stop-color="white" stop-opacity="0"/>
</linearGradient>
<linearGradient id="paint8_linear_494_188400" x1="36.9312" y1="181.595" x2="8.53125" y2="181.595" gradientUnits="userSpaceOnUse">
<stop stop-color="white"/>
<stop offset="1" stop-color="white" stop-opacity="0"/>
</linearGradient>
<linearGradient id="paint9_linear_494_188400" x1="14.8" y1="199.501" x2="-2.56188" y2="178.985" gradientUnits="userSpaceOnUse">
<stop stop-color="white"/>
<stop offset="1" stop-color="white" stop-opacity="0"/>
</linearGradient>
<linearGradient id="paint10_linear_494_188400" x1="36.9312" y1="224.87" x2="8.53125" y2="224.87" gradientUnits="userSpaceOnUse">
<stop stop-color="white"/>
<stop offset="1" stop-color="white" stop-opacity="0"/>
</linearGradient>
<linearGradient id="paint11_linear_494_188400" x1="14.8" y1="242.778" x2="-2.56188" y2="222.262" gradientUnits="userSpaceOnUse">
<stop stop-color="white"/>
<stop offset="1" stop-color="white" stop-opacity="0"/>
</linearGradient>
<linearGradient id="paint12_linear_494_188400" x1="36.9312" y1="268.145" x2="8.53125" y2="268.145" gradientUnits="userSpaceOnUse">
<stop stop-color="white"/>
<stop offset="1" stop-color="white" stop-opacity="0"/>
</linearGradient>
<linearGradient id="paint13_linear_494_188400" x1="14.8" y1="286.052" x2="-2.56188" y2="265.536" gradientUnits="userSpaceOnUse">
<stop stop-color="white"/>
<stop offset="1" stop-color="white" stop-opacity="0"/>
</linearGradient>
<linearGradient id="paint14_linear_494_188400" x1="36.9312" y1="311.423" x2="8.53125" y2="311.423" gradientUnits="userSpaceOnUse">
<stop stop-color="white"/>
<stop offset="1" stop-color="white" stop-opacity="0"/>
</linearGradient>
<linearGradient id="paint15_linear_494_188400" x1="14.8" y1="329.329" x2="-2.56188" y2="308.813" gradientUnits="userSpaceOnUse">
<stop stop-color="white"/>
<stop offset="1" stop-color="white" stop-opacity="0"/>
</linearGradient>
<linearGradient id="paint16_linear_494_188400" x1="80.2086" y1="8.4891" x2="51.8086" y2="8.4891" gradientUnits="userSpaceOnUse">
<stop stop-color="white"/>
<stop offset="1" stop-color="white" stop-opacity="0"/>
</linearGradient>
<linearGradient id="paint17_linear_494_188400" x1="58.0773" y1="26.3954" x2="40.7155" y2="5.87934" gradientUnits="userSpaceOnUse">
<stop stop-color="white"/>
<stop offset="1" stop-color="white" stop-opacity="0"/>
</linearGradient>
<linearGradient id="paint18_linear_494_188400" x1="80.2086" y1="51.7645" x2="51.8086" y2="51.7645" gradientUnits="userSpaceOnUse">
<stop stop-color="white"/>
<stop offset="1" stop-color="white" stop-opacity="0"/>
</linearGradient>
<linearGradient id="paint19_linear_494_188400" x1="58.0773" y1="69.6727" x2="40.7155" y2="49.1567" gradientUnits="userSpaceOnUse">
<stop stop-color="white"/>
<stop offset="1" stop-color="white" stop-opacity="0"/>
</linearGradient>
<linearGradient id="paint20_linear_494_188400" x1="80.2086" y1="95.0418" x2="51.8086" y2="95.0418" gradientUnits="userSpaceOnUse">
<stop stop-color="white"/>
<stop offset="1" stop-color="white" stop-opacity="0"/>
</linearGradient>
<linearGradient id="paint21_linear_494_188400" x1="58.0773" y1="112.948" x2="40.7155" y2="92.4321" gradientUnits="userSpaceOnUse">
<stop stop-color="white"/>
<stop offset="1" stop-color="white" stop-opacity="0"/>
</linearGradient>
<linearGradient id="paint22_linear_494_188400" x1="80.2086" y1="138.317" x2="51.8086" y2="138.317" gradientUnits="userSpaceOnUse">
<stop stop-color="white"/>
<stop offset="1" stop-color="white" stop-opacity="0"/>
</linearGradient>
<linearGradient id="paint23_linear_494_188400" x1="58.0773" y1="156.224" x2="40.7155" y2="135.707" gradientUnits="userSpaceOnUse">
<stop stop-color="white"/>
<stop offset="1" stop-color="white" stop-opacity="0"/>
</linearGradient>
<linearGradient id="paint24_linear_494_188400" x1="80.2086" y1="181.595" x2="51.8086" y2="181.595" gradientUnits="userSpaceOnUse">
<stop stop-color="white"/>
<stop offset="1" stop-color="white" stop-opacity="0"/>
</linearGradient>
<linearGradient id="paint25_linear_494_188400" x1="58.0773" y1="199.501" x2="40.7155" y2="178.985" gradientUnits="userSpaceOnUse">
<stop stop-color="white"/>
<stop offset="1" stop-color="white" stop-opacity="0"/>
</linearGradient>
<linearGradient id="paint26_linear_494_188400" x1="80.2086" y1="224.87" x2="51.8086" y2="224.87" gradientUnits="userSpaceOnUse">
<stop stop-color="white"/>
<stop offset="1" stop-color="white" stop-opacity="0"/>
</linearGradient>
<linearGradient id="paint27_linear_494_188400" x1="58.0773" y1="242.778" x2="40.7155" y2="222.262" gradientUnits="userSpaceOnUse">
<stop stop-color="white"/>
<stop offset="1" stop-color="white" stop-opacity="0"/>
</linearGradient>
<linearGradient id="paint28_linear_494_188400" x1="80.2086" y1="268.145" x2="51.8086" y2="268.145" gradientUnits="userSpaceOnUse">
<stop stop-color="white"/>
<stop offset="1" stop-color="white" stop-opacity="0"/>
</linearGradient>
<linearGradient id="paint29_linear_494_188400" x1="58.0773" y1="286.052" x2="40.7155" y2="265.536" gradientUnits="userSpaceOnUse">
<stop stop-color="white"/>
<stop offset="1" stop-color="white" stop-opacity="0"/>
</linearGradient>
<linearGradient id="paint30_linear_494_188400" x1="80.2086" y1="311.423" x2="51.8086" y2="311.423" gradientUnits="userSpaceOnUse">
<stop stop-color="white"/>
<stop offset="1" stop-color="white" stop-opacity="0"/>
</linearGradient>
<linearGradient id="paint31_linear_494_188400" x1="58.0773" y1="329.329" x2="40.7155" y2="308.813" gradientUnits="userSpaceOnUse">
<stop stop-color="white"/>
<stop offset="1" stop-color="white" stop-opacity="0"/>
</linearGradient>
<linearGradient id="paint32_linear_494_188400" x1="123.482" y1="8.4891" x2="95.082" y2="8.4891" gradientUnits="userSpaceOnUse">
<stop stop-color="white"/>
<stop offset="1" stop-color="white" stop-opacity="0"/>
</linearGradient>
<linearGradient id="paint33_linear_494_188400" x1="101.351" y1="26.3954" x2="83.9889" y2="5.87934" gradientUnits="userSpaceOnUse">
<stop stop-color="white"/>
<stop offset="1" stop-color="white" stop-opacity="0"/>
</linearGradient>
<linearGradient id="paint34_linear_494_188400" x1="123.482" y1="51.7645" x2="95.082" y2="51.7645" gradientUnits="userSpaceOnUse">
<stop stop-color="white"/>
<stop offset="1" stop-color="white" stop-opacity="0"/>
</linearGradient>
<linearGradient id="paint35_linear_494_188400" x1="101.351" y1="69.6727" x2="83.9889" y2="49.1567" gradientUnits="userSpaceOnUse">
<stop stop-color="white"/>
<stop offset="1" stop-color="white" stop-opacity="0"/>
</linearGradient>
<linearGradient id="paint36_linear_494_188400" x1="123.482" y1="95.0418" x2="95.082" y2="95.0418" gradientUnits="userSpaceOnUse">
<stop stop-color="white"/>
<stop offset="1" stop-color="white" stop-opacity="0"/>
</linearGradient>
<linearGradient id="paint37_linear_494_188400" x1="101.351" y1="112.948" x2="83.9889" y2="92.4321" gradientUnits="userSpaceOnUse">
<stop stop-color="white"/>
<stop offset="1" stop-color="white" stop-opacity="0"/>
</linearGradient>
<linearGradient id="paint38_linear_494_188400" x1="123.482" y1="138.317" x2="95.082" y2="138.317" gradientUnits="userSpaceOnUse">
<stop stop-color="white"/>
<stop offset="1" stop-color="white" stop-opacity="0"/>
</linearGradient>
<linearGradient id="paint39_linear_494_188400" x1="101.351" y1="156.224" x2="83.9889" y2="135.707" gradientUnits="userSpaceOnUse">
<stop stop-color="white"/>
<stop offset="1" stop-color="white" stop-opacity="0"/>
</linearGradient>
<linearGradient id="paint40_linear_494_188400" x1="123.482" y1="181.595" x2="95.082" y2="181.595" gradientUnits="userSpaceOnUse">
<stop stop-color="white"/>
<stop offset="1" stop-color="white" stop-opacity="0"/>
</linearGradient>
<linearGradient id="paint41_linear_494_188400" x1="101.351" y1="199.501" x2="83.9889" y2="178.985" gradientUnits="userSpaceOnUse">
<stop stop-color="white"/>
<stop offset="1" stop-color="white" stop-opacity="0"/>
</linearGradient>
<linearGradient id="paint42_linear_494_188400" x1="123.482" y1="224.87" x2="95.082" y2="224.87" gradientUnits="userSpaceOnUse">
<stop stop-color="white"/>
<stop offset="1" stop-color="white" stop-opacity="0"/>
</linearGradient>
<linearGradient id="paint43_linear_494_188400" x1="101.351" y1="242.778" x2="83.9889" y2="222.262" gradientUnits="userSpaceOnUse">
<stop stop-color="white"/>
<stop offset="1" stop-color="white" stop-opacity="0"/>
</linearGradient>
<linearGradient id="paint44_linear_494_188400" x1="123.482" y1="268.145" x2="95.082" y2="268.145" gradientUnits="userSpaceOnUse">
<stop stop-color="white"/>
<stop offset="1" stop-color="white" stop-opacity="0"/>
</linearGradient>
<linearGradient id="paint45_linear_494_188400" x1="101.351" y1="286.052" x2="83.9889" y2="265.536" gradientUnits="userSpaceOnUse">
<stop stop-color="white"/>
<stop offset="1" stop-color="white" stop-opacity="0"/>
</linearGradient>
<linearGradient id="paint46_linear_494_188400" x1="123.482" y1="311.423" x2="95.082" y2="311.423" gradientUnits="userSpaceOnUse">
<stop stop-color="white"/>
<stop offset="1" stop-color="white" stop-opacity="0"/>
</linearGradient>
<linearGradient id="paint47_linear_494_188400" x1="101.351" y1="329.329" x2="83.9889" y2="308.813" gradientUnits="userSpaceOnUse">
<stop stop-color="white"/>
<stop offset="1" stop-color="white" stop-opacity="0"/>
</linearGradient>
<linearGradient id="paint48_linear_494_188400" x1="166.763" y1="8.4891" x2="138.363" y2="8.4891" gradientUnits="userSpaceOnUse">
<stop stop-color="white"/>
<stop offset="1" stop-color="white" stop-opacity="0"/>
</linearGradient>
<linearGradient id="paint49_linear_494_188400" x1="144.628" y1="26.3954" x2="127.266" y2="5.87934" gradientUnits="userSpaceOnUse">
<stop stop-color="white"/>
<stop offset="1" stop-color="white" stop-opacity="0"/>
</linearGradient>
<linearGradient id="paint50_linear_494_188400" x1="166.763" y1="51.7645" x2="138.363" y2="51.7645" gradientUnits="userSpaceOnUse">
<stop stop-color="white"/>
<stop offset="1" stop-color="white" stop-opacity="0"/>
</linearGradient>
<linearGradient id="paint51_linear_494_188400" x1="144.628" y1="69.6727" x2="127.266" y2="49.1567" gradientUnits="userSpaceOnUse">
<stop stop-color="white"/>
<stop offset="1" stop-color="white" stop-opacity="0"/>
</linearGradient>
<linearGradient id="paint52_linear_494_188400" x1="166.763" y1="95.0418" x2="138.363" y2="95.0418" gradientUnits="userSpaceOnUse">
<stop stop-color="white"/>
<stop offset="1" stop-color="white" stop-opacity="0"/>
</linearGradient>
<linearGradient id="paint53_linear_494_188400" x1="144.628" y1="112.948" x2="127.266" y2="92.4321" gradientUnits="userSpaceOnUse">
<stop stop-color="white"/>
<stop offset="1" stop-color="white" stop-opacity="0"/>
</linearGradient>
<linearGradient id="paint54_linear_494_188400" x1="166.763" y1="138.317" x2="138.363" y2="138.317" gradientUnits="userSpaceOnUse">
<stop stop-color="white"/>
<stop offset="1" stop-color="white" stop-opacity="0"/>
</linearGradient>
<linearGradient id="paint55_linear_494_188400" x1="144.628" y1="156.224" x2="127.266" y2="135.707" gradientUnits="userSpaceOnUse">
<stop stop-color="white"/>
<stop offset="1" stop-color="white" stop-opacity="0"/>
</linearGradient>
<linearGradient id="paint56_linear_494_188400" x1="166.763" y1="181.595" x2="138.363" y2="181.595" gradientUnits="userSpaceOnUse">
<stop stop-color="white"/>
<stop offset="1" stop-color="white" stop-opacity="0"/>
</linearGradient>
<linearGradient id="paint57_linear_494_188400" x1="144.628" y1="199.501" x2="127.266" y2="178.985" gradientUnits="userSpaceOnUse">
<stop stop-color="white"/>
<stop offset="1" stop-color="white" stop-opacity="0"/>
</linearGradient>
<linearGradient id="paint58_linear_494_188400" x1="166.763" y1="224.87" x2="138.363" y2="224.87" gradientUnits="userSpaceOnUse">
<stop stop-color="white"/>
<stop offset="1" stop-color="white" stop-opacity="0"/>
</linearGradient>
<linearGradient id="paint59_linear_494_188400" x1="144.628" y1="242.778" x2="127.266" y2="222.262" gradientUnits="userSpaceOnUse">
<stop stop-color="white"/>
<stop offset="1" stop-color="white" stop-opacity="0"/>
</linearGradient>
<linearGradient id="paint60_linear_494_188400" x1="166.763" y1="268.145" x2="138.363" y2="268.145" gradientUnits="userSpaceOnUse">
<stop stop-color="white"/>
<stop offset="1" stop-color="white" stop-opacity="0"/>
</linearGradient>
<linearGradient id="paint61_linear_494_188400" x1="144.628" y1="286.052" x2="127.266" y2="265.536" gradientUnits="userSpaceOnUse">
<stop stop-color="white"/>
<stop offset="1" stop-color="white" stop-opacity="0"/>
</linearGradient>
<linearGradient id="paint62_linear_494_188400" x1="166.763" y1="311.423" x2="138.363" y2="311.423" gradientUnits="userSpaceOnUse">
<stop stop-color="white"/>
<stop offset="1" stop-color="white" stop-opacity="0"/>
</linearGradient>
<linearGradient id="paint63_linear_494_188400" x1="144.628" y1="329.329" x2="127.266" y2="308.813" gradientUnits="userSpaceOnUse">
<stop stop-color="white"/>
<stop offset="1" stop-color="white" stop-opacity="0"/>
</linearGradient>
<linearGradient id="paint64_linear_494_188400" x1="210.037" y1="8.4891" x2="181.637" y2="8.4891" gradientUnits="userSpaceOnUse">
<stop stop-color="white"/>
<stop offset="1" stop-color="white" stop-opacity="0"/>
</linearGradient>
<linearGradient id="paint65_linear_494_188400" x1="187.905" y1="26.3954" x2="170.544" y2="5.87934" gradientUnits="userSpaceOnUse">
<stop stop-color="white"/>
<stop offset="1" stop-color="white" stop-opacity="0"/>
</linearGradient>
<linearGradient id="paint66_linear_494_188400" x1="210.037" y1="51.7645" x2="181.637" y2="51.7645" gradientUnits="userSpaceOnUse">
<stop stop-color="white"/>
<stop offset="1" stop-color="white" stop-opacity="0"/>
</linearGradient>
<linearGradient id="paint67_linear_494_188400" x1="187.905" y1="69.6727" x2="170.544" y2="49.1567" gradientUnits="userSpaceOnUse">
<stop stop-color="white"/>
<stop offset="1" stop-color="white" stop-opacity="0"/>
</linearGradient>
<linearGradient id="paint68_linear_494_188400" x1="210.037" y1="95.0418" x2="181.637" y2="95.0418" gradientUnits="userSpaceOnUse">
<stop stop-color="white"/>
<stop offset="1" stop-color="white" stop-opacity="0"/>
</linearGradient>
<linearGradient id="paint69_linear_494_188400" x1="187.905" y1="112.948" x2="170.544" y2="92.4321" gradientUnits="userSpaceOnUse">
<stop stop-color="white"/>
<stop offset="1" stop-color="white" stop-opacity="0"/>
</linearGradient>
<linearGradient id="paint70_linear_494_188400" x1="210.037" y1="138.317" x2="181.637" y2="138.317" gradientUnits="userSpaceOnUse">
<stop stop-color="white"/>
<stop offset="1" stop-color="white" stop-opacity="0"/>
</linearGradient>
<linearGradient id="paint71_linear_494_188400" x1="187.905" y1="156.224" x2="170.544" y2="135.707" gradientUnits="userSpaceOnUse">
<stop stop-color="white"/>
<stop offset="1" stop-color="white" stop-opacity="0"/>
</linearGradient>
<linearGradient id="paint72_linear_494_188400" x1="210.037" y1="181.595" x2="181.637" y2="181.595" gradientUnits="userSpaceOnUse">
<stop stop-color="white"/>
<stop offset="1" stop-color="white" stop-opacity="0"/>
</linearGradient>
<linearGradient id="paint73_linear_494_188400" x1="187.905" y1="199.501" x2="170.544" y2="178.985" gradientUnits="userSpaceOnUse">
<stop stop-color="white"/>
<stop offset="1" stop-color="white" stop-opacity="0"/>
</linearGradient>
<linearGradient id="paint74_linear_494_188400" x1="210.037" y1="224.87" x2="181.637" y2="224.87" gradientUnits="userSpaceOnUse">
<stop stop-color="white"/>
<stop offset="1" stop-color="white" stop-opacity="0"/>
</linearGradient>
<linearGradient id="paint75_linear_494_188400" x1="187.905" y1="242.778" x2="170.544" y2="222.262" gradientUnits="userSpaceOnUse">
<stop stop-color="white"/>
<stop offset="1" stop-color="white" stop-opacity="0"/>
</linearGradient>
<linearGradient id="paint76_linear_494_188400" x1="210.037" y1="268.145" x2="181.637" y2="268.145" gradientUnits="userSpaceOnUse">
<stop stop-color="white"/>
<stop offset="1" stop-color="white" stop-opacity="0"/>
</linearGradient>
<linearGradient id="paint77_linear_494_188400" x1="187.905" y1="286.052" x2="170.544" y2="265.536" gradientUnits="userSpaceOnUse">
<stop stop-color="white"/>
<stop offset="1" stop-color="white" stop-opacity="0"/>
</linearGradient>
<linearGradient id="paint78_linear_494_188400" x1="210.037" y1="311.423" x2="181.637" y2="311.423" gradientUnits="userSpaceOnUse">
<stop stop-color="white"/>
<stop offset="1" stop-color="white" stop-opacity="0"/>
</linearGradient>
<linearGradient id="paint79_linear_494_188400" x1="187.905" y1="329.329" x2="170.544" y2="308.813" gradientUnits="userSpaceOnUse">
<stop stop-color="white"/>
<stop offset="1" stop-color="white" stop-opacity="0"/>
</linearGradient>
<linearGradient id="paint80_linear_494_188400" x1="253.318" y1="8.4891" x2="224.918" y2="8.4891" gradientUnits="userSpaceOnUse">
<stop stop-color="white"/>
<stop offset="1" stop-color="white" stop-opacity="0"/>
</linearGradient>
<linearGradient id="paint81_linear_494_188400" x1="231.183" y1="26.3954" x2="213.821" y2="5.87934" gradientUnits="userSpaceOnUse">
<stop stop-color="white"/>
<stop offset="1" stop-color="white" stop-opacity="0"/>
</linearGradient>
<linearGradient id="paint82_linear_494_188400" x1="253.318" y1="51.7645" x2="224.918" y2="51.7645" gradientUnits="userSpaceOnUse">
<stop stop-color="white"/>
<stop offset="1" stop-color="white" stop-opacity="0"/>
</linearGradient>
<linearGradient id="paint83_linear_494_188400" x1="231.183" y1="69.6727" x2="213.821" y2="49.1567" gradientUnits="userSpaceOnUse">
<stop stop-color="white"/>
<stop offset="1" stop-color="white" stop-opacity="0"/>
</linearGradient>
<linearGradient id="paint84_linear_494_188400" x1="253.318" y1="95.0418" x2="224.918" y2="95.0418" gradientUnits="userSpaceOnUse">
<stop stop-color="white"/>
<stop offset="1" stop-color="white" stop-opacity="0"/>
</linearGradient>
<linearGradient id="paint85_linear_494_188400" x1="231.183" y1="112.948" x2="213.821" y2="92.4321" gradientUnits="userSpaceOnUse">
<stop stop-color="white"/>
<stop offset="1" stop-color="white" stop-opacity="0"/>
</linearGradient>
<linearGradient id="paint86_linear_494_188400" x1="253.318" y1="138.317" x2="224.918" y2="138.317" gradientUnits="userSpaceOnUse">
<stop stop-color="white"/>
<stop offset="1" stop-color="white" stop-opacity="0"/>
</linearGradient>
<linearGradient id="paint87_linear_494_188400" x1="231.183" y1="156.224" x2="213.821" y2="135.707" gradientUnits="userSpaceOnUse">
<stop stop-color="white"/>
<stop offset="1" stop-color="white" stop-opacity="0"/>
</linearGradient>
<linearGradient id="paint88_linear_494_188400" x1="253.318" y1="181.595" x2="224.918" y2="181.595" gradientUnits="userSpaceOnUse">
<stop stop-color="white"/>
<stop offset="1" stop-color="white" stop-opacity="0"/>
</linearGradient>
<linearGradient id="paint89_linear_494_188400" x1="231.183" y1="199.501" x2="213.821" y2="178.985" gradientUnits="userSpaceOnUse">
<stop stop-color="white"/>
<stop offset="1" stop-color="white" stop-opacity="0"/>
</linearGradient>
<linearGradient id="paint90_linear_494_188400" x1="253.318" y1="224.87" x2="224.918" y2="224.87" gradientUnits="userSpaceOnUse">
<stop stop-color="white"/>
<stop offset="1" stop-color="white" stop-opacity="0"/>
</linearGradient>
<linearGradient id="paint91_linear_494_188400" x1="231.183" y1="242.778" x2="213.821" y2="222.262" gradientUnits="userSpaceOnUse">
<stop stop-color="white"/>
<stop offset="1" stop-color="white" stop-opacity="0"/>
</linearGradient>
<linearGradient id="paint92_linear_494_188400" x1="253.318" y1="268.145" x2="224.918" y2="268.145" gradientUnits="userSpaceOnUse">
<stop stop-color="white"/>
<stop offset="1" stop-color="white" stop-opacity="0"/>
</linearGradient>
<linearGradient id="paint93_linear_494_188400" x1="231.183" y1="286.052" x2="213.821" y2="265.536" gradientUnits="userSpaceOnUse">
<stop stop-color="white"/>
<stop offset="1" stop-color="white" stop-opacity="0"/>
</linearGradient>
<linearGradient id="paint94_linear_494_188400" x1="253.318" y1="311.423" x2="224.918" y2="311.423" gradientUnits="userSpaceOnUse">
<stop stop-color="white"/>
<stop offset="1" stop-color="white" stop-opacity="0"/>
</linearGradient>
<linearGradient id="paint95_linear_494_188400" x1="231.183" y1="329.329" x2="213.821" y2="308.813" gradientUnits="userSpaceOnUse">
<stop stop-color="white"/>
<stop offset="1" stop-color="white" stop-opacity="0"/>
</linearGradient>
<linearGradient id="paint96_linear_494_188400" x1="296.591" y1="8.4891" x2="268.191" y2="8.4891" gradientUnits="userSpaceOnUse">
<stop stop-color="white"/>
<stop offset="1" stop-color="white" stop-opacity="0"/>
</linearGradient>
<linearGradient id="paint97_linear_494_188400" x1="274.456" y1="26.3954" x2="257.094" y2="5.87934" gradientUnits="userSpaceOnUse">
<stop stop-color="white"/>
<stop offset="1" stop-color="white" stop-opacity="0"/>
</linearGradient>
<linearGradient id="paint98_linear_494_188400" x1="296.591" y1="51.7645" x2="268.191" y2="51.7645" gradientUnits="userSpaceOnUse">
<stop stop-color="white"/>
<stop offset="1" stop-color="white" stop-opacity="0"/>
</linearGradient>
<linearGradient id="paint99_linear_494_188400" x1="274.456" y1="69.6727" x2="257.094" y2="49.1567" gradientUnits="userSpaceOnUse">
<stop stop-color="white"/>
<stop offset="1" stop-color="white" stop-opacity="0"/>
</linearGradient>
<linearGradient id="paint100_linear_494_188400" x1="296.591" y1="95.0418" x2="268.191" y2="95.0418" gradientUnits="userSpaceOnUse">
<stop stop-color="white"/>
<stop offset="1" stop-color="white" stop-opacity="0"/>
</linearGradient>
<linearGradient id="paint101_linear_494_188400" x1="274.456" y1="112.948" x2="257.094" y2="92.4321" gradientUnits="userSpaceOnUse">
<stop stop-color="white"/>
<stop offset="1" stop-color="white" stop-opacity="0"/>
</linearGradient>
<linearGradient id="paint102_linear_494_188400" x1="296.591" y1="138.317" x2="268.191" y2="138.317" gradientUnits="userSpaceOnUse">
<stop stop-color="white"/>
<stop offset="1" stop-color="white" stop-opacity="0"/>
</linearGradient>
<linearGradient id="paint103_linear_494_188400" x1="274.456" y1="156.224" x2="257.094" y2="135.707" gradientUnits="userSpaceOnUse">
<stop stop-color="white"/>
<stop offset="1" stop-color="white" stop-opacity="0"/>
</linearGradient>
<linearGradient id="paint104_linear_494_188400" x1="296.591" y1="181.595" x2="268.191" y2="181.595" gradientUnits="userSpaceOnUse">
<stop stop-color="white"/>
<stop offset="1" stop-color="white" stop-opacity="0"/>
</linearGradient>
<linearGradient id="paint105_linear_494_188400" x1="274.456" y1="199.501" x2="257.094" y2="178.985" gradientUnits="userSpaceOnUse">
<stop stop-color="white"/>
<stop offset="1" stop-color="white" stop-opacity="0"/>
</linearGradient>
<linearGradient id="paint106_linear_494_188400" x1="296.591" y1="224.87" x2="268.191" y2="224.87" gradientUnits="userSpaceOnUse">
<stop stop-color="white"/>
<stop offset="1" stop-color="white" stop-opacity="0"/>
</linearGradient>
<linearGradient id="paint107_linear_494_188400" x1="274.456" y1="242.778" x2="257.094" y2="222.262" gradientUnits="userSpaceOnUse">
<stop stop-color="white"/>
<stop offset="1" stop-color="white" stop-opacity="0"/>
</linearGradient>
<linearGradient id="paint108_linear_494_188400" x1="296.591" y1="268.145" x2="268.191" y2="268.145" gradientUnits="userSpaceOnUse">
<stop stop-color="white"/>
<stop offset="1" stop-color="white" stop-opacity="0"/>
</linearGradient>
<linearGradient id="paint109_linear_494_188400" x1="274.456" y1="286.052" x2="257.094" y2="265.536" gradientUnits="userSpaceOnUse">
<stop stop-color="white"/>
<stop offset="1" stop-color="white" stop-opacity="0"/>
</linearGradient>
<linearGradient id="paint110_linear_494_188400" x1="296.591" y1="311.423" x2="268.191" y2="311.423" gradientUnits="userSpaceOnUse">
<stop stop-color="white"/>
<stop offset="1" stop-color="white" stop-opacity="0"/>
</linearGradient>
<linearGradient id="paint111_linear_494_188400" x1="274.456" y1="329.329" x2="257.094" y2="308.813" gradientUnits="userSpaceOnUse">
<stop stop-color="white"/>
<stop offset="1" stop-color="white" stop-opacity="0"/>
</linearGradient>
<linearGradient id="paint112_linear_494_188400" x1="339.869" y1="8.4891" x2="311.469" y2="8.4891" gradientUnits="userSpaceOnUse">
<stop stop-color="white"/>
<stop offset="1" stop-color="white" stop-opacity="0"/>
</linearGradient>
<linearGradient id="paint113_linear_494_188400" x1="317.734" y1="26.3954" x2="300.372" y2="5.87934" gradientUnits="userSpaceOnUse">
<stop stop-color="white"/>
<stop offset="1" stop-color="white" stop-opacity="0"/>
</linearGradient>
<linearGradient id="paint114_linear_494_188400" x1="339.869" y1="51.7645" x2="311.469" y2="51.7645" gradientUnits="userSpaceOnUse">
<stop stop-color="white"/>
<stop offset="1" stop-color="white" stop-opacity="0"/>
</linearGradient>
<linearGradient id="paint115_linear_494_188400" x1="317.734" y1="69.6727" x2="300.372" y2="49.1567" gradientUnits="userSpaceOnUse">
<stop stop-color="white"/>
<stop offset="1" stop-color="white" stop-opacity="0"/>
</linearGradient>
<linearGradient id="paint116_linear_494_188400" x1="339.869" y1="95.0418" x2="311.469" y2="95.0418" gradientUnits="userSpaceOnUse">
<stop stop-color="white"/>
<stop offset="1" stop-color="white" stop-opacity="0"/>
</linearGradient>
<linearGradient id="paint117_linear_494_188400" x1="317.734" y1="112.948" x2="300.372" y2="92.4321" gradientUnits="userSpaceOnUse">
<stop stop-color="white"/>
<stop offset="1" stop-color="white" stop-opacity="0"/>
</linearGradient>
<linearGradient id="paint118_linear_494_188400" x1="339.869" y1="138.317" x2="311.469" y2="138.317" gradientUnits="userSpaceOnUse">
<stop stop-color="white"/>
<stop offset="1" stop-color="white" stop-opacity="0"/>
</linearGradient>
<linearGradient id="paint119_linear_494_188400" x1="317.734" y1="156.224" x2="300.372" y2="135.707" gradientUnits="userSpaceOnUse">
<stop stop-color="white"/>
<stop offset="1" stop-color="white" stop-opacity="0"/>
</linearGradient>
<linearGradient id="paint120_linear_494_188400" x1="339.869" y1="181.595" x2="311.469" y2="181.595" gradientUnits="userSpaceOnUse">
<stop stop-color="white"/>
<stop offset="1" stop-color="white" stop-opacity="0"/>
</linearGradient>
<linearGradient id="paint121_linear_494_188400" x1="317.734" y1="199.501" x2="300.372" y2="178.985" gradientUnits="userSpaceOnUse">
<stop stop-color="white"/>
<stop offset="1" stop-color="white" stop-opacity="0"/>
</linearGradient>
<linearGradient id="paint122_linear_494_188400" x1="339.869" y1="224.87" x2="311.469" y2="224.87" gradientUnits="userSpaceOnUse">
<stop stop-color="white"/>
<stop offset="1" stop-color="white" stop-opacity="0"/>
</linearGradient>
<linearGradient id="paint123_linear_494_188400" x1="317.734" y1="242.778" x2="300.372" y2="222.262" gradientUnits="userSpaceOnUse">
<stop stop-color="white"/>
<stop offset="1" stop-color="white" stop-opacity="0"/>
</linearGradient>
<linearGradient id="paint124_linear_494_188400" x1="339.869" y1="268.145" x2="311.469" y2="268.145" gradientUnits="userSpaceOnUse">
<stop stop-color="white"/>
<stop offset="1" stop-color="white" stop-opacity="0"/>
</linearGradient>
<linearGradient id="paint125_linear_494_188400" x1="317.734" y1="286.052" x2="300.372" y2="265.536" gradientUnits="userSpaceOnUse">
<stop stop-color="white"/>
<stop offset="1" stop-color="white" stop-opacity="0"/>
</linearGradient>
<linearGradient id="paint126_linear_494_188400" x1="339.869" y1="311.423" x2="311.469" y2="311.423" gradientUnits="userSpaceOnUse">
<stop stop-color="white"/>
<stop offset="1" stop-color="white" stop-opacity="0"/>
</linearGradient>
<linearGradient id="paint127_linear_494_188400" x1="317.734" y1="329.329" x2="300.372" y2="308.813" gradientUnits="userSpaceOnUse">
<stop stop-color="white"/>
<stop offset="1" stop-color="white" stop-opacity="0"/>
</linearGradient>
</defs>
</svg>
