<svg width="320" height="320" viewBox="0 0 320 320" fill="none" xmlns="http://www.w3.org/2000/svg">
<path d="M154.669 208.005C154.669 200.641 148.699 194.672 141.336 194.672C133.973 194.672 128.003 200.641 128.003 208.005M181.33 208.003C181.33 193.276 169.392 181.337 154.665 181.337C139.938 181.337 128 193.276 128 208.003M207.996 208.005C207.996 185.914 190.088 168.005 167.998 168.005C145.908 168.005 128.001 185.914 128.001 208.005M234.663 208.003C234.663 178.548 210.786 154.67 181.332 154.67C151.879 154.67 128.002 178.548 128.002 208.003M261.328 208.005C261.328 171.186 231.482 141.338 194.665 141.338C157.848 141.338 128.002 171.186 128.002 208.005M288 207.998C288 215.362 282.031 221.332 274.667 221.332C267.304 221.332 261.335 215.362 261.335 207.998C261.335 200.635 267.304 194.665 274.667 194.665C282.031 194.665 288 200.635 288 207.998ZM287.997 208C287.997 222.728 276.058 234.667 261.332 234.667C246.605 234.667 234.667 222.728 234.667 208C234.667 193.272 246.605 181.333 261.332 181.333C276.058 181.333 287.997 193.272 287.997 208ZM287.998 207.995C287.998 230.086 270.09 247.995 248 247.995C225.91 247.995 208.003 230.086 208.003 207.995C208.003 185.904 225.91 167.995 248 167.995C270.09 167.995 287.998 185.904 287.998 207.995ZM288 208.003C288 237.459 264.123 261.337 234.669 261.337C205.216 261.337 181.339 237.459 181.339 208.003C181.339 178.548 205.216 154.67 234.669 154.67C264.123 154.67 288 178.548 288 208.003ZM287.995 207.998C287.995 244.817 258.149 274.665 221.332 274.665C184.515 274.665 154.669 244.817 154.669 207.998C154.669 171.179 184.515 141.332 221.332 141.332C258.149 141.332 287.995 171.179 287.995 207.998ZM287.998 208C287.998 252.183 252.183 288 208.003 288C163.823 288 128.007 252.183 128.007 208C128.007 163.817 163.823 128 208.003 128C252.183 128 287.998 163.817 287.998 208Z" stroke="#F5D7A9" stroke-width="5"/>
</svg>
