<svg width="320" height="320" viewBox="0 0 320 320" fill="none" xmlns="http://www.w3.org/2000/svg">
<rect width="320" height="320" rx="24" fill="#A04834"/>
<path fill-rule="evenodd" clip-rule="evenodd" d="M160.582 46.4051C160.789 46.5979 160.971 46.7739 161.128 46.9286C175.961 47.1633 190.134 53.1937 200.637 63.7607C211.351 74.5408 217.368 89.159 217.368 104.399C217.368 119.639 211.351 134.257 200.637 145.037C191.342 154.388 178.81 160.549 165.723 162.003C175.169 169.69 187.045 173.944 199.364 173.944C213.449 173.944 226.955 168.383 236.912 158.488C246.866 148.591 252.456 135.172 252.456 121.183C252.456 107.489 247.1 94.3419 237.536 84.5098C237.318 84.5074 237.068 84.5017 236.789 84.4906C235.761 84.4498 234.332 84.3355 232.718 84.0402C229.54 83.4587 225.392 82.1297 222.265 79.0216C219.134 75.9092 217.802 71.7894 217.224 68.6315C216.931 67.029 216.82 65.6112 216.783 64.5905C216.764 64.0787 216.763 63.6629 216.767 63.3691C216.77 63.2221 216.773 63.1053 216.776 63.0219L216.78 62.9222L216.782 62.8919L216.782 62.8817L216.783 62.8763C216.783 62.8756 216.783 62.875 218.885 62.9955C218.769 60.8934 218.769 60.8934 218.77 60.8934L218.775 60.8931L218.785 60.8926L218.816 60.8911L218.916 60.8871C218.999 60.8842 219.117 60.8809 219.265 60.879C219.56 60.8751 219.979 60.8763 220.494 60.8958C221.521 60.9345 222.948 61.0461 224.56 61.3389C227.735 61.9156 231.88 63.2405 235.007 66.3516C238.135 69.4634 239.471 73.5864 240.054 76.747C240.35 78.351 240.463 79.7704 240.503 80.7924C240.514 81.0717 240.52 81.3224 240.522 81.5403C250.867 92.1588 256.667 106.373 256.667 121.183C256.667 136.297 250.627 150.789 239.881 161.474C229.132 172.155 214.558 178.154 199.364 178.154C185.845 178.154 172.816 173.405 162.536 164.833C163.621 177.18 169.042 188.815 177.931 197.651C187.92 207.578 201.47 213.158 215.601 213.158C229.733 213.158 243.283 207.578 253.271 197.651C263.052 187.929 268.633 174.818 268.861 161.1C268.71 160.947 268.538 160.769 268.352 160.569C267.651 159.817 266.718 158.731 265.784 157.386C263.943 154.737 261.946 150.871 261.946 146.456C261.946 142.041 263.943 138.176 265.784 135.526C266.718 134.181 267.651 133.096 268.352 132.343C268.703 131.966 268.999 131.67 269.211 131.465C269.226 131.45 269.241 131.436 269.256 131.422C269.299 131.38 269.338 131.343 269.373 131.31L269.464 131.224L269.538 131.156L269.561 131.136L269.568 131.129L269.572 131.126C269.573 131.125 269.573 131.125 270.973 132.697C272.373 131.125 272.374 131.125 272.374 131.126L272.378 131.129L272.386 131.136L272.408 131.156L272.482 131.224L272.599 131.334L272.735 131.465C272.948 131.67 273.244 131.966 273.595 132.343C274.296 133.096 275.228 134.181 276.163 135.526C278.004 138.176 280 142.041 280 146.456C280 150.871 278.004 154.737 276.163 157.386C275.228 158.731 274.296 159.817 273.595 160.569C273.402 160.776 273.226 160.958 273.072 161.114C272.84 175.952 266.809 190.131 256.239 200.637C245.459 211.351 230.841 217.368 215.601 217.368C200.361 217.368 185.743 211.351 174.963 200.637C165.39 191.121 159.54 178.593 158.35 165.291C150.443 174.805 146.06 186.855 146.06 199.362C146.06 213.448 151.62 226.954 161.513 236.912C171.407 246.866 184.823 252.456 198.808 252.456C212.503 252.456 225.658 247.097 235.489 237.529C235.491 237.312 235.496 237.063 235.507 236.786C235.546 235.759 235.658 234.332 235.951 232.72C236.528 229.545 237.852 225.4 240.96 222.273C244.072 219.142 248.195 217.806 251.357 217.223C252.961 216.928 254.381 216.815 255.403 216.775C255.916 216.756 256.332 216.754 256.626 216.758C256.774 216.76 256.891 216.763 256.974 216.766L257.074 216.77L257.104 216.771L257.114 216.772L257.12 216.772C257.12 216.772 257.121 216.772 257.005 218.874C259.107 218.759 259.107 218.76 259.107 218.761L259.107 218.766L259.108 218.776L259.109 218.807L259.113 218.907C259.116 218.99 259.119 219.108 259.121 219.256C259.125 219.551 259.123 219.969 259.104 220.484C259.065 221.512 258.952 222.938 258.659 224.55C258.082 227.726 256.756 231.87 253.646 234.998C250.534 238.126 246.412 239.462 243.252 240.045C241.648 240.341 240.229 240.454 239.208 240.494C238.929 240.505 238.678 240.51 238.46 240.512C227.843 250.864 213.62 256.667 198.808 256.667C183.698 256.667 169.208 250.627 158.526 239.88C147.847 229.131 141.849 214.556 141.849 199.362C141.849 185.844 146.596 172.816 155.164 162.537C142.819 163.622 131.184 169.042 122.349 177.932C112.422 187.92 106.842 201.47 106.842 215.601C106.842 229.733 112.422 243.283 122.349 253.271C132.067 263.048 145.197 268.63 158.912 268.861C159.065 268.71 159.242 268.539 159.441 268.353C160.192 267.652 161.277 266.719 162.622 265.784C165.27 263.942 169.135 261.946 173.557 261.946C177.972 261.946 181.837 263.943 184.487 265.784C185.832 266.718 186.917 267.651 187.669 268.352C188.046 268.703 188.342 268.999 188.548 269.211C188.651 269.317 188.732 269.403 188.789 269.464L188.856 269.538L188.877 269.561L188.884 269.568L188.887 269.572C188.888 269.573 188.888 269.573 187.316 270.973C188.888 272.373 188.888 272.374 188.887 272.374L188.884 272.378L188.877 272.386L188.856 272.408L188.789 272.482C188.732 272.543 188.651 272.629 188.548 272.735C188.342 272.948 188.046 273.244 187.669 273.595C186.917 274.296 185.832 275.228 184.487 276.163C181.837 278.004 177.972 280 173.557 280C169.142 280 165.276 278.004 162.627 276.163C161.282 275.228 160.196 274.296 159.444 273.595C159.237 273.402 159.055 273.226 158.898 273.071C144.065 272.837 129.867 266.807 119.363 256.239C108.649 245.459 102.632 230.841 102.632 215.601C102.632 200.361 108.649 185.743 119.363 174.963C128.883 165.385 141.419 159.534 154.729 158.348C145.211 150.427 133.152 146.035 120.636 146.035C106.551 146.035 93.045 151.596 83.0881 161.491C73.1337 171.388 67.5439 184.807 67.5439 198.796C67.5439 212.497 72.906 225.651 82.4791 235.485C82.6962 235.487 82.9453 235.492 83.2224 235.503C84.2495 235.542 85.6763 235.654 87.2883 235.947C90.4638 236.525 94.6081 237.851 97.7353 240.962C100.866 244.072 102.202 248.195 102.784 251.356C103.079 252.961 103.192 254.381 103.232 255.403C103.252 255.916 103.253 256.332 103.249 256.626L103.246 256.81L103.241 256.974L103.237 257.074L103.236 257.104L103.235 257.114L103.235 257.12C103.235 257.12 103.235 257.121 101.133 257.005C101.248 259.107 101.247 259.107 101.246 259.107L101.241 259.107L101.231 259.108L101.201 259.109L101.101 259.113C101.017 259.116 100.9 259.119 100.752 259.121C100.456 259.125 100.038 259.123 99.5229 259.104C98.4957 259.065 97.069 258.952 95.4569 258.659C92.2815 258.081 88.1372 256.755 85.01 253.644C81.8819 250.533 80.5459 246.41 79.9631 243.249C79.6674 241.645 79.554 240.226 79.5141 239.204C79.5032 238.925 79.4978 238.674 79.4957 238.456C69.1394 227.836 63.3333 213.614 63.3333 198.796C63.3333 183.682 69.3728 169.189 80.1194 158.505C90.8679 147.823 105.442 141.825 120.636 141.825C134.154 141.825 147.182 146.573 157.462 155.144C156.372 142.806 150.953 131.18 142.069 122.349C132.08 112.422 118.53 106.842 104.399 106.842C90.2674 106.842 76.7174 112.422 66.7289 122.349C56.948 132.071 51.3666 145.182 51.1392 158.9C51.2905 159.053 51.4616 159.231 51.6484 159.431C52.3493 160.183 53.2816 161.269 54.2163 162.614C56.0574 165.263 58.0535 169.129 58.0535 173.544C58.0535 177.959 56.0574 181.824 54.2163 184.474C53.2816 185.819 52.3493 186.904 51.6484 187.657C51.2971 188.034 51.0013 188.33 50.7889 188.535C50.6826 188.638 50.597 188.719 50.5355 188.776L50.4617 188.843L50.4392 188.864L50.4316 188.871L50.4276 188.874C50.4271 188.875 50.4266 188.875 49.0268 187.303C47.627 188.875 47.6265 188.875 47.6259 188.874L47.6219 188.871L47.6144 188.864L47.5918 188.843L47.518 188.776C47.4565 188.719 47.3709 188.638 47.2646 188.535C47.0523 188.33 46.7565 188.034 46.4051 187.657C45.7043 186.904 44.7719 185.819 43.8372 184.474C41.9961 181.824 40 177.959 40 173.544C40 169.129 41.9961 165.263 43.8372 162.614C44.7719 161.269 45.7043 160.183 46.4051 159.431C46.5978 159.224 46.7737 159.042 46.9284 158.886C47.1598 144.048 53.1906 129.869 63.7607 119.363C74.5408 108.649 89.159 102.632 104.399 102.632C119.639 102.632 134.257 108.649 145.037 119.363C154.758 129.025 160.64 141.794 161.702 155.325C169.584 145.712 173.962 133.16 173.962 120.638C173.962 106.552 168.402 93.0456 158.509 83.0882C148.614 73.1336 135.199 67.5439 121.213 67.5439C107.519 67.5439 94.3711 72.9032 84.5403 82.4719C84.5381 82.6903 84.5326 82.9411 84.5218 83.2202C84.4818 84.2495 84.3687 85.6791 84.0747 87.2933C83.4958 90.4713 82.1695 94.6193 79.06 97.737C75.948 100.868 71.8187 102.203 68.6531 102.785C67.0463 103.081 65.6239 103.194 64.5999 103.233C64.0864 103.253 63.6692 103.254 63.3745 103.251C63.227 103.249 63.1098 103.245 63.0263 103.243L62.9264 103.239L62.896 103.237L62.8859 103.237L62.8805 103.236C62.8798 103.236 62.8791 103.236 62.9952 101.134C60.8931 101.249 60.893 101.248 60.893 101.248L60.8927 101.242L60.8922 101.232L60.8908 101.202L60.8868 101.102C60.8839 101.018 60.8807 100.901 60.8789 100.753C60.8751 100.457 60.8765 100.039 60.8962 99.5242C60.9354 98.497 61.0475 97.0702 61.3408 95.4581C61.9184 92.2826 63.2441 88.1382 66.3543 85.0108C69.4659 81.8821 73.5961 80.5442 76.7623 79.9595C78.3694 79.6627 79.792 79.5482 80.8163 79.5075C81.0975 79.4963 81.3498 79.4907 81.5689 79.4884C92.1861 69.1367 106.401 63.3333 121.213 63.3333C136.324 63.3333 150.813 69.3732 161.495 80.1203C172.175 90.8693 178.172 105.444 178.172 120.638C178.172 134.022 173.53 147.462 165.087 157.837C177.246 156.527 188.965 150.807 197.651 142.068C207.578 132.08 213.158 118.53 213.158 104.399C213.158 90.2674 207.578 76.7174 197.651 66.7289C187.932 56.9508 174.826 51.3697 161.112 51.1394C160.958 51.2909 160.78 51.4623 160.579 51.6495C159.826 52.3501 158.739 53.2822 157.394 54.2167C154.744 56.0571 150.878 58.0535 146.469 58.0535C142.054 58.0535 138.189 56.0575 135.539 54.2163C134.194 53.2816 133.108 52.3493 132.356 51.6484C131.979 51.2971 131.683 51.0013 131.478 50.7889C131.375 50.6826 131.294 50.597 131.237 50.5355L131.169 50.4617L131.149 50.4392L131.142 50.4316L131.139 50.4276C131.138 50.4271 131.138 50.4266 132.71 49.0268C131.138 47.627 131.138 47.6265 131.139 47.626L131.142 47.6219L131.149 47.6144L131.169 47.5918L131.237 47.518C131.294 47.4565 131.375 47.3709 131.478 47.2647C131.683 47.0523 131.979 46.7565 132.356 46.4051C133.108 45.7043 134.194 44.7719 135.539 43.8372C138.189 41.9961 142.054 40 146.469 40C150.884 40 154.75 41.9961 157.399 43.8372C158.744 44.7719 159.83 45.7043 160.582 46.4051ZM137.942 50.7587C137.07 50.1528 136.323 49.5456 135.734 49.0268C136.323 48.508 137.07 47.9007 137.942 47.2948C140.273 45.6752 143.287 44.2105 146.469 44.2105C149.651 44.2105 152.665 45.6752 154.996 47.2948C155.867 47.9003 156.614 48.5071 157.203 49.0256C156.613 49.5447 155.865 50.1522 154.992 50.7583C152.659 52.3787 149.645 53.843 146.469 53.843C143.287 53.843 140.273 52.3783 137.942 50.7587ZM235.913 77.5105C236.102 78.5343 236.204 79.4733 236.257 80.2454C235.474 80.1917 234.518 80.0891 233.476 79.8984C230.674 79.3857 227.494 78.2818 225.234 76.0354C222.974 73.789 221.873 70.6422 221.366 67.8734C221.179 66.8496 221.079 65.9108 221.027 65.1395C221.81 65.1916 222.765 65.2924 223.807 65.4817C226.604 65.9896 229.778 67.0891 232.038 69.3367C234.297 71.5837 235.402 74.7358 235.913 77.5105ZM269.241 137.929C269.847 137.057 270.454 136.31 270.973 135.721C271.492 136.31 272.099 137.057 272.705 137.929C274.325 140.26 275.789 143.274 275.789 146.456C275.789 149.638 274.325 152.653 272.705 154.983C272.099 155.855 271.492 156.602 270.973 157.192C270.454 156.602 269.847 155.855 269.241 154.983C267.622 152.653 266.157 149.638 266.157 146.456C266.157 143.274 267.622 140.26 269.241 137.929ZM242.488 235.904C241.464 236.093 240.524 236.195 239.751 236.248C239.803 235.466 239.905 234.513 240.094 233.473C240.602 230.675 241.701 227.5 243.947 225.241C246.193 222.98 249.345 221.875 252.12 221.364C253.146 221.175 254.086 221.074 254.86 221.021C254.807 221.803 254.706 222.756 254.517 223.797C254.008 226.594 252.908 229.769 250.66 232.029C248.414 234.287 245.262 235.393 242.488 235.904ZM165.03 272.705C164.157 272.099 163.41 271.491 162.82 270.972C163.409 270.454 164.154 269.847 165.025 269.241C167.353 267.622 170.368 266.157 173.557 266.157C176.739 266.157 179.753 267.622 182.084 269.241C182.956 269.847 183.703 270.454 184.292 270.973C183.703 271.492 182.956 272.099 182.084 272.705C179.753 274.325 176.739 275.789 173.557 275.789C170.374 275.789 167.36 274.325 165.03 272.705ZM98.6429 252.119C98.8319 253.145 98.9335 254.086 98.9865 254.86C98.2045 254.807 97.251 254.706 96.2107 254.517C93.4138 254.008 90.2391 252.907 87.9795 250.659C85.7207 248.412 84.6155 245.26 84.1039 242.486C83.9148 241.46 83.813 240.52 83.7597 239.747C84.5415 239.8 85.4947 239.901 86.5346 240.09C89.3314 240.599 92.5062 241.699 94.7658 243.947C97.0256 246.192 98.1319 249.344 98.6429 252.119ZM50.7587 182.071C50.1528 182.943 49.5455 183.69 49.0268 184.279C48.508 183.69 47.9007 182.943 47.2948 182.071C45.6752 179.74 44.2105 176.726 44.2105 173.544C44.2105 170.362 45.6752 167.347 47.2948 165.017C47.9007 164.145 48.508 163.398 49.0268 162.808C49.5455 163.398 50.1528 164.145 50.7587 165.017C52.3783 167.347 53.843 170.362 53.843 173.544C53.843 176.726 52.3783 179.74 50.7587 182.071ZM77.527 84.1C78.5568 83.9098 79.5013 83.8072 80.2773 83.7533C80.2243 84.5381 80.1224 85.4951 79.9323 86.5387C79.4216 89.3424 78.3201 92.5172 76.0776 94.7648L76.0746 94.7678C73.8291 97.0275 70.6728 98.1329 67.8918 98.6442C66.8614 98.8336 65.9164 98.9352 65.1404 98.9881C65.1929 98.2061 65.294 97.2523 65.4833 96.2117C65.9921 93.4146 67.0924 90.2397 69.3398 87.9799C71.5858 85.7215 74.7441 84.614 77.527 84.1Z" fill="#F5F3EF"/>
<path d="M132.71 49.0268L131.139 50.4276L129.892 49.0268L131.139 47.626L132.71 49.0268Z" fill="#F5F3EF"/>
<path d="M62.9952 101.134L62.8805 103.236L60.996 103.132L60.893 101.248L62.9952 101.134Z" fill="#F5F3EF"/>
<path d="M49.0268 187.303L50.4276 188.874L49.0268 190.121L47.6259 188.874L49.0268 187.303Z" fill="#F5F3EF"/>
<path d="M101.133 257.005L103.235 257.12L103.131 259.004L101.246 259.107L101.133 257.005Z" fill="#F5F3EF"/>
<path d="M187.316 270.973L188.887 269.572L190.134 270.973L188.887 272.374L187.316 270.973Z" fill="#F5F3EF"/>
<path d="M257.005 218.874L257.12 216.772L259.004 216.877L259.107 218.761L257.005 218.874Z" fill="#F5F3EF"/>
<path d="M270.973 132.697L269.572 131.126L270.973 129.879L272.374 131.126L270.973 132.697Z" fill="#F5F3EF"/>
<path d="M218.885 62.9955L216.783 62.8763L216.89 60.997L218.77 60.8934L218.885 62.9955Z" fill="#F5F3EF"/>
</svg>
