<svg width="96" height="96" viewBox="0 0 96 96" fill="none" xmlns="http://www.w3.org/2000/svg">
<path d="M35.0853 22.5118C34.5493 21.0396 34.2563 19.4504 34.2563 17.7949C34.2563 10.1762 40.4325 4 48.0512 4C55.6699 4 61.8461 10.1762 61.8461 17.7949C61.8461 20.0266 61.3128 22.1421 60.3673 24.0127C61.7278 24.1068 63.0498 24.7198 64.0137 25.8213C69.2505 31.8063 73.8333 40.3397 73.8333 50.2308C73.8333 57.3022 71.3988 62.5421 68.1091 66.3177L74.3571 67.4135C76.9083 67.8609 78.7691 70.0766 78.7691 72.6667V82.6667C78.7691 84.0812 78.2072 85.4377 77.207 86.4379C76.2069 87.4381 74.8503 88 73.4358 88L22.6666 88C19.7211 88 17.3333 85.6122 17.3333 82.6667V72.6667C17.3333 70.0796 19.19 67.8656 21.7375 67.4149L27.3736 66.4178C24.0391 62.6352 21.564 57.3658 21.564 50.2308C21.564 42.5138 24.5546 35.7932 28.0621 30.6427C30.2667 27.4054 32.7627 24.657 35.0853 22.5118Z" fill="black"/>
<path d="M50.6667 49.5256H45.3334C45.3334 39.7325 48.3037 29.9558 54.8749 22.7995C55.9046 21.3979 56.5129 19.6674 56.5129 17.7948C56.5129 13.1216 52.7246 9.33325 48.0514 9.33325C43.3782 9.33325 39.5898 13.1216 39.5898 17.7948C39.5898 20.1004 40.512 22.1907 42.0076 23.7168C36.722 27.4849 26.8975 37.5851 26.8975 50.2307C26.8975 62.9923 36.903 68.1589 42.1519 69.2195L22.6667 72.6666V82.6666L73.436 82.6666V72.6666L53.4888 69.1682C58.797 67.9997 68.5001 62.798 68.5001 50.2307C68.5001 42.0019 64.6667 34.6666 60.0001 29.3333C54.8749 33.3333 50.6667 42.6666 50.6667 49.5256Z" fill="white"/>
</svg>
