<svg width="96" height="96" viewBox="0 0 96 96" fill="none" xmlns="http://www.w3.org/2000/svg">
<path fill-rule="evenodd" clip-rule="evenodd" d="M40.0025 5.16675C40.0924 2.28749 42.4525 0 45.3332 0H53.3332C56.2139 0 58.574 2.28749 58.6639 5.16675L58.7108 6.66667H61.3332C64.2787 6.66667 66.6665 9.05448 66.6665 12V15.2347C72.4801 13.9192 78.755 14.7979 84.0809 19.2362C95.1451 28.4563 94.127 47.7841 80.9961 58.3558C77.8273 60.907 75.3379 63.0221 73.6236 65.2013C73.2325 65.6985 72.8975 66.1796 72.6155 66.6504L78.0206 67.3815C80.6658 67.7392 82.6391 69.9974 82.6391 72.6667V82.6667C82.6391 85.6122 80.2513 88 77.3058 88H21.3606C18.4151 88 16.0273 85.6122 16.0273 82.6667V72.6667C16.0273 69.9974 18.0006 67.7392 20.6458 67.3815L26.0509 66.6504C25.7689 66.1795 25.4339 65.6985 25.0427 65.2013C23.3285 63.022 20.8391 60.907 17.6703 58.3558C4.53935 47.7841 3.52131 28.4564 14.5855 19.2362C19.9114 14.7979 26.1863 13.9192 31.9999 15.2347V12C31.9999 9.05448 34.3877 6.66667 37.3332 6.66667H39.9556L40.0025 5.16675Z" fill="black"/>
<path fill-rule="evenodd" clip-rule="evenodd" d="M45.3335 5.33325H53.3335L53.5418 11.9999H61.3335V19.9999H53.7918L54.1582 29.0572C54.3044 28.885 54.4549 28.7161 54.6101 28.5512C61.8943 20.8094 72.6944 16.6895 80.6668 23.3333C88.6668 29.9999 88.6668 45.3333 77.6518 54.2015C71.4122 59.225 65.8233 64.0678 66.0986 71.1508L77.3061 72.6666V82.6666H21.3609V72.6666L32.5683 71.1508C32.8437 64.0678 27.2548 59.225 21.0152 54.2015C10.0002 45.3333 10.0002 29.9999 18.0002 23.3333C25.9726 16.6895 36.7727 20.8094 44.0569 28.5512C44.2121 28.7161 44.3626 28.885 44.5088 29.0572L44.8752 19.9999H37.3335V11.9999H45.1252L45.3335 5.33325ZM37.7975 35.9641C42.6864 43.9721 43.3335 53.3333 43.3335 57.4042C40.883 57.4086 31.6453 53.3446 26.7543 46.6728C23.2332 41.8695 22.3151 34.7432 25.3335 31.9766C28.3519 29.21 34.742 30.9591 37.7975 35.9641ZM60.8695 35.9641C55.9806 43.9721 55.3335 53.3333 55.3335 57.4042C57.784 57.4086 67.0217 53.3446 71.9127 46.6728C75.4338 41.8695 76.3519 34.7432 73.3335 31.9766C70.3151 29.21 63.925 30.9591 60.8695 35.9641Z" fill="white"/>
</svg>
