<svg width="96" height="96" viewBox="0 0 96 96" fill="none" xmlns="http://www.w3.org/2000/svg">
<path d="M39.5865 0.676033C41.3421 0.478627 43.0815 1.16336 44.2314 2.50452L55.1126 15.1958C67.6085 18.2838 74.8487 27.6932 78.8531 39.4396C82.9793 51.5434 84 66.9094 84 82.6667C84 85.6122 81.6122 88.0001 78.6667 88.0001H28.9399C26.1085 88.0001 23.7706 85.7875 23.6147 82.9604C23.4755 80.4375 24.056 76.0599 25.8248 71.5886L25.8573 71.5068C20.8343 74.203 15.2598 73.5572 11.1215 70.6108C6.09239 67.0301 3.29606 60.0206 6.49091 53.0985C8.79475 48.1068 11.2778 45.4635 13.1562 43.4644C14.9108 41.597 15.642 40.7757 16.1593 38.7066C19.2956 26.1613 25.7479 18.9343 32.6772 15.6362C32.577 14.207 32.6585 12.8301 32.8338 11.5799C33.2701 8.46818 34.3564 5.59259 35.4637 3.49041C36.287 1.92736 37.8309 0.873439 39.5865 0.676033Z" fill="black"/>
<path fill-rule="evenodd" clip-rule="evenodd" d="M52.2274 20.0246L40.1823 5.97583C38.4387 9.28596 36.7483 15.1281 39.1786 19.3455C37.999 19.4505 36.8717 19.65 35.9998 20C30.437 22.2324 24.3332 28 21.3332 40C20.4645 43.4747 18.901 45.1386 17.0427 47.1163C15.2899 48.9818 13.2748 51.1264 11.3332 55.3333C7.33316 64 18.1282 72.6666 25.9998 64.7951C30.4253 60.3695 34.2936 58.5426 37.5414 57.0087C42.2158 54.8011 45.6047 53.2006 47.519 45.3333C48.4297 49.003 48.0654 57.6636 39.3222 62.948C30.5791 68.2324 28.7576 79.3638 28.9397 82.6666H78.6665C78.6665 51.3109 74.5151 24.2197 52.2274 20.0246Z" fill="white"/>
<circle cx="37.3333" cy="36" r="4" fill="black"/>
</svg>
