<svg width="96" height="96" viewBox="0 0 96 96" fill="none" xmlns="http://www.w3.org/2000/svg">
<path d="M30.81 54.836C30.1737 55.7046 29.4145 56.6092 28.5294 57.5398C25.406 60.8238 21.5754 63.5257 19.1031 64.9384L18.6872 65.1761C17.0255 66.1257 16 67.8928 16 69.8067V82.6667C16 85.6122 18.3878 88 21.3333 88H73.3333C76.2789 88 78.6667 85.6122 78.6667 82.6667V69.8067C78.6667 67.8928 77.6412 66.1257 75.9794 65.1761L75.5635 64.9385C73.0913 63.5257 69.2606 60.8238 66.1373 57.5398C65.2522 56.6092 64.493 55.7046 63.8567 54.836C66.1974 54.2722 67.9365 52.1646 67.9365 49.6508V40.9691C67.9365 39.2362 67.0946 37.6113 65.6788 36.612L63.4136 35.013C64.7206 32.4735 65.4603 29.5917 65.4603 26.5397C65.4603 16.3005 57.1598 8 46.9206 8C36.6815 8 28.381 16.3005 28.381 26.5397C28.381 29.7634 29.2059 32.7963 30.6527 35.4368L28.9878 36.612C27.5721 37.6113 26.7302 39.2362 26.7302 40.9691V49.6508C26.7302 52.1646 28.4693 54.2722 30.81 54.836Z" fill="white"/>
<path d="M60.1269 26.5396C60.1269 30.3698 58.4963 33.8192 55.8915 36.2314L62.6031 40.9691V49.6507H56.0327C56.3495 53.6749 58.9315 57.7023 62.2726 61.2152C65.8184 64.9433 70.0843 67.9501 72.9174 69.569L73.3333 69.8066V82.6666H21.3333V69.8066L21.7491 69.569C24.5822 67.9501 28.8481 64.9433 32.3939 61.2152C35.735 57.7023 38.317 53.6749 38.6338 49.6507H32.0634V40.9691L38.3142 36.5568C35.4978 34.1348 33.7142 30.5455 33.7142 26.5396C33.7142 19.2459 39.6269 13.3333 46.9206 13.3333C54.2142 13.3333 60.1269 19.2459 60.1269 26.5396Z" fill="black"/>
</svg>
