<svg width="96" height="96" viewBox="0 0 96 96" fill="none" xmlns="http://www.w3.org/2000/svg">
<path d="M23.9999 13.3333C23.9999 14.6497 24.2117 15.9163 24.603 17.101L21.9704 18.336C19.788 16.0737 16.7249 14.6666 13.3333 14.6666C6.70583 14.6666 1.33325 20.0392 1.33325 26.6666C1.33325 32.5743 5.60232 37.4849 11.2238 38.4818L17.5466 60.1599C17.6786 60.6124 17.87 61.0455 18.1157 61.4477L21.7599 67.4108L21.7375 67.4148C19.19 67.8655 17.3333 70.0795 17.3333 72.6666V82.6666C17.3333 85.6121 19.7211 87.9999 22.6666 87.9999L73.4358 87.9999C74.8503 87.9999 76.2069 87.438 77.207 86.4378C78.2072 85.4376 78.7691 84.0811 78.7691 82.6666V72.6666C78.7691 70.0765 76.9083 67.8609 74.3571 67.4134L74.2499 67.3946L77.8841 61.4477C78.1299 61.0455 78.3213 60.6124 78.4533 60.1599L84.776 38.4818C90.3975 37.4849 94.6666 32.5743 94.6666 26.6666C94.6666 20.0392 89.294 14.6666 82.6666 14.6666C79.2706 14.6666 76.2042 16.0772 74.0212 18.3445L71.3932 17.1118C71.7869 15.924 71.9999 14.6537 71.9999 13.3333C71.9999 6.70583 66.6273 1.33325 59.9999 1.33325C53.3725 1.33325 47.9999 6.70583 47.9999 13.3333C47.9999 6.70583 42.6273 1.33325 35.9999 1.33325C29.3725 1.33325 23.9999 6.70583 23.9999 13.3333Z" fill="black"/>
<path d="M38.3931 19.5577C40.8928 18.596 42.6667 16.1719 42.6667 13.3334C42.6667 9.65152 39.682 6.66675 36.0001 6.66675C32.3182 6.66675 29.3334 9.65152 29.3334 13.3334C29.3334 16.7359 31.8823 19.543 35.1748 19.9495L32.2018 44.0001L17.8697 31.5522C19.1802 30.3348 20.0001 28.5965 20.0001 26.6668C20.0001 22.9849 17.0153 20.0001 13.3334 20.0001C9.65152 20.0001 6.66675 22.9849 6.66675 26.6668C6.66675 30.3487 9.65152 33.3334 13.3334 33.3334C13.9816 33.3334 14.6081 33.2409 15.2006 33.0684L22.6667 58.6668L30.3876 71.3009L22.6667 72.6667V82.6667L73.436 82.6668V72.6667L65.616 71.2952L73.3334 58.6668L80.7996 33.0684C81.3921 33.2409 82.0186 33.3334 82.6668 33.3334C86.3487 33.3334 89.3334 30.3487 89.3334 26.6668C89.3334 22.9849 86.3487 20.0001 82.6668 20.0001C78.9849 20.0001 76.0001 22.9849 76.0001 26.6668C76.0001 28.5965 76.82 30.3348 78.1305 31.5522L63.7984 44.0001L60.8253 19.9495C64.1178 19.543 66.6667 16.7359 66.6667 13.3334C66.6667 9.65152 63.682 6.66675 60.0001 6.66675C56.3182 6.66675 53.3334 9.65152 53.3334 13.3334C53.3334 16.1719 55.1073 18.596 57.607 19.5577L48.0001 41.3334L38.3931 19.5577Z" fill="white"/>
</svg>
