<svg width="96" height="96" viewBox="0 0 96 96" fill="none" xmlns="http://www.w3.org/2000/svg">
<path d="M34.6667 6.66675C35.6381 6.66675 36.5489 6.92647 37.3333 7.38025C38.1178 6.92647 39.0286 6.66675 40 6.66675H54.6667C55.6381 6.66675 56.5489 6.92647 57.3333 7.38025C58.1178 6.92647 59.0286 6.66675 60 6.66675H73.3333C76.2789 6.66675 78.6667 9.05456 78.6667 12.0001V24.0001C78.6667 25.6788 77.8763 27.2595 76.5333 28.2667L68.3038 34.4389L70.6341 55.4111C71.251 60.9635 73.8353 63.7805 77.6 68.8001C78.2924 69.7233 78.6667 70.8461 78.6667 72.0001V82.6668C78.6667 85.6123 76.2789 88.0001 73.3333 88.0001H21.3333C18.3878 88.0001 16 85.6123 16 82.6668V72.0001C16 70.8461 16.3743 69.7233 17.0667 68.8001C20.8313 63.7805 23.4157 60.9635 24.0326 55.4111L26.3629 34.4389L18.1333 28.2667C16.7904 27.2595 16 25.6788 16 24.0001V12.0001C16 9.05456 18.3878 6.66675 21.3333 6.66675H34.6667Z" fill="white"/>
<path d="M21.3333 12H34.6666V20H39.9999V12H54.6666V20H59.9999V12H73.3332V24L62.6666 32L65.3333 56H29.3333L31.9999 32L21.3333 24V12Z" fill="black"/>
<path d="M29.3333 61.3333H65.3333L73.3333 72V82.6667H21.3333V72L29.3333 61.3333Z" fill="black"/>
</svg>
